v 11.00001 4 46
v 11.00001 -20 46
v 15 4 46.00004
v 15 -20 46.00004
v 15 4 30.00004
v 15 -20 30.00003
v 10.99994 -20 34
v 10.99994 4 34
v 10.99994 4 34
v 10.99994 -20 34
v 11.00001 4 46
v 11.00001 -20 46
v 27 4 34
v 27.00002 4 46
v 27.00002 -20 46
v 27 -20 34
v 10.99994 -20 34
v 15 -20 30.00003
v 14.99996 -20 34
v 11.00001 -20 46
v 15 -20 46.00004
v 23 -20 46
v 23 4 46
v 27.00002 -20 46
v 27.00002 4 46
v 23 4 30
v 15 -20 30.00003
v 15 4 30.00004
v 23 -20 29.99999
v 27 4 34
v 23 -20 29.99999
v 23 4 30
v 27 -20 34
v 23 -20 33.99998
v 23 -20 29.99999
v 27 -20 34
v 23 -20 46
v 27.00002 -20 46
v 15 4 46.00004
v 14.99996 4 34
v 11.00001 4 46
v 10.99994 4 34
v 15 4 30.00004
v 27.00002 4 46
v 27 4 34
v 23 4 46
v 23 4 33.99998
v 23 4 30
f 1 2 3
f 2 4 3
f 5 6 7
f 5 7 8
f 9 10 11
f 10 12 11
f 13 14 15
f 16 13 15
f 17 18 19
f 17 19 20
f 20 19 21
f 4 22 23
f 3 4 23
f 22 24 23
f 24 25 23
f 26 27 28
f 26 29 27
f 30 31 32
f 30 33 31
f 19 18 34
f 18 35 34
f 34 35 36
f 19 34 21
f 21 34 37
f 34 36 37
f 37 36 38
f 39 40 41
f 41 40 42
f 40 43 42
f 44 45 46
f 46 45 47
f 46 47 39
f 39 47 40
f 45 48 47
f 47 48 43
f 47 43 40
v -42 -20 52
v -41.99996 -20 54
v -41.99996 -15 54
v -42 -15 52
v -45.99996 -15 54
v -45.99996 12 48
v -45.99996 -15 52
v -45.99996 12 54
v -29.99989 -14 54
v -29.9999 -20 50
v -29.9999 -12 50
v -29.99989 -20 54
v -29.9999 12 50
v -29.99989 12 54
v -45.99996 -15 52
v -45.99996 -20 52
v -42 -15 52
v -42 -20 52
v -45.99996 -15 54
v -45.99996 -15 52
v -41.99996 -15 54
v -42 -15 52
v -46.00001 -15 35.99998
v -46.00001 -20 36
v -46.00002 -15 38
v -46.00002 -20 38
v -45.99996 -20 52
v -46.00001 12 35.99999
v -46.00002 12 38
v -30.00001 -12 38
v -30.00001 -20 36
v -30.00001 -14 36
v -30.00001 -20 38
v -45 -12 48
v -45 -20 43
v -45 -12 43
v -45 -20 48
v -30.00001 12 38
v -30.00001 12 36
v -31.99996 -20 54
v -29.99989 -20 54
v -29.99989 -14 54
v -31.99996 -14 54
v -29.99989 12 54
v -31.99996 12 54
v -32.00001 -12 35.99997
v -30.00001 -14 36
v -30.00001 -20 36
v -32.00001 -20 35.99997
v -32 12 35.99994
v -30.00001 12 36
v -31.99996 -20 54
v -31.99998 -20 50
v -29.99989 -20 54
v -29.9999 -20 50
v -32 -20 37.99997
v -32.00001 -20 35.99997
v -30.00001 -20 36
v -30.00001 -20 38
v -45.99996 -20 54
v -37.99996 -20 54
v -37.99996 -14 54
v -45.99996 -15 54
v -45.99996 12 54
v -37.99996 12 54
v -38 -12 35.99993
v -38 -20 35.99995
v -46.00001 -15 35.99998
v -46.00001 -20 36
v -38 12 35.99995
v -46.00001 12 35.99999
v -45.99996 -20 54
v -45.99996 -20 52
v -37.99996 -20 54
v -37.99998 -20 50
v -46.00002 -20 38
v -38 -20 38.00001
v -46.00001 -20 36
v -38 -20 35.99995
v -32 -12 38.00001
v -32 -20 37.99997
v -30.00001 -12 38
v -30.00001 -20 38
v -31.99998 -12 50
v -32 -12 38.00001
v -29.9999 -12 50
v -30.00001 -12 38
v -37.99998 -12 50
v -38 -12 38.00006
v -29.9999 -12 50
v -31.99998 -20 50
v -31.99998 -12 50
v -29.9999 -20 50
v -37.99998 -20 50
v -37.99998 -12 50
v -38 -12 38.00006
v -38 -20 38.00001
v -38 -12 35.99993
v -38 -20 35.99995
v -32.00001 -12 35.99997
v -38 -12 35.99993
v -32 -20 37.99997
v -32 -12 38.00001
v -32.00001 -20 35.99997
v -32.00001 -12 35.99997
v -38 -20 43
v -38 -12 42.99999
v -37.99998 -12 50
v -38 -12 48
v -38 -12 42.99999
v -37.99998 -12 50
v -37.99998 -20 50
v -38 -12 48
v -38 -20 48
v -38 -20 38.00001
v -38 -20 43
v -38 -20 48
v -42 -12 42.99999
v -42 -12 48
v -42 -6 42.99998
v -42 -6 48
v -45 -6 48
v -45 -6 43
v -38 -12 42.99999
v -42 -11 42.99997
v -43 -11 43
v -43 -6 43
v -45 -6 43
v -45 -11 43
v -45 -6 37
v -45 -11 37
v -31 -11 42
v -31 -6 42
v -31 -11 37
v -31 -6 37
v -43 -11 43
v -43 -6 43
v -43 -11 42
v -43 -6 42
v -43 -6 42
v -43 -6 37
v -43 -2 42
v -43 -2 37
v -31 -2 37
v -31 -2 42
v -41 -6 41.99998
v -43 -11 42
v -43 -6 42
v -41 -11 41.99998
v -31 -6 50
v -41 -11 50
v -41 -6 50
v -31 -11 50
v -43 -2 42
v -43 -2 37
v -41 -2 41.99998
v -37 -2 36.99999
v -31 -2 42
v -31 -2 37
v -43 -11 37
v -37 -11 36.99999
v -37 -6 36.99999
v -43 -6 37
v -31 -11 37
v -31 -6 37
v -31 -2 50
v -41 -2 50
v -41 -2 41.99998
v -43 -2 42
v -37 -2 36.99999
v -43 -2 37
v -31 -2 37
v -41 -11 41.99998
v -41 -6 41.99998
v -41 -11 50
v -41 -6 50
v -31 -6 50
v -31 -11 50
v -41 -2 41.99998
v -41 -2 50
v -41 -2 50
v -31 -2 50
v -31 -2 50
v -38 -12 42.99999
v -38 -12 48
v -42 -12 42.99999
v -42 -12 48
v -41.5 -20 43
v -38 -20 43
v -41.5 -12 43
v -38 -12 42.99999
v -45 -20 43
v -45 -12 43
v -45 -6 48
v -45 -6 43
v -41.5 -6 48
v -41.5 -6 42.99999
v -41.5 -12 48
v -38 -12 48
v -38 -20 48
v -41.5 -20 48
v -45 -20 48
v -45 -12 48
v -45 -11 37
v -44 -11 37
v -44 -6 37
v -45 -6 37
v -43 -11 37
v -43 -6 37
v -41.5 -6 48
v -45 -6 48
v -45 -11 43
v -45 -12 43
v -44 -11 43
v -41.5 -12 43
v -43 -11 43
v -38 -12 42.99999
v -42 -11 42.99997
v -41.5 -6 42.99999
v -43 -6 43
v -44 -6 43
v -44 -6 37
v -43 -6 43
v -43 -6 37
v -45 -6 43
v -45 -6 37
v -29.99989 12 54
v -29.9999 12 50
v -31.99998 12 50
v -31.99996 12 54
v -30.00001 12 38
v -32 12 37.99994
v -30.00001 12 36
v -32 12 35.99994
v -37.99998 12 50
v -37.99996 12 54
v -45.99996 12 48
v -45.99996 12 54
v -38 12 37.99995
v -46.00002 12 38
v -38 12 35.99995
v -46.00001 12 35.99999
v -41 -11 41.99998
v -37 -11 36.99999
v -43 -11 37
v -43 -11 42
v -31 -11 42
v -31 -11 37
v -31 -11 50
v -41 -11 50
v -44 -11 43
v -44 -11 37
v -45 -11 37
v -45 -11 43
v -43 -11 43
v -43 -11 37
f 49 50 51
f 52 49 51
f 53 54 55
f 53 56 54
f 57 58 59
f 57 60 58
f 61 62 57
f 61 57 59
f 63 64 65
f 64 66 65
f 67 68 69
f 68 70 69
f 71 72 73
f 72 74 73
f 74 75 55
f 73 74 55
f 71 73 76
f 76 73 77
f 55 77 73
f 55 54 77
f 78 79 80
f 78 81 79
f 82 83 84
f 82 85 83
f 86 80 87
f 86 78 80
f 86 61 59
f 86 59 78
f 88 89 90
f 91 88 90
f 91 90 92
f 93 91 92
f 94 95 96
f 97 94 96
f 98 99 95
f 94 98 95
f 100 101 102
f 101 103 102
f 104 105 106
f 107 104 106
f 108 109 110
f 111 108 110
f 109 88 91
f 110 109 91
f 111 110 112
f 110 113 112
f 110 91 113
f 91 93 113
f 114 115 116
f 116 115 117
f 118 98 94
f 118 94 114
f 119 118 114
f 119 114 116
f 120 121 122
f 121 123 122
f 122 123 100
f 123 101 100
f 121 124 125
f 123 121 125
f 124 126 125
f 126 127 125
f 128 129 130
f 129 131 130
f 132 133 134
f 133 135 134
f 136 137 132
f 137 133 132
f 138 139 140
f 138 141 139
f 140 142 143
f 140 139 142
f 144 145 146
f 145 147 146
f 133 137 148
f 137 149 148
f 150 151 152
f 151 153 152
f 145 144 154
f 144 155 154
f 156 157 158
f 159 160 161
f 160 162 161
f 163 164 165
f 166 167 168
f 167 169 168
f 82 84 170
f 84 171 170
f 172 173 174
f 173 175 174
f 176 177 178
f 177 179 178
f 180 181 182
f 181 183 182
f 184 185 186
f 185 187 186
f 188 189 190
f 189 191 190
f 183 181 192
f 181 193 192
f 194 195 196
f 194 197 195
f 198 199 200
f 198 201 199
f 202 203 204
f 203 205 204
f 204 205 206
f 205 207 206
f 208 209 210
f 211 208 210
f 209 212 213
f 210 209 213
f 214 200 215
f 214 198 200
f 216 196 217
f 216 194 196
f 211 210 218
f 219 211 218
f 210 213 220
f 218 210 220
f 221 222 223
f 222 224 223
f 181 180 225
f 180 226 225
f 222 227 224
f 227 228 224
f 204 206 229
f 206 230 229
f 193 181 231
f 181 225 231
f 232 233 234
f 233 235 234
f 236 237 238
f 237 239 238
f 240 236 238
f 241 240 238
f 242 243 244
f 243 245 244
f 246 247 248
f 246 248 249
f 246 250 251
f 246 249 250
f 252 253 254
f 255 252 254
f 253 256 257
f 254 253 257
f 258 251 259
f 258 246 251
f 260 261 262
f 261 263 262
f 263 264 262
f 264 263 265
f 266 267 268
f 269 270 271
f 270 272 271
f 273 274 269
f 274 270 269
f 275 276 277
f 275 277 278
f 276 279 277
f 277 279 280
f 281 280 279
f 281 282 280
f 278 277 283
f 278 283 284
f 284 283 285
f 284 285 286
f 277 280 287
f 277 287 283
f 287 285 283
f 287 288 285
f 280 282 289
f 280 289 287
f 287 289 290
f 287 290 288
f 291 292 293
f 291 293 294
f 295 296 292
f 295 292 291
f 295 291 297
f 291 298 297
f 299 300 301
f 299 301 302
f 303 304 300
f 303 300 299
v -45 -20 48
v -40 -20 48
v -45.125 -12 48
v -45 -20 43
v -45.125 -12 43
v -40 -20 43
v -45 -20 43
v -45 -20 48
v -45.125 -12 43
v -45.125 -12 48
v -45.125 -12 48
v -40 -20 48
v -45.125 -12 43
v -40 -20 43
v -45 -20 43
v -40 -20 43
v -45 -20 48
v -40 -20 48
f 305 306 307
f 308 309 310
f 311 312 313
f 312 314 313
f 315 316 317
f 316 318 317
f 319 320 321
f 320 322 321
v -50 -20 -54.00003
v -50 -20 -48
v -50 -15 -54.00003
v -50 -15 -48
v -50 -20 -48
v -44 -20 -48
v -50 -15 -48
v -44 -15 -48
v -44 -20 -48
v -44 -20 -54.00006
v -44 -15 -48
v -44 -15 -54.00006
v -44 -20 -54.00006
v -50 -20 -54.00003
v -44 -15 -54.00006
v -50 -15 -54.00003
v -44 -20 -54.00006
v -44 -20 -48
v -50 -20 -54.00003
v -50 -20 -48
v -50 -15 -54.00003
v -50 -15 -48
v -44 -15 -54.00006
v -44 -15 -48
f 323 324 325
f 324 326 325
f 327 328 329
f 328 330 329
f 331 332 333
f 332 334 333
f 335 336 337
f 336 338 337
f 339 340 341
f 340 342 341
f 343 344 345
f 344 346 345
v 44 -20 -18.5
v 56 -20 -22
v 56 -20 -18.5
v 44 -20 -22
v 44 -20 -34
v 56 -20 -44
v 56 -20 -34
v 44 -20 -44
v 44 -20 -18.5
v 56 -20 -18.5
v 56 -14 -18.5
v 44 -14 -18.5
v 56 -2 -18.5
v 44 -2 -18.5
v 56 -14 -54
v 44 -20 -54
v 44 -14 -54
v 56 -20 -54
v 56 -2 -54
v 44 -2 -54
v 20 -14 -54
v 20 -2 -54
v 20 -20 -54
v 20 -20 -44
v 44 -20 -44
v 44 -14 -44
v 20 -14 -44
v 44 -2 -44
v 20 -2 -44
v 44 -14 -22
v 44 -20 -18.5
v 44 -14 -18.5
v 44 -20 -22
v 44 -2 -22
v 44 -2 -18.5
v 56 -20 -18.5
v 56 -20 -22
v 56 -14 -22
v 56 -14 -18.5
v 56 -2 -22
v 56 -2 -18.5
v 49 -14 -34
v 49 -20 -22
v 49 -14 -22
v 49 -20 -34
v 44 -2 -34
v 44 -14 -34
v 44 -14 -44
v 44 -20 -34
v 44 -20 -44
v 44 -2 -44
v 56 -20 -34
v 56 -14 -34
v 56 -2 -34
v 56 -20 -44
v 56 -14 -44
v 56 -2 -44
v 44 -20 -22
v 44 -14 -22
v 49 -20 -22
v 49 -14 -22
v 44 -14 -22
v 44 -14 -34
v 49 -14 -22
v 49 -14 -34
v 44 -14 -34
v 44 -20 -34
v 49 -14 -34
v 49 -20 -34
v 44 -20 -52
v 56 -20 -54
v 56 -20 -52
v 44 -20 -54
v 20 -20 -52
v 20 -20 -54
v 56 -20 -52
v 56 -20 -54
v 56 -14 -54
v 56 -14 -52
v 56 -2 -54
v 56 -2 -52
v 20 -14 -54
v 20 -20 -52
v 20 -14 -52
v 20 -20 -54
v 20 -2 -54
v 20 -2 -52
v 44 -20 -48
v 56 -20 -48
v 20 -20 -48
v 20 -20 -44
v 56 -20 -48
v 56 -14 -48
v 52 -20 -48
v 52 -20 -52
v 52 -14 -52
v 52 -14 -48
v 56 -2 -48
v 20 -14 -48
v 20 -20 -44
v 20 -14 -44
v 20 -20 -48
v 20 -2 -48
v 20 -2 -44
v 56 -20 -52
v 56 -14 -52
v 52 -20 -52
v 52 -14 -52
v 56 -14 -48
v 56 -20 -48
v 52 -14 -48
v 52 -20 -48
v 56 -14 -52
v 56 -14 -48
v 52 -14 -52
v 52 -14 -48
v 56 -2 -22
v 44 -2 -22
v 44 -2 -18.5
v 56 -2 -18.5
v 56 -2 -44
v 44 -2 -44
v 44 -2 -34
v 56 -2 -34
v 56 -2 -54
v 44 -2 -54
v 44 -2 -52
v 56 -2 -52
v 20 -2 -54
v 20 -2 -52
v 44 -2 -48
v 56 -2 -48
v 20 -2 -48
v 20 -2 -44
f 347 348 349
f 347 350 348
f 351 352 353
f 351 354 352
f 350 353 348
f 350 351 353
f 355 356 357
f 358 355 357
f 358 357 359
f 360 358 359
f 361 362 363
f 361 364 362
f 365 363 366
f 365 361 363
f 366 367 368
f 366 363 367
f 363 369 367
f 363 362 369
f 370 371 372
f 373 370 372
f 373 372 374
f 375 373 374
f 376 377 378
f 376 379 377
f 380 378 381
f 380 376 378
f 382 383 384
f 385 382 384
f 385 384 386
f 387 385 386
f 388 389 390
f 388 391 389
f 392 376 380
f 392 393 376
f 394 395 393
f 394 396 395
f 397 393 392
f 397 394 393
f 383 398 399
f 384 383 399
f 384 399 400
f 386 384 400
f 398 401 402
f 399 398 402
f 399 402 403
f 400 399 403
f 404 405 406
f 405 407 406
f 408 409 410
f 409 411 410
f 412 413 414
f 413 415 414
f 416 417 418
f 416 419 417
f 420 419 416
f 420 421 419
f 422 423 424
f 425 422 424
f 425 424 426
f 427 425 426
f 428 429 430
f 428 431 429
f 432 430 433
f 432 428 430
f 434 418 435
f 434 416 418
f 354 435 352
f 354 434 435
f 436 416 434
f 436 420 416
f 437 434 354
f 437 436 434
f 401 438 439
f 402 401 439
f 440 441 442
f 443 440 442
f 402 439 444
f 403 402 444
f 439 425 427
f 444 439 427
f 445 446 447
f 445 448 446
f 430 448 445
f 430 429 448
f 449 447 450
f 449 445 447
f 433 445 449
f 433 430 445
f 451 452 453
f 452 454 453
f 455 456 457
f 456 458 457
f 459 460 461
f 460 462 461
f 463 464 465
f 466 463 465
f 467 468 469
f 470 467 469
f 470 469 464
f 463 470 464
f 471 472 473
f 474 471 473
f 472 475 476
f 473 472 476
f 474 473 477
f 478 474 477
f 478 477 468
f 467 478 468
f 473 476 479
f 477 473 479
f 477 479 480
f 468 477 480
v -42 -20 18
v -42 -20 12
v -26.00001 -20 12
v -26 -20 18
v -36 -20 23.99999
v -26 -20 24
v -34.00004 -14 28
v -34.00004 -20 28
v -28.00005 -14 28
v -28.00004 -20 28
v -34 -8 20
v -34 -14 20
v -28.00001 -8 20
v -28.00001 -14 20
v -26.00002 -14 11.99999
v -26.00001 -20 12
v -42 -20 12
v -42 -14 11.99999
v -26.00002 12 11.99999
v -42 12 11.99999
v -42 12 11.99999
v -42 -14 11.99999
v -42 12 17.99999
v -42 -14 17.99999
v -42 -20 12
v -42 -20 18
v -42 12 17.99999
v -42 -14 17.99999
v -36 12 23.99999
v -36 -14 23.99998
v -42 -20 18
v -36 -20 23.99999
v -26.00001 12 23.99999
v -26.00001 -14 23.99999
v -26.00001 -14 17.99999
v -26.00001 12 17.99999
v -26 -20 24
v -26 -20 18
v -26.00002 -14 11.99999
v -26.00002 12 11.99999
v -26.00001 -20 12
v -36 -14 23.99998
v -36 -20 23.99999
v -36.00002 -14 26
v -36.00002 -20 26
v -36.00002 -20 26
v -34.00004 -20 28
v -34.00004 -14 28
v -36.00002 -14 26
v -36.00002 -20 26
v -26.00002 -20 26
v -34.00004 -20 28
v -28.00004 -20 28
v -26.00003 -14 26
v -26.00002 -20 26
v -26 -20 24
v -26.00001 -14 23.99999
v -28.00005 -14 28
v -26.00002 -20 26
v -26.00003 -14 26
v -28.00004 -20 28
v -36 12 23.99999
v -36 -14 23.99998
v -34 -8 23.99999
v -34 -14 23.99999
v -26.00001 12 23.99999
v -28 -8 23.99999
v -34 -8 23.99999
v -36 -14 23.99998
v -26.00001 -14 23.99999
v -34 -14 23.99999
v -28 -14 23.99999
v -26.00001 -14 23.99999
v -26.00001 12 23.99999
v -28 -14 23.99999
v -28 -8 23.99999
v -34 -8 23.99999
v -34 -14 23.99999
v -34 -8 20
v -34 -14 20
v -28 -8 23.99999
v -34 -8 23.99999
v -28.00001 -8 20
v -34 -8 20
v -28 -14 23.99999
v -28 -8 23.99999
v -28.00001 -14 20
v -28.00001 -8 20
v -26.00002 12 11.99999
v -42 12 17.99999
v -26.00001 12 17.99999
v -42 12 11.99999
v -36 12 23.99999
v -26.00001 12 23.99999
v -26.00003 -14 26
v -26.00001 -14 23.99999
v -36 -14 23.99998
v -36.00002 -14 26
v -28.00005 -14 28
v -34.00004 -14 28
v -34 -14 23.99999
v -28 -14 23.99999
v -34 -14 20
v -28.00001 -14 20
f 481 482 483
f 484 481 483
f 485 481 484
f 486 485 484
f 487 488 489
f 488 490 489
f 491 492 493
f 492 494 493
f 495 496 497
f 495 497 498
f 499 495 498
f 499 498 500
f 501 502 503
f 502 504 503
f 502 505 504
f 505 506 504
f 507 508 509
f 508 510 509
f 508 511 510
f 511 512 510
f 513 514 515
f 513 515 516
f 514 517 518
f 514 518 515
f 516 515 519
f 516 519 520
f 515 518 521
f 515 521 519
f 522 523 524
f 523 525 524
f 526 527 528
f 529 526 528
f 530 485 531
f 485 486 531
f 532 530 533
f 530 531 533
f 534 535 536
f 534 536 537
f 538 539 540
f 538 541 539
f 542 543 544
f 543 545 544
f 546 542 547
f 542 548 547
f 549 550 551
f 550 552 551
f 553 554 555
f 554 556 555
f 557 558 559
f 558 560 559
f 561 562 563
f 562 564 563
f 565 566 567
f 566 568 567
f 569 570 571
f 569 572 570
f 571 573 574
f 571 570 573
f 575 576 577
f 575 577 578
f 579 575 578
f 579 578 580
f 581 582 583
f 582 584 583
v -14.00005 -20 -8.000001
v -14.00002 -20 -2
v -14.00002 -10 -2
v -14.00005 -10 -8.000001
v 17.99998 -10 -2
v 17.99995 -20 -8.000001
v 17.99995 -10 -8.000001
v 17.99998 -20 -2
v -13.99989 -20 12
v -13.99989 -10 12
v -13.99985 -20 18
v -13.99985 -10 18
v 18.00011 -10 12
v 18.00011 -20 12
v 18.00015 -10 18
v 18.00015 -20 18
v -13.99985 -20 18
v -8 -20 18.0001
v -8 -10 18.0001
v -13.99985 -10 18
v -8 -10 -7.999905
v -14.00005 -20 -8.000001
v -14.00005 -10 -8.000001
v -8 -20 -7.999905
v -14.00002 -20 -2
v -14.00005 -20 -8.000001
v -8 -20 -7.999905
v -8 -20 -1.999904
v -13.99985 -20 18
v -13.99989 -20 12
v -8 -20 12.0001
v -8 -20 18.0001
v 12 -20 17.99998
v 12 -10 17.99998
v 18.00015 -20 18
v 18.00015 -10 18
v 12 -10 -8.000018
v 12 -20 -8.000018
v 17.99995 -10 -8.000001
v 17.99995 -20 -8.000001
v 12 -20 -2.000018
v 12 -20 -8.000018
v 17.99995 -20 -8.000001
v 17.99998 -20 -2
v 12 -20 17.99998
v 12 -20 11.99998
v 18.00011 -20 12
v 18.00015 -20 18
v 12 -10 -2.000018
v -8 -10 -1.999904
v 12 -4 -2.000018
v -8 -4 -1.999904
v 12 -10 11.99998
v 12 -10 -2.000018
v 12 -4 11.99998
v 12 -4 -2.000018
v -8 -10 -1.999904
v -8 -10 12.0001
v -8 -4 -1.999904
v -8 -4 12.0001
v -8 -10 12.0001
v 12 -10 11.99998
v -8 -4 12.0001
v 12 -4 11.99998
v -8 -10 -7.999905
v -14.00002 -10 -2
v -8 -10 -1.999904
v -14.00005 -10 -8.000001
v -8 -10 12.0001
v -13.99985 -10 18
v -8 -10 18.0001
v -13.99989 -10 12
v 12 -10 -2.000018
v 12 -10 -8.000018
v 17.99995 -10 -8.000001
v 17.99998 -10 -2
v 12 -10 17.99998
v 12 -10 11.99998
v 18.00011 -10 12
v 18.00015 -10 18
v 12 -4 -2.000018
v -8 -4 -1.999904
v 12 -4 11.99998
v -8 -4 12.0001
f 585 586 587
f 588 585 587
f 589 590 591
f 589 592 590
f 586 593 594
f 587 586 594
f 593 595 596
f 594 593 596
f 597 592 589
f 597 598 592
f 599 598 597
f 599 600 598
f 601 602 603
f 604 601 603
f 605 606 607
f 605 608 606
f 609 610 611
f 612 609 611
f 613 614 615
f 616 613 615
f 614 609 612
f 615 614 612
f 602 617 618
f 603 602 618
f 617 619 620
f 618 617 620
f 621 608 605
f 621 622 608
f 623 622 621
f 623 624 622
f 612 611 625
f 611 626 625
f 625 626 627
f 628 625 627
f 616 615 629
f 615 630 629
f 629 630 631
f 632 629 631
f 615 612 630
f 630 612 625
f 625 628 630
f 630 628 631
f 633 634 635
f 634 636 635
f 637 638 639
f 638 640 639
f 641 642 643
f 642 644 643
f 645 646 647
f 646 648 647
f 649 650 651
f 649 652 650
f 653 654 655
f 653 656 654
f 651 656 653
f 651 650 656
f 657 658 649
f 657 649 651
f 659 657 660
f 659 658 657
f 661 662 653
f 661 653 655
f 663 661 664
f 663 662 661
f 665 666 667
f 667 666 668
f 663 660 662
f 662 660 657
v 28 -14 12.99997
v 28 -14 17
v 28 -11 12.99997
v 28 -11 17
v 28 -14 17
v 29 -14 17
v 28 -11 17
v 29 -11 17
v 29 -14 17
v 29 -14 12.99994
v 29 -11 17
v 29 -11 12.99994
v 29 -14 12.99994
v 28 -14 12.99997
v 29 -11 12.99994
v 28 -11 12.99997
v 28 -11 12.99997
v 28 -11 17
v 29 -11 12.99994
v 29 -11 17
v 29 -14 12.99994
v 29 -14 17
v 28 -14 12.99997
v 28 -14 17
f 669 670 671
f 670 672 671
f 673 674 675
f 674 676 675
f 677 678 679
f 678 680 679
f 681 682 683
f 682 684 683
f 685 686 687
f 686 688 687
f 689 690 691
f 690 692 691
v -34 -20 -30.00003
v -34 -20 -25
v -34 -17 -30.00003
v -34 -17 -25
v -34 -20 -25
v -28 -20 -25
v -34 -17 -25
v -28 -17 -25
v -28 -20 -25
v -28 -20 -30.00006
v -28 -17 -25
v -28 -17 -30.00006
v -28 -20 -30.00006
v -34 -20 -30.00003
v -28 -17 -30.00006
v -34 -17 -30.00003
v -28 -20 -30.00006
v -28 -20 -25
v -34 -20 -30.00003
v -34 -20 -25
v -34 -17 -30.00003
v -34 -17 -25
v -28 -17 -30.00006
v -28 -17 -25
f 693 694 695
f 694 696 695
f 697 698 699
f 698 700 699
f 701 702 703
f 702 704 703
f 705 706 707
f 706 708 707
f 709 710 711
f 710 712 711
f 713 714 715
f 714 716 715
v 34 -20 12.99997
v 34 -20 18
v 34 -17 12.99997
v 34 -17 18
v 34 -20 18
v 36 -20 18
v 34 -17 18
v 36 -17 18
v 36 -20 18
v 36 -20 12.99994
v 36 -17 18
v 36 -17 12.99994
v 36 -20 12.99994
v 34 -20 12.99997
v 36 -17 12.99994
v 34 -17 12.99997
v 34 -17 12.99997
v 34 -17 18
v 36 -17 12.99994
v 36 -17 18
v 36 -20 12.99994
v 36 -20 18
v 34 -20 12.99997
v 34 -20 18
f 717 718 719
f 718 720 719
f 721 722 723
f 722 724 723
f 725 726 727
f 726 728 727
f 729 730 731
f 730 732 731
f 733 734 735
f 734 736 735
f 737 738 739
f 738 740 739
v 30.00059 -20 -33.49572
v 14.00071 -20 -33.49616
v 30.00059 -4 -33.49572
v 14.0007 -4 -33.49616
v 29.9978 -4 -21.99373
v 13.99826 -4 -21.99783
v 13.99826 -20 -21.99783
v 29.9978 -20 -21.99373
v 30.00059 9 -33.49572
v 30.00059 2 -33.49572
v 14.00071 2 -33.49616
v 14.0007 9 -33.49616
v 13.99826 2 -21.99784
v 29.9978 2 -21.99373
v 13.99826 9 -21.99784
v 29.9978 9 -21.99373
v 30.00059 -20 -33.49572
v 29.99926 -20 -29.99572
v 14.00071 -20 -33.49616
v 13.99955 -20 -29.99616
v 14.0007 -4 -33.49616
v 14.00071 -20 -33.49616
v 13.99955 -4 -29.99616
v 13.99955 -20 -29.99616
v 29.99926 -4 -29.99572
v 29.99926 -20 -29.99572
v 30.00059 -20 -33.49572
v 30.00059 -4 -33.49572
v 14.0007 9 -33.49616
v 14.00071 2 -33.49616
v 13.99955 2 -29.99616
v 13.99955 9 -29.99616
v 29.99926 9 -29.99572
v 30.00059 2 -33.49572
v 30.00059 9 -33.49572
v 29.99926 2 -29.99572
v 29.99853 -20 -25.99472
v 13.99891 -20 -25.99699
v 29.9978 -20 -21.99373
v 13.99826 -20 -21.99783
v 13.99955 -4 -29.99616
v 13.99955 -20 -29.99616
v 13.99891 -4 -25.997
v 13.99891 -20 -25.99699
v 13.99826 -4 -21.99783
v 13.99826 -20 -21.99783
v 29.9978 -4 -21.99373
v 29.9978 -20 -21.99373
v 29.99853 -20 -25.99472
v 29.99853 -4 -25.99472
v 29.99926 -20 -29.99572
v 29.99926 -4 -29.99572
v 13.99955 2 -29.99616
v 13.99891 2 -25.997
v 13.99955 9 -29.99616
v 13.99891 9 -25.997
v 13.99826 2 -21.99784
v 13.99826 9 -21.99784
v 17.49973 2 -29.99613
v 17.49973 -4 -29.99613
v 17.49961 2 -25.99697
v 17.49961 -4 -25.99696
v 29.99853 9 -25.99472
v 29.99926 2 -29.99572
v 29.99926 9 -29.99572
v 29.99853 2 -25.99473
v 29.9978 9 -21.99373
v 29.9978 2 -21.99373
v 13.99955 2 -29.99616
v 13.99955 -4 -29.99616
v 17.49973 2 -29.99613
v 17.49973 -4 -29.99613
v 13.99891 2 -25.997
v 13.99955 2 -29.99616
v 17.49961 2 -25.99697
v 17.49973 2 -29.99613
v 13.99891 -4 -25.997
v 13.99891 2 -25.997
v 17.49961 -4 -25.99696
v 17.49961 2 -25.99697
v 13.99955 9 -29.99616
v 29.99926 9 -29.99572
v 14.0007 9 -33.49616
v 30.00059 9 -33.49572
v 13.99891 9 -25.997
v 13.99826 9 -21.99784
v 29.99853 9 -25.99472
v 29.9978 9 -21.99373
v 13.99955 -4 -29.99616
v 13.99891 -4 -25.997
v 17.49973 -4 -29.99613
v 17.49961 -4 -25.99696
f 741 742 743
f 742 744 743
f 745 746 747
f 745 747 748
f 749 750 751
f 749 751 752
f 743 744 751
f 750 743 751
f 753 745 754
f 753 746 745
f 755 754 756
f 755 753 754
f 757 758 759
f 759 758 760
f 761 762 763
f 762 764 763
f 765 766 767
f 765 767 768
f 769 770 771
f 769 771 772
f 770 761 771
f 761 763 771
f 773 774 775
f 773 776 774
f 776 765 768
f 776 768 774
f 758 777 760
f 777 778 760
f 777 779 780
f 777 780 778
f 781 782 783
f 782 784 783
f 783 784 785
f 784 786 785
f 787 788 789
f 787 789 790
f 790 789 791
f 790 791 792
f 793 794 795
f 795 794 796
f 794 797 796
f 796 797 798
f 799 800 801
f 800 802 801
f 794 783 797
f 783 785 797
f 803 804 805
f 803 806 804
f 807 806 803
f 807 808 806
f 808 787 790
f 808 790 806
f 806 790 792
f 806 792 804
f 809 810 811
f 810 812 811
f 813 814 815
f 814 816 815
f 817 818 819
f 818 820 819
f 821 822 823
f 823 822 824
f 825 826 827
f 826 828 827
f 821 825 827
f 821 827 822
f 829 830 831
f 830 832 831
v 26.99995 -4 34
v 26.99995 -10 34
v 27.00001 -4 46
v 27.00001 -10 46
v 43.00002 -4 46
v 43.00004 -10 34
v 43.00004 -4 34
v 43.00002 -10 46
v 26.99996 -20 34
v 31 -20 34.00004
v 27.00002 -20 46
v 31 -20 46.00004
v 27.00001 -10 46
v 31 -10 46.00004
v 27.00001 -4 46
v 31 -4 46.00004
v 31 -4 34.00004
v 31 -10 34.00004
v 26.99995 -4 34
v 26.99995 -10 34
v 39 -20 46
v 39 -20 34
v 43.00002 -20 46
v 43.00004 -20 34
v 39 -10 46
v 39 -4 46
v 43.00002 -10 46
v 43.00002 -4 46
v 39 -4 34
v 39 -10 34
v 43.00004 -4 34
v 43.00004 -10 34
v 31 -10 34.00004
v 39 -10 34
v 31.00003 -10 38
v 39.00003 -10 38
v 31.00007 -10 42
v 39.00008 -10 42
v 31.00011 -10 46
v 39.00011 -10 46
v 43.00004 -15 34
v 43.00002 -15 46
v 43.00002 -20 46
v 43.00004 -20 34
v 39 -20 46
v 43.00002 -20 46
v 43.00002 -15 46
v 39 -15 46
v 43.00004 -15 34
v 39 -20 34
v 39 -15 34
v 43.00004 -20 34
v 39 -20 34
v 39.00003 -20 38
v 39.00003 -15 38
v 39 -15 34
v 39.00003 -10 38
v 39 -10 34
v 41 -20 37.99998
v 41 -20 41.99998
v 41 -15 41.99998
v 41 -15 37.99998
v 39.00008 -15 42
v 39.00008 -10 42
v 39.00008 -20 42
v 39.00011 -20 46
v 39.00011 -15 46
v 39.00011 -10 46
v 26.99995 -15 34
v 27.00001 -15 46
v 26.99996 -20 34
v 27.00002 -20 46
v 27.00001 -15 46
v 31 -15 46.00004
v 27.00002 -20 46
v 31 -20 46.00004
v 26.99995 -15 34
v 31 -15 34.00004
v 26.99996 -20 34
v 31 -20 34.00004
v 31.00003 -15 38
v 31 -20 34.00004
v 31 -15 34.00004
v 31.00003 -20 38
v 31.00003 -10 38
v 31 -10 34.00004
v 29 -15 42.00002
v 29 -20 38.00002
v 29 -15 38.00002
v 29 -20 42.00002
v 31.00007 -10 42
v 31.00007 -15 42
v 31.00011 -15 46
v 31.00007 -20 42
v 31.00011 -20 46
v 31.00011 -10 46
v 31.00003 -20 38
v 31.00003 -15 38
v 29 -20 38.00002
v 29 -15 38.00002
v 31.00003 -15 38
v 31.00007 -15 42
v 29 -15 38.00002
v 29 -15 42.00002
v 31.00007 -15 42
v 31.00007 -20 42
v 29 -15 42.00002
v 29 -20 42.00002
v 39.00008 -20 42
v 39.00008 -15 42
v 41 -20 41.99998
v 41 -15 41.99998
v 39.00003 -15 38
v 39.00003 -20 38
v 41 -15 37.99998
v 41 -20 37.99998
v 39.00008 -15 42
v 39.00003 -15 38
v 41 -15 41.99998
v 41 -15 37.99998
v 31 -4 46.00004
v 31 -4 34.00004
v 27.00001 -4 46
v 26.99995 -4 34
v 39 -4 46
v 39 -4 34
v 43.00002 -4 46
v 43.00004 -4 34
f 833 834 835
f 834 836 835
f 837 838 839
f 837 840 838
f 841 842 843
f 843 842 844
f 845 846 847
f 847 846 848
f 849 850 851
f 851 850 852
f 853 854 855
f 854 856 855
f 846 857 858
f 848 846 858
f 857 859 860
f 858 857 860
f 861 850 849
f 861 862 850
f 863 862 861
f 863 864 862
f 865 866 867
f 867 866 868
f 867 868 869
f 869 868 870
f 869 870 871
f 871 870 872
f 840 873 838
f 840 874 873
f 874 875 876
f 874 876 873
f 877 878 879
f 880 877 879
f 880 879 857
f 879 859 857
f 881 882 883
f 881 884 882
f 864 883 862
f 864 881 883
f 885 886 887
f 888 885 887
f 888 887 889
f 890 888 889
f 891 892 893
f 894 891 893
f 887 895 896
f 889 887 896
f 897 898 899
f 895 897 899
f 895 899 900
f 896 895 900
f 834 901 836
f 901 902 836
f 901 903 902
f 903 904 902
f 905 906 846
f 845 905 846
f 907 908 906
f 905 907 906
f 850 909 852
f 850 910 909
f 910 911 909
f 910 912 911
f 913 914 915
f 913 916 914
f 917 915 918
f 917 913 915
f 919 920 921
f 919 922 920
f 923 913 917
f 923 924 913
f 925 926 924
f 925 927 926
f 928 924 923
f 928 925 924
f 929 930 931
f 930 932 931
f 933 934 935
f 934 936 935
f 937 938 939
f 938 940 939
f 941 942 943
f 942 944 943
f 945 946 947
f 946 948 947
f 949 950 951
f 950 952 951
f 953 954 955
f 955 954 956
f 957 958 954
f 957 954 953
f 959 960 958
f 959 958 957
v -34.0006 -13.99956 -13.99946
v -33.00117 -13.99956 -13.99906
v -34.0006 -19.99956 -14.00038
v -33.00118 -19.99956 -13.99997
v -33.00182 -14.00047 -7.99952
v -34.00096 -14.00047 -7.999579
v -33.00183 -20.00047 -8.000431
v -34.00096 -20.00047 -8.00049
v -34.00109 -14.00047 -7.999354
v -34.00099 -14.00032 -8.999354
v -34.00099 -20.00032 -9.000266
v -34.00109 -20.00047 -8.000266
v -34.0009 -14.00032 -8.999579
v -34.0006 -13.99956 -13.99946
v -34.0006 -19.99956 -14.00038
v -34.0009 -20.00032 -9.00049
v -33.00118 -19.99956 -13.99997
v -33.00162 -14.00032 -8.99952
v -33.00163 -20.00032 -9.000431
v -33.00117 -13.99956 -13.99906
v -33.00163 -20.00032 -9.000431
v -33.00182 -14.00047 -7.99952
v -33.00183 -20.00047 -8.000431
v -33.00162 -14.00032 -8.99952
v -33.00163 -20.00032 -9.000431
v -33.00183 -20.00047 -8.000431
v -34.00096 -20.00047 -8.00049
v -34.0009 -20.00032 -9.00049
v -34.0006 -19.99956 -14.00038
v -33.00118 -19.99956 -13.99997
v -34.00096 -14.00047 -7.999579
v -34.0009 -14.00032 -8.999579
v -34.00109 -14.00047 -7.999354
v -34.00099 -14.00032 -8.999354
v -34.0009 -14.00032 -8.999579
v -34.0009 -20.00032 -9.00049
v -34.00099 -14.00032 -8.999354
v -34.00099 -20.00032 -9.000266
v -34.00096 -20.00047 -8.00049
v -34.00096 -14.00047 -7.999579
v -34.00109 -20.00047 -8.000266
v -34.00109 -14.00047 -7.999354
v -34.0009 -20.00032 -9.00049
v -34.00096 -20.00047 -8.00049
v -34.00099 -20.00032 -9.000266
v -34.00109 -20.00047 -8.000266
v -34.0009 -14.00032 -8.999579
v -34.00096 -14.00047 -7.999579
v -33.00162 -14.00032 -8.99952
v -33.00182 -14.00047 -7.99952
v -33.00117 -13.99956 -13.99906
v -34.0006 -13.99956 -13.99946
f 961 962 963
f 962 964 963
f 965 966 967
f 966 968 967
f 969 970 971
f 972 969 971
f 973 974 975
f 976 973 975
f 977 978 979
f 977 980 978
f 981 982 983
f 981 984 982
f 985 986 987
f 985 987 988
f 989 990 988
f 990 985 988
f 991 992 993
f 992 994 993
f 995 996 997
f 996 998 997
f 999 1000 1001
f 1000 1002 1001
f 1003 1004 1005
f 1004 1006 1005
f 1007 1008 1009
f 1008 1010 1009
f 1007 1009 1011
f 1007 1011 1012
v 20.5 -12 -40.5
v 40.5 -12 -40.5
v 20.5 -10 -40.5
v 40.5 -10 -40.5
v 44 -12 -41
v 44 -12 -44
v 44 -10 -41
v 44 -10 -44
v 41 -12 -44
v 20.5 -12 -44
v 41 -10 -44
v 20.5 -10 -44
v 41 -12 -44
v 41 -12 -41
v 20.5 -12 -44
v 20.5 -12 -41
v 44 -12 -41
v 44 -12 -44
v 41 -10 -12.5
v 41 -12 -12.5
v 44 -10 -12.5
v 44 -12 -12.5
v 41 -12 -44
v 41 -10 -44
v 44 -12 -44
v 44 -10 -44
v 40.5 -10 -40.5
v 40.5 -12 -40.5
v 40.5 -10 -12.5
v 40.5 -12 -12.5
v 41 -12 -12.5
v 44 -12 -12.5
v 44 -12 -12.5
v 44 -10 -12.5
v 20.5 -12 -40.5
v 40.5 -12 -40.5
v 41 -9.5 -12.5
v 41 -9.5 -41
v 40.5 -9.5 -12.5
v 40.5 -9.5 -40.5
v 20.5 -9.5 -41
v 20.5 -9.5 -40.5
v 40.5 -12 -12.5
v 40.5 -12 -12.5
v 40.5 -10 -12.5
v 20.5 -9.5 -40.5
v 40.5 -9.5 -40.5
v 41 -10 -41
v 20.5 -10 -41
v 41 -9.5 -41
v 20.5 -9.5 -41
v 40.5 -9.5 -40.5
v 40.5 -9.5 -12.5
v 41 -10 -12.5
v 41 -10 -41
v 41 -9.5 -12.5
v 41 -9.5 -41
v 40.5 -9.5 -12.5
v 41 -9.5 -12.5
v 20 -12 -41
v 20 -12 -40.5
v 20 -10 -40.5
v 20 -10 -44
v 20 -12 -44
v 20 -10 -41
v 20 -9.5 -40.5
v 20 -9.5 -41
v 20 -12 -41
v 20 -12 -40.5
v 20 -12 -40.5
v 20 -10 -40.5
v 20 -10 -44
v 20 -12 -44
v 20.5 -9.5 -41
v 20.5 -9.5 -44
v 20 -9.5 -41
v 20 -9.5 -44
v 20 -12 -44
v 20 -9.5 -40.5
v 20.5 -9.5 -41
v 20.5 -10 -41
v 20 -9.5 -41
v 20 -10 -41
v 20 -9.5 -40.5
v 20 -9.5 -41
v 20.5 -10 -41
v 20.5 -10 -44
v 20.5 -9.5 -41
v 20.5 -9.5 -44
v 20 -10 -41
v 20.5 -10 -41
v 20 -9.5 -41
v 20.5 -9.5 -41
v 20.5 -9.5 -44
v 20 -9.5 -44
v 20 -9.5 -44
v 20.5 -10 -44
v 20.5 -10 -41
v 41 -10 -44
v 41 -10 -41
v 44 -10 -44
v 44 -10 -41
v 44 -10 -12.5
v 41 -10 -12.5
f 1013 1014 1015
f 1014 1016 1015
f 1017 1018 1019
f 1018 1020 1019
f 1021 1022 1023
f 1022 1024 1023
f 1025 1026 1027
f 1026 1028 1027
f 1026 1025 1029
f 1025 1030 1029
f 1031 1032 1033
f 1032 1034 1033
f 1035 1036 1037
f 1036 1038 1037
f 1039 1040 1041
f 1040 1042 1041
f 1026 1029 1043
f 1029 1044 1043
f 1017 1019 1045
f 1019 1046 1045
f 1028 1026 1047
f 1026 1048 1047
f 1049 1050 1051
f 1050 1052 1051
f 1050 1053 1052
f 1053 1054 1052
f 1026 1043 1048
f 1043 1055 1048
f 1032 1031 1056
f 1031 1057 1056
f 1015 1016 1058
f 1016 1059 1058
f 1060 1061 1062
f 1061 1063 1062
f 1039 1041 1064
f 1041 1065 1064
f 1066 1067 1068
f 1067 1069 1068
f 1057 1031 1070
f 1031 1071 1070
f 1072 1073 1074
f 1075 1076 1077
f 1076 1072 1077
f 1077 1072 1074
f 1077 1074 1078
f 1079 1077 1078
f 1028 1047 1080
f 1047 1081 1080
f 1013 1015 1082
f 1015 1083 1082
f 1024 1022 1084
f 1022 1085 1084
f 1086 1087 1088
f 1087 1089 1088
f 1027 1028 1090
f 1028 1080 1090
f 1015 1058 1083
f 1058 1091 1083
f 1092 1093 1094
f 1093 1095 1094
f 1054 1053 1096
f 1053 1097 1096
f 1098 1099 1100
f 1099 1101 1100
f 1102 1103 1104
f 1103 1105 1104
f 1024 1084 1106
f 1084 1107 1106
f 1075 1077 1108
f 1077 1079 1108
f 1109 1110 1111
f 1110 1112 1111
f 1111 1112 1113
f 1112 1114 1113
f 1114 1112 1115
f 1112 1116 1115
v -4 -14.25 26
v -2 -14.25 26
v -4 -14 26
v -2 -14 26
v -2 -14.25 26
v -2 -10.25 18
v -2 -14 26
v -2 -10 18
v -2 -10.25 18
v -4 -10.25 18
v -2 -10 18
v -4 -10 18
v -4 -10.25 18
v -4 -14.25 26
v -4 -10 18
v -4 -14 26
v -4 -14 26
v -2 -14 26
v -4 -10 18
v -2 -10 18
v -4 -10.25 18
v -2 -10.25 18
v -4 -14.25 26
v -2 -14.25 26
f 1117 1118 1119
f 1118 1120 1119
f 1121 1122 1123
f 1122 1124 1123
f 1125 1126 1127
f 1126 1128 1127
f 1129 1130 1131
f 1130 1132 1131
f 1133 1134 1135
f 1134 1136 1135
f 1137 1138 1139
f 1138 1140 1139
v -8.999856 -20 -32
v -13.99988 -20 -32
v -8.999855 -13 -32
v -13.99989 -13 -32
v -13.99988 -20 -32
v -13.99954 -20 -31.00058
v -13.99989 -13 -32
v -13.99954 -13 -31.00058
v -13.99954 -20 -31.00058
v -8.999481 -20 -31.00087
v -13.99954 -13 -31.00058
v -8.999481 -13 -31.00087
v -8.999481 -20 -31.00087
v -8.999856 -20 -32
v -8.999481 -13 -31.00087
v -8.999855 -13 -32
v -8.999481 -20 -31.00087
v -13.99954 -20 -31.00058
v -8.999856 -20 -32
v -13.99988 -20 -32
v -8.999855 -13 -32
v -13.99989 -13 -32
v -8.999481 -13 -31.00087
v -13.99954 -13 -31.00058
f 1141 1142 1143
f 1142 1144 1143
f 1145 1146 1147
f 1146 1148 1147
f 1149 1150 1151
f 1150 1152 1151
f 1153 1154 1155
f 1154 1156 1155
f 1157 1158 1159
f 1158 1160 1159
f 1161 1162 1163
f 1162 1164 1163
v 0 6 50
v 4 6 50
v 4 10 50
v 2 10 50
v 4 10 26
v 0 6 26
v 2 10 26
v 4 6 26
v -10 6 50
v -6 6 50
v -8 10 50
v -10 10 50
v -8 10 26
v -10 6 26
v -10 10 26
v -6 6 26
v 4 6 30
v 4 6 26
v 4 10 26
v 4 10 28
v -10 10 26
v -10 6 30
v -10 10 28
v -10 6 26
v 2 -14 28
v 4 -14 26
v 4 -14 28
v 2 -14 26
v -6 6 30
v 0 6 26
v 0 6 30
v -6 6 26
v -10 -14 28
v -8 -14 26
v -8 -14 28
v -10 -14 26
v 4 6 50
v 4 6 46
v 4 10 48
v 4 10 50
v -10 10 48
v -10 6 50
v -10 10 50
v -10 6 46
v 0 6 46
v 4 6 30
v 4 6 46
v 2 -14 50
v 4 -14 48
v 4 -14 50
v 2 -14 48
v -6 6 46
v -6 6 50
v 0 6 50
v -10 6 46
v -10 6 30
v -10 -14 50
v -8 -14 48
v -8 -14 50
v -10 -14 48
v 4 -14 48
v 4 -14 50
v 4 -14 50
v 2 -14 50
v 0 6 50
v 0 6 46
v 2 -14 50
v 2 -14 48
v 0 6 46
v 4 6 46
v 2 -14 48
v 4 -14 48
v -6 6 46
v -6 6 50
v -8 -14 48
v -8 -14 50
v -8 -14 50
v -10 -14 50
v -10 -14 50
v -10 -14 48
v -10 6 46
v -6 6 46
v -10 -14 48
v -8 -14 48
v -8 2 28
v -8 2 26
v -6 6 26
v -6 6 30
v -8 -14 28
v -8 -14 26
v -8 2 26
v -8 2 28
v -10 2 28
v -8 2 28
v -6 6 30
v -10 6 30
v -10 -14 28
v -8 -14 28
v -8 2 28
v -10 2 28
v -10 2 28
v -10 2 26
v -10 -14 28
v -10 -14 26
v -10 2 26
v -8 2 26
v -10 -14 26
v -8 -14 26
v 4 2 28
v 4 2 26
v 4 -14 28
v 4 -14 26
v 2 2 28
v 4 2 28
v 4 6 30
v 0 6 30
v 2 -14 28
v 4 -14 28
v 4 2 28
v 2 2 28
v 0 6 26
v 2 2 28
v 0 6 30
v 2 2 26
v 2 2 26
v 2 -14 28
v 2 2 28
v 2 -14 26
v 2 2 26
v 4 2 26
v 2 -14 26
v 4 -14 26
v 4 10 26
v 2 10 26
v 2 10 28
v 4 10 28
v -8 10 26
v -8 10 28
v -10 10 26
v -10 10 28
v 2 10 48
v 4 10 48
v 2 10 50
v 4 10 50
v -8 10 48
v -8 10 50
v -10 10 48
v -10 10 50
f 1165 1166 1167
f 1168 1165 1167
f 1169 1170 1171
f 1169 1172 1170
f 1173 1174 1175
f 1176 1173 1175
f 1174 1165 1168
f 1175 1174 1168
f 1177 1178 1179
f 1177 1180 1178
f 1171 1180 1177
f 1171 1170 1180
f 1181 1182 1183
f 1184 1181 1183
f 1185 1186 1187
f 1185 1188 1186
f 1189 1190 1191
f 1189 1192 1190
f 1193 1194 1195
f 1193 1196 1194
f 1197 1198 1199
f 1197 1200 1198
f 1201 1202 1203
f 1204 1201 1203
f 1202 1181 1184
f 1203 1202 1184
f 1205 1206 1207
f 1205 1208 1206
f 1187 1208 1205
f 1187 1186 1208
f 1209 1210 1211
f 1209 1195 1210
f 1212 1213 1214
f 1212 1215 1213
f 1216 1195 1209
f 1216 1193 1195
f 1217 1209 1218
f 1217 1216 1209
f 1219 1193 1216
f 1219 1220 1193
f 1221 1222 1223
f 1221 1224 1222
f 1202 1201 1225
f 1201 1226 1225
f 1166 1165 1227
f 1165 1228 1227
f 1229 1230 1231
f 1230 1232 1231
f 1233 1234 1235
f 1234 1236 1235
f 1237 1238 1239
f 1238 1240 1239
f 1174 1173 1241
f 1173 1242 1241
f 1206 1208 1243
f 1208 1244 1243
f 1245 1246 1247
f 1246 1248 1247
f 1249 1250 1251
f 1252 1249 1251
f 1253 1254 1255
f 1256 1253 1255
f 1257 1258 1259
f 1260 1257 1259
f 1261 1262 1263
f 1264 1261 1263
f 1188 1265 1186
f 1188 1266 1265
f 1266 1267 1265
f 1266 1268 1267
f 1180 1269 1178
f 1180 1270 1269
f 1270 1271 1269
f 1270 1272 1271
f 1273 1274 1182
f 1181 1273 1182
f 1275 1276 1274
f 1273 1275 1274
f 1277 1278 1279
f 1280 1277 1279
f 1281 1282 1283
f 1284 1281 1283
f 1285 1286 1287
f 1285 1288 1286
f 1289 1290 1291
f 1289 1292 1290
f 1172 1293 1170
f 1172 1294 1293
f 1294 1295 1293
f 1294 1296 1295
f 1297 1298 1299
f 1300 1297 1299
f 1298 1301 1302
f 1299 1298 1302
f 1301 1303 1304
f 1302 1301 1304
f 1300 1299 1305
f 1306 1300 1305
f 1306 1305 1307
f 1308 1306 1307
f 1299 1302 1309
f 1305 1299 1309
f 1305 1309 1310
f 1307 1305 1310
f 1302 1304 1311
f 1309 1302 1311
f 1309 1311 1312
f 1310 1309 1312
v -33.9998 -13 -30.99955
v -34.0001 -13 -30.00013
v -33.99889 -19.99956 -30.99955
v -33.99919 -19.99956 -30.00013
v -39.99964 -13 -30.00015
v -39.99969 -13 -30.99928
v -39.99873 -20.00047 -30.00015
v -39.99878 -20.00047 -30.99928
v -39.99991 -13 -30.99942
v -38.99991 -13 -30.99942
v -38.999 -20.00032 -30.99942
v -39.999 -20.00047 -30.99942
v -38.99969 -13 -30.99933
v -33.9998 -13 -30.99955
v -33.99889 -19.99956 -30.99955
v -38.99878 -20.00032 -30.99933
v -33.99919 -19.99956 -30.00013
v -38.99964 -13 -30.00005
v -38.99873 -20.00032 -30.00005
v -34.0001 -13 -30.00013
v -38.99873 -20.00032 -30.00005
v -39.99964 -13 -30.00015
v -39.99873 -20.00047 -30.00015
v -38.99964 -13 -30.00005
v -38.99873 -20.00032 -30.00005
v -39.99873 -20.00047 -30.00015
v -39.99878 -20.00047 -30.99928
v -38.99878 -20.00032 -30.99933
v -33.99889 -19.99956 -30.99955
v -33.99919 -19.99956 -30.00013
v -38.99969 -13 -30.99933
v -38.99878 -20.00032 -30.99933
v -38.99991 -13 -30.99942
v -38.999 -20.00032 -30.99942
v -39.99878 -20.00047 -30.99928
v -39.99969 -13 -30.99928
v -39.999 -20.00047 -30.99942
v -39.99991 -13 -30.99942
v -38.99878 -20.00032 -30.99933
v -39.99878 -20.00047 -30.99928
v -38.999 -20.00032 -30.99942
v -39.999 -20.00047 -30.99942
v -38.99969 -13 -30.99933
v -39.99969 -13 -30.99928
v -38.99964 -13 -30.00005
v -39.99964 -13 -30.00015
v -34.0001 -13 -30.00013
v -33.9998 -13 -30.99955
v -39.99969 -13 -30.99928
v -38.99969 -13 -30.99933
v -39.99991 -13 -30.99942
v -38.99991 -13 -30.99942
f 1313 1314 1315
f 1314 1316 1315
f 1317 1318 1319
f 1318 1320 1319
f 1321 1322 1323
f 1324 1321 1323
f 1325 1326 1327
f 1328 1325 1327
f 1329 1330 1331
f 1329 1332 1330
f 1333 1334 1335
f 1333 1336 1334
f 1337 1338 1339
f 1337 1339 1340
f 1341 1342 1340
f 1342 1337 1340
f 1343 1344 1345
f 1344 1346 1345
f 1347 1348 1349
f 1348 1350 1349
f 1351 1352 1353
f 1352 1354 1353
f 1355 1356 1357
f 1356 1358 1357
f 1355 1357 1359
f 1355 1359 1360
f 1361 1362 1363
f 1362 1364 1363
v -34 11.75 36
v -32 11.75 36
v -34 12 36
v -32 12 36
v -32 11.75 36
v -32 11.75 24
v -32 12 36
v -32 12 24
v -32 11.75 24
v -34 11.75 24
v -32 12 24
v -34 12 24
v -34 11.75 24
v -34 11.75 36
v -34 12 24
v -34 12 36
v -34 12 36
v -32 12 36
v -34 12 24
v -32 12 24
v -34 11.75 24
v -32 11.75 24
v -34 11.75 36
v -32 11.75 36
f 1365 1366 1367
f 1366 1368 1367
f 1369 1370 1371
f 1370 1372 1371
f 1373 1374 1375
f 1374 1376 1375
f 1377 1378 1379
f 1378 1380 1379
f 1381 1382 1383
f 1382 1384 1383
f 1385 1386 1387
f 1386 1388 1387
v 30 -20 -30
v 30 -20 -24
v 30 -13 -30
v 30 -13 -24
v 30 -20 -24
v 32 -20 -24
v 30 -13 -24
v 32 -13 -24
v 32 -20 -30
v 30 -20 -30
v 32 -13 -30
v 30 -13 -30
v 32 -20 -30
v 32 -20 -24
v 30 -20 -30
v 30 -20 -24
v 30 -12 -29
v 30 -12 -25
v 32 -13 -30
v 30 -13 -30
v 32 -12 -29
v 30 -12 -29
v 30 -13 -24
v 32 -13 -24
v 30 -12 -25
v 32 -12 -25
v 32 -20 -24
v 32 -20 -30
v 32 -20 -25
v 32 -20 -30
v 32 -20 -29
v 32 -20 -25
v 32 -13 -24
v 32 -20 -24
v 32 -13.5 -25
v 32 -20 -25
v 32 -20 -30
v 32 -13 -30
v 32 -20 -29
v 32 -13.5 -29
v 32 -12 -25
v 32 -13.5 -26
v 32 -12 -29
v 32 -13.5 -28
v 32 -13.5 -25
v 32 -20 -25
v 30 -13.5 -25
v 30 -20 -25
v 32 -20 -29
v 32 -13.5 -29
v 30 -20 -29
v 30 -13.5 -29
v 32 -13.5 -26
v 32 -13.5 -25
v 30 -13.5 -26
v 30 -13.5 -25
v 32 -13.5 -29
v 32 -13.5 -28
v 30 -13.5 -29
v 30 -13.5 -28
v 30 -12 -29
v 30 -12 -25
v 32 -12 -29
v 32 -12 -25
f 1389 1390 1391
f 1390 1392 1391
f 1393 1394 1395
f 1394 1396 1395
f 1397 1398 1399
f 1398 1400 1399
f 1401 1402 1403
f 1402 1404 1403
f 1391 1392 1405
f 1392 1406 1405
f 1407 1408 1409
f 1408 1410 1409
f 1411 1412 1413
f 1412 1414 1413
f 1415 1416 1417
f 1418 1419 1420
f 1421 1422 1423
f 1422 1424 1423
f 1425 1426 1427
f 1426 1428 1427
f 1429 1421 1430
f 1421 1423 1430
f 1426 1431 1428
f 1431 1432 1428
f 1431 1429 1432
f 1429 1430 1432
f 1433 1434 1435
f 1434 1436 1435
f 1437 1438 1439
f 1438 1440 1439
f 1441 1442 1443
f 1442 1444 1443
f 1445 1446 1447
f 1446 1448 1447
f 1446 1441 1448
f 1441 1443 1448
f 1449 1450 1451
f 1450 1452 1451
v -49.99989 -20 -31
v -49.99954 -20 -30.00058
v -49.99988 -14 -31
v -49.99954 -14 -30.00058
v -44 -20 -30.00087
v -44 -20 -31
v -44 -14 -30.00087
v -43.99999 -14 -31
v -44 -20 -36
v -45 -20 -36
v -44.99999 -14 -36
v -43.99999 -14 -36
v -45 -20 -31
v -49.99989 -20 -31
v -49.99988 -14 -31
v -44.99999 -14 -31
v -49.99954 -14 -30.00058
v -45 -20 -30.00072
v -45 -14 -30.00072
v -49.99954 -20 -30.00058
v -45 -14 -30.00072
v -44 -20 -30.00087
v -44 -14 -30.00087
v -45 -20 -30.00072
v -45 -20 -31
v -44 -20 -31
v -45 -20 -30.00072
v -44 -20 -30.00087
v -49.99954 -20 -30.00058
v -49.99989 -20 -31
v -44 -20 -36
v -45 -20 -36
v -45 -20 -31
v -44.99999 -14 -31
v -45 -20 -36
v -44.99999 -14 -36
v -43.99999 -14 -31
v -44 -20 -31
v -43.99999 -14 -36
v -44 -20 -36
v -45 -14 -30.00072
v -44 -14 -30.00087
v -43.99999 -14 -31
v -44.99999 -14 -31
v -49.99988 -14 -31
v -49.99954 -14 -30.00058
v -44.99999 -14 -36
v -43.99999 -14 -36
f 1453 1454 1455
f 1454 1456 1455
f 1457 1458 1459
f 1458 1460 1459
f 1461 1462 1463
f 1464 1461 1463
f 1465 1466 1467
f 1468 1465 1467
f 1469 1470 1471
f 1469 1472 1470
f 1473 1474 1475
f 1473 1476 1474
f 1477 1478 1479
f 1478 1480 1479
f 1477 1479 1481
f 1477 1481 1482
f 1478 1477 1483
f 1477 1484 1483
f 1485 1486 1487
f 1486 1488 1487
f 1489 1490 1491
f 1490 1492 1491
f 1493 1494 1495
f 1493 1495 1496
f 1497 1498 1496
f 1498 1493 1496
f 1496 1495 1499
f 1495 1500 1499
v 44 -20 -18.5
v 52 -20 -18.5
v 44 -20 -12.5
v 52 -20 -12.5
v 44 -20 1.5
v 52 -20 1.5
v 44 8 -18.5
v 44 8 -12.5
v 45 8 -17.5
v 45 8 -11.5
v 52 8 1.5
v 52 8 -12.5
v 51 8 0.5
v 51 8 -11.5
v 45 8 1.5
v 45 8 0.5
v 52 8 -18.5
v 51 8 -17.5
v 38 8 -12.5
v 38 8 1.5
v 39 8 -11.5
v 39 8 0.5
v 52 -20 1.5
v 44.5 -14 1.5
v 44 -20 1.5
v 52 -14 1.5
v 52 -20 -12.5
v 52 -20 -18.5
v 52 -14 -18.5
v 52 -14 -12.5
v 52 -14 -18.5
v 44 -20 -18.5
v 44 -14 -18.5
v 52 -20 -18.5
v 44 -14 -18.5
v 44 -20 -12.5
v 44 -14 -12.5
v 44 -20 -18.5
v 32 -14 -8.5
v 32 -20 -2.5
v 32 -14 -2.5
v 32 -20 -8.5
v 52 -20 1.5
v 52 -14 1.5
v 38 -20 1.5
v 38 -14 1.5
v 32 -20 -2.5
v 32 -14 -2.5
v 38 -14 -12.5
v 38 -20 -12.5
v 32 -14 -8.5
v 32 -20 -8.5
v 38 -20 -12.5
v 38 -20 1.5
v 32 -20 -8.5
v 32 -20 -2.5
v 41 -20 1.5
v 41 -20 -12.5
v 42.5 8 0.5
v 41.5 8 1.5
v 42.5 8 -11.5
v 41 8 -12.5
v 41 -14 -12.5
v 38 -20 -12.5
v 38 -14 -12.5
v 41 -20 -12.5
v 44 -14 -12.5
v 44 -20 -12.5
v 38 -14 1.5
v 38 -20 1.5
v 41 -20 1.5
v 41.25 -14 1.5
v 52 -5 1.5
v 45 8 1.5
v 44 -5 1.5
v 52 8 1.5
v 52 -5 -12.5
v 52 -5 -18.5
v 52 8 -18.5
v 52 8 -12.5
v 52 8 -18.5
v 44 -5 -18.5
v 44 8 -18.5
v 52 -5 -18.5
v 44 8 -18.5
v 44 -5 -12.5
v 44 8 -12.5
v 44 -5 -18.5
v 38 8 -12.5
v 38 -5 1.5
v 38 8 1.5
v 38 -5 -12.5
v 52 -5 1.5
v 52 8 1.5
v 41 8 -12.5
v 38 -5 -12.5
v 38 8 -12.5
v 41 -5 -12.5
v 44 8 -12.5
v 44 -5 -12.5
v 38 8 1.5
v 38 -5 1.5
v 41 -5 1.5
v 41.5 8 1.5
v 52 -10 1.5
v 44 -10 1.5
v 52 -10 -18.5
v 52 -10 -12.5
v 52 -10 -18.5
v 44 -10 -18.5
v 44 -10 -18.5
v 44 -10 -12.5
v 38 -10 -12.5
v 38 -14 1.5
v 38 -10 1.5
v 38 -14 -12.5
v 52 -10 1.5
v 41 -10 -12.5
v 38 -10 -12.5
v 44 -10 -12.5
v 38 -10 1.5
v 41 -10 1.5
v 41 -10 -12.5
v 41 -5 -12.5
v 41 -10 1.5
v 41 -5 1.5
v 41 -5 -12.5
v 44 -5 -12.5
v 41 -5 1.5
v 44 -5 1.5
v 44 -5 1.5
v 44 -10 1.5
v 45 8 -17.5
v 45 8 -11.5
v 45 7 -17.5
v 45 7 -11.5
v 51 8 0.5
v 51 8 -11.5
v 51 7 0.5
v 51 7 -11.5
v 42.5 8 0.5
v 45 8 0.5
v 42.5 7 0.5
v 45 7 0.5
v 51 8 0.5
v 51 7 0.5
v 51 8 -17.5
v 51 7 -17.5
v 51 8 -17.5
v 45 8 -17.5
v 51 7 -17.5
v 45 7 -17.5
v 45 8 -11.5
v 42.5 8 -11.5
v 45 7 -11.5
v 42.5 7 -11.5
v 39 8 0.5
v 39 7 0.5
v 39 8 -11.5
v 39 7 -11.5
v 39 8 -11.5
v 39 8 0.5
v 39 7 -11.5
v 39 7 0.5
v 45 7 -11.5
v 51 7 -11.5
v 45 7 -17.5
v 51 7 -17.5
v 51 7 0.5
v 45 7 0.5
v 38 -14 1.5
v 38 -14 -12.5
v 32 -14 -2.5
v 32 -14 -8.5
v 42.5 7 -11.5
v 42.5 7 0.5
v 39 7 -11.5
v 39 7 0.5
v 44 -10 -12.5
v 41 -10 -12.5
v 44 -10 1.5
v 41 -10 1.5
f 1501 1502 1503
f 1502 1504 1503
f 1503 1504 1505
f 1504 1506 1505
f 1507 1508 1509
f 1508 1510 1509
f 1511 1512 1513
f 1512 1514 1513
f 1515 1511 1516
f 1511 1513 1516
f 1512 1517 1514
f 1517 1518 1514
f 1517 1507 1518
f 1507 1509 1518
f 1519 1520 1521
f 1520 1522 1521
f 1523 1524 1525
f 1523 1526 1524
f 1527 1528 1529
f 1530 1527 1529
f 1531 1532 1533
f 1531 1534 1532
f 1535 1536 1537
f 1535 1538 1536
f 1539 1540 1541
f 1539 1542 1540
f 1543 1527 1530
f 1544 1543 1530
f 1545 1546 1547
f 1546 1548 1547
f 1549 1550 1551
f 1550 1552 1551
f 1553 1554 1555
f 1554 1556 1555
f 1557 1503 1505
f 1557 1558 1503
f 1554 1558 1557
f 1554 1553 1558
f 1559 1522 1560
f 1560 1522 1520
f 1515 1516 1559
f 1515 1559 1560
f 1510 1508 1561
f 1508 1562 1561
f 1561 1562 1521
f 1562 1519 1521
f 1563 1564 1565
f 1563 1566 1564
f 1567 1566 1563
f 1567 1568 1566
f 1569 1570 1571
f 1569 1571 1572
f 1571 1525 1572
f 1572 1525 1524
f 1573 1574 1575
f 1573 1576 1574
f 1577 1578 1579
f 1580 1577 1579
f 1581 1582 1583
f 1581 1584 1582
f 1585 1586 1587
f 1585 1588 1586
f 1589 1590 1591
f 1589 1592 1590
f 1593 1577 1580
f 1594 1593 1580
f 1595 1596 1597
f 1595 1598 1596
f 1599 1598 1595
f 1599 1600 1598
f 1601 1602 1603
f 1601 1603 1604
f 1603 1575 1604
f 1604 1575 1574
f 1605 1575 1606
f 1605 1573 1575
f 1526 1606 1524
f 1526 1605 1606
f 1530 1529 1607
f 1608 1530 1607
f 1608 1607 1578
f 1577 1608 1578
f 1609 1533 1610
f 1609 1531 1533
f 1584 1610 1582
f 1584 1609 1610
f 1611 1537 1612
f 1611 1535 1537
f 1588 1612 1586
f 1588 1611 1612
f 1613 1614 1615
f 1613 1616 1614
f 1592 1615 1590
f 1592 1613 1615
f 1544 1530 1608
f 1617 1544 1608
f 1617 1608 1577
f 1593 1617 1577
f 1618 1565 1619
f 1618 1563 1565
f 1598 1619 1596
f 1598 1618 1619
f 1620 1563 1618
f 1620 1567 1563
f 1602 1621 1622
f 1602 1622 1603
f 1621 1569 1572
f 1621 1572 1622
f 1572 1524 1622
f 1622 1524 1606
f 1623 1624 1625
f 1624 1626 1625
f 1627 1628 1629
f 1628 1630 1629
f 1586 1612 1631
f 1612 1632 1631
f 1633 1634 1635
f 1634 1636 1635
f 1637 1638 1639
f 1638 1640 1639
f 1641 1642 1643
f 1642 1644 1643
f 1642 1645 1644
f 1645 1646 1644
f 1638 1647 1640
f 1647 1648 1640
f 1649 1650 1651
f 1650 1652 1651
f 1653 1654 1655
f 1654 1656 1655
f 1657 1641 1658
f 1641 1643 1658
f 1654 1659 1656
f 1659 1660 1656
f 1661 1662 1663
f 1662 1664 1663
f 1665 1666 1667
f 1666 1668 1667
f 1666 1665 1669
f 1665 1670 1669
f 1671 1672 1673
f 1672 1674 1673
f 1665 1675 1676
f 1670 1665 1676
f 1675 1677 1678
f 1676 1675 1678
f 1679 1680 1681
f 1680 1682 1681
v 34 -20 8.999999
v 34 -20 21
v 24 -20 8.999999
v 24 -20 21
v 28 -6 13
v 28 -6 17
v 30 -6 13
v 30 -6 17
v 24 -14 8.999999
v 24 -14 21
v 26 -14 11
v 26 -14 19
v 34 -14 8.999999
v 32 -14 11
v 34 -14 21
v 32 -14 19
v 26 -8 11
v 26 -8 19
v 28 -6 13
v 26 -8 19
v 28 -6 17
v 28 -6 13
v 32 -8 11
v 26 -8 11
v 30 -6 13
v 26 -8 11
v 28 -6 13
v 30 -6 13
v 26 -8 19
v 32 -8 19
v 28 -6 17
v 30 -6 17
v 32 -8 19
v 32 -8 11
v 30 -6 17
v 30 -6 13
v 24 -20 8.999999
v 24 -20 21
v 24 -14 8.999999
v 24 -14 21
v 24 -20 21
v 34 -20 21
v 24 -14 21
v 34 -14 21
v 34 -20 21
v 34 -20 8.999999
v 34 -14 21
v 34 -14 8.999999
v 34 -20 8.999999
v 24 -20 8.999999
v 34 -14 8.999999
v 24 -14 8.999999
v 26 -14 11
v 26 -14 19
v 26 -8 11
v 26 -8 19
v 32 -14 11
v 26 -14 11
v 32 -8 11
v 26 -8 11
v 26 -14 19
v 32 -14 19
v 26 -8 19
v 32 -8 19
v 32 -14 19
v 32 -14 11
v 32 -8 19
v 32 -8 11
f 1683 1684 1685
f 1684 1686 1685
f 1687 1688 1689
f 1688 1690 1689
f 1691 1692 1693
f 1692 1694 1693
f 1695 1691 1696
f 1691 1693 1696
f 1692 1697 1694
f 1697 1698 1694
f 1697 1695 1698
f 1695 1696 1698
f 1699 1700 1701
f 1702 1703 1704
f 1705 1706 1707
f 1708 1709 1710
f 1711 1712 1713
f 1712 1714 1713
f 1715 1716 1717
f 1716 1718 1717
f 1719 1720 1721
f 1720 1722 1721
f 1723 1724 1725
f 1724 1726 1725
f 1727 1728 1729
f 1728 1730 1729
f 1731 1732 1733
f 1732 1734 1733
f 1735 1736 1737
f 1736 1738 1737
f 1739 1740 1741
f 1740 1742 1741
f 1743 1744 1745
f 1744 1746 1745
f 1747 1748 1749
f 1748 1750 1749
v 59 -20 31.99998
v 59.00002 -20 48
v 42.99992 -20 32
v 43.00002 -20 48
v 42.99992 -20 32
v 43.00002 -20 48
v 42.99992 -12 32
v 43.00002 -12 48
v 43.00002 12 48
v 42.99992 12 32
v 43.00002 -20 48
v 59.00002 -20 48
v 59.00002 -12 48
v 43.00002 -12 48
v 59.00002 12 48
v 43.00002 12 48
v 59 -12 31.99998
v 59.00002 -12 48
v 59.00002 -20 48
v 59 -20 31.99998
v 59 12 32
v 59.00002 12 48
v 58.99993 -12 24
v 42.99985 -20 24
v 42.99985 -12 24
v 58.99993 -20 24
v 59 12 32
v 42.99992 -12 32
v 42.99992 12 32
v 59 -12 31.99998
v 42.99985 -20 24
v 42.99985 -12 24
v 59 -12 31.99998
v 59 -20 31.99998
v 58.99993 -12 24
v 58.99993 -20 24
v 58.99993 -20 24
v 42.99985 -20 24
v 42.99992 12 32
v 43.00002 12 48
v 59 12 32
v 59.00002 12 48
v 42.99992 -12 32
v 59 -12 31.99998
v 42.99985 -12 24
v 58.99993 -12 24
f 1751 1752 1753
f 1752 1754 1753
f 1755 1756 1757
f 1756 1758 1757
f 1757 1758 1759
f 1760 1757 1759
f 1761 1762 1763
f 1764 1761 1763
f 1764 1763 1765
f 1766 1764 1765
f 1767 1768 1769
f 1770 1767 1769
f 1771 1772 1768
f 1767 1771 1768
f 1773 1774 1775
f 1773 1776 1774
f 1777 1778 1779
f 1777 1780 1778
f 1755 1757 1781
f 1757 1782 1781
f 1783 1784 1785
f 1784 1786 1785
f 1751 1753 1787
f 1753 1788 1787
f 1789 1790 1791
f 1790 1792 1791
f 1793 1794 1795
f 1794 1796 1795
v -9.000767 -20 -22.5
v 6.999116 -20 -22.5
v -9.000767 -4 -22.5
v 6.999117 -4 -22.5
v -8.9983 -4 -36
v 7.00124 -4 -36
v 7.00124 -20 -36
v -8.9983 -20 -36
v -9.000767 8 -22.5
v -9.000767 2 -22.5
v 6.999116 2 -22.5
v 6.999119 8 -22.5
v 7.00124 2 -36
v -8.9983 2 -36
v 7.00124 8 -36
v -8.9983 8 -36
v -9.000767 -20 -22.5
v -8.999533 -20 -26
v 6.999116 -20 -22.5
v 7.000179 -20 -26
v 6.999117 -4 -22.5
v 6.999116 -20 -22.5
v 7.00018 -4 -26
v 7.000179 -20 -26
v -8.999533 -4 -26
v -8.999533 -20 -26
v -9.000767 -20 -22.5
v -9.000767 -4 -22.5
v 6.999119 8 -22.5
v 6.999116 2 -22.5
v 7.000179 2 -26
v 7.000182 8 -26
v -8.999533 8 -26
v -9.000767 2 -22.5
v -9.000767 8 -22.5
v -8.999533 2 -26
v -8.998915 -20 -30.001
v 7.00071 -20 -29.99917
v -8.9983 -20 -36
v 7.00124 -20 -36
v 7.00018 -4 -26
v 7.000179 -20 -26
v 7.00071 -4 -29.99917
v 7.00071 -20 -29.99917
v 7.00124 -4 -36
v 7.00124 -20 -36
v -8.9983 -4 -36
v -8.9983 -20 -36
v -8.998915 -20 -30.001
v -8.998915 -4 -30.001
v -8.999533 -20 -26
v -8.999533 -4 -26
v 7.000179 2 -26
v 7.00071 2 -29.99916
v 7.000182 8 -26
v 7.00071 8 -29.99917
v 7.00124 2 -36
v 7.00124 8 -36
v 3.5 2 -25.99994
v 3.5 -4 -25.99994
v 3.5 2 -29.9991
v 3.5 -4 -29.9991
v -8.998915 8 -30.001
v -8.999533 2 -26
v -8.999533 8 -26
v -8.998915 2 -30.00099
v -8.9983 8 -36
v -8.9983 2 -36
v 7.000179 2 -26
v 7.00018 -4 -26
v 3.5 2 -25.99994
v 3.5 -4 -25.99994
v 7.00071 2 -29.99916
v 7.000179 2 -26
v 3.5 2 -29.9991
v 3.5 2 -25.99994
v 7.00071 -4 -29.99917
v 7.00071 2 -29.99916
v 3.5 -4 -29.9991
v 3.5 2 -29.9991
v 7.000182 8 -26
v -8.999533 8 -26
v 6.999119 8 -22.5
v -9.000767 8 -22.5
v 7.00071 8 -29.99917
v 7.00124 8 -36
v -8.998915 8 -30.001
v -8.9983 8 -36
v 7.00018 -4 -26
v 7.00071 -4 -29.99917
v 3.5 -4 -25.99994
v 3.5 -4 -29.9991
f 1797 1798 1799
f 1798 1800 1799
f 1801 1802 1803
f 1801 1803 1804
f 1805 1806 1807
f 1805 1807 1808
f 1799 1800 1807
f 1806 1799 1807
f 1809 1801 1810
f 1809 1802 1801
f 1811 1810 1812
f 1811 1809 1810
f 1813 1814 1815
f 1815 1814 1816
f 1817 1818 1819
f 1818 1820 1819
f 1821 1822 1823
f 1821 1823 1824
f 1825 1826 1827
f 1825 1827 1828
f 1826 1817 1827
f 1817 1819 1827
f 1829 1830 1831
f 1829 1832 1830
f 1832 1821 1824
f 1832 1824 1830
f 1814 1833 1816
f 1833 1834 1816
f 1833 1835 1836
f 1833 1836 1834
f 1837 1838 1839
f 1838 1840 1839
f 1839 1840 1841
f 1840 1842 1841
f 1843 1844 1845
f 1843 1845 1846
f 1846 1845 1847
f 1846 1847 1848
f 1849 1850 1851
f 1851 1850 1852
f 1850 1853 1852
f 1852 1853 1854
f 1855 1856 1857
f 1856 1858 1857
f 1850 1839 1853
f 1839 1841 1853
f 1859 1860 1861
f 1859 1862 1860
f 1863 1862 1859
f 1863 1864 1862
f 1864 1843 1846
f 1864 1846 1862
f 1862 1846 1848
f 1862 1848 1860
f 1865 1866 1867
f 1866 1868 1867
f 1869 1870 1871
f 1870 1872 1871
f 1873 1874 1875
f 1874 1876 1875
f 1877 1878 1879
f 1879 1878 1880
f 1881 1882 1883
f 1882 1884 1883
f 1877 1881 1883
f 1877 1883 1878
f 1885 1886 1887
f 1886 1888 1887
v -30 -20 12
v -30 -20 1.999999
v -22 -20 2
v -22 -20 12
v -44 -20 12
v -44 -20 2
v -30 -20 -8.000003
v -44 -20 -8
v -44 -20 2
v -44 -20 12
v -44 -14 12
v -44 -14 1.999998
v -44 2 2
v -44 2 12
v -22 -14 12
v -22 -20 2
v -22 -14 2
v -22 -20 12
v -22 2 12
v -22 2 2
v -44 -20 12
v -30 -20 12
v -30 -14 12
v -44 -14 12
v -30 2 12
v -44 2 12
v -22 -20 12
v -22 -14 12
v -22 2 12
v -22 -14 -1
v -27 -20 -1.000001
v -27 -14 -1.000001
v -22 -20 -1
v -22 2 2
v -30 -14 1.999997
v -30 2 1.999999
v -22 -14 2
v -30 -14 -8.000009
v -44 -20 -8
v -44 -14 -8.000002
v -30 -20 -8.000003
v -30 2 -8.000009
v -44 2 -8
v -44 -20 -8
v -44 -14 -8.000002
v -44 2 -8
v -30 2 1.999999
v -30 -14 -8.000009
v -30 2 -8.000009
v -30 -14 1.999997
v -27 -14 -1.000001
v -27 -20 -8.000003
v -27 -14 -8.000003
v -27 -20 -1.000001
v -27 -20 -1.000001
v -27 -20 -8.000003
v -22 -14 -1
v -22 -20 -1
v -22 -20 -1
v -30 -20 -8.000003
v -30 -14 -8.000009
v -27 -20 -8.000003
v -27 -14 -8.000003
v -30 2 1.999999
v -44 2 12
v -30 2 12
v -44 2 2
v -22 2 2
v -22 2 12
v -44 2 -8
v -30 2 -8.000009
v -30 -14 1.999997
v -22 -14 2
v -27 -14 -1.000001
v -22 -14 -1
v -30 -14 -8.000009
v -27 -14 -8.000003
f 1889 1890 1891
f 1892 1889 1891
f 1893 1894 1890
f 1889 1893 1890
f 1890 1894 1895
f 1894 1896 1895
f 1897 1898 1899
f 1900 1897 1899
f 1901 1900 1902
f 1900 1899 1902
f 1903 1904 1905
f 1903 1906 1904
f 1907 1905 1908
f 1907 1903 1905
f 1909 1910 1911
f 1912 1909 1911
f 1912 1911 1913
f 1914 1912 1913
f 1910 1915 1916
f 1911 1910 1916
f 1911 1916 1917
f 1913 1911 1917
f 1918 1919 1920
f 1918 1921 1919
f 1922 1923 1924
f 1922 1925 1923
f 1926 1927 1928
f 1926 1929 1927
f 1930 1928 1931
f 1930 1926 1928
f 1932 1897 1900
f 1933 1932 1900
f 1933 1900 1901
f 1934 1933 1901
f 1935 1936 1937
f 1935 1938 1936
f 1939 1940 1941
f 1939 1942 1940
f 1890 1895 1943
f 1895 1944 1943
f 1905 1904 1945
f 1904 1946 1945
f 1891 1890 1947
f 1890 1943 1947
f 1948 1949 1950
f 1949 1951 1950
f 1952 1953 1954
f 1952 1955 1953
f 1956 1954 1957
f 1956 1952 1954
f 1955 1952 1958
f 1952 1959 1958
f 1960 1961 1962
f 1961 1963 1962
f 1964 1960 1965
f 1960 1962 1965
v 26 -20 -22
v 26 -20 -18
v 26 -16 -22
v 26 -16 -18
v 26 -20 -18
v 30 -20 -18
v 26 -16 -18
v 30 -16 -18
v 30 -20 -18
v 30 -20 -22
v 30 -16 -18
v 30 -16 -22
v 30 -20 -22
v 26 -20 -22
v 30 -16 -22
v 26 -16 -22
v 30 -20 -22
v 30 -20 -18
v 26 -20 -22
v 26 -20 -18
v 26 -16 -22
v 26 -16 -18
v 30 -16 -22
v 30 -16 -18
f 1966 1967 1968
f 1967 1969 1968
f 1970 1971 1972
f 1971 1973 1972
f 1974 1975 1976
f 1975 1977 1976
f 1978 1979 1980
f 1979 1981 1980
f 1982 1983 1984
f 1983 1985 1984
f 1986 1987 1988
f 1987 1989 1988
v -10 -20 45
v 4 -20 26
v 4 -20 42
v -10 -20 26
v -10 -20 48
v 4 -20 48
v -10 -20 50
v 4 -20 50
v -18 -20 48
v -18 -20 45
v -18 -20 50
v -10 -20 50
v 4 -20 50
v 4 -15 50
v -10 -15 50
v 4 -14 50
v -10 -14 50
v 4 -15 26
v -10 -20 26
v -10 -15 26
v 4 -20 26
v 4 -14 26
v -10 -14 26
v 4 -20 42
v 4 -20 26
v 4 -15 26
v 4 -15 42
v 4 -14 26
v 4 -14 42
v -10 -15 26
v -10 -20 45
v -10 -15 45
v -10 -20 26
v -10 -14 26
v -10 -14 45
v -18 -20 50
v -10 -14 45
v -10 -15 45
v -18 -20 45
v -10 -20 45
v 4 -20 50
v 4 -20 48
v 4 -15 48
v 4 -15 50
v 4 -14 48
v 4 -14 50
v 0 -20 48
v 0 -20 42
v 0 -15 42
v 0 -15 48
v 4 -20 42
v 4 -15 42
v 0 -20 42
v 0 -15 42
v 4 -15 48
v 4 -20 48
v 0 -15 48
v 0 -20 48
v 4 -15 42
v 4 -15 48
v 0 -15 42
v 0 -15 48
v 4 -14 26
v -10 -14 26
v -10 -14 45
v 4 -14 42
v -10 -14 48
v 4 -14 48
v -10 -14 50
v 4 -14 50
v -10 -14 48
v -18 -20 48
v -18 -20 50
v -10 -14 50
v -10 -14 45
v -18 -20 45
f 1990 1991 1992
f 1990 1993 1991
f 1994 1992 1995
f 1994 1990 1992
f 1996 1995 1997
f 1996 1994 1995
f 1998 1990 1994
f 1998 1999 1990
f 2000 1994 1996
f 2000 1998 1994
f 2001 2002 2003
f 2004 2001 2003
f 2004 2003 2005
f 2006 2004 2005
f 2007 2008 2009
f 2007 2010 2008
f 2011 2009 2012
f 2011 2007 2009
f 2013 2014 2015
f 2016 2013 2015
f 2016 2015 2017
f 2018 2016 2017
f 2019 2020 2021
f 2019 2022 2020
f 2023 2021 2024
f 2023 2019 2021
f 2025 2001 2004
f 2025 2004 2006
f 2026 2027 2028
f 2027 2029 2028
f 2030 2031 2032
f 2033 2030 2032
f 2033 2032 2034
f 2035 2033 2034
f 2036 2037 2038
f 2039 2036 2038
f 2032 2016 2018
f 2034 2032 2018
f 2040 2041 2042
f 2041 2043 2042
f 2044 2045 2046
f 2045 2047 2046
f 2048 2049 2050
f 2049 2051 2050
f 2052 2053 2054
f 2055 2052 2054
f 2055 2054 2056
f 2057 2055 2056
f 2057 2056 2058
f 2059 2057 2058
f 2060 2061 2062
f 2063 2060 2062
f 2064 2065 2061
f 2060 2064 2061
v 7 -6 -30
v 7 -6 -28
v 7 -4 -28
v 7 -4 -30
v 7 -6 -26
v 7 -4 -26
v 14 -4 -26
v 14 -6 -28
v 14 -4 -28
v 14 -6 -26
v 14 -6 -30
v 14 -4 -30
v 7 -6 -26
v 9 -5 -26
v 9 -4 -26
v 7 -4 -26
v 9 -4 -30
v 7 -6 -30
v 7 -4 -30
v 9 -5 -30
v 7 -6 -28
v 7 -6 -30
v 9 -5 -28
v 9 -5 -30
v 7 -6 -26
v 9 -5 -26
v 12 -5 -26
v 12 -4 -26
v 14 -6 -26
v 14 -4 -26
v 12 -4 -30
v 12 -5 -30
v 14 -4 -30
v 14 -6 -30
v 9 -5 -28
v 9 -5 -30
v 12 -5 -30
v 12 -5 -28
v 12 -5 -28
v 12 -5 -30
v 14 -6 -28
v 14 -6 -30
v 9 -5 -26
v 12 -5 -26
v 12 -5 -26
v 14 -6 -26
v 9 -4 -28
v 9 -4 -30
v 7 -4 -30
v 7 -4 -28
v 9 -4 -26
v 7 -4 -26
v 14 -4 -28
v 14 -4 -30
v 12 -4 -30
v 12 -4 -28
v 12 -4 -26
v 14 -4 -26
f 2066 2067 2068
f 2069 2066 2068
f 2067 2070 2071
f 2068 2067 2071
f 2072 2073 2074
f 2072 2075 2073
f 2074 2076 2077
f 2074 2073 2076
f 2078 2079 2080
f 2081 2078 2080
f 2082 2083 2084
f 2082 2085 2083
f 2086 2087 2088
f 2087 2089 2088
f 2090 2086 2091
f 2086 2088 2091
f 2079 2092 2093
f 2080 2079 2093
f 2092 2094 2095
f 2093 2092 2095
f 2096 2085 2082
f 2096 2097 2085
f 2098 2097 2096
f 2098 2099 2097
f 2100 2101 2102
f 2103 2100 2102
f 2104 2105 2106
f 2105 2107 2106
f 2108 2100 2103
f 2109 2108 2103
f 2110 2104 2106
f 2111 2110 2106
f 2112 2113 2114
f 2112 2114 2115
f 2116 2112 2115
f 2116 2115 2117
f 2118 2119 2120
f 2118 2120 2121
f 2120 2112 2121
f 2120 2113 2112
f 2121 2116 2122
f 2121 2112 2116
f 2118 2122 2123
f 2118 2121 2122
v 38 -20 -17.50003
v 38 -20 -12.5
v 38 -17 -17.50003
v 38 -17 -12.5
v 38 -20 -12.5
v 44 -20 -12.5
v 38 -17 -12.5
v 44 -17 -12.5
v 44 -20 -12.5
v 44 -20 -17.50006
v 44 -17 -12.5
v 44 -17 -17.50006
v 44 -20 -17.50006
v 38 -20 -17.50003
v 44 -17 -17.50006
v 38 -17 -17.50003
v 44 -20 -17.50006
v 44 -20 -12.5
v 38 -20 -17.50003
v 38 -20 -12.5
v 38 -17 -17.50003
v 38 -17 -12.5
v 44 -17 -17.50006
v 44 -17 -12.5
f 2124 2125 2126
f 2125 2127 2126
f 2128 2129 2130
f 2129 2131 2130
f 2132 2133 2134
f 2133 2135 2134
f 2136 2137 2138
f 2137 2139 2138
f 2140 2141 2142
f 2141 2143 2142
f 2144 2145 2146
f 2145 2147 2146
v -44.00014 -20 -44.00003
v -44.00011 -20 -41.00003
v -44.00014 -17 -44.00003
v -44.00011 -17 -41.00003
v -44.00011 -20 -41.00003
v -41.00011 -20 -41.00006
v -44.00011 -17 -41.00003
v -41.00011 -17 -41.00006
v -41.00011 -20 -41.00006
v -41.00014 -20 -44.00006
v -41.00011 -17 -41.00006
v -41.00014 -17 -44.00006
v -41.00014 -20 -44.00006
v -44.00014 -20 -44.00003
v -41.00014 -17 -44.00006
v -44.00014 -17 -44.00003
v -41.00014 -20 -44.00006
v -41.00011 -20 -41.00006
v -44.00014 -20 -44.00003
v -44.00011 -20 -41.00003
v -44.00014 -17 -44.00003
v -44.00011 -17 -41.00003
v -41.00014 -17 -44.00006
v -41.00011 -17 -41.00006
f 2148 2149 2150
f 2149 2151 2150
f 2152 2153 2154
f 2153 2155 2154
f 2156 2157 2158
f 2157 2159 2158
f 2160 2161 2162
f 2161 2163 2162
f 2164 2165 2166
f 2165 2167 2166
f 2168 2169 2170
f 2169 2171 2170
v -18.00014 -10 -34.00003
v -18.00011 -10 -31.00003
v -18.00014 -8 -34.00003
v -18.00011 -8 -31.00003
v -18.00011 -10 -31.00003
v -15.00011 -10 -31.00006
v -18.00011 -8 -31.00003
v -15.00011 -8 -31.00006
v -15.00011 -10 -31.00006
v -15.00014 -10 -34.00006
v -15.00011 -8 -31.00006
v -15.00014 -8 -34.00006
v -15.00014 -10 -34.00006
v -18.00014 -10 -34.00003
v -15.00014 -8 -34.00006
v -18.00014 -8 -34.00003
v -15.00014 -10 -34.00006
v -15.00011 -10 -31.00006
v -18.00014 -10 -34.00003
v -18.00011 -10 -31.00003
v -18.00014 -8 -34.00003
v -18.00011 -8 -31.00003
v -15.00014 -8 -34.00006
v -15.00011 -8 -31.00006
f 2172 2173 2174
f 2173 2175 2174
f 2176 2177 2178
f 2177 2179 2178
f 2180 2181 2182
f 2181 2183 2182
f 2184 2185 2186
f 2185 2187 2186
f 2188 2189 2190
f 2189 2191 2190
f 2192 2193 2194
f 2193 2195 2194
v -33.00014 -10 -34.00003
v -33.00011 -10 -31.00003
v -33.00014 -8 -34.00003
v -33.00011 -8 -31.00003
v -33.00011 -10 -31.00003
v -30.00011 -10 -31.00006
v -33.00011 -8 -31.00003
v -30.00011 -8 -31.00006
v -30.00011 -10 -31.00006
v -30.00014 -10 -34.00006
v -30.00011 -8 -31.00006
v -30.00014 -8 -34.00006
v -30.00014 -10 -34.00006
v -33.00014 -10 -34.00003
v -30.00014 -8 -34.00006
v -33.00014 -8 -34.00003
v -30.00014 -10 -34.00006
v -30.00011 -10 -31.00006
v -33.00014 -10 -34.00003
v -33.00011 -10 -31.00003
v -33.00014 -8 -34.00003
v -33.00011 -8 -31.00003
v -30.00014 -8 -34.00006
v -30.00011 -8 -31.00006
f 2196 2197 2198
f 2197 2199 2198
f 2200 2201 2202
f 2201 2203 2202
f 2204 2205 2206
f 2205 2207 2206
f 2208 2209 2210
f 2209 2211 2210
f 2212 2213 2214
f 2213 2215 2214
f 2216 2217 2218
f 2217 2219 2218
v 23 -20 -15
v 23 -20 -9
v 23 -17 -15
v 23 -17 -9
v 23 -20 -3
v 29 -20 -3
v 23 -20 -3
v 29 -20 -3
v 29 -20 -3
v 23 -20 -3
v 29 -20 -9
v 29 -20 -15
v 29 -17 -9
v 29 -17 -15
v 29 -20 -15
v 23 -20 -15
v 29 -17 -15
v 23 -17 -15
v 29 -20 -15
v 29 -20 -9
v 23 -20 -15
v 23 -20 -9
v 23 -20 -3
v 29 -20 -3
v 23 -20 -9
v 23 -20 -3
v 23 -20 -9
v 23 -20 -3
v 23 -20 -3
v 29 -17 -9
v 29 -20 -3
v 29 -17 -9
v 29 -20 -3
v 29 -20 -3
v 23 -17 -15
v 23 -17 -9
v 29 -17 -15
v 29 -17 -9
v 29 -17 -9
v 23 -17 -9
v 29 -20 -3
v 23 -20 -3
f 2220 2221 2222
f 2221 2223 2222
f 2224 2225 2226
f 2227 2228 2229
f 2230 2231 2232
f 2231 2233 2232
f 2234 2235 2236
f 2235 2237 2236
f 2238 2239 2240
f 2239 2241 2240
f 2241 2239 2242
f 2239 2243 2242
f 2223 2244 2245
f 2246 2247 2248
f 2230 2249 2250
f 2251 2252 2253
f 2254 2255 2256
f 2255 2257 2256
f 2258 2259 2260
f 2259 2261 2260
v -18 -22 -54
v -18 -22 -50.00003
v -18 -20 -54
v -18 -20 -50.00003
v -3.999999 -22 -50.00006
v -4.000001 -22 -54
v -3.999999 -17 -50.00006
v -4.000001 -17 -54
v -18 -22 -50.00003
v -14 -22 -50.00004
v -14 -17 -50.00004
v -18 -20 -50.00003
v -14 -17 -54
v -18 -22 -54
v -18 -20 -54
v -14 -22 -54
v -18 -22 -50.00003
v -18 -22 -54
v -14 -22 -54
v -14 -22 -50.00004
v -4 -17 -42
v -4 -22 -42
v -4 -17 -41
v -4 -22 -41
v -14 -22 -50.00004
v -14 -22 -42
v -14 -17 -50.00004
v -14 -17 -42
v -14 -22 -41
v -14 -17 -41
v -14 -22 -41
v -5.000002 -22 -41
v -5 -17 -41
v -14 -17 -41
v -4 -22 -41
v -4 -17 -41
v -5 -17 -54
v -5 -22 -54.00001
v -4.000001 -17 -54
v -4.000001 -22 -54
v -3.999999 -16 -50.00006
v -4.000001 -16 -54
v -5 -16 -54
v -5 -16 -50.00005
v -5 -22 -50.00006
v -5 -22 -54.00001
v -3.999999 -22 -50.00006
v -4.000001 -22 -54
v -14 -22 -42
v -5 -22 -42
v -4 -22 -42
v -14 -22 -41
v -5.000002 -22 -41
v -4 -22 -41
v -4 -16 -42
v -5 -16 -42
v -4 -16 -41
v -5 -16 -41
v -14 -16 -42
v -14 -16 -41
v -5 -16 -41
v -4 -16 -41
v -5 -17 -42
v -14 -17 -42
v -5 -16 -42
v -14 -16 -42
v -14 -16 -42
v -14 -16 -41
v -14 -16 -41
v -4 -16 -41
v -4 -16 -42
v -3.999999 -16 -50.00006
v -4.000001 -16 -54
v -5 -17 -50.00005
v -5 -17 -42
v -5 -16 -50.00005
v -5 -16 -42
v -4.000001 -17 -54
v -5 -17 -54
v -4.000001 -16 -54
v -5 -16 -54
v -5 -17 -54
v -5 -16 -54
v -14 -17 -54
v -18 -20 -50.00003
v -14 -17 -50.00004
v -18 -20 -54
v -5 -17 -50.00005
v -5 -17 -54
v -14 -17 -54
v -14 -17 -50.00004
v -5 -17 -42
v -5 -17 -50.00005
v -14 -17 -50.00004
v -14 -17 -42
f 2262 2263 2264
f 2263 2265 2264
f 2266 2267 2268
f 2267 2269 2268
f 2270 2271 2272
f 2273 2270 2272
f 2274 2275 2276
f 2274 2277 2275
f 2278 2279 2280
f 2281 2278 2280
f 2282 2266 2268
f 2282 2283 2266
f 2282 2284 2285
f 2282 2285 2283
f 2286 2287 2288
f 2287 2289 2288
f 2287 2290 2289
f 2290 2291 2289
f 2292 2293 2294
f 2295 2292 2294
f 2293 2296 2297
f 2294 2293 2297
f 2298 2277 2274
f 2298 2299 2277
f 2300 2299 2298
f 2300 2301 2299
f 2302 2303 2304
f 2302 2304 2305
f 2281 2280 2306
f 2280 2307 2306
f 2306 2307 2308
f 2307 2309 2308
f 2310 2281 2311
f 2281 2306 2311
f 2311 2306 2312
f 2306 2308 2312
f 2313 2310 2314
f 2310 2311 2314
f 2314 2311 2315
f 2311 2312 2315
f 2316 2302 2305
f 2316 2305 2317
f 2318 2316 2317
f 2318 2317 2319
f 2319 2317 2320
f 2319 2320 2321
f 2294 2297 2322
f 2297 2323 2322
f 2324 2325 2326
f 2325 2327 2326
f 2289 2291 2328
f 2291 2329 2328
f 2295 2294 2330
f 2294 2322 2330
f 2284 2282 2331
f 2282 2332 2331
f 2268 2269 2333
f 2269 2334 2333
f 2282 2268 2332
f 2268 2333 2332
f 2335 2336 2337
f 2336 2338 2337
f 2339 2340 2341
f 2340 2342 2341
f 2343 2335 2344
f 2335 2337 2344
f 2345 2346 2347
f 2345 2348 2346
f 2349 2350 2351
f 2349 2351 2352
f 2353 2354 2355
f 2353 2355 2356
v -50 59 54
v 61 59 54
v 61 -20 54
v -50 -20 54
v 61 59 54
v 61 59 -54
v 61 -20 -54
v 61 -20 54
v 61 59 -54
v -50 59 -54
v -50 -20 -54
v 61 -20 -54
v -50 59 -54
v -50 59 54
v -50 -20 54
v -50 -20 -54
v -50 59 -54
v 61 59 -54
v 61 59 54
v -50 59 54
v -50 -20 54
v 61 -20 54
v 61 -20 -54
v -50 -20 -54
f 2357 2358 2359
f 2357 2359 2360
f 2361 2362 2363
f 2361 2363 2364
f 2365 2366 2367
f 2365 2367 2368
f 2369 2370 2371
f 2369 2371 2372
f 2373 2374 2375
f 2373 2375 2376
f 2377 2378 2379
f 2377 2379 2380
v -34.00015 -20 -38.00002
v -34.00008 -20 -30.00002
v -34.00015 -10 -38.00002
v -34.00008 -10 -30.00002
v -34.00008 -20 -30.00002
v -14.00008 -20 -30.00021
v -34.00008 -10 -30.00002
v -14.00008 -10 -30.00021
v -14.00008 -20 -30.00021
v -14.00015 -20 -38.00021
v -14.00008 -10 -30.00021
v -14.00015 -10 -38.00021
v -21 -20 -48
v -27 -20 -48
v -21 -14 -48
v -27 -14 -48
v -14.00015 -20 -38.00021
v -14.00008 -20 -30.00021
v -34.00015 -20 -38.00002
v -34.00008 -20 -30.00002
v -14.00027 -20 -50.00021
v -34.00027 -20 -50.00002
v -14.00027 -10 -50.00021
v -14.00027 -20 -50.00021
v -34.00027 -20 -50.00002
v -34.00027 -10 -50.00002
v -34.00015 10 -38.00002
v -14.00015 10 -38.00021
v -34.00015 10.5 -38.00002
v -14.00015 10.5 -38.00021
v -33.00016 9.5 -39.00003
v -33.00026 9.5 -49.00003
v -33.00016 10.5 -39.00003
v -33.00026 10.5 -49.00003
v -15.00016 9.5 -39.0002
v -33.00016 9.5 -39.00003
v -15.00016 10.5 -39.0002
v -33.00016 10.5 -39.00003
v -14.00015 10 -38.00021
v -14.00027 10 -50.00021
v -14.00015 10.5 -38.00021
v -14.00027 10.5 -50.00021
v -15.00026 9.5 -49.0002
v -15.00016 9.5 -39.0002
v -15.00026 10.5 -49.0002
v -15.00016 10.5 -39.0002
v -14.00027 10 -50.00021
v -34.00027 10 -50.00002
v -14.00027 10.5 -50.00021
v -34.00027 10.5 -50.00002
v -33.00026 9.5 -49.00003
v -15.00026 9.5 -49.0002
v -33.00026 10.5 -49.00003
v -15.00026 10.5 -49.0002
v -34.00027 10 -50.00002
v -34.00015 10 -38.00002
v -34.00027 10.5 -50.00002
v -34.00015 10.5 -38.00002
v -14.00027 -20 -50.00021
v -34.00027 -20 -50.00002
v -21 -20 -50
v -27 -20 -50
v -14.00027 -10 -50.00021
v -14.00027 -20 -50.00021
v -21 -14 -50
v -21 -20 -50
v -34.00027 -20 -50.00002
v -34.00027 -10 -50.00002
v -27 -20 -50
v -27 -14 -50
v -34.00027 -10 -50.00002
v -14.00027 -10 -50.00021
v -27 -14 -50
v -21 -14 -50
v -21 -14 -50
v -21 -20 -50
v -21 -14 -48
v -21 -20 -48
v -27 -20 -50
v -27 -14 -50
v -27 -20 -48
v -27 -14 -48
v -27 -14 -50
v -21 -14 -50
v -27 -14 -48
v -21 -14 -48
v -34.00015 -10 -38.00002
v -14.00015 -10 -38.00021
v -14.00016 0 -38.00021
v -34.00015 0 -38.00002
v -34.00015 0 -38.00002
v -34.00027 0 -50.00002
v -14.00016 0 -38.00021
v -14.00027 0 -50.00021
v -14.00027 0 -50.00021
v -34.00027 -10 -50.00002
v -34.00027 0 -50.00002
v -14.00027 -10 -50.00021
v -30.00001 -1 -34
v -18.00001 -1 -34
v -30.00001 1 -34
v -18 1 -34
v -14.00016 1 -38.00021
v -34.00015 1 -38.00002
v -34.00015 1 -38.00002
v -34.00027 1 -50.00002
v -14.00016 1 -38.00021
v -14.00027 1 -50.00021
v -14.00027 1 -50.00021
v -34.00027 1 -50.00002
v -34.00027 10 -50.00002
v -14.00027 10 -50.00021
v -34.00015 0 -38.00002
v -14.00016 0 -38.00021
v -30 -1 -38
v -18 -1 -38
v -34.00015 1 -38.00002
v -34.00015 0 -38.00002
v -30 1 -38
v -30 -1 -38
v -14.00016 0 -38.00021
v -14.00016 1 -38.00021
v -18 -1 -38
v -18 1 -38
v -14.00016 1 -38.00021
v -34.00015 1 -38.00002
v -18 1 -38
v -30 1 -38
v -30 -1 -38
v -18 -1 -38
v -30.00001 -1 -34
v -18.00001 -1 -34
v -30 1 -38
v -30 -1 -38
v -30.00001 1 -34
v -30.00001 -1 -34
v -18 -1 -38
v -18 1 -38
v -18.00001 -1 -34
v -18 1 -34
v -34.00015 -10 -38.00002
v -34.00008 -10 -30.00002
v -14.00015 -10 -38.00021
v -14.00008 -10 -30.00021
v -33.00016 9.5 -39.00003
v -15.00016 9.5 -39.0002
v -33.00026 9.5 -49.00003
v -15.00026 9.5 -49.0002
v -18 1 -38
v -30 1 -38
v -18 1 -34
v -30.00001 1 -34
v -34.00015 10.5 -38.00002
v -14.00015 10.5 -38.00021
v -33.00016 10.5 -39.00003
v -15.00016 10.5 -39.0002
v -34.00027 10.5 -50.00002
v -33.00026 10.5 -49.00003
v -14.00027 10.5 -50.00021
v -15.00026 10.5 -49.0002
f 2381 2382 2383
f 2382 2384 2383
f 2385 2386 2387
f 2386 2388 2387
f 2389 2390 2391
f 2390 2392 2391
f 2393 2394 2395
f 2394 2396 2395
f 2397 2398 2399
f 2398 2400 2399
f 2397 2399 2401
f 2399 2402 2401
f 2392 2390 2403
f 2390 2404 2403
f 2381 2383 2405
f 2383 2406 2405
f 2407 2408 2409
f 2408 2410 2409
f 2411 2412 2413
f 2412 2414 2413
f 2415 2416 2417
f 2416 2418 2417
f 2419 2420 2421
f 2420 2422 2421
f 2423 2424 2425
f 2424 2426 2425
f 2427 2428 2429
f 2428 2430 2429
f 2431 2432 2433
f 2432 2434 2433
f 2435 2436 2437
f 2436 2438 2437
f 2439 2440 2441
f 2440 2442 2441
f 2443 2444 2445
f 2444 2446 2445
f 2447 2448 2449
f 2448 2450 2449
f 2451 2452 2453
f 2452 2454 2453
f 2455 2456 2457
f 2456 2458 2457
f 2459 2460 2461
f 2460 2462 2461
f 2463 2464 2465
f 2464 2466 2465
f 2467 2468 2469
f 2470 2467 2469
f 2406 2383 2471
f 2472 2406 2471
f 2473 2403 2474
f 2473 2392 2403
f 2475 2476 2477
f 2475 2478 2476
f 2479 2480 2481
f 2481 2480 2482
f 2483 2407 2484
f 2483 2408 2407
f 2472 2471 2485
f 2486 2472 2485
f 2486 2485 2436
f 2435 2486 2436
f 2487 2473 2488
f 2488 2473 2474
f 2419 2488 2420
f 2419 2487 2488
f 2489 2475 2490
f 2490 2475 2477
f 2491 2492 2489
f 2490 2491 2489
f 2493 2494 2495
f 2494 2496 2495
f 2497 2498 2499
f 2498 2500 2499
f 2501 2502 2503
f 2502 2504 2503
f 2505 2506 2507
f 2506 2508 2507
f 2509 2510 2511
f 2510 2512 2511
f 2513 2514 2515
f 2514 2516 2515
f 2517 2518 2519
f 2518 2520 2519
f 2521 2522 2523
f 2522 2524 2523
f 2525 2526 2527
f 2526 2528 2527
f 2529 2530 2531
f 2530 2532 2531
f 2533 2534 2535
f 2534 2536 2535
f 2537 2533 2538
f 2533 2535 2538
f 2534 2539 2536
f 2539 2540 2536
f 2539 2537 2540
f 2537 2538 2540
v -36 2 12
v -40 2 12
v -36 6 12
v -40 6 12
v -36 6 8
v -40 6 8
v -36 2 8
v -40 2 8
v -36 6 12
v -40 6 12
v -36 6 8
v -40 6 8
v -36 2 8
v -36 2 12
v -40 2 12
v -40 2 8
v -40 2 12
v -40 6 12
v -40 6 8
v -40 2 8
v -36 2 8
v -36 6 8
v -36 6 12
v -36 2 12
f 2541 2543 2544
f 2541 2544 2542
f 2549 2545 2546
f 2549 2546 2550
f 2551 2547 2548
f 2551 2548 2552
f 2553 2554 2555
f 2553 2555 2556
f 2557 2558 2559
f 2557 2559 2560
f 2561 2562 2563
f 2561 2563 2564
v 34.8807 -14 -1.13271
v 32.63271 -14 -3.119304
v 34.8807 -11 -1.13271
v 32.63271 -11 -3.119304
v 36.86729 -11 -3.380696
v 34.6193 -11 -5.36729
v 36.86729 -14 -3.380696
v 34.6193 -14 -5.36729
v 34.8807 -11 -1.13271
v 32.63271 -11 -3.119304
v 36.86729 -11 -3.380696
v 34.6193 -11 -5.36729
v 36.86729 -14 -3.380696
v 34.8807 -14 -1.13271
v 32.63271 -14 -3.119304
v 34.6193 -14 -5.36729
v 32.63271 -14 -3.119304
v 32.63271 -11 -3.119304
v 34.6193 -11 -5.36729
v 34.6193 -14 -5.36729
v 36.86729 -14 -3.380696
v 36.86729 -11 -3.380696
v 34.8807 -11 -1.13271
v 34.8807 -14 -1.13271
f 2565 2567 2568
f 2565 2568 2566
f 2573 2569 2570
f 2573 2570 2574
f 2575 2571 2572
f 2575 2572 2576
f 2577 2578 2579
f 2577 2579 2580
f 2581 2582 2583
f 2581 2583 2584
f 2585 2586 2587
f 2585 2587 2588
v -1.510704 8 -28.22523
v -5.149772 8 -29.8857
v -1.510704 12 -28.22523
v -5.149772 12 -29.8857
v 0.1497721 12 -31.8643
v -3.489296 12 -33.52477
v 0.1497721 8 -31.8643
v -3.489296 8 -33.52477
v -1.510704 12 -28.22523
v -5.149772 12 -29.8857
v 0.1497721 12 -31.8643
v -3.489296 12 -33.52477
v 0.1497721 8 -31.8643
v -1.510704 8 -28.22523
v -5.149772 8 -29.8857
v -3.489296 8 -33.52477
v -5.149772 8 -29.8857
v -5.149772 12 -29.8857
v -3.489296 12 -33.52477
v -3.489296 8 -33.52477
v 0.1497721 8 -31.8643
v 0.1497721 12 -31.8643
v -1.510704 12 -28.22523
v -1.510704 8 -28.22523
f 2589 2591 2592
f 2589 2592 2590
f 2597 2593 2594
f 2597 2594 2598
f 2599 2595 2596
f 2599 2596 2600
f 2601 2602 2603
f 2601 2603 2604
f 2605 2606 2607
f 2605 2607 2608
f 2609 2610 2611
f 2609 2611 2612
v -0.9232175 10 33.34661
v -3.846608 10 36.07678
v -0.9232175 13 33.34661
v -3.846608 13 36.07678
v -3.653391 13 30.42321
v -6.576782 13 33.15339
v -3.653391 10 30.42321
v -6.576782 10 33.15339
v -0.9232175 13 33.34661
v -3.846608 13 36.07678
v -3.653391 13 30.42321
v -6.576782 13 33.15339
v -3.653391 10 30.42321
v -0.9232175 10 33.34661
v -3.846608 10 36.07678
v -6.576782 10 33.15339
v -3.846608 10 36.07678
v -3.846608 13 36.07678
v -6.576782 13 33.15339
v -6.576782 10 33.15339
v -3.653391 10 30.42321
v -3.653391 13 30.42321
v -0.9232175 13 33.34661
v -0.9232175 10 33.34661
f 2613 2615 2616
f 2613 2616 2614
f 2621 2617 2618
f 2621 2618 2622
f 2623 2619 2620
f 2623 2620 2624
f 2625 2626 2627
f 2625 2627 2628
f 2629 2630 2631
f 2629 2631 2632
f 2633 2634 2635
f 2633 2635 2636
v 2 -10 -2
v -2 -10 -2
v 2 -7 -2
v -2 -7 -2
v 2 -7 -4
v -2 -7 -4
v 2 -10 -4
v -2 -10 -4
v 2 -7 -2
v -2 -7 -2
v 2 -7 -4
v -2 -7 -4
v 2 -10 -4
v 2 -10 -2
v -2 -10 -2
v -2 -10 -4
v -2 -10 -2
v -2 -7 -2
v -2 -7 -4
v -2 -10 -4
v 2 -10 -4
v 2 -7 -4
v 2 -7 -2
v 2 -10 -2
f 2637 2639 2640
f 2637 2640 2638
f 2645 2641 2642
f 2645 2642 2646
f 2647 2643 2644
f 2647 2644 2648
f 2649 2650 2651
f 2649 2651 2652
f 2653 2654 2655
f 2653 2655 2656
f 2657 2658 2659
f 2657 2659 2660
v -38.10014 -5.79569 49.66873
v -33.66876 -5.79569 49.67276
v -38.10054 -5.79569 50.11224
v -33.66916 -5.795689 50.11627
v -38.10054 -8.404311 50.11224
v -33.66916 -8.40431 50.11627
v -38.10014 -8.404311 49.66873
v -33.66876 -8.40431 49.67276
v -38.10054 -5.79569 50.11224
v -33.66916 -5.795689 50.11627
v -38.10054 -8.404311 50.11224
v -33.66916 -8.40431 50.11627
v -38.10014 -8.404311 49.66873
v -38.10014 -5.79569 49.66873
v -33.66876 -5.79569 49.67276
v -33.66876 -8.40431 49.67276
v -33.66876 -5.79569 49.67276
v -33.66916 -5.795689 50.11627
v -33.66916 -8.40431 50.11627
v -33.66876 -8.40431 49.67276
v -38.10014 -8.404311 49.66873
v -38.10054 -8.404311 50.11224
v -38.10054 -5.79569 50.11224
v -38.10014 -5.79569 49.66873
f 2661 2663 2664
f 2661 2664 2662
f 2669 2665 2666
f 2669 2666 2670
f 2671 2667 2668
f 2671 2668 2672
f 2673 2674 2675
f 2673 2675 2676
f 2677 2678 2679
f 2677 2679 2680
f 2681 2682 2683
f 2681 2683 2684
v 47.36716 -2.0078 -49.25
v 44.3672 -1.99216 -49.25
v 47.3828 0.9921595 -49.25
v 44.38284 1.0078 -49.25
v 47.3828 0.9921595 -52.25
v 44.38284 1.0078 -52.25
v 47.36716 -2.0078 -52.25
v 44.3672 -1.99216 -52.25
v 47.3828 0.9921595 -49.25
v 44.38284 1.0078 -49.25
v 47.3828 0.9921595 -52.25
v 44.38284 1.0078 -52.25
v 47.36716 -2.0078 -52.25
v 47.36716 -2.0078 -49.25
v 44.3672 -1.99216 -49.25
v 44.3672 -1.99216 -52.25
v 44.3672 -1.99216 -49.25
v 44.38284 1.0078 -49.25
v 44.38284 1.0078 -52.25
v 44.3672 -1.99216 -52.25
v 47.36716 -2.0078 -52.25
v 47.3828 0.9921595 -52.25
v 47.3828 0.9921595 -49.25
v 47.36716 -2.0078 -49.25
f 2685 2687 2688
f 2685 2688 2686
f 2693 2689 2690
f 2693 2690 2694
f 2695 2691 2692
f 2695 2692 2696
f 2697 2698 2699
f 2697 2699 2700
f 2701 2702 2703
f 2701 2703 2704
f 2705 2706 2707
f 2705 2707 2708
v 41 -4 38
v 37 -4 38
v 41 -1 38
v 37 -1 38
v 41 -1 36
v 37 -1 36
v 41 -4 36
v 37 -4 36
v 41 -1 38
v 37 -1 38
v 41 -1 36
v 37 -1 36
v 41 -4 36
v 41 -4 38
v 37 -4 38
v 37 -4 36
v 37 -4 38
v 37 -1 38
v 37 -1 36
v 37 -4 36
v 41 -4 36
v 41 -1 36
v 41 -1 38
v 41 -4 38
f 2709 2711 2712
f 2709 2712 2710
f 2717 2713 2714
f 2717 2714 2718
f 2719 2715 2716
f 2719 2716 2720
f 2721 2722 2723
f 2721 2723 2724
f 2725 2726 2727
f 2725 2727 2728
f 2729 2730 2731
f 2729 2731 2732
v 53.98955 -2.0104 -48
v 49.9896 -1.989546 -48
v 54.0104 1.989546 -48
v 50.01045 2.0104 -48
v 54.0104 1.989546 -52
v 50.01045 2.0104 -52
v 53.98955 -2.0104 -52
v 49.9896 -1.989546 -52
v 54.0104 1.989546 -48
v 50.01045 2.0104 -48
v 54.0104 1.989546 -52
v 50.01045 2.0104 -52
v 53.98955 -2.0104 -52
v 53.98955 -2.0104 -48
v 49.9896 -1.989546 -48
v 49.9896 -1.989546 -52
v 49.9896 -1.989546 -48
v 50.01045 2.0104 -48
v 50.01045 2.0104 -52
v 49.9896 -1.989546 -52
v 53.98955 -2.0104 -52
v 54.0104 1.989546 -52
v 54.0104 1.989546 -48
v 53.98955 -2.0104 -48
f 2733 2735 2736
f 2733 2736 2734
f 2741 2737 2738
f 2741 2738 2742
f 2743 2739 2740
f 2743 2740 2744
f 2745 2746 2747
f 2745 2747 2748
f 2749 2750 2751
f 2749 2751 2752
f 2753 2754 2755
f 2753 2755 2756
v 53.82494 12 40.14053
v 50.85947 12 42.82494
v 53.82494 16 40.14053
v 50.85947 16 42.82494
v 51.14053 16 37.17506
v 48.17506 16 39.85947
v 51.14053 12 37.17506
v 48.17506 12 39.85947
v 53.82494 16 40.14053
v 50.85947 16 42.82494
v 51.14053 16 37.17506
v 48.17506 16 39.85947
v 51.14053 12 37.17506
v 53.82494 12 40.14053
v 50.85947 12 42.82494
v 48.17506 12 39.85947
v 50.85947 12 42.82494
v 50.85947 16 42.82494
v 48.17506 16 39.85947
v 48.17506 12 39.85947
v 51.14053 12 37.17506
v 51.14053 16 37.17506
v 53.82494 16 40.14053
v 53.82494 12 40.14053
f 2757 2759 2760
f 2757 2760 2758
f 2765 2761 2762
f 2765 2762 2766
f 2767 2763 2764
f 2767 2764 2768
f 2769 2770 2771
f 2769 2771 2772
f 2773 2774 2775
f 2773 2775 2776
f 2777 2778 2779
f 2777 2779 2780
v -28 12 22
v -32 12 22
v -28 15 22
v -32 15 22
v -28 15 20
v -32 15 20
v -28 12 20
v -32 12 20
v -28 15 22
v -32 15 22
v -28 15 20
v -32 15 20
v -28 12 20
v -28 12 22
v -32 12 22
v -32 12 20
v -32 12 22
v -32 15 22
v -32 15 20
v -32 12 20
v -28 12 20
v -28 15 20
v -28 15 22
v -28 12 22
f 2781 2783 2784
f 2781 2784 2782
f 2789 2785 2786
f 2789 2786 2790
f 2791 2787 2788
f 2791 2788 2792
f 2793 2794 2795
f 2793 2795 2796
f 2797 2798 2799
f 2797 2799 2800
f 2801 2802 2803
f 2801 2803 2804
v 8 -4 6
v 4 -4 6
v 8 0 6
v 4 0 6
v 8 0 -2
v 4 0 -2
v 8 -4 -2
v 4 -4 -2
v 8 0 6
v 4 0 6
v 8 0 -2
v 4 0 -2
v 8 -4 -2
v 8 -4 6
v 4 -4 6
v 4 -4 -2
v 4 -4 6
v 4 0 6
v 4 0 -2
v 4 -4 -2
v 8 -4 -2
v 8 0 -2
v 8 0 6
v 8 -4 6
f 2805 2807 2808
f 2805 2808 2806
f 2813 2809 2810
f 2813 2810 2814
f 2815 2811 2812
f 2815 2812 2816
f 2817 2818 2819
f 2817 2819 2820
f 2821 2822 2823
f 2821 2823 2824
f 2825 2826 2827
f 2825 2827 2828
v 0 -4 12
v -4 -4 12
v 0 0 12
v -4 0 12
v 0 0 4
v -4 0 4
v 0 -4 4
v -4 -4 4
v 0 0 12
v -4 0 12
v 0 0 4
v -4 0 4
v 0 -4 4
v 0 -4 12
v -4 -4 12
v -4 -4 4
v -4 -4 12
v -4 0 12
v -4 0 4
v -4 -4 4
v 0 -4 4
v 0 0 4
v 0 0 12
v 0 -4 12
f 2829 2831 2832
f 2829 2832 2830
f 2837 2833 2834
f 2837 2834 2838
f 2839 2835 2836
f 2839 2836 2840
f 2841 2842 2843
f 2841 2843 2844
f 2845 2846 2847
f 2845 2847 2848
f 2849 2850 2851
f 2849 2851 2852
v 0.2017772 10 43.59661
v -2.721609 10 46.32678
v 0.2017772 14 43.59661
v -2.721609 14 46.32678
v -2.528391 14 40.67322
v -5.451777 14 43.40339
v -2.528391 10 40.67322
v -5.451777 10 43.40339
v 0.2017772 14 43.59661
v -2.721609 14 46.32678
v -2.528391 14 40.67322
v -5.451777 14 43.40339
v -2.528391 10 40.67322
v 0.2017772 10 43.59661
v -2.721609 10 46.32678
v -5.451777 10 43.40339
v -2.721609 10 46.32678
v -2.721609 14 46.32678
v -5.451777 14 43.40339
v -5.451777 10 43.40339
v -2.528391 10 40.67322
v -2.528391 14 40.67322
v 0.2017772 14 43.59661
v 0.2017772 10 43.59661
f 2853 2855 2856
f 2853 2856 2854
f 2861 2857 2858
f 2861 2858 2862
f 2863 2859 2860
f 2863 2860 2864
f 2865 2866 2867
f 2865 2867 2868
f 2869 2870 2871
f 2869 2871 2872
f 2873 2874 2875
f 2873 2875 2876
v 58.44839 32.33992 21.62362
v 58.47098 32.33992 -5.691927
v 61.18224 32.33992 21.62588
v 61.20484 32.33992 -5.689666
v 61.18224 16.26008 21.62588
v 61.20483 16.26008 -5.689666
v 58.44838 16.26008 21.62362
v 58.47097 16.26008 -5.691927
v 61.18224 32.33992 21.62588
v 61.20484 32.33992 -5.689666
v 61.18224 16.26008 21.62588
v 61.20483 16.26008 -5.689666
v 58.44838 16.26008 21.62362
v 58.44839 32.33992 21.62362
v 58.47098 32.33992 -5.691927
v 58.47097 16.26008 -5.691927
v 58.47098 32.33992 -5.691927
v 61.20484 32.33992 -5.689666
v 61.20483 16.26008 -5.689666
v 58.47097 16.26008 -5.691927
v 58.44838 16.26008 21.62362
v 61.18224 16.26008 21.62588
v 61.18224 32.33992 21.62588
v 58.44839 32.33992 21.62362
f 2877 2879 2880
f 2877 2880 2878
f 2885 2881 2882
f 2885 2882 2886
f 2887 2883 2884
f 2887 2884 2888
f 2889 2890 2891
f 2889 2891 2892
f 2893 2894 2895
f 2893 2895 2896
f 2897 2898 2899
f 2897 2899 2900
v 19 4 44
v 17 4 44
v 19 7 44
v 17 7 44
v 19 7 42
v 17 7 42
v 19 4 42
v 17 4 42
v 19 7 44
v 17 7 44
v 19 7 42
v 17 7 42
v 19 4 42
v 19 4 44
v 17 4 44
v 17 4 42
v 17 4 44
v 17 7 44
v 17 7 42
v 17 4 42
v 19 4 42
v 19 7 42
v 19 7 44
v 19 4 44
f 2901 2903 2904
f 2901 2904 2902
f 2909 2905 2906
f 2909 2906 2910
f 2911 2907 2908
f 2911 2908 2912
f 2913 2914 2915
f 2913 2915 2916
f 2917 2918 2919
f 2917 2919 2920
f 2921 2922 2923
f 2921 2923 2924
v 17 4 44
v 15 4 44
v 17 10 44
v 15 10 44
v 17 10 42
v 15 10 42
v 17 4 42
v 15 4 42
v 17 10 44
v 15 10 44
v 17 10 42
v 15 10 42
v 17 4 42
v 17 4 44
v 15 4 44
v 15 4 42
v 15 4 44
v 15 10 44
v 15 10 42
v 15 4 42
v 17 4 42
v 17 10 42
v 17 10 44
v 17 4 44
f 2925 2927 2928
f 2925 2928 2926
f 2933 2929 2930
f 2933 2930 2934
f 2935 2931 2932
f 2935 2932 2936
f 2937 2938 2939
f 2937 2939 2940
f 2941 2942 2943
f 2941 2943 2944
f 2945 2946 2947
f 2945 2947 2948
v 35 -4 44
v 31 -4 44
v 35 0 44
v 31 0 44
v 35 0 40
v 31 0 40
v 35 -4 40
v 31 -4 40
v 35 0 44
v 31 0 44
v 35 0 40
v 31 0 40
v 35 -4 40
v 35 -4 44
v 31 -4 44
v 31 -4 40
v 31 -4 44
v 31 0 44
v 31 0 40
v 31 -4 40
v 35 -4 40
v 35 0 40
v 35 0 44
v 35 -4 44
f 2949 2951 2952
f 2949 2952 2950
f 2957 2953 2954
f 2957 2954 2958
f 2959 2955 2956
f 2959 2956 2960
f 2961 2962 2963
f 2961 2963 2964
f 2965 2966 2967
f 2965 2967 2968
f 2969 2970 2971
f 2969 2971 2972
v 52.99216 -2.0078 -42
v 49.9922 -1.99216 -42
v 53.0078 0.9921595 -42
v 50.00784 1.0078 -42
v 53.0078 0.9921595 -45
v 50.00784 1.0078 -45
v 52.99216 -2.0078 -45
v 49.9922 -1.99216 -45
v 53.0078 0.9921595 -42
v 50.00784 1.0078 -42
v 53.0078 0.9921595 -45
v 50.00784 1.0078 -45
v 52.99216 -2.0078 -45
v 52.99216 -2.0078 -42
v 49.9922 -1.99216 -42
v 49.9922 -1.99216 -45
v 49.9922 -1.99216 -42
v 50.00784 1.0078 -42
v 50.00784 1.0078 -45
v 49.9922 -1.99216 -45
v 52.99216 -2.0078 -45
v 53.0078 0.9921595 -45
v 53.0078 0.9921595 -42
v 52.99216 -2.0078 -42
f 2973 2975 2976
f 2973 2976 2974
f 2981 2977 2978
f 2981 2978 2982
f 2983 2979 2980
f 2983 2980 2984
f 2985 2986 2987
f 2985 2987 2988
f 2989 2990 2991
f 2989 2991 2992
f 2993 2994 2995
f 2993 2995 2996
v -47.55836 32.33992 -5.623623
v -47.58099 32.33992 21.69193
v -50.29222 32.33992 -5.625887
v -50.31484 32.33992 21.68966
v -50.29223 16.26008 -5.625887
v -50.31485 16.26008 21.68966
v -47.55837 16.26008 -5.623623
v -47.581 16.26008 21.69193
v -50.29222 32.33992 -5.625887
v -50.31484 32.33992 21.68966
v -50.29223 16.26008 -5.625887
v -50.31485 16.26008 21.68966
v -47.55837 16.26008 -5.623623
v -47.55836 32.33992 -5.623623
v -47.58099 32.33992 21.69193
v -47.581 16.26008 21.69193
v -47.58099 32.33992 21.69193
v -50.31484 32.33992 21.68966
v -50.31485 16.26008 21.68966
v -47.581 16.26008 21.69193
v -47.55837 16.26008 -5.623623
v -50.29223 16.26008 -5.625887
v -50.29222 32.33992 -5.625887
v -47.55836 32.33992 -5.623623
f 2997 2999 3000
f 2997 3000 2998
f 3005 3001 3002
f 3005 3002 3006
f 3007 3003 3004
f 3007 3004 3008
f 3009 3010 3011
f 3009 3011 3012
f 3013 3014 3015
f 3013 3015 3016
f 3017 3018 3019
f 3017 3019 3020
v -2.528195 49.34373 -51.42149
v -2.52818 19.01158 -51.42149
v -2.525662 49.34373 -54.45726
v -2.525647 19.01157 -54.45726
v 15.32995 49.34373 -54.44236
v 15.32996 19.01158 -54.44235
v 15.32742 49.34373 -51.40659
v 15.32743 19.01158 -51.40658
v -2.525662 49.34373 -54.45726
v -2.525647 19.01157 -54.45726
v 15.32995 49.34373 -54.44236
v 15.32996 19.01158 -54.44235
v 15.32742 49.34373 -51.40659
v -2.528195 49.34373 -51.42149
v -2.52818 19.01158 -51.42149
v 15.32743 19.01158 -51.40658
v -2.52818 19.01158 -51.42149
v -2.525647 19.01157 -54.45726
v 15.32996 19.01158 -54.44235
v 15.32743 19.01158 -51.40658
v 15.32742 49.34373 -51.40659
v 15.32995 49.34373 -54.44236
v -2.525662 49.34373 -54.45726
v -2.528195 49.34373 -51.42149
f 3021 3023 3024
f 3021 3024 3022
f 3029 3025 3026
f 3029 3026 3030
f 3031 3027 3028
f 3031 3028 3032
f 3033 3034 3035
f 3033 3035 3036
f 3037 3038 3039
f 3037 3039 3040
f 3041 3042 3043
f 3041 3043 3044
v 13.88406 51.15844 51.74814
v 13.88404 21.99574 51.74814
v 13.88164 51.15844 54.66687
v 13.88163 21.99574 54.66687
v -3.285553 51.15845 54.65264
v -3.285567 21.99575 54.65264
v -3.283134 51.15845 51.73391
v -3.283147 21.99575 51.73391
v 13.88164 51.15844 54.66687
v 13.88163 21.99574 54.66687
v -3.285553 51.15845 54.65264
v -3.285567 21.99575 54.65264
v -3.283134 51.15845 51.73391
v 13.88406 51.15844 51.74814
v 13.88404 21.99574 51.74814
v -3.283147 21.99575 51.73391
v 13.88404 21.99574 51.74814
v 13.88163 21.99574 54.66687
v -3.285567 21.99575 54.65264
v -3.283147 21.99575 51.73391
v -3.283134 51.15845 51.73391
v -3.285553 51.15845 54.65264
v 13.88164 51.15844 54.66687
v 13.88406 51.15844 51.74814
f 3045 3047 3048
f 3045 3048 3046
f 3053 3049 3050
f 3053 3050 3054
f 3055 3051 3052
f 3055 3052 3056
f 3057 3058 3059
f 3057 3059 3060
f 3061 3062 3063
f 3061 3063 3064
f 3065 3066 3067
f 3065 3067 3068
v -42.62168 -19.17002 53.67276
v -42.62175 -19.17002 52.46728
v -42.21396 -19.17002 53.67274
v -42.21403 -19.17002 52.46725
v -42.21396 -20 53.67274
v -42.21403 -20 52.46725
v -42.62168 -20 53.67276
v -42.62175 -20 52.46728
v -42.21396 -19.17002 53.67274
v -42.21403 -19.17002 52.46725
v -42.21396 -20 53.67274
v -42.21403 -20 52.46725
v -42.62168 -20 53.67276
v -42.62168 -19.17002 53.67276
v -42.62175 -19.17002 52.46728
v -42.62175 -20 52.46728
v -42.62175 -19.17002 52.46728
v -42.21403 -19.17002 52.46725
v -42.21403 -20 52.46725
v -42.62175 -20 52.46728
v -42.62168 -20 53.67276
v -42.21396 -20 53.67274
v -42.21396 -19.17002 53.67274
v -42.62168 -19.17002 53.67276
f 3069 3071 3072
f 3069 3072 3070
f 3077 3073 3074
f 3077 3074 3078
f 3079 3075 3076
f 3079 3076 3080
f 3081 3082 3083
f 3081 3083 3084
f 3085 3086 3087
f 3085 3087 3088
f 3089 3090 3091
f 3089 3091 3092
v -37.17322 12 42.09661
v -40.09661 12 44.82678
v -37.17322 16 42.09661
v -40.09661 16 44.82678
v -39.90339 16 39.17322
v -42.82678 16 41.90339
v -39.90339 12 39.17322
v -42.82678 12 41.90339
v -37.17322 16 42.09661
v -40.09661 16 44.82678
v -39.90339 16 39.17322
v -42.82678 16 41.90339
v -39.90339 12 39.17322
v -37.17322 12 42.09661
v -40.09661 12 44.82678
v -42.82678 12 41.90339
v -40.09661 12 44.82678
v -40.09661 16 44.82678
v -42.82678 16 41.90339
v -42.82678 12 41.90339
v -39.90339 12 39.17322
v -39.90339 16 39.17322
v -37.17322 16 42.09661
v -37.17322 12 42.09661
f 3093 3095 3096
f 3093 3096 3094
f 3101 3097 3098
f 3101 3098 3102
f 3103 3099 3100
f 3103 3100 3104
f 3105 3106 3107
f 3105 3107 3108
f 3109 3110 3111
f 3109 3111 3112
f 3113 3114 3115
f 3113 3115 3116
