v -18 -27 9.999996
v -14 -27 9.999996
v -18 -27 5.99998
v -14 -27 5.99998
v -14 -27 9.999996
v -14 -30 10
v -14 -27 5.99998
v -14 -30 6.000001
v -14 -30 10
v -18 -30 10
v -14 -30 6.000001
v -18 -30 6.000001
v -18 -30 10
v -18 -27 9.999996
v -18 -30 6.000001
v -18 -27 5.99998
v -18 -27 5.99998
v -14 -27 5.99998
v -18 -30 6.000001
v -14 -30 6.000001
v -18 -30 10
v -14 -30 10
v -18 -27 9.999996
v -14 -27 9.999996
f 1 2 3
f 2 4 3
f 5 6 7
f 6 8 7
f 9 10 11
f 10 12 11
f 13 14 15
f 14 16 15
f 17 18 19
f 18 20 19
f 21 22 23
f 22 24 23
v 10 -32 10
v 14 -32 10
v 10 -30 10
v 14 -30 10
v 18 -32 6
v 18 -32 -10
v 18 -30 6
v 18 -30 -10
v 14 -32 -10
v 10 -32 -10
v 14 -27 -10
v 10 -27 -10
v 6 -32 -10
v 6 -32 6
v 6 -27 -10
v 6 -27 6
v 10 -27 6
v 14 -27 6
v 10 -27 -10
v 14 -27 -10
v 10 -32 -10
v 14 -32 -10
v 10 -32 6
v 14 -32 6
v 10 -32 10
v 14 -32 10
v 10 -27 6
v 10 -32 6
v 10 -30 10
v 10 -32 10
v 18 -32 10
v 18 -31 10
v 14 -27 6
v 10 -27 6
v 14 -30 10
v 10 -30 10
v 18 -32 -10
v 18 -30 -10
v 18 -32 10
v 18 -32 6
v 14 -27 6
v 14 -30 10
v 18 -30 6
v 18 -31 10
v 18 -31 10
v 18 -32 10
v 18 -32 -10
v 14 -27 -10
v 14 -27 6
v 18 -30 -10
v 18 -30 6
v 6 -32 -10
v 6 -32 6
v 6 -27 -10
v 6 -32 -10
v 10 -32 6
v 10 -27 6
v 6 -32 6
v 6 -27 6
v 6 -27 6
v 6 -27 -10
f 25 26 27
f 26 28 27
f 29 30 31
f 30 32 31
f 33 34 35
f 34 36 35
f 37 38 39
f 38 40 39
f 41 42 43
f 42 44 43
f 45 46 47
f 46 48 47
f 47 48 49
f 48 50 49
f 51 52 53
f 52 54 53
f 29 31 55
f 31 56 55
f 57 58 59
f 58 60 59
f 33 35 61
f 35 62 61
f 50 48 63
f 48 64 63
f 65 66 67
f 66 68 67
f 28 26 69
f 26 70 69
f 48 46 64
f 46 71 64
f 72 73 74
f 73 75 74
f 45 47 76
f 47 77 76
f 36 34 78
f 34 79 78
f 80 81 82
f 81 83 82
f 41 43 84
f 43 85 84
v 2 -22 10
v 1.999999 -21 12
v 2 -19 10
v 1.999998 -19 12
v 2.000001 -21 16
v 6.000001 -21 16
v 2.000001 -19 16
v 6.000001 -19 16
v 6 -21 12
v 6 -22 9.999997
v 6 -19 12
v 6 -19 9.999997
v 6 -22 9.999997
v 2 -22 10
v 6 -19 9.999997
v 2 -19 10
v 2 -19 10
v 1.999998 -19 12
v 6 -19 9.999997
v 6 -19 12
v 6 -22 9.999997
v 6 -21 12
v 2 -22 10
v 1.999999 -21 12
v 1.999999 -21 12
v 6 -21 12
v 2.000001 -21 16
v 6.000001 -21 16
v -6 -19 12
v -6 -21 12
v -5.999999 -19 16
v -5.999999 -21 16
v 6.000001 -21 16
v 6.000001 -19 16
v 6.000001 -19 16
v 2.000001 -19 16
v 1.999998 -19 12
v 1.999999 -21 12
v -2.000002 -19 12
v -2.000002 -21 12
v -2.000001 -19 16
v -2.000002 -19 12
v -2.000002 -21 12
v -2.000001 -21 16
v -2.000001 -21 16
v -2.000001 -19 16
v -2 -19 9.999998
v -1.999999 -22 9.999998
v -6 -19 10
v -6 -22 10
v -5.999999 -19 16
v -6 -19 12
v -6 -21 12
v -5.999999 -21 16
v -5.999999 -21 16
v -5.999999 -19 16
v -2.000002 -19 12
v -2.000002 -21 12
v -2 -19 9.999998
v -1.999999 -22 9.999998
v -6 -19 10
v -2 -19 9.999998
v -2.000002 -21 12
v -6 -21 12
v -1.999999 -22 9.999998
v -6 -22 10
v -6 -22 10
v -6 -19 10
f 86 87 88
f 87 89 88
f 90 91 92
f 91 93 92
f 94 95 96
f 95 97 96
f 98 99 100
f 99 101 100
f 102 103 104
f 103 105 104
f 106 107 108
f 107 109 108
f 110 111 112
f 111 113 112
f 114 115 116
f 115 117 116
f 94 96 118
f 96 119 118
f 105 103 120
f 103 121 120
f 122 123 124
f 123 125 124
f 121 103 126
f 103 127 126
f 110 112 128
f 112 129 128
f 90 92 130
f 92 131 130
f 132 133 134
f 133 135 134
f 126 127 136
f 127 137 136
f 128 129 138
f 129 139 138
f 130 131 140
f 131 141 140
f 142 143 144
f 143 145 144
f 137 127 146
f 127 147 146
f 148 149 150
f 149 151 150
f 115 114 152
f 114 153 152
v -14 -8 14
v -10 -8 14
v -14 -7 14
v -10 -7 14
v -9 -8 9
v -10 -8 -10
v -9 -7 9
v -10 -7 -10
v -10 -8 -10
v -14 -8 -10
v -10 -7 -10
v -14 -7 -10
v -14 -8 -10
v -14 -8 10
v -14 -7 -10
v -14 -7 10
v -14 -7 10
v -9 -7 9
v -14 -7 -10
v -10 -7 -10
v -14 -8 -10
v -10 -8 -10
v -14 -8 10
v -9 -8 9
v -14 -8 14
v -10 -8 14
v -14 -7 14
v -14 -8 14
v -6 -8 10
v -6 -7 10
v -6 -8 14
v -6 -7 14
v -10 -7 14
v -14 -7 14
v -9 -8 9
v -9 -7 9
v -6 -8 10
v -6 -7 10
v -10 -11 12
v -9 -11 9
v -6 -11 12
v -6 -11 10
v -6 -7 10
v -6 -7 14
v -9 -10 21
v -9 -11 21
v -5 -10 21
v -5 -11 21
v -10 -8 14
v -9 -8 9
v -10 -11 12
v -9 -11 9
v -6 -8 14
v -10 -8 14
v -6 -11 12
v -10 -11 12
v -9 -11 9
v -6 -11 10
v -6 -11 10
v -6 -11 12
v -10 -7 14
v -10 -8 14
v -9 -10 21
v -9 -11 21
v -6 -7 14
v -10 -7 14
v -5 -10 21
v -9 -10 21
v -10 -8 14
v -6 -8 14
v -9 -11 21
v -5 -11 21
v -6 -8 14
v -6 -7 14
v -5 -11 21
v -5 -10 21
f 154 155 156
f 155 157 156
f 158 159 160
f 159 161 160
f 162 163 164
f 163 165 164
f 166 167 168
f 167 169 168
f 170 171 172
f 171 173 172
f 174 175 176
f 175 177 176
f 176 177 178
f 177 179 178
f 169 167 180
f 167 181 180
f 182 183 184
f 183 185 184
f 171 170 186
f 170 187 186
f 188 189 190
f 189 191 190
f 192 193 194
f 193 195 194
f 171 186 196
f 186 197 196
f 198 199 200
f 199 201 200
f 202 203 204
f 203 205 204
f 206 207 208
f 207 209 208
f 188 190 210
f 190 211 210
f 182 184 212
f 184 213 212
f 214 215 216
f 215 217 216
f 218 219 220
f 219 221 220
f 222 223 224
f 223 225 224
f 226 227 228
f 227 229 228
v 10 -10 -2
v 14 -10 -2
v 10 -8 -2
v 14 -8 -2
v 14 -10 -16
v 10 -10 -16
v 14 -5 -16
v 10 -5 -16
v 14 -10 -2
v 14 -10 -6
v 14 -8 -6
v 14 -8 -2
v 10 -8 -6
v 10 -10 -2
v 10 -8 -2
v 10 -10 -6
v 14 -8 -6
v 10 -8 -6
v 10 -8 -2
v 14 -8 -2
v 10 -10 -2
v 14 -10 -6
v 14 -10 -2
v 10 -10 -6
v 14 -10 -10
v 10 -10 -10
v 10 -10 -16
v 14 -10 -16
v 10 -10 -16
v 14 -10 -16
v 14 -10 -16
v 10 -10 -16
v 14 -10 -12
v 14 -5 -12
v 14 -10 -16
v 14 -5 -16
v 10 -5 -12
v 10 -10 -12
v 10 -5 -16
v 10 -10 -16
v 14 -5 -16
v 10 -5 -16
v 10 -5 -12
v 14 -5 -12
v 14 -5 -12
v 10 -5 -12
v 10 -8 -6
v 14 -8 -6
v 10 -10 -13
v 14 -10 -16
v 14 -10 -13
v 10 -10 -16
v 14 -10 -13
v 14 -10 -16
v 14 -10 -16
v 14 -10 -12
v 14 -10 -13
v 14 -10 -16
v 14 -10 -6
v 14 -10 -10
v 14 -10 -12
v 14 -10 -10
v 14 -10 -13
v 14 -10 -12
v 10 -10 -12
v 10 -10 -13
v 10 -10 -10
v 10 -10 -12
v 10 -10 -10
v 10 -10 -6
v 10 -10 -16
v 10 -10 -13
v 10 -10 -12
v 10 -10 -16
v 10 -10 -16
v 10 -10 -13
f 230 231 232
f 231 233 232
f 234 235 236
f 235 237 236
f 238 239 240
f 241 238 240
f 242 243 244
f 242 245 243
f 246 247 248
f 249 246 248
f 250 251 252
f 250 253 251
f 251 253 254
f 253 255 254
f 256 257 258
f 259 260 261
f 239 262 263
f 240 239 263
f 262 264 265
f 263 262 265
f 266 245 242
f 266 267 245
f 268 267 266
f 268 269 267
f 270 271 272
f 273 270 272
f 274 275 276
f 277 274 276
f 278 279 280
f 278 281 279
f 255 280 254
f 255 278 280
f 282 283 284
f 285 286 287
f 288 289 290
f 291 292 293
f 294 295 296
f 297 298 299
f 300 301 302
f 303 304 305
v 9 -30 9
v 10 -30 7
v 10 -2 7
v 9 -2 9
v -10 -2 7
v -9 -30 9
v -9 -2 9
v -10 -30 7
v 7 -30 10
v 9 -30 9
v 9 -2 9
v 7 -2 10
v 9 -2 -9
v 7 -30 -10
v 7 -2 -10
v 9 -30 -9
v 10 -2 7
v 7 -2 7
v 7 -2 10
v 9 -2 9
v 7 -30 10
v 10 -30 7
v 9 -30 9
v 7 -30 7
v 10 -30 7
v 10 -30 -7
v 10 -2 -7
v 10 -2 7
v 10 -30 -7
v 9 -30 -9
v 9 -2 -9
v 10 -2 -7
v -10 -2 -7
v -10 -30 7
v -10 -2 7
v -10 -30 -7
v -9 -2 -9
v -10 -30 -7
v -10 -2 -7
v -9 -30 -9
v 9 -2 -9
v 7 -2 -10
v 7 -2 -7
v 10 -2 -7
v 7 -30 -7
v 9 -30 -9
v 10 -30 -7
v 7 -30 -10
v -9 -30 9
v -7 -30 10
v -7 -2 10
v -9 -2 9
v -7 -30 10
v 7 -30 10
v 7 -2 10
v -7 -2 10
v -7 -2 -10
v -9 -30 -9
v -9 -2 -9
v -7 -30 -10
v 7 -2 -10
v -7 -30 -10
v -7 -2 -10
v 7 -30 -10
v -7 -2 7
v -7 -2 10
v -10 -2 7
v -9 -2 9
v -7 -30 10
v -7 -30 7
v -9 -30 9
v -10 -30 7
v -7 -2 -10
v -7 -2 -7
v -9 -2 -9
v -10 -2 -7
v -7 -30 -7
v -7 -30 -10
v -10 -30 -7
v -9 -30 -9
f 306 307 308
f 309 306 308
f 310 311 312
f 310 313 311
f 314 315 316
f 317 314 316
f 318 319 320
f 318 321 319
f 322 323 324
f 325 322 324
f 326 327 328
f 326 329 327
f 330 331 332
f 333 330 332
f 334 335 336
f 337 334 336
f 338 339 340
f 338 341 339
f 342 343 344
f 342 345 343
f 346 347 348
f 349 346 348
f 349 348 323
f 322 349 323
f 350 351 352
f 350 353 351
f 329 352 327
f 329 350 352
f 354 355 356
f 357 354 356
f 358 359 360
f 361 358 360
f 362 363 364
f 362 365 363
f 366 367 368
f 366 369 367
f 323 370 371
f 324 323 371
f 370 372 373
f 371 370 373
f 374 329 326
f 374 375 329
f 376 375 374
f 376 377 375
f 347 378 379
f 348 347 379
f 378 380 381
f 379 378 381
f 348 379 370
f 323 348 370
f 379 381 372
f 370 379 372
f 382 353 350
f 382 383 353
f 384 383 382
f 384 385 383
f 375 350 329
f 375 382 350
f 377 382 375
f 377 384 382
v -2 -5 14
v 2 -5 14
v -2 -4 14
v 2 -4 14
v 2 -5 14
v 2 -5 10
v 2 -4 14
v 2 -4 10
v 2 -5 10
v -2 -5 10
v 2 -4 10
v -2 -4 10
v -2 -5 10
v -2 -5 14
v -2 -4 10
v -2 -4 14
v -2 -4 14
v 2 -4 14
v -2 -4 10
v 2 -4 10
v -2 -5 10
v 2 -5 10
v -2 -5 14
v 2 -5 14
f 386 387 388
f 387 389 388
f 390 391 392
f 391 393 392
f 394 395 396
f 395 397 396
f 398 399 400
f 399 401 400
f 402 403 404
f 403 405 404
f 406 407 408
f 407 409 408
v -14 -24 13.99999
v -10 -24 13.99999
v -14 -24 9.999982
v -10 -24 9.999982
v -10 -24 13.99999
v -10 -30 14
v -10 -24 9.999982
v -10 -30 10
v -10 -30 14
v -14 -30 14
v -10 -30 10
v -14 -30 10
v -14 -30 14
v -14 -24 13.99999
v -14 -30 10
v -14 -24 9.999982
v -14 -24 9.999982
v -10 -24 9.999982
v -14 -30 10
v -10 -30 10
v -14 -30 14
v -10 -30 14
v -14 -24 13.99999
v -10 -24 13.99999
f 410 411 412
f 411 413 412
f 414 415 416
f 415 417 416
f 418 419 420
f 419 421 420
f 422 423 424
f 423 425 424
f 426 427 428
f 427 429 428
f 430 431 432
f 431 433 432
v -22 -24 1.999995
v -18 -24 1.999995
v -22 -24 -2.000019
v -18 -24 -2.000019
v -18 -24 1.999995
v -18 -30 2.000002
v -18 -24 -2.000019
v -18 -30 -1.999999
v -18 -30 2.000002
v -22 -30 2.000002
v -18 -30 -1.999999
v -22 -30 -1.999999
v -22 -30 2.000002
v -22 -24 1.999995
v -22 -30 -1.999999
v -22 -24 -2.000019
v -22 -24 -2.000019
v -18 -24 -2.000019
v -22 -30 -1.999999
v -18 -30 -1.999999
v -22 -30 2.000002
v -18 -30 2.000002
v -22 -24 1.999995
v -18 -24 1.999995
f 434 435 436
f 435 437 436
f 438 439 440
f 439 441 440
f 442 443 444
f 443 445 444
f 446 447 448
f 447 449 448
f 450 451 452
f 451 453 452
f 454 455 456
f 455 457 456
v -10 -21 13.99999
v -6 -21 13.99999
v -10 -21 9.999977
v -6 -21 9.999977
v -6 -21 13.99999
v -6 -30 14
v -6 -21 9.999977
v -6 -30 10
v -6 -30 14
v -10 -30 14
v -6 -30 10
v -10 -30 10
v -10 -30 14
v -10 -21 13.99999
v -10 -30 10
v -10 -21 9.999977
v -10 -21 9.999977
v -6 -21 9.999977
v -10 -30 10
v -6 -30 10
v -10 -30 14
v -6 -30 14
v -10 -21 13.99999
v -6 -21 13.99999
f 458 459 460
f 459 461 460
f 462 463 464
f 463 465 464
f 466 467 468
f 467 469 468
f 470 471 472
f 471 473 472
f 474 475 476
f 475 477 476
f 478 479 480
f 479 481 480
v 20 -30 -10
v 22 -30 -10
v 20 -20 -10
v 22 -20 -10
v 22 -30 -10
v 22 -30 -12
v 22 -20 -10
v 22 -20 -12
v 22 -30 -12
v 20 -30 -12
v 22 -20 -12
v 20 -20 -12
v 20 -30 -12
v 20 -30 -10
v 20 -20 -12
v 20 -20 -10
v 20 -18 -10
v 22 -18 -10
v 20 -18 -12
v 22 -18 -12
v 20 -30 -12
v 22 -30 -12
v 20 -30 -10
v 22 -30 -10
v 18 -20 -8
v 24 -20 -8
v 18 -18 -8
v 24 -18 -8
v 18 -20 -14
v 18 -20 -8
v 18 -18 -14
v 18 -18 -8
v 24 -20 -8
v 24 -20 -14
v 24 -18 -8
v 24 -18 -14
v 24 -20 -14
v 18 -20 -14
v 24 -18 -14
v 18 -18 -14
v 22 -20 -10
v 22 -20 -12
v 24 -20 -8
v 24 -20 -14
v 24 -18 -8
v 18 -18 -8
v 24 -18 -14
v 20 -20 -12
v 18 -20 -14
v 18 -18 -14
v 20 -20 -10
v 18 -20 -8
f 482 483 484
f 483 485 484
f 486 487 488
f 487 489 488
f 490 491 492
f 491 493 492
f 494 495 496
f 495 497 496
f 498 499 500
f 499 501 500
f 502 503 504
f 503 505 504
f 506 507 508
f 507 509 508
f 510 511 512
f 511 513 512
f 514 515 516
f 515 517 516
f 518 519 520
f 519 521 520
f 522 523 524
f 523 525 524
f 499 498 526
f 498 527 526
f 501 499 528
f 499 526 528
f 523 529 525
f 529 530 525
f 500 501 531
f 501 528 531
f 529 532 530
f 532 533 530
f 498 500 527
f 500 531 527
f 532 522 533
f 522 524 533
v 20 -7.999996 -22.00002
v 24 -7.999996 -22.00002
v 20 -7.999996 -26.00004
v 24 -7.999996 -26.00004
v 24 -7.999996 -22.00002
v 24 -30 -22
v 24 -7.999996 -26.00004
v 24 -30 -26
v 24 -30 -22
v 20 -30 -22
v 24 -30 -26
v 20 -30 -26
v 20 -30 -22
v 20 -7.999996 -22.00002
v 20 -30 -26
v 20 -7.999996 -26.00004
v 20 -7.999996 -26.00004
v 24 -7.999996 -26.00004
v 20 -30 -26
v 24 -30 -26
v 20 -30 -22
v 24 -30 -22
v 20 -7.999996 -22.00002
v 24 -7.999996 -22.00002
f 534 535 536
f 535 537 536
f 538 539 540
f 539 541 540
f 542 543 544
f 543 545 544
f 546 547 548
f 547 549 548
f 550 551 552
f 551 553 552
f 554 555 556
f 555 557 556
v -14 -18 10
v -10 -18 10
v -14 -18 -10.00001
v -10 -18 -10.00001
v -10 -18 10
v -10 -29.99999 10
v -10 -18 -10.00001
v -10 -30.00001 -10
v -10 -29.99999 10
v -14 -29.99999 10
v -10 -30.00001 -10
v -14 -30.00001 -10
v -14 -29.99999 10
v -14 -18 10
v -14 -30.00001 -10
v -14 -18 -10.00001
v -14 -18 -10.00001
v -10 -18 -10.00001
v -14 -30.00001 -10
v -10 -30.00001 -10
v -14 -29.99999 10
v -10 -29.99999 10
v -14 -18 10
v -10 -18 10
f 558 559 560
f 559 561 560
f 562 563 564
f 563 565 564
f 566 567 568
f 567 569 568
f 570 571 572
f 571 573 572
f 574 575 576
f 575 577 576
f 578 579 580
f 579 581 580
v -26 -13 -17.00001
v -22 -15 -17.00001
v -26 -13 -21.00002
v -22 -15 -21.00002
v -18 -16.99999 -17.00001
v -18 -19 -16.99999
v -18 -16.99999 -21.00002
v -18 -19 -21
v -22 -17 -17
v -26 -15 -17
v -22 -17 -21.00001
v -26 -15 -21.00001
v -30 -15 -17
v -30 -13 -17.00001
v -30 -15 -21.00001
v -30 -13 -21.00002
v -26 -13 -21.00002
v -22 -15 -21.00002
v -26 -15 -21.00001
v -22 -17 -21.00001
v -26 -15 -17
v -22 -17 -17
v -26 -13 -17.00001
v -22 -15 -17.00001
v -18 -16.99999 -17.00001
v -18 -19 -16.99999
v -18 -16.99999 -21.00002
v -18 -16.99999 -17.00001
v -18 -19 -16.99999
v -18 -19 -21
v -18 -19 -21
v -18 -16.99999 -21.00002
v -26 -15 -13
v -26 -13 -13
v -30 -15 -13
v -30 -13 -13
v -26 -15 -21.00001
v -26 -15 -17
v -30 -15 -21.00001
v -30 -15 -17
v -26 -13 -17.00001
v -26 -13 -21.00002
v -30 -13 -17.00001
v -30 -13 -21.00002
v -26 -13 -21.00002
v -26 -15 -21.00001
v -30 -13 -21.00002
v -30 -15 -21.00001
v -26 -15 -17
v -26 -13 -17.00001
v -26 -15 -13
v -26 -13 -13
v -30 -15 -13
v -26 -15 -13
v -26 -13 -13
v -30 -13 -13
v -30 -13 -13
v -30 -15 -13
f 582 583 584
f 583 585 584
f 586 587 588
f 587 589 588
f 590 591 592
f 591 593 592
f 594 595 596
f 595 597 596
f 598 599 600
f 599 601 600
f 602 603 604
f 603 605 604
f 605 603 606
f 603 607 606
f 585 583 608
f 583 609 608
f 590 592 610
f 592 611 610
f 601 599 612
f 599 613 612
f 614 615 616
f 615 617 616
f 618 619 620
f 619 621 620
f 622 623 624
f 623 625 624
f 626 627 628
f 627 629 628
f 630 631 632
f 631 633 632
f 621 619 634
f 619 635 634
f 622 624 636
f 624 637 636
f 595 594 638
f 594 639 638
v -31 -9.999996 16.49998
v -27 -9.999996 16.49998
v -31 -9.999996 12.49996
v -27 -9.999996 12.49996
v -27 -9.999996 16.49998
v -27 -30 16.5
v -27 -9.999996 12.49996
v -27 -30 12.5
v -27 -30 16.5
v -31 -30 16.5
v -27 -30 12.5
v -31 -30 12.5
v -31 -30 16.5
v -31 -9.999996 16.49998
v -31 -30 12.5
v -31 -9.999996 12.49996
v -31 -9.999996 12.49996
v -27 -9.999996 12.49996
v -31 -30 12.5
v -27 -30 12.5
v -31 -30 16.5
v -27 -30 16.5
v -31 -9.999996 16.49998
v -27 -9.999996 16.49998
f 640 641 642
f 641 643 642
f 644 645 646
f 645 647 646
f 648 649 650
f 649 651 650
f 652 653 654
f 653 655 654
f 656 657 658
f 657 659 658
f 660 661 662
f 661 663 662
v -22 -27 5.999996
v -18 -27 5.999996
v -22 -27 1.99998
v -18 -27 1.99998
v -18 -27 5.999996
v -18 -30 6.000002
v -18 -27 1.99998
v -18 -30 2.000001
v -18 -30 6.000002
v -22 -30 6.000002
v -18 -30 2.000001
v -22 -30 2.000001
v -22 -30 6.000002
v -22 -27 5.999996
v -22 -30 2.000001
v -22 -27 1.99998
v -22 -27 1.99998
v -18 -27 1.99998
v -22 -30 2.000001
v -18 -30 2.000001
v -22 -30 6.000002
v -18 -30 6.000002
v -22 -27 5.999996
v -18 -27 5.999996
f 664 665 666
f 665 667 666
f 668 669 670
f 669 671 670
f 672 673 674
f 673 675 674
f 676 677 678
f 677 679 678
f 680 681 682
f 681 683 682
f 684 685 686
f 685 687 686
v 10 -20 4
v 14 -18 4
v 10 -16 4
v 14 -16 4
v 14 -18 4
v 14 -18 -4
v 14 -16 4
v 14 -16 -4
v 14 -18 -4
v 10 -20 -4
v 14 -16 -4
v 10 -16 -4
v 10 -20 -4
v 10 -20 4
v 10 -16 -4
v 10 -16 4
v 10 -16 4
v 14 -16 4
v 10 -16 -4
v 14 -16 -4
v 10 -20 -4
v 14 -18 -4
v 10 -20 4
v 14 -18 4
f 688 689 690
f 689 691 690
f 692 693 694
f 693 695 694
f 696 697 698
f 697 699 698
f 700 701 702
f 701 703 702
f 704 705 706
f 705 707 706
f 708 709 710
f 709 711 710
v 6 -6.999996 13.99998
v 10 -6.999996 13.99998
v 6 -6.999996 9.999959
v 10 -6.999996 9.999959
v 10 -10.99999 12
v 6 -10.99999 12
v 10 -11 9.999983
v 6 -11 9.999983
v 10 -6.999996 9.999959
v 10 -6.999996 13.99998
v 10 -8.999996 9.999971
v 10 -8.999996 13.99998
v 10 -11 9.999983
v 10 -10.99999 12
v 6 -11 9.999983
v 6 -10.99999 12
v 6 -8.999996 13.99998
v 6 -8.999996 9.999971
v 6 -6.999996 13.99998
v 6 -6.999996 9.999959
v 10 -8.999998 6.999999
v 6 -9.000002 8.999971
v 6 -7.000002 8.999959
v 10 -6.999998 6.999999
v 10 -11 6.999999
v 6 -11 8.999983
v 6 -8.999996 13.99998
v 10 -10.99999 12
v 10 -8.999996 13.99998
v 6 -10.99999 12
v 6 -6.999996 13.99998
v 10 -8.999996 13.99998
v 10 -6.999996 13.99998
v 6 -8.999996 13.99998
v 6 -9.000002 8.999971
v 6 -7.000002 8.999959
v 10 -6.999998 6.999999
v 10 -8.999998 6.999999
v 6 -6.999996 9.999959
v 10 -6.999996 9.999959
v 6 -7.000002 8.999959
v 10 -6.999998 6.999999
v 10 -11 6.999999
v 6 -11 8.999983
v 6 -11 8.999983
v 10 -11 6.999999
f 712 713 714
f 713 715 714
f 716 717 718
f 717 719 718
f 720 721 722
f 721 723 722
f 722 723 724
f 723 725 724
f 726 727 728
f 726 728 729
f 729 728 730
f 729 730 731
f 732 733 734
f 735 732 734
f 736 737 733
f 732 736 733
f 738 739 740
f 738 741 739
f 742 743 744
f 742 745 743
f 729 731 746
f 731 747 746
f 720 722 748
f 722 749 748
f 750 751 752
f 751 753 752
f 718 719 754
f 719 755 754
f 726 729 756
f 729 746 756
f 722 724 749
f 724 757 749
v 10 -30 -10
v 14 -30 -10
v 14 -24 -10
v 10 -24 -10
v 14 -24 -18
v 10 -30 -18
v 10 -24 -18
v 14 -30 -18
v 14 -30 -10
v 14 -30 -14
v 14 -24 -14
v 14 -24 -10
v 14 -30 -18
v 14 -24 -18
v 0 -24 -18
v 0 -30 -14
v 0 -24 -14
v 0 -30 -18
v 0 -30 -10
v 0 -24 -10
v 14 -24 -18
v 10 -24 -18
v 10 -24 -14
v 14 -24 -14
v 10 -24 -10
v 14 -24 -10
v 10 -30 -14
v 14 -30 -18
v 14 -30 -14
v 10 -30 -18
v 10 -30 -10
v 14 -30 -10
v 0 -30 -10
v 7 -30 -10
v 7 -24 -10
v 0 -24 -10
v 7 -24 -18
v 0 -30 -18
v 0 -24 -18
v 7 -30 -18
v 10 -24 -18
v 4 -20 -18
v 4 -20 -14
v 10 -24 -14
v 4 -20 -18
v 0 -20 -18
v 0 -20 -14
v 4 -20 -14
v 4 -20 -14
v 0 -20 -14
v 0 -20 -10
v 4 -20 -10
v 0 -30 -14
v 7 -30 -18
v 7 -30 -14
v 0 -30 -18
v 0 -30 -10
v 7 -30 -10
v 4 -20 -18
v 0 -20 -18
v 8.5 -30 -10
v 8.5 -24 -10
v 8.5 -24 -18
v 8.5 -30 -18
v 10 -18 -14
v 8 -18 -14
v 8 -18 -10
v 10 -18 -10
v 8 -18 -14
v 4 -20 -14
v 4 -20 -10
v 8 -18 -10
v 8.5 -30 -14
v 8.5 -30 -18
v 8.5 -30 -10
v 0 -21 -14
v 0 -21 -10
v 0 -20 -14
v 0 -20 -10
v 10 -24 -10
v 10 -24 -14
v 10 -20 -14
v 10 -20 -10
v 10 -18 -14
v 10 -18 -10
v 0 -20 -18
v 5.5 -21 -14
v 7 -24 -14
v 0 -24 -14
v 0 -21 -14
v 4 -20 -14
v 0 -20 -14
v 0 -21 -10
v 5.5 -21 -10
v 0 -20 -10
v 4 -20 -10
v 0 -20 -14
v 0 -21 -14
v 4 -20 -14
v 5.5 -21 -14
v 0 -24 -14
v 7 -24 -14
v 8.25 -20 -14
v 8.5 -24 -14
v 8 -18 -14
v 10 -20 -14
v 10 -24 -14
v 10 -18 -14
v 8.25 -20 -10
v 8 -18 -10
v 10 -20 -10
v 10 -18 -10
v 5.5 -21 -14
v 8.5 -24 -14
v 5.5 -21 -14
v 10 -24 -14
v 4 -20 -14
v 5.5 -21 -14
v 10 -24 -14
f 758 759 760
f 761 758 760
f 762 763 764
f 762 765 763
f 766 767 768
f 769 766 768
f 767 770 771
f 768 767 771
f 772 773 774
f 772 775 773
f 774 776 777
f 774 773 776
f 778 779 780
f 781 778 780
f 781 780 782
f 783 781 782
f 784 785 786
f 784 787 785
f 788 786 789
f 788 784 786
f 790 791 792
f 793 790 792
f 794 795 796
f 794 797 795
f 798 799 800
f 801 798 800
f 802 803 804
f 805 802 804
f 806 807 808
f 809 806 808
f 810 811 812
f 810 813 811
f 814 812 815
f 814 810 812
f 816 794 817
f 794 796 817
f 791 818 819
f 792 791 819
f 818 758 761
f 819 818 761
f 820 797 794
f 820 821 797
f 764 821 820
f 764 763 821
f 822 823 824
f 825 822 824
f 826 827 828
f 829 826 828
f 830 787 784
f 830 831 787
f 812 831 830
f 812 811 831
f 832 784 788
f 832 830 784
f 815 830 832
f 815 812 830
f 764 820 816
f 820 794 816
f 833 777 834
f 833 774 777
f 835 834 836
f 835 833 834
f 837 838 839
f 840 837 839
f 840 839 841
f 842 840 841
f 843 833 835
f 843 772 833
f 772 774 833
f 844 845 846
f 844 846 847
f 848 844 847
f 848 847 849
f 850 793 851
f 793 792 851
f 852 850 853
f 850 851 853
f 854 855 856
f 855 857 856
f 855 858 857
f 858 859 857
f 860 861 845
f 860 845 844
f 848 862 860
f 848 860 844
f 863 861 860
f 863 864 861
f 865 860 862
f 865 863 860
f 851 866 853
f 866 867 853
f 851 792 866
f 792 819 866
f 819 761 868
f 866 819 868
f 866 868 869
f 867 866 869
f 870 859 871
f 872 871 873
f 874 875 876
v -4 -14 10
v -4 -12 14
v -4 -10 10
v -4 -10 14
v -4 -12 14
v 4 -12 14
v -4 -10 14
v 4 -10 14
v 4 -12 14
v 4 -14 10
v 4 -10 14
v 4 -10 10
v 4 -14 10
v -4 -14 10
v 4 -10 10
v -4 -10 10
v -4 -10 10
v -4 -10 14
v 4 -10 10
v 4 -10 14
v 4 -14 10
v 4 -12 14
v -4 -14 10
v -4 -12 14
f 877 878 879
f 878 880 879
f 881 882 883
f 882 884 883
f 885 886 887
f 886 888 887
f 889 890 891
f 890 892 891
f 893 894 895
f 894 896 895
f 897 898 899
f 898 900 899
v 22 -30 4
v 24 -30 4
v 22 -20 4
v 24 -20 4
v 24 -30 4
v 24 -30 2
v 24 -20 4
v 24 -20 2
v 24 -30 2
v 22 -30 2
v 24 -20 2
v 22 -20 2
v 22 -30 2
v 22 -30 4
v 22 -20 2
v 22 -20 4
v 22 -18 4
v 24 -18 4
v 22 -18 2
v 24 -18 2
v 22 -30 2
v 24 -30 2
v 22 -30 4
v 24 -30 4
v 20 -20 6
v 26 -20 6
v 20 -18 6
v 26 -18 6
v 20 -20 0
v 20 -20 6
v 20 -18 0
v 20 -18 6
v 26 -20 6
v 26 -20 0
v 26 -18 6
v 26 -18 0
v 26 -20 0
v 20 -20 0
v 26 -18 0
v 20 -18 0
v 24 -20 4
v 24 -20 2
v 26 -20 6
v 26 -20 0
v 26 -18 6
v 20 -18 6
v 26 -18 0
v 22 -20 2
v 20 -20 0
v 20 -18 0
v 22 -20 4
v 20 -20 6
f 901 902 903
f 902 904 903
f 905 906 907
f 906 908 907
f 909 910 911
f 910 912 911
f 913 914 915
f 914 916 915
f 917 918 919
f 918 920 919
f 921 922 923
f 922 924 923
f 925 926 927
f 926 928 927
f 929 930 931
f 930 932 931
f 933 934 935
f 934 936 935
f 937 938 939
f 938 940 939
f 941 942 943
f 942 944 943
f 918 917 945
f 917 946 945
f 920 918 947
f 918 945 947
f 942 948 944
f 948 949 944
f 919 920 950
f 920 947 950
f 948 951 949
f 951 952 949
f 917 919 946
f 919 950 946
f 951 941 952
f 941 943 952
v 17 -30 17
v 19 -30 17
v 17 -20 17
v 19 -20 17
v 19 -30 17
v 19 -30 15
v 19 -20 17
v 19 -20 15
v 19 -30 15
v 17 -30 15
v 19 -20 15
v 17 -20 15
v 17 -30 15
v 17 -30 17
v 17 -20 15
v 17 -20 17
v 17 -18 17
v 19 -18 17
v 17 -18 15
v 19 -18 15
v 17 -30 15
v 19 -30 15
v 17 -30 17
v 19 -30 17
v 15 -20 19
v 21 -20 19
v 15 -18 19
v 21 -18 19
v 15 -20 13
v 15 -20 19
v 15 -18 13
v 15 -18 19
v 21 -20 19
v 21 -20 13
v 21 -18 19
v 21 -18 13
v 21 -20 13
v 15 -20 13
v 21 -18 13
v 15 -18 13
v 19 -20 17
v 19 -20 15
v 21 -20 19
v 21 -20 13
v 21 -18 19
v 15 -18 19
v 21 -18 13
v 17 -20 15
v 15 -20 13
v 15 -18 13
v 17 -20 17
v 15 -20 19
f 953 954 955
f 954 956 955
f 957 958 959
f 958 960 959
f 961 962 963
f 962 964 963
f 965 966 967
f 966 968 967
f 969 970 971
f 970 972 971
f 973 974 975
f 974 976 975
f 977 978 979
f 978 980 979
f 981 982 983
f 982 984 983
f 985 986 987
f 986 988 987
f 989 990 991
f 990 992 991
f 993 994 995
f 994 996 995
f 970 969 997
f 969 998 997
f 972 970 999
f 970 997 999
f 994 1000 996
f 1000 1001 996
f 971 972 1002
f 972 999 1002
f 1000 1003 1001
f 1003 1004 1001
f 969 971 998
f 971 1002 998
f 1003 993 1004
f 993 995 1004
v -9 -6 -9
v -6 -6 -9
v -9 -5 -9
v -6 -5 -9
v -6 -6 -10
v -6 -6 -14
v -6 -5 -10
v -6 -5 -14
v -6 -6 -14
v -10 -6 -14
v -6 -5 -14
v -10 -5 -14
v -10 -6 -14
v -10 -6 -10
v -10 -5 -14
v -10 -5 -10
v -10 -5 -10
v -6 -5 -10
v -10 -5 -14
v -6 -5 -14
v -10 -6 -14
v -6 -6 -14
v -10 -6 -10
v -6 -6 -10
v -9 -6 -9
v -6 -6 -9
v -10 -5 -10
v -10 -6 -10
v -9 -5 -9
v -9 -6 -9
v -6 -6 -9
v -6 -5 -9
v -6 -5 -9
v -9 -5 -9
f 1005 1006 1007
f 1006 1008 1007
f 1009 1010 1011
f 1010 1012 1011
f 1013 1014 1015
f 1014 1016 1015
f 1017 1018 1019
f 1018 1020 1019
f 1021 1022 1023
f 1022 1024 1023
f 1025 1026 1027
f 1026 1028 1027
f 1027 1028 1029
f 1028 1030 1029
f 1031 1032 1033
f 1032 1034 1033
f 1009 1011 1035
f 1011 1036 1035
f 1022 1021 1037
f 1021 1038 1037
v -26 -27 1.999996
v -22 -27 1.999996
v -26 -27 -2.00002
v -22 -27 -2.00002
v -22 -27 1.999996
v -22 -30 2.000002
v -22 -27 -2.00002
v -22 -30 -1.999999
v -22 -30 2.000002
v -26 -30 2.000002
v -22 -30 -1.999999
v -26 -30 -1.999999
v -26 -30 2.000002
v -26 -27 1.999996
v -26 -30 -1.999999
v -26 -27 -2.00002
v -26 -27 -2.00002
v -22 -27 -2.00002
v -26 -30 -1.999999
v -22 -30 -1.999999
v -26 -30 2.000002
v -22 -30 2.000002
v -26 -27 1.999996
v -22 -27 1.999996
f 1039 1040 1041
f 1040 1042 1041
f 1043 1044 1045
f 1044 1046 1045
f 1047 1048 1049
f 1048 1050 1049
f 1051 1052 1053
f 1052 1054 1053
f 1055 1056 1057
f 1056 1058 1057
f 1059 1060 1061
f 1060 1062 1061
v -10 -19 -22.00002
v -14 -19 -22.00002
v -14 -17 -22.00001
v -10 -17 -22.00001
v -10 -17 -16.00001
v -14 -17 -16.00001
v -14 -19 -16.00001
v -10 -19 -16.00001
v -4 -17 -22.00001
v -4 -19 -22.00002
v -8 -19 -22.00002
v -8 -17 -22.00001
v -8 -17 -16.00001
v -8 -19 -16.00001
v -4 -17 -16.00001
v -4 -19 -16.00001
v -4 -17 -18
v -4 -17 -16.00001
v -4 -19 -18.00001
v -4 -19 -16.00001
v -14 -19 -18.00001
v -14 -19 -16.00001
v -14 -17 -16.00001
v -14 -17 -18
v -14 -17 -16.00001
v -10 -17 -16.00001
v -14 -17 -18
v -10 -17 -18
v -10 -19 -18.00001
v -10 -19 -16.00001
v -14 -19 -18.00001
v -14 -19 -16.00001
v -8 -17 -16.00001
v -8 -17 -18
v -4 -17 -16.00001
v -4 -17 -18
v -8 -19 -18.00001
v -8 -19 -16.00001
v -4 -19 -18.00001
v -4 -19 -16.00001
v -4 -17 -20
v -4 -19 -20.00002
v -4 -17 -22.00001
v -4 -19 -22.00002
v -14 -19 -22.00002
v -14 -19 -20.00002
v -14 -17 -22.00001
v -14 -17 -20
v -14 -17 -20
v -10 -17 -20.00001
v -14 -17 -22.00001
v -10 -17 -22.00001
v -10 -19 -22.00002
v -10 -19 -20.00002
v -14 -19 -22.00002
v -14 -19 -20.00002
v -8 -17 -20.00001
v -8 -17 -22.00001
v -4 -17 -20
v -4 -17 -22.00001
v -8 -30 -20.00001
v -10 -30 -18
v -10 -30 -20.00001
v -8 -30 -18
v -8 -19 -22.00002
v -8 -19 -20.00002
v -4 -19 -20.00002
v -4 -19 -22.00002
v -10 -19 -18.00001
v -10 -19 -20.00002
v -10 -30 -18
v -10 -30 -20.00001
v -10 -19 -20.00002
v -8 -19 -20.00002
v -10 -30 -20.00001
v -8 -30 -20.00001
v -8 -19 -20.00002
v -8 -19 -18.00001
v -8 -30 -20.00001
v -8 -30 -18
v -8 -19 -18.00001
v -10 -19 -18.00001
v -8 -30 -18
v -10 -30 -18
f 1063 1064 1065
f 1066 1063 1065
f 1067 1068 1069
f 1067 1069 1070
f 1071 1072 1073
f 1071 1073 1074
f 1074 1073 1063
f 1074 1063 1066
f 1075 1076 1077
f 1076 1078 1077
f 1067 1070 1075
f 1070 1076 1075
f 1079 1080 1081
f 1080 1082 1081
f 1083 1084 1085
f 1083 1085 1086
f 1087 1088 1089
f 1089 1088 1090
f 1091 1092 1093
f 1092 1094 1093
f 1088 1095 1096
f 1090 1088 1096
f 1095 1097 1098
f 1096 1095 1098
f 1099 1092 1091
f 1099 1100 1092
f 1101 1100 1099
f 1101 1102 1100
f 1103 1104 1105
f 1105 1104 1106
f 1103 1079 1081
f 1103 1081 1104
f 1107 1108 1109
f 1109 1108 1110
f 1108 1083 1110
f 1083 1086 1110
f 1111 1089 1090
f 1111 1090 1112
f 1113 1111 1112
f 1113 1112 1114
f 1115 1116 1117
f 1116 1118 1117
f 1116 1091 1118
f 1091 1093 1118
f 1090 1096 1119
f 1112 1090 1119
f 1112 1119 1120
f 1114 1112 1120
f 1096 1098 1121
f 1119 1096 1121
f 1119 1121 1122
f 1120 1119 1122
f 1123 1124 1125
f 1123 1126 1124
f 1127 1116 1115
f 1127 1128 1116
f 1129 1099 1128
f 1129 1101 1099
f 1130 1128 1127
f 1130 1129 1128
f 1131 1132 1133
f 1132 1134 1133
f 1135 1136 1137
f 1136 1138 1137
f 1139 1140 1141
f 1140 1142 1141
f 1143 1144 1145
f 1144 1146 1145
v 2 -13 23.99998
v 6 -13 23.99998
v 2 -13 19.99997
v 6 -13 19.99997
v 6 -13 23.99998
v 6 -30 24
v 6 -13 19.99997
v 6 -30 20
v 6 -30 24
v 2 -30 24
v 6 -30 20
v 2 -30 20
v 2 -30 24
v 2 -13 23.99998
v 2 -30 20
v 2 -13 19.99997
v 2 -13 19.99997
v 6 -13 19.99997
v 2 -30 20
v 6 -30 20
v 2 -30 24
v 6 -30 24
v 2 -13 23.99998
v 6 -13 23.99998
f 1147 1148 1149
f 1148 1150 1149
f 1151 1152 1153
f 1152 1154 1153
f 1155 1156 1157
f 1156 1158 1157
f 1159 1160 1161
f 1160 1162 1161
f 1163 1164 1165
f 1164 1166 1165
f 1167 1168 1169
f 1168 1170 1169
v -4 -9 -10
v 0 -9 -10
v -4 -8 -10
v 0 -8 -10
v 0 -9 -10
v 0 -9 -15
v 0 -8 -10
v 0 -8 -15
v 0 -9 -15
v -4 -9 -15
v 0 -8 -15
v -4 -8 -15
v -4 -9 -15
v -4 -9 -10
v -4 -8 -15
v -4 -8 -10
v -4 -8 -10
v 0 -8 -10
v -4 -8 -15
v 0 -8 -15
v -4 -9 -15
v 0 -9 -15
v -4 -9 -10
v 0 -9 -10
f 1171 1172 1173
f 1172 1174 1173
f 1175 1176 1177
f 1176 1178 1177
f 1179 1180 1181
f 1180 1182 1181
f 1183 1184 1185
f 1184 1186 1185
f 1187 1188 1189
f 1188 1190 1189
f 1191 1192 1193
f 1192 1194 1193
v -14 -27 18
v -10 -27 18
v -14 -27 13.99998
v -10 -27 13.99998
v -10 -27 18
v -10 -30 18
v -10 -27 13.99998
v -10 -30 14
v -10 -30 18
v -14 -30 18
v -10 -30 14
v -14 -30 14
v -14 -30 18
v -14 -27 18
v -14 -30 14
v -14 -27 13.99998
v -14 -27 13.99998
v -10 -27 13.99998
v -14 -30 14
v -10 -30 14
v -14 -30 18
v -10 -30 18
v -14 -27 18
v -10 -27 18
f 1195 1196 1197
f 1196 1198 1197
f 1199 1200 1201
f 1200 1202 1201
f 1203 1204 1205
f 1204 1206 1205
f 1207 1208 1209
f 1208 1210 1209
f 1211 1212 1213
f 1212 1214 1213
f 1215 1216 1217
f 1216 1218 1217
v -18 -21 1.999993
v -14 -21 1.999993
v -18 -21 -2.000021
v -14 -21 -2.000021
v -14 -21 1.999993
v -14 -30 2.000002
v -14 -21 -2.000021
v -14 -30 -1.999999
v -14 -30 2.000002
v -18 -30 2.000002
v -14 -30 -1.999999
v -18 -30 -1.999999
v -18 -30 2.000002
v -18 -21 1.999993
v -18 -30 -1.999999
v -18 -21 -2.000021
v -18 -21 -2.000021
v -14 -21 -2.000021
v -18 -30 -1.999999
v -14 -30 -1.999999
v -18 -30 2.000002
v -14 -30 2.000002
v -18 -21 1.999993
v -14 -21 1.999993
f 1219 1220 1221
f 1220 1222 1221
f 1223 1224 1225
f 1224 1226 1225
f 1227 1228 1229
f 1228 1230 1229
f 1231 1232 1233
f 1232 1234 1233
f 1235 1236 1237
f 1236 1238 1237
f 1239 1240 1241
f 1240 1242 1241
v -21 -17 -18.00001
v -19 -18 -18.00001
v -21 -17 -20.00001
v -19 -18 -20.00001
v -19 -18 -18.00001
v -19 -30 -18
v -19 -18 -20.00001
v -19 -30 -20
v -19 -30 -18
v -21 -30 -18
v -19 -30 -20
v -21 -30 -20
v -21 -30 -18
v -21 -17 -18.00001
v -21 -30 -20
v -21 -17 -20.00001
v -21 -17 -20.00001
v -19 -18 -20.00001
v -21 -30 -20
v -19 -30 -20
v -21 -30 -18
v -19 -30 -18
v -21 -17 -18.00001
v -19 -18 -18.00001
f 1243 1244 1245
f 1244 1246 1245
f 1247 1248 1249
f 1248 1250 1249
f 1251 1252 1253
f 1252 1254 1253
f 1255 1256 1257
f 1256 1258 1257
f 1259 1260 1261
f 1260 1262 1261
f 1263 1264 1265
f 1264 1266 1265
v -7.152557E-07 -18 -9.999998
v 7.152557E-07 -16 -14
v -7.152557E-07 -14 -9.999998
v 7.152557E-07 -14 -14
v 7.152557E-07 -16 -14
v -7.999999 -16 -14
v 7.152557E-07 -14 -14
v -7.999999 -14 -14
v -7.999999 -16 -14
v -8.000001 -18 -10
v -7.999999 -14 -14
v -8.000001 -14 -10
v -8.000001 -18 -10
v -7.152557E-07 -18 -9.999998
v -8.000001 -14 -10
v -7.152557E-07 -14 -9.999998
v -7.152557E-07 -14 -9.999998
v 7.152557E-07 -14 -14
v -8.000001 -14 -10
v -7.999999 -14 -14
v -8.000001 -18 -10
v -7.999999 -16 -14
v -7.152557E-07 -18 -9.999998
v 7.152557E-07 -16 -14
f 1267 1268 1269
f 1268 1270 1269
f 1271 1272 1273
f 1272 1274 1273
f 1275 1276 1277
f 1276 1278 1277
f 1279 1280 1281
f 1280 1282 1281
f 1283 1284 1285
f 1284 1286 1285
f 1287 1288 1289
f 1288 1290 1289
v -22 -27 -2.000004
v -18 -27 -2.000004
v -22 -27 -6.00002
v -18 -27 -6.00002
v -18 -27 -2.000004
v -18 -30 -1.999998
v -18 -27 -6.00002
v -18 -30 -5.999999
v -18 -30 -1.999998
v -22 -30 -1.999998
v -18 -30 -5.999999
v -22 -30 -5.999999
v -22 -30 -1.999998
v -22 -27 -2.000004
v -22 -30 -5.999999
v -22 -27 -6.00002
v -22 -27 -6.00002
v -18 -27 -6.00002
v -22 -30 -5.999999
v -18 -30 -5.999999
v -22 -30 -1.999998
v -18 -30 -1.999998
v -22 -27 -2.000004
v -18 -27 -2.000004
f 1291 1292 1293
f 1292 1294 1293
f 1295 1296 1297
f 1296 1298 1297
f 1299 1300 1301
f 1300 1302 1301
f 1303 1304 1305
f 1304 1306 1305
f 1307 1308 1309
f 1308 1310 1309
f 1311 1312 1313
f 1312 1314 1313
v 2 -16 19.99999
v 6 -16 19.99999
v 2 -16 15.99997
v 6 -16 15.99997
v 6 -16 19.99999
v 6 -30 20
v 6 -16 15.99997
v 6 -30 16
v 6 -30 20
v 2 -30 20
v 6 -30 16
v 2 -30 16
v 2 -30 20
v 2 -16 19.99999
v 2 -30 16
v 2 -16 15.99997
v 2 -16 15.99997
v 6 -16 15.99997
v 2 -30 16
v 6 -30 16
v 2 -30 20
v 6 -30 20
v 2 -16 19.99999
v 6 -16 19.99999
f 1315 1316 1317
f 1316 1318 1317
f 1319 1320 1321
f 1320 1322 1321
f 1323 1324 1325
f 1324 1326 1325
f 1327 1328 1329
f 1328 1330 1329
f 1331 1332 1333
f 1332 1334 1333
f 1335 1336 1337
f 1336 1338 1337
v -18 -24 5.999994
v -14 -24 5.999994
v -18 -24 1.999982
v -14 -24 1.999982
v -14 -24 5.999994
v -14 -30 6.000002
v -14 -24 1.999982
v -14 -30 2.000001
v -14 -30 6.000002
v -18 -30 6.000002
v -14 -30 2.000001
v -18 -30 2.000001
v -18 -30 6.000002
v -18 -24 5.999994
v -18 -30 2.000001
v -18 -24 1.999982
v -18 -24 1.999982
v -14 -24 1.999982
v -18 -30 2.000001
v -14 -30 2.000001
v -18 -30 6.000002
v -14 -30 6.000002
v -18 -24 5.999994
v -14 -24 5.999994
f 1339 1340 1341
f 1340 1342 1341
f 1343 1344 1345
f 1344 1346 1345
f 1347 1348 1349
f 1348 1350 1349
f 1351 1352 1353
f 1352 1354 1353
f 1355 1356 1357
f 1356 1358 1357
f 1359 1360 1361
f 1360 1362 1361
v -14 -7 2
v -10 -7 2
v -14 -4 2
v -10 -4 2
v -10 -7 2
v -10 -7 -2
v -10 -4 2
v -10 -4 -2
v -10 -7 -2
v -14 -7 -2
v -10 -4 -2
v -14 -4 -2
v -14 -7 -2
v -14 -7 2
v -14 -4 -2
v -14 -4 2
v -14 -4 2
v -10 -4 2
v -14 -4 -2
v -10 -4 -2
v -14 -7 -2
v -10 -7 -2
v -14 -7 2
v -10 -7 2
f 1363 1364 1365
f 1364 1366 1365
f 1367 1368 1369
f 1368 1370 1369
f 1371 1372 1373
f 1372 1374 1373
f 1375 1376 1377
f 1376 1378 1377
f 1379 1380 1381
f 1380 1382 1381
f 1383 1384 1385
f 1384 1386 1385
v -22 -12 -6.999998
v -34 -12 -7.000006
v -22 -10 -6.999998
v -34 -10 -7.000006
v -34 -12 6.999996
v -22 -12 7.000003
v -34 -10 6.999996
v -22 -10 7.000003
v -34 -12 0.9999948
v -34 -12 6.999996
v -34 -10 6.999996
v -34 -10 0.9999948
v -22 -10 1.000006
v -22 -10 7.000003
v -22 -12 7.000003
v -22 -12 1.000006
v -34 -10 0.9999948
v -34 -10 6.999996
v -22 -10 7.000003
v -22 -10 1.000006
v -22 -12 1.000006
v -22 -12 7.000003
v -34 -12 0.9999948
v -34 -12 6.999996
v -34 -12 -7.000006
v -34 -12 -1.000005
v -34 -10 -1.000005
v -34 -10 -7.000006
v -48 -12 -1
v -48 -12 1
v -48 -10 -1
v -48 -10 1
v -22 -10 -0.9999945
v -22 -12 -0.9999945
v -22 -10 -6.999998
v -22 -12 -6.999998
v -34 -10 -1.000005
v -22 -10 -0.9999945
v -34 -10 -7.000006
v -22 -10 -6.999998
v -22 -12 -6.999998
v -22 -12 -0.9999945
v -34 -12 -7.000006
v -34 -12 -1.000005
v -46 -12 -1.00002
v -46 -12 0.9999804
v -34 -10 -1.000005
v -34 -12 -1.000005
v -46 -10 -1.00002
v -46 -12 -1.00002
v -34 -12 0.9999948
v -34 -10 0.9999948
v -46 -12 0.9999804
v -46 -10 0.9999804
v -46 -10 0.9999804
v -46 -10 -1.00002
v -46 -30 -1.00002
v -46 -30 0.9999804
v -48 -30 -1
v -48 -30 1
v -46 -10 -1.00002
v -46 -12 -1.00002
v -48 -10 -1
v -48 -12 -1
v -48 -12 1
v -48 -10 1
v -48 -10 1
v -48 -10 -1
v -46 -12 -1.00002
v -46 -12 0.9999804
v -46 -30 -1.00002
v -46 -30 0.9999804
v -48 -30 -1
v -46 -30 -1.00002
v -46 -30 0.9999804
v -48 -30 1
v -48 -30 1
v -48 -30 -1
f 1387 1388 1389
f 1388 1390 1389
f 1391 1392 1393
f 1392 1394 1393
f 1395 1396 1397
f 1398 1395 1397
f 1399 1400 1401
f 1402 1399 1401
f 1403 1404 1405
f 1403 1405 1406
f 1407 1408 1409
f 1408 1410 1409
f 1411 1412 1413
f 1414 1411 1413
f 1415 1416 1417
f 1416 1418 1417
f 1419 1399 1402
f 1420 1419 1402
f 1419 1420 1421
f 1421 1420 1422
f 1403 1406 1423
f 1423 1406 1424
f 1423 1424 1425
f 1425 1424 1426
f 1427 1428 1429
f 1429 1428 1430
f 1428 1407 1430
f 1430 1407 1409
f 1430 1409 1431
f 1409 1432 1431
f 1433 1434 1435
f 1434 1436 1435
f 1437 1438 1439
f 1438 1440 1439
f 1403 1423 1441
f 1423 1442 1441
f 1443 1444 1445
f 1444 1446 1445
f 1447 1448 1449
f 1448 1450 1449
f 1439 1440 1451
f 1440 1452 1451
f 1441 1442 1453
f 1442 1454 1453
f 1455 1456 1457
f 1456 1458 1457
f 1450 1448 1459
f 1448 1460 1459
f 1439 1451 1461
f 1451 1462 1461
f 1416 1415 1463
f 1415 1464 1463
v -23 -16 16.49999
v -19 -16 16.49999
v -23 -16 12.49997
v -19 -16 12.49997
v -19 -16 16.49999
v -19 -30 16.5
v -19 -16 12.49997
v -19 -30 12.5
v -19 -30 16.5
v -23 -30 16.5
v -19 -30 12.5
v -23 -30 12.5
v -23 -30 16.5
v -23 -16 16.49999
v -23 -30 12.5
v -23 -16 12.49997
v -23 -16 12.49997
v -19 -16 12.49997
v -23 -30 12.5
v -19 -30 12.5
v -23 -30 16.5
v -19 -30 16.5
v -23 -16 16.49999
v -19 -16 16.49999
f 1465 1466 1467
f 1466 1468 1467
f 1469 1470 1471
f 1470 1472 1471
f 1473 1474 1475
f 1474 1476 1475
f 1477 1478 1479
f 1478 1480 1479
f 1481 1482 1483
f 1482 1484 1483
f 1485 1486 1487
f 1486 1488 1487
v -27 -13 16.49998
v -23 -13 16.49998
v -27 -13 12.49997
v -23 -13 12.49997
v -23 -13 16.49998
v -23 -30 16.5
v -23 -13 12.49997
v -23 -30 12.5
v -23 -30 16.5
v -27 -30 16.5
v -23 -30 12.5
v -27 -30 12.5
v -27 -30 16.5
v -27 -13 16.49998
v -27 -30 12.5
v -27 -13 12.49997
v -27 -13 12.49997
v -23 -13 12.49997
v -27 -30 12.5
v -23 -30 12.5
v -27 -30 16.5
v -23 -30 16.5
v -27 -13 16.49998
v -23 -13 16.49998
f 1489 1490 1491
f 1490 1492 1491
f 1493 1494 1495
f 1494 1496 1495
f 1497 1498 1499
f 1498 1500 1499
f 1501 1502 1503
f 1502 1504 1503
f 1505 1506 1507
f 1506 1508 1507
f 1509 1510 1511
f 1510 1512 1511
v 2 -5 -10
v 8 -5 -10
v 2 -4 -10
v 8 -4 -10
v 8 -5 -10
v 8 -5 -14
v 8 -4 -10
v 8 -4 -14
v 8 -5 -14
v 2 -5 -14
v 8 -4 -14
v 2 -4 -14
v 2 -5 -14
v 2 -5 -10
v 2 -4 -14
v 2 -4 -10
v 2 -4 -10
v 8 -4 -10
v 2 -4 -14
v 8 -4 -14
v 2 -5 -14
v 8 -5 -14
v 2 -5 -10
v 8 -5 -10
f 1513 1514 1515
f 1514 1516 1515
f 1517 1518 1519
f 1518 1520 1519
f 1521 1522 1523
f 1522 1524 1523
f 1525 1526 1527
f 1526 1528 1527
f 1529 1530 1531
f 1530 1532 1531
f 1533 1534 1535
f 1534 1536 1535
v -29 -15 -14.00001
v -27 -15 -14.00001
v -29 -15 -16.00001
v -27 -15 -16.00001
v -27 -15 -14.00001
v -27 -30 -14
v -27 -15 -16.00001
v -27 -30 -16
v -27 -30 -14
v -29 -30 -14
v -27 -30 -16
v -29 -30 -16
v -29 -30 -14
v -29 -15 -14.00001
v -29 -30 -16
v -29 -15 -16.00001
v -29 -15 -16.00001
v -27 -15 -16.00001
v -29 -30 -16
v -27 -30 -16
v -29 -30 -14
v -27 -30 -14
v -29 -15 -14.00001
v -27 -15 -14.00001
f 1537 1538 1539
f 1538 1540 1539
f 1541 1542 1543
f 1542 1544 1543
f 1545 1546 1547
f 1546 1548 1547
f 1549 1550 1551
f 1550 1552 1551
f 1553 1554 1555
f 1554 1556 1555
f 1557 1558 1559
f 1558 1560 1559
v 10 -8 10
v 14 -8 10
v 10 -5 10
v 14 -5 10
v 14 -8 10
v 14 -8 6
v 14 -5 10
v 14 -5 6
v 14 -8 6
v 10 -8 6
v 14 -5 6
v 10 -5 6
v 10 -8 6
v 10 -8 10
v 10 -5 6
v 10 -5 10
v 10 -5 10
v 14 -5 10
v 10 -5 6
v 14 -5 6
v 10 -8 6
v 14 -8 6
v 10 -8 10
v 14 -8 10
f 1561 1562 1563
f 1562 1564 1563
f 1565 1566 1567
f 1566 1568 1567
f 1569 1570 1571
f 1570 1572 1571
f 1573 1574 1575
f 1574 1576 1575
f 1577 1578 1579
f 1578 1580 1579
f 1581 1582 1583
f 1582 1584 1583
v 4 -12 -8
v 8 -12 -8
v 4 -11 -8
v 8 -11 -8
v 8 -12 -8
v 8 -12 -16
v 8 -11 -8
v 8 -11 -16
v 8 -12 -16
v 4 -12 -16
v 8 -11 -16
v 4 -11 -16
v 4 -12 -16
v 4 -12 -8
v 4 -11 -16
v 4 -11 -8
v 4 -11 -8
v 8 -11 -8
v 4 -11 -16
v 8 -11 -16
v 4 -12 -16
v 8 -12 -16
v 4 -12 -8
v 8 -12 -8
f 1585 1586 1587
f 1586 1588 1587
f 1589 1590 1591
f 1590 1592 1591
f 1593 1594 1595
f 1594 1596 1595
f 1597 1598 1599
f 1598 1600 1599
f 1601 1602 1603
f 1602 1604 1603
f 1605 1606 1607
f 1606 1608 1607
v -18 -24 -2.000006
v -14 -24 -2.000006
v -18 -24 -6.000018
v -14 -24 -6.000018
v -14 -24 -2.000006
v -14 -30 -1.999998
v -14 -24 -6.000018
v -14 -30 -5.999999
v -14 -30 -1.999998
v -18 -30 -1.999998
v -14 -30 -5.999999
v -18 -30 -5.999999
v -18 -30 -1.999998
v -18 -24 -2.000006
v -18 -30 -5.999999
v -18 -24 -6.000018
v -18 -24 -6.000018
v -14 -24 -6.000018
v -18 -30 -5.999999
v -14 -30 -5.999999
v -18 -30 -1.999998
v -14 -30 -1.999998
v -18 -24 -2.000006
v -14 -24 -2.000006
f 1609 1610 1611
f 1610 1612 1611
f 1613 1614 1615
f 1614 1616 1615
f 1617 1618 1619
f 1618 1620 1619
f 1621 1622 1623
f 1622 1624 1623
f 1625 1626 1627
f 1626 1628 1627
f 1629 1630 1631
f 1630 1632 1631
v -5 -30 25
v -9 -30 25
v -5 -30 21
v -9 -30 21
v -5 -26 25
v -5 -30 25
v -5 -30 21
v -5 -26 21
v -9 -30 21
v -9 -26 25
v -9 -26 21
v -9 -30 25
v -5 -30 21
v -9 -30 21
v -9 -26 21
v -5 -26 21
v -9 -26 25
v -5 -30 25
v -5 -26 25
v -9 -30 25
v -5 -22 20.99999
v -5 -22 24.99999
v -5 -26 21
v -5 -26 25
v -9 -26 21
v -9 -26 25
v -9 -22 24.99999
v -9 -22 20.99999
v -5 -26 21
v -9 -26 21
v -9 -22 20.99999
v -5 -22 20.99999
v -9 -22 24.99999
v -5 -26 25
v -5 -22 24.99999
v -9 -26 25
v -5 -18 20.99998
v -5 -18 24.99999
v -5 -22 20.99999
v -5 -22 24.99999
v -9 -22 20.99999
v -9 -22 24.99999
v -9 -18 24.99999
v -9 -18 20.99998
v -5 -22 20.99999
v -9 -22 20.99999
v -9 -18 20.99998
v -5 -18 20.99998
v -9 -18 24.99999
v -5 -22 24.99999
v -5 -18 24.99999
v -9 -22 24.99999
v -5 -14 20.99997
v -5 -14 24.99998
v -5 -18 20.99998
v -5 -18 24.99999
v -9 -18 20.99998
v -9 -18 24.99999
v -9 -14 24.99998
v -9 -14 20.99997
v -5 -18 20.99998
v -9 -18 20.99998
v -9 -14 20.99997
v -5 -14 20.99997
v -9 -14 24.99998
v -5 -18 24.99999
v -5 -14 24.99998
v -9 -18 24.99999
v -9 -9.999996 24.99997
v -5 -9.999996 24.99997
v -9 -9.999996 20.99995
v -5 -9.999996 20.99995
v -5 -9.999996 20.99995
v -5 -9.999996 24.99997
v -5 -14 20.99997
v -5 -14 24.99998
v -9 -14 20.99997
v -9 -14 24.99998
v -9 -9.999996 24.99997
v -9 -9.999996 20.99995
v -5 -14 20.99997
v -9 -14 20.99997
v -9 -9.999996 20.99995
v -5 -9.999996 20.99995
v -9 -9.999996 24.99997
v -5 -14 24.99998
v -5 -9.999996 24.99997
v -9 -14 24.99998
f 1633 1634 1635
f 1634 1636 1635
f 1637 1638 1639
f 1640 1637 1639
f 1641 1642 1643
f 1641 1644 1642
f 1645 1646 1647
f 1648 1645 1647
f 1649 1650 1651
f 1649 1652 1650
f 1653 1654 1655
f 1654 1656 1655
f 1657 1658 1659
f 1657 1659 1660
f 1661 1662 1663
f 1664 1661 1663
f 1665 1666 1667
f 1665 1668 1666
f 1669 1670 1671
f 1670 1672 1671
f 1673 1674 1675
f 1673 1675 1676
f 1677 1678 1679
f 1680 1677 1679
f 1681 1682 1683
f 1681 1684 1682
f 1685 1686 1687
f 1686 1688 1687
f 1689 1690 1691
f 1689 1691 1692
f 1693 1694 1695
f 1696 1693 1695
f 1697 1698 1699
f 1697 1700 1698
f 1701 1702 1703
f 1702 1704 1703
f 1705 1706 1707
f 1706 1708 1707
f 1709 1710 1711
f 1709 1711 1712
f 1713 1714 1715
f 1716 1713 1715
f 1717 1718 1719
f 1717 1720 1718
v -50 30 50
v 50 30 50
v 50 -30 50
v -50 -30 50
v 50 30 50
v 50 30 -50
v 50 -30 -50
v 50 -30 50
v 50 30 -50
v -50 30 -50
v -50 -30 -50
v 50 -30 -50
v -50 30 -50
v -50 30 50
v -50 -30 50
v -50 -30 -50
v -50 30 -50
v 50 30 -50
v 50 30 50
v -50 30 50
v -50 -30 50
v 50 -30 50
v 50 -30 -50
v -50 -30 -50
f 1721 1722 1723
f 1721 1723 1724
f 1725 1726 1727
f 1725 1727 1728
f 1729 1730 1731
f 1729 1731 1732
f 1733 1734 1735
f 1733 1735 1736
f 1737 1738 1739
f 1737 1739 1740
f 1741 1742 1743
f 1741 1743 1744
v 10 -10 10
v 14 -10 10
v 10 -8 10
v 14 -8 10
v 14 -10 10
v 14 -10 2
v 14 -8 10
v 14 -8 2
v 14 -10 2
v 10 -10 2
v 14 -8 2
v 10 -8 2
v 10 -10 2
v 10 -10 10
v 10 -8 2
v 10 -8 10
v 10 -8 10
v 14 -8 10
v 10 -8 2
v 14 -8 2
v 10 -10 2
v 14 -10 2
v 10 -10 10
v 14 -10 10
f 1745 1746 1747
f 1746 1748 1747
f 1749 1750 1751
f 1750 1752 1751
f 1753 1754 1755
f 1754 1756 1755
f 1757 1758 1759
f 1758 1760 1759
f 1761 1762 1763
f 1762 1764 1763
f 1765 1766 1767
f 1766 1768 1767
v -48.55049 15.93245 -7.544178
v -48.56634 15.93245 11.59203
v -50.46572 15.93245 -7.545764
v -50.48158 15.93245 11.59044
v -50.46573 4.667546 -7.545764
v -50.48158 4.667546 11.59044
v -48.5505 4.667545 -7.544178
v -48.56635 4.667545 11.59203
v -50.46572 15.93245 -7.545764
v -50.48158 15.93245 11.59044
v -50.46573 4.667546 -7.545764
v -50.48158 4.667546 11.59044
v -48.5505 4.667545 -7.544178
v -48.55049 15.93245 -7.544178
v -48.56634 15.93245 11.59203
v -48.56635 4.667545 11.59203
v -48.56634 15.93245 11.59203
v -50.48158 15.93245 11.59044
v -50.48158 4.667546 11.59044
v -48.56635 4.667545 11.59203
v -48.5505 4.667545 -7.544178
v -50.46573 4.667546 -7.545764
v -50.46572 15.93245 -7.545764
v -48.55049 15.93245 -7.544178
f 1769 1771 1772
f 1769 1772 1770
f 1777 1773 1774
f 1777 1774 1778
f 1779 1775 1776
f 1779 1776 1780
f 1781 1782 1783
f 1781 1783 1784
f 1785 1786 1787
f 1785 1787 1788
f 1789 1790 1791
f 1789 1791 1792
v 48.47592 14.39048 -4.745168
v 48.47591 -4.176207 -4.745161
v 50.33415 14.39048 -4.743682
v 50.33414 -4.176208 -4.743675
v 50.32541 14.39049 6.185965
v 50.32541 -4.176204 6.185972
v 48.46718 14.39049 6.184479
v 48.46717 -4.176202 6.184486
v 50.33415 14.39048 -4.743682
v 50.33414 -4.176208 -4.743675
v 50.32541 14.39049 6.185965
v 50.32541 -4.176204 6.185972
v 48.46718 14.39049 6.184479
v 48.47592 14.39048 -4.745168
v 48.47591 -4.176207 -4.745161
v 48.46717 -4.176202 6.184486
v 48.47591 -4.176207 -4.745161
v 50.33414 -4.176208 -4.743675
v 50.32541 -4.176204 6.185972
v 48.46717 -4.176202 6.184486
v 48.46718 14.39049 6.184479
v 50.32541 14.39049 6.185965
v 50.33415 14.39048 -4.743682
v 48.47592 14.39048 -4.745168
f 1793 1795 1796
f 1793 1796 1794
f 1801 1797 1798
f 1801 1798 1802
f 1803 1799 1800
f 1803 1800 1804
f 1805 1806 1807
f 1805 1807 1808
f 1809 1810 1811
f 1809 1811 1812
f 1813 1814 1815
f 1813 1815 1816
v -4.305182 14.39048 -48.47611
v -4.305174 -4.176207 -48.4761
v -4.303632 14.39048 -50.33434
v -4.303623 -4.176208 -50.33434
v 6.626013 14.39049 -50.32522
v 6.626021 -4.176203 -50.32522
v 6.624462 14.39049 -48.46699
v 6.624471 -4.176202 -48.46698
v -4.303632 14.39048 -50.33434
v -4.303623 -4.176208 -50.33434
v 6.626013 14.39049 -50.32522
v 6.626021 -4.176203 -50.32522
v 6.624462 14.39049 -48.46699
v -4.305182 14.39048 -48.47611
v -4.305174 -4.176207 -48.4761
v 6.624471 -4.176202 -48.46698
v -4.305174 -4.176207 -48.4761
v -4.303623 -4.176208 -50.33434
v 6.626021 -4.176203 -50.32522
v 6.624471 -4.176202 -48.46698
v 6.624462 14.39049 -48.46699
v 6.626013 14.39049 -50.32522
v -4.303632 14.39048 -50.33434
v -4.305182 14.39048 -48.47611
f 1817 1819 1820
f 1817 1820 1818
f 1825 1821 1822
f 1825 1822 1826
f 1827 1823 1824
f 1827 1824 1828
f 1829 1830 1831
f 1829 1831 1832
f 1833 1834 1835
f 1833 1835 1836
f 1837 1838 1839
f 1837 1839 1840
v 6.624689 14.39048 48.57607
v 6.62468 -4.176207 48.57607
v 6.623148 14.39048 50.43431
v 6.62314 -4.176207 50.43431
v -4.306495 14.39049 50.42525
v -4.306504 -4.176201 50.42525
v -4.304955 14.39049 48.56701
v -4.304964 -4.176201 48.56701
v 6.623148 14.39048 50.43431
v 6.62314 -4.176207 50.43431
v -4.306495 14.39049 50.42525
v -4.306504 -4.176201 50.42525
v -4.304955 14.39049 48.56701
v 6.624689 14.39048 48.57607
v 6.62468 -4.176207 48.57607
v -4.304964 -4.176201 48.56701
v 6.62468 -4.176207 48.57607
v 6.62314 -4.176207 50.43431
v -4.306504 -4.176201 50.42525
v -4.304964 -4.176201 48.56701
v -4.304955 14.39049 48.56701
v -4.306495 14.39049 50.42525
v 6.623148 14.39048 50.43431
v 6.624689 14.39048 48.57607
f 1841 1843 1844
f 1841 1844 1842
f 1849 1845 1846
f 1849 1846 1850
f 1851 1847 1848
f 1851 1848 1852
f 1853 1854 1855
f 1853 1855 1856
f 1857 1858 1859
f 1857 1859 1860
f 1861 1862 1863
f 1861 1863 1864
