v -91.58258 -134.6 91.58256
v -39.24968 -134.6 117.749
v -14.4 -19.4 43.2
v -33.6 -19.4 33.6
v -14.4 -19.4 -43.2
v -91.58258 -134.6 -88.31178
v -33.6 -19.4 -32.4
v -39.24968 -134.6 -117.749
v -39.24968 -134.6 117.749
v 39.24968 -134.6 117.749
v 14.4 -19.4 43.2
v -14.4 -19.4 43.2
v 39.24968 -134.6 117.749
v 91.58256 -134.6 91.58256
v 33.6 -19.4 33.6
v 14.4 -19.4 43.2
v 14.4 -19.4 -43.2
v -39.24968 -134.6 -117.749
v -14.4 -19.4 -43.2
v 39.24968 -134.6 -117.749
v 33.6 -19.4 -32.4
v 39.24968 -134.6 -117.749
v 14.4 -19.4 -43.2
v 91.58256 -134.6 -88.31178
v 91.58256 -134.6 91.58256
v 117.749 -134.6 39.24968
v 43.2 -19.4 14.4
v 33.6 -19.4 33.6
v -43.2 -19.4 14.4
v -91.58258 -134.6 91.58256
v -33.6 -19.4 33.6
v -117.749 -134.6 39.24968
v -14.4 -19.4 24
v -43.2 -19.4 14.4
v -33.6 -19.4 33.6
v -14.4 -19.4 43.2
v -91.58258 -134.6 91.58256
v -39.24968 -134.6 65.41612
v -39.24968 -134.6 117.749
v -117.749 -134.6 39.24968
v 43.2 -19.4 14.4
v 14.4 -19.4 24
v 14.4 -19.4 43.2
v 33.6 -19.4 33.6
v 39.24968 -134.6 117.749
v 117.749 -134.6 39.24968
v 91.58256 -134.6 91.58256
v 39.24968 -134.6 65.41612
v 117.749 -134.6 39.24968
v 117.749 -134.6 -39.24968
v 43.2 -19.4 -14.4
v 43.2 -19.4 14.4
v 117.749 -134.6 -39.24968
v 91.58256 -134.6 -88.31178
v 33.6 -19.4 -32.4
v 43.2 -19.4 -14.4
v -43.2 -19.4 -14.4
v -117.749 -134.6 39.24968
v -43.2 -19.4 14.4
v -117.749 -134.6 -39.24968
v -33.6 -19.4 -32.4
v -117.749 -134.6 -39.24968
v -43.2 -19.4 -14.4
v -91.58258 -134.6 -88.31178
v -14.4 -19.4 -43.2
v -33.6 -19.4 -32.4
v -43.2 -19.4 -14.4
v -14.4 -19.4 -25.2
v -117.749 -134.6 -39.24968
v -39.24968 -134.6 -117.749
v -39.24968 -134.6 -68.68694
v -91.58258 -134.6 -88.31178
v 33.6 -19.4 -32.4
v 14.4 -19.4 -43.2
v 14.4 -19.4 -25.2
v 43.2 -19.4 -14.4
v 39.24968 -134.6 -68.68694
v 91.58256 -134.6 -88.31178
v 117.749 -134.6 -39.24968
v 39.24968 -134.6 -117.749
f 1 2 3
f 4 1 3
f 5 6 7
f 5 8 6
f 9 10 11
f 12 9 11
f 13 14 15
f 16 13 15
f 17 18 19
f 17 20 18
f 21 22 23
f 21 24 22
f 25 26 27
f 28 25 27
f 29 30 31
f 29 32 30
f 33 34 35
f 36 33 35
f 37 38 39
f 37 40 38
f 41 42 43
f 44 41 43
f 42 33 36
f 43 42 36
f 45 46 47
f 45 48 46
f 39 48 45
f 39 38 48
f 49 50 51
f 52 49 51
f 53 54 55
f 56 53 55
f 57 58 59
f 57 60 58
f 61 62 63
f 61 64 62
f 65 66 67
f 68 65 67
f 68 67 34
f 33 68 34
f 69 70 71
f 69 72 70
f 40 71 38
f 40 69 71
f 73 74 75
f 76 73 75
f 76 75 42
f 41 76 42
f 74 65 68
f 75 74 68
f 75 68 33
f 42 75 33
f 77 78 79
f 77 80 78
f 48 79 46
f 48 77 79
f 71 80 77
f 71 70 80
f 38 77 48
f 38 71 77
v -13.43359 0.03991847 139.3376
v 13.88197 0.03991761 139.3618
v -13.43602 0.03991994 142.0714
v 13.87954 0.03991908 142.0957
v -13.43602 -16.03992 142.0714
v 13.87954 -16.03992 142.0957
v -13.43359 -16.03992 139.3376
v 13.88197 -16.03992 139.3618
v -13.43602 0.03991994 142.0714
v 13.87954 0.03991908 142.0957
v -13.43602 -16.03992 142.0714
v 13.87954 -16.03992 142.0957
v -13.43359 -16.03992 139.3376
v -13.43359 0.03991847 139.3376
v 13.88197 0.03991761 139.3618
v 13.88197 -16.03992 139.3618
v 13.88197 0.03991761 139.3618
v 13.87954 0.03991908 142.0957
v 13.87954 -16.03992 142.0957
v 13.88197 -16.03992 139.3618
v -13.43359 -16.03992 139.3376
v -13.43602 -16.03992 142.0714
v -13.43602 0.03991994 142.0714
v -13.43359 0.03991847 139.3376
f 81 83 84
f 81 84 82
f 89 85 86
f 89 86 90
f 91 87 88
f 91 88 92
f 93 94 95
f 93 95 96
f 97 98 99
f 97 99 100
f 101 102 103
f 101 103 104
