v -36 30 36
v 36 30 36
v 36 -20 36
v -36 -20 36
v 36 30 -36
v -36 30 -36
v -36 -20 -36
v 36 -20 -36
v 36 30 -36
v 36 -20 -22
v 36 30 -22
v 36 -20 -36
v -36 -20 -22
v -36 -20 -36
v -36 30 -36
v -36 30 -22
v -36 30 -22
v 36 30 -36
v 36 30 -22
v -36 30 -36
v 36 30 22
v 36 -20 36
v 36 30 36
v 36 -20 22
v -36 -20 36
v -36 -20 22
v -36 30 22
v -36 30 36
v -36 30 22
v 36 30 22
v -36 30 36
v 36 30 36
v 36 -13 -36
v -36 -13 -36
v -36 -13 -22
v 36 -13 -22
v 36 -20 -22
v -36 -20 -22
v -36 -20 22
v 36 -20 22
v 36 -13 22
v -36 -13 22
v -36 -13 36
v 36 -13 36
v -36 -20 22
v -36 -20 36
v -36 -13 22
v -36 -13 36
v 36 -20 36
v 36 -20 22
v 36 -13 36
v 36 -13 22
v -36 -20 36
v 36 -20 36
v -36 -13 36
v 36 -13 36
v 36 -20 -36
v -36 -20 -36
v 36 -13 -36
v -36 -13 -36
v -36 -20 -36
v -36 -20 -22
v -36 -13 -36
v -36 -13 -22
v 36 -20 -22
v 36 -20 -36
v 36 -13 -22
v 36 -13 -36
v 36 -20 22
v -36 -20 22
v 36 -13 22
v -36 -13 22
v -36 -20 -22
v 36 -20 -22
v -36 -13 -22
v 36 -13 -22
f 1 2 3
f 1 3 4
f 5 6 7
f 5 7 8
f 9 10 11
f 9 12 10
f 13 14 15
f 16 13 15
f 17 18 19
f 17 20 18
f 21 22 23
f 21 24 22
f 11 24 21
f 11 10 24
f 25 26 27
f 28 25 27
f 26 13 16
f 27 26 16
f 29 19 30
f 29 17 19
f 31 30 32
f 31 29 30
f 33 34 35
f 36 33 35
f 37 38 39
f 40 37 39
f 41 42 43
f 44 41 43
f 45 46 47
f 46 48 47
f 49 50 51
f 50 52 51
f 53 54 55
f 54 56 55
f 57 58 59
f 58 60 59
f 61 62 63
f 62 64 63
f 65 66 67
f 66 68 67
f 69 70 71
f 70 72 71
f 73 74 75
f 74 76 75
v -12.77771 -19.72186 4.752575
v -13.33985 -20.00863 4.332339
v -11.80047 -19.9734 4.39571
v -11.27058 -19.73983 3.290507
v -11.41722 -19.02638 3.845059
v -11.80047 -19.9734 4.39571
v -11.81479 -20.02125 2.408365
v -12.64312 -19.0641 1.6661
v -11.85466 -19.42323 2.149498
v -13.48856 -18.52467 3.9128
v -12.73405 -18.15704 3.194768
v -14.05611 -18.54288 2.311487
v -13.48856 -18.52467 3.9128
v -14.05611 -18.54288 2.311487
v -14.3379 -18.76873 2.997401
v -14.05611 -18.54288 2.311487
v -12.73405 -18.15704 3.194768
v -13.26894 -18.5784 1.84697
v -13.26894 -18.5784 1.84697
v -12.73405 -18.15704 3.194768
v -11.94568 -18.5619 2.536622
v -13.26894 -18.5784 1.84697
v -11.94568 -18.5619 2.536622
v -12.64312 -19.0641 1.6661
v -11.94568 -18.5619 2.536622
v -12.73405 -18.15704 3.194768
v -11.41722 -19.02638 3.845059
v -11.41722 -19.02638 3.845059
v -12.73405 -18.15704 3.194768
v -12.1239 -18.97913 4.56231
v -12.73405 -18.15704 3.194768
v -13.48856 -18.52467 3.9128
v -12.1239 -18.97913 4.56231
v -14.32051 -19.43445 3.592489
v -13.48856 -18.52467 3.9128
v -14.3379 -18.76873 2.997401
v -14.12473 -19.5075 1.930652
v -14.3379 -18.76873 2.997401
v -14.05611 -18.54288 2.311487
v -14.12473 -19.5075 1.930652
v -14.05611 -18.54288 2.311487
v -13.26894 -18.5784 1.84697
v -11.85466 -19.42323 2.149498
v -12.64312 -19.0641 1.6661
v -11.94568 -18.5619 2.536622
v -11.27058 -19.73983 3.290507
v -11.94568 -18.5619 2.536622
v -11.41722 -19.02638 3.845059
v -12.77771 -19.72186 4.752575
v -12.1239 -18.97913 4.56231
v -13.48856 -18.52467 3.9128
v -14.21048 -20.00457 3.211528
v -14.12473 -19.5075 1.930652
v -13.57074 -20.06117 1.962819
v -14.12473 -19.5075 1.930652
v -13.26894 -18.5784 1.84697
v -12.64312 -19.0641 1.6661
v -14.12473 -19.5075 1.930652
v -12.64312 -19.0641 1.6661
v -13.57074 -20.06117 1.962819
v -13.57074 -20.06117 1.962819
v -12.64312 -19.0641 1.6661
v -11.81479 -20.02125 2.408365
v -11.85466 -19.42323 2.149498
v -11.94568 -18.5619 2.536622
v -11.27058 -19.73983 3.290507
v -11.85466 -19.42323 2.149498
v -11.27058 -19.73983 3.290507
v -11.81479 -20.02125 2.408365
v -11.41722 -19.02638 3.845059
v -12.1239 -18.97913 4.56231
v -11.80047 -19.9734 4.39571
v -11.80047 -19.9734 4.39571
v -12.1239 -18.97913 4.56231
v -12.77771 -19.72186 4.752575
v -12.77771 -19.72186 4.752575
v -13.48856 -18.52467 3.9128
v -14.32051 -19.43445 3.592489
v -12.77771 -19.72186 4.752575
v -14.32051 -19.43445 3.592489
v -13.33985 -20.00863 4.332339
v -13.33985 -20.00863 4.332339
v -14.32051 -19.43445 3.592489
v -14.21048 -20.00457 3.211528
v -13.33985 -20.00863 4.332339
v -14.21048 -20.00457 3.211528
v -13.57074 -20.06117 1.962819
v -11.80047 -19.9734 4.39571
v -11.81479 -20.02125 2.408365
v -11.27058 -19.73983 3.290507
v -11.80047 -19.9734 4.39571
v -13.33985 -20.00863 4.332339
v -13.57074 -20.06117 1.962819
v -11.81479 -20.02125 2.408365
v -14.32051 -19.43445 3.592489
v -14.3379 -18.76873 2.997401
v -14.12473 -19.5075 1.930652
v -14.21048 -20.00457 3.211528
f 77 78 79
f 80 81 82
f 83 84 85
f 86 87 88
f 89 90 91
f 92 93 94
f 95 96 97
f 98 99 100
f 101 102 103
f 104 105 106
f 107 108 109
f 110 111 112
f 113 114 115
f 116 117 118
f 119 120 121
f 122 123 124
f 125 126 127
f 128 129 130
f 131 132 133
f 134 135 136
f 137 138 139
f 140 141 142
f 143 144 145
f 146 147 148
f 149 150 151
f 152 153 154
f 155 156 157
f 158 159 160
f 161 162 163
f 164 165 166
f 167 168 169
f 169 170 167
f 171 172 173
f 171 173 174
v 10.17373 -19.72186 -2.075175
v 10.47523 -20.00863 -2.70897
v 10.71577 -19.9734 -1.187175
v 11.90358 -19.73983 -0.8849254
v 11.33102 -19.02638 -0.9196763
v 10.71577 -19.9734 -1.187175
v 12.66151 -20.02125 -1.591956
v 13.22642 -19.0641 -2.550061
v 12.90748 -19.42323 -1.681948
v 10.85734 -18.52467 -2.937262
v 11.70971 -18.15704 -2.338655
v 12.31581 -18.54288 -3.808579
v 10.85734 -18.52467 -2.937262
v 12.31581 -18.54288 -3.808579
v 11.58788 -18.76873 -3.950007
v 12.31581 -18.54288 -3.808579
v 11.70971 -18.15704 -2.338655
v 12.92603 -18.5784 -3.128102
v 12.92603 -18.5784 -3.128102
v 11.70971 -18.15704 -2.338655
v 12.51002 -18.5619 -1.695078
v 12.92603 -18.5784 -3.128102
v 12.51002 -18.5619 -1.695078
v 13.22642 -19.0641 -2.550061
v 12.51002 -18.5619 -1.695078
v 11.70971 -18.15704 -2.338655
v 11.33102 -19.02638 -0.9196763
v 11.33102 -19.02638 -0.9196763
v 11.70971 -18.15704 -2.338655
v 10.48883 -18.97913 -1.471536
v 11.70971 -18.15704 -2.338655
v 10.85734 -18.52467 -2.937262
v 10.48883 -18.97913 -1.471536
v 11.00783 -19.43445 -3.815949
v 10.85734 -18.52467 -2.937262
v 11.58788 -18.76873 -3.950007
v 12.67572 -19.5075 -3.950736
v 11.58788 -18.76873 -3.950007
v 12.31581 -18.54288 -3.808579
v 12.67572 -19.5075 -3.950736
v 12.31581 -18.54288 -3.808579
v 12.92603 -18.5784 -3.128102
v 12.90748 -19.42323 -1.681948
v 13.22642 -19.0641 -2.550061
v 12.51002 -18.5619 -1.695078
v 11.90358 -19.73983 -0.8849254
v 12.51002 -18.5619 -1.695078
v 11.33102 -19.02638 -0.9196763
v 10.17373 -19.72186 -2.075175
v 10.48883 -18.97913 -1.471536
v 10.85734 -18.52467 -2.937262
v 11.40299 -20.00457 -3.782974
v 12.67572 -19.5075 -3.950736
v 12.75311 -20.06117 -3.401234
v 12.67572 -19.5075 -3.950736
v 12.92603 -18.5784 -3.128102
v 13.22642 -19.0641 -2.550061
v 12.67572 -19.5075 -3.950736
v 13.22642 -19.0641 -2.550061
v 12.75311 -20.06117 -3.401234
v 12.75311 -20.06117 -3.401234
v 13.22642 -19.0641 -2.550061
v 12.66151 -20.02125 -1.591956
v 12.90748 -19.42323 -1.681948
v 12.51002 -18.5619 -1.695078
v 11.90358 -19.73983 -0.8849254
v 12.90748 -19.42323 -1.681948
v 11.90358 -19.73983 -0.8849254
v 12.66151 -20.02125 -1.591956
v 11.33102 -19.02638 -0.9196763
v 10.48883 -18.97913 -1.471536
v 10.71577 -19.9734 -1.187175
v 10.71577 -19.9734 -1.187175
v 10.48883 -18.97913 -1.471536
v 10.17373 -19.72186 -2.075175
v 10.17373 -19.72186 -2.075175
v 10.85734 -18.52467 -2.937262
v 11.00783 -19.43445 -3.815949
v 10.17373 -19.72186 -2.075175
v 11.00783 -19.43445 -3.815949
v 10.47523 -20.00863 -2.70897
v 10.47523 -20.00863 -2.70897
v 11.00783 -19.43445 -3.815949
v 11.40299 -20.00457 -3.782974
v 10.47523 -20.00863 -2.70897
v 11.40299 -20.00457 -3.782974
v 12.75311 -20.06117 -3.401234
v 10.71577 -19.9734 -1.187175
v 12.66151 -20.02125 -1.591956
v 11.90358 -19.73983 -0.8849254
v 10.71577 -19.9734 -1.187175
v 10.47523 -20.00863 -2.70897
v 12.75311 -20.06117 -3.401234
v 12.66151 -20.02125 -1.591956
v 11.00783 -19.43445 -3.815949
v 11.58788 -18.76873 -3.950007
v 12.67572 -19.5075 -3.950736
v 11.40299 -20.00457 -3.782974
f 175 176 177
f 178 179 180
f 181 182 183
f 184 185 186
f 187 188 189
f 190 191 192
f 193 194 195
f 196 197 198
f 199 200 201
f 202 203 204
f 205 206 207
f 208 209 210
f 211 212 213
f 214 215 216
f 217 218 219
f 220 221 222
f 223 224 225
f 226 227 228
f 229 230 231
f 232 233 234
f 235 236 237
f 238 239 240
f 241 242 243
f 244 245 246
f 247 248 249
f 250 251 252
f 253 254 255
f 256 257 258
f 259 260 261
f 262 263 264
f 265 266 267
f 267 268 265
f 269 270 271
f 269 271 272
v -34.55049 15.93245 -7.844178
v -34.56634 15.93245 11.29203
v -36.46572 15.93245 -7.845764
v -36.48158 15.93245 11.29044
v -36.46573 4.667546 -7.845764
v -36.48158 4.667546 11.29044
v -34.5505 4.667545 -7.844178
v -34.56635 4.667545 11.29203
v -36.46572 15.93245 -7.845764
v -36.48158 15.93245 11.29044
v -36.46573 4.667546 -7.845764
v -36.48158 4.667546 11.29044
v -34.5505 4.667545 -7.844178
v -34.55049 15.93245 -7.844178
v -34.56634 15.93245 11.29203
v -34.56635 4.667545 11.29203
v -34.56634 15.93245 11.29203
v -36.48158 15.93245 11.29044
v -36.48158 4.667546 11.29044
v -34.56635 4.667545 11.29203
v -34.5505 4.667545 -7.844178
v -36.46573 4.667546 -7.845764
v -36.46572 15.93245 -7.845764
v -34.55049 15.93245 -7.844178
f 273 275 276
f 273 276 274
f 281 277 278
f 281 278 282
f 283 279 280
f 283 280 284
f 285 286 287
f 285 287 288
f 289 290 291
f 289 291 292
f 293 294 295
f 293 295 296
v -32.41367 -16.57075 21.79741
v -35.88635 -16.57075 21.79741
v -32.41367 -16.56954 18.32446
v -35.88635 -16.56954 18.32446
v -32.41367 -20.04222 18.32325
v -35.88635 -20.04222 18.32325
v -32.41367 -20.04343 21.7962
v -35.88635 -20.04343 21.7962
v -32.41367 -16.56954 18.32446
v -35.88635 -16.56954 18.32446
v -32.41367 -20.04222 18.32325
v -35.88635 -20.04222 18.32325
v -32.41367 -20.04343 21.7962
v -32.41367 -16.57075 21.79741
v -35.88635 -16.57075 21.79741
v -35.88635 -20.04343 21.7962
v -35.88635 -16.57075 21.79741
v -35.88635 -16.56954 18.32446
v -35.88635 -20.04222 18.32325
v -35.88635 -20.04343 21.7962
v -32.41367 -20.04343 21.7962
v -32.41367 -20.04222 18.32325
v -32.41367 -16.56954 18.32446
v -32.41367 -16.57075 21.79741
f 297 299 300
f 297 300 298
f 305 301 302
f 305 302 306
f 307 303 304
f 307 304 308
f 309 310 311
f 309 311 312
f 313 314 315
f 313 315 316
f 317 318 319
f 317 319 320
v 35.92954 -17.43799 -0.9651234
v 33.33509 -17.43799 -0.9651234
v 35.92954 -17.43708 -3.559786
v 33.33509 -17.43708 -3.559786
v 35.92954 -20.03154 -3.560692
v 33.33509 -20.03154 -3.560692
v 35.92954 -20.03245 -0.9660288
v 33.33509 -20.03245 -0.9660288
v 35.92954 -17.43708 -3.559786
v 33.33509 -17.43708 -3.559786
v 35.92954 -20.03154 -3.560692
v 33.33509 -20.03154 -3.560692
v 35.92954 -20.03245 -0.9660288
v 35.92954 -17.43799 -0.9651234
v 33.33509 -17.43799 -0.9651234
v 33.33509 -20.03245 -0.9660288
v 33.33509 -17.43799 -0.9651234
v 33.33509 -17.43708 -3.559786
v 33.33509 -20.03154 -3.560692
v 33.33509 -20.03245 -0.9660288
v 35.92954 -20.03245 -0.9660288
v 35.92954 -20.03154 -3.560692
v 35.92954 -17.43708 -3.559786
v 35.92954 -17.43799 -0.9651234
f 321 323 324
f 321 324 322
f 329 325 326
f 329 326 330
f 331 327 328
f 331 328 332
f 333 334 335
f 333 335 336
f 337 338 339
f 337 339 340
f 341 342 343
f 341 343 344
v 35.89544 -16.612 21.80652
v 32.46454 -16.612 21.80652
v 35.89544 -16.6108 18.37533
v 32.46454 -16.6108 18.37533
v 35.89544 -20.04172 18.37414
v 32.46454 -20.04172 18.37414
v 35.89544 -20.04291 21.80532
v 32.46454 -20.04291 21.80532
v 35.89544 -16.6108 18.37533
v 32.46454 -16.6108 18.37533
v 35.89544 -20.04172 18.37414
v 32.46454 -20.04172 18.37414
v 35.89544 -20.04291 21.80532
v 35.89544 -16.612 21.80652
v 32.46454 -16.612 21.80652
v 32.46454 -20.04291 21.80532
v 32.46454 -16.612 21.80652
v 32.46454 -16.6108 18.37533
v 32.46454 -20.04172 18.37414
v 32.46454 -20.04291 21.80532
v 35.89544 -20.04291 21.80532
v 35.89544 -20.04172 18.37414
v 35.89544 -16.6108 18.37533
v 35.89544 -16.612 21.80652
f 345 347 348
f 345 348 346
f 353 349 350
f 353 350 354
f 355 351 352
f 355 352 356
f 357 358 359
f 357 359 360
f 361 362 363
f 361 363 364
f 365 366 367
f 365 367 368
v 35.84309 -16.59688 -18.56583
v 32.39688 -16.59688 -18.56583
v 35.84309 -16.59568 -22.01232
v 32.39688 -16.59568 -22.01232
v 35.84309 -20.0419 -22.01352
v 32.39688 -20.0419 -22.01352
v 35.84309 -20.0431 -18.56703
v 32.39688 -20.0431 -18.56703
v 35.84309 -16.59568 -22.01232
v 32.39688 -16.59568 -22.01232
v 35.84309 -20.0419 -22.01352
v 32.39688 -20.0419 -22.01352
v 35.84309 -20.0431 -18.56703
v 35.84309 -16.59688 -18.56583
v 32.39688 -16.59688 -18.56583
v 32.39688 -20.0431 -18.56703
v 32.39688 -16.59688 -18.56583
v 32.39688 -16.59568 -22.01232
v 32.39688 -20.0419 -22.01352
v 32.39688 -20.0431 -18.56703
v 35.84309 -20.0431 -18.56703
v 35.84309 -20.0419 -22.01352
v 35.84309 -16.59568 -22.01232
v 35.84309 -16.59688 -18.56583
f 369 371 372
f 369 372 370
f 377 373 374
f 377 374 378
f 379 375 376
f 379 376 380
f 381 382 383
f 381 383 384
f 385 386 387
f 385 387 388
f 389 390 391
f 389 391 392
v -32.49318 -16.58952 -18.51387
v -35.94684 -16.58952 -18.51387
v -32.49318 -16.58832 -21.96781
v -35.94684 -16.58832 -21.96781
v -32.49318 -20.04199 -21.96902
v -35.94684 -20.04199 -21.96902
v -32.49318 -20.04319 -18.51507
v -35.94684 -20.04319 -18.51507
v -32.49318 -16.58832 -21.96781
v -35.94684 -16.58832 -21.96781
v -32.49318 -20.04199 -21.96902
v -35.94684 -20.04199 -21.96902
v -32.49318 -20.04319 -18.51507
v -32.49318 -16.58952 -18.51387
v -35.94684 -16.58952 -18.51387
v -35.94684 -20.04319 -18.51507
v -35.94684 -16.58952 -18.51387
v -35.94684 -16.58832 -21.96781
v -35.94684 -20.04199 -21.96902
v -35.94684 -20.04319 -18.51507
v -32.49318 -20.04319 -18.51507
v -32.49318 -20.04199 -21.96902
v -32.49318 -16.58832 -21.96781
v -32.49318 -16.58952 -18.51387
f 393 395 396
f 393 396 394
f 401 397 398
f 401 398 402
f 403 399 400
f 403 400 404
f 405 406 407
f 405 407 408
f 409 410 411
f 409 411 412
f 413 414 415
f 413 415 416
v -33.3306 -17.43799 3.288031
v -35.92506 -17.43799 3.288031
v -33.3306 -17.43708 0.6933677
v -35.92506 -17.43708 0.6933677
v -33.3306 -20.03154 0.6924623
v -35.92506 -20.03154 0.6924623
v -33.3306 -20.03245 3.287125
v -35.92506 -20.03245 3.287125
v -33.3306 -17.43708 0.6933677
v -35.92506 -17.43708 0.6933677
v -33.3306 -20.03154 0.6924623
v -35.92506 -20.03154 0.6924623
v -33.3306 -20.03245 3.287125
v -33.3306 -17.43799 3.288031
v -35.92506 -17.43799 3.288031
v -35.92506 -20.03245 3.287125
v -35.92506 -17.43799 3.288031
v -35.92506 -17.43708 0.6933677
v -35.92506 -20.03154 0.6924623
v -35.92506 -20.03245 3.287125
v -33.3306 -20.03245 3.287125
v -33.3306 -20.03154 0.6924623
v -33.3306 -17.43708 0.6933677
v -33.3306 -17.43799 3.288031
f 417 419 420
f 417 420 418
f 425 421 422
f 425 422 426
f 427 423 424
f 427 424 428
f 429 430 431
f 429 431 432
f 433 434 435
f 433 435 436
f 437 438 439
f 437 439 440
