v -33.29289 -18 -35.29289
v -34 -18 -36
v -33 -18 -36
v -34 -18 -35
v -34.70711 -18 -35.29289
v -35 -18 -36
v -34.70711 -18 -36.70711
v -34 -18 -37
v -33.29289 -18 -36.70711
v -33 -12 -36
v -34 -12 -36
v -33.29289 -12 -35.29289
v -34 -12 -35
v -34.70711 -12 -35.29289
v -35 -12 -36
v -34.70711 -12 -36.70711
v -34 -12 -37
v -33.29289 -12 -36.70711
v -33.29289 -14 -35.29289
v -33 -14 -36
v -33.29289 -12 -35.29289
v -33 -12 -36
v -34 -14 -35
v -33.29289 -14 -35.29289
v -34 -12 -35
v -33.29289 -12 -35.29289
v -34.70711 -14 -35.29289
v -34 -14 -35
v -34.70711 -12 -35.29289
v -34 -12 -35
v -35 -12 -36
v -34.70711 -14 -35.29289
v -34.70711 -12 -35.29289
v -35 -14 -36
v -34.70711 -12 -36.70711
v -35 -14 -36
v -35 -12 -36
v -34.70711 -14 -36.70711
v -34.70711 -12 -36.70711
v -34 -12 -37
v -34 -14 -37
v -34.70711 -14 -36.70711
v -33.29289 -12 -36.70711
v -34 -14 -37
v -34 -12 -37
v -33.29289 -14 -36.70711
v -33 -14 -36
v -33.29289 -14 -36.70711
v -33.29289 -12 -36.70711
v -33 -12 -36
v -33.29289 -18 -35.29289
v -33 -18 -36
v -33 -16 -36
v -33.29289 -16 -35.29289
v -33.86692 -16 -35.86692
v -33.81179 -16 -36
v -33.81179 -14 -36
v -33.86692 -14 -35.86692
v -34 -18 -35
v -33.29289 -18 -35.29289
v -34 -16 -35
v -33.29289 -16 -35.29289
v -34 -16 -35.81179
v -33.86692 -16 -35.86692
v -33.86692 -14 -35.86692
v -34 -14 -35.81179
v -34.70711 -18 -35.29289
v -34 -18 -35
v -34.70711 -16 -35.29289
v -34 -16 -35
v -34.13308 -16 -35.86692
v -34 -16 -35.81179
v -34 -14 -35.81179
v -34.13308 -14 -35.86692
v -35 -16 -36
v -34.70711 -18 -35.29289
v -34.70711 -16 -35.29289
v -35 -18 -36
v -34.18821 -14 -36
v -34.13308 -16 -35.86692
v -34.13308 -14 -35.86692
v -34.18821 -16 -36
v -35 -16 -36
v -34.70711 -16 -36.70711
v -34.70711 -18 -36.70711
v -35 -18 -36
v -34.18821 -14 -36
v -34.13308 -14 -36.13308
v -34.13308 -16 -36.13308
v -34.18821 -16 -36
v -34 -14 -36.18821
v -34.13308 -16 -36.13308
v -34.13308 -14 -36.13308
v -34 -16 -36.18821
v -34 -16 -37
v -34.70711 -18 -36.70711
v -34.70711 -16 -36.70711
v -34 -18 -37
v -33.29289 -16 -36.70711
v -34 -18 -37
v -34 -16 -37
v -33.29289 -18 -36.70711
v -33.86692 -14 -36.13308
v -34 -16 -36.18821
v -34 -14 -36.18821
v -33.86692 -16 -36.13308
v -33 -18 -36
v -33.29289 -18 -36.70711
v -33.29289 -16 -36.70711
v -33 -16 -36
v -33.81179 -16 -36
v -33.86692 -16 -36.13308
v -33.86692 -14 -36.13308
v -33.81179 -14 -36
v -33 -16 -36
v -33.29289 -16 -36.70711
v -33.81179 -16 -36
v -33.86692 -16 -36.13308
v -34 -16 -37
v -34 -16 -36.18821
v -33.29289 -14 -36.70711
v -33 -14 -36
v -33.86692 -14 -36.13308
v -33.81179 -14 -36
v -34.70711 -16 -36.70711
v -34.13308 -16 -36.13308
v -34 -14 -37
v -34 -14 -36.18821
v -35 -16 -36
v -34.18821 -16 -36
v -34.70711 -14 -36.70711
v -34.13308 -14 -36.13308
v -35 -14 -36
v -34.18821 -14 -36
v -34.70711 -16 -35.29289
v -34.13308 -16 -35.86692
v -34 -14 -35
v -34.70711 -14 -35.29289
v -34 -14 -35.81179
v -34.13308 -14 -35.86692
v -34 -16 -35
v -34 -16 -35.81179
v -33.29289 -14 -35.29289
v -33.86692 -14 -35.86692
v -33.29289 -16 -35.29289
v -33.86692 -16 -35.86692
f 1 2 3
f 4 2 1
f 5 2 4
f 6 2 5
f 7 2 6
f 8 2 7
f 9 2 8
f 3 2 9
f 10 11 12
f 12 11 13
f 13 11 14
f 14 11 15
f 15 11 16
f 16 11 17
f 17 11 18
f 18 11 10
f 19 20 21
f 20 22 21
f 23 24 25
f 24 26 25
f 27 28 29
f 28 30 29
f 31 32 33
f 31 34 32
f 35 36 37
f 35 38 36
f 39 40 41
f 39 41 42
f 43 44 45
f 43 46 44
f 47 48 49
f 50 47 49
f 51 52 53
f 54 51 53
f 55 56 57
f 58 55 57
f 59 60 61
f 60 62 61
f 63 64 65
f 66 63 65
f 67 68 69
f 68 70 69
f 71 72 73
f 74 71 73
f 75 76 77
f 75 78 76
f 79 80 81
f 79 82 80
f 83 84 85
f 83 85 86
f 87 88 89
f 87 89 90
f 91 92 93
f 91 94 92
f 95 96 97
f 95 98 96
f 99 100 101
f 99 102 100
f 103 104 105
f 103 106 104
f 107 108 109
f 110 107 109
f 111 112 113
f 114 111 113
f 115 116 117
f 116 118 117
f 116 119 118
f 119 120 118
f 121 122 123
f 122 124 123
f 119 125 120
f 125 126 120
f 127 121 128
f 121 123 128
f 125 129 126
f 129 130 126
f 131 127 132
f 127 128 132
f 133 131 134
f 131 132 134
f 129 135 130
f 135 136 130
f 137 138 139
f 138 140 139
f 138 133 140
f 133 134 140
f 135 141 136
f 141 142 136
f 143 137 144
f 137 139 144
f 141 145 142
f 145 146 142
f 122 143 124
f 143 144 124
f 145 115 146
f 115 117 146
v -28 -7 28
v -32 -7 28
v -32 -7 34
v -28 -7 34
v -32 -25 34
v -28 -25 28
v -28 -25 34
v -32 -25 28
v -38 -7 28
v -38 -7 34
v -40 -7 28
v -40 -7 34
v -38 -25 34
v -38 -25 28
v -40 -25 34
v -40 -25 28
v -28 -7 22
v -32 -7 22
v -32 -7 26
v -28 -7 26
v -32 -25 26
v -28 -25 22
v -28 -25 26
v -32 -25 22
v -38 -7 22
v -38 -7 26
v -40 -7 22
v -40 -7 26
v -38 -25 26
v -38 -25 22
v -40 -25 26
v -40 -25 22
v -38 -17 34
v -32 -17 34
v -34 -17 28
v -32 -17 28
v -38 -17 26
v -34 -17 26
v -32 -17 34
v -32 -17 26
v -32 -17 28
v -32 -17 26
v -32 -17 26
v -32 -17 28
v -32 -17 26
v -38 -17 26
v -32 -17 26
v -38 -17 26
v -34 -17 26
v -32 -17 26
v -32 -11 34
v -28 -11 34
v -28 -7 34
v -32 -7 34
v -28 -7 22
v -32 -11 22
v -32 -7 22
v -28 -11 22
v -32 -17 34
v -28 -17 34
v -32 -17 22
v -28 -17 22
v -40 -11 34
v -38 -11 34
v -38 -7 34
v -40 -7 34
v -38 -7 22
v -40 -11 22
v -40 -7 22
v -38 -11 22
v -40 -17 34
v -38 -17 34
v -38 -17 26
v -32 -17 26
v -32 -11 26
v -38 -11 26
v -40 -17 22
v -38 -17 22
v -32 -17 34
v -32 -11 34
v -32 -17 26
v -32 -11 26
v -38 -11 34
v -38 -17 34
v -38 -11 26
v -38 -17 26
v -32 -11 34
v -38 -11 34
v -32 -11 26
v -38 -11 26
v -28 -11 34
v -28 -11 28
v -28 -7 28
v -28 -7 34
v -40 -7 28
v -40 -11 34
v -40 -7 34
v -40 -11 28
v -28 -17 34
v -28 -17 28
v -40 -17 34
v -40 -17 28
v -28 -11 26
v -28 -7 26
v -28 -11 22
v -28 -7 22
v -40 -7 26
v -40 -11 26
v -40 -7 22
v -40 -11 22
v -28 -17 26
v -28 -17 22
v -40 -17 26
v -40 -17 22
v -32 -25 34
v -28 -25 34
v -28 -19 34
v -32 -19 34
v -28 -19 22
v -32 -25 22
v -32 -19 22
v -28 -25 22
v -40 -25 34
v -38 -25 34
v -38 -19 34
v -40 -19 34
v -38 -19 22
v -40 -25 22
v -40 -19 22
v -38 -25 22
v -28 -25 34
v -28 -25 28
v -28 -19 28
v -28 -19 34
v -40 -19 28
v -40 -25 34
v -40 -19 34
v -40 -25 28
v -28 -25 26
v -28 -19 26
v -28 -25 22
v -28 -19 22
v -32 -19 26
v -32 -25 28
v -32 -19 28
v -32 -25 26
v -40 -19 26
v -40 -19 22
v -40 -25 26
v -40 -25 22
v -34 -19 28
v -40 -25 28
v -40 -19 28
v -34 -25 28
v -32 -19 28
v -32 -25 28
v -40 -19 28
v -34 -19 26
v -34 -19 28
v -40 -19 26
v -40 -25 26
v -34 -25 26
v -34 -19 26
v -40 -19 26
v -32 -25 26
v -32 -19 26
v -34 -17 28
v -32 -17 28
v -34 -17 26
v -34 -17 28
v -34 -19 26
v -34 -19 28
v -32 -17 28
v -34 -17 26
f 147 148 149
f 150 147 149
f 151 152 153
f 151 154 152
f 148 155 156
f 149 148 156
f 155 157 158
f 156 155 158
f 159 154 151
f 159 160 154
f 161 160 159
f 161 162 160
f 163 164 165
f 166 163 165
f 166 165 148
f 147 166 148
f 167 168 169
f 167 170 168
f 164 171 172
f 165 164 172
f 165 172 155
f 148 165 155
f 171 173 174
f 172 171 174
f 172 174 157
f 155 172 157
f 175 170 167
f 175 176 170
f 177 176 175
f 177 178 176
f 179 180 181
f 180 182 181
f 183 179 184
f 179 181 184
f 185 186 187
f 188 189 190
f 191 192 193
f 194 195 196
f 197 198 199
f 200 197 199
f 201 202 203
f 201 204 202
f 205 206 198
f 197 205 198
f 204 207 202
f 204 208 207
f 209 210 211
f 212 209 211
f 210 197 200
f 211 210 200
f 213 214 215
f 213 216 214
f 203 216 213
f 203 202 216
f 217 218 210
f 209 217 210
f 219 220 221
f 222 219 221
f 216 223 214
f 216 224 223
f 202 224 216
f 202 207 224
f 225 226 227
f 226 228 227
f 229 230 231
f 230 232 231
f 233 234 235
f 234 236 235
f 237 238 239
f 240 237 239
f 241 242 243
f 241 244 242
f 245 246 238
f 237 245 238
f 244 247 242
f 244 248 247
f 238 249 250
f 239 238 250
f 249 251 252
f 250 249 252
f 253 244 241
f 253 254 244
f 255 254 253
f 255 256 254
f 246 257 249
f 238 246 249
f 257 258 251
f 249 257 251
f 254 248 244
f 254 259 248
f 256 259 254
f 256 260 259
f 261 262 263
f 264 261 263
f 264 263 206
f 205 264 206
f 265 266 267
f 265 268 266
f 208 267 207
f 208 265 267
f 269 270 271
f 272 269 271
f 272 271 218
f 217 272 218
f 270 261 264
f 271 270 264
f 271 264 205
f 218 271 205
f 273 274 275
f 273 276 274
f 224 275 223
f 224 273 275
f 267 276 273
f 267 266 276
f 207 273 224
f 207 267 273
f 277 278 279
f 280 277 279
f 280 279 246
f 245 280 246
f 281 282 283
f 281 284 282
f 248 283 247
f 248 281 283
f 278 285 286
f 279 278 286
f 279 286 257
f 246 279 257
f 285 287 288
f 286 285 288
f 286 288 258
f 257 286 258
f 289 290 291
f 289 292 290
f 259 281 248
f 259 293 281
f 294 295 293
f 294 296 295
f 260 293 259
f 260 294 293
f 297 298 299
f 297 300 298
f 301 300 297
f 301 302 300
f 303 304 305
f 303 306 304
f 307 308 309
f 310 307 309
f 308 311 312
f 309 308 312
f 313 314 297
f 314 301 297
f 315 316 317
f 316 318 317
f 319 227 291
f 227 289 291
f 220 320 312
f 320 309 312
v 41 -26 -24
v 42 -26 -25
v 42 -26 -24
v 41 -26 -25
v 21 -26 -24
v 21 -26 -25
v 20 -26 -24
v 20 -26 -25
v 41 -26 -41
v 42 -26 -42
v 42 -26 -41
v 41 -26 -42
v 21 -26 -41
v 21 -26 -42
v 20 -26 -41
v 20 -26 -42
v 20 -17 -41
v 20 -17 -42
v 12 -17 -41
v 12 -17 -42
v 20 -17 -24
v 20 -17 -25
v 12 -17 -24
v 12 -17 -25
v 41 -26 -28
v 42 -26 -28
v 41 -10 -41
v 21 -10 -41
v 21 -10 -28
v 41 -10 -28
v 21 -10 -25
v 41 -10 -25
v 21 -26 -28
v 20 -26 -28
v 20 -17 -28
v 12 -17 -28
v 21 -21 -24
v 20 -21 -24
v 21 -24 -20
v 20 -24 -20
v 12 -21 -24
v 12 -24 -20
v 41 -21 -24
v 41 -24 -20
v 42 -21 -24
v 42 -24 -20
v 42 -17 -24
v 42 -17 -25
v 42 -9 -25
v 42 -9 -24
v 20 -9 -25
v 20 -17 -24
v 20 -9 -24
v 20 -17 -25
v 41 -17 -24
v 42 -17 -24
v 42 -9 -24
v 41 -9 -24
v 42 -9 -42
v 41 -17 -42
v 41 -9 -42
v 42 -17 -42
v 20 -17 -24
v 21 -17 -24
v 21 -9 -24
v 20 -9 -24
v 21 -9 -42
v 20 -17 -42
v 20 -9 -42
v 21 -17 -42
v 42 -17 -41
v 42 -17 -42
v 42 -9 -42
v 42 -9 -41
v 20 -9 -42
v 20 -17 -41
v 20 -9 -41
v 20 -17 -42
v 20 -26 -25
v 20 -26 -24
v 12 -26 -25
v 12 -26 -24
v 42 -19 -24
v 42 -19 -25
v 12 -17 -25
v 12 -19 -24
v 12 -17 -24
v 12 -19 -25
v 41 -19 -24
v 42 -19 -24
v 41 -19 -42
v 42 -19 -42
v 20 -19 -24
v 21 -19 -24
v 20 -19 -42
v 21 -19 -42
v 42 -19 -41
v 42 -19 -42
v 12 -17 -42
v 12 -19 -40
v 12 -17 -41
v 12 -19 -42
v 12 -19 -24
v 12 -17 -24
v 12 -19 -42
v 12 -17 -42
v 42 -17 -28
v 42 -9 -28
v 20 -9 -28
v 20 -17 -28
v 20 -26 -28
v 12 -26 -28
v 42 -19 -28
v 12 -17 -28
v 12 -19 -28
v 12 -19 -28
v 14 -19 -40
v 14 -19 -28
v 12 -19 -40
v 20 -19 -40
v 20 -19 -28
v 12 -26 -40
v 14 -26 -42
v 14 -26 -40
v 12 -26 -42
v 20 -19 -42
v 14 -19 -42
v 14 -19 -42
v 14 -19 -40
v 14 -26 -42
v 14 -26 -40
v 14 -19 -40
v 12 -19 -40
v 14 -26 -40
v 12 -26 -40
v 12 -26 -40
v 12 -26 -42
v 14 -19 -42
v 12 -26 -42
v 14 -26 -42
v 42 -26 -24
v 42 -26 -25
v 42 -21 -25
v 42 -21 -24
v 12 -21 -25
v 12 -26 -24
v 12 -21 -24
v 12 -26 -25
v 41 -26 -20
v 42 -26 -20
v 42 -24 -20
v 41 -24 -20
v 41 -21 -24
v 42 -21 -24
v 42 -21 -42
v 41 -26 -42
v 41 -21 -42
v 42 -26 -42
v 20 -26 -20
v 21 -26 -20
v 21 -24 -20
v 20 -24 -20
v 20 -21 -24
v 21 -21 -24
v 21 -21 -42
v 20 -26 -42
v 20 -21 -42
v 21 -26 -42
v 42 -26 -41
v 42 -26 -42
v 42 -21 -42
v 42 -21 -41
v 20 -21 -42
v 20 -26 -41
v 20 -21 -40.5
v 20 -26 -42
v 20 -19 -42
v 20 -19 -40
v 12 -26 -20
v 12 -24 -20
v 12 -21 -24
v 42 -26 -28
v 42 -21 -28
v 12 -21 -28
v 12 -26 -28
v 20 -26 -28
v 20 -21 -28
v 20 -19 -28
v 14 -21 -28
v 12 -26 -28
v 12 -21 -28
v 14 -26 -28
v 14 -19 -28
v 12 -19 -28
v 20 -21 -28
v 20 -26 -28
v 20 -19 -28
v 12 -26 -20
v 20 -26 -20
v 12 -24 -20
v 12 -26 -20
v 21 -26 -24
v 21 -26 -20
v 41 -26 -24
v 41 -26 -20
v 42 -26 -24
v 42 -26 -20
v 42 -26 -20
v 42 -24 -20
v 42 -8 -25
v 41 -8 -25
v 41 -8 -24
v 42 -8 -24
v 21 -8 -25
v 21 -8 -24
v 20 -8 -25
v 20 -8 -24
v 42 -8 -42
v 41 -8 -42
v 41 -8 -41
v 42 -8 -41
v 21 -8 -42
v 21 -8 -41
v 20 -8 -42
v 20 -8 -41
v 41 -9 -42
v 21 -9 -42
v 41 -8 -42
v 21 -8 -42
v 42 -9 -41
v 42 -9 -42
v 42 -8 -41
v 42 -8 -42
v 21 -10 -41
v 41 -10 -41
v 21 -8 -41
v 41 -8 -41
v 20 -9 -42
v 20 -8 -42
v 20 -9 -42
v 20 -9 -41
v 20 -8 -42
v 20 -8 -41
v 20 -9 -25
v 20 -9 -24
v 20 -8 -25
v 20 -8 -24
v 42 -9 -24
v 42 -9 -25
v 42 -8 -24
v 42 -8 -25
v 20 -9 -24
v 21 -9 -24
v 20 -8 -24
v 21 -8 -24
v 41 -10 -25
v 21 -10 -25
v 41 -8 -25
v 21 -8 -25
v 41 -9 -24
v 41 -8 -24
v 42 -9 -42
v 42 -8 -42
v 42 -9 -24
v 42 -8 -24
v 41 -8 -28
v 42 -8 -28
v 20 -8 -28
v 21 -8 -28
v 20 -9 -28
v 20 -8 -28
v 21 -10 -25
v 21 -10 -28
v 21 -8 -28
v 21 -8 -25
v 21 -10 -41
v 21 -8 -41
v 41 -8 -41
v 41 -10 -28
v 41 -8 -28
v 41 -10 -41
v 41 -10 -25
v 41 -8 -25
v 42 -9 -28
v 42 -8 -28
f 321 322 323
f 321 324 322
f 325 324 321
f 325 326 324
f 327 326 325
f 327 328 326
f 329 330 331
f 329 332 330
f 333 332 329
f 333 334 332
f 335 334 333
f 335 336 334
f 337 338 339
f 338 340 339
f 341 342 343
f 342 344 343
f 345 331 346
f 345 329 331
f 324 346 322
f 324 345 346
f 347 348 349
f 350 347 349
f 350 349 351
f 352 350 351
f 353 329 345
f 353 333 329
f 326 345 324
f 326 353 345
f 354 333 353
f 354 335 333
f 328 353 326
f 328 354 353
f 355 356 344
f 342 355 344
f 337 339 356
f 355 337 356
f 357 358 359
f 358 360 359
f 358 361 360
f 361 362 360
f 363 357 364
f 357 359 364
f 365 363 366
f 363 364 366
f 367 368 369
f 370 367 369
f 371 372 373
f 371 374 372
f 375 376 377
f 378 375 377
f 379 380 381
f 379 382 380
f 383 384 385
f 386 383 385
f 384 375 378
f 385 384 378
f 387 388 389
f 387 390 388
f 381 390 387
f 381 380 390
f 391 392 393
f 394 391 393
f 395 396 397
f 395 398 396
f 399 400 401
f 400 402 401
f 403 404 368
f 367 403 368
f 405 406 407
f 405 408 406
f 409 410 376
f 375 409 376
f 382 411 380
f 382 412 411
f 413 414 384
f 383 413 384
f 414 409 375
f 384 414 375
f 390 415 388
f 390 416 415
f 380 416 390
f 380 411 416
f 417 418 392
f 391 417 392
f 419 420 421
f 419 422 420
f 423 413 383
f 424 423 383
f 388 425 426
f 388 415 425
f 368 427 428
f 369 368 428
f 427 391 394
f 428 427 394
f 429 374 371
f 429 430 374
f 397 430 429
f 397 396 430
f 401 431 399
f 401 432 431
f 404 433 427
f 368 404 427
f 433 417 391
f 427 433 391
f 434 408 405
f 434 435 408
f 421 435 434
f 421 420 435
f 436 437 438
f 436 439 437
f 438 440 441
f 438 437 440
f 442 443 444
f 442 445 443
f 437 446 440
f 437 447 446
f 448 449 450
f 449 451 450
f 452 453 454
f 453 455 454
f 420 422 456
f 422 457 456
f 425 458 459
f 458 460 459
f 461 462 463
f 464 461 463
f 464 463 404
f 403 464 404
f 465 466 467
f 465 468 466
f 408 467 406
f 408 465 467
f 469 470 471
f 472 469 471
f 473 474 410
f 409 473 410
f 475 476 477
f 475 478 476
f 412 477 411
f 412 475 477
f 479 480 481
f 482 479 481
f 483 484 414
f 413 483 414
f 480 469 472
f 481 480 472
f 484 473 409
f 414 484 409
f 485 486 487
f 485 488 486
f 416 487 415
f 416 485 487
f 477 488 485
f 477 476 488
f 411 485 416
f 411 477 485
f 489 490 491
f 492 489 491
f 492 491 418
f 417 492 418
f 493 494 495
f 493 496 494
f 497 495 498
f 497 493 495
f 499 479 482
f 500 499 482
f 501 483 413
f 423 501 413
f 462 502 503
f 463 462 503
f 463 503 433
f 404 463 433
f 502 489 492
f 503 502 492
f 503 492 417
f 433 503 417
f 504 468 465
f 504 505 468
f 435 465 408
f 435 504 465
f 495 494 506
f 495 506 507
f 498 495 507
f 498 507 508
f 509 510 511
f 509 512 510
f 513 511 514
f 513 509 511
f 515 512 509
f 515 516 512
f 517 509 513
f 517 515 509
f 402 400 518
f 400 519 518
f 467 466 520
f 466 521 520
f 400 522 519
f 522 523 519
f 522 524 523
f 524 525 523
f 524 526 525
f 526 527 525
f 461 464 528
f 464 529 528
f 530 531 532
f 533 530 532
f 531 534 535
f 532 531 535
f 534 536 537
f 535 534 537
f 538 539 540
f 541 538 540
f 539 542 543
f 540 539 543
f 542 544 545
f 543 542 545
f 546 547 548
f 547 549 548
f 550 551 552
f 551 553 552
f 554 555 556
f 555 557 556
f 547 558 549
f 558 559 549
f 560 561 562
f 561 563 562
f 564 565 566
f 565 567 566
f 568 569 570
f 569 571 570
f 572 573 574
f 573 575 574
f 576 577 578
f 577 579 578
f 573 580 575
f 580 581 575
f 582 546 583
f 546 548 583
f 580 584 581
f 584 585 581
f 541 540 586
f 587 541 586
f 587 586 531
f 530 587 531
f 543 545 588
f 589 543 588
f 589 588 536
f 534 589 536
f 563 590 591
f 563 561 590
f 591 564 566
f 591 590 564
f 592 593 594
f 595 592 594
f 593 596 597
f 594 593 597
f 598 599 600
f 598 601 599
f 600 602 603
f 600 599 602
f 569 604 605
f 571 569 605
f 604 550 552
f 605 604 552
v -44 -22.5 46
v -46 -22.5 46
v -46 -22.5 50
v -44 -22.5 50
v -50 -22.5 46
v -50 -22.5 50
v -44.5 -22.5 44.5
v -46 -22.5 44
v -50 -22.5 44
v -46 -25 46
v -44.5 -25 44.5
v -44 -25 46
v -46 -25 44
v -50 -25 46
v -50 -25 44
v -46 -25 50
v -44 -25 50
v -50 -25 50
v -44 -25 50
v -44 -25 46
v -44 -22.5 46
v -44 -22.5 50
v -44 -25 46
v -44.5 -25 44.5
v -44.5 -22.5 44.5
v -44 -22.5 46
v -50 -22.5 44
v -50 -25 46
v -50 -22.5 46
v -50 -25 44
v -50 -25 50
v -50 -22.5 50
v -50 -25 50
v -46 -25 50
v -46 -22.5 50
v -50 -22.5 50
v -44 -25 50
v -44 -22.5 50
v -44.5 -22.5 44.5
v -46 -25 44
v -46 -22.5 44
v -44.5 -25 44.5
v -46 -22.5 44
v -50 -25 44
v -50 -22.5 44
v -46 -25 44
f 606 607 608
f 609 606 608
f 607 610 611
f 608 607 611
f 612 613 607
f 606 612 607
f 613 614 610
f 607 613 610
f 615 616 617
f 615 618 616
f 619 618 615
f 619 620 618
f 621 617 622
f 621 615 617
f 623 615 621
f 623 619 615
f 624 625 626
f 627 624 626
f 628 629 630
f 631 628 630
f 632 633 634
f 632 635 633
f 634 636 637
f 634 633 636
f 638 639 640
f 641 638 640
f 639 642 643
f 640 639 643
f 644 645 646
f 644 647 645
f 648 649 650
f 648 651 649
v 46 -19 -46
v 50 -19 -46
v 46 -19 -50
v 50 -19 -50
v 46 -27 -50
v 50 -27 -50
v 46 -27 -46
v 50 -27 -46
v 42 -19 -46
v 42 -19 -50
v 42 -19 -46
v 42 -19 -50
v 36 -25 -46
v 36 -25 -50
v 50 -19 -42
v 46 -19 -42
v 50 -19 -42
v 46 -19 -42
v 50 -25 -36
v 46 -25 -36
v 46 -27 -36
v 50 -27 -36
v 46 -25 -36
v 50 -25 -36
v 50 -27 -46
v 50 -27 -50
v 50 -19 -46
v 50 -19 -50
v 50 -27 -50
v 46 -27 -50
v 50 -19 -50
v 46 -19 -50
v 36 -27 -50
v 36 -27 -46
v 36 -25 -50
v 36 -25 -46
v 46 -27 -50
v 46 -27 -46
v 42 -27 -50
v 42 -27 -46
v 42 -19 -50
v 42 -27 -50
v 46 -27 -46
v 46 -19 -46
v 42 -27 -46
v 42 -19 -46
v 36 -27 -50
v 36 -27 -46
v 36 -25 -50
v 36 -27 -50
v 36 -27 -46
v 36 -25 -46
v 50 -27 -46
v 46 -27 -42
v 50 -27 -42
v 46 -19 -46
v 46 -27 -46
v 46 -19 -42
v 46 -27 -42
v 50 -27 -42
v 50 -19 -42
v 46 -27 -36
v 50 -27 -36
v 46 -25 -36
v 46 -27 -36
v 50 -27 -36
v 50 -25 -36
f 652 653 654
f 653 655 654
f 656 657 658
f 657 659 658
f 652 654 660
f 654 661 660
f 662 663 664
f 663 665 664
f 653 652 666
f 652 667 666
f 668 669 670
f 669 671 670
f 672 673 674
f 673 675 674
f 676 677 678
f 677 679 678
f 680 681 682
f 681 683 682
f 684 685 686
f 685 687 686
f 688 689 690
f 689 691 690
f 683 681 692
f 681 693 692
f 694 695 696
f 695 697 696
f 690 691 698
f 691 699 698
f 692 693 700
f 693 701 700
f 696 697 702
f 697 703 702
f 689 704 705
f 704 706 705
f 707 708 709
f 708 710 709
f 676 678 711
f 678 712 711
f 705 706 713
f 706 714 713
f 709 710 715
f 710 716 715
f 711 712 717
f 712 718 717
v -2 -19 40
v 2 -19 40
v -2 -19 36
v 2 -19 36
v -2 -25 36
v 2 -25 36
v -2 -25 40
v 2 -25 40
v -2 -25 40
v 2 -25 40
v -2 -19 40
v 2 -19 40
v 2 -25 40
v 2 -25 36
v 2 -19 40
v 2 -19 36
v 2 -25 36
v -2 -25 36
v 2 -19 36
v -2 -19 36
v -2 -25 36
v -2 -25 40
v -2 -19 36
v -2 -19 40
f 719 720 721
f 720 722 721
f 723 724 725
f 724 726 725
f 727 728 729
f 728 730 729
f 731 732 733
f 732 734 733
f 735 736 737
f 736 738 737
f 739 740 741
f 740 742 741
v 42 0.5 -4
v 50 0.5 -4
v 42 0.5 -12
v 50 0.5 -12
v 42 -19 -12
v 50 -19 -12
v 42 -19 -4
v 50 -19 -4
v 36.5 0.5 -4
v 36.5 0.5 -12
v 42 -19 -4
v 50 -19 -4
v 50 -3.5 -4
v 42 -3.5 -4
v 50 0.5 -4
v 42 0.5 -4
v 50 -19 -4
v 50 -19 -12
v 50 -3.5 -12
v 50 -3.5 -4
v 50 0.5 -12
v 50 0.5 -4
v 50 -3.5 -12
v 42 -19 -12
v 42 -3.5 -12
v 50 -19 -12
v 50 0.5 -12
v 42 0.5 -12
v 42 -3.5 -12
v 42 -19 -4
v 42 -3.5 -4
v 42 -19 -12
v 36.5 0.5 -12
v 36.5 -1.5 -6
v 36.5 0.5 -4
v 36.5 -1.5 -10
v 42 -3.5 -4
v 42 0.5 -4
v 36.5 -1.5 -6
v 36.5 0.5 -4
v 42 -3.5 -12
v 36.5 0.5 -12
v 36.5 -1.5 -10
v 42 -3.5 -12
v 42 -3.5 -4
v 36.5 -1.5 -10
v 36.5 -1.5 -6
f 743 744 745
f 744 746 745
f 747 748 749
f 748 750 749
f 743 745 751
f 745 752 751
f 753 754 755
f 756 753 755
f 756 755 757
f 758 756 757
f 759 760 761
f 762 759 761
f 762 761 763
f 764 762 763
f 765 766 767
f 765 768 766
f 769 767 770
f 769 765 767
f 771 772 773
f 771 774 772
f 775 776 777
f 775 778 776
f 779 780 781
f 780 782 781
f 770 783 784
f 783 785 784
f 786 787 788
f 787 789 788
v 31.99984 -25 -3.999839
v 31.99984 -19.5 -3.999838
v 24.5 -25 -4
v 31.99984 -25 -3.999839
v 32.00008 -25 -9.999839
v 31.99984 -19.5 -3.999838
v 24.5 -25 -4
v 31.99984 -19.5 -3.999838
v 27.5 -25 -6.5
v 32.00008 -25 -9.999839
v 27.5 -25 -6.5
v 32.00008 -25 -9.999839
v 24.5 -25 -4
v 31.99984 -25 -3.999839
f 790 791 792
f 793 794 795
f 796 797 798
f 797 799 798
f 800 801 802
f 801 803 802
v -22 -22 50
v -14 -22 50
v -22 -22 47
v -14 -22 42
v -22 -25 47
v -14 -25 42
v -22 -25 50
v -14 -25 50
v -22 -25 50
v -14 -25 50
v -22 -22 50
v -14 -22 50
v -14 -25 50
v -14 -25 42
v -14 -22 50
v -14 -22 42
v -14 -25 42
v -22 -25 47
v -14 -22 42
v -22 -22 47
v -22 -25 47
v -22 -25 50
v -22 -22 47
v -22 -22 50
f 804 805 806
f 805 807 806
f 808 809 810
f 809 811 810
f 812 813 814
f 813 815 814
f 816 817 818
f 817 819 818
f 820 821 822
f 821 823 822
f 824 825 826
f 825 827 826
v 32.00016 -25 4.000156
v 32.00016 -19.5 4.000156
v 31.99992 -25 10.00016
v 32.00016 -25 4.000156
v 24 -25 3.999844
v 32.00016 -19.5 4.000156
v 31.99992 -25 10.00016
v 32.00016 -19.5 4.000156
v 28.5 -25 7.5
v 24 -25 3.999844
v 28.5 -25 7.5
v 24 -25 3.999844
v 31.99992 -25 10.00016
v 32.00016 -25 4.000156
f 828 829 830
f 831 832 833
f 834 835 836
f 835 837 836
f 838 839 840
f 839 841 840
v -6 -21.5 -21.5
v 2 -21.5 -21.5
v -6 -21.5 -29.5
v 2 -21.5 -29.5
v -6 -26 -31
v 2 -26 -31
v -6 -26 -23
v 2 -26 -23
v 2 -21.5 -29.5
v 2 -21.5 -21.5
v 5.5 -25 -34
v 5.5 -25 -20
v -6 -21.5 -29.5
v 2 -21.5 -29.5
v -9.5 -25 -34
v 5.5 -25 -34
v -6 -21.5 -21.5
v -6 -21.5 -29.5
v -9.5 -25 -20
v -9.5 -25 -34
v -9.5 -26 -20
v 5.5 -26 -20
v -9.5 -25 -20
v 5.5 -25 -20
v 5.5 -26 -20
v 5.5 -26 -34
v 5.5 -25 -20
v 5.5 -25 -34
v 5.5 -26 -34
v -9.5 -26 -34
v 5.5 -25 -34
v -9.5 -25 -34
v -9.5 -26 -34
v -9.5 -26 -20
v -9.5 -25 -34
v -9.5 -25 -20
v 2 -26 -31
v -6 -26 -31
v 5.5 -26 -34
v -9.5 -26 -34
v -6 -26 -23
v -9.5 -26 -20
v 2 -26 -23
v 5.5 -26 -20
v 2 -21.5 -21.5
v -6 -21.5 -21.5
v 5.5 -25 -20
v -9.5 -25 -20
f 842 843 844
f 843 845 844
f 846 847 848
f 847 849 848
f 850 851 852
f 851 853 852
f 854 855 856
f 855 857 856
f 858 859 860
f 859 861 860
f 862 863 864
f 863 865 864
f 866 867 868
f 867 869 868
f 870 871 872
f 871 873 872
f 874 875 876
f 875 877 876
f 878 879 880
f 879 881 880
f 879 882 881
f 882 883 881
f 882 884 883
f 884 885 883
f 886 887 888
f 887 889 888
f 884 878 885
f 878 880 885
v -20 -22.5 -20
v -14 -22.5 -22
v -20 -22.5 -26
v -14 -22.5 -26
v -20 -25 -26
v -14 -25 -26
v -20 -25 -20
v -14 -25 -22
v -20 -25 -20
v -14 -25 -22
v -20 -22.5 -20
v -14 -22.5 -22
v -14 -25 -22
v -14 -25 -26
v -14 -22.5 -22
v -14 -22.5 -26
v -14 -25 -26
v -20 -25 -26
v -14 -22.5 -26
v -20 -22.5 -26
v -20 -25 -26
v -20 -25 -20
v -20 -22.5 -26
v -20 -22.5 -20
f 890 891 892
f 891 893 892
f 894 895 896
f 895 897 896
f 898 899 900
f 899 901 900
f 902 903 904
f 903 905 904
f 906 907 908
f 907 909 908
f 910 911 912
f 911 913 912
v -42.01681 -15.0008 -36.18259
v -26.03363 -14.99921 -36.91625
v -42.00942 -15.3897 -36.02167
v -26.02625 -15.38811 -36.75533
v -42.00942 -15.3897 -36.02167
v -26.02625 -15.38811 -36.75533
v -41.99159 -15.5508 -35.63317
v -26.00841 -15.54921 -36.36683
v -41.99159 -15.5508 -35.63317
v -26.00841 -15.54921 -36.36683
v -41.97375 -15.3897 -35.24467
v -25.99058 -15.38811 -35.97833
v -41.97375 -15.3897 -35.24467
v -25.99058 -15.38811 -35.97833
v -41.96637 -15.00079 -35.08375
v -25.98319 -14.9992 -35.81741
v -41.96637 -15.00079 -35.08375
v -25.98319 -14.9992 -35.81741
v -41.97376 -14.61189 -35.24467
v -25.99058 -14.6103 -35.97833
v -41.97376 -14.61189 -35.24467
v -25.99058 -14.6103 -35.97833
v -41.99159 -14.45079 -35.63317
v -26.00842 -14.4492 -36.36683
v -41.99159 -14.45079 -35.63317
v -26.00842 -14.4492 -36.36683
v -42.00942 -14.61189 -36.02167
v -26.02625 -14.6103 -36.75533
v -42.00942 -14.61189 -36.02167
v -26.02625 -14.6103 -36.75533
v -42.01681 -15.0008 -36.18259
v -26.03363 -14.99921 -36.91625
v -42.00942 -15.3897 -36.02167
v -41.99159 -15.00079 -35.63317
v -42.01681 -15.0008 -36.18259
v -41.99159 -15.5508 -35.63317
v -41.97375 -15.3897 -35.24467
v -41.96637 -15.00079 -35.08375
v -41.97376 -14.61189 -35.24467
v -41.99159 -14.45079 -35.63317
v -42.00942 -14.61189 -36.02167
v -26.03363 -14.99921 -36.91625
v -26.00841 -14.9992 -36.36683
v -26.02625 -15.38811 -36.75533
v -26.00841 -15.54921 -36.36683
v -25.99058 -15.38811 -35.97833
v -25.98319 -14.9992 -35.81741
v -25.99058 -14.6103 -35.97833
v -26.00842 -14.4492 -36.36683
v -26.02625 -14.6103 -36.75533
f 914 915 916
f 915 917 916
f 918 919 920
f 919 921 920
f 922 923 924
f 923 925 924
f 926 927 928
f 927 929 928
f 930 931 932
f 931 933 932
f 934 935 936
f 935 937 936
f 938 939 940
f 939 941 940
f 942 943 944
f 943 945 944
f 946 947 948
f 949 947 946
f 950 947 949
f 951 947 950
f 952 947 951
f 953 947 952
f 954 947 953
f 948 947 954
f 955 956 957
f 957 956 958
f 958 956 959
f 959 956 960
f 960 956 961
f 961 956 962
f 962 956 963
f 963 956 955
v 10 -19 -4
v 9 -19 -4
v 9 -19 4
v 10 -19 4
v 9 -29 4
v 10 -29 -4
v 10 -29 4
v 9 -29 -4
v 9 -29 13
v 10 -29 13
v 9 -29 14
v 10 -29 14
v 9 -29 -13
v 10 -29 -14
v 10 -29 -13
v 9 -29 -14
v -9 -19 -4
v -9 -19 4
v -10 -19 -4
v -10 -19 4
v -9 -29 4
v -9 -29 -4
v -10 -29 4
v -10 -29 -4
v -9 -19 13
v 9 -19 13
v -9 -29 13
v -10 -29 13
v -9 -29 14
v -10 -29 14
v 9 -19 -13
v -9 -19 -13
v -9 -29 -13
v -9 -29 -14
v -10 -29 -13
v -10 -29 -14
v 32 -19 -10
v 32 -19 10
v 38 -19 -14
v 38 -19 14
v 18 -17 -4
v 10 -19 -4
v 10 -19 4
v 18 -17 4
v 32 -19 -4
v 24 -17 -4
v 24 -17 4
v 32 -19 4
v 24 -17 -4
v 22 -17 -4
v 22 -17 4
v 24 -17 4
v 20 -17 -4
v 20 -17 4
v 18 -17 -4
v 18 -17 4
v 50 -19 -14
v 50 -19 14
v -10 -19 4
v -10 -19 -4
v -20 -25 4
v -20 -25 -4
v 32 -29 4
v 32 -29 -4
v 32 -29 10
v 32 -29 -4
v 32 -29 -10
v 32 -29 10
v 32 -19 -4
v 32 -19 4
v 32 -19 -10
v 32 -19 4
v 32 -19 10
v 32 -19 -10
v 32 -29 10
v 32 -29 -10
v 38 -29 14
v 38 -29 -14
v 10 -29 4
v 18 -29 -4
v 18 -29 4
v 10 -29 -4
v 24 -29 4
v 32 -29 -4
v 32 -29 4
v 24 -29 -4
v 50 -29 14
v 50 -29 -14
v 50 -20 -14
v 50 -20 14
v 50 -19 -14
v 50 -19 14
v -20 -26 -4
v -20 -29 4
v -20 -26 4
v -20 -29 -4
v -20 -25 -4
v -20 -25 4
v 10 -29 14
v 10 -29 13
v 10 -20 13
v 10 -20 14
v 10 -19 13
v 10 -19 14
v 10 -29 4
v 10 -20 4
v 10 -19 4
v -10 -20 13
v -10 -29 14
v -10 -20 14
v -10 -29 13
v -10 -19 13
v -10 -19 14
v -10 -20 4
v -10 -29 4
v -10 -19 4
v 10 -29 -4
v 10 -29 -13
v 10 -20 -13
v 10 -20 -4
v 10 -19 -13
v 10 -19 -4
v 10 -29 -14
v 10 -20 -14
v 10 -19 -14
v -10 -20 -13
v -10 -29 -4
v -10 -20 -4
v -10 -29 -13
v -10 -19 -13
v -10 -19 -4
v -10 -20 -14
v -10 -29 -14
v -10 -19 -14
v 9 -29 14
v 10 -29 14
v 10 -20 14
v 9 -20 14
v 10 -19 14
v 9 -19 14
v 10 -20 -14
v 9 -29 -14
v 9 -20 -14
v 10 -29 -14
v 10 -19 -14
v 9 -19 -14
v -10 -29 14
v -9 -29 14
v -9 -20 14
v -10 -20 14
v -9 -19 14
v -10 -19 14
v -9 -20 -14
v -10 -29 -14
v -10 -20 -14
v -9 -29 -14
v -9 -19 -14
v -10 -19 -14
v 32 -20 -10
v 32 -29 -4
v 32 -20 -4
v 32 -29 -10
v 32 -19 -10
v 32 -19 -4
v 32 -19 4
v 32 -20 10
v 32 -19 10
v 32 -20 4
v 32 -29 10
v 32 -29 4
v 38 -20 -14
v 32 -29 -10
v 32 -20 -10
v 38 -29 -14
v 38 -19 -14
v 32 -19 -10
v 32 -20 10
v 38 -20 14
v 38 -19 14
v 32 -19 10
v 32 -29 10
v 38 -29 14
v 18 -21 -4
v 10 -29 -4
v 10 -20 -4
v 18 -29 -4
v 18 -17 -4
v 10 -19 -4
v 10 -29 4
v 18 -29 4
v 18 -21 4
v 10 -20 4
v 18 -17 4
v 10 -19 4
v 32 -20 -4
v 24 -29 -4
v 24 -21 -4
v 32 -29 -4
v 32 -19 -4
v 24 -17 -4
v 24 -29 4
v 32 -29 4
v 32 -20 4
v 24 -21 4
v 32 -19 4
v 24 -17 4
v 22 -20 -4
v 22 -17 -4
v 22 -20 4
v 22 -17 4
v 20 -17 -4
v 20 -20 -4
v 20 -20 4
v 20 -17 4
v 20 -20 -4
v 22 -20 -4
v 20 -20 4
v 22 -20 4
v 22 -20 -4
v 24 -21 -4
v 22 -20 4
v 24 -21 4
v 18 -29 -4
v 18 -21 -4
v 18 -29 4
v 18 -21 4
v 18 -21 -4
v 20 -20 -4
v 18 -21 4
v 20 -20 4
v 24 -21 -4
v 24 -29 -4
v 24 -21 4
v 24 -29 4
v 50 -29 14
v 50 -29 -14
v 38 -29 -14
v 38 -20 -14
v 50 -29 -14
v 50 -20 -14
v 38 -20 14
v 38 -29 14
v 50 -20 14
v 50 -29 14
v 38 -19 -14
v 50 -19 -14
v 38 -19 14
v 50 -19 14
v -10 -29 10
v -10 -26 10
v -20 -29 10
v -20 -26 10
v -10 -26 -10
v -10 -29 -10
v -14 -26 -7.5
v -14 -29 -7.5
v -10 -29 -4
v -10 -29 4
v -20 -29 -4
v -20 -29 4
v -10 -25 10
v -20 -25.5 10
v -10 -25 -10
v -14 -25 -7.5
v -10 -29 4
v -10 -20 4
v -10 -29 10
v -10 -26 10
v -20 -29 10
v -10 -29 10
v -10 -19 4
v -20 -25 4
v -10 -25 10
v -20 -25.5 10
v -20 -26 10
v -20 -29 10
v -10 -19 4
v -10 -25 10
v -20 -25.5 10
v -10 -20 -4
v -10 -29 -4
v -10 -26 -10
v -10 -29 -10
v -20 -26 -4
v -20 -25 -4
v -14 -26 -7.5
v -14 -25 -7.5
v -20 -29 -4
v -10 -29 -10
v -14 -29 -7.5
v -20 -29 -4
v -14 -29 -7.5
v -10 -19 -4
v -10 -25 -10
v -20 -25 -4
v -10 -19 -4
v -14 -25 -7.5
v -10 -19 -4
v -10 -25 -10
v -14 -25 -7.5
v 10 -17 4
v 9 -17 4
v 9 -17 13
v 10 -17 13
v 9 -17 14
v 10 -17 14
v 10 -17 -14
v 9 -17 -14
v 9 -17 -13
v 10 -17 -13
v 9 -17 -4
v 10 -17 -4
v -9 -17 4
v -10 -17 4
v -10 -17 13
v -9 -17 13
v -9 -17 14
v -10 -17 14
v -9 -17 -14
v -9 -17 -13
v -10 -17 -14
v -10 -17 -13
v -10 -17 -4
v -9 -17 -4
v 9 -19 -14
v -9 -19 -14
v 9 -17 -14
v -9 -17 -14
v -10 -19 -13
v -10 -19 -4
v -10 -17 -13
v -10 -17 -4
v -9 -19 -4
v -9 -19 -13
v -9 -17 -4
v -9 -17 -13
v -10 -19 -4
v -9 -19 -4
v -10 -17 -4
v -9 -17 -4
v -10 -19 -14
v -10 -17 -14
v -10 -19 -14
v -10 -17 -14
v 10 -19 -13
v 10 -19 -14
v 10 -17 -13
v 10 -17 -14
v -9 -19 -13
v 9 -19 -13
v -9 -17 -13
v 9 -17 -13
v 10 -19 -14
v 10 -17 -14
v 9 -19 -13
v 9 -19 -4
v 9 -17 -13
v 9 -17 -4
v 10 -19 -4
v 10 -17 -4
v 9 -19 -4
v 10 -19 -4
v 9 -17 -4
v 10 -17 -4
v 10 -19 4
v 9 -19 4
v 10 -17 4
v 9 -17 4
v 9 -19 4
v 9 -19 13
v 9 -17 4
v 9 -17 13
v 10 -19 13
v 10 -19 4
v 10 -17 13
v 10 -17 4
v -9 -19 14
v 9 -19 14
v -9 -17 14
v 9 -17 14
v 10 -19 14
v 10 -17 14
v 10 -19 14
v 10 -17 14
v 9 -19 13
v -9 -19 13
v 9 -17 13
v -9 -17 13
v -10 -19 14
v -10 -17 14
v -10 -19 13
v -10 -19 14
v -10 -17 13
v -10 -17 14
v -9 -19 4
v -10 -19 4
v -9 -17 4
v -10 -17 4
v -10 -19 4
v -10 -17 4
v -9 -19 13
v -9 -19 4
v -9 -17 13
v -9 -17 4
f 964 965 966
f 967 964 966
f 968 969 970
f 968 971 969
f 972 970 973
f 972 968 970
f 974 973 975
f 974 972 973
f 976 977 978
f 976 979 977
f 971 978 969
f 971 976 978
f 965 980 981
f 966 965 981
f 980 982 983
f 981 980 983
f 984 971 968
f 984 985 971
f 986 985 984
f 986 987 985
f 966 981 988
f 989 966 988
f 990 968 972
f 990 984 968
f 991 984 990
f 991 986 984
f 992 972 974
f 992 990 972
f 993 990 992
f 993 991 990
f 994 995 980
f 965 994 980
f 996 979 976
f 996 997 979
f 998 997 996
f 998 999 997
f 985 976 971
f 985 996 976
f 987 996 985
f 987 998 996
f 1000 1001 1002
f 1001 1003 1002
f 1004 1005 1006
f 1007 1004 1006
f 1008 1009 1010
f 1011 1008 1010
f 1012 1013 1014
f 1015 1012 1014
f 1013 1016 1017
f 1014 1013 1017
f 1016 1018 1019
f 1017 1016 1019
f 1002 1003 1020
f 1003 1021 1020
f 1022 1023 1024
f 1023 1025 1024
f 1026 1027 1028
f 1029 1030 1031
f 1032 1033 1034
f 1035 1036 1037
f 1038 1039 1040
f 1039 1041 1040
f 1042 1043 1044
f 1042 1045 1043
f 1046 1047 1048
f 1046 1049 1047
f 1050 1051 1052
f 1053 1050 1052
f 1053 1052 1054
f 1055 1053 1054
f 1056 1057 1058
f 1056 1059 1057
f 1060 1058 1061
f 1060 1056 1058
f 1062 1063 1064
f 1065 1062 1064
f 1065 1064 1066
f 1067 1065 1066
f 1063 1068 1069
f 1064 1063 1069
f 1064 1069 1070
f 1066 1064 1070
f 1071 1072 1073
f 1071 1074 1072
f 1075 1073 1076
f 1075 1071 1073
f 1077 1074 1071
f 1077 1078 1074
f 1079 1071 1075
f 1079 1077 1071
f 1080 1081 1082
f 1083 1080 1082
f 1083 1082 1084
f 1085 1083 1084
f 1081 1086 1087
f 1082 1081 1087
f 1082 1087 1088
f 1084 1082 1088
f 1089 1090 1091
f 1089 1092 1090
f 1093 1091 1094
f 1093 1089 1091
f 1095 1092 1089
f 1095 1096 1092
f 1097 1089 1093
f 1097 1095 1089
f 1098 1099 1100
f 1101 1098 1100
f 1101 1100 1102
f 1103 1101 1102
f 1104 1105 1106
f 1104 1107 1105
f 1108 1106 1109
f 1108 1104 1106
f 1110 1111 1112
f 1113 1110 1112
f 1113 1112 1114
f 1115 1113 1114
f 1111 1098 1101
f 1112 1111 1101
f 1112 1101 1103
f 1114 1112 1103
f 1116 1117 1118
f 1116 1119 1117
f 1120 1118 1121
f 1120 1116 1118
f 1106 1119 1116
f 1106 1105 1119
f 1109 1116 1120
f 1109 1106 1116
f 1122 1123 1124
f 1122 1125 1123
f 1126 1124 1127
f 1126 1122 1124
f 1128 1129 1130
f 1128 1131 1129
f 1131 1132 1129
f 1131 1133 1132
f 1134 1135 1136
f 1134 1137 1135
f 1138 1136 1139
f 1138 1134 1136
f 1140 1141 1142
f 1143 1140 1142
f 1144 1145 1141
f 1140 1144 1141
f 1146 1147 1148
f 1146 1149 1147
f 1150 1148 1151
f 1150 1146 1148
f 1152 1153 1154
f 1155 1152 1154
f 1155 1154 1156
f 1157 1155 1156
f 1158 1159 1160
f 1158 1161 1159
f 1162 1160 1163
f 1162 1158 1160
f 1164 1165 1166
f 1167 1164 1166
f 1167 1166 1168
f 1169 1167 1168
f 1163 1170 1171
f 1163 1160 1170
f 1172 1167 1169
f 1173 1172 1169
f 1174 1146 1150
f 1174 1175 1146
f 1171 1175 1174
f 1171 1170 1175
f 1154 1176 1177
f 1156 1154 1177
f 1176 1172 1173
f 1177 1176 1173
f 1178 1179 1180
f 1179 1181 1180
f 1182 1183 1184
f 1183 1185 1184
f 1186 1187 1188
f 1187 1189 1188
f 1190 1191 1192
f 1191 1193 1192
f 1194 1195 1196
f 1195 1197 1196
f 1040 1041 1198
f 1041 1199 1198
f 1200 1201 1202
f 1201 1203 1202
f 1204 1205 1206
f 1205 1207 1206
f 1201 1208 1203
f 1208 1209 1203
f 1210 1204 1211
f 1204 1206 1211
f 1212 1213 1214
f 1213 1215 1214
f 1216 1217 1218
f 1217 1219 1218
f 1220 1221 1222
f 1221 1223 1222
f 1213 1224 1215
f 1224 1225 1215
f 1226 1216 1227
f 1216 1218 1227
f 1228 1229 1230
f 1229 1231 1230
f 1223 1221 1232
f 1221 1233 1232
f 1234 1235 1236
f 1235 1237 1236
f 1058 1057 1238
f 1057 1239 1238
f 1229 1240 1231
f 1240 1241 1231
f 1061 1058 1242
f 1058 1238 1242
f 1243 1244 1245
f 1244 1246 1245
f 1247 1248 1249
f 1248 1250 1249
f 1220 1251 1252
f 1251 1253 1252
f 1254 1247 1255
f 1247 1249 1255
f 1256 1243 1257
f 1243 1245 1257
f 1258 1259 1260
f 1261 1262 1263
f 1264 1265 1266
f 1267 1264 1266
f 1267 1266 1268
f 1269 1267 1268
f 1270 1271 1272
f 1273 1270 1272
f 1273 1272 1274
f 1275 1273 1274
f 1276 1277 1278
f 1279 1276 1278
f 1266 1279 1280
f 1268 1266 1280
f 1279 1278 1281
f 1280 1279 1281
f 1271 1282 1283
f 1272 1271 1283
f 1282 1284 1285
f 1283 1282 1285
f 1283 1285 1286
f 1287 1283 1286
f 1288 1289 1290
f 1289 1291 1290
f 1292 1293 1294
f 1293 1295 1294
f 1296 1297 1298
f 1297 1299 1298
f 1300 1301 1302
f 1301 1303 1302
f 1289 1304 1291
f 1304 1305 1291
f 1306 1292 1307
f 1292 1294 1307
f 1308 1309 1310
f 1309 1311 1310
f 1312 1313 1314
f 1313 1315 1314
f 1316 1288 1317
f 1288 1290 1317
f 1318 1319 1320
f 1319 1321 1320
f 1322 1308 1323
f 1308 1310 1323
f 1324 1325 1326
f 1325 1327 1326
f 1328 1329 1330
f 1329 1331 1330
f 1332 1333 1334
f 1333 1335 1334
f 1336 1337 1338
f 1337 1339 1338
f 1340 1341 1342
f 1341 1343 1342
f 1344 1336 1345
f 1336 1338 1345
f 1341 1346 1343
f 1346 1347 1343
f 1348 1349 1350
f 1349 1351 1350
f 1352 1340 1353
f 1340 1342 1353
f 1354 1355 1356
f 1355 1357 1356
f 1358 1359 1360
f 1359 1361 1360
f 1362 1354 1363
f 1354 1356 1363
f 1364 1365 1366
f 1365 1367 1366
v 42 -9 4
v 50 -9 8
v 42 -9 -4
v 50 -9 -4
v 42 -19 -4
v 50 -19 -4
v 42 -19 4
v 50 -19 8
v 42 -19 4
v 50 -19 8
v 42 -9 4
v 50 -9 8
v 50 -19 8
v 50 -19 -4
v 50 -9 8
v 50 -9 -4
v 50 -19 -4
v 42 -19 -4
v 50 -9 -4
v 42 -9 -4
v 42 -19 -4
v 42 -19 4
v 42 -9 -4
v 42 -9 4
f 1368 1369 1370
f 1369 1371 1370
f 1372 1373 1374
f 1373 1375 1374
f 1376 1377 1378
f 1377 1379 1378
f 1380 1381 1382
f 1381 1383 1382
f 1384 1385 1386
f 1385 1387 1386
f 1388 1389 1390
f 1389 1391 1390
v 14 -23 -39
v 13 -22 -39
v 13 -22 -29
v 14 -23 -29
v 14 -23 -39
v 14 -23 -39
v 14 -23 -29
v 14 -23 -39
v 14 -23 -29
v 14 -23 -29
v 13 -25 -29
v 14 -25 -39
v 14 -25 -29
v 13 -25 -39
v 14 -25 -29
v 14 -25 -39
v 14 -25 -29
v 14 -25 -29
v 14 -25 -39
v 14 -25 -39
v 13 -22 -29
v 13 -22 -39
v 12 -22 -29
v 12 -22 -39
v 14 -25 -29
v 14 -25 -39
v 14 -23 -29
v 14 -23 -39
v 12 -25 -39
v 12 -25 -29
v 12 -22 -39
v 12 -22 -29
v 13 -25 -29
v 14 -25 -29
v 14 -23 -29
v 13 -22 -29
v 14 -25 -29
v 14 -25 -29
v 14 -23 -29
v 14 -23 -29
v 14 -25 -29
v 14 -23 -29
v 14 -23 -39
v 14 -25 -39
v 14 -23 -39
v 14 -23 -39
v 14 -25 -39
v 14 -25 -39
v 14 -23 -39
v 13 -25 -39
v 13 -22 -39
v 14 -25 -39
v 13 -25 -39
v 13 -25 -29
v 12 -25 -39
v 12 -25 -29
v 12 -22 -39
v 12 -25 -39
v 12 -25 -29
v 12 -22 -29
f 1392 1393 1394
f 1395 1392 1394
f 1396 1397 1398
f 1399 1400 1401
f 1402 1403 1404
f 1402 1405 1403
f 1406 1407 1408
f 1409 1410 1411
f 1412 1413 1414
f 1413 1415 1414
f 1416 1417 1418
f 1417 1419 1418
f 1420 1421 1422
f 1421 1423 1422
f 1424 1425 1426
f 1427 1424 1426
f 1428 1429 1430
f 1431 1432 1433
f 1434 1435 1436
f 1437 1438 1439
f 1440 1441 1442
f 1440 1443 1441
f 1444 1445 1446
f 1445 1447 1446
f 1442 1441 1448
f 1441 1449 1448
f 1424 1427 1450
f 1427 1451 1450
v -34 -17 -30
v -50 -17 -30
v -34 -17 -24
v -50 -17 -24
v -34 -17 -30
v -34 -17 -24
v -26 -21 -30
v -26 -21 -24
v -26 -21 -30
v -34 -21 -30
v -26 -29 -30
v -34 -29 -30
v -34 -21 -50
v -26 -21 -50
v -34 -29 -50
v -26 -29 -50
v -50 -21 -50
v -50 -29 -50
v -34 -17 -50
v -50 -17 -50
v -50 -17 -44
v -34 -17 -44
v -26 -17 -50
v -26 -17 -44
v -26 -17 -30
v -50 -29 -44
v -34 -29 -50
v -34 -29 -44
v -50 -29 -50
v -50 -29 -30
v -34 -29 -30
v -26 -29 -50
v -26 -29 -44
v -26 -29 -30
v -26 -29 -30
v -26 -29 -44
v -26 -21 -44
v -26 -21 -30
v -50 -21 -44
v -50 -29 -30
v -50 -21 -30
v -50 -29 -44
v -50 -21 -50
v -50 -29 -50
v 6 -17 -50
v 6 -17 -44
v 6 -29 -44
v 6 -29 -50
v 6 -29 -50
v 6 -21 -50
v -50 -21 -24
v -34 -21 -24
v -34 -17 -24
v -50 -17 -24
v -34 -21 -30
v -26 -21 -30
v -26 -17 -30
v -34 -17 -30
v -26 -17 -50
v -34 -21 -50
v -34 -17 -50
v -26 -21 -50
v -50 -21 -50
v -50 -17 -50
v -50 -29 -30
v -34 -29 -30
v -50 -29 -24
v -34 -29 -24
v -50 -17 -30
v -50 -21 -30
v -50 -17 -24
v -50 -21 -24
v -34 -21 -30
v -34 -17 -30
v -26 -21 -30
v -26 -29 -24
v -26 -29 -30
v -26 -21 -24
v -50 -29 -24
v -50 -29 -30
v -26 -29 -24
v -34 -29 -24
v -50 -29 -24
v -34 -29 -30
v -26 -29 -30
v -26 -21 -30
v -26 -21 -24
v -26 -29 -30
v -26 -29 -24
v -26 -21 -44
v -26 -17 -44
v -26 -17 -30
v 6 -21 -44
v 6 -21 -50
v 6 -17 -50
v 6 -17 -44
v -50 -17 -50
v -50 -21 -44
v -50 -17 -44
v -50 -21 -50
v 6 -29 -44
v 6 -29 -50
v 6 -21 -50
v 6 -17 -50
v -26 -17 -44
v -26 -21 -44
v 6 -17 -44
v 6 -21 -44
v -26 -29 -44
v 6 -29 -44
f 1452 1453 1454
f 1453 1455 1454
f 1456 1457 1458
f 1457 1459 1458
f 1460 1461 1462
f 1461 1463 1462
f 1464 1465 1466
f 1465 1467 1466
f 1468 1464 1469
f 1464 1466 1469
f 1470 1471 1472
f 1473 1470 1472
f 1473 1472 1453
f 1452 1473 1453
f 1474 1470 1473
f 1475 1474 1473
f 1475 1473 1452
f 1476 1475 1452
f 1477 1478 1479
f 1477 1480 1478
f 1481 1479 1482
f 1481 1477 1479
f 1479 1483 1484
f 1479 1478 1483
f 1482 1484 1485
f 1482 1479 1484
f 1486 1487 1488
f 1489 1486 1488
f 1490 1491 1492
f 1490 1493 1491
f 1494 1493 1490
f 1494 1495 1493
f 1474 1475 1496
f 1475 1497 1496
f 1484 1483 1498
f 1483 1499 1498
f 1467 1465 1500
f 1465 1501 1500
f 1502 1503 1504
f 1505 1502 1504
f 1506 1507 1508
f 1509 1506 1508
f 1510 1511 1512
f 1510 1513 1511
f 1512 1514 1515
f 1512 1511 1514
f 1516 1517 1518
f 1517 1519 1518
f 1520 1521 1522
f 1521 1523 1522
f 1524 1525 1526
f 1519 1517 1527
f 1517 1528 1527
f 1504 1503 1529
f 1523 1521 1530
f 1521 1531 1530
f 1529 1503 1532
f 1503 1533 1532
f 1503 1502 1533
f 1502 1534 1533
f 1524 1526 1535
f 1526 1536 1535
f 1537 1538 1539
f 1538 1540 1539
f 1537 1541 1542
f 1543 1537 1542
f 1544 1545 1546
f 1547 1544 1546
f 1548 1549 1550
f 1548 1551 1549
f 1550 1521 1520
f 1550 1549 1521
f 1552 1553 1545
f 1544 1552 1545
f 1513 1510 1554
f 1510 1555 1554
f 1556 1557 1558
f 1557 1559 1558
f 1557 1560 1559
f 1560 1561 1559
v 38 -3 32
v 44 -3 32
v 38 -3 26
v 44 -3 26
v 38 -19 26
v 44 -19 26
v 38 -19 32
v 44 -19 32
v 38 -19 32
v 44 -19 32
v 38 -3 32
v 44 -3 32
v 44 -19 32
v 44 -19 26
v 44 -3 32
v 44 -3 26
v 44 -19 26
v 38 -19 26
v 44 -3 26
v 38 -3 26
v 38 -19 26
v 38 -19 32
v 38 -3 26
v 38 -3 32
f 1562 1563 1564
f 1563 1565 1564
f 1566 1567 1568
f 1567 1569 1568
f 1570 1571 1572
f 1571 1573 1572
f 1574 1575 1576
f 1575 1577 1576
f 1578 1579 1580
f 1579 1581 1580
f 1582 1583 1584
f 1583 1585 1584
v 31.99992 -25 42.00008
v 31.99992 -20 42.00008
v 25.99992 -25 41.99996
v 31.99992 -25 42.00008
v 32.00004 -25 36.00008
v 31.99992 -20 42.00008
v 25.99992 -25 41.99996
v 31.99992 -20 42.00008
v 26.00004 -25 35.99996
v 32.00004 -25 36.00008
v 26.00004 -25 35.99996
v 32.00004 -25 36.00008
v 25.99992 -25 41.99996
v 31.99992 -25 42.00008
f 1586 1587 1588
f 1589 1590 1591
f 1592 1593 1594
f 1593 1595 1594
f 1596 1597 1598
f 1597 1599 1598
v -40 -22 22
v -34 -22 22
v -40 -22 18
v -34 -22 18
v -40 -29 18
v -34 -29 18
v -40 -29 22
v -34 -29 22
v -34 -22 18
v -34 -22 22
v -28 -19 18
v -28 -19 22
v -28 -19 18
v -28 -19 22
v -24 -19 19
v -22 -19 22
v -24 -17 34
v -28 -17 34
v -25 -17 38
v -28 -17 40
v -22 -19 22
v -28 -19 22
v -28 -19 24
v -22 -19 24
v -28 -19 30
v -24 -19 30
v -24 -19 30
v -28 -19 30
v -28 -17 34
v -24 -17 34
v -40 -22 18
v -34 -22 18
v -44 -25 14
v -34 -25 14
v -40 -22 22
v -40 -22 18
v -44 -25 22
v -44 -25 14
v -40 -22 22
v -44 -25 22
v -40 -25 26
v -44 -26 26
v -34 -22 18
v -30 -25 14
v -30 -25 18
v -32 -17 40
v -32 -17 34
v -40 -17 40
v -40 -17 34
v -45 -17 38
v -44 -17 34
v -44 -17 34
v -40 -17 34
v -44 -11 22
v -40 -11 22
v -44 -11 22
v -40 -11 22
v -44 -11 18
v -40 -11 18
v -40 -11 18
v -40 -11 22
v -34 -7 18
v -34 -7 22
v -34 -7 18
v -34 -7 22
v -30 -7 22
v -40 -29 22
v -34 -29 22
v -40 -22 22
v -34 -22 22
v -22 -29 22
v -24 -29 19
v -22 -22 22
v -24 -22 19
v -44 -29 14
v -44 -29 22
v -44 -25 14
v -44 -25 22
v -34 -29 22
v -34 -29 18
v -28 -29 22
v -28 -29 18
v -28 -22 22
v -28 -29 22
v -34 -29 18
v -34 -22 18
v -28 -29 18
v -28 -22 18
v -28 -19 18
v -28 -19 22
v -22 -19 22
v -24 -19 19
v -28 -17 40
v -28 -22 40
v -25 -17 38
v -25 -22 38
v -28 -22 18
v -28 -19 18
v -24 -22 19
v -24 -19 19
v -22 -29 22
v -24 -29 19
v -28 -29 40
v -25 -29 38
v -28 -29 18
v -24 -29 19
v -44 -17 34
v -44 -19 34
v -45 -17 38
v -45 -22 38
v -28 -29 34
v -24 -29 34
v -28 -29 40
v -25 -29 38
v -24 -22 34
v -24 -17 34
v -25 -22 38
v -25 -17 38
v -44 -29 34
v -45 -29 38
v -24 -29 34
v -25 -29 38
v -28 -22 22
v -28 -29 24
v -28 -22 24
v -28 -29 22
v -22 -22 24
v -22 -22 22
v -22 -19 22
v -22 -19 24
v -28 -29 24
v -22 -29 24
v -22 -29 24
v -22 -29 22
v -28 -19 22
v -28 -19 24
v -28 -22 30
v -28 -29 34
v -28 -22 34
v -28 -29 30
v -24 -22 34
v -24 -22 30
v -24 -19 30
v -24 -17 34
v -24 -22 30
v -22 -22 24
v -22 -19 24
v -24 -19 30
v -28 -29 30
v -24 -29 30
v -24 -29 34
v -24 -29 30
v -24 -29 30
v -22 -29 24
v -28 -19 30
v -28 -17 34
v -34 -25 14
v -44 -29 14
v -44 -25 14
v -34 -29 14
v -40 -29 26
v -40 -25 26
v -44 -29 26
v -44 -26 26
v -30 -25 18
v -30 -29 18
v -30 -25 14
v -30 -29 14
v -40 -29 18
v -34 -29 14
v -44 -29 14
v -40 -29 22
v -44 -29 22
v -40 -29 22
v -40 -22 22
v -40 -29 26
v -40 -25 26
v -44 -29 26
v -40 -29 26
v -44 -26 26
v -44 -29 26
v -34 -22 18
v -34 -29 18
v -30 -25 18
v -30 -29 18
v -30 -29 18
v -30 -29 14
v -30 -29 14
v -30 -25 14
v -28 -17 34
v -28 -22 34
v -32 -17 34
v -32 -22 34
v -32 -29 34
v -32 -29 40
v -28 -22 40
v -28 -17 40
v -32 -22 40
v -32 -17 40
v -28 -29 34
v -32 -29 34
v -28 -29 40
v -32 -29 40
v -40 -17 34
v -40 -19 34
v -40 -29 34
v -40 -29 40
v -40 -22 40
v -40 -17 40
v -40 -29 34
v -40 -29 40
v -40 -11 18
v -40 -13 18
v -44 -11 18
v -44 -13 18
v -44 -29 34
v -45 -29 38
v -40 -22 40
v -40 -17 40
v -45 -22 38
v -45 -17 38
v -44 -19 34
v -44 -29 34
v -40 -29 40
v -45 -29 38
v -40 -17 34
v -40 -19 34
v -40 -11 22
v -40 -15 22
v -40 -19 34
v -44 -19 34
v -40 -15 22
v -44 -13 22
v -44 -19 34
v -44 -17 34
v -44 -13 22
v -44 -11 22
v -40 -15 22
v -44 -13 22
v -40 -13 18
v -44 -13 18
v -44 -13 18
v -44 -11 18
v -40 -11 22
v -40 -15 22
v -34 -7 22
v -34 -11 22
v -40 -15 22
v -40 -13 18
v -34 -11 22
v -34 -9 18
v -34 -9 18
v -34 -7 18
v -30 -7 22
v -30 -9 22
v -34 -11 22
v -34 -9 18
v -30 -9 22
v -30 -7 22
v -34 -9 18
v -34 -7 18
v -30 -7 22
f 1600 1601 1602
f 1601 1603 1602
f 1604 1605 1606
f 1605 1607 1606
f 1608 1609 1610
f 1609 1611 1610
f 1612 1613 1614
f 1613 1615 1614
f 1616 1617 1618
f 1617 1619 1618
f 1620 1621 1622
f 1623 1620 1622
f 1623 1622 1624
f 1625 1623 1624
f 1626 1627 1628
f 1629 1626 1628
f 1630 1631 1632
f 1631 1633 1632
f 1634 1635 1636
f 1635 1637 1636
f 1638 1639 1640
f 1639 1641 1640
f 1633 1642 1643
f 1642 1644 1643
f 1619 1617 1645
f 1617 1646 1645
f 1645 1646 1647
f 1646 1648 1647
f 1647 1648 1649
f 1648 1650 1649
f 1651 1652 1653
f 1652 1654 1653
f 1655 1656 1657
f 1656 1658 1657
f 1659 1660 1661
f 1660 1662 1661
f 1663 1664 1665
f 1666 1667 1668
f 1667 1669 1668
f 1670 1671 1672
f 1671 1673 1672
f 1674 1675 1676
f 1675 1677 1676
f 1678 1679 1680
f 1679 1681 1680
f 1669 1667 1682
f 1667 1683 1682
f 1684 1685 1686
f 1685 1687 1686
f 1687 1685 1688
f 1682 1689 1669
f 1672 1673 1690
f 1673 1691 1690
f 1692 1693 1694
f 1693 1695 1694
f 1696 1697 1698
f 1697 1699 1698
f 1680 1681 1700
f 1681 1701 1700
f 1693 1702 1695
f 1702 1703 1695
f 1704 1696 1705
f 1696 1698 1705
f 1706 1707 1708
f 1707 1709 1708
f 1710 1711 1712
f 1711 1713 1712
f 1714 1715 1716
f 1715 1717 1716
f 1707 1718 1709
f 1718 1719 1709
f 1720 1714 1721
f 1714 1716 1721
f 1722 1723 1724
f 1722 1725 1723
f 1726 1727 1728
f 1729 1726 1728
f 1730 1700 1731
f 1730 1680 1700
f 1732 1733 1727
f 1726 1732 1727
f 1734 1724 1735
f 1734 1722 1724
f 1736 1737 1738
f 1736 1739 1737
f 1724 1739 1736
f 1724 1723 1739
f 1740 1741 1742
f 1743 1740 1742
f 1744 1745 1746
f 1747 1744 1746
f 1748 1731 1749
f 1748 1730 1731
f 1710 1749 1711
f 1710 1748 1749
f 1750 1751 1741
f 1740 1750 1741
f 1752 1753 1745
f 1744 1752 1745
f 1754 1738 1755
f 1754 1736 1738
f 1735 1736 1754
f 1735 1724 1736
f 1756 1757 1758
f 1756 1759 1757
f 1760 1761 1762
f 1761 1763 1762
f 1764 1765 1766
f 1765 1767 1766
f 1679 1768 1769
f 1768 1770 1769
f 1768 1771 1770
f 1771 1772 1770
f 1773 1774 1775
f 1774 1776 1775
f 1772 1771 1777
f 1771 1778 1777
f 1677 1675 1779
f 1675 1780 1779
f 1781 1782 1783
f 1782 1784 1783
f 1679 1769 1785
f 1769 1786 1785
f 1759 1756 1787
f 1756 1788 1787
f 1789 1790 1791
f 1790 1792 1791
f 1710 1712 1793
f 1712 1794 1793
f 1795 1796 1797
f 1796 1798 1797
f 1790 1799 1792
f 1799 1800 1792
f 1801 1795 1802
f 1795 1797 1802
f 1791 1792 1803
f 1792 1804 1803
f 1793 1794 1805
f 1794 1806 1805
f 1797 1798 1807
f 1798 1808 1807
f 1792 1800 1804
f 1800 1809 1804
f 1802 1797 1810
f 1797 1807 1810
f 1811 1812 1813
f 1812 1814 1813
f 1805 1806 1815
f 1806 1816 1815
f 1817 1818 1819
f 1818 1820 1819
f 1804 1809 1821
f 1809 1822 1821
f 1823 1817 1824
f 1817 1819 1824
f 1825 1826 1827
f 1826 1828 1827
f 1829 1830 1831
f 1830 1832 1831
f 1833 1834 1835
f 1834 1836 1835
f 1837 1838 1839
f 1838 1840 1839
f 1835 1836 1841
f 1836 1842 1841
f 1843 1844 1845
f 1844 1846 1845
f 1847 1848 1849
f 1848 1850 1849
f 1812 1811 1851
f 1811 1852 1851
f 1845 1846 1853
f 1846 1854 1853
f 1855 1856 1857
f 1856 1858 1857
f 1859 1860 1861
v 50 -19 24
v 43 -19 24
v 43 -19 35
v 50 -19 35
v 32 -19 24
v 32 -19 35
v 43 -29 35
v 50 -29 24
v 50 -29 35
v 43 -29 24
v 32 -29 35
v 32 -29 24
v 50 -19 42
v 44 -19 42
v 32 -19 35
v 44 -19 42
v 32 -13 42
v 44 -19 50
v 50 -19 50
v 44 -19 42
v 32 -13 42
v 44 -19 50
v 32 -13 50
v 41 -29 42
v 50 -29 42
v 32 -29 42
v 41 -29 50
v 50 -29 50
v 32 -29 50
v 50 -19 19
v 45 -19 19
v 50 -19 14
v 47 -19 14
v 44 -19 14
v 44 -19 19
v 45 -29 19
v 50 -29 19
v 47 -29 14
v 50 -29 14
v 44 -29 19
v 44 -29 14
v 32 -13 42
v 22 -13 42
v 22 -13 50
v 32 -13 50
v 14 -13 42
v 14 -13 50
v 14 -13 42
v 22 -13 42
v 18 -10 32
v 26 -10 32
v 18 -10 32
v 26 -10 32
v 18 -10 24
v 26 -10 24
v 13 -10 30.5
v 13 -10 26
v 18 -17 24
v 26 -17 24
v 18 -19 22
v 26 -19 22
v 50 -29 35
v 50 -29 24
v 50 -19 24
v 50 -19 35
v 32 -19 24
v 32 -29 35
v 32 -19 35
v 32 -29 24
v 50 -29 50
v 50 -29 42
v 50 -19 42
v 50 -19 50
v 14 -13 42
v 14 -29 50
v 14 -13 50
v 14 -29 42
v 32 -29 42
v 32 -13 42
v 32 -29 50
v 41 -29 50
v 44 -19 50
v 32 -13 50
v 50 -29 50
v 50 -19 50
v 50 -19 14
v 47 -29 14
v 47 -19 14
v 50 -29 14
v 44 -29 14
v 44 -19 14
v 50 -29 19
v 50 -19 19
v 50 -29 14
v 50 -19 14
v 44 -19 19
v 32 -29 24
v 32 -19 24
v 44 -29 19
v 44 -19 14
v 44 -29 19
v 44 -19 19
v 44 -29 14
v 22 -29 50
v 22 -13 50
v 14 -29 50
v 14 -13 50
v 32 -13 42
v 22 -29 42
v 22 -13 42
v 32 -29 42
v 26 -10 24
v 18 -13.5 24
v 18 -10 24
v 26 -12 24
v 22 -29 50
v 32 -29 42
v 32 -29 50
v 22 -29 42
v 14 -29 50
v 14 -29 42
v 14 -29 42
v 22 -15 42
v 14 -15 42
v 14 -15 42
v 14 -13 42
v 18 -13.5 32
v 18 -10 32
v 22 -13 42
v 22 -15 42
v 26 -10 32
v 26 -12 32
v 22 -15 42
v 14 -15 42
v 26 -12 32
v 18 -13.5 32
v 13 -11 30.5
v 13 -10 30.5
v 13 -11 26
v 13 -10 26
v 26 -10 32
v 26 -12 32
v 26 -10 24
v 26 -12 24
v 26 -25 32
v 18 -25 32
v 26 -25 24
v 18 -25 24
v 18 -13.5 32
v 18 -10 32
v 13 -11 30.5
v 13 -10 30.5
v 18 -13.5 24
v 18 -13.5 32
v 13 -11 26
v 13 -11 30.5
v 18 -10 24
v 18 -13.5 24
v 13 -10 26
v 13 -11 26
v 18 -13.5 32
v 18 -17 32
v 26 -17 32
v 26 -12 32
v 26 -17 32
v 26 -17 24
v 18 -13.5 24
v 18 -17 32
v 18 -13.5 32
v 18 -17 24
v 26 -17 24
v 18 -17 24
v 18 -19 32
v 26 -19 32
v 18 -25 32
v 26 -25 32
v 26 -25 32
v 26 -25 24
v 26 -19 24
v 26 -19 32
v 18 -19 24
v 18 -25 32
v 18 -19 32
v 18 -25 24
v 26 -19 24
v 18 -25 24
v 18 -19 24
v 26 -25 24
v 18 -19 24
v 18 -17 24
v 18 -19 22
v 26 -17 24
v 26 -19 24
v 26 -19 22
v 26 -19 24
v 18 -19 24
v 26 -19 22
v 18 -19 22
f 1862 1863 1864
f 1865 1862 1864
f 1863 1866 1867
f 1864 1863 1867
f 1868 1869 1870
f 1868 1871 1869
f 1872 1871 1868
f 1872 1873 1871
f 1874 1865 1864
f 1874 1864 1875
f 1864 1876 1877
f 1877 1876 1878
f 1874 1875 1879
f 1880 1874 1879
f 1881 1882 1883
f 1882 1884 1883
f 1885 1868 1886
f 1868 1870 1886
f 1887 1872 1885
f 1885 1872 1868
f 1888 1886 1889
f 1888 1885 1886
f 1890 1885 1888
f 1890 1887 1885
f 1862 1891 1892
f 1862 1892 1863
f 1891 1893 1894
f 1891 1894 1892
f 1894 1895 1892
f 1892 1895 1896
f 1892 1896 1863
f 1863 1896 1866
f 1871 1897 1869
f 1897 1898 1869
f 1897 1899 1898
f 1899 1900 1898
f 1873 1901 1871
f 1871 1901 1897
f 1901 1902 1897
f 1897 1902 1899
f 1903 1904 1905
f 1906 1903 1905
f 1904 1907 1908
f 1905 1904 1908
f 1909 1910 1911
f 1910 1912 1911
f 1913 1914 1915
f 1914 1916 1915
f 1913 1915 1917
f 1915 1918 1917
f 1919 1920 1921
f 1920 1922 1921
f 1923 1924 1925
f 1926 1923 1925
f 1927 1928 1929
f 1927 1930 1928
f 1931 1932 1933
f 1934 1931 1933
f 1932 1923 1926
f 1933 1932 1926
f 1935 1936 1937
f 1935 1938 1936
f 1929 1939 1940
f 1929 1928 1939
f 1941 1942 1943
f 1944 1941 1943
f 1942 1945 1946
f 1943 1942 1946
f 1947 1948 1949
f 1947 1950 1948
f 1949 1951 1952
f 1949 1948 1951
f 1924 1953 1954
f 1925 1924 1954
f 1953 1955 1956
f 1954 1953 1956
f 1957 1958 1959
f 1957 1960 1958
f 1961 1962 1963
f 1961 1964 1962
f 1965 1941 1944
f 1966 1965 1944
f 1967 1965 1966
f 1968 1967 1966
f 1969 1970 1971
f 1969 1972 1970
f 1973 1974 1975
f 1973 1976 1974
f 1977 1978 1979
f 1977 1980 1978
f 1981 1980 1977
f 1981 1982 1980
f 1970 1983 1984
f 1983 1985 1984
f 1986 1987 1988
f 1987 1989 1988
f 1990 1991 1992
f 1991 1993 1992
f 1994 1995 1996
f 1995 1997 1996
f 1998 1999 2000
f 1999 2001 2000
f 2002 2003 2004
f 2003 2005 2004
f 2006 2007 2008
f 2007 2009 2008
f 2010 2011 2012
f 2011 2013 2012
f 2014 2015 2016
f 2015 2017 2016
f 2018 2019 2020
f 2019 2021 2020
f 2022 2023 2024
f 2022 2024 2025
f 2026 2027 2005
f 2003 2026 2005
f 2028 2029 2030
f 2028 2031 2029
f 1976 2032 1974
f 2032 2033 1974
f 2034 2035 2024
f 2023 2034 2024
f 2036 2037 2035
f 2034 2036 2035
f 2038 2039 2040
f 2041 2038 2040
f 2041 2040 2027
f 2026 2041 2027
f 2042 2043 2044
f 2042 2045 2043
f 2031 2044 2029
f 2031 2042 2044
f 2046 2047 2048
f 2046 2049 2047
f 2050 2051 2052
f 2053 2054 2055
f 2056 2057 2058
f 2057 2059 2058
v -50 -13 -18
v -42 -13 -18
v -50 -13 -30
v -42 -13 -30
v -50 -27 -30
v -42 -27 -30
v -50 -27 -18
v -42 -27 -18
v -42 -13 -18
v -50 -13 -18
v -42 -17 -8
v -50 -17 -8
v -42 -17 -8
v -50 -17 -8
v -42 -17 0
v -50 -17 0
v -34 -17 -8
v -34 -17 0
v -42 -17 -8
v -34 -17 -8
v -42 -21 -18
v -34 -21 -18
v -26 -21 -18
v -34 -21 -18
v -26 -25 -8
v -34 -25 -8
v -34 -21 -36
v -42 -21 -36
v -42 -21 -18
v -34 -21 -18
v -34 -21 -50
v -42 -21 -50
v -26 -21 -50
v -26 -21 -36
v -26 -21 -18
v -20 -21 -50
v -20 -21 -36
v -20 -21 -18
v -20 -21 -50
v -20 -21 -36
v -10 -25 -50
v -10 -25 -36
v -50 -27 0
v -42 -27 0
v -50 -17 0
v -42 -17 0
v -42 -27 -18
v -42 -27 -30
v -42 -13 -18
v -42 -13 -30
v -42 -27 -30
v -50 -27 -30
v -42 -13 -30
v -50 -13 -30
v -50 -27 -30
v -50 -27 -18
v -50 -13 -30
v -50 -13 -18
v -50 -27 -18
v -42 -27 -18
v -50 -27 -8
v -42 -27 -8
v -50 -17 -8
v -50 -27 -8
v -42 -27 -8
v -42 -17 -8
v -50 -27 0
v -42 -27 0
v -50 -17 0
v -50 -27 0
v -34 -27 -8
v -34 -17 -8
v -34 -27 0
v -34 -17 0
v -42 -27 -50
v -42 -21 -50
v -34 -27 -50
v -34 -21 -50
v -34 -27 0
v -34 -27 -8
v -34 -17 0
v -34 -27 0
v -42 -27 -8
v -42 -17 -8
v -42 -27 -18
v -42 -21 -18
v -34 -27 -18
v -34 -21 -18
v -34 -27 -18
v -34 -27 -8
v -26 -27 -8
v -26 -25 -8
v -34 -25 -8
v -26 -27 -18
v -20 -27 -18
v -20 -21 -18
v -26 -21 -18
v -26 -21 -50
v -26 -27 -50
v -20 -21 -50
v -20 -27 -50
v -26 -27 -18
v -26 -27 -8
v -26 -27 -18
v -26 -21 -18
v -26 -27 -8
v -26 -25 -8
v -34 -21 -18
v -34 -27 -18
v -34 -25 -8
v -34 -27 -8
v -42 -21 -36
v -42 -27 -36
v -42 -21 -50
v -42 -27 -50
v -34 -27 -36
v -42 -27 -36
v -34 -27 -50
v -42 -27 -50
v -20 -27 -18
v -20 -27 -36
v -20 -21 -36
v -20 -21 -18
v -10 -27 -36
v -10 -27 -50
v -10 -25 -50
v -10 -25 -36
v -26 -27 -50
v -26 -27 -36
v -20 -27 -50
v -20 -27 -36
v -20 -27 -18
v -10 -27 -36
v -10 -27 -50
v -10 -27 -50
v -10 -25 -50
v -20 -21 -36
v -20 -27 -36
v -10 -25 -36
v -10 -27 -36
f 2060 2061 2062
f 2061 2063 2062
f 2064 2065 2066
f 2065 2067 2066
f 2068 2069 2070
f 2069 2071 2070
f 2072 2073 2074
f 2073 2075 2074
f 2072 2074 2076
f 2074 2077 2076
f 2078 2079 2080
f 2079 2081 2080
f 2082 2083 2084
f 2083 2085 2084
f 2086 2087 2088
f 2089 2086 2088
f 2090 2091 2087
f 2086 2090 2087
f 2092 2090 2086
f 2093 2092 2086
f 2093 2086 2089
f 2094 2093 2089
f 2095 2092 2093
f 2096 2095 2093
f 2096 2093 2094
f 2097 2096 2094
f 2098 2099 2100
f 2099 2101 2100
f 2102 2103 2104
f 2103 2105 2104
f 2106 2107 2108
f 2107 2109 2108
f 2110 2111 2112
f 2111 2113 2112
f 2114 2115 2116
f 2115 2117 2116
f 2118 2119 2120
f 2119 2121 2120
f 2117 2115 2122
f 2115 2123 2122
f 2106 2108 2124
f 2108 2125 2124
f 2120 2121 2126
f 2121 2127 2126
f 2122 2123 2128
f 2123 2129 2128
f 2130 2131 2132
f 2131 2133 2132
f 2134 2135 2136
f 2135 2137 2136
f 2127 2121 2138
f 2121 2139 2138
f 2105 2103 2140
f 2103 2141 2140
f 2142 2143 2144
f 2143 2145 2144
f 2139 2121 2146
f 2121 2119 2146
f 2131 2130 2147
f 2130 2148 2147
f 2149 2150 2151
f 2152 2149 2151
f 2153 2154 2155
f 2156 2153 2155
f 2157 2136 2137
f 2157 2158 2136
f 2159 2158 2157
f 2159 2160 2158
f 2146 2161 2139
f 2161 2162 2139
f 2163 2164 2165
f 2164 2166 2165
f 2167 2168 2169
f 2168 2170 2169
f 2171 2144 2145
f 2171 2172 2144
f 2173 2172 2171
f 2173 2174 2172
f 2119 2175 2146
f 2119 2176 2175
f 2176 2177 2175
f 2176 2178 2177
f 2179 2180 2181
f 2182 2179 2181
f 2183 2184 2185
f 2186 2183 2185
f 2175 2187 2188
f 2175 2177 2187
f 2146 2188 2161
f 2146 2175 2188
f 2188 2189 2190
f 2188 2187 2189
f 2161 2190 2191
f 2161 2188 2190
f 2190 2189 2192
f 2189 2193 2192
f 2160 2159 2194
f 2159 2195 2194
f 2196 2197 2198
f 2197 2199 2198
v -2 -18.5 18
v 2 -18.5 18
v -2 -18.5 14
v 2 -18.5 14
v -2 -21 14
v 2 -21 14
v -2 -21 18
v 2 -21 18
v -2 -21 18
v 2 -21 18
v -2 -18.5 18
v 2 -18.5 18
v 2 -21 18
v 2 -21 14
v 2 -18.5 18
v 2 -18.5 14
v 2 -21 14
v -2 -21 14
v 2 -18.5 14
v -2 -18.5 14
v -2 -21 14
v -2 -21 18
v -2 -18.5 14
v -2 -18.5 18
f 2200 2201 2202
f 2201 2203 2202
f 2204 2205 2206
f 2205 2207 2206
f 2208 2209 2210
f 2209 2211 2210
f 2212 2213 2214
f 2213 2215 2214
f 2216 2217 2218
f 2217 2219 2218
f 2220 2221 2222
f 2221 2223 2222
v 20 -19 16
v 18 -19 18
v 18 -19 24
v 20 -19 24
v 18 -26 24
v 20 -26 16
v 20 -26 24
v 18 -26 18
v 26 -19 18
v 24 -19 16
v 24 -19 24
v 26 -19 24
v 24 -26 24
v 26 -26 18
v 26 -26 24
v 24 -26 16
v 22 -19 16
v 22 -19 24
v 22 -26 24
v 22 -26 16
v 28 -26 24
v 28 -26 17.17157
v 28 -25 17.17157
v 28 -25 24
v 26 -22.5 24
v 26 -22.5 18
v 26 -19 18
v 26 -19 24
v 16 -25 17.17157
v 16 -26 24
v 16 -25 24
v 16 -26 17.17157
v 18 -19 18
v 18 -22.5 24
v 18 -19 24
v 18 -22.5 18
v 18 -26 24
v 20 -26 24
v 20 -22.5 24
v 18 -22.5 24
v 20 -19 24
v 18 -19 24
v 19.17157 -25 14
v 16 -26 17.17157
v 16 -25 17.17157
v 19.17157 -26 14
v 20 -19 16
v 18 -22.5 18
v 18 -19 18
v 20 -22.5 16
v 24 -26 24
v 26 -26 24
v 26 -22.5 24
v 24 -22.5 24
v 26 -19 24
v 24 -19 24
v 28 -25 17.17157
v 24.82843 -26 14
v 24.82843 -25 14
v 28 -26 17.17157
v 26 -19 18
v 24 -22.5 16
v 24 -19 16
v 26 -22.5 18
v 22 -26 24
v 22 -22.5 24
v 22 -19 24
v 22 -25 14
v 19.17157 -26 14
v 19.17157 -25 14
v 22 -26 14
v 22 -19 16
v 20 -22.5 16
v 20 -19 16
v 22 -22.5 16
v 24.82843 -25 14
v 24.82843 -26 14
v 24 -19 16
v 24 -22.5 16
v 26 -26 24
v 26 -26 18
v 28 -26 24
v 28 -26 17.17157
v 24 -26 16
v 24.82843 -26 14
v 28 -25 24
v 28 -26 24
v 26 -22.5 18
v 26 -22.5 24
v 28 -25 17.17157
v 28 -25 24
v 22 -26 16
v 22 -26 14
v 24 -22.5 16
v 26 -22.5 18
v 24.82843 -25 14
v 28 -25 17.17157
v 20 -26 16
v 19.17157 -26 14
v 22 -22.5 16
v 24 -22.5 16
v 22 -25 14
v 24.82843 -25 14
v 18 -26 18
v 16 -26 17.17157
v 20 -22.5 16
v 19.17157 -25 14
v 18 -26 24
v 16 -26 24
v 18 -22.5 18
v 20 -22.5 16
v 16 -25 17.17157
v 19.17157 -25 14
v 16 -26 24
v 16 -25 24
v 18 -22.5 24
v 18 -22.5 18
v 16 -25 24
v 16 -25 17.17157
f 2224 2225 2226
f 2227 2224 2226
f 2228 2229 2230
f 2228 2231 2229
f 2232 2233 2234
f 2235 2232 2234
f 2236 2237 2238
f 2236 2239 2237
f 2233 2240 2241
f 2234 2233 2241
f 2240 2224 2227
f 2241 2240 2227
f 2242 2239 2236
f 2242 2243 2239
f 2230 2243 2242
f 2230 2229 2243
f 2244 2245 2246
f 2247 2244 2246
f 2248 2249 2250
f 2251 2248 2250
f 2252 2253 2254
f 2252 2255 2253
f 2256 2257 2258
f 2256 2259 2257
f 2260 2261 2262
f 2263 2260 2262
f 2263 2262 2264
f 2265 2263 2264
f 2266 2267 2268
f 2266 2269 2267
f 2270 2271 2272
f 2270 2273 2271
f 2274 2275 2276
f 2277 2274 2276
f 2277 2276 2278
f 2279 2277 2278
f 2280 2281 2282
f 2280 2283 2281
f 2284 2285 2286
f 2284 2287 2285
f 2261 2288 2289
f 2262 2261 2289
f 2262 2289 2290
f 2264 2262 2290
f 2288 2274 2277
f 2289 2288 2277
f 2289 2277 2279
f 2290 2289 2279
f 2291 2292 2293
f 2291 2294 2292
f 2295 2296 2297
f 2295 2298 2296
f 2299 2294 2291
f 2299 2300 2294
f 2301 2298 2295
f 2301 2302 2298
f 2303 2304 2305
f 2304 2306 2305
f 2304 2307 2306
f 2307 2308 2306
f 2276 2275 2309
f 2275 2310 2309
f 2311 2312 2313
f 2312 2314 2313
f 2307 2315 2308
f 2315 2316 2308
f 2317 2318 2319
f 2318 2320 2319
f 2315 2321 2316
f 2321 2322 2316
f 2323 2324 2325
f 2324 2326 2325
f 2321 2327 2322
f 2327 2328 2322
f 2329 2323 2330
f 2323 2325 2330
f 2327 2331 2328
f 2331 2332 2328
f 2333 2334 2335
f 2334 2336 2335
f 2260 2263 2337
f 2263 2338 2337
f 2339 2340 2341
f 2340 2342 2341
v -4 -9 4
v 4 -9 4
v -4 -9 -4
v 4 -9 -4
v -4 -19 -4
v 4 -19 -4
v -4 -19 4
v 4 -19 4
v -4 -19 4
v 4 -19 4
v -4 -9 4
v 4 -9 4
v 4 -19 4
v 4 -19 -4
v 4 -9 4
v 4 -9 -4
v 4 -19 -4
v -4 -19 -4
v 4 -9 -4
v -4 -9 -4
v -4 -19 -4
v -4 -19 4
v -4 -9 -4
v -4 -9 4
f 2343 2344 2345
f 2344 2346 2345
f 2347 2348 2349
f 2348 2350 2349
f 2351 2352 2353
f 2352 2354 2353
f 2355 2356 2357
f 2356 2358 2357
f 2359 2360 2361
f 2360 2362 2361
f 2363 2364 2365
f 2364 2366 2365
v -50 25 50
v 50 25 50
v 50 -25 50
v -50 -25 50
v 50 25 50
v 50 25 -50
v 50 -25 -50
v 50 -25 50
v 50 25 -50
v -50 25 -50
v -50 -25 -50
v 50 -25 -50
v -50 25 -50
v -50 25 50
v -50 -25 50
v -50 -25 -50
v -50 25 -50
v 50 25 -50
v 50 25 50
v -50 25 50
v -50 -25 50
v 50 -25 50
v 50 -25 -50
v -50 -25 -50
f 2367 2368 2369
f 2367 2369 2370
f 2371 2372 2373
f 2371 2373 2374
f 2375 2376 2377
f 2375 2377 2378
f 2379 2380 2381
f 2379 2381 2382
f 2383 2384 2385
f 2383 2385 2386
f 2387 2388 2389
f 2387 2389 2390
v -42 -10 -44
v -50 -10 -44
v -50 -10 -38
v -42 -10 -38
v -42 -10 -50
v -50 -10 -50
v -50 -27 -44
v -42 -27 -50
v -42 -27 -44
v -50 -27 -50
v -50 -27 -38
v -42 -27 -38
v -42 -10 -50
v -42 -10 -44
v -36 -17 -50
v -36 -17 -44
v -50 -27 -38
v -42 -27 -38
v -50 -10 -38
v -42 -10 -38
v -42 -27 -50
v -50 -27 -50
v -42 -10 -50
v -50 -10 -50
v -42 -27 -38
v -42 -27 -44
v -42 -10 -44
v -42 -10 -38
v -36 -27 -44
v -36 -27 -50
v -36 -17 -50
v -36 -17 -44
v -50 -10 -50
v -50 -27 -44
v -50 -10 -44
v -50 -27 -50
v -50 -27 -38
v -50 -10 -38
v -42 -27 -44
v -42 -27 -50
v -36 -27 -44
v -36 -27 -50
v -36 -27 -50
v -36 -17 -50
v -42 -10 -44
v -42 -27 -44
v -36 -17 -44
v -36 -27 -44
f 2391 2392 2393
f 2394 2391 2393
f 2395 2396 2392
f 2391 2395 2392
f 2397 2398 2399
f 2397 2400 2398
f 2401 2399 2402
f 2401 2397 2399
f 2403 2404 2405
f 2404 2406 2405
f 2407 2408 2409
f 2408 2410 2409
f 2411 2412 2413
f 2412 2414 2413
f 2415 2416 2417
f 2418 2415 2417
f 2419 2420 2421
f 2422 2419 2421
f 2423 2424 2425
f 2423 2426 2424
f 2425 2427 2428
f 2425 2424 2427
f 2429 2430 2431
f 2430 2432 2431
f 2411 2413 2433
f 2413 2434 2433
f 2435 2436 2437
f 2436 2438 2437
v 2 -21 14
v -2 -21 14
v -2 -21 20
v 2 -21 20
v -2 -21 25
v 2 -21 25
v -2 -29 20
v 2 -29 14
v 2 -29 20
v -2 -29 14
v -2 -29 25
v 2 -29 25
v -8 -21 20
v -8 -21 14
v 8 -21 14
v 8 -21 20
v -2 -21 25
v -2 -21 20
v -8 -25 25
v -8 -25 20
v 2 -21 20
v 2 -21 25
v 8 -25 20
v 8 -25 25
v -10 -19 41
v -14 -19 41
v -10 -19 50
v -14 -19 50
v 14 -19 46
v 10 -19 46
v 10 -19 50
v 14 -19 50
v -4 -21 46
v -10 -19 46
v -4 -21 50
v -10 -19 50
v -10 -19 40
v -14 -19 40
v -10 -19 35
v -14 -19 35
v -14 -19 36
v -10 -19 36
v 14 -19 41
v 10 -19 41
v -2 -21 27
v 2 -21 27
v -2 -21 29
v 2 -21 29
v -2 -29 27
v 2 -29 27
v -2 -29 29
v 2 -29 29
v 14 -21 25
v 10 -21 25
v 10 -21 27
v 14 -21 27
v 9 -21 29.5
v 14 -21 29
v -10 -21 27
v -14 -21 27
v -14 -21 29
v -8.5 -21 30
v -10 -21 25
v -14 -21 25
v 10 -19 46
v 4 -21 46
v 4 -21 50
v 10 -19 50
v 4 -21 46
v -4 -21 46
v -4 -21 50
v 4 -21 50
v 14 -19 35
v 10 -19 35
v 10 -19 36
v 14 -19 36
v 10 -19 40
v 14 -19 40
v -8.5 -21 30
v -14 -21 29
v -14 -20 32
v -10 -20 32
v -10 -20 32
v -14 -20 32
v -14 -19 35
v -10 -19 35
v -6 -21 27
v -6 -21 29
v -6 -21 25
v 14 -21 29
v 9 -21 29.5
v 10 -20 32
v 14 -20 32
v 10 -20 32
v 10 -19 35
v 14 -19 35
v 6 -21 25
v 6 -21 27
v 6 -21 29
v -2 -29 29
v 2 -29 29
v -2 -21 29
v 2 -21 29
v 2 -29 14
v -2 -29 14
v 2 -21 14
v -2 -21 14
v 6 -29 25
v 8 -29 20
v 8 -25 20
v 8 -25 25
v 8 -29 20
v 8 -29 14
v 8 -21 14
v 8 -21 20
v -8 -25 20
v -6 -29 25
v -8 -25 25
v -8 -29 20
v -8 -21 14
v -8 -29 20
v -8 -21 20
v -8 -29 14
v -2 -29 20
v -2 -21 20
v -8 -29 20
v -8 -21 20
v -8 -21 14
v -8 -29 14
v -2 -29 14
v -2 -29 20
v -8 -29 14
v -8 -29 20
v 2 -29 20
v 2 -29 14
v 8 -29 20
v 8 -29 14
v 8 -29 14
v 8 -21 14
v 2 -21 20
v 2 -29 20
v 8 -21 20
v 8 -29 20
v -2 -29 25
v -2 -21 25
v -6 -29 25
v -8 -25 25
v -2 -21 20
v -2 -29 20
v -8 -25 20
v -8 -29 20
v -2 -29 25
v -6 -29 25
v 2 -29 25
v 6 -29 25
v 2 -29 20
v 2 -21 20
v 8 -29 20
v 8 -25 20
v 2 -21 25
v 2 -29 25
v 8 -25 25
v 6 -29 25
v 10 -29 25
v 10 -21 25
v 14 -29 25
v 14 -21 25
v 10 -19 50
v 10 -29 50
v 14 -19 50
v 14 -29 50
v -10 -29 50
v -10 -19 50
v -14 -29 50
v -14 -19 50
v -10 -21 25
v -10 -29 25
v -14 -21 25
v -14 -29 25
v -14 -30 35
v -10 -30 35
v -14 -30 41
v -10 -30 41
v -10 -30 41
v -10 -19 41
v -10 -29 50
v -10 -19 50
v -14 -30 41
v -10 -30 41
v -14 -29 50
v -10 -29 50
v -14 -19 41
v -14 -30 41
v -14 -19 50
v -14 -29 50
v -10 -19 46
v -10 -29 50
v -10 -19 50
v -10 -29 46
v 10 -29 50
v 14 -29 46
v 14 -29 50
v 10 -29 46
v 14 -29 50
v 14 -29 46
v 14 -19 46
v 14 -19 50
v -14 -30 35
v -14 -26 35
v -14 -26 41
v -10 -30 35
v -10 -26 41
v -10 -26 35
v -14 -21 35
v -14 -26 35
v -10 -21 35
v -10 -26 35
v -14 -26 41
v -14 -21 41
v -10 -26 41
v -10 -21 41
v -4 -29 50
v -4 -21 50
v -4 -21 46
v -10 -29 46
v -10 -19 46
v -4 -29 46
v -10 -29 50
v -4 -29 46
v -4 -29 50
v -10 -29 46
v -14 -19 40
v -14 -21 41
v -14 -20 40
v -10 -21 41
v -10 -20 40
v -10 -19 40
v -14 -21 41
v -10 -20 40
v -10 -21 41
v -14 -20 40
v -14 -19 36
v -14 -20 36
v -14 -19 35
v -14 -21 35
v -10 -20 36
v -10 -19 36
v -10 -21 35
v -10 -19 35
v -14 -20 36
v -10 -21 35
v -10 -20 36
v -14 -21 35
v -14 -20 40
v -10 -20 36
v -10 -20 40
v -14 -20 36
v 10 -19 41
v 10 -29 46
v 10 -19 46
v 10 -29 41
v 10 -29 41
v 14 -29 35
v 14 -29 41
v 10 -29 35
v 14 -29 41
v 14 -19 41
v 14 -29 29
v 14 -29 27
v 14 -21 27
v 14 -21 29
v 14 -29 25
v 14 -21 25
v -14 -21 27
v -14 -29 29
v -14 -21 29
v -14 -29 27
v -14 -21 25
v -14 -29 25
v 9 -29 29.5
v 14 -29 27
v 14 -29 29
v 10 -29 27
v 14 -29 25
v 10 -29 25
v -14 -29 27
v -10 -29 25
v -10 -29 27
v -14 -29 25
v -14 -29 29
v -8.5 -29 30
v 4 -29 50
v 4 -21 50
v 4 -21 46
v 4 -29 46
v 10 -19 46
v 10 -29 46
v 4 -29 50
v 4 -29 46
v 14 -29 35
v 14 -26 41
v 14 -26 35
v 14 -29 35
v 14 -19 35
v 14 -26 35
v 14 -19 35
v 14 -21 35
v 14 -26 35
v 14 -19 41
v 14 -29 41
v 14 -21 41
v 14 -29 41
v 14 -26 41
v 14 -21 41
v 10 -29 41
v 10 -19 41
v 10 -26 41
v 10 -19 41
v 10 -21 41
v 10 -26 41
v 10 -19 35
v 10 -29 35
v 10 -21 35
v 10 -29 35
v 10 -26 35
v 10 -21 35
v 10 -29 35
v 10 -29 41
v 10 -26 35
v 10 -26 41
v 10 -26 41
v 10 -21 41
v 14 -26 41
v 14 -21 41
v 10 -21 35
v 10 -26 35
v 14 -21 35
v 14 -26 35
v 10 -26 35
v 10 -26 41
v 14 -26 35
v 14 -26 41
v 14 -20 36
v 14 -21 35
v 14 -19 35
v 14 -19 36
v 10 -19 35
v 10 -20 36
v 10 -19 36
v 10 -21 35
v 10 -20 36
v 14 -21 35
v 14 -20 36
v 10 -21 35
v 14 -21 41
v 14 -20 40
v 14 -19 40
v 10 -19 40
v 10 -21 41
v 10 -19 41
v 10 -20 40
v 10 -20 40
v 14 -20 36
v 14 -20 40
v 10 -20 36
v 10 -21 41
v 14 -20 40
v 14 -21 41
v 10 -20 40
v -10 -29.5 32
v -8.5 -29 30
v -8.5 -21 30
v -10 -20 32
v -10 -30 35
v -10 -29.5 32
v -10 -20 32
v -10 -19 35
v -14 -29.5 32
v -8.5 -29 30
v -10 -29.5 32
v -14 -29 29
v -14 -30 35
v -10 -29.5 32
v -10 -30 35
v -14 -29.5 32
v -14 -29.5 32
v -14 -20 32
v -6 -29 29
v -2 -29 29
v -2 -21 29
v -6 -21 29
v -8.5 -29 30
v -6 -29 29
v -6 -21 29
v -8.5 -21 30
v -2 -21 25
v -6 -29 25
v -6 -21 25
v -2 -29 25
v -6 -29 27
v -2 -29 27
v -6 -29 29
v -2 -29 29
v 10 -20 32
v 10 -29 35
v 10 -19 35
v 10 -29 32
v 9 -21 29.5
v 10 -29 32
v 10 -20 32
v 9 -29 29.5
v 10 -29 32
v 14 -29 32
v 14 -29 32
v 14 -20 32
v 6 -21 25
v 2 -29 25
v 2 -21 25
v 6 -29 25
v 2 -29 29
v 6 -29 29
v 6 -21 29
v 2 -21 29
v 6 -29 29
v 9 -29 29.5
v 9 -21 29.5
v 6 -21 29
v 6 -29 29
v 6 -29 27
v 2 -29 29
v 2 -29 27
f 2439 2440 2441
f 2442 2439 2441
f 2442 2441 2443
f 2444 2442 2443
f 2445 2446 2447
f 2445 2448 2446
f 2449 2447 2450
f 2449 2445 2447
f 2441 2440 2451
f 2440 2452 2451
f 2439 2442 2453
f 2442 2454 2453
f 2455 2456 2457
f 2456 2458 2457
f 2459 2460 2461
f 2460 2462 2461
f 2463 2464 2465
f 2464 2466 2465
f 2467 2468 2469
f 2470 2467 2469
f 2471 2472 2473
f 2473 2472 2474
f 2475 2476 2464
f 2463 2475 2464
f 2477 2478 2479
f 2480 2477 2479
f 2480 2479 2476
f 2475 2480 2476
f 2481 2482 2468
f 2467 2481 2468
f 2444 2443 2483
f 2484 2444 2483
f 2484 2483 2485
f 2486 2484 2485
f 2487 2450 2488
f 2487 2449 2450
f 2489 2488 2490
f 2489 2487 2488
f 2491 2492 2493
f 2494 2491 2493
f 2494 2493 2495
f 2496 2494 2495
f 2497 2498 2499
f 2500 2497 2499
f 2501 2502 2498
f 2497 2501 2498
f 2503 2504 2505
f 2506 2503 2505
f 2507 2508 2509
f 2510 2507 2509
f 2511 2512 2513
f 2514 2511 2513
f 2514 2513 2515
f 2516 2514 2515
f 2516 2515 2482
f 2481 2516 2482
f 2517 2518 2519
f 2520 2517 2519
f 2521 2522 2523
f 2524 2521 2523
f 2483 2525 2526
f 2485 2483 2526
f 2525 2497 2500
f 2526 2525 2500
f 2443 2527 2525
f 2483 2443 2525
f 2527 2501 2497
f 2525 2527 2497
f 2528 2529 2530
f 2531 2528 2530
f 2531 2532 2533
f 2534 2531 2533
f 2492 2535 2536
f 2493 2492 2536
f 2535 2444 2484
f 2536 2535 2484
f 2493 2536 2537
f 2495 2493 2537
f 2536 2484 2486
f 2537 2536 2486
f 2538 2539 2540
f 2539 2541 2540
f 2542 2543 2544
f 2543 2545 2544
f 2546 2547 2548
f 2549 2546 2548
f 2550 2551 2552
f 2553 2550 2552
f 2554 2555 2556
f 2554 2557 2555
f 2558 2559 2560
f 2558 2561 2559
f 2562 2563 2564
f 2563 2565 2564
f 2545 2543 2566
f 2543 2567 2566
f 2568 2569 2570
f 2569 2571 2570
f 2572 2573 2574
f 2573 2575 2574
f 2542 2544 2576
f 2544 2577 2576
f 2578 2579 2580
f 2579 2581 2580
f 2582 2583 2584
f 2583 2585 2584
f 2586 2587 2588
f 2587 2589 2588
f 2569 2590 2571
f 2590 2591 2571
f 2592 2572 2593
f 2572 2574 2593
f 2594 2595 2596
f 2595 2597 2596
f 2598 2599 2600
f 2599 2601 2600
f 2602 2603 2604
f 2603 2605 2604
f 2606 2607 2608
f 2607 2609 2608
f 2610 2611 2612
f 2611 2613 2612
f 2614 2615 2616
f 2615 2617 2616
f 2618 2619 2620
f 2619 2621 2620
f 2622 2623 2624
f 2623 2625 2624
f 2626 2627 2628
f 2627 2629 2628
f 2630 2631 2632
f 2631 2633 2632
f 2634 2635 2636
f 2634 2637 2635
f 2638 2639 2640
f 2638 2641 2639
f 2642 2643 2644
f 2645 2642 2644
f 2646 2631 2647
f 2631 2648 2647
f 2622 2649 2650
f 2649 2651 2650
f 2652 2653 2654
f 2653 2655 2654
f 2656 2657 2658
f 2657 2659 2658
f 2610 2660 2661
f 2611 2610 2661
f 2662 2663 2664
f 2662 2665 2663
f 2666 2667 2668
f 2666 2669 2667
f 2670 2671 2630
f 2670 2672 2671
f 2673 2674 2675
f 2623 2673 2675
f 2676 2677 2678
f 2676 2679 2677
f 2680 2672 2670
f 2680 2681 2672
f 2682 2681 2680
f 2682 2683 2681
f 2674 2684 2685
f 2675 2674 2685
f 2684 2686 2687
f 2685 2684 2687
f 2688 2689 2690
f 2688 2691 2689
f 2692 2693 2694
f 2692 2695 2693
f 2696 2697 2698
f 2696 2699 2697
f 2700 2701 2702
f 2700 2703 2701
f 2641 2702 2639
f 2641 2700 2702
f 2643 2704 2705
f 2644 2643 2705
f 2706 2707 2708
f 2709 2706 2708
f 2707 2710 2711
f 2708 2707 2711
f 2712 2713 2714
f 2712 2715 2713
f 2716 2715 2712
f 2716 2717 2715
f 2718 2719 2720
f 2718 2721 2719
f 2721 2722 2719
f 2721 2723 2722
f 2724 2725 2726
f 2724 2727 2725
f 2728 2726 2729
f 2728 2724 2726
f 2661 2660 2730
f 2661 2730 2731
f 2731 2730 2607
f 2731 2607 2606
f 2732 2733 2662
f 2733 2665 2662
f 2734 2735 2732
f 2735 2733 2732
f 2736 2641 2638
f 2736 2737 2641
f 2668 2737 2736
f 2668 2667 2737
f 2704 2738 2739
f 2738 2740 2739
f 2741 2742 2743
f 2744 2745 2746
f 2747 2748 2749
f 2750 2751 2752
f 2753 2754 2755
f 2756 2757 2758
f 2759 2760 2761
f 2762 2763 2764
f 2765 2766 2767
f 2766 2768 2767
f 2769 2770 2771
f 2770 2772 2771
f 2773 2774 2775
f 2774 2776 2775
f 2777 2778 2779
f 2778 2780 2779
f 2781 2782 2783
f 2784 2781 2783
f 2785 2786 2787
f 2785 2788 2786
f 2789 2790 2791
f 2789 2792 2790
f 2793 2794 2795
f 2705 2793 2795
f 2794 2781 2784
f 2795 2794 2784
f 2796 2797 2798
f 2796 2799 2797
f 2787 2799 2796
f 2787 2786 2799
f 2800 2801 2802
f 2800 2803 2801
f 2804 2805 2806
f 2804 2807 2805
f 2808 2809 2810
f 2811 2808 2810
f 2812 2813 2814
f 2815 2812 2814
f 2816 2817 2818
f 2816 2819 2817
f 2820 2821 2822
f 2820 2823 2821
f 2714 2824 2825
f 2714 2713 2824
f 2825 2646 2682
f 2825 2824 2646
f 2826 2827 2828
f 2829 2826 2828
f 2830 2831 2832
f 2833 2830 2832
f 2834 2835 2836
f 2834 2837 2835
f 2836 2615 2614
f 2836 2835 2615
f 2838 2590 2839
f 2838 2591 2590
f 2726 2591 2838
f 2726 2725 2591
f 2840 2839 2841
f 2840 2838 2839
f 2729 2838 2840
f 2729 2726 2838
f 2842 2843 2844
f 2842 2845 2843
f 2846 2847 2848
f 2846 2849 2847
f 2850 2720 2851
f 2850 2718 2720
f 2703 2851 2701
f 2703 2850 2851
f 2738 2852 2853
f 2783 2738 2853
f 2852 2706 2709
f 2853 2852 2709
f 2854 2855 2856
f 2854 2857 2855
f 2603 2857 2854
f 2603 2602 2857
f 2858 2859 2860
f 2861 2858 2860
f 2862 2863 2864
f 2865 2862 2864
f 2866 2721 2718
f 2866 2867 2721
f 2868 2867 2866
f 2868 2869 2867
f 2867 2723 2721
f 2867 2593 2723
f 2869 2593 2867
f 2869 2592 2593
v -28.72794 -25.03617 -0.2908217
v -33.71969 -21.36261 0.5153885
v -27.85757 -23.82262 -0.4313948
v -32.84931 -20.14907 0.3748155
v -28.3359 -23.82262 -3.393017
v -33.32764 -20.14907 -2.586807
v -29.20627 -25.03617 -3.252444
v -34.19802 -21.36261 -2.446234
v -27.85757 -23.82262 -0.4313948
v -32.84931 -20.14907 0.3748155
v -28.3359 -23.82262 -3.393017
v -33.32764 -20.14907 -2.586807
v -29.20627 -25.03617 -3.252444
v -28.72794 -25.03617 -0.2908217
v -33.71969 -21.36261 0.5153885
v -34.19802 -21.36261 -2.446234
v -33.71969 -21.36261 0.5153885
v -32.84931 -20.14907 0.3748155
v -33.32764 -20.14907 -2.586807
v -34.19802 -21.36261 -2.446234
v -29.20627 -25.03617 -3.252444
v -28.3359 -23.82262 -3.393017
v -27.85757 -23.82262 -0.4313948
v -28.72794 -25.03617 -0.2908217
f 2870 2872 2873
f 2870 2873 2871
f 2878 2874 2875
f 2878 2875 2879
f 2880 2876 2877
f 2880 2877 2881
f 2882 2883 2884
f 2882 2884 2885
f 2886 2887 2888
f 2886 2888 2889
f 2890 2891 2892
f 2890 2892 2893
v -47.94443 17.10144 -12.39615
v -47.96402 17.10144 11.25529
v -50.31157 17.10144 -12.39811
v -50.33116 17.10144 11.25333
v -50.31158 3.178554 -12.39811
v -50.33117 3.178555 11.25333
v -47.94444 3.178553 -12.39615
v -47.96403 3.178554 11.25529
v -50.31157 17.10144 -12.39811
v -50.33116 17.10144 11.25333
v -50.31158 3.178554 -12.39811
v -50.33117 3.178555 11.25333
v -47.94444 3.178553 -12.39615
v -47.94443 17.10144 -12.39615
v -47.96402 17.10144 11.25529
v -47.96403 3.178554 11.25529
v -47.96402 17.10144 11.25529
v -50.33116 17.10144 11.25333
v -50.33117 3.178555 11.25333
v -47.96403 3.178554 11.25529
v -47.94444 3.178553 -12.39615
v -50.31158 3.178554 -12.39811
v -50.31157 17.10144 -12.39811
v -47.94443 17.10144 -12.39615
f 2894 2896 2897
f 2894 2897 2895
f 2902 2898 2899
f 2902 2899 2903
f 2904 2900 2901
f 2904 2901 2905
f 2906 2907 2908
f 2906 2908 2909
f 2910 2911 2912
f 2910 2912 2913
f 2914 2915 2916
f 2914 2916 2917
v 6.529788 15.86002 48.12997
v 6.529777 -5.645779 48.12997
v 6.528003 15.86002 50.28236
v 6.527993 -5.645779 50.28236
v -6.131803 15.86002 50.27186
v -6.131813 -5.645773 50.27186
v -6.130018 15.86002 48.11947
v -6.130029 -5.645773 48.11947
v 6.528003 15.86002 50.28236
v 6.527993 -5.645779 50.28236
v -6.131803 15.86002 50.27186
v -6.131813 -5.645773 50.27186
v -6.130018 15.86002 48.11947
v 6.529788 15.86002 48.12997
v 6.529777 -5.645779 48.12997
v -6.130029 -5.645773 48.11947
v 6.529777 -5.645779 48.12997
v 6.527993 -5.645779 50.28236
v -6.131813 -5.645773 50.27186
v -6.130029 -5.645773 48.11947
v -6.130018 15.86002 48.11947
v -6.131803 15.86002 50.27186
v 6.528003 15.86002 50.28236
v 6.529788 15.86002 48.12997
f 2918 2920 2921
f 2918 2921 2919
f 2926 2922 2923
f 2926 2923 2927
f 2928 2924 2925
f 2928 2925 2929
f 2930 2931 2932
f 2930 2932 2933
f 2934 2935 2936
f 2934 2936 2937
f 2938 2939 2940
f 2938 2940 2941
v -5.75703 15.22603 -48.19296
v -5.75702 -5.011666 -48.19295
v -5.755339 15.22603 -50.21843
v -5.75533 -5.011666 -50.21843
v 6.157974 15.22603 -50.20849
v 6.157984 -5.011662 -50.20848
v 6.156284 15.22603 -48.18301
v 6.156293 -5.011661 -48.18301
v -5.755339 15.22603 -50.21843
v -5.75533 -5.011666 -50.21843
v 6.157974 15.22603 -50.20849
v 6.157984 -5.011662 -50.20848
v 6.156284 15.22603 -48.18301
v -5.75703 15.22603 -48.19296
v -5.75702 -5.011666 -48.19295
v 6.156293 -5.011661 -48.18301
v -5.75702 -5.011666 -48.19295
v -5.75533 -5.011666 -50.21843
v 6.157984 -5.011662 -50.20848
v 6.156293 -5.011661 -48.18301
v 6.156284 15.22603 -48.18301
v 6.157974 15.22603 -50.20849
v -5.755339 15.22603 -50.21843
v -5.75703 15.22603 -48.19296
f 2942 2944 2945
f 2942 2945 2943
f 2950 2946 2947
f 2950 2947 2951
f 2952 2948 2949
f 2952 2949 2953
f 2954 2955 2956
f 2954 2956 2957
f 2958 2959 2960
f 2958 2960 2961
f 2962 2963 2964
f 2962 2964 2965
v 48.15762 20.15059 9.00232
v 48.15761 -2.807124 9.002329
v 50.45533 20.15059 9.004157
v 50.45532 -2.807126 9.004166
v 50.44452 20.15059 22.51867
v 50.44452 -2.807121 22.51867
v 48.14682 20.15059 22.51683
v 48.14681 -2.807119 22.51684
v 50.45533 20.15059 9.004157
v 50.45532 -2.807126 9.004166
v 50.44452 20.15059 22.51867
v 50.44452 -2.807121 22.51867
v 48.14682 20.15059 22.51683
v 48.15762 20.15059 9.00232
v 48.15761 -2.807124 9.002329
v 48.14681 -2.807119 22.51684
v 48.15761 -2.807124 9.002329
v 50.45532 -2.807126 9.004166
v 50.44452 -2.807121 22.51867
v 48.14681 -2.807119 22.51684
v 48.14682 20.15059 22.51683
v 50.44452 20.15059 22.51867
v 50.45533 20.15059 9.004157
v 48.15762 20.15059 9.00232
f 2966 2968 2969
f 2966 2969 2967
f 2974 2970 2971
f 2974 2971 2975
f 2976 2972 2973
f 2976 2973 2977
f 2978 2979 2980
f 2978 2980 2981
f 2982 2983 2984
f 2982 2984 2985
f 2986 2987 2988
f 2986 2988 2989
v -30.95881 -6.166111 30.63959
v -32.16429 -6.166111 30.63959
v -30.95881 -6.166111 30.23187
v -32.16429 -6.166111 30.23187
v -30.95881 -6.996093 30.23187
v -32.16429 -6.996093 30.23187
v -30.95881 -6.996093 30.63959
v -32.16429 -6.996093 30.63959
v -30.95881 -6.166111 30.23187
v -32.16429 -6.166111 30.23187
v -30.95881 -6.996093 30.23187
v -32.16429 -6.996093 30.23187
v -30.95881 -6.996093 30.63959
v -30.95881 -6.166111 30.63959
v -32.16429 -6.166111 30.63959
v -32.16429 -6.996093 30.63959
v -32.16429 -6.166111 30.63959
v -32.16429 -6.166111 30.23187
v -32.16429 -6.996093 30.23187
v -32.16429 -6.996093 30.63959
v -30.95881 -6.996093 30.63959
v -30.95881 -6.996093 30.23187
v -30.95881 -6.166111 30.23187
v -30.95881 -6.166111 30.63959
f 2990 2992 2993
f 2990 2993 2991
f 2998 2994 2995
f 2998 2995 2999
f 3000 2996 2997
f 3000 2997 3001
f 3002 3003 3004
f 3002 3004 3005
f 3006 3007 3008
f 3006 3008 3009
f 3010 3011 3012
f 3010 3012 3013
v 1.491165 -9 1.508783
v -1.508783 -9 1.491165
v 1.491165 -6 1.508783
v -1.508783 -6 1.491165
v 1.508783 -6 -1.491165
v -1.491165 -6 -1.508783
v 1.508783 -9 -1.491165
v -1.491165 -9 -1.508783
v 1.491165 -6 1.508783
v -1.508783 -6 1.491165
v 1.508783 -6 -1.491165
v -1.491165 -6 -1.508783
v 1.508783 -9 -1.491165
v 1.491165 -9 1.508783
v -1.508783 -9 1.491165
v -1.491165 -9 -1.508783
v -1.508783 -9 1.491165
v -1.508783 -6 1.491165
v -1.491165 -6 -1.508783
v -1.491165 -9 -1.508783
v 1.508783 -9 -1.491165
v 1.508783 -6 -1.491165
v 1.491165 -6 1.508783
v 1.491165 -9 1.508783
f 3014 3016 3017
f 3014 3017 3015
f 3022 3018 3019
f 3022 3019 3023
f 3024 3020 3021
f 3024 3021 3025
f 3026 3027 3028
f 3026 3028 3029
f 3030 3031 3032
f 3030 3032 3033
f 3034 3035 3036
f 3034 3036 3037
v 1.799765 -25 31
v -2.200235 -25 31
v 1.799765 -23 31
v -2.200235 -23 31
v 1.799765 -23 29
v -2.200235 -23 29
v 1.799765 -25 29
v -2.200235 -25 29
v 1.799765 -23 31
v -2.200235 -23 31
v 1.799765 -23 29
v -2.200235 -23 29
v 1.799765 -25 29
v 1.799765 -25 31
v -2.200235 -25 31
v -2.200235 -25 29
v -2.200235 -25 31
v -2.200235 -23 31
v -2.200235 -23 29
v -2.200235 -25 29
v 1.799765 -25 29
v 1.799765 -23 29
v 1.799765 -23 31
v 1.799765 -25 31
f 3038 3040 3041
f 3038 3041 3039
f 3046 3042 3043
f 3046 3043 3047
f 3048 3044 3045
f 3048 3045 3049
f 3050 3051 3052
f 3050 3052 3053
f 3054 3055 3056
f 3054 3056 3057
f 3058 3059 3060
f 3058 3060 3061
v -30.00883 -7 30.00878
v -33.00878 -7 29.99117
v -30.00883 -4 30.00878
v -33.00878 -4 29.99117
v -29.99122 -4 27.00883
v -32.99117 -4 26.99122
v -29.99122 -7 27.00883
v -32.99117 -7 26.99122
v -30.00883 -4 30.00878
v -33.00878 -4 29.99117
v -29.99122 -4 27.00883
v -32.99117 -4 26.99122
v -29.99122 -7 27.00883
v -30.00883 -7 30.00878
v -33.00878 -7 29.99117
v -32.99117 -7 26.99122
v -33.00878 -7 29.99117
v -33.00878 -4 29.99117
v -32.99117 -4 26.99122
v -32.99117 -7 26.99122
v -29.99122 -7 27.00883
v -29.99122 -4 27.00883
v -30.00883 -4 30.00878
v -30.00883 -7 30.00878
f 3062 3064 3065
f 3062 3065 3063
f 3070 3066 3067
f 3070 3067 3071
f 3072 3068 3069
f 3072 3069 3073
f 3074 3075 3076
f 3074 3076 3077
f 3078 3079 3080
f 3078 3080 3081
f 3082 3083 3084
f 3082 3084 3085
v 35.93814 -10 -28.13704
v 33.63704 -10 -30.06186
v 35.93814 -7 -28.13704
v 33.63704 -7 -30.06186
v 37.86296 -7 -30.43814
v 35.56186 -7 -32.36296
v 37.86296 -10 -30.43814
v 35.56186 -10 -32.36296
v 35.93814 -7 -28.13704
v 33.63704 -7 -30.06186
v 37.86296 -7 -30.43814
v 35.56186 -7 -32.36296
v 37.86296 -10 -30.43814
v 35.93814 -10 -28.13704
v 33.63704 -10 -30.06186
v 35.56186 -10 -32.36296
v 33.63704 -10 -30.06186
v 33.63704 -7 -30.06186
v 35.56186 -7 -32.36296
v 35.56186 -10 -32.36296
v 37.86296 -10 -30.43814
v 37.86296 -7 -30.43814
v 35.93814 -7 -28.13704
v 35.93814 -10 -28.13704
f 3086 3088 3089
f 3086 3089 3087
f 3094 3090 3091
f 3094 3091 3095
f 3096 3092 3093
f 3096 3093 3097
f 3098 3099 3100
f 3098 3100 3101
f 3102 3103 3104
f 3102 3104 3105
f 3106 3107 3108
f 3106 3108 3109
v -1.779429 -19 -9.535713
v -3.714287 -19 -9.029428
v -1.779429 -17 -9.535713
v -3.714287 -17 -9.029428
v -2.285713 -17 -11.47057
v -4.220572 -17 -10.96429
v -2.285713 -19 -11.47057
v -4.220572 -19 -10.96429
v -1.779429 -17 -9.535713
v -3.714287 -17 -9.029428
v -2.285713 -17 -11.47057
v -4.220572 -17 -10.96429
v -2.285713 -19 -11.47057
v -1.779429 -19 -9.535713
v -3.714287 -19 -9.029428
v -4.220572 -19 -10.96429
v -3.714287 -19 -9.029428
v -3.714287 -17 -9.029428
v -4.220572 -17 -10.96429
v -4.220572 -19 -10.96429
v -2.285713 -19 -11.47057
v -2.285713 -17 -11.47057
v -1.779429 -17 -9.535713
v -1.779429 -19 -9.535713
f 3110 3112 3113
f 3110 3113 3111
f 3118 3114 3115
f 3118 3115 3119
f 3120 3116 3117
f 3120 3117 3121
f 3122 3123 3124
f 3122 3124 3125
f 3126 3127 3128
f 3126 3128 3129
f 3130 3131 3132
f 3130 3132 3133
v -5.430966 -19 -8.337472
v -6.912528 -19 -9.680966
v -5.430966 -17 -8.337472
v -6.912528 -17 -9.680966
v -4.087472 -17 -9.819034
v -5.569034 -17 -11.16253
v -4.087472 -19 -9.819034
v -5.569034 -19 -11.16253
v -5.430966 -17 -8.337472
v -6.912528 -17 -9.680966
v -4.087472 -17 -9.819034
v -5.569034 -17 -11.16253
v -4.087472 -19 -9.819034
v -5.430966 -19 -8.337472
v -6.912528 -19 -9.680966
v -5.569034 -19 -11.16253
v -6.912528 -19 -9.680966
v -6.912528 -17 -9.680966
v -5.569034 -17 -11.16253
v -5.569034 -19 -11.16253
v -4.087472 -19 -9.819034
v -4.087472 -17 -9.819034
v -5.430966 -17 -8.337472
v -5.430966 -19 -8.337472
f 3134 3136 3137
f 3134 3137 3135
f 3142 3138 3139
f 3142 3139 3143
f 3144 3140 3141
f 3144 3141 3145
f 3146 3147 3148
f 3146 3148 3149
f 3150 3151 3152
f 3150 3152 3153
f 3154 3155 3156
f 3154 3156 3157
v 7.830857 -19 10.57143
v 4.92857 -19 11.33086
v 7.830857 -17 10.57143
v 4.92857 -17 11.33086
v 7.07143 -17 7.669143
v 4.169143 -17 8.42857
v 7.07143 -19 7.669143
v 4.169143 -19 8.42857
v 7.830857 -17 10.57143
v 4.92857 -17 11.33086
v 7.07143 -17 7.669143
v 4.169143 -17 8.42857
v 7.07143 -19 7.669143
v 7.830857 -19 10.57143
v 4.92857 -19 11.33086
v 4.169143 -19 8.42857
v 4.92857 -19 11.33086
v 4.92857 -17 11.33086
v 4.169143 -17 8.42857
v 4.169143 -19 8.42857
v 7.07143 -19 7.669143
v 7.07143 -17 7.669143
v 7.830857 -17 10.57143
v 7.830857 -19 10.57143
f 3158 3160 3161
f 3158 3161 3159
f 3166 3162 3163
f 3166 3163 3167
f 3168 3164 3165
f 3168 3165 3169
f 3170 3171 3172
f 3170 3172 3173
f 3174 3175 3176
f 3174 3176 3177
f 3178 3179 3180
f 3178 3180 3181
v -32 -17 32.5
v -35 -17 32.5
v -32 -14 32.5
v -35 -14 32.5
v -32 -14 29.5
v -35 -14 29.5
v -32 -17 29.5
v -35 -17 29.5
v -32 -14 32.5
v -35 -14 32.5
v -32 -14 29.5
v -35 -14 29.5
v -32 -17 29.5
v -32 -17 32.5
v -35 -17 32.5
v -35 -17 29.5
v -35 -17 32.5
v -35 -14 32.5
v -35 -14 29.5
v -35 -17 29.5
v -32 -17 29.5
v -32 -14 29.5
v -32 -14 32.5
v -32 -17 32.5
f 3182 3184 3185
f 3182 3185 3183
f 3190 3186 3187
f 3190 3187 3191
f 3192 3188 3189
f 3192 3189 3193
f 3194 3195 3196
f 3194 3196 3197
f 3198 3199 3200
f 3198 3200 3201
f 3202 3203 3204
f 3202 3204 3205
v 17.24117 -25 -9.991217
v 14.24122 -25 -10.00883
v 17.24117 -22 -9.991217
v 14.24122 -22 -10.00883
v 17.25878 -22 -12.99117
v 14.25883 -22 -13.00878
v 17.25878 -25 -12.99117
v 14.25883 -25 -13.00878
v 17.24117 -22 -9.991217
v 14.24122 -22 -10.00883
v 17.25878 -22 -12.99117
v 14.25883 -22 -13.00878
v 17.25878 -25 -12.99117
v 17.24117 -25 -9.991217
v 14.24122 -25 -10.00883
v 14.25883 -25 -13.00878
v 14.24122 -25 -10.00883
v 14.24122 -22 -10.00883
v 14.25883 -22 -13.00878
v 14.25883 -25 -13.00878
v 17.25878 -25 -12.99117
v 17.25878 -22 -12.99117
v 17.24117 -22 -9.991217
v 17.24117 -25 -9.991217
f 3206 3208 3209
f 3206 3209 3207
f 3214 3210 3211
f 3214 3211 3215
f 3216 3212 3213
f 3216 3213 3217
f 3218 3219 3220
f 3218 3220 3221
f 3222 3223 3224
f 3222 3224 3225
f 3226 3227 3228
f 3226 3228 3229
v -33.98075 -7 32.06544
v -35.81544 -7 31.26925
v -33.98075 -5 32.06544
v -35.81544 -5 31.26925
v -33.18456 -5 30.23075
v -35.01925 -5 29.43456
v -33.18456 -7 30.23075
v -35.01925 -7 29.43456
v -33.98075 -5 32.06544
v -35.81544 -5 31.26925
v -33.18456 -5 30.23075
v -35.01925 -5 29.43456
v -33.18456 -7 30.23075
v -33.98075 -7 32.06544
v -35.81544 -7 31.26925
v -35.01925 -7 29.43456
v -35.81544 -7 31.26925
v -35.81544 -5 31.26925
v -35.01925 -5 29.43456
v -35.01925 -7 29.43456
v -33.18456 -7 30.23075
v -33.18456 -5 30.23075
v -33.98075 -5 32.06544
v -33.98075 -7 32.06544
f 3230 3232 3233
f 3230 3233 3231
f 3238 3234 3235
f 3238 3235 3239
f 3240 3236 3237
f 3240 3237 3241
f 3242 3243 3244
f 3242 3244 3245
f 3246 3247 3248
f 3246 3248 3249
f 3250 3251 3252
f 3250 3252 3253
v 37.99117 -10 -24.99122
v 34.99122 -10 -25.00883
v 37.99117 -7 -24.99122
v 34.99122 -7 -25.00883
v 38.00878 -7 -27.99117
v 35.00883 -7 -28.00878
v 38.00878 -10 -27.99117
v 35.00883 -10 -28.00878
v 37.99117 -7 -24.99122
v 34.99122 -7 -25.00883
v 38.00878 -7 -27.99117
v 35.00883 -7 -28.00878
v 38.00878 -10 -27.99117
v 37.99117 -10 -24.99122
v 34.99122 -10 -25.00883
v 35.00883 -10 -28.00878
v 34.99122 -10 -25.00883
v 34.99122 -7 -25.00883
v 35.00883 -7 -28.00878
v 35.00883 -10 -28.00878
v 38.00878 -10 -27.99117
v 38.00878 -7 -27.99117
v 37.99117 -7 -24.99122
v 37.99117 -10 -24.99122
f 3254 3256 3257
f 3254 3257 3255
f 3262 3258 3259
f 3262 3259 3263
f 3264 3260 3261
f 3264 3261 3265
f 3266 3267 3268
f 3266 3268 3269
f 3270 3271 3272
f 3270 3272 3273
f 3274 3275 3276
f 3274 3276 3277
v 23.29512 -10 29.08666
v 21.29512 -10 29.08666
v 23.29512 -8 29.08666
v 21.29512 -8 29.08666
v 23.29512 -8 27.08666
v 21.29512 -8 27.08666
v 23.29512 -10 27.08666
v 21.29512 -10 27.08666
v 23.29512 -8 29.08666
v 21.29512 -8 29.08666
v 23.29512 -8 27.08666
v 21.29512 -8 27.08666
v 23.29512 -10 27.08666
v 23.29512 -10 29.08666
v 21.29512 -10 29.08666
v 21.29512 -10 27.08666
v 21.29512 -10 29.08666
v 21.29512 -8 29.08666
v 21.29512 -8 27.08666
v 21.29512 -10 27.08666
v 23.29512 -10 27.08666
v 23.29512 -8 27.08666
v 23.29512 -8 29.08666
v 23.29512 -10 29.08666
f 3278 3280 3281
f 3278 3281 3279
f 3286 3282 3283
f 3286 3283 3287
f 3288 3284 3285
f 3288 3285 3289
f 3290 3291 3292
f 3290 3292 3293
f 3294 3295 3296
f 3294 3296 3297
f 3298 3299 3300
f 3298 3300 3301
