v -17.52581 48 99.70163
v -5 48 14.29837
v -5 48 99.70163
v -17.52581 48 14.29837
v 7.525813 48 14.29837
v 7.525813 48 99.70163
v -5 -50 -30.75
v -33 -50 -30.75
v -33 -50 132
v -5 -50 132
v 23 -50 -30.75
v 23 -50 132
v 23 34 -30.75
v 23 34 132
v 7.525813 48 14.29837
v 7.525813 48 99.70163
v 23 34 132
v -5 34 132
v 7.525813 48 99.70163
v -5 48 99.70163
v -33 34 132
v -17.52581 48 99.70163
v -5 34 -30.75
v 23 34 -30.75
v -5 48 14.29837
v 7.525813 48 14.29837
v -33 34 132
v -33 34 -30.75
v -17.52581 48 99.70163
v -17.52581 48 14.29837
v -33 34 -30.75
v -17.52581 48 14.29837
v -5 11 -31
v 2 11 -31
v 2 22 -31
v -5 22 -31
v -12 11 -31
v -12 22 -31
v -12 11 -30.75
v -5 11 -30.75
v -12 11 -31
v -5 11 -31
v 2 22 -30.75
v -5 22 -30.75
v 2 22 -31
v -5 22 -31
v -12 22 -30.75
v -12 11 -30.75
v -12 22 -31
v -12 11 -31
v -12 22 -30.75
v -12 22 -31
v 2 11 -30.75
v 2 11 -31
v 2 11 -30.75
v 2 22 -30.75
v 2 11 -31
v 2 22 -31
v -5 34 132
v -33 -50 132
v -33 34 132
v -5 -50 132
v 23 34 132
v 23 -50 132
v 23 34 132
v 23 34 -30.75
v 23 -50 -30.75
v 23 -50 132
v -33 34 -30.75
v -33 34 132
v -33 -50 132
v -33 -50 -30.75
v -5 -50 -30.75
v 23 -50 -30.75
v -5 11 -30.75
v 2 11 -30.75
v 23 34 -30.75
v 2 22 -30.75
v -33 34 -30.75
v -33 -50 -30.75
v -12 22 -30.75
v -12 11 -30.75
v -5 34 -30.75
v -5 22 -30.75
f 1 2 3
f 1 4 2
f 3 5 6
f 3 2 5
f 7 8 9
f 10 7 9
f 11 7 10
f 12 11 10
f 13 14 15
f 14 16 15
f 17 18 19
f 18 20 19
f 18 21 20
f 21 22 20
f 23 24 25
f 24 26 25
f 27 28 29
f 28 30 29
f 31 23 32
f 23 25 32
f 33 34 35
f 36 33 35
f 37 33 36
f 38 37 36
f 39 40 41
f 40 42 41
f 43 44 45
f 44 46 45
f 47 48 49
f 48 50 49
f 44 51 46
f 51 52 46
f 40 53 42
f 53 54 42
f 55 56 57
f 56 58 57
f 59 60 61
f 59 62 60
f 63 62 59
f 63 64 62
f 65 66 67
f 65 67 68
f 69 70 71
f 69 71 72
f 73 74 75
f 74 76 75
f 74 77 76
f 77 78 76
f 79 80 81
f 80 82 81
f 77 83 78
f 83 84 78
f 80 73 82
f 73 75 82
f 83 79 84
f 79 81 84
v -26.25 11 -31
v -26.25 11 -30.5
v -26.25 11.75 -31
v -26.25 11.75 -30.5
v 16.75 11 -30.5
v 16.75 11 -31
v 16.75 11.75 -30.5
v 16.75 11.75 -31
v -5 11 13.5
v 10.75 11 14
v 12.75 11 13.5
v -5 11 14
v -20.25 11 14
v -22.25 11 13.5
v -5 11 12.5
v 14.75 11 12.5
v -24.25 11 12.5
v -5 11 11
v 16 11 11
v -25.5 11 11
v -5 11 8
v 16.75 11 8
v -26.25 11 8
v 16.75 11 -30.5
v -5 11 -30.5
v -26.25 11 -30.5
v -24.5 10 12.90044
v -22.5 10 13.97176
v -22.5 11 13.97176
v -24.5 11 12.90044
v -22.5 10 13.97176
v -20.25 10 14.5
v -20.25 11 14.5
v -22.5 11 13.97176
v 10.75 10 14.5
v 13 10 13.97176
v 13 11 13.97176
v 10.75 11 14.5
v 13 10 13.97176
v 15 10 12.90044
v 15 11 12.90044
v 13 11 13.97176
v -26.75 11 8.061554
v -26 10 11.23223
v -26 11 11.23223
v -26.75 10 8.061554
v -26 11 11.23223
v -24.5 10 12.90044
v -24.5 11 12.90044
v -26 11 11.23223
v -26 10 11.23223
v -24.5 10 12.90044
v 15 10 12.90044
v 16.5 10 11.23223
v 16.5 11 11.23223
v 15 11 12.90044
v 16.5 10 11.23223
v 17.25 10 8.061554
v 17.25 11 8.061554
v 16.5 11 11.23223
v 16.75 10 -31
v 16.75 11 -31
v 17.25 10 -31
v 17.25 11 -31
v 16 10 11
v 16.75 10 8
v 16.5 10 11.23223
v 17.25 10 8.061554
v 14.75 10 12.5
v 15 10 12.90044
v 12.75 10 13.5
v 13 10 13.97176
v 10.75 10 14
v 10.75 10 14.5
v -22.25 10 13.5
v -20.25 10 14
v -22.5 10 13.97176
v -20.25 10 14.5
v -24.25 10 12.5
v -24.5 10 12.90044
v -25.5 10 11
v -26 10 11.23223
v -26.25 10 8
v -26.75 10 8.061554
v -26.25 11 -31
v -26.25 10 -31
v -26.75 11 -31
v -26.75 10 -31
v -26.75 11.75 8.061554
v -26 11.75 11.23223
v -26.25 11.75 -31
v -26.75 11.75 -31
v -25.5 11 11
v -26.25 11 8
v -25.5 11.75 11
v -26.25 11.75 8
v -26 11.75 11.23223
v -24.5 11 12.90044
v -24.5 11.75 12.90044
v -26 11.75 11.23223
v -24.25 11 12.5
v -25.5 11 11
v -24.25 11.75 12.5
v -25.5 11.75 11
v -24.5 11.75 12.90044
v -22.5 11.75 13.97176
v -22.25 11 13.5
v -24.25 11 12.5
v -22.25 11.75 13.5
v -24.25 11.75 12.5
v -22.5 11.75 13.97176
v -20.25 11.75 14.5
v -20.25 11 14
v -22.25 11 13.5
v -20.25 11.75 14
v -22.25 11.75 13.5
v 10.75 11.75 14.5
v 13 11.75 13.97176
v 12.75 11 13.5
v 10.75 11 14
v 12.75 11.75 13.5
v 10.75 11.75 14
v 13 11.75 13.97176
v 15 11.75 12.90044
v 14.75 11 12.5
v 12.75 11 13.5
v 14.75 11.75 12.5
v 12.75 11.75 13.5
v 15 11.75 12.90044
v 16.5 11.75 11.23223
v 16 11 11
v 14.75 11 12.5
v 16 11.75 11
v 14.75 11.75 12.5
v 16.5 11.75 11.23223
v 17.25 11.75 8.061554
v 16.75 11 8
v 16 11 11
v 16.75 11.75 8
v 16 11.75 11
v 17.25 11.75 -31
v 16.75 11.75 -31
v 10.75 11.75 14.5
v 10.75 11.75 14
v 10.75 11 14.5
v 10.75 11 14
v -20.25 11.75 14
v -20.25 11.75 14.5
v -20.25 11 14
v -20.25 11 14.5
v 17.25 10 8.061554
v 17.25 10 -30.5
v 17.25 11 -30.5
v 17.25 11 8.061554
v 17.25 10 -31
v 17.25 11 -31
v -26.75 11 -31
v -26.75 10 -30.5
v -26.75 11 -30.5
v -26.75 10 -31
v -26.75 10 8.061554
v -26.75 11 8.061554
v 17.25 10 -30.5
v 16.75 10 -30.5
v 17.25 10 -31
v 16.75 10 -31
v -26.75 10 -30.5
v -26.75 10 -31
v -26.25 10 -30.5
v -26.25 10 -31
v -26.25 11 8
v -26.25 11 -30.5
v -26.25 11.75 -30.5
v -26.25 11.75 8
v -26.25 11 -30.5
v -26.25 11 -31
v -26.25 11.75 -31
v -26.25 11.75 -30.5
v -26.75 11.75 -31
v -26.75 11.75 -30.5
v -26.75 11.75 8.061554
v 17.25 11.75 -30.5
v 17.25 11.75 8.061554
v 17.25 11.75 -31
v 16.75 11.75 -31
v 16.75 11 -30.5
v 16.75 11.75 -30.5
v 16.75 11 -31
v 16.75 11.75 -30.5
v 16.75 11 8
v 16.75 11.75 8
v 16.75 11 -30.5
v -20.25 10 14.5
v -5.030777 10 14.5
v -5.030777 11 14.5
v -20.25 11 14.5
v 10.75 10 14.5
v 10.75 11 14.5
v 16.75 11 -31
v -5 10 -31
v -5 11 -31
v 16.75 10 -31
v -26.25 10 -31
v -26.25 11 -31
v -5 10 14
v -5 10 13.5
v -5 10 12.5
v -5 10 11
v -5 10 8
v 10.75 11 14.5
v 10.75 11 14
v -5 11 14
v -5.030777 11 14.5
v -20.25 11 14
v -20.25 11 14.5
v -5.030777 10 14.5
v 16.75 11.75 -31
v -5 11.75 -31
v -5 11.75 -30.5
v 16.75 11.75 -30.5
v -26.25 11.75 -31
v -26.25 11.75 -30.5
v -5 10 -30.5
v -5 10 -31
v 16.75 11.75 -31
v -5 11.75 -31
v -26.25 11.75 -31
v -26.25 11 -30.5
v -5 11 -30.5
v -5 11.75 -30.5
v -26.25 11.75 -30.5
v 16.75 11 -30.5
v 16.75 11.75 -30.5
v 16.75 22 8
v 16 22 11
v 17.25 22 8.061554
v 16.5 22 11.23223
v 14.75 22 12.5
v 15 22 12.90044
v 12.75 22 13.5
v 13 22 13.97176
v 10.75 22 14
v 10.75 22 14.5
v -24.25 22 12.5
v -25.5 22 11
v -24.5 22 12.90044
v -26 22 11.23223
v -20.25 22 14
v -22.25 22 13.5
v -20.25 22 14.5
v -22.5 22 13.97176
v -26.25 22 8
v -26.75 22 8.061554
v 17.25 22 -31
v 16.75 22 -31
v 16.75 22 -30.5
v 17.25 22 -30.5
v -26.25 22 -30.5
v -26.75 22 -30.5
v -26.25 22 -31
v -26.75 22 -31
v 16.75 11.75 8
v 16 11.75 11
v 16.75 22 8
v 16 22 11
v 16.75 11.75 -30.5
v 16.75 11.75 8
v 16.75 22 -30.5
v 16.75 22 8
v 17.25 11.75 8.061554
v 17.25 11.75 -30.5
v 17.25 22 8.061554
v 17.25 22 -30.5
v 10.75 11.75 14
v 10.75 11.75 14.5
v 10.75 22 14
v 10.75 22 14.5
v 17.25 11.75 -31
v 16.75 11.75 -31
v 17.25 22 -31
v 16.75 22 -31
v 16.75 11.75 -31
v 16.75 22 -31
v 17.25 11.75 -31
v 17.25 22 -31
v 16.5 11.75 11.23223
v 17.25 11.75 8.061554
v 16.5 22 11.23223
v 17.25 22 8.061554
v 16 11.75 11
v 14.75 11.75 12.5
v 16 22 11
v 14.75 22 12.5
v 15 11.75 12.90044
v 16.5 11.75 11.23223
v 15 22 12.90044
v 16.5 22 11.23223
v 14.75 11.75 12.5
v 12.75 11.75 13.5
v 14.75 22 12.5
v 12.75 22 13.5
v 13 11.75 13.97176
v 15 11.75 12.90044
v 13 22 13.97176
v 15 22 12.90044
v 12.75 11.75 13.5
v 10.75 11.75 14
v 12.75 22 13.5
v 10.75 22 14
v 10.75 11.75 14.5
v 13 11.75 13.97176
v 10.75 22 14.5
v 13 11.75 13.97176
v 13 22 13.97176
v 10.75 22 14.5
v -20.25 11.75 14
v -22.25 11.75 13.5
v -20.25 22 14
v -22.25 22 13.5
v -20.25 11.75 14.5
v -20.25 11.75 14
v -20.25 22 14.5
v -20.25 22 14
v -26.25 11.75 -30.5
v -26.25 11.75 -31
v -26.25 22 -30.5
v -26.25 22 -31
v -22.5 11.75 13.97176
v -20.25 11.75 14.5
v -22.5 22 13.97176
v -20.25 22 14.5
v -22.25 11.75 13.5
v -24.25 11.75 12.5
v -22.25 22 13.5
v -24.25 22 12.5
v -24.5 11.75 12.90044
v -22.5 11.75 13.97176
v -24.5 22 12.90044
v -22.5 22 13.97176
v -24.25 11.75 12.5
v -25.5 11.75 11
v -24.25 22 12.5
v -25.5 11.75 11
v -25.5 22 11
v -24.25 22 12.5
v -26 11.75 11.23223
v -24.5 11.75 12.90044
v -26 22 11.23223
v -24.5 22 12.90044
v -25.5 11.75 11
v -26.25 11.75 8
v -25.5 22 11
v -26.25 22 8
v -26.75 11.75 8.061554
v -26 11.75 11.23223
v -26.75 22 8.061554
v -26 22 11.23223
v -26.25 11.75 8
v -26.25 22 8
v -26.75 11.75 -30.5
v -26.75 11.75 8.061554
v -26.75 22 -30.5
v -26.75 22 8.061554
v -26.25 11.75 -31
v -26.75 11.75 -31
v -26.25 22 -31
v -26.75 22 -31
v -26.75 11.75 -31
v -26.75 22 -31
f 85 86 87
f 86 88 87
f 89 90 91
f 90 92 91
f 93 94 95
f 93 96 94
f 96 93 97
f 93 98 97
f 99 95 100
f 99 93 95
f 93 99 98
f 99 101 98
f 102 100 103
f 102 99 100
f 99 102 101
f 102 104 101
f 105 103 106
f 105 102 103
f 102 105 104
f 105 107 104
f 108 109 105
f 106 108 105
f 109 110 107
f 105 109 107
f 111 112 113
f 114 111 113
f 115 116 117
f 118 115 117
f 119 120 121
f 122 119 121
f 123 124 125
f 126 123 125
f 127 128 129
f 127 130 128
f 131 132 133
f 134 135 136
f 137 138 139
f 140 137 139
f 141 142 143
f 144 141 143
f 145 146 147
f 146 148 147
f 149 150 151
f 150 152 151
f 153 149 154
f 149 151 154
f 155 153 156
f 153 154 156
f 157 155 158
f 155 156 158
f 159 160 161
f 160 162 161
f 163 159 164
f 159 161 164
f 165 163 166
f 163 164 166
f 167 165 168
f 165 166 168
f 169 170 171
f 170 172 171
f 127 129 173
f 129 174 173
f 169 171 175
f 171 176 175
f 177 178 179
f 178 180 179
f 131 133 181
f 182 183 184
f 185 186 187
f 186 188 187
f 114 113 189
f 113 190 189
f 191 192 193
f 192 194 193
f 118 117 195
f 117 196 195
f 197 198 199
f 198 200 199
f 122 121 201
f 121 202 201
f 203 204 205
f 204 206 205
f 126 125 207
f 125 208 207
f 209 210 211
f 210 212 211
f 140 139 213
f 139 214 213
f 215 216 217
f 216 218 217
f 144 143 219
f 143 220 219
f 221 222 223
f 222 224 223
f 148 146 225
f 146 226 225
f 227 228 229
f 228 230 229
f 231 232 233
f 232 234 233
f 235 236 237
f 238 235 237
f 236 239 240
f 237 236 240
f 241 242 243
f 241 244 242
f 243 245 246
f 243 242 245
f 150 247 152
f 150 248 247
f 248 249 247
f 248 250 249
f 251 252 253
f 252 254 253
f 168 251 167
f 251 253 167
f 255 256 257
f 258 255 257
f 259 260 261
f 262 259 261
f 263 243 264
f 263 241 243
f 264 246 265
f 264 243 246
f 238 237 266
f 267 238 266
f 237 240 268
f 266 237 268
f 269 270 271
f 269 272 270
f 273 274 275
f 273 276 274
f 277 278 279
f 280 277 279
f 278 281 282
f 279 278 282
f 283 284 285
f 283 286 284
f 285 287 288
f 285 284 287
f 157 289 290
f 155 157 290
f 160 159 290
f 160 290 289
f 155 290 291
f 153 155 291
f 159 163 291
f 159 291 290
f 153 291 292
f 149 153 292
f 163 165 292
f 163 292 291
f 149 292 293
f 150 149 293
f 165 167 293
f 165 293 292
f 294 295 296
f 294 296 297
f 296 298 297
f 297 298 299
f 162 160 300
f 300 160 289
f 300 289 158
f 289 157 158
f 301 302 303
f 304 301 303
f 302 305 306
f 303 302 306
f 307 250 248
f 307 308 250
f 253 308 307
f 253 254 308
f 293 248 150
f 293 307 248
f 167 307 293
f 167 253 307
f 309 285 310
f 309 283 285
f 310 288 311
f 310 285 288
f 312 313 314
f 315 312 314
f 313 316 317
f 314 313 317
f 318 319 320
f 319 321 320
f 319 322 321
f 322 323 321
f 322 324 323
f 324 325 323
f 324 326 325
f 326 327 325
f 328 329 330
f 329 331 330
f 332 333 334
f 333 335 334
f 333 328 335
f 328 330 335
f 329 336 331
f 336 337 331
f 338 339 340
f 341 338 340
f 341 340 318
f 320 341 318
f 336 342 343
f 336 343 337
f 342 344 345
f 342 345 343
f 346 347 348
f 347 349 348
f 350 351 352
f 351 353 352
f 354 355 356
f 355 357 356
f 358 359 360
f 359 361 360
f 362 363 364
f 363 365 364
f 366 350 367
f 350 352 367
f 355 368 357
f 368 369 357
f 370 371 372
f 371 373 372
f 374 375 376
f 375 377 376
f 378 379 380
f 379 381 380
f 382 383 384
f 383 385 384
f 386 387 388
f 387 389 388
f 390 391 392
f 391 393 392
f 394 395 396
f 397 398 399
f 400 401 402
f 401 403 402
f 404 405 406
f 405 407 406
f 408 409 410
f 409 411 410
f 412 413 414
f 413 415 414
f 416 417 418
f 417 419 418
f 420 421 422
f 421 423 422
f 424 425 426
f 427 428 429
f 430 431 432
f 431 433 432
f 434 435 436
f 435 437 436
f 438 439 440
f 439 441 440
f 442 408 443
f 408 410 443
f 444 445 446
f 445 447 446
f 448 449 450
f 449 451 450
f 452 444 453
f 444 446 453
v 8.501092 11 131.9988
v 8.501059 11 131.4988
v 8.501092 11.75 131.9988
v 8.501059 11.75 131.4988
v -18.49894 11 131.5006
v -18.49891 11 132.0006
v -18.49894 11.75 131.5006
v -18.49891 11.75 132.0006
v -5.001019 11 100.4997
v -12.50105 11 100.0002
v -14.50102 11 100.5003
v -5.001053 11 99.99969
v 2.498947 11 99.9992
v 4.498981 11 100.4991
v -5.000952 11 101.4997
v -16.50095 11 101.5005
v 6.499048 11 101.4989
v -5.000852 11 102.9997
v -17.75085 11 103.0005
v 7.749148 11 102.9988
v -5.00065 11 105.9997
v -18.50065 11 106.0006
v 8.49935 11 105.9988
v -18.49894 11 131.5006
v -4.998941 11 131.4997
v 8.501059 11 131.4988
v 6.816175 10 101.0985
v 4.673464 10 100.0273
v 4.673464 11 100.0273
v 6.816175 11 101.0985
v 4.673464 10 100.0273
v 2.560467 10 99.49919
v 2.560467 11 99.49919
v 4.673464 11 100.0273
v -12.50109 10 99.5002
v -14.75105 10 100.0286
v -14.75105 11 100.0286
v -12.50109 11 99.5002
v -14.75105 10 100.0286
v -16.75098 10 101.1
v -16.75098 11 101.1
v -14.75105 11 100.0286
v 8.999345 11 105.9372
v 8.206464 10 102.7666
v 8.206464 11 102.7666
v 8.999345 10 105.9372
v 8.206464 11 102.7666
v 6.816175 10 101.0985
v 6.816175 11 101.0985
v 8.206464 10 102.7666
v -16.75098 10 101.1
v -18.25087 10 102.7684
v -18.25087 11 102.7684
v -16.75098 11 101.1
v -18.25087 10 102.7684
v -19.00065 10 105.9391
v -19.00065 11 105.9391
v -18.25087 11 102.7684
v -18.49891 10 132.0006
v -18.49891 11 132.0006
v -18.99891 10 132.0006
v -18.99891 11 132.0006
v -17.75085 10 103.0005
v -18.50065 10 106.0006
v -18.25087 10 102.7684
v -19.00065 10 105.9391
v -18.50065 11.75 106.0006
v -17.75085 11.75 103.0005
v -19.00065 11.75 105.9391
v -18.25087 11.75 102.7684
v -16.50095 10 101.5005
v -16.75098 10 101.1
v -16.50095 11.75 101.5005
v -16.75098 11.75 101.1
v -14.50102 10 100.5003
v -14.75105 10 100.0286
v -14.50102 11.75 100.5003
v -14.75105 11.75 100.0286
v -12.50105 10 100.0002
v -12.50109 10 99.5002
v -12.50105 11.75 100.0002
v -12.50109 11.75 99.5002
v 6.499048 11.75 101.4989
v 7.749148 11.75 102.9988
v 6.816175 11.75 101.0985
v 8.206464 11.75 102.7666
v 4.498981 10 100.4991
v 2.498947 10 99.9992
v 4.673464 10 100.0273
v 2.560467 10 99.49919
v 2.498947 11.75 99.9992
v 4.498981 11.75 100.4991
v 2.560467 11.75 99.49919
v 4.673464 11.75 100.0273
v 6.499048 10 101.4989
v 6.816175 10 101.0985
v 8.49935 11.75 105.9988
v 8.999345 11.75 105.9372
v 7.749148 10 102.9988
v 8.206464 10 102.7666
v 8.49935 10 105.9988
v 8.999345 10 105.9372
v 8.501092 11 131.9988
v 8.501092 10 131.9988
v 9.001092 11 131.9988
v 9.001092 10 131.9988
v 8.999345 11.75 105.9372
v 8.206464 11.75 102.7666
v 8.501092 11.75 131.9988
v 9.001092 11.75 131.9988
v 7.749148 11 102.9988
v 8.49935 11 105.9988
v 7.749148 11.75 102.9988
v 8.49935 11.75 105.9988
v 8.206464 11.75 102.7666
v 6.816175 11.75 101.0985
v 6.499048 11 101.4989
v 7.749148 11 102.9988
v 6.499048 11.75 101.4989
v 7.749148 11.75 102.9988
v 6.816175 11.75 101.0985
v 4.673464 11.75 100.0273
v 4.498981 11 100.4991
v 6.499048 11 101.4989
v 4.498981 11.75 100.4991
v 6.499048 11.75 101.4989
v 4.673464 11.75 100.0273
v 2.560467 11.75 99.49919
v 2.498947 11 99.9992
v 4.498981 11 100.4991
v 2.498947 11.75 99.9992
v 4.498981 11.75 100.4991
v -12.50109 11.75 99.5002
v -14.75105 11.75 100.0286
v -14.50102 11 100.5003
v -12.50105 11 100.0002
v -14.50102 11.75 100.5003
v -12.50105 11.75 100.0002
v -14.75105 11.75 100.0286
v -16.75098 11.75 101.1
v -16.50095 11 101.5005
v -14.50102 11 100.5003
v -16.50095 11.75 101.5005
v -14.50102 11.75 100.5003
v -16.75098 11 101.1
v -18.25087 11 102.7684
v -16.75098 11.75 101.1
v -18.25087 11.75 102.7684
v -17.75085 11 103.0005
v -16.50095 11 101.5005
v -17.75085 11.75 103.0005
v -16.50095 11.75 101.5005
v -18.25087 11.75 102.7684
v -19.00065 11.75 105.9391
v -18.50065 11 106.0006
v -17.75085 11 103.0005
v -18.50065 11.75 106.0006
v -17.75085 11.75 103.0005
v -18.99891 11.75 132.0006
v -18.49891 11.75 132.0006
v -12.50109 11.75 99.5002
v -12.50105 11.75 100.0002
v -12.50109 11 99.5002
v -12.50105 11 100.0002
v 2.498947 11.75 99.9992
v 2.560467 11.75 99.49919
v 2.498947 11 99.9992
v 2.560467 11 99.49919
v -19.00065 10 105.9391
v -18.99894 10 131.5006
v -18.99894 11 131.5006
v -19.00065 11 105.9391
v -18.99891 10 132.0006
v -18.99891 11 132.0006
v 9.001092 11 131.9988
v 9.001059 10 131.4988
v 9.001059 11 131.4988
v 9.001092 10 131.9988
v 8.999345 10 105.9372
v 8.999345 11 105.9372
v -18.99894 10 131.5006
v -18.49894 10 131.5006
v -18.99891 10 132.0006
v -18.49891 10 132.0006
v -18.99891 11.75 132.0006
v -18.49891 11.75 132.0006
v -18.49894 11.75 131.5006
v -18.99894 11.75 131.5006
v 8.501059 11.75 131.4988
v 9.001059 11.75 131.4988
v 8.501092 11.75 131.9988
v 9.001092 11.75 131.9988
v 9.001059 10 131.4988
v 9.001092 10 131.9988
v 8.501059 10 131.4988
v 8.501092 10 131.9988
v 8.49935 11 105.9988
v 8.501059 11 131.4988
v 8.501059 11.75 131.4988
v 8.49935 11.75 105.9988
v 8.501059 11 131.4988
v 8.501092 11 131.9988
v 8.501092 11.75 131.9988
v 8.501059 11.75 131.4988
v 9.001092 11.75 131.9988
v 9.001059 11.75 131.4988
v 8.999345 11.75 105.9372
v -18.99894 11.75 131.5006
v -19.00065 11.75 105.9391
v -18.99891 11.75 132.0006
v -18.49891 11.75 132.0006
v -18.49894 11 131.5006
v -18.49894 11.75 131.5006
v -18.49891 11 132.0006
v -18.49894 11.75 131.5006
v -18.50065 11 106.0006
v -18.50065 11.75 106.0006
v -18.49894 11 131.5006
v 2.560467 10 99.49919
v -4.97031 10 99.49969
v -4.97031 11 99.49969
v 2.560467 11 99.49919
v -12.50109 10 99.5002
v -12.50109 11 99.5002
v -18.49891 11 132.0006
v -4.998908 10 131.9997
v -4.998908 11 131.9997
v -18.49891 10 132.0006
v 8.501092 10 131.9988
v 8.501092 11 131.9988
v -5.001053 10 99.99969
v -5.001019 10 100.4997
v -5.000952 10 101.4997
v -5.000852 10 102.9997
v -5.00065 10 105.9997
v -12.50109 11 99.5002
v -12.50105 11 100.0002
v -5.001053 11 99.99969
v -4.97031 11 99.49969
v 2.498947 11 99.9992
v 2.560467 11 99.49919
v -4.97031 10 99.49969
v -18.49891 11.75 132.0006
v -4.998908 11.75 131.9997
v -4.998941 11.75 131.4997
v -18.49894 11.75 131.5006
v 8.501092 11.75 131.9988
v 8.501059 11.75 131.4988
v -4.998941 10 131.4997
v -4.998908 10 131.9997
v -18.49891 11.75 132.0006
v -4.998908 11.75 131.9997
v 8.501092 11.75 131.9988
v 8.501059 11 131.4988
v -4.998941 11 131.4997
v -4.998941 11.75 131.4997
v 8.501059 11.75 131.4988
v -18.49894 11 131.5006
v -18.49894 11.75 131.5006
f 454 455 456
f 455 457 456
f 458 459 460
f 459 461 460
f 462 463 464
f 462 465 463
f 465 462 466
f 462 467 466
f 468 464 469
f 468 462 464
f 462 468 467
f 468 470 467
f 471 469 472
f 471 468 469
f 468 471 470
f 471 473 470
f 474 472 475
f 474 471 472
f 471 474 473
f 474 476 473
f 477 478 474
f 475 477 474
f 478 479 476
f 474 478 476
f 480 481 482
f 483 480 482
f 484 485 486
f 487 484 486
f 488 489 490
f 491 488 490
f 492 493 494
f 495 492 494
f 496 497 498
f 496 499 497
f 500 501 502
f 500 503 501
f 504 505 506
f 507 504 506
f 508 509 510
f 511 508 510
f 512 513 514
f 513 515 514
f 516 517 518
f 517 519 518
f 520 521 522
f 521 523 522
f 524 516 525
f 516 518 525
f 521 526 523
f 526 527 523
f 528 524 529
f 524 525 529
f 526 530 527
f 530 531 527
f 532 528 533
f 528 529 533
f 530 534 531
f 534 535 531
f 536 537 538
f 537 539 538
f 540 541 542
f 541 543 542
f 544 545 546
f 545 547 546
f 548 540 549
f 540 542 549
f 545 536 547
f 536 538 547
f 537 550 539
f 550 551 539
f 552 548 553
f 548 549 553
f 554 552 555
f 552 553 555
f 556 557 558
f 557 559 558
f 496 498 560
f 498 561 560
f 556 558 562
f 558 563 562
f 564 565 566
f 565 567 566
f 500 502 568
f 502 569 568
f 570 571 572
f 571 573 572
f 483 482 574
f 482 575 574
f 576 577 578
f 577 579 578
f 487 486 580
f 486 581 580
f 582 583 584
f 583 585 584
f 491 490 586
f 490 587 586
f 588 589 590
f 589 591 590
f 495 494 592
f 494 593 592
f 594 595 596
f 595 597 596
f 598 599 600
f 599 601 600
f 602 603 604
f 603 605 604
f 511 510 606
f 510 607 606
f 608 609 610
f 609 611 610
f 515 513 612
f 513 613 612
f 614 615 616
f 615 617 616
f 618 619 620
f 619 621 620
f 622 623 624
f 625 622 624
f 623 626 627
f 624 623 627
f 628 629 630
f 628 631 629
f 630 632 633
f 630 629 632
f 517 634 519
f 517 635 634
f 635 636 634
f 635 637 636
f 638 639 640
f 641 638 640
f 641 640 520
f 522 641 520
f 550 642 643
f 550 643 551
f 642 644 645
f 642 645 643
f 646 647 648
f 647 649 648
f 555 646 554
f 646 648 554
f 650 651 652
f 653 650 652
f 654 655 656
f 657 654 656
f 658 630 659
f 658 628 630
f 659 633 660
f 659 630 633
f 625 624 661
f 662 625 661
f 624 627 663
f 661 624 663
f 664 665 666
f 664 667 665
f 668 669 670
f 668 671 669
f 672 673 674
f 675 672 674
f 673 676 677
f 674 673 677
f 678 679 680
f 678 681 679
f 680 682 683
f 680 679 682
f 532 684 685
f 528 532 685
f 541 540 685
f 541 685 684
f 528 685 686
f 524 528 686
f 540 548 686
f 540 686 685
f 524 686 687
f 516 524 687
f 548 552 687
f 548 687 686
f 516 687 688
f 517 516 688
f 552 554 688
f 552 688 687
f 689 690 691
f 689 691 692
f 691 693 692
f 692 693 694
f 543 541 695
f 695 541 684
f 695 684 533
f 684 532 533
f 696 697 698
f 699 696 698
f 697 700 701
f 698 697 701
f 702 637 635
f 702 703 637
f 648 703 702
f 648 649 703
f 688 635 517
f 688 702 635
f 554 702 688
f 554 648 702
f 704 680 705
f 704 678 680
f 705 683 706
f 705 680 683
f 707 708 709
f 710 707 709
f 708 711 712
f 709 708 712
v -15.12502 27.975 131.5315
v 5.175004 27.975 131.5315
v -15.12502 27.975 133.5633
v 5.175004 27.975 133.5633
v -15.12502 16.025 133.5633
v 5.175004 16.025 133.5633
v -15.12502 16.025 131.5315
v 5.175004 16.025 131.5315
v -15.12502 27.975 133.5633
v 5.175004 27.975 133.5633
v -15.12502 16.025 133.5633
v 5.175004 16.025 133.5633
v -15.12502 16.025 131.5315
v -15.12502 27.975 131.5315
v 5.175004 27.975 131.5315
v 5.175004 16.025 131.5315
v 5.175004 27.975 131.5315
v 5.175004 27.975 133.5633
v 5.175004 16.025 133.5633
v 5.175004 16.025 131.5315
v -15.12502 16.025 131.5315
v -15.12502 16.025 133.5633
v -15.12502 27.975 133.5633
v -15.12502 27.975 131.5315
f 713 715 716
f 713 716 714
f 721 717 718
f 721 718 722
f 723 719 720
f 723 720 724
f 725 726 727
f 725 727 728
f 729 730 731
f 729 731 732
f 733 734 735
f 733 735 736
