v -10.33592 -30 39.02841
v -9.664077 -30 42.97159
v -10.33592 -23 39.02841
v -9.664079 -23 42.97158
v -9.664077 -30 42.97159
v -5.720907 -30 42.29976
v -9.664079 -23 42.97158
v -5.720904 -23 42.29975
v -5.720907 -30 42.29976
v -6.392742 -30 38.35658
v -5.720904 -23 42.29975
v -6.39274 -23 38.35657
v -6.392742 -30 38.35658
v -10.33592 -30 39.02841
v -6.39274 -23 38.35657
v -10.33592 -23 39.02841
v -6.392742 -30 38.35658
v -5.720907 -30 42.29976
v -10.33592 -30 39.02841
v -9.664077 -30 42.97159
v -10.33592 -23 39.02841
v -9.664079 -23 42.97158
v -6.39274 -23 38.35657
v -5.720904 -23 42.29975
f 1 2 3
f 2 4 3
f 5 6 7
f 6 8 7
f 9 10 11
f 10 12 11
f 13 14 15
f 14 16 15
f 17 18 19
f 18 20 19
f 21 22 23
f 22 24 23
v -25.33592 -30 37.02841
v -24.66408 -30 40.97159
v -25.33592 -23 37.02841
v -24.66408 -23 40.97158
v -24.66408 -30 40.97159
v -20.72091 -30 40.29976
v -24.66408 -23 40.97158
v -20.7209 -23 40.29975
v -20.72091 -30 40.29976
v -21.39274 -30 36.35658
v -20.7209 -23 40.29975
v -21.39274 -23 36.35657
v -21.39274 -30 36.35658
v -25.33592 -30 37.02841
v -21.39274 -23 36.35657
v -25.33592 -23 37.02841
v -21.39274 -30 36.35658
v -20.72091 -30 40.29976
v -25.33592 -30 37.02841
v -24.66408 -30 40.97159
v -25.33592 -23 37.02841
v -24.66408 -23 40.97158
v -21.39274 -23 36.35657
v -20.7209 -23 40.29975
f 25 26 27
f 26 28 27
f 29 30 31
f 30 32 31
f 33 34 35
f 34 36 35
f 37 38 39
f 38 40 39
f 41 42 43
f 42 44 43
f 45 46 47
f 46 48 47
v 10 -30 18
v 4 -30 18.00001
v 10 -27 18
v 6 -27 18
v 4 -30 18.00001
v 4.000003 -30 20.00001
v 6 -27 18
v 6.000003 -27 20
v 4.000003 -30 20.00001
v 10 -30 20
v 6.000003 -27 20
v 10 -27 20
v 10 -30 20
v 10 -30 18
v 10 -27 20
v 10 -27 18
v 10 -30 20
v 4.000003 -30 20.00001
v 10 -30 18
v 4 -30 18.00001
v 10 -27 18
v 6 -27 18
v 10 -27 20
v 6.000003 -27 20
f 49 50 51
f 50 52 51
f 53 54 55
f 54 56 55
f 57 58 59
f 58 60 59
f 61 62 63
f 62 64 63
f 65 66 67
f 66 68 67
f 69 70 71
f 70 72 71
v 8 -30 10
v 10 -30 6
v 10 -30 10
v 8 -30 6
v 4 -30 10
v 4 -30 6
v -2 -30 10
v -2 -30 6
v -6 -30 10
v -6 -30 6
v -10 -30 10
v -10 -30 6
v 8 -30 -6
v 10 -30 -10
v 10 -30 -6
v 8 -30 -10
v 4 -30 -6
v 4 -30 -10
v -2 -30 -6
v -2 -30 -10
v -6 -30 -6
v -6 -30 -10
v -10 -30 -6
v -10 -30 -10
v 10 -6 6
v 6 -7 6
v 8 -6 10
v 10 -6 10
v 6 -7 6
v 4 -7 6
v 4 -6 10
v 8 -6 10
v -2 -7 6
v -2 -6 10
v -6 -7 6
v -6 -6 10
v -6 -7 6
v -10 -6 6
v -10 -6 10
v 10 -6 -10
v 8 -6 -10
v 6 -7 -6
v 10 -6 -6
v 6 -7 -6
v 6 -7 6
v 10 -6 6
v 4 -6 -10
v 4 -7 -6
v 6 -7 -6
v 6 -7 -6
v 4 -7 -6
v 4 -7 6
v 6 -7 6
v -2 -6 -10
v -2 -7 -6
v -2 -7 -6
v -2 -7 6
v -6 -6 -10
v -6 -7 -6
v -6 -7 -6
v -6 -7 6
v -6 -6 -10
v -10 -6 -10
v -10 -6 -6
v -6 -7 -6
v -6 -7 -6
v -10 -6 -6
v -6 -7 6
v 8 -30 10
v 10 -30 10
v 10 -18 10
v 8 -17 10
v 10 -18 -10
v 8 -30 -10
v 8 -17 -10
v 10 -30 -10
v 4 -30 10
v 4 -16 10
v 4 -30 -10
v 4 -16 -10
v 10 -14 10
v 8 -13 10
v 10 -6 10
v 8 -6 10
v 10 -14 -10
v 8 -13 -10
v 10 -6 -10
v 8 -6 -10
v 4 -16 5
v 8 -17 5
v 8 -13 5
v 4 -12 5
v 4 -12 10
v 4 -6 10
v 4 -12 -10
v 4 -6 -10
v 4 -16 10
v 8 -17 10
v 4 -16 5
v 8 -17 5
v 8 -17 10
v 8 -13 10
v 8 -17 5
v 8 -13 5
v 4 -12 10
v 4 -16 10
v 4 -12 5
v 4 -16 5
v 8 -13 10
v 4 -12 10
v 8 -13 5
v 4 -12 5
v -2 -30 10
v -2 -15 10
v -2 -30 -10
v -2 -15 -10
v -2 -11 10
v -2 -6 10
v -2 -11 -10
v -2 -6 -10
v -10 -30 10
v -6 -30 10
v -6 -14 10
v -10 -14 10
v -6 -14 -10
v -10 -30 -10
v -10 -14 -10
v -6 -30 -10
v -6 -10 10
v -10 -8 10
v -6 -14 4
v -2 -15 4
v -2 -11 4
v -6 -10 4
v -6 -6 10
v -10 -6 10
v -6 -10 -10
v -10 -8 -10
v -6 -6 -10
v -10 -6 -10
v -6 -14 10
v -2 -15 10
v -6 -14 4
v -2 -15 4
v -2 -15 10
v -2 -11 10
v -2 -15 4
v -2 -11 4
v -6 -10 10
v -6 -14 10
v -6 -10 4
v -6 -14 4
v -2 -11 10
v -6 -10 10
v -2 -11 4
v -6 -10 4
v 10 -30 10
v 10 -30 6
v 10 -18 6
v 10 -18 10
v -10 -14 6
v -10 -30 10
v -10 -14 10
v -10 -30 6
v 10 -14 6
v 10 -14 10
v 10 -6 6
v 10 -6 10
v -10 -8 6
v -10 -8 10
v -10 -6 6
v -10 -6 10
v 10 -30 -6
v 10 -18 -6
v 10 -30 -10
v 10 -18 -10
v -10 -14 -6
v -10 -30 -6
v -10 -14 -10
v -10 -30 -10
v 10 -14 -6
v 10 -14 -10
v 10 -6 -6
v 10 -6 -10
v -10 -8 -6
v -10 -8 -10
v -10 -6 -6
v -10 -6 -10
f 73 74 75
f 73 76 74
f 77 76 73
f 77 78 76
f 79 78 77
f 79 80 78
f 81 80 79
f 81 82 80
f 83 82 81
f 83 84 82
f 85 86 87
f 85 88 86
f 76 87 74
f 76 85 87
f 89 88 85
f 89 90 88
f 78 85 76
f 78 89 85
f 91 90 89
f 91 92 90
f 80 89 78
f 80 91 89
f 93 92 91
f 93 94 92
f 82 91 80
f 82 93 91
f 95 94 93
f 95 96 94
f 84 93 82
f 84 95 93
f 97 98 99
f 100 97 99
f 101 102 103
f 104 101 103
f 102 105 106
f 103 102 106
f 105 107 108
f 106 105 108
f 109 110 111
f 108 109 111
f 112 113 114
f 115 112 114
f 115 116 117
f 118 115 117
f 113 119 120
f 121 113 120
f 122 123 124
f 125 122 124
f 119 126 127
f 120 119 127
f 123 128 129
f 124 123 129
f 126 130 131
f 127 126 131
f 128 132 133
f 129 128 133
f 134 135 136
f 137 134 136
f 138 139 110
f 140 138 110
f 141 142 143
f 144 141 143
f 145 146 147
f 145 148 146
f 149 141 144
f 150 149 144
f 147 151 152
f 147 146 151
f 144 143 153
f 154 144 153
f 154 153 155
f 156 154 155
f 157 147 158
f 157 145 147
f 159 158 160
f 159 157 158
f 161 162 163
f 164 161 163
f 165 154 156
f 166 165 156
f 158 152 167
f 158 147 152
f 160 167 168
f 160 158 167
f 169 170 171
f 170 172 171
f 173 174 175
f 174 176 175
f 177 178 179
f 178 180 179
f 181 182 183
f 182 184 183
f 185 149 150
f 186 185 150
f 152 187 188
f 152 151 187
f 186 150 165
f 189 186 165
f 189 165 166
f 190 189 166
f 167 188 191
f 167 152 188
f 168 191 192
f 168 167 191
f 193 194 195
f 196 193 195
f 194 185 186
f 195 194 186
f 197 198 199
f 197 200 198
f 188 200 197
f 188 187 200
f 196 195 201
f 202 196 201
f 203 204 205
f 206 203 205
f 202 201 207
f 208 202 207
f 201 189 190
f 207 201 190
f 209 199 210
f 209 197 199
f 191 197 209
f 191 188 197
f 211 210 212
f 211 209 210
f 192 209 211
f 192 191 209
f 213 214 215
f 214 216 215
f 217 218 219
f 218 220 219
f 221 222 223
f 222 224 223
f 225 226 227
f 226 228 227
f 229 230 231
f 232 229 231
f 233 234 235
f 233 236 234
f 232 231 237
f 238 232 237
f 238 237 239
f 240 238 239
f 241 235 242
f 241 233 235
f 243 242 244
f 243 241 242
f 230 245 246
f 231 230 246
f 245 247 248
f 246 245 248
f 249 236 233
f 249 250 236
f 251 250 249
f 251 252 250
f 231 246 253
f 237 231 253
f 246 248 254
f 253 246 254
f 237 253 255
f 239 237 255
f 253 254 256
f 255 253 256
f 257 233 241
f 257 249 233
f 258 249 257
f 258 251 249
f 259 241 243
f 259 257 241
f 260 257 259
f 260 258 257
v -12.96428 -30 27.6248
v -16.8752 -30 28.46429
v -12.96428 -17 27.6248
v -16.8752 -17 28.46429
v -16.8752 -30 28.46429
v -16.03572 -30 32.3752
v -16.8752 -17 28.46429
v -16.03571 -17 32.3752
v -16.03572 -30 32.3752
v -12.1248 -30 31.53572
v -16.03571 -17 32.3752
v -12.12479 -17 31.53572
v -12.1248 -30 31.53572
v -12.96428 -30 27.6248
v -12.12479 -17 31.53572
v -12.96428 -17 27.6248
v -12.1248 -30 31.53572
v -16.03572 -30 32.3752
v -12.96428 -30 27.6248
v -16.8752 -30 28.46429
v -12.96428 -17 27.6248
v -16.8752 -17 28.46429
v -12.12479 -17 31.53572
v -16.03571 -17 32.3752
f 261 262 263
f 262 264 263
f 265 266 267
f 266 268 267
f 269 270 271
f 270 272 271
f 273 274 275
f 274 276 275
f 277 278 279
f 278 280 279
f 281 282 283
f 282 284 283
v 30.5 -30 13
v 26.5 -30 13.00001
v 30.5 -27 13
v 26.5 -27 13
v 26.5 -30 13.00001
v 26.5 -30 17
v 26.5 -27 13
v 26.5 -27 17
v 26.5 -30 17
v 30.5 -30 17
v 26.5 -27 17
v 30.5 -27 17
v 30.5 -30 17
v 30.5 -30 13
v 30.5 -27 17
v 30.5 -27 13
v 30.5 -30 17
v 26.5 -30 17
v 30.5 -30 13
v 26.5 -30 13.00001
v 30.5 -27 13
v 26.5 -27 13
v 30.5 -27 17
v 26.5 -27 17
f 285 286 287
f 286 288 287
f 289 290 291
f 290 292 291
f 293 294 295
f 294 296 295
f 297 298 299
f 298 300 299
f 301 302 303
f 302 304 303
f 305 306 307
f 306 308 307
v -31.36277 -30 18.66294
v -34.59624 -30 21.01766
v -33.71749 -30 15.42947
v -36.95095 -30 17.7842
v -33.27813 -28 12.63538
v -33.27813 -30 12.63538
v -38.12832 -28 16.16747
v -38.12832 -30 16.16747
v -33.71749 -26 15.42947
v -33.71749 -28 15.42947
v -36.95095 -26 17.7842
v -36.95095 -28 17.7842
v -36.95095 -30 17.7842
v -34.59624 -30 21.01766
v -34.59623 -28 21.01766
v -36.95095 -28 17.7842
v -34.59623 -26 21.01766
v -36.95095 -26 17.7842
v -34.59623 -28 21.01766
v -34.59624 -30 21.01766
v -31.36277 -30 18.66294
v -31.36276 -28 18.66294
v -34.59623 -26 21.01766
v -31.36276 -26 18.66294
v -33.27813 -28 12.63538
v -29.74603 -28 17.48557
v -33.27813 -30 12.63538
v -29.74604 -30 17.48557
v -33.71749 -26 15.42947
v -31.36276 -26 18.66294
v -33.71749 -28 15.42947
v -31.36276 -28 18.66294
v -31.36277 -30 18.66294
v -29.74603 -28 17.48557
v -29.74604 -30 17.48557
v -36.95095 -28 17.7842
v -33.71749 -28 15.42947
v -38.12832 -28 16.16747
v -33.27813 -28 12.63538
v -33.27813 -30 12.63538
v -38.12832 -30 16.16747
v -38.12832 -30 16.16747
v -38.12832 -28 16.16747
v -33.71749 -28 15.42947
v -31.36276 -28 18.66294
v -33.27813 -28 12.63538
v -29.74603 -28 17.48557
v -29.74604 -30 17.48557
v -33.71749 -26 15.42947
v -36.95095 -26 17.7842
v -31.36276 -26 18.66294
v -34.59623 -26 21.01766
f 309 310 311
f 310 312 311
f 313 314 315
f 314 316 315
f 317 318 319
f 318 320 319
f 321 322 323
f 321 323 324
f 324 323 325
f 324 325 326
f 327 328 329
f 327 329 330
f 331 327 330
f 331 330 332
f 333 334 335
f 334 336 335
f 337 338 339
f 338 340 339
f 330 341 342
f 341 343 342
f 344 345 346
f 345 347 346
f 311 312 348
f 312 349 348
f 321 324 350
f 324 351 350
f 352 353 354
f 353 355 354
f 309 311 356
f 311 348 356
f 357 358 359
f 358 360 359
v 4 -23 -10
v 10 -23 -10
v 4 -20 -10
v 8 -20 -10
v 10 -23 -10
v 10 -23 -12
v 8 -20 -10
v 8 -20 -12
v 10 -23 -12
v 4 -23 -12
v 8 -20 -12
v 4 -20 -12
v 4 -23 -12
v 4 -23 -10
v 4 -20 -12
v 4 -20 -10
v 4 -23 -12
v 10 -23 -12
v 4 -23 -10
v 10 -23 -10
v 4 -20 -10
v 8 -20 -10
v 4 -20 -12
v 8 -20 -12
f 361 362 363
f 362 364 363
f 365 366 367
f 366 368 367
f 369 370 371
f 370 372 371
f 373 374 375
f 374 376 375
f 377 378 379
f 378 380 379
f 381 382 383
f 382 384 383
v 8.5 -21 17.5
v 2.499999 -21 16.5
v 8.5 -19.5 17.5
v 2.5 -19.5 16.5
v 2.499999 -21 16.5
v 2.5 -21 22
v 2.5 -19.5 16.5
v 2.500004 -19.5 22
v 2.5 -21 22
v 8.5 -21 22
v 2.500004 -19.5 22
v 8.5 -19.5 22
v 8.5 -21 22
v 8.5 -21 17.5
v 8.5 -19.5 22
v 8.5 -19.5 17.5
v 8.5 -21 22
v 2.5 -21 22
v 8.5 -21 17.5
v 2.499999 -21 16.5
v 8.5 -19.5 17.5
v 2.5 -19.5 16.5
v 8.5 -19.5 22
v 2.500004 -19.5 22
f 385 386 387
f 386 388 387
f 389 390 391
f 390 392 391
f 393 394 395
f 394 396 395
f 397 398 399
f 398 400 399
f 401 402 403
f 402 404 403
f 405 406 407
f 406 408 407
v -10 -14 6
v -12 -14 9.000001
v -12 -14 6.000001
v -9.999999 -14 9
v -10 -14 3
v -12 -14 3.000001
v -12 -11 6.000001
v -10 -11 6
v -10 -11 3
v -12 -11 3.000001
v -12 -8 9.000001
v -9.999999 -8 9
v -10 -8 6
v -12 -8 6.000001
v -9.999998 -8 10
v -12 -8 10
v -9.999998 -8 12
v -12 -8 12
v -7 -8 12
v -9.999998 -8 10
v -7 -8 9.999998
v -5 -8 11
v -5 -8 9.999999
v -10 -14 3
v -12 -14 3.000001
v -10 -11 3
v -12 -11 3.000001
v -12 -14 9.000001
v -9.999999 -14 9
v -12 -11 9.000001
v -9.999999 -11 9
v -12 -14 3.000001
v -12 -14 6.000001
v -12 -11 6.000001
v -12 -11 3.000001
v -12 -14 9.000001
v -12 -11 9.000001
v -9.999999 -11 9
v -10 -14 6
v -10 -11 6
v -9.999999 -14 9
v -10 -14 3
v -10 -11 3
v -12 -9 12
v -9.999997 -9 12
v -12 -8 12
v -9.999998 -8 12
v -9.999999 -8 9
v -10 -8 6
v -12 -8 6.000001
v -12 -8 9.000001
v -10 -11 6
v -12 -11 6.000001
v -10 -8 6
v -12 -8 6.000001
v -12 -11 9.000001
v -9.999999 -11 9
v -12 -9 10
v -9.999998 -10 10
v -12 -8 10
v -12 -9 10
v -9.999999 -11 9
v -9.999999 -8 9
v -9.999998 -10 10
v -9.999998 -8 10
v -12 -9 10
v -9.999998 -10 10
v -12 -9 12
v -9.999997 -9 12
v -12 -8 12
v -12 -9 12
v -5 -10 9.999998
v -5 -8 9.999999
v -5 -9 11
v -5 -8 11
v -7 -10 9.999998
v -9.999998 -10 10
v -7 -8 9.999998
v -9.999998 -8 10
v -5 -10 9.999998
v -5 -8 9.999999
v -7 -10 9.999998
v -7 -9 12
v -9.999998 -10 10
v -9.999997 -9 12
v -5 -10 9.999998
v -5 -9 11
v -7 -10 9.999998
v -7 -9 12
v -9.999998 -8 12
v -9.999997 -9 12
v -7 -8 12
v -7 -9 12
v -7 -8 12
v -7 -9 12
v -5 -8 11
v -5 -9 11
f 409 410 411
f 409 412 410
f 413 411 414
f 413 409 411
f 415 416 417
f 418 415 417
f 419 420 421
f 422 419 421
f 420 419 423
f 419 424 423
f 423 424 425
f 424 426 425
f 425 427 428
f 428 427 429
f 427 430 429
f 429 430 431
f 432 433 434
f 433 435 434
f 436 437 438
f 437 439 438
f 440 441 442
f 443 440 442
f 441 444 445
f 442 441 445
f 446 447 448
f 446 449 447
f 448 450 451
f 448 447 450
f 452 453 454
f 453 455 454
f 446 448 456
f 448 457 456
f 442 445 458
f 445 459 458
f 460 461 462
f 461 463 462
f 464 465 466
f 465 467 466
f 459 445 468
f 445 469 468
f 470 471 472
f 471 473 472
f 474 475 476
f 475 477 476
f 468 469 478
f 469 479 478
f 480 481 482
f 481 483 482
f 484 485 486
f 486 485 487
f 488 484 486
f 488 486 489
f 490 491 492
f 491 493 492
f 494 495 496
f 496 495 497
f 498 499 500
f 500 499 501
f 502 503 504
f 503 505 504
v -11.46426 -31 19.9962
v -16.34912 -31 19.04523
v -12.03685 -14 20.38218
v -15.96314 -14 19.61782
v -16.34912 -31 19.04523
v -17.30011 -31 23.93008
v -15.96314 -14 19.61782
v -16.72751 -14 23.5441
v -17.30011 -31 23.93008
v -12.41524 -31 24.88107
v -16.72751 -14 23.5441
v -12.80122 -14 24.30847
v -12.41524 -31 24.88107
v -11.46426 -31 19.9962
v -12.80122 -14 24.30847
v -12.03685 -14 20.38218
v -12.41524 -31 24.88107
v -17.30011 -31 23.93008
v -11.46426 -31 19.9962
v -16.34912 -31 19.04523
v -12.03685 -14 20.38218
v -15.96314 -14 19.61782
v -12.80122 -14 24.30847
v -16.72751 -14 23.5441
f 506 507 508
f 507 509 508
f 510 511 512
f 511 513 512
f 514 515 516
f 515 517 516
f 518 519 520
f 519 521 520
f 522 523 524
f 523 525 524
f 526 527 528
f 527 529 528
v 18 -30 18
v 14 -30 18
v 18 -24 18
v 14 -24 18
v 14 -30 18
v 14 -30 20
v 14 -24 18
v 14.00001 -24 22
v 14 -30 20
v 18 -30 20
v 14.00001 -24 22
v 18.00001 -24 22
v 18 -30 20
v 18 -30 18
v 18.00001 -24 22
v 18 -24 18
v 18 -30 20
v 14 -30 20
v 18 -30 18
v 14 -30 18
v 18 -24 18
v 14 -24 18
v 18.00001 -24 22
v 14.00001 -24 22
f 530 531 532
f 531 533 532
f 534 535 536
f 535 537 536
f 538 539 540
f 539 541 540
f 542 543 544
f 543 545 544
f 546 547 548
f 547 549 548
f 550 551 552
f 551 553 552
v 0 -9 -10
v 0 -9 -11
v 0 -8 -10
v 0 -8 -11
v -8 -9 -11
v -8 -9 -10
v -8 -8 -11
v -8 -8 -10
v -8 -9 -10
v -4 -9 -10
v -4 -8 -10
v -8 -8 -10
v 0 -9 -10
v 0 -8 -10
v 0 -8 -12
v -4 -9 -12
v -4 -8 -12
v 0 -9 -12
v -4 -8 -11
v -8 -9 -11
v -8 -8 -11
v -4 -9 -11
v -8 -9 -10
v -4 -9 -11
v -4 -9 -10
v -8 -9 -11
v 0 -9 -11
v 0 -9 -10
v -4 -9 -11
v -4 -8 -11
v -4 -9 -12
v -4 -8 -12
v 0 -8 -12
v 0 -9 -12
v 0 -9 -12
v -4 -9 -12
v -4 -8 -11
v -8 -8 -11
v -8 -8 -10
v -4 -8 -10
v 0 -8 -11
v 0 -8 -10
v -4 -8 -12
v 0 -8 -12
f 554 555 556
f 555 557 556
f 558 559 560
f 559 561 560
f 562 563 564
f 565 562 564
f 563 566 567
f 564 563 567
f 568 569 570
f 568 571 569
f 572 573 574
f 572 575 573
f 576 577 578
f 576 579 577
f 578 580 581
f 578 577 580
f 582 583 584
f 583 585 584
f 557 555 586
f 555 587 586
f 580 577 588
f 577 589 588
f 590 591 592
f 593 590 592
f 594 590 593
f 595 594 593
f 590 594 596
f 594 597 596
v -9 -14 -13
v -6 -14 -13
v -9 -11 -13
v -7 -11 -13
v -6 -14 -13
v -6 -14 -16
v -7 -11 -13
v -7 -11 -15
v -6 -14 -16
v -9 -14 -16
v -7 -11 -15
v -9 -11 -15
v -9 -14 -16
v -9 -14 -13
v -9 -11 -15
v -9 -11 -13
v -9 -14 -16
v -6 -14 -16
v -9 -14 -13
v -6 -14 -13
v -9 -11 -13
v -7 -11 -13
v -9 -11 -15
v -7 -11 -15
f 598 599 600
f 599 601 600
f 602 603 604
f 603 605 604
f 606 607 608
f 607 609 608
f 610 611 612
f 611 613 612
f 614 615 616
f 615 617 616
f 618 619 620
f 619 621 620
v 0.5 -30 9.999997
v -16.5 -30 10.00001
v 0.5 -27 9.999997
v -16.5 -27 10
v -16.5 -30 10.00001
v -16.5 -30 24
v -16.5 -27 10
v -16.5 -27 24
v -16.5 -30 24
v 0.4999995 -30 24
v -16.5 -27 24
v 0.4999995 -27 24
v 0.4999995 -30 24
v 0.5 -30 9.999997
v 0.4999995 -27 24
v 0.5 -27 9.999997
v 0.4999995 -30 24
v -16.5 -30 24
v 0.5 -30 9.999997
v -16.5 -30 10.00001
v 0.5 -27 9.999997
v -16.5 -27 10
v 0.4999995 -27 24
v -16.5 -27 24
f 622 623 624
f 623 625 624
f 626 627 628
f 627 629 628
f 630 631 632
f 631 633 632
f 634 635 636
f 635 637 636
f 638 639 640
f 639 641 640
f 642 643 644
f 643 645 644
v 25 -30 18
v 21 -30 18.00001
v 25 -27 18
v 21 -27 18
v 21 -30 18.00001
v 21 -30 22
v 21 -27 18
v 21 -27 22
v 21 -30 22
v 25 -30 22
v 21 -27 22
v 25 -27 22
v 25 -30 22
v 25 -30 18
v 25 -27 22
v 25 -27 18
v 25 -30 22
v 21 -30 22
v 25 -30 18
v 21 -30 18.00001
v 25 -27 18
v 21 -27 18
v 25 -27 22
v 21 -27 22
f 646 647 648
f 647 649 648
f 650 651 652
f 651 653 652
f 654 655 656
f 655 657 656
f 658 659 660
f 659 661 660
f 662 663 664
f 663 665 664
f 666 667 668
f 667 669 668
v -14 -14 -5
v -10 -14 -10
v -10 -14 -5
v -14 -14 -9
v -12 -14 -2
v -10 -14 -2
v -10 -11 -5
v -13 -11 -5
v -12 -11 -2
v -10 -11 -2
v -10 -8 -8
v -12 -8 -8
v -12 -8 -5
v -10 -8 -5
v -12 -14 -2
v -10 -14 -2
v -12 -11 -2
v -10 -11 -2
v -10 -14 -10
v -14 -14 -9
v -10 -11 -9
v -13 -11 -9
v -10 -14 -2
v -10 -14 -5
v -10 -11 -5
v -10 -11 -2
v -10 -14 -10
v -10 -11 -9
v -13 -11 -9
v -14 -14 -5
v -13 -11 -5
v -14 -14 -9
v -13 -11 -5
v -12 -14 -2
v -12 -11 -2
v -14 -14 -5
v -10 -11 -9
v -13 -11 -9
v -10 -8 -8
v -12 -8 -8
v -13 -11 -9
v -13 -11 -5
v -12 -8 -8
v -12 -8 -5
v -10 -8 -5
v -10 -8 -8
v -13 -11 -5
v -10 -11 -5
v -12 -8 -5
v -10 -8 -5
f 670 671 672
f 670 673 671
f 674 672 675
f 674 670 672
f 676 677 678
f 679 676 678
f 680 681 682
f 683 680 682
f 684 685 686
f 685 687 686
f 688 689 690
f 689 691 690
f 692 693 694
f 695 692 694
f 693 696 697
f 694 693 697
f 698 699 700
f 698 701 699
f 702 703 704
f 702 705 703
f 706 707 708
f 707 709 708
f 710 711 712
f 711 713 712
f 694 697 714
f 697 715 714
f 716 717 718
f 717 719 718
v -30.09016 -30 31.604
v -28.53729 -30 35.29028
v -33.77644 -30 33.15686
v -32.22356 -30 36.84314
v -35 -28 33
v -35 -30 33
v -33 -28 39
v -33 -30 39
v -33.77644 -26 33.15686
v -33.77644 -28 33.15686
v -32.22357 -26 36.84313
v -32.22356 -28 36.84314
v -33 -30 39
v -27 -30 36
v -27 -28 36
v -33 -28 39
v -32.22356 -28 36.84314
v -28.53729 -28 35.29027
v -28.53729 -26 35.29027
v -32.22357 -26 36.84313
v -27 -28 36
v -27 -30 36
v -29 -30 30
v -29 -28 30
v -28.53729 -26 35.29027
v -28.53729 -28 35.29027
v -30.09016 -28 31.60399
v -30.09016 -26 31.60399
v -35 -28 33
v -29 -28 30
v -35 -30 33
v -29 -30 30
v -33.77644 -26 33.15686
v -30.09016 -26 31.60399
v -33.77644 -28 33.15686
v -30.09016 -28 31.60399
v -30.09016 -28 31.60399
v -28.53729 -28 35.29027
v -29 -28 30
v -27 -28 36
v -32.22356 -28 36.84314
v -33.77644 -28 33.15686
v -33 -28 39
v -35 -28 33
v -35 -30 33
v -33 -30 39
v -29 -30 30
v -27 -30 36
v -33.77644 -26 33.15686
v -32.22357 -26 36.84313
v -30.09016 -26 31.60399
v -28.53729 -26 35.29027
f 720 721 722
f 721 723 722
f 724 725 726
f 725 727 726
f 728 729 730
f 729 731 730
f 732 733 734
f 732 734 735
f 736 737 738
f 736 738 739
f 740 741 742
f 740 742 743
f 744 745 746
f 744 746 747
f 748 749 750
f 749 751 750
f 752 753 754
f 753 755 754
f 756 757 758
f 757 759 758
f 760 761 762
f 761 763 762
f 722 723 764
f 723 765 764
f 761 756 763
f 756 758 763
f 720 722 766
f 722 764 766
f 757 760 759
f 760 762 759
f 721 720 767
f 720 766 767
f 723 721 765
f 721 767 765
f 768 769 770
f 769 771 770
v 8 -13 -10
v 10 -13 -10
v 8 -10 -10
v 10 -10 -10
v 10 -13 -14
v 8 -13 -14
v 10 -10 -14
v 8 -10 -14
v 10 -10 -10
v 10 -13 -10
v 10 -10 -6
v 10 -13 -6
v 16 -13 -10
v 16 -10 -10
v 17.5 -13 -6
v 17.5 -10 -6
v 16 -13 -10
v 16 -13 -12
v 16 -10 -12
v 16 -10 -10
v 16 -13 -12
v 13 -13 -13
v 13 -10 -13
v 16 -10 -12
v 8 -10 -14
v 8 -13 -12
v 8 -10 -12
v 8 -13 -14
v 8 -13 -10
v 8 -10 -10
v 8 -13 -12
v 10 -13 -14
v 10 -13 -12
v 8 -13 -14
v 8 -13 -10
v 10 -13 -10
v 10 -13 -2
v 13.5 -13 -2
v 13.5 -10 -2
v 10 -10 -2
v 13.5 -13 -2
v 14.5 -13 -3
v 14.5 -10 -3
v 13.5 -10 -2
v 12 -10 -14
v 10 -13 -14
v 10 -10 -14
v 12 -13 -14
v 13 -10 -13
v 12 -13 -14
v 12 -10 -14
v 13 -13 -13
v 10 -13 -6
v 12 -13 -10
v 12 -13 -6
v 16 -13 -10
v 17.5 -13 -6
v 16 -13 -12
v 12 -13 -12
v 13 -13 -13
v 12 -13 -14
v 10 -13 -2
v 13.5 -13 -2
v 10 -10 -2
v 10 -13 -2
v 17.5 -13 -6
v 13.5 -13 -2
v 17.5 -13 -6
v 14.5 -13 -3
v 13.5 -13 -2
v 17.5 -13 -6
v 17.5 -10 -6
v 10 -10 -12
v 8 -10 -12
v 8 -10 -10
v 10 -10 -10
v 10 -10 -14
v 8 -10 -14
v 16 -10 -10
v 12 -10 -10
v 12 -10 -6
v 17.5 -10 -6
v 10 -10 -6
v 13 -10 -13
v 12 -10 -14
v 12 -10 -12
v 16 -10 -12
v 14.5 -10 -3
v 13.5 -10 -2
v 10 -10 -2
f 772 773 774
f 773 775 774
f 776 777 778
f 777 779 778
f 780 781 782
f 781 783 782
f 784 785 786
f 785 787 786
f 788 789 790
f 791 788 790
f 792 793 794
f 795 792 794
f 796 797 798
f 796 799 797
f 798 800 801
f 798 797 800
f 802 803 804
f 802 805 803
f 806 804 807
f 806 802 804
f 808 809 810
f 811 808 810
f 812 813 814
f 815 812 814
f 816 817 818
f 816 819 817
f 820 821 822
f 820 823 821
f 824 825 826
f 824 807 825
f 826 827 828
f 826 825 827
f 825 829 827
f 825 830 829
f 807 830 825
f 807 804 830
f 830 831 829
f 830 832 831
f 804 832 830
f 804 803 832
f 824 826 833
f 826 834 833
f 782 783 835
f 783 836 835
f 826 837 838
f 839 840 841
f 842 843 813
f 843 814 813
f 844 845 846
f 847 844 846
f 848 849 845
f 844 848 845
f 850 851 852
f 853 850 852
f 851 847 854
f 852 851 854
f 855 856 857
f 858 855 857
f 856 848 844
f 857 856 844
f 858 857 851
f 850 858 851
f 857 844 847
f 851 857 847
f 853 852 859
f 852 860 859
f 852 854 860
f 854 861 860
v -21.66333 -30 27.19168
v -24.80832 -30 29.66333
v -21.66333 -20 27.19168
v -24.80832 -20 29.66332
v -24.80832 -30 29.66333
v -22.33668 -30 32.80832
v -24.80832 -20 29.66332
v -22.33668 -20 32.80832
v -22.33668 -30 32.80832
v -19.19168 -30 30.33667
v -22.33668 -20 32.80832
v -19.19168 -20 30.33667
v -19.19168 -30 30.33667
v -21.66333 -30 27.19168
v -19.19168 -20 30.33667
v -21.66333 -20 27.19168
v -19.19168 -30 30.33667
v -22.33668 -30 32.80832
v -21.66333 -30 27.19168
v -24.80832 -30 29.66333
v -21.66333 -20 27.19168
v -24.80832 -20 29.66332
v -19.19168 -20 30.33667
v -22.33668 -20 32.80832
f 862 863 864
f 863 865 864
f 866 867 868
f 867 869 868
f 870 871 872
f 871 873 872
f 874 875 876
f 875 877 876
f 878 879 880
f 879 881 880
f 882 883 884
f 883 885 884
v -18 -30 -12.5
v -10 -30 -12.5
v -18 -27 -12.5
v -10 -27 -12.5
v -10 -30 -12.5
v -10 -30 -20
v -10 -27 -12.5
v -10 -27 -20
v -10 -30 -20
v -18 -30 -20
v -10 -27 -20
v -18 -27 -20
v -18 -30 -20
v -18 -30 -12.5
v -18 -27 -20
v -18 -27 -12.5
v -18 -30 -20
v -10 -30 -20
v -18 -30 -12.5
v -10 -30 -12.5
v -18 -27 -12.5
v -10 -27 -12.5
v -18 -27 -20
v -10 -27 -20
f 886 887 888
f 887 889 888
f 890 891 892
f 891 893 892
f 894 895 896
f 895 897 896
f 898 899 900
f 899 901 900
f 902 903 904
f 903 905 904
f 906 907 908
f 907 909 908
v 10 -17 1
v 13.5 -17 0.9999999
v 10 -14 1
v 13.5 -14 0.9999996
v 13.5 -17 -1.999999
v 10 -17 -1.999999
v 13.5 -14 -1.999999
v 10 -14 -2
v 10 -14 -2
v 10 -17 -1.999999
v 10 -14 -0.4999998
v 10 -17 -0.4999994
v 10 -14 1
v 10 -17 1
v 13.5 -14 0.9999996
v 13.5 -17 0.9999999
v 13.5 -17 -0.4999994
v 13.5 -14 -0.4999998
v 13.5 -17 -1.999999
v 13.5 -14 -1.999999
v 10 -17 -0.4999994
v 10 -17 -1.999999
v 13.5 -17 -0.4999994
v 13.5 -17 -1.999999
v 10 -17 1
v 13.5 -17 0.9999999
v 13.5 -11.5 -0.4999995
v 13.5 -11.5 -1.999999
v 13.5 -14 -1.999999
v 10 -14 -2
v 13.5 -11.5 -1.999999
v 10 -11.5 -1.999999
v 10 -14 -0.4999998
v 13.5 -14 -0.4999998
v 10 -11.5 -0.4999996
v 13.5 -11.5 -0.4999995
v 13.5 -11.5 -0.4999995
v 13.5 -11.5 -1.999999
v 10 -11.5 -1.999999
v 10 -11.5 -0.4999996
v 13.5 -14 0.9999996
v 13.5 -14 -0.4999998
v 10 -14 -0.4999998
v 10 -14 1
v 10 -14 -2
v 10 -14 -0.4999998
v 10 -11.5 -1.999999
v 10 -11.5 -0.4999996
f 910 911 912
f 911 913 912
f 914 915 916
f 915 917 916
f 918 919 920
f 919 921 920
f 920 921 922
f 921 923 922
f 924 925 926
f 924 926 927
f 927 926 928
f 927 928 929
f 930 931 932
f 931 933 932
f 934 930 935
f 930 932 935
f 927 929 936
f 929 937 936
f 938 939 940
f 939 941 940
f 942 943 944
f 943 945 944
f 946 947 948
f 946 948 949
f 950 951 952
f 950 952 953
f 954 955 956
f 955 957 956
v 10 -30 10
v 10 -30 -10
v 10 -36 10
v 10 -36 -10
v 30 -30 -10
v 30 -30 10
v 30 -36 -10
v 30 -36 10
v 10 -36 10
v 20 -36 -10
v 20 -36 10
v 10 -36 -10
v 30 -36 -10
v 30 -36 10
v 20 -30 -10
v 10 -36 -10
v 10 -30 -10
v 20 -36 -10
v 30 -30 -10
v 30 -36 -10
v 20 -36 10
v 30 -36 10
v 30 -30 10
v 20 -30 10
v 10 -36 10
v 10 -30 10
v 20 -30 -10
v 10 -30 -10
v 10 -18 10
v 20 -18 10
v 30 -30 -10
v 22 -18 10
v 20 -18 10
v 10 -18 10
v 20 -18 18
v 10 -18 18
v 22 -18 10
v 10 -18 18
v 10 -18 10
v -10 -14 18
v -10 -14 10
v -10 -14 18
v -10 -14 10
v -15 -14 18
v -15 -14 10
v -10 -14 -2
v -15 -14 -2
v -10 -14 -10
v -15 -14 -10
v 30 -30 10
v 30 -30 -10
v 22 -18 10
v 10 -30 10
v 10 -18 10
v 10 -30 -10
v 10 -30 18
v 20 -30 18
v 20 -18 18
v 10 -18 18
v 30 -30 18
v 10 -30 10
v 20 -30 10
v 10 -30 18
v 20 -30 18
v 20 -30 10
v 20 -18 10
v 20 -30 18
v 20 -18 18
v -15 -14 10
v -15 -16 10
v -15 -14 18
v -15 -15 18
v 30 -30 10
v 30 -30 18
v 22 -18 10
v 30 -30 18
v 20 -18 18
v 20 -18 10
v 20 -30 10
v 20 -18 18
v 20 -30 18
v 10 -18 10
v 10 -30 10
v -10 -14 10
v -7 -30 10
v -7 -30 10
v -5 -30 16
v 10 -30 18
v 10 -18 18
v -5 -30 16
v -10 -14 18
v -10 -17 10
v -7 -30 10
v -5 -30 16
v -10 -17 10
v -10 -17 18
v -5 -30 16
v -10 -14 18
v -10 -17 18
v -10 -14 -10
v -10 -15 -10
v -15 -14 -10
v -15 -15 -10
v -10 -17 10
v -10 -17 18
v -15 -16 10
v -15 -15 18
v -10 -17 18
v -10 -14 18
v -15 -15 18
v -15 -14 18
v -10 -17 10
v -10 -17 -2
v -10 -14 -2
v -10 -14 10
v -10 -15 -10
v -10 -14 -10
v -15 -16 10
v -10 -17 -2
v -10 -17 10
v -15 -16 -2
v -15 -16 -2
v -10 -15 -10
v -10 -17 -2
v -15 -15 -10
v -15 -14 -2
v -15 -16 -2
v -15 -14 -10
v -15 -15 -10
f 958 959 960
f 959 961 960
f 962 963 964
f 963 965 964
f 966 967 968
f 966 969 967
f 968 970 971
f 968 967 970
f 972 973 974
f 972 975 973
f 976 975 972
f 976 977 975
f 978 979 980
f 981 978 980
f 982 978 981
f 983 982 981
f 984 985 986
f 987 984 986
f 988 984 987
f 989 988 987
f 990 991 992
f 991 993 992
f 994 990 992
f 995 996 997
f 996 998 997
f 999 1000 1001
f 1000 1002 1001
f 1003 1004 1002
f 1000 1003 1002
f 1005 1006 1004
f 1003 1005 1004
f 1007 1008 1009
f 1010 1011 1012
f 1013 1014 1015
f 1016 1013 1015
f 1014 1017 1015
f 1018 1019 1020
f 1019 1021 1020
f 1022 1023 1024
f 1023 1025 1024
f 1026 1027 1028
f 1027 1029 1028
f 1019 1030 1021
f 1030 1031 1021
f 1007 1032 1033
f 1032 1034 1033
f 1035 1036 1037
f 1036 1038 1037
f 1039 1040 1041
f 1040 1042 1041
f 1018 1020 1043
f 1020 1044 1043
f 1045 1046 1047
f 1046 1048 1047
f 1042 1049 1041
f 1050 1051 1052
f 1051 1053 1052
f 1054 1055 1056
f 1057 1058 1059
f 1058 1060 1059
f 1061 1062 1063
f 1062 1064 1063
f 1065 1066 1067
f 1066 1068 1067
f 1069 1070 1071
f 1072 1069 1071
f 1070 1073 1074
f 1071 1070 1074
f 1075 1076 1077
f 1075 1078 1076
f 1079 1080 1081
f 1079 1082 1080
f 1083 1027 1026
f 1083 1084 1027
f 1085 1084 1083
f 1085 1086 1084
v -10 -16 -10
v -6 -16 -10
v -6 -15 -10
v -10 -15 -10
v -6 -14 -10
v -10 -14 -10
v -6 -15 -10
v -6 -16 -10
v -6 -15 -15
v -6 -14 -16
v -6 -14 -10
v -6 -15 -15
v -10 -16 -10
v -10 -15 -15
v -6 -16 -10
v -6 -14 -16
v -10 -15 -15
v -10 -14 -16
v -6 -15 -15
v -10 -15 -15
v -10 -16 -10
v -10 -15 -10
v -15 -14 -11
v -15 -15 -10
v -15 -14 -10
v -15 -15 -10
v -15 -14 -10
v -10 -14 -16
v -10 -15 -15
v -15 -14 -11
v -15 -15 -10
v -10 -15 -15
v -10 -15 -10
v -15 -15 -10
v -10 -14 -10
v -6 -14 -10
v -10 -14 -16
v -6 -14 -16
v -15 -14 -10
v -15 -14 -11
f 1087 1088 1089
f 1090 1087 1089
f 1090 1089 1091
f 1092 1090 1091
f 1093 1094 1095
f 1093 1095 1096
f 1097 1093 1096
f 1098 1099 1100
f 1098 1101 1099
f 1102 1103 1104
f 1102 1105 1103
f 1106 1107 1108
f 1109 1110 1111
f 1090 1092 1112
f 1092 1113 1112
f 1114 1115 1116
f 1115 1117 1116
f 1118 1119 1120
f 1121 1122 1123
f 1122 1124 1123
f 1121 1123 1125
f 1123 1126 1125
v -6 -14 9
v -2 -15 9
v -6 -10 9
v -2 -11 9
v -2 -15 9
v -2 -15 -4
v -2 -11 9
v -2 -11 -4
v -2 -15 -4
v -6 -14 -4
v -2 -11 -4
v -6 -10 -4
v -6 -14 -4
v -6 -14 9
v -6 -10 -4
v -6 -10 9
v -6 -10 9
v -2 -11 9
v -6 -10 -4
v -2 -11 -4
v -6 -14 -4
v -2 -15 -4
v -6 -14 9
v -2 -15 9
f 1127 1128 1129
f 1128 1130 1129
f 1131 1132 1133
f 1132 1134 1133
f 1135 1136 1137
f 1136 1138 1137
f 1139 1140 1141
f 1140 1142 1141
f 1143 1144 1145
f 1144 1146 1145
f 1147 1148 1149
f 1148 1150 1149
v -3.439549 -30 32.79829
v -7.201707 -30 31.43955
v -3.43955 -20 32.79829
v -7.201707 -20 31.43955
v -7.201707 -30 31.43955
v -8.560452 -30 35.2017
v -7.201707 -20 31.43955
v -8.56045 -20 35.20171
v -8.560452 -30 35.2017
v -4.798294 -30 36.56045
v -8.56045 -20 35.20171
v -4.798294 -20 36.56046
v -4.798294 -30 36.56045
v -3.439549 -30 32.79829
v -4.798294 -20 36.56046
v -3.43955 -20 32.79829
v -4.798294 -30 36.56045
v -8.560452 -30 35.2017
v -3.439549 -30 32.79829
v -7.201707 -30 31.43955
v -3.43955 -20 32.79829
v -7.201707 -20 31.43955
v -4.798294 -20 36.56046
v -8.56045 -20 35.20171
f 1151 1152 1153
f 1152 1154 1153
f 1155 1156 1157
f 1156 1158 1157
f 1159 1160 1161
f 1160 1162 1161
f 1163 1164 1165
f 1164 1166 1165
f 1167 1168 1169
f 1168 1170 1169
f 1171 1172 1173
f 1172 1174 1173
v 9.999999 -17 1.000001
v 10 -17 6
v 9.999999 -15 1.000001
v 10 -15 6
v 10 -17 6
v 13.5 -17 6
v 10 -15 6
v 13.5 -15 6
v 13.5 -17 6
v 13.5 -17 1.000001
v 13.5 -15 6
v 13.5 -15 1.000001
v 13.5 -17 1.000001
v 9.999999 -17 1.000001
v 13.5 -15 1.000001
v 9.999999 -15 1.000001
v 13.5 -17 1.000001
v 13.5 -17 6
v 9.999999 -17 1.000001
v 10 -17 6
v 9.999999 -15 1.000001
v 10 -15 6
v 13.5 -15 1.000001
v 13.5 -15 6
f 1175 1176 1177
f 1176 1178 1177
f 1179 1180 1181
f 1180 1182 1181
f 1183 1184 1185
f 1184 1186 1185
f 1187 1188 1189
f 1188 1190 1189
f 1191 1192 1193
f 1192 1194 1193
f 1195 1196 1197
f 1196 1198 1197
v 1.099903 -30 42.33477
v -2.807876 -30 41.48078
v 1.953888 -30 38.42699
v -1.953889 -30 37.57301
v 1.953889 -28 38.42699
v 1.953888 -30 38.42699
v -1.953887 -28 37.57301
v -1.953889 -30 37.57301
v 1.953891 -26 38.42699
v -1.953884 -26 37.57301
v -1.953889 -30 37.57301
v -2.807876 -30 41.48078
v -2.807874 -28 41.48078
v -1.953887 -28 37.57301
v -2.807871 -26 41.48079
v -1.953884 -26 37.57301
v -3.234868 -28 43.43467
v -3.234871 -30 43.43467
v 2.626798 -30 44.71565
v 2.626801 -28 44.71566
v -2.807871 -26 41.48079
v -2.807874 -28 41.48078
v 1.099905 -28 42.33477
v 1.099909 -26 42.33477
v 3.907778 -28 38.85398
v 2.626801 -28 44.71566
v 3.907776 -30 38.85398
v 2.626798 -30 44.71565
v 1.953891 -26 38.42699
v 1.099909 -26 42.33477
v 1.953889 -28 38.42699
v 1.099905 -28 42.33477
v 1.953889 -28 38.42699
v 1.099905 -28 42.33477
v 3.907778 -28 38.85398
v 2.626801 -28 44.71566
v 3.907776 -30 38.85398
v 3.907778 -28 38.85398
v -2.807874 -28 41.48078
v -3.234868 -28 43.43467
v 2.626798 -30 44.71565
v 3.907776 -30 38.85398
v -3.234868 -28 43.43467
v -3.234871 -30 43.43467
v -3.234871 -30 43.43467
v 1.953891 -26 38.42699
v -1.953884 -26 37.57301
v 1.099909 -26 42.33477
v -2.807871 -26 41.48079
f 1199 1200 1201
f 1200 1202 1201
f 1203 1204 1205
f 1204 1206 1205
f 1207 1203 1208
f 1203 1205 1208
f 1209 1210 1211
f 1209 1211 1212
f 1212 1211 1213
f 1212 1213 1214
f 1215 1216 1217
f 1215 1217 1218
f 1219 1220 1221
f 1219 1221 1222
f 1223 1224 1225
f 1224 1226 1225
f 1227 1228 1229
f 1228 1230 1229
f 1231 1232 1233
f 1232 1234 1233
f 1204 1203 1235
f 1203 1236 1235
f 1232 1237 1234
f 1237 1238 1234
f 1199 1201 1239
f 1201 1240 1239
f 1211 1210 1241
f 1210 1242 1241
f 1200 1199 1243
f 1199 1239 1243
f 1244 1245 1246
f 1245 1247 1246
v 29 -28 8.499997
v 25 -28 8.500006
v 29 -25 8.499997
v 25 -25 8.500003
v 25 -28 8.500006
v 25 -28 12.5
v 25 -25 8.500003
v 25 -25 12.5
v 25 -28 12.5
v 29 -28 12.5
v 25 -25 12.5
v 29 -25 12.5
v 29 -28 12.5
v 29 -28 8.499997
v 29 -25 12.5
v 29 -25 8.499997
v 29 -28 12.5
v 25 -28 12.5
v 29 -28 8.499997
v 25 -28 8.500006
v 29 -25 8.499997
v 25 -25 8.500003
v 29 -25 12.5
v 25 -25 12.5
f 1248 1249 1250
f 1249 1251 1250
f 1252 1253 1254
f 1253 1255 1254
f 1256 1257 1258
f 1257 1259 1258
f 1260 1261 1262
f 1261 1263 1262
f 1264 1265 1266
f 1265 1267 1266
f 1268 1269 1270
f 1269 1271 1270
v -15.14918 -30 37.92883
v -12.63257 -30 41.03796
v -18.2583 -30 40.44543
v -15.74169 -30 43.55456
v -19.81287 -28 41.70374
v -19.81287 -30 41.70374
v -16.03795 -28 46.36743
v -16.03795 -30 46.36743
v -18.25831 -26 40.44544
v -18.25831 -28 40.44544
v -15.7417 -26 43.55456
v -15.74169 -28 43.55456
v -16.03795 -30 46.36743
v -11.37426 -30 42.59253
v -11.37426 -28 42.59252
v -16.03795 -28 46.36743
v -15.74169 -28 43.55456
v -12.63257 -28 41.03796
v -12.63257 -26 41.03795
v -15.7417 -26 43.55456
v -12.63257 -28 41.03796
v -12.63257 -30 41.03796
v -15.14918 -30 37.92883
v -15.14918 -28 37.92882
v -12.63257 -26 41.03795
v -15.14918 -26 37.92882
v -18.25831 -28 40.44544
v -15.14918 -28 37.92882
v -18.2583 -30 40.44543
v -15.14918 -30 37.92883
v -18.25831 -26 40.44544
v -15.14918 -26 37.92882
v -16.03795 -30 46.36743
v -11.37426 -30 42.59253
v -12.63257 -30 41.03796
v -11.37426 -30 42.59253
v -11.37426 -28 42.59252
v -12.63257 -28 41.03796
v -15.74169 -28 43.55456
v -11.37426 -28 42.59252
v -16.03795 -28 46.36743
v -19.81287 -28 41.70374
v -19.81287 -30 41.70374
v -15.74169 -28 43.55456
v -18.25831 -28 40.44544
v -19.81287 -28 41.70374
v -19.81287 -30 41.70374
v -18.25831 -26 40.44544
v -15.7417 -26 43.55456
v -15.14918 -26 37.92882
v -12.63257 -26 41.03795
f 1272 1273 1274
f 1273 1275 1274
f 1276 1277 1278
f 1277 1279 1278
f 1280 1281 1282
f 1281 1283 1282
f 1284 1285 1286
f 1284 1286 1287
f 1288 1289 1290
f 1288 1290 1291
f 1292 1293 1294
f 1292 1294 1295
f 1296 1292 1295
f 1296 1295 1297
f 1298 1299 1300
f 1299 1301 1300
f 1302 1303 1298
f 1303 1299 1298
f 1275 1273 1304
f 1273 1305 1304
f 1306 1292 1307
f 1292 1308 1307
f 1309 1310 1311
f 1310 1312 1311
f 1298 1300 1313
f 1300 1314 1313
f 1315 1316 1312
f 1316 1317 1312
f 1274 1275 1318
f 1275 1304 1318
f 1319 1320 1321
f 1320 1322 1321
v -38 -30 -6.000002
v -34 -30 -5.999996
v -38 -30 -2
v -34 -30 -2.000003
v -38 -16 -2
v -38 -30 -2
v -34 -16 -2.000002
v -34 -30 -2.000003
v -38 -13 -1.999999
v -34 -13 -2.000001
v -34 -30 -2.000003
v -34 -30 -5.999996
v -34 -16 -5.999997
v -34 -16 -2.000002
v -15 -15 -2
v -15 -15 -5.999995
v -15 -14 -5.999995
v -15 -14 -1.999999
v -34 -16 -5.999997
v -34 -30 -5.999996
v -38 -30 -6.000002
v -38 -16 -6.000003
v -34 -13 -5.999997
v -38 -13 -6.000003
v -38 -16 -6.000003
v -38 -30 -2
v -38 -16 -2
v -38 -30 -6.000002
v -38 -13 -6.000003
v -38 -13 -1.999999
v -34 -16 -2.000002
v -34 -16 -5.999997
v -15 -15 -2
v -15 -15 -5.999995
v -34 -16 -5.999997
v -15 -15 -5.999995
v -15 -14 -5.999995
v -15 -14 -1.999999
v -15 -15 -2
v -38 -13 -1.999999
v -34 -13 -2.000001
v -38 -13 -6.000003
v -34 -13 -5.999997
v -34 -13 -5.999997
v -34 -13 -2.000001
v -15 -14 -5.999995
v -15 -14 -1.999999
f 1323 1324 1325
f 1324 1326 1325
f 1327 1328 1329
f 1328 1330 1329
f 1331 1327 1332
f 1327 1329 1332
f 1333 1334 1335
f 1336 1333 1335
f 1337 1338 1339
f 1337 1339 1340
f 1341 1342 1343
f 1341 1343 1344
f 1345 1341 1344
f 1345 1344 1346
f 1347 1348 1349
f 1347 1350 1348
f 1351 1349 1352
f 1351 1347 1349
f 1353 1354 1355
f 1354 1356 1355
f 1357 1345 1358
f 1345 1359 1358
f 1332 1329 1360
f 1329 1361 1360
f 1362 1363 1364
f 1363 1365 1364
f 1366 1367 1368
f 1367 1369 1368
v -16 -32 8
v -10 -32 8
v -16 -30 8
v -10 -30 8
v -10 -32 2
v -10 -32 -10
v -10 -27 2
v -10 -25 -10
v -10 -32 -18
v -16 -32 -16
v -10 -25 -18
v -16 -25 -16
v -16 -32 -10
v -16 -32 2
v -16 -25 -10
v -16 -27 2
v -16 -32 -10
v -10 -32 -10
v -16 -32 2
v -10 -32 2
v -10 -25 -10
v -10 -32 -10
v -4 -23 -10
v -4 -28 -10
v -10 -32 -18
v -10 -25 -18
v -4 -26 -18
v -4 -23 -18
v -16 -32 8
v -10 -32 8
v -21 -30 2
v -21 -32 2
v -21 -30 8
v -21 -32 8
v -10 -32 8
v -10 -30 8
v -16 -26 -4
v -16 -32 -2
v -22 -30 -2
v -21 -32 -2
v -21 -32 2
v -21 -32 8
v -21 -32 8
v -21 -30 8
v -16 -27 2
v -16 -32 2
v -16 -26 -4
v -16 -32 -2
v -16 -32 -2
v -21 -32 -2
v -21 -30 2
v -21 -32 -2
v -22 -30 -2
v 6 -28 -10
v 6 -23 -10
v 10 -25 -10
v 10 -23 -10
v 6 -24 -21.5
v -4 -26 -21.5
v -4 -23 -21.5
v 6 -25 -21.5
v 12.5 -23 -16.5
v 10.5 -25 -19
v 10.5 -23 -19
v 12.5 -25 -16.5
v -10 -32 -12
v -16 -32 -12
v -10 -32 -18
v -16 -32 -16
v 10 -25 -10
v 10 -25 -12
v 10 -23 -12
v 10 -23 -10
v 10 -25 -12
v 9 -25 -15
v 9 -23 -15
v 10 -23 -12
v -16 -25 -12
v -16 -32 -12
v -16 -25 -16
v -16 -32 -16
v -10 -32 -10
v -4 -28 -12
v -4 -28 -10
v -10 -32 -12
v -10 -32 -12
v -4 -26 -18
v -4 -28 -12
v -10 -32 -18
v -4 -28 -12
v 6 -25 -18
v 6 -28 -12
v -4 -26 -18
v -4 -28 -10
v 6 -28 -12
v 6 -28 -10
v -4 -28 -12
v 6 -28 -12
v 9 -25 -15
v 10 -25 -12
v 6 -25 -18
v 6 -28 -10
v 10 -25 -12
v 10 -25 -10
v 6 -28 -12
v -4 -26 -18
v -4 -23 -18
v -4 -26 -21.5
v -4 -23 -21.5
v 10.5 -23 -19
v 10.5 -25 -19
v 10.5 -24 -21.5
v 10.5 -25 -21.5
v 6 -25 -18
v -4 -26 -18
v 6 -25 -21.5
v -4 -26 -21.5
v 9 -23 -15
v 9 -25 -15
v 12.5 -23 -16.5
v 12.5 -25 -16.5
v 9 -25 -15
v 6 -25 -18
v 12.5 -25 -16.5
v 10.5 -25 -19
v 6 -25 -21.5
v 10.5 -25 -21.5
v 6 -25 -23.5
v 6 -24 -23.5
v 10.5 -25 -23.5
v 10.5 -24 -23.5
v 6 -24 -21.5
v 6 -23 -18
v 6 -16 -21.5
v 6 -16 -18
v 10.5 -24 -21.5
v 10.5 -16 -21.5
v 6 -16 -21.5
v 6 -23 -18
v 10.5 -23 -19
v 6 -16 -18
v 10.5 -16 -19
v 10.5 -16 -19
v 10.5 -16 -21.5
v 6 -18.5 -18
v 4 -19 -16
v 4 -13 -16
v 6 -13 -18
v 10.5 -13 -19
v 6 -18.5 -18
v 6 -13 -18
v 10.5 -18.5 -19
v 4.816513 -14 -9
v 10.31651 -14 -7
v 10.31651 -13 -7
v 4.816513 -13 -9
v 11 -13 -16
v 10.5 -18.5 -19
v 10.5 -13 -19
v 11 -16 -16
v -4 -23 -16
v 6 -23 -16
v 6 -20.75 -16
v -4 -20.75 -16
v -4 -20.75 -18
v 6 -20.75 -18
v 6 -18.5 -18
v -4 -18.5 -18
v -4 -20.75 -21.5
v -4 -20.75 -18
v -4 -18.5 -21.5
v -4 -18.5 -18
v 6 -23 -18
v 6 -24 -21.5
v 6 -20.75 -21.5
v 6 -20.75 -18
v 6 -18.5 -21.5
v 6 -18.5 -18
v 6 -20.75 -26
v -4 -23 -26
v -4 -20.75 -26
v 6 -24 -26
v 6 -18.5 -21.5
v -4 -20.75 -21.5
v -4 -18.5 -21.5
v 6 -20.75 -21.5
v 6 -23 -18
v 9 -23 -15
v 9 -20.75 -15
v 6 -20.75 -18
v 6 -20.75 -18
v 9 -20.75 -15
v 4 -19 -16
v 6 -20.75 -18
v 10.5 -20.75 -19
v 6 -23 -18
v 10.5 -23 -19
v 9 -23 -15
v 12.5 -23 -16.5
v 12.5 -20.75 -16.5
v 9 -20.75 -15
v 9 -20.75 -15
v 12.5 -20.75 -16.5
v 11 -16 -16
v 4 -19 -16
v 12.5 -20.75 -16.5
v 10.5 -20.75 -19
v 10.5 -18.5 -19
v 11 -16 -16
v 12.5 -23 -16.5
v 10.5 -23 -19
v 12.5 -20.75 -16.5
v -4 -23 -18
v 6 -23 -18
v -4 -23 -16
v 6 -23 -16
v 6 -23 -16
v 6 -20.75 -16
v -4 -20.75 -16
v -4 -23 -16
v 6 -25 -21.5
v 6 -25 -23.5
v 6 -24 -23.5
v 10.5 -30 -21.5
v 6 -30 -21.5
v 10.5 -30 -23.5
v 6 -30 -23.5
v 10.5 -24 -23.5
v 10.5 -25 -23.5
v 6 -27 -21.5
v 10.5 -27 -21.5
v 10.5 -25 -21.5
v 6 -25 -21.5
v 6 -30 -21.5
v 10.5 -30 -21.5
v 10.5 -27 -21.5
v 10.5 -27 -23.5
v 12.5 -30 -21.5
v 12.5 -30 -25.5
v 12.5 -27 -25.5
v 12.5 -27 -21.5
v 6 -27 -21.5
v 6 -27 -23.5
v 4 -27 -25.5
v 4 -30 -21.5
v 4 -27 -21.5
v 4 -30 -25.5
v 6 -27 -23.5
v 10.5 -27 -23.5
v 12.5 -27 -25.5
v 4 -30 -25.5
v 4 -27 -25.5
v 12.5 -30 -25.5
v 4 -30 -25.5
v 4 -30 -21.5
v 12.5 -27 -21.5
v 12.5 -30 -21.5
v 12.5 -30 -25.5
v 4 -30 -21.5
v 4 -27 -21.5
v 12.5 -30 -21.5
v -4 -23 -26
v -4 -20.75 -26
v 6 -20.75 -26
v 6 -24 -26
v 6 -24 -21.5
v -4 -23 -21.5
v 6 -24 -26
v -4 -23 -26
v 4 -19 -16
v 11 -16 -16
v 5.5 -14 -14
v 11 -14 -12
v 16 -16 -16
v 16 -13 -16
v 16 -14 -12
v 16 -13 -12
v 4 -13 -16
v 4 -19 -16
v 5.5 -13 -14
v 5.5 -14 -14
v 11 -16 -16
v 11 -13 -16
v 16 -16 -16
v 16 -13 -16
v 11 -14 -12
v 11 -16 -16
v 16 -14 -12
v 16 -16 -16
v 11 -13 -12
v 11 -14 -12
v 16 -13 -12
v 16 -14 -12
v 5.5 -14 -14
v 11 -14 -12
v 4.816513 -14 -9
v 10.31651 -14 -7
v 11 -14 -12
v 11 -13 -12
v 10.31651 -14 -7
v 10.31651 -13 -7
v 5.5 -13 -14
v 5.5 -14 -14
v 4.816513 -13 -9
v 4.816513 -14 -9
v -16 -27 2
v -10 -27 2
v -16 -25 -10
v -10 -25 -10
v -10 -27 2
v -16 -27 2
v -10 -30 8
v -16 -30 8
v -16 -27 2
v -21 -30 8
v -21 -30 2
v -21 -30 2
v -16 -27 2
v -22 -30 -2
v -16 -26 -4
v -10 -25 -12
v -16 -25 -12
v -16 -25 -10
v -10 -25 -10
v -10 -25 -18
v -16 -25 -16
v -4 -23 -18
v -10 -25 -18
v -10 -25 -12
v -4 -23 -12
v -10 -25 -10
v -4 -23 -10
v 6 -23 -18
v -4 -23 -18
v -4 -23 -12
v 6 -23 -12
v -4 -23 -10
v 6 -23 -10
v 9 -23 -15
v 10 -23 -12
v 10 -23 -10
v -4 -18.5 -18
v 6 -18.5 -18
v -4 -18.5 -21.5
v 6 -18.5 -21.5
v 6 -16 -21.5
v 6 -16 -18
v 10.5 -16 -21.5
v 10.5 -16 -19
v 6 -13 -18
v 4 -13 -16
v 10.5 -13 -19
v 11 -13 -16
v 6 -20.75 -18
v -4 -20.75 -18
v 6 -20.75 -16
v -4 -20.75 -16
v 6 -24 -21.5
v 10.5 -24 -21.5
v 6 -24 -23.5
v 10.5 -24 -23.5
v 6 -27 -23.5
v 10.5 -27 -23.5
v 4 -27 -25.5
v 12.5 -27 -25.5
v 6 -27 -21.5
v 4 -27 -21.5
v 10.5 -27 -21.5
v 12.5 -27 -21.5
v -4 -20.75 -21.5
v 6 -20.75 -21.5
v -4 -20.75 -26
v 6 -20.75 -26
v 11 -13 -12
v 5.5 -13 -14
v 16 -13 -16
v 16 -13 -12
v 10.31651 -13 -7
v 4.816513 -13 -9
f 1370 1371 1372
f 1371 1373 1372
f 1374 1375 1376
f 1375 1377 1376
f 1378 1379 1380
f 1379 1381 1380
f 1382 1383 1384
f 1383 1385 1384
f 1386 1387 1388
f 1387 1389 1388
f 1390 1391 1392
f 1391 1393 1392
f 1394 1395 1396
f 1395 1397 1396
f 1388 1389 1398
f 1389 1399 1398
f 1400 1401 1402
f 1401 1403 1402
f 1374 1376 1404
f 1376 1405 1404
f 1406 1407 1408
f 1407 1409 1408
f 1388 1398 1410
f 1398 1411 1410
f 1370 1372 1412
f 1372 1413 1412
f 1414 1415 1416
f 1415 1417 1416
f 1388 1410 1418
f 1410 1419 1418
f 1401 1420 1421
f 1420 1422 1421
f 1393 1423 1424
f 1392 1393 1424
f 1423 1425 1426
f 1424 1423 1426
f 1427 1428 1429
f 1427 1430 1428
f 1431 1432 1433
f 1431 1434 1432
f 1386 1435 1387
f 1386 1436 1435
f 1436 1437 1435
f 1436 1438 1437
f 1439 1440 1441
f 1442 1439 1441
f 1443 1444 1445
f 1446 1443 1445
f 1447 1382 1384
f 1447 1448 1382
f 1449 1448 1447
f 1449 1450 1448
f 1451 1452 1453
f 1451 1454 1452
f 1455 1456 1457
f 1455 1458 1456
f 1459 1460 1461
f 1459 1462 1460
f 1463 1464 1465
f 1463 1466 1464
f 1467 1468 1469
f 1467 1470 1468
f 1471 1472 1473
f 1471 1474 1472
f 1475 1476 1477
f 1476 1478 1477
f 1479 1480 1481
f 1480 1482 1481
f 1483 1484 1485
f 1484 1486 1485
f 1487 1488 1489
f 1488 1490 1489
f 1491 1492 1493
f 1492 1494 1493
f 1492 1495 1494
f 1495 1496 1494
f 1497 1498 1499
f 1498 1500 1499
f 1501 1502 1503
f 1502 1504 1503
f 1505 1427 1506
f 1427 1507 1506
f 1508 1509 1510
f 1509 1511 1510
f 1479 1481 1512
f 1481 1513 1512
f 1514 1515 1516
f 1517 1514 1516
f 1518 1519 1520
f 1518 1521 1519
f 1522 1523 1524
f 1525 1522 1524
f 1526 1527 1528
f 1526 1529 1527
f 1530 1531 1532
f 1533 1530 1532
f 1534 1535 1536
f 1537 1534 1536
f 1538 1476 1539
f 1538 1478 1476
f 1540 1539 1541
f 1540 1538 1539
f 1542 1543 1544
f 1545 1542 1544
f 1545 1544 1546
f 1547 1545 1546
f 1548 1549 1550
f 1548 1551 1549
f 1552 1553 1554
f 1552 1555 1553
f 1556 1557 1558
f 1559 1556 1558
f 1560 1561 1562
f 1514 1560 1562
f 1521 1563 1519
f 1521 1564 1563
f 1564 1565 1563
f 1564 1566 1565
f 1567 1568 1569
f 1570 1567 1569
f 1571 1572 1573
f 1574 1571 1573
f 1575 1576 1577
f 1578 1575 1577
f 1579 1580 1576
f 1581 1579 1576
f 1582 1583 1584
f 1583 1585 1584
f 1542 1545 1586
f 1545 1587 1586
f 1539 1476 1588
f 1476 1589 1588
f 1590 1501 1591
f 1501 1592 1591
f 1593 1594 1595
f 1594 1596 1595
f 1481 1482 1597
f 1482 1598 1597
f 1599 1600 1601
f 1602 1599 1601
f 1603 1604 1600
f 1599 1603 1600
f 1605 1606 1598
f 1482 1605 1598
f 1607 1608 1609
f 1610 1607 1609
f 1591 1611 1590
f 1591 1612 1611
f 1613 1614 1615
f 1613 1616 1614
f 1499 1617 1497
f 1499 1618 1617
f 1619 1620 1621
f 1619 1622 1620
f 1596 1594 1623
f 1594 1624 1623
f 1600 1604 1625
f 1604 1626 1625
f 1595 1596 1627
f 1596 1623 1627
f 1603 1599 1628
f 1599 1629 1628
f 1593 1595 1630
f 1595 1627 1630
f 1478 1538 1631
f 1538 1632 1631
f 1544 1543 1633
f 1543 1634 1633
f 1635 1636 1637
f 1636 1638 1637
f 1639 1640 1641
f 1640 1642 1641
f 1643 1644 1645
f 1644 1646 1645
f 1647 1648 1649
f 1648 1650 1649
f 1651 1652 1653
f 1652 1654 1653
f 1655 1656 1657
f 1656 1658 1657
f 1659 1660 1661
f 1660 1662 1661
f 1663 1664 1665
f 1664 1666 1665
f 1667 1668 1669
f 1668 1670 1669
f 1671 1672 1673
f 1672 1674 1673
f 1675 1676 1677
f 1676 1678 1677
f 1679 1680 1681
f 1680 1682 1681
f 1682 1683 1684
f 1683 1685 1684
f 1686 1687 1688
f 1687 1689 1688
f 1690 1691 1692
f 1693 1690 1692
f 1694 1695 1691
f 1690 1694 1691
f 1696 1697 1698
f 1699 1696 1698
f 1699 1698 1700
f 1701 1699 1700
f 1702 1703 1704
f 1705 1702 1704
f 1705 1704 1706
f 1707 1705 1706
f 1708 1702 1705
f 1709 1708 1705
f 1709 1705 1707
f 1710 1709 1707
f 1711 1712 1713
f 1712 1714 1713
f 1715 1716 1717
f 1716 1718 1717
f 1719 1720 1721
f 1720 1722 1721
f 1723 1724 1725
f 1724 1726 1725
f 1727 1728 1729
f 1728 1730 1729
f 1731 1732 1733
f 1732 1734 1733
f 1735 1731 1736
f 1731 1733 1736
f 1732 1737 1734
f 1737 1738 1734
f 1739 1740 1741
f 1740 1742 1741
f 1722 1720 1743
f 1720 1744 1743
f 1722 1743 1745
f 1743 1746 1745
f 1743 1744 1747
f 1744 1748 1747
v -4 -23 -10
v 0 -23 -10
v -4 -17 -10
v 0 -17 -10
v 0 -23 -10
v 0 -23 -12
v 0 -17 -10
v 0 -17 -14
v 0 -23 -12
v -4 -23 -12
v 0 -17 -14
v -4 -17 -14
v -4 -23 -12
v -4 -23 -10
v -4 -17 -14
v -4 -17 -10
v -4 -23 -12
v 0 -23 -12
v -4 -23 -10
v 0 -23 -10
v -4 -17 -10
v 0 -17 -10
v -4 -17 -14
v 0 -17 -14
f 1749 1750 1751
f 1750 1752 1751
f 1753 1754 1755
f 1754 1756 1755
f 1757 1758 1759
f 1758 1760 1759
f 1761 1762 1763
f 1762 1764 1763
f 1765 1766 1767
f 1766 1768 1767
f 1769 1770 1771
f 1770 1772 1771
v -20.49404 -30 19.60582
v -24.39418 -30 20.49405
v -20.49404 -17 19.60582
v -24.39418 -17 20.49405
v -24.39418 -30 20.49405
v -23.50596 -30 24.39418
v -24.39418 -17 20.49405
v -23.50596 -17 24.39418
v -23.50596 -30 24.39418
v -19.60582 -30 23.50596
v -23.50596 -17 24.39418
v -19.60582 -17 23.50596
v -19.60582 -30 23.50596
v -20.49404 -30 19.60582
v -19.60582 -17 23.50596
v -20.49404 -17 19.60582
v -19.60582 -30 23.50596
v -23.50596 -30 24.39418
v -20.49404 -30 19.60582
v -24.39418 -30 20.49405
v -20.49404 -17 19.60582
v -24.39418 -17 20.49405
v -19.60582 -17 23.50596
v -23.50596 -17 24.39418
f 1773 1774 1775
f 1774 1776 1775
f 1777 1778 1779
f 1778 1780 1779
f 1781 1782 1783
f 1782 1784 1783
f 1785 1786 1787
f 1786 1788 1787
f 1789 1790 1791
f 1790 1792 1791
f 1793 1794 1795
f 1794 1796 1795
v -2 -17 -10
v 0 -17 -10
v -2 -14 -10
v 0 -14 -10
v 0 -17 -10
v 0 -17 -11
v 0 -14 -10
v 0 -14 -11
v 0 -17 -11
v -2 -17 -11
v 0 -14 -11
v -2 -14 -11
v -2 -17 -11
v -2 -17 -10
v -2 -14 -11
v -2 -14 -10
v -2 -17 -11
v 0 -17 -11
v -2 -17 -10
v 0 -17 -10
v -2 -14 -10
v 0 -14 -10
v -2 -14 -11
v 0 -14 -11
f 1797 1798 1799
f 1798 1800 1799
f 1801 1802 1803
f 1802 1804 1803
f 1805 1806 1807
f 1806 1808 1807
f 1809 1810 1811
f 1810 1812 1811
f 1813 1814 1815
f 1814 1816 1815
f 1817 1818 1819
f 1818 1820 1819
v 4 -16 9
v 8 -17 9
v 4 -12 9
v 8 -13 9
v 8 -17 9
v 8 -17 -4
v 8 -13 9
v 8 -13 -4
v 8 -17 -4
v 4 -16 -4
v 8 -13 -4
v 4 -12 -4
v 4 -16 -4
v 4 -16 9
v 4 -12 -4
v 4 -12 9
v 4 -12 9
v 8 -13 9
v 4 -12 -4
v 8 -13 -4
v 4 -16 -4
v 8 -17 -4
v 4 -16 9
v 8 -17 9
f 1821 1822 1823
f 1822 1824 1823
f 1825 1826 1827
f 1826 1828 1827
f 1829 1830 1831
f 1830 1832 1831
f 1833 1834 1835
f 1834 1836 1835
f 1837 1838 1839
f 1838 1840 1839
f 1841 1842 1843
f 1842 1844 1843
v 10 -10 -6
v 10 -10 -1.999999
v 10 -7 -6
v 10 -7 -1.999999
v 10 -10 -1.999999
v 11 -10 -1.999999
v 10 -7 -1.999999
v 11 -7 -1.999999
v 11.5 -10 -4
v 12 -10 -6.000003
v 11.5 -7 -2.999998
v 12 -7 -6.000003
v 11.5 -10 -6.000001
v 10 -10 -6
v 11.5 -7 -6.000001
v 10 -7 -6
v 11.5 -10 -6.000001
v 11 -10 -1.999999
v 10 -10 -6
v 10 -10 -1.999999
v 11.5 -10 -4
v 12 -10 -6.000003
v 11 -7 -1.999999
v 11 -10 -1.999999
v 11.5 -7 -2.999998
v 11.5 -10 -4
v 12 -10 -6.000003
v 12 -7 -6.000003
v 10 -7 -6
v 10 -7 -1.999999
v 11.5 -7 -6.000001
v 11 -7 -1.999999
v 12 -7 -6.000003
v 11.5 -7 -2.999998
f 1845 1846 1847
f 1846 1848 1847
f 1849 1850 1851
f 1850 1852 1851
f 1853 1854 1855
f 1854 1856 1855
f 1857 1858 1859
f 1858 1860 1859
f 1861 1862 1863
f 1862 1864 1863
f 1862 1861 1865
f 1861 1866 1865
f 1867 1868 1869
f 1868 1870 1869
f 1857 1859 1871
f 1859 1872 1871
f 1873 1874 1875
f 1874 1876 1875
f 1875 1876 1877
f 1876 1878 1877
v 16 -24 18
v 14 -24 18
v 16 -21 18
v 14 -21 18
v 14 -24 18
v 14 -24 19
v 14 -21 18
v 14 -21 19
v 14 -24 19
v 16 -24 19
v 14 -21 19
v 16 -21 19
v 16 -24 19
v 16 -24 18
v 16 -21 19
v 16 -21 18
v 16 -24 19
v 14 -24 19
v 16 -24 18
v 14 -24 18
v 16 -21 18
v 14 -21 18
v 16 -21 19
v 14 -21 19
f 1879 1880 1881
f 1880 1882 1881
f 1883 1884 1885
f 1884 1886 1885
f 1887 1888 1889
f 1888 1890 1889
f 1891 1892 1893
f 1892 1894 1893
f 1895 1896 1897
f 1896 1898 1897
f 1899 1900 1901
f 1900 1902 1901
v -50 30 50
v 50 30 50
v 50 -30 50
v -50 -30 50
v 50 30 50
v 50 30 -50
v 50 -30 -50
v 50 -30 50
v 50 30 -50
v -50 30 -50
v -50 -30 -50
v 50 -30 -50
v -50 30 -50
v -50 30 50
v -50 -30 50
v -50 -30 -50
v -50 30 -50
v 50 30 -50
v 50 30 50
v -50 30 50
v -50 -30 50
v 50 -30 50
v 50 -30 -50
v -50 -30 -50
f 1903 1904 1905
f 1903 1905 1906
f 1907 1908 1909
f 1907 1909 1910
f 1911 1912 1913
f 1911 1913 1914
f 1915 1916 1917
f 1915 1917 1918
f 1919 1920 1921
f 1919 1921 1922
f 1923 1924 1925
f 1923 1925 1926
v -29.4275 -30 22.76418
v -32.57249 -30 25.23583
v -29.4275 -23 22.76417
v -32.57249 -23 25.23582
v -32.57249 -30 25.23583
v -30.10086 -30 28.38082
v -32.57249 -23 25.23582
v -30.10085 -23 28.38082
v -30.10086 -30 28.38082
v -26.95586 -30 25.90917
v -30.10085 -23 28.38082
v -26.95585 -23 25.90917
v -26.95586 -30 25.90917
v -29.4275 -30 22.76418
v -26.95585 -23 25.90917
v -29.4275 -23 22.76417
v -26.95586 -30 25.90917
v -30.10086 -30 28.38082
v -29.4275 -30 22.76418
v -32.57249 -30 25.23583
v -29.4275 -23 22.76417
v -32.57249 -23 25.23582
v -26.95585 -23 25.90917
v -30.10085 -23 28.38082
f 1927 1928 1929
f 1928 1930 1929
f 1931 1932 1933
f 1932 1934 1933
f 1935 1936 1937
f 1936 1938 1937
f 1939 1940 1941
f 1940 1942 1941
f 1943 1944 1945
f 1944 1946 1945
f 1947 1948 1949
f 1948 1950 1949
v 28 -26.5 3.499997
v 24 -26.5 3.500006
v 28 -23.5 3.499997
v 24 -23.5 3.500003
v 24 -26.5 3.500006
v 24 -26.5 7.5
v 24 -23.5 3.500003
v 24 -23.5 7.5
v 24 -26.5 7.5
v 28 -26.5 7.5
v 24 -23.5 7.5
v 28 -23.5 7.5
v 28 -26.5 7.5
v 28 -26.5 3.499997
v 28 -23.5 7.5
v 28 -23.5 3.499997
v 28 -26.5 7.5
v 24 -26.5 7.5
v 28 -26.5 3.499997
v 24 -26.5 3.500006
v 28 -23.5 3.499997
v 24 -23.5 3.500003
v 28 -23.5 7.5
v 24 -23.5 7.5
f 1951 1952 1953
f 1952 1954 1953
f 1955 1956 1957
f 1956 1958 1957
f 1959 1960 1961
f 1960 1962 1961
f 1963 1964 1965
f 1964 1966 1965
f 1967 1968 1969
f 1968 1970 1969
f 1971 1972 1973
f 1972 1974 1973
v -3.500001 -27 16.50001
v -3.5 -27 22
v -3.5 -24 16.5
v -3.499996 -24 22
v 0.5000044 -27 22
v 0.5 -27 16.5
v 0.5000044 -24 22
v 0.5 -24 16.5
v 0.5 -24 16.5
v 0.5 -27 16.5
v -1.5 -24 16.5
v -1.5 -27 16.5
v -3.5 -24 16.5
v -3.500001 -27 16.50001
v -3.499996 -24 22
v -3.5 -27 22
v -1.499998 -27 22
v -1.499996 -24 22
v 0.5000044 -27 22
v 0.5000044 -24 22
v 0.5 -27 16.5
v 0.5000044 -27 22
v -1.5 -27 16.5
v -1.499998 -27 22
v -3.500001 -27 16.50001
v -3.5 -27 22
v -1.499996 -24 22
v 0.5000044 -24 22
v -1.499996 -21.5 22
v 0.5000044 -21.5 22
v 0.5000044 -21.5 22
v 0.5 -21.5 16.5
v -1.5 -24 16.5
v -1.499996 -24 22
v -1.5 -21.5 16.5
v -1.499996 -21.5 22
v -1.499996 -21.5 22
v 0.5000044 -21.5 22
v 0.5 -21.5 16.5
v -1.5 -21.5 16.5
v -3.499996 -24 22
v -1.499996 -24 22
v -1.5 -24 16.5
v -3.5 -24 16.5
v 0.5 -24 16.5
v -1.5 -24 16.5
v 0.5 -21.5 16.5
v -1.5 -21.5 16.5
f 1975 1976 1977
f 1976 1978 1977
f 1979 1980 1981
f 1980 1982 1981
f 1983 1984 1985
f 1984 1986 1985
f 1985 1986 1987
f 1986 1988 1987
f 1989 1990 1991
f 1989 1991 1992
f 1992 1991 1993
f 1992 1993 1994
f 1995 1996 1997
f 1997 1996 1998
f 1997 1998 1999
f 1999 1998 2000
f 2001 2002 2003
f 2002 2004 2003
f 1981 1982 2005
f 1982 2006 2005
f 2007 2008 2009
f 2008 2010 2009
f 2011 2012 2013
f 2011 2013 2014
f 2015 2016 2017
f 2015 2017 2018
f 2019 2020 2021
f 2020 2022 2021
v -48.55049 15.93245 -7.544178
v -48.56634 15.93245 11.59203
v -50.46572 15.93245 -7.545764
v -50.48158 15.93245 11.59044
v -50.46573 4.667546 -7.545764
v -50.48158 4.667546 11.59044
v -48.5505 4.667545 -7.544178
v -48.56635 4.667545 11.59203
v -50.46572 15.93245 -7.545764
v -50.48158 15.93245 11.59044
v -50.46573 4.667546 -7.545764
v -50.48158 4.667546 11.59044
v -48.5505 4.667545 -7.544178
v -48.55049 15.93245 -7.544178
v -48.56634 15.93245 11.59203
v -48.56635 4.667545 11.59203
v -48.56634 15.93245 11.59203
v -50.48158 15.93245 11.59044
v -50.48158 4.667546 11.59044
v -48.56635 4.667545 11.59203
v -48.5505 4.667545 -7.544178
v -50.46573 4.667546 -7.545764
v -50.46572 15.93245 -7.545764
v -48.55049 15.93245 -7.544178
f 2023 2025 2026
f 2023 2026 2024
f 2031 2027 2028
f 2031 2028 2032
f 2033 2029 2030
f 2033 2030 2034
f 2035 2036 2037
f 2035 2037 2038
f 2039 2040 2041
f 2039 2041 2042
f 2043 2044 2045
f 2043 2045 2046
v -4.578107 -29.17002 -11.07
v -3.534154 -29.17002 -10.46721
v -4.781983 -29.17002 -10.71691
v -3.73803 -29.17002 -10.11412
v -4.781983 -30 -10.71691
v -3.73803 -30 -10.11412
v -4.578107 -30 -11.07
v -3.534154 -30 -10.46721
v -4.781983 -29.17002 -10.71691
v -3.73803 -29.17002 -10.11412
v -4.781983 -30 -10.71691
v -3.73803 -30 -10.11412
v -4.578107 -30 -11.07
v -4.578107 -29.17002 -11.07
v -3.534154 -29.17002 -10.46721
v -3.534154 -30 -10.46721
v -3.534154 -29.17002 -10.46721
v -3.73803 -29.17002 -10.11412
v -3.73803 -30 -10.11412
v -3.534154 -30 -10.46721
v -4.578107 -30 -11.07
v -4.781983 -30 -10.71691
v -4.781983 -29.17002 -10.71691
v -4.578107 -29.17002 -11.07
f 2047 2049 2050
f 2047 2050 2048
f 2055 2051 2052
f 2055 2052 2056
f 2057 2053 2054
f 2057 2054 2058
f 2059 2060 2061
f 2059 2061 2062
f 2063 2064 2065
f 2063 2065 2066
f 2067 2068 2069
f 2067 2069 2070
