v 1.227047 -10.42091 2.990101
v 1.926643 -10.17029 2.359318
v 1.185281 -10.17029 2.912642
v 1.988468 -10.42091 2.421807
v 3.27012 -10.17029 2.109959
v 3.368291 -10.42091 2.165702
v -3.672437 -10.42091 2.053366
v -3.419286 -10.42091 3.404717
v -3.338661 -10.17029 3.316337
v -3.585144 -10.17029 2.000583
v -4.110631 -10.42091 0.9558604
v -4.011795 -10.17029 0.9319879
v -4.485151 -10.42091 0.05494065
v -4.376449 -10.17029 0.0547996
v -2.460883 -10.42091 -3.291748
v -3.180574 -10.42091 -2.676666
v -3.106237 -10.17029 -2.604852
v -2.405504 -10.17029 -3.203732
v -1.644214 -10.42091 -3.625761
v -1.610347 -10.17029 -3.528946
v -0.4484152 -10.42091 -3.855418
v -0.4460477 -10.17029 -3.752553
v -3.180574 -10.42091 -2.676666
v -3.30735 -10.42091 -1.718816
v -3.229673 -10.17029 -1.672233
v -3.106237 -10.17029 -2.604852
v -3.30735 -10.42091 -1.718816
v -4.110631 -10.42091 -0.8459796
v -4.011795 -10.17029 -0.8223885
v -3.229673 -10.17029 -1.672233
v -4.110631 -10.42091 -0.8459796
v -4.485151 -10.42091 0.05494065
v -4.376449 -10.17029 0.0547996
v -4.011795 -10.17029 -0.8223885
v 3.368291 -10.42091 2.165702
v 3.860453 -10.42091 0.9839445
v 3.749317 -10.17029 0.9593319
v 3.27012 -10.17029 2.109959
v 3.860453 -10.42091 0.9839445
v 3.662088 -10.17029 -0.04090411
v 3.749317 -10.17029 0.9593319
v 3.770864 -10.42091 -0.04335228
v 3.366503 -10.17029 -1.1095
v 3.467282 -10.42091 -1.140858
v 2.996681 -10.17029 -2.082392
v 3.087454 -10.42091 -2.140071
v 2.254771 -10.17029 -3.069711
v 2.325473 -10.42091 -3.154101
v 1.431375 -10.17029 -3.559202
v 1.4798 -10.42091 -3.656836
v 1.431375 -10.17029 -3.559202
v 2.996681 -10.17029 -2.082392
v 2.254771 -10.17029 -3.069711
v 1.63719 -10.17029 -1.798348
v 0.4995 -10.17029 -3.091442
v 3.366503 -10.17029 -1.1095
v 0.5971128 -10.17029 -2.187314
v -0.4460477 -10.17029 -3.752553
v 2.02023 -10.17029 -0.8223888
v 3.662088 -10.17029 -0.04090411
v -0.2956562 -10.17029 -2.364647
v -1.610347 -10.17029 -3.528946
v 2.215876 -10.17029 0.0547996
v 3.749317 -10.17029 0.9593319
v 0.7600025 -10.17029 -0.9469189
v -1.195163 -10.17029 -2.184927
v -2.405504 -10.17029 -3.203732
v 2.02023 -10.17029 0.9319875
v 3.27012 -10.17029 2.109959
v 0.8594896 -10.17029 0.0547996
v -0.2956562 -10.17029 -1.066541
v -2.305679 -10.17029 -1.776388
v -3.106237 -10.17029 -2.604852
v -3.229673 -10.17029 -1.672233
v 1.637191 -10.17029 1.950494
v 1.926643 -10.17029 2.359318
v 1.185281 -10.17029 2.912642
v -1.428491 -10.17029 -0.932618
v -2.854358 -10.17029 -0.8223888
v -4.011795 -10.17029 -0.8223885
v 0.7600025 -10.17029 1.110162
v 0.5971128 -10.17029 2.507015
v 0.8002833 -10.17029 3.897693
v -0.2959942 -10.17029 0.05510039
v -3.134607 -10.17029 0.0547996
v -4.376449 -10.17029 0.0547996
v -1.571001 -10.17029 0.0547996
v -0.2956562 -10.17029 1.281313
v -0.2956562 -10.17029 2.760737
v -0.2546403 -10.17029 3.998873
v -1.428491 -10.17029 1.0897
v -2.854358 -10.17029 0.9319879
v -4.011795 -10.17029 0.9319879
v -1.195163 -10.17029 2.5036
v -1.241204 -10.17029 3.774645
v -2.305679 -10.17029 1.919074
v -3.585144 -10.17029 2.000583
v -2.132064 -10.17029 3.404833
v -3.338661 -10.17029 3.316337
v 3.467282 -10.42091 -1.140858
v 2.765505 -11.33283 -1.93483
v 3.087454 -10.42091 -2.140071
v 3.109829 -11.33283 -1.029017
v 3.770864 -10.42091 -0.04335228
v 3.385034 -11.33283 -0.03409851
v 3.860453 -10.42091 0.9839445
v 3.46625 -11.33283 0.897173
v 3.368291 -10.42091 2.165702
v 3.020092 -11.33283 1.968467
v -3.672437 -10.42091 2.053366
v -3.133026 -11.33283 3.091669
v -3.419286 -10.42091 3.404717
v -3.362515 -11.33283 1.866633
v -4.110631 -10.42091 0.9558604
v -3.75975 -11.33283 0.8717147
v -4.485151 -10.42091 0.05494065
v -4.099262 -11.33283 0.05500672
v -0.2518293 -10.42091 4.105718
v 0.7205449 -11.33283 3.63294
v 0.8316349 -10.42091 4.001801
v -0.261644 -11.33283 3.727144
v -1.265084 -10.42091 3.875424
v -1.180186 -11.33283 3.518376
v -2.180045 -10.42091 3.495608
v -2.009623 -11.33283 3.174063
v -3.419286 -10.42091 3.404717
v -3.133026 -11.33283 3.091669
v 3.087454 -10.42091 -2.140071
v 2.765505 -11.33283 -1.93483
v 2.074748 -11.33283 -2.854076
v 2.325473 -10.42091 -3.154101
v 1.308125 -11.33283 -3.309818
v 1.4798 -10.42091 -3.656836
v 1.4798 -10.42091 -3.656836
v 1.308125 -11.33283 -3.309818
v 0.4405002 -11.33283 -2.874308
v 0.5227139 -10.42091 -3.176421
v 0.4995 -10.17029 -3.091442
v 1.431375 -10.17029 -3.559202
v 0.8316349 -10.42091 4.001801
v 0.7205449 -11.33283 3.63294
v 1.078997 -11.33283 2.715808
v 1.227047 -10.42091 2.990101
v 1.185281 -10.17029 2.912642
v 0.8002833 -10.17029 3.897693
v -3.180574 -10.42091 -2.676666
v -2.916629 -11.33283 -2.421267
v -3.031554 -11.33283 -1.55295
v -3.30735 -10.42091 -1.718816
v 0.5227139 -10.42091 -3.176421
v 0.4405002 -11.33283 -2.874308
v -0.4398543 -11.33283 -3.489837
v -0.4484152 -10.42091 -3.855418
v 1.227047 -10.42091 2.990101
v 1.078997 -11.33283 2.715808
v 1.769245 -11.33283 2.200634
v 1.988468 -10.42091 2.421807
v -0.4484152 -10.42091 -3.855418
v -0.4398543 -11.33283 -3.489837
v -1.523878 -11.33283 -3.281646
v -1.644214 -10.42091 -3.625761
v -2.264209 -11.33283 -2.978856
v -2.460883 -10.42091 -3.291748
v -2.916629 -11.33283 -2.421267
v -3.180574 -10.42091 -2.676666
v -3.30735 -10.42091 -1.718816
v -3.031554 -11.33283 -1.55295
v -3.75975 -11.33283 -0.7617012
v -4.110631 -10.42091 -0.8459796
v -4.099262 -11.33283 0.05500672
v -4.485151 -10.42091 0.05494065
v 0.5227139 -10.42091 -3.176421
v -0.4484152 -10.42091 -3.855418
v -0.4460477 -10.17029 -3.752553
v 0.4995 -10.17029 -3.091442
v 1.988468 -10.42091 2.421807
v 1.769245 -11.33283 2.200634
v 3.020092 -11.33283 1.968467
v 3.368291 -10.42091 2.165702
v -3.419286 -10.42091 3.404717
v -2.132064 -10.17029 3.404833
v -3.338661 -10.17029 3.316337
v -2.180045 -10.42091 3.495608
v -1.241204 -10.17029 3.774645
v -1.265084 -10.42091 3.875424
v -0.2546403 -10.17029 3.998873
v -0.2518293 -10.42091 4.105718
v 0.8002833 -10.17029 3.897693
v 0.8316349 -10.42091 4.001801
v 0.7205449 -11.33283 3.63294
v 0.2962589 -12.13085 2.224011
v 0.5137607 -12.13085 1.667513
v 1.078997 -11.33283 2.715808
v -0.261644 -11.33283 3.727144
v 0.2962589 -12.13085 2.224011
v 0.7205449 -11.33283 3.63294
v -0.2997135 -12.13085 2.281172
v -1.180186 -11.33283 3.518376
v -0.8570663 -12.13085 2.154496
v -2.009623 -11.33283 3.174063
v -1.360352 -12.13085 1.945573
v -3.133026 -11.33283 3.091669
v -2.04201 -12.13085 1.895578
v -0.7148328 -12.29122 0.7241819
v -0.5358137 -12.29122 0.7984959
v -0.3375629 -12.29122 0.8435547
v -0.1255752 -12.29122 0.8232225
v -0.0482097 -12.29122 0.6252759
v 0.5137607 -12.13085 1.667513
v -0.3760265 -12.29122 -0.7141007
v -0.1860178 -12.29122 -0.58125
v 0.001243323 -12.29122 -0.6752469
v 0.1007678 -12.29122 0.514085
v -0.6099935 -12.29122 -0.6691665
v 0.9325892 -12.13085 1.354916
v 1.078997 -11.33283 2.715808
v 1.769245 -11.33283 2.200634
v 1.691578 -12.13085 1.214042
v 3.020092 -11.33283 1.968467
v 0.3707406 -12.29122 0.4639759
v 0.1667052 -12.29122 -0.5768832
v -0.4078479 -12.13085 -2.097947
v 0.1263335 -12.13085 -1.724457
v 0.4405002 -11.33283 -2.874308
v 0.6527907 -12.13085 -1.988715
v -0.4398543 -11.33283 -3.489837
v -1.065611 -12.13085 -1.971621
v -1.523878 -11.33283 -3.281646
v 1.117962 -12.13085 -1.71218
v -0.7697806 -12.29122 -0.6038146
v -1.51483 -12.13085 -1.787894
v -2.264209 -11.33283 -2.978856
v 2.074748 -11.33283 -2.854076
v 1.308125 -11.33283 -3.309818
v 2.765505 -11.33283 -1.93483
v 1.537099 -12.13085 -1.1544
v 3.109829 -11.33283 -1.029017
v -0.9105935 -12.29122 -0.4834692
v -1.910705 -12.13085 -1.449561
v -2.916629 -11.33283 -2.421267
v 0.3157926 -12.29122 -0.3784805
v 1.746029 -12.13085 -0.6047711
v 3.385034 -11.33283 -0.03409851
v -0.9353982 -12.29122 -0.2960586
v -1.980439 -12.13085 -0.9226834
v -3.031554 -11.33283 -1.55295
v 0.390109 -12.29122 -0.182977
v 1.913017 -12.13085 -0.001074729
v 3.46625 -11.33283 0.897173
v -2.422294 -12.13085 -0.4425695
v -3.75975 -11.33283 -0.7617012
v 0.467036 -12.29122 0.2327564
v 1.962297 -12.13085 0.5640022
v 3.020092 -11.33283 1.968467
v 0.4495068 -12.29122 0.03175818
v -1.092566 -12.29122 -0.1252818
v -2.628303 -12.13085 0.05299253
v -4.099262 -11.33283 0.05500672
v -1.165844 -12.29122 0.05098994
v -2.422294 -12.13085 0.5485545
v -3.75975 -11.33283 0.8717147
v -1.092566 -12.29122 0.2272616
v -1.00683 -12.29122 0.4419968
v -2.18126 -12.13085 1.152251
v -3.362515 -11.33283 1.866633
v -0.957299 -12.29122 0.7063986
v -3.133026 -11.33283 3.091669
v 1.308125 -11.33283 -3.309818
v 0.6527907 -12.13085 -1.988715
v 0.1263335 -12.13085 -1.724457
v 0.4405002 -11.33283 -2.874308
f 1 2 3
f 1 4 2
f 4 5 2
f 4 6 5
f 7 8 9
f 7 9 10
f 11 7 10
f 11 10 12
f 13 11 12
f 13 12 14
f 15 16 17
f 15 17 18
f 19 15 18
f 19 18 20
f 21 19 20
f 21 20 22
f 23 24 25
f 23 25 26
f 27 28 29
f 27 29 30
f 31 32 33
f 31 33 34
f 35 36 37
f 35 37 38
f 39 40 41
f 39 42 40
f 42 43 40
f 42 44 43
f 44 45 43
f 44 46 45
f 46 47 45
f 46 48 47
f 48 49 47
f 48 50 49
f 51 52 53
f 51 54 52
f 55 54 51
f 54 56 52
f 55 57 54
f 58 57 55
f 54 59 56
f 57 59 54
f 59 60 56
f 58 61 57
f 62 61 58
f 59 63 60
f 63 64 60
f 57 65 59
f 61 65 57
f 65 63 59
f 62 66 61
f 67 66 62
f 63 68 64
f 68 69 64
f 65 70 63
f 70 68 63
f 61 71 65
f 66 71 61
f 71 70 65
f 67 72 66
f 73 72 67
f 73 74 72
f 68 75 69
f 75 76 69
f 75 77 76
f 66 78 71
f 72 78 66
f 74 79 72
f 72 79 78
f 74 80 79
f 70 81 68
f 81 75 68
f 82 77 75
f 81 82 75
f 82 83 77
f 71 84 70
f 78 84 71
f 84 81 70
f 80 85 79
f 80 86 85
f 79 87 78
f 78 87 84
f 79 85 87
f 84 88 81
f 88 82 81
f 87 88 84
f 89 83 82
f 88 89 82
f 89 90 83
f 87 91 88
f 85 91 87
f 91 89 88
f 86 92 85
f 85 92 91
f 86 93 92
f 94 90 89
f 91 94 89
f 92 94 91
f 94 95 90
f 93 96 92
f 92 96 94
f 96 95 94
f 93 97 96
f 96 98 95
f 97 98 96
f 97 99 98
f 100 101 102
f 100 103 101
f 104 103 100
f 104 105 103
f 106 105 104
f 106 107 105
f 108 107 106
f 108 109 107
f 110 111 112
f 110 113 111
f 114 113 110
f 114 115 113
f 116 115 114
f 116 117 115
f 118 119 120
f 118 121 119
f 122 121 118
f 122 123 121
f 124 123 122
f 124 125 123
f 126 125 124
f 126 127 125
f 128 129 130
f 128 130 131
f 131 130 132
f 131 132 133
f 134 135 136
f 134 136 137
f 134 137 138
f 134 138 139
f 140 141 142
f 140 142 143
f 140 143 144
f 140 144 145
f 146 147 148
f 146 148 149
f 150 151 152
f 150 152 153
f 154 155 156
f 154 156 157
f 158 159 160
f 158 160 161
f 161 160 162
f 161 162 163
f 163 162 164
f 163 164 165
f 166 167 168
f 166 168 169
f 169 168 170
f 169 170 171
f 172 173 174
f 172 174 175
f 176 177 178
f 176 178 179
f 180 181 182
f 180 183 181
f 183 184 181
f 183 185 184
f 185 186 184
f 185 187 186
f 187 188 186
f 187 189 188
f 190 191 192
f 190 192 193
f 194 195 196
f 194 197 195
f 198 197 194
f 198 199 197
f 200 199 198
f 200 201 199
f 202 201 200
f 202 203 201
f 203 204 201
f 201 205 199
f 201 204 205
f 199 206 197
f 199 205 206
f 197 207 195
f 197 206 207
f 195 207 208
f 195 208 209
f 210 206 205
f 211 207 206
f 210 211 206
f 212 208 207
f 211 212 207
f 209 208 213
f 212 213 208
f 214 205 204
f 214 210 205
f 209 213 215
f 216 209 215
f 216 215 217
f 217 215 218
f 217 218 219
f 215 213 220
f 215 220 218
f 212 221 213
f 221 220 213
f 222 210 214
f 223 210 222
f 223 211 210
f 224 223 222
f 225 211 223
f 225 212 211
f 224 222 226
f 226 222 227
f 222 214 227
f 226 227 228
f 229 212 225
f 229 221 212
f 227 214 230
f 230 214 204
f 228 227 231
f 227 230 231
f 228 231 232
f 233 229 225
f 233 225 234
f 235 229 233
f 235 236 229
f 236 221 229
f 237 236 235
f 231 230 238
f 238 230 204
f 232 231 239
f 231 238 239
f 232 239 240
f 236 241 221
f 221 241 220
f 237 242 236
f 242 241 236
f 243 242 237
f 244 238 204
f 239 238 244
f 240 239 245
f 239 244 245
f 240 245 246
f 241 247 220
f 242 247 241
f 243 248 242
f 248 247 242
f 249 248 243
f 246 245 250
f 246 250 251
f 247 252 220
f 218 220 252
f 249 253 248
f 218 252 253
f 254 253 249
f 254 218 253
f 247 255 252
f 248 255 247
f 253 252 255
f 253 255 248
f 245 256 250
f 245 244 256
f 251 250 257
f 251 257 258
f 250 256 259
f 250 259 257
f 258 257 260
f 258 260 261
f 257 259 262
f 262 259 256
f 257 262 260
f 256 263 262
f 256 244 263
f 260 262 263
f 261 260 264
f 260 263 264
f 261 264 265
f 244 266 263
f 264 263 266
f 244 204 266
f 203 266 204
f 264 266 203
f 265 264 203
f 265 203 267
f 268 269 270
f 268 270 271
v -1948.369 -77.40133 1771.752
v -1948.369 -60.26177 1893.269
v -1826.852 -75.06325 1893.269
v -1826.852 -80.13828 1771.752
v -1948.369 -83.41991 1650.236
v -1705.336 -59.07838 1893.269
v -1826.852 -62.21967 1650.236
v -1948.369 -60.74539 1528.719
v -1705.336 -69.46096 1771.752
v -1583.819 -87.47517 1893.269
v -1826.852 -50.95874 1528.719
v -1948.369 -89.70356 1407.202
v -1705.336 -51.09961 1650.236
v -1583.819 -71.13896 1771.752
v -1462.302 -55.07796 1893.269
v -1826.852 -58.79414 1407.202
v -1948.369 -61.50735 1285.685
v -1705.336 -72.21648 1528.719
v -1462.302 -76.34456 1771.752
v -1340.785 -78.23666 1893.269
v -1583.819 -73.58164 1650.236
v -1826.852 -79.58449 1285.685
v -1948.369 -76.1489 1164.168
v -1340.785 -75.5812 1771.752
v -1219.268 -64.13934 1893.269
v -1705.336 -79.68772 1407.202
v -1583.819 -57.22097 1528.719
v -1462.302 -86.60616 1650.236
v -1826.852 -58.1614 1164.168
v -1948.369 -54.56787 1042.651
v -1219.268 -68.7738 1771.752
v -1097.751 -65.40716 1893.269
v -1705.336 -65.38621 1285.685
v -1583.819 -68.11935 1407.202
v -1462.302 -84.07036 1528.719
v -1340.785 -52.29094 1650.236
v -1826.852 -59.59171 1042.651
v -1948.369 -52.27728 921.1346
v -1097.751 -66.78608 1771.752
v -976.2346 -78.45255 1893.269
v -1705.336 -54.26133 1164.168
v -1583.819 -84.35283 1285.685
v -1462.302 -66.75425 1407.202
v -1340.785 -70.05047 1528.719
v -1219.268 -70.86948 1650.236
v -976.2346 -74.51142 1771.752
v -854.7178 -56.64338 1893.269
v -1097.751 -78.37724 1650.236
v -1219.268 -80.44614 1528.719
v -1340.785 -59.60252 1407.202
v -1462.302 -68.20768 1285.685
v -854.7178 -68.44169 1771.752
v -733.201 -60.98253 1893.269
v -976.2346 -70.41896 1650.236
v -1097.751 -73.17123 1528.719
v -1219.268 -73.48473 1407.202
v -733.201 -62.04167 1771.752
v -611.6841 -77.75574 1893.269
v -854.7178 -59.17182 1650.236
v -976.2346 -51.21351 1528.719
v -611.6841 -55.18723 1771.752
v -490.1673 -64.34277 1893.269
v -733.201 -72.56621 1650.236
v -490.1673 -63.82813 1771.752
v -368.6505 -61.57047 1893.269
v -1340.785 -67.80141 1285.685
v -1097.751 -72.72722 1407.202
v -854.7181 -69.0093 1528.719
v -611.6855 -57.12584 1650.237
v -368.6505 -60.51782 1771.752
v -247.1337 -69.65464 1893.269
v -1219.268 -67.81792 1285.685
v -976.2378 -53.14001 1407.205
v -733.2039 -74.48739 1528.722
v -490.1717 -67.64294 1650.242
v -247.1337 -59.229 1771.752
v -125.6168 -51.03148 1893.269
v -1097.752 -53.09937 1285.686
v -854.7173 -79.00507 1407.201
v -611.7324 -52.72734 1528.801
v -368.6646 -55.48965 1650.272
v -125.6168 -73.48019 1771.752
v -4.100003 -48.13192 1893.269
v -976.2665 -57.29366 1285.714
v -733.2203 -74.0084 1407.227
v -490.1554 -82.65869 1528.69
v -247.1414 -59.10389 1650.287
v -4.100003 -76.52726 1771.752
v 117.4168 -62.74456 1893.269
v -854.7739 -69.09287 1285.741
v -611.7216 -72.71534 1407.265
v -368.762 -41.31711 1529.118
v -125.6168 -56.32625 1650.303
v 117.4168 -69.30182 1771.752
v 238.9337 -62.92793 1893.269
v -732.8318 -109.1328 1285.245
v -490.2794 -63.41293 1407.461
v -247.2242 -28.50544 1529.393
v -4.107294 -96.97504 1650.187
v 238.9337 -81.03606 1771.752
v 360.4505 -79.26221 1893.269
v -612.5533 -17.55918 1286.985
v -368.8197 -52.20506 1407.791
v -125.6168 -84.84444 1528.615
v 117.4275 -61.03139 1650.263
v 360.4505 -63.23524 1771.752
v 481.9673 -50.3579 1893.269
v -490.5471 -48.24651 1286.442
v -247.1869 -62.15409 1407.572
v -4.112954 -84.98799 1528.622
v 238.939 -65.19427 1650.243
v 481.9673 -66.47082 1771.752
v 603.4842 -69.81273 1893.269
v -368.6479 -72.23759 1285.677
v -125.6182 -52.51937 1407.867
v 117.4132 -79.45901 1528.705
v 360.4509 -71.41608 1650.236
v 603.4842 -42.91999 1771.752
v 725.001 -63.24997 1893.269
v -247.3279 -41.82147 1286.818
v -4.096567 -74.01498 1407.236
v 238.9728 -61.19481 1528.854
v 481.9673 -63.72104 1650.236
v 725.001 -76.99133 1771.752
v 846.5178 -52.89908 1893.269
v -125.6836 -37.83592 1287.065
v 117.5613 -42.08073 1408.21
v 360.4554 -73.28592 1528.749
v 603.4842 -84.63135 1650.236
v 846.5178 -79.00492 1771.752
v 968.0346 -78.8231 1893.269
v -4.09994 -71.29046 1285.661
v 238.9699 -67.3493 1407.484
v 481.9677 -64.86642 1528.785
v 725.001 -80.11181 1650.236
v 968.0346 -71.5613 1771.752
v 1089.551 -72.23306 1893.269
v 117.4213 -63.95342 1286.065
v 360.5286 -46.83815 1408.083
v 603.4852 -46.04491 1528.873
v 846.5178 -67.39468 1650.236
v 1089.551 -78.78455 1771.752
v 1211.068 -78.24304 1893.269
v 238.917 -79.1373 1285.209
v 481.9759 -71.35828 1407.366
v 725.0087 -66.48989 1528.767
v 968.0346 -51.03621 1650.236
v 1211.068 -71.16203 1771.752
v 1332.585 -87.53115 1893.269
v 360.5132 -55.47577 1286.659
v 603.4844 -77.21817 1407.205
v 846.5323 -63.27004 1528.756
v 1089.551 -55.81789 1650.236
v 1332.585 -70.49777 1771.752
v 1454.102 -50.36654 1893.269
v 481.9654 -72.4569 1285.664
v 725.0217 -70.61446 1407.349
v 968.0303 -85.55168 1528.713
v 1211.068 -90.38517 1650.236
v 1454.102 -47.65372 1771.752
v 1575.619 -47.13106 1893.269
v 603.6002 -53.38139 1286.688
v 846.5533 -70.35604 1407.329
v 1089.553 -64.64225 1528.72
v 1332.585 -41.87667 1650.235
v 1575.619 -51.52751 1771.752
v 1697.136 -47.51913 1893.269
v 725.1207 -57.99627 1286.377
v 968.0738 -69.60557 1407.297
v 1211.068 -59.84578 1528.719
v 1454.102 -55.25745 1650.236
v 1697.136 -73.09722 1771.752
v 1818.652 -67.85176 1893.269
v 846.5613 -70.50558 1285.836
v 1089.611 -57.91821 1407.303
v 1332.585 -67.83875 1528.719
v 1575.619 -89.71861 1650.236
v 1818.652 -63.11909 1771.752
v 1940.169 -85.77798 1893.269
v 1940.169 -89.07173 1771.752
v 1697.136 -57.87205 1650.236
v 1818.652 -51.57481 1650.236
v 1940.169 -76.97687 1650.236
v 1454.102 -49.71714 1528.719
v 1211.064 -82.76685 1407.197
v 1575.619 -63.45891 1528.719
v 1818.652 -60.03432 1528.719
v 1940.169 -79.11632 1528.719
v 1697.136 -52.53994 1528.719
v 1332.586 -60.84198 1407.203
v 1818.652 -73.15469 1407.202
v 1940.169 -65.13276 1407.202
v 1454.102 -68.45124 1407.202
v 1697.136 -73.46194 1407.202
v 1575.619 -61.4445 1407.202
v 1818.652 -56.11481 1285.685
v 1940.169 -65.16879 1285.685
v 1697.136 -65.33195 1285.685
v 1575.619 -70.85116 1285.685
v 1454.105 -62.11783 1285.688
v 1332.613 -64.82204 1285.717
v 1818.652 -79.63884 1164.168
v 1940.169 -69.25341 1164.168
v 1697.136 -50.62216 1164.168
v 1575.62 -59.28826 1164.169
v 1454.097 -80.78911 1164.164
v 1818.652 -63.26731 1042.651
v 1940.169 -62.57738 1042.651
v 1697.136 -65.2197 1042.651
v 1575.654 -49.54102 1042.682
v 1818.652 -61.76966 921.1346
v 1940.169 -45.36942 921.1346
v 1697.135 -82.73692 921.134
v 1818.652 -71.06033 799.6178
v 1940.169 -42.56951 799.6177
v 1332.566 -80.43626 1164.149
v 1454.418 -42.09533 1042.893
v 1575.653 -71.62231 921.1546
v 1697.154 -57.63482 799.6306
v 1818.652 -88.06971 678.101
v 1940.169 -49.30771 678.1009
v 1332.996 -57.55747 1042.996
v 1453.796 -93.81618 920.9533
v 1575.851 -56.87475 799.7133
v 1697.196 -53.9699 678.1242
v 1818.652 -66.08448 556.5841
v 1940.169 -78.591 556.5841
v 1333.162 -57.35942 921.5204
v 1453.694 -89.74249 799.4418
v 1575.877 -62.52463 678.1727
v 1697.213 -59.5167 556.5964
v 1818.652 -65.89513 435.0673
v 1940.169 -71.46373 435.0673
v 1333.044 -61.08749 799.8479
v 1455.532 -37.21745 678.5112
v 1576.678 -27.26479 556.7284
v 1697.133 -79.07059 435.0673
v 1818.652 -67.26993 313.5504
v 1940.169 -67.90512 313.5504
v 1333.487 -51.89351 678.4025
v 1453.99 -75.83961 556.5681
v 1576.149 -53.94624 435.0673
v 1697.194 -63.99654 313.5411
v 1818.652 -84.20722 192.0336
v 1940.169 -70.83247 192.0336
v 1333.887 -44.9146 556.8021
v 1453.816 -79.13641 435.0673
v 1575.281 -93.55503 313.5964
v 1697.178 -61.31111 192.0173
v 1818.652 -66.98796 70.51681
v 1940.169 -66.91807 70.51681
v 1333.329 -53.95942 435.0673
v 1454.713 -59.38845 313.4629
v 1575.836 -65.0593 191.9752
v 1697.162 -56.27471 70.50999
v 1818.653 -73.96884 -50.99959
v 1940.169 -62.49499 -51.00001
v 1333.322 -54.4099 313.4318
v 1455.706 -34.3353 191.6638
v 1575.508 -86.54637 70.52594
v 1697.168 -69.11705 -50.97338
v 1818.693 -55.93216 -172.4822
v 1940.169 -70.8774 -172.5168
v 1333.132 -59.33239 191.9433
v 1454.733 -60.03441 70.51971
v 1575.511 -84.2245 -51.06116
v 1697.096 -81.73747 -172.5474
v 1818.739 -66.24549 -293.9835
v 1940.176 -61.39913 -294.0274
v 1337.682 6.369837 71.11125
v 1454.623 -63.91531 -50.76849
v 1575.741 -72.1772 -172.423
v 1697.739 -54.52527 -293.6766
v 1819.268 -37.97623 -415.295
v 1940.171 -77.74592 -415.549
v 1333.128 -60.11384 -50.77388
v 1453.543 -80.20399 -172.8966
v 1576.017 -64.29858 -293.7719
v 1698.652 -38.8694 -414.8956
v 1819.143 -57.07014 -536.931
v 1940.311 -58.3452 -537.0129
v 1334.156 -44.07159 -171.6007
v 1454.305 -61.90976 -293.8962
v 1577.122 -45.7253 -414.8157
v 1697.323 -69.23842 -537.0134
v 1819.143 -60.67428 -658.5175
v 1940.407 -57.93533 -658.5463
v 1328.851 -91.53689 -296.4225
v 1454.569 -53.03738 -415.3029
v 1576.228 -56.59621 -536.8708
v 1699.955 -25.8551 -658.179
v 1818.597 -78.58538 -780.101
v 1940.473 -55.81861 -780.101
v 1336.197 -12.56372 -413.5222
v 1454.53 -48.68463 -536.9191
v 1576.554 -50.94653 -658.4365
v 1696.247 -84.16906 -780.101
v 1819.167 -59.89812 -901.6877
v 1940.461 -53.22629 -901.6642
v 1332.969 -35.38028 -536.922
v 1453.752 -52.59747 -658.6401
v 1573.052 -89.48797 -780.0842
v 1698.227 -53.56076 -901.7747
v 1818.784 -72.19209 -1023.171
v 1940.214 -72.13058 -1023.152
v 1335.37 -12.28089 -658.1288
v 1460.804 12.37821 -780.2803
v 1575.705 -60.61691 -901.6326
v 1697.785 -60.77721 -1023.321
v 1818.822 -67.2671 -1144.722
v 1940.207 -63.68085 -1144.677
v 1337.792 8.10312 -780.3918
v 1454.448 -46.66817 -901.6921
v 1574.262 -81.70328 -1022.68
v 1697.44 -67.65515 -1144.783
v 1818.634 -81.18746 -1266.158
v 1940.169 -79.78882 -1266.168
v 1331.182 -48.1162 -901.225
v 1458.756 -3.293947 -1025.031
v 1576.557 -53.52393 -1145.122
v 1697.494 -63.71168 -1266.38
v 1818.659 -74.73195 -1387.691
v 1940.169 -52.51662 -1387.685
v 1334.423 -23.64198 -1024.075
v 1451.261 -95.05407 -1142.936
v 1575.321 -78.23306 -1265.969
v 1697.385 -58.21597 -1387.876
v 1818.651 -92.53732 -1509.201
v 1940.169 -87.29979 -1509.202
v 1331.292 -63.98363 -1143.679
v 1455.504 -42.55759 -1267.291
v 1576.426 -49.40898 -1388.362
v 1697.203 -58.21477 -1509.262
v 1818.652 -88.5739 -1630.719
v 1940.169 -69.23344 -1630.719
v 1331.225 -77.03028 -1264.811
v 1454.628 -59.29127 -1388.211
v 1575.893 -57.47049 -1509.476
v 1697.139 -67.63912 -1630.722
v 1818.652 -74.72388 -1752.236
v 1940.169 -68.31679 -1752.236
v 1332.999 -56.7408 -1388.201
v 1453.58 -96.45563 -1508.579
v 1575.622 -77.42229 -1630.723
v 1697.136 -60.05047 -1752.236
v 1818.652 -51.35038 -1873.752
v 1940.169 -61.89261 -1873.752
v 1818.652 -76.67085 -1995.269
v 1940.169 -98.67306 -1995.269
v 1697.136 -75.8895 -1995.269
v 1697.136 -50.67841 -1873.752
v 1575.619 -76.28561 -1995.269
v 1575.619 -68.75041 -1873.752
v 1454.102 -68.39026 -1995.269
v 1575.622 -38.46233 -1752.239
v 1454.102 -64.29354 -1873.752
v 1332.585 -77.52473 -1995.269
v 1454.114 -70.91816 -1752.249
v 1332.591 -49.32756 -1873.758
v 1211.068 -72.78732 -1995.269
v 1454.3 -57.45356 -1630.978
v 1211.061 -87.48677 -1873.741
v 1089.551 -74.28153 -1995.269
v 1332.707 -48.72886 -1752.444
v 1332.559 -78.78131 -1630.674
v 1089.596 -45.27828 -1873.868
v 968.0346 -54.90966 -1995.269
v 1211.165 -63.13284 -1752.468
v 1333.468 -45.24485 -1510.522
v 968.0456 -66.62524 -1873.821
v 846.5178 -60.36697 -1995.269
v 1089.874 -28.90101 -1753.394
v 1210.909 -83.65046 -1630.35
v 1210.548 -83.85133 -1508.164
v 846.5178 -88.68098 -1873.685
v 725.001 -59.85112 -1995.269
v 968.0927 -62.80953 -1752.663
v 1089.774 -58.50341 -1631.492
v 1213.282 -12.70744 -1391.334
v 724.9907 -67.39522 -1873.817
v 603.4842 -94.54952 -1995.269
v 846.5178 -68.52643 -1752.503
v 1089.254 -75.37405 -1508.328
v 968.3832 -32.55698 -1633.122
v 1212.169 -31.98986 -1267.602
v 603.4653 -64.55062 -1873.801
v 481.9673 -68.0037 -1995.269
v 724.9651 -68.26676 -1752.5
v 846.5101 -91.45633 -1629.344
v 1089.335 -58.93138 -1387.174
v 968.4514 -35.67422 -1511.49
v 1209.425 -57.3548 -1143.05
v 481.9565 -65.89113 -1873.768
v 360.4505 -69.65178 -1995.269
v 603.4233 -68.51973 -1752.454
v 724.7139 -36.68993 -1632.915
v 846.4794 -74.40845 -1507.901
v 1090.228 -29.1327 -1267.409
v 968.1436 -45.31548 -1388.132
v 360.4496 -73.49956 -1873.753
v 238.9337 -77.98562 -1995.269
v 481.9325 -72.90707 -1752.319
v 603.4011 -67.23748 -1631.029
v 724.9574 -57.38893 -1509.571
v 846.426 -58.53342 -1386.345
v 968.7747 -16.03443 -1268.43
v 238.9337 -65.48934 -1873.752
v 117.4168 -73.48396 -1995.269
v 360.4371 -75.30679 -1752.259
v 481.6637 -58.19057 -1631.471
v 602.9626 -41.88045 -1511.164
v 725.0583 -52.05162 -1387.127
v 117.4168 -70.32874 -1873.752
v -4.100003 -70.41348 -1995.269
v 238.9273 -74.41181 -1752.243
v 360.646 -89.13763 -1630.367
v 480.9301 -35.42991 -1511.721
v -4.100003 -43.60365 -1873.752
v -125.6168 -77.65605 -1995.269
v 117.4164 -74.2917 -1752.236
v 238.9492 -80.03825 -1630.697
v -125.6168 -68.14719 -1873.752
v -247.1337 -70.18665 -1995.269
v -4.100003 -71.65642 -1752.236
v -247.1337 -73.54735 -1873.752
v -368.6505 -80.16 -1995.269
v 601.6497 7.300019 -1394.432
v 360.2081 -64.50133 -1509.638
v 117.4108 -76.80076 -1630.726
v -125.6168 -72.82994 -1752.236
v -368.6505 -64.48206 -1873.752
v -490.1673 -64.1775 -1995.269
v 481.4602 -44.37031 -1388.843
v 239.1815 -84.31403 -1508.845
v -4.102532 -71.69622 -1630.721
v -247.1337 -58.54279 -1752.236
v -490.1673 -56.16589 -1873.752
v -611.6841 -71.36246 -1995.269
v 357.8822 -14.14672 -1391.972
v 117.5181 -84.59167 -1509.076
v -125.6168 -67.97469 -1630.719
v -368.6505 -77.75546 -1752.236
v -611.6841 -65.66727 -1873.752
v -733.201 -82.87282 -1995.269
v 238.4877 -59.8179 -1388.28
v -4.075328 -83.47054 -1509.173
v -247.1337 -67.54657 -1630.719
v -490.1673 -68.59766 -1752.236
v -733.201 -80.61826 -1873.752
v -854.7178 -74.38065 -1995.269
v 115.0553 -12.97886 -1390.394
v -125.6366 -52.67944 -1509.225
v -368.6505 -57.54467 -1630.719
v -611.6841 -63.96743 -1752.236
v -854.7178 -56.20165 -1873.752
v -976.2346 -57.14752 -1995.269
v -4.195638 -72.88464 -1387.79
v -247.134 -66.13956 -1509.202
v -490.1673 -67.18358 -1630.719
v -733.201 -63.94589 -1752.236
v -976.2346 -83.3644 -1873.752
v -1097.751 -61.57966 -1995.269
v -125.6726 -69.08988 -1387.751
v -368.6505 -69.7745 -1509.202
v -611.6841 -82.64622 -1630.719
v -854.7178 -62.04869 -1752.236
v -1097.751 -65.18934 -1873.752
v -1219.268 -77.75835 -1995.269
v -247.1514 -64.72691 -1387.705
v -490.1673 -73.16034 -1509.202
v -733.201 -46.50022 -1630.719
v -976.2346 -59.97101 -1752.236
v -1219.268 -72.64697 -1873.752
v -1340.785 -70.99168 -1995.269
v -368.6517 -68.70913 -1387.686
v -611.6841 -82.34724 -1509.202
v -854.7178 -54.83852 -1630.719
v -1097.751 -64.98723 -1752.236
v -1340.785 -63.99816 -1873.752
v -1462.302 -75.8643 -1995.269
v -490.1673 -83.29855 -1387.685
v -733.201 -71.46509 -1509.202
v -976.2346 -62.09101 -1630.719
v -1219.268 -58.34787 -1752.236
v -1462.302 -77.35569 -1873.752
v -1583.819 -60.91771 -1995.269
v -611.6841 -50.00381 -1387.685
v -854.7178 -67.23705 -1509.202
v -1097.751 -53.92006 -1630.719
v -1340.785 -95.39157 -1752.236
v -1583.819 -80.96084 -1873.752
v -1705.336 -59.00812 -1995.269
v -733.201 -70.63634 -1387.685
v -976.2346 -65.04022 -1509.202
v -1219.268 -79.06821 -1630.719
v -1462.302 -57.96262 -1752.236
v -1705.336 -70.91921 -1873.752
v -1826.852 -62.54773 -1995.269
v -854.7178 -78.98271 -1387.685
v -1097.751 -60.20359 -1509.202
v -1340.785 -60.06002 -1630.719
v -1583.819 -79.64924 -1752.236
v -1826.852 -80.56927 -1873.752
v -1948.369 -38.88544 -1995.269
v -1948.369 -68.15128 -1873.752
v -1705.336 -55.89112 -1752.236
v -1826.852 -72.58869 -1752.236
v -1948.369 -71.14374 -1752.236
v -1462.302 -71.86836 -1630.719
v -1219.268 -84.3723 -1509.202
v -1583.819 -55.98941 -1630.719
v -1826.852 -53.97036 -1630.719
v -1948.369 -81.40328 -1630.719
v -1705.336 -70.68849 -1630.719
v -1340.785 -71.39638 -1509.202
v -1826.852 -64.53503 -1509.202
v -1948.369 -85.15296 -1509.202
v -1462.302 -81.97608 -1509.202
v -1705.336 -80.07724 -1509.202
v -1583.819 -80.03154 -1509.202
v -1826.852 -49.5606 -1387.685
v -1948.369 -67.14458 -1387.685
v -1705.336 -58.48911 -1387.685
v -1583.819 -80.34367 -1387.685
v -1462.302 -48.87488 -1387.685
v -1340.785 -70.66061 -1387.685
v -1826.852 -60.58154 -1266.168
v -1948.369 -59.00346 -1266.168
v -1705.336 -74.01886 -1266.168
v -1583.819 -77.12714 -1266.168
v -1462.302 -60.49073 -1266.168
v -1826.852 -68.37089 -1144.651
v -1948.369 -63.73467 -1144.651
v -1705.336 -52.11421 -1144.651
v -1583.82 -66.78233 -1144.652
v -1826.852 -57.94686 -1023.135
v -1948.369 -50.5604 -1023.135
v -1705.335 -81.06032 -1023.134
v -1826.853 -71.45077 -901.6185
v -1948.369 -67.34792 -901.6178
v -1340.786 -74.03177 -1266.169
v -1462.319 -65.43226 -1144.671
v -1583.831 -73.73354 -1023.148
v -1705.381 -62.28578 -901.6586
v -1826.874 -64.37335 -780.1191
v -1948.369 -51.41643 -780.101
v -1340.844 -61.46365 -1144.753
v -1462.238 -86.50244 -1023.051
v -1583.915 -69.77262 -901.7137
v -1705.6 -53.28268 -780.3026
v -1826.907 -69.48879 -658.6156
v -1948.37 -76.77511 -658.5847
v -1340.527 -96.54013 -1022.698
v -1462.636 -60.94849 -902.0164
v -1584.274 -58.76134 -780.4819
v -1705.278 -79.87434 -658.5498
v -1827.013 -66.03594 -537.1339
v -1948.418 -56.13921 -537.1009
v -1341.314 -54.14557 -902.4094
v -1463.372 -44.01791 -781.1715
v -1584.695 -52.11253 -659.1697
v -1704.771 -91.21131 -536.8237
v -1827.993 -21.32766 -415.8681
v -1948.458 -63.62949 -415.5843
v -1342.152 -34.88244 -781.8078
v -1464.093 -33.30395 -660.0179
v -1583.752 -70.74293 -537.0336
v -1704.705 -87.16257 -415.3693
v -1826.894 -75.67152 -294.0394
v -1948.433 -72.11497 -294.0438
v -1342.116 -36.31197 -659.9151
v -1461.823 -69.05048 -536.7789
v -1585.31 -43.67706 -416.0491
v -1706.937 -41.97755 -294.2636
v -1826.844 -77.41089 -172.5168
v -1948.57 -60.8882 -172.5168
v -1339.962 -65.44535 -536.4495
v -1464.871 -23.55179 -416.5809
v -1584.857 -49.81556 -294.2072
v -1705.649 -66.04139 -172.5168
v -1827.963 -33.65226 -50.84935
v -1948.559 -59.19934 -50.96981
v -1343.318 -14.83097 -416.82
v -1465.742 -12.62308 -294.7239
v -1584.137 -59.12455 -172.5168
v -1705.586 -67.47482 -50.96407
v -1826.938 -73.65945 70.54046
v -1948.448 -65.40615 70.54661
v -1340.582 -46.31194 -293.9828
v -1460.705 -72.17536 -172.5168
v -1583.417 -69.7267 -51.06719
v -1706.008 -59.05532 70.71002
v -1827.247 -48.04469 192.1969
v -1948.354 -85.72445 192.023
v -1340.623 -44.44838 -172.5168
v -1465.307 -17.88978 -50.39691
v -1583.635 -69.13971 70.45531
v -1704.868 -88.50525 191.8318
v -1826.896 -71.32748 313.5755
v -1948.369 -78.47175 313.5505
v -1340.34 -49.21225 -51.1115
v -1463.438 -42.39577 70.97245
v -1583.707 -71.54543 191.9777
v -1706.036 -46.51115 313.9653
v -1826.856 -76.02589 435.0706
v -1948.369 -65.57288 435.0673
v -1340.973 -45.28481 70.60201
v -1463.569 -42.58693 192.7959
v -1585.34 -36.6594 314.5667
v -1705.389 -73.3707 435.1083
v -1826.852 -80.7266 556.5839
v -1948.369 -51.19572 556.5841
v -1340.646 -55.05514 191.9572
v -1464.604 -23.68304 315.3933
v -1585.052 -28.67092 436.0998
v -1705.418 -48.83087 556.6586
v -1826.852 -61.12651 678.1009
v -1948.369 -86.62395 678.101
v -1341.234 -54.10758 313.8859
v -1461.61 -90.4049 434.3756
v -1584.196 -44.54982 556.9618
v -1705.343 -50.41769 678.1078
v -1826.852 -72.36684 799.6178
v -1948.369 -63.03322 799.6178
v -1341.623 -51.644 435.9927
v -1462.746 -55.84501 557.1147
v -1583.84 -69.93858 678.125
v -1705.336 -82.06288 799.6178
v -1826.852 -63.57662 921.1346
v -1705.336 -74.47485 921.1346
v -1705.336 -74.86829 1042.651
v -1583.82 -61.01976 799.6194
v -1462.271 -82.36597 678.0605
v -1583.819 -84.97486 921.1346
v -1583.819 -62.66561 1164.168
v -1583.819 -76.86681 1042.651
v -1462.302 -65.62386 1164.168
v -1462.311 -71.76994 799.628
v -1462.302 -50.37766 921.1346
v -1462.302 -63.6115 1042.651
v -1340.785 -51.4161 1164.168
v -1340.785 -84.74476 1042.651
v -1219.268 -49.65746 1164.168
v -1340.787 -65.41865 921.1365
v -1340.834 -64.39438 799.7023
v -1219.27 -59.85991 1042.652
v -1097.774 -49.83723 1164.188
v -1219.284 -66.70943 921.152
v -1341.158 -49.63221 678.73
v -1097.829 -54.08025 1042.697
v -976.3864 -51.52494 1164.284
v -1219.357 -65.71181 799.7906
v -1341.493 -49.77605 557.6146
v -1097.892 -61.12235 921.2365
v -976.4551 -59.81439 1042.782
v -855.0584 -52.82205 1164.454
v -1219.414 -70.86866 678.3295
v -1220.354 -59.39688 557.6981
v -1098.276 -49.54997 800.3307
v -976.449 -66.18851 921.2759
v -855.0984 -58.65581 1042.906
v -733.5469 -58.20089 1164.514
v -1101.661 -24.72947 684.083
v -1223.162 -41.76587 437.4484
v -975.778 -87.57635 799.0463
v -855.1012 -60.83101 921.4001
v -733.501 -61.85495 1042.892
v -612.1808 -50.61518 1164.789
v -1097.711 -52.25258 556.539
v -1225.99 -23.09048 315.1453
v -978.8054 -41.88677 683.8553
v -854.772 -69.00404 799.7061
v -734.7435 -27.64224 922.3222
v -613.2218 -20.90668 1044.189
v -489.5685 -97.70367 1163.172
v -368.8097 -57.49761 1164.564
v -489.8395 -74.79931 1042.193
v -613.8834 -29.06364 923.1555
v -731.4268 -109.2833 797.0234
v -854.4407 -64.2009 676.0473
v -247.4055 -41.27992 1165.293
v -369.1352 -39.99818 1043.954
v -490.6679 -52.02837 921.8746
v -616.5001 -16.38078 803.3771
v -125.8239 -42.47242 1165.391
v -247.1344 -59.82261 1042.655
v -369.422 -25.07055 925.076
v -4.155967 -57.54986 1164.574
v -125.4035 -68.48418 1041.919
v 117.3711 -55.86792 1164.679
v -733.3293 -65.70199 675.9474
v -492.4416 -20.44519 801.9788
v -247.2361 -59.78771 920.0346
v -4.573078 -31.2812 1044.433
v 238.9754 -86.3924 1162.19
v -612.884 -35.21676 679.9771
v -368.5382 -22.35102 799.0035
v -125.8608 -20.12939 923.7696
v 116.8247 -11.44744 1046.149
v 360.3559 -82.81567 1162.46
v -484.5533 -51.10724 675.9778
v -246.5847 -18.65063 800.8322
v -4.131154 -43.89331 921.22
v 238.9212 -48.86257 1042.855
v 482.1442 -46.11081 1165.541
v -370.6685 62.92956 680.616
v -125.4411 -34.26488 800.1312
v 117.323 -37.31301 921.4991
v 360.571 -25.84294 1044.996
v 603.5032 -63.43302 1164.269
v -243.21 26.81124 679.4622
v -4.504606 -21.93039 800.6128
v 238.8236 -28.04541 922.1709
v 482.3298 -27.81028 1044.883
v 725.1467 -57.2913 1164.766
v -122.7609 17.40778 679.8821
v 116.4071 4.553459 802.1918
v 360.4482 -39.90083 921.0869
v 604.0579 -29.09163 1044.831
v -4.328351 -21.37412 678.4295
v 238.4139 9.629959 802.5538
v 482.1745 -29.34874 922.17
v 116.07 16.0899 679.9911
v 360.5559 6.855602 802.3977
v 237.9463 35.21012 681.0145
v 724.9424 -60.09434 1042.481
v 603.9974 -26.60095 922.6155
v 482.1855 -19.15658 800.4788
v 360.462 -3.03685 679.048
v 846.7618 -55.63757 1164.875
v 967.901 -86.43133 1285.376
v 1090.056 -32.29121 1286.536
v 968.1971 -64.02828 1164.492
v 845.9207 -81.97359 1041.291
v 725.7405 -27.90371 922.7004
v 603.8327 -23.74566 800.3661
v 1211.125 -69.89552 1285.76
v 1089.987 -55.22331 1164.819
v 1211.112 -74.3102 1164.22
v 967.8593 -69.99145 1042.36
v 847.0638 -38.88046 922.0698
v 1089.314 -75.74323 1042.355
v 1210.739 -83.772 1042.322
v 968.9086 -37.20316 922.2913
v 724.0843 -58.84877 798.2261
v 1211.136 -67.46896 921.1889
v 1090.437 -44.16702 922.0204
v 847.2907 -29.19152 800.5679
v 1210.484 -75.35439 799.2667
v 1091.802 -17.59289 801.3065
v 968.8168 -35.91016 800.3853
v 1211.118 -60.19676 678.1208
v 1090.285 -41.49001 678.4683
v 965.9231 -80.36113 676.7386
v 845.8509 -49.72301 677.5706
v 724.8857 -33.25207 677.9865
v 1213.793 -18.60901 557.1311
v 1091.964 -14.89922 557.1891
v 966.1046 -71.01859 555.9678
v 847.8541 -12.53566 557.1053
v 1209.713 -76.96785 435.0667
v 1090.683 -32.9248 435.0794
v 966.548 -61.92389 435.0101
v 1212.987 -31.27369 313.2512
v 1091.434 -24.53762 313.3387
v 1211.909 -49.4803 191.9867
v 725.8091 -11.7845 556.9839
v 848.665 -0.3275879 435.2642
v 968.4381 -35.35228 313.5364
v 1089.08 -56.69323 192.0038
v 1211.888 -50.32222 70.71151
v 723.4609 -48.58784 434.7523
v 847.0052 -26.60437 313.6341
v 969.5411 -22.82989 192.3363
v 1093.685 -3.311341 71.97079
v 1212.537 -40.579 -50.33673
v 725.5017 -17.17563 313.8169
v 849.9518 -1.017646 193.2806
v 967.9243 -38.52709 70.46949
v 1089.142 -46.89093 -51.21783
v 1209.878 -59.90052 -173.1919
v 726.6402 1.536911 193.1003
v 846.6188 -23.90253 70.54775
v 968.5509 -25.40142 -50.6958
v 1096.061 26.4243 -168.4373
v 1211.526 -36.51225 -293.7488
v 726.2286 7.468731 70.80864
v 849.1367 3.517974 -50.25378
v 972.533 27.5648 -169.1074
v 1094.446 18.65631 -290.7679
v 1213.616 -9.726959 -414.0275
v 728.8385 35.09796 -51.7699
v 845.4 -29.0384 -173.3131
v 966.1709 -35.29183 -295.571
v 1089.55 -17.55312 -415.5516
v 1213.161 -6.137634 -536.1516
v 727.0214 35.73818 -171.8837
v 847.3896 10.58271 -292.9545
v 970.4007 22.37771 -413.6229
v 1086.665 -35.21857 -538.5845
v 1216.267 22.7548 -657.6296
v 725.1293 6.863431 -293.5801
v 846.4304 1.732447 -415.6651
v 970.3264 30.56256 -535.4807
v 1090.65 6.577222 -658.3345
v 1213.55 2.146043 -780.3293
v 725.1302 25.36721 -414.4577
v 846.2061 4.13618 -537.4414
v 968.1788 10.809 -658.5385
v 1091.918 18.83158 -780.4445
v 1213.625 0.5621473 -902.5784
v 725.002 29.86014 -536.3083
v 847.3986 38.65402 -658.0646
v 970.3676 38.82638 -780.6943
v 1088.638 -16.05813 -901.1294
v 1210.778 -31.22187 -1022.94
v 1091.595 6.558289 -1025.053
v 1092.321 9.250752 -1148.43
v 966.8132 -12.54907 -900.5439
v 847.6278 47.59183 -780.8419
v 969.0641 -0.04992361 -1146.958
v 969.4534 16.05026 -1025.312
v 846.4999 10.29973 -901.578
v 846.6697 -21.03923 -1267.518
v 846.7697 -3.167558 -1146.169
v 846.9695 16.37917 -1024.925
v 724.8986 -23.46998 -1267.21
v 724.9035 -7.599122 -1145.575
v 601.8649 6.717741 -1271.493
v 724.8367 12.1366 -1024.426
v 481.0599 -25.74823 -1267.968
v 603.0464 -9.013649 -1145.844
v 724.9175 18.15156 -902.0784
v 358.8361 -26.93125 -1268.488
v 602.2676 19.73583 -1025.646
v 482.8601 -38.43226 -1143.207
v 725.0175 17.03902 -780.0604
v 236.7124 -28.59368 -1268.704
v 360.4444 -36.07204 -1144.658
v 482.1371 -14.44268 -1022.928
v 602.2222 30.48514 -903.309
v 724.8551 40.5793 -658.1752
v 116.6547 -55.45793 -1266.908
v 236.5899 -22.6888 -1146.817
v 357.6667 3.354531 -1025.575
v 604.3173 -1.023025 -779.6404
v 481.0625 8.610852 -902.3352
v 602.9149 26.11954 -658.4417
v -3.312411 -93.33331 -1265.451
v 115.1888 -33.2469 -1146.394
v 237.3849 -23.26432 -1024.212
v 358.253 5.473636 -902.883
v 482.8962 -5.391546 -779.7797
v 601.1522 62.81549 -534.9661
v -125.6065 -78.0107 -1266.158
v -5.246681 -51.05924 -1145.47
v 115.8513 -35.88725 -1024.064
v 238.184 -22.80073 -901.9654
v 359.8907 -3.430592 -780.2479
v 481.1583 15.20331 -658.5067
v -247.2635 -56.76949 -1266.298
v -126.43 -51.83971 -1145.261
v -5.395648 -46.58195 -1023.967
v 118.3556 -53.04313 -901.0972
v 237.4988 -11.9633 -780.4803
v 359.3779 2.353327 -658.5124
v 482.3061 -0.8576186 -537.2108
v -368.657 -73.40292 -1266.176
v -246.9759 -89.22273 -1144.491
v -126.0804 -60.56939 -1023.684
v -5.572874 -32.48107 -903.8359
v 116.7071 -29.65019 -780.6989
v 237.7022 -11.32416 -658.5565
v -490.1572 -64.16667 -1266.185
v -368.6786 -63.92242 -1144.799
v -247.3596 -62.57703 -1023.807
v -125.8118 -51.00696 -903.2962
v -4.003608 -34.05258 -781.3066
v -611.6659 -62.41385 -1266.216
v -490.0616 -55.48306 -1144.965
v -368.8556 -40.97256 -1024.822
v -247.3746 -45.78502 -904.6229
v -733.195 -70.7662 -1266.207
v -611.8316 -104.1279 -1144.121
v -490.1747 -76.42544 -1023.093
v -125.9232 -44.02932 -778.6043
v -368.7619 -62.89479 -902.2015
v -247.1443 -28.50007 -781.0964
v -854.7178 -56.76255 -1266.292
v -733.0746 -40.69944 -1145.583
v -611.4298 -53.96796 -1024.05
v -490.0436 -77.30901 -900.7425
v -367.3062 -56.75534 -775.6277
v -976.2346 -78.36574 -1387.685
v -1097.751 -60.15728 -1387.685
v -976.2388 -73.14159 -1266.195
v -854.7178 -40.92051 -1145.64
v -733.0733 -55.41981 -1024.024
v -611.5305 -50.31038 -902.8689
v -1219.268 -63.95861 -1387.685
v -1097.748 -81.86258 -1266.159
v -1219.28 -62.92085 -1266.185
v -976.3488 -44.23657 -1145.493
v -854.7178 -59.82214 -1023.791
v -1219.278 -76.61529 -1144.675
v -1097.746 -78.89322 -1144.631
v -1219.187 -80.72926 -1022.946
v -976.491 -38.51593 -1024.92
v -1097.737 -74.64518 -1023.084
v -732.7236 -23.86397 -904.5422
v -1219.717 -53.38277 -902.512
v -1098.41 -36.40478 -903.587
v -975.9837 -84.93375 -900.1163
v -854.7178 -61.5672 -901.7543
v -1218.807 -73.39816 -779.3347
v -1099.364 -4.454797 -784.1216
v -976.3421 -47.85953 -780.6364
v -854.7178 -83.92368 -777.5102
v -733.1155 -46.6907 -780.7698
v -1219.675 -45.31874 -659.126
v -1098.97 -16.14533 -661.0156
v -976.3318 -39.22357 -658.972
v -854.7178 -22.94455 -660.261
v -1220.793 -20.18192 -538.5925
v -1099.364 -3.594484 -539.4828
v -976.5098 -22.89166 -537.8905
v -1219.863 -29.80443 -415.9477
v -1098.641 -13.84252 -416.4404
v -1220.115 -22.58673 -294.3165
v -733.1592 -31.0326 -659.7503
v -854.7178 -4.48415 -539.2121
v -976.1474 -28.36748 -415.3763
v -1098.206 -17.52642 -294.2614
v -1221.156 -7.810481 -172.5168
v -733.1998 -24.39609 -537.7766
v -854.7191 19.63276 -418.1339
v -976.4333 -13.39877 -294.2323
v -1099.016 -3.238234 -172.5689
v -1219.587 -30.2825 -50.96153
v -733.0422 -10.85184 -416.2952
v -854.7233 -13.40477 -294.1745
v -976.8699 -2.310482 -172.7201
v -1101.334 5.815246 -52.57764
v -1223.075 -12.75211 70.26067
v -732.4156 14.7408 -295.1568
v -854.8129 0.947013 -172.9189
v -977.5878 -4.442369 -52.95255
v -1102.804 1.856551 67.44926
v -1223.833 -23.9548 191.8743
v -1104.285 25.9656 189.9208
v -981.5645 46.21379 62.79897
v -854.9028 4.187846 -53.93916
v -1110.349 43.50147 315.2069
v -983.7336 103.0489 186.41
v -855.072 64.3952 62.7073
v -1094.722 -12.79198 433.1566
v -994.144 145.3991 316.32
v -854.6204 117.6761 193.3297
v -980.6337 6.232471 564.9117
v -977.1108 68.05991 436.0121
v -854.6067 10.71501 554.9686
v -854.0912 131.7811 312.2379
v -855.2849 118.0729 442.7096
v -731.6827 8.459512 560.8204
v -723.983 102.1978 446.8633
v -614.0446 -53.17395 551.3902
v -728.5825 127.5728 314.2649
v -491.7794 6.529147 556.446
v -606.1138 26.37716 438.7953
v -719.2802 130.2799 179.6393
v -368.4906 -16.7364 557.4456
v -489.0619 -25.00363 435.3679
v -614.2236 33.23142 313.2962
v -731.3442 39.57449 67.22786
v -245.3568 5.177772 554.5467
v -608.4922 32.91475 190.7156
v -476.8111 27.74113 314.7306
v -368.8093 -47.10618 436.2888
v -731.7309 4.032642 -54.02936
v -125.2443 -19.52193 556.2021
v -607.9317 7.841391 67.57976
v -477.9459 26.21612 189.1231
v -247.015 -30.69663 434.76
v -368.0403 -23.49129 313.3571
v -732.1897 17.97293 -173.3819
v -4.672987 -10.68995 556.5408
v -125.6314 -23.27723 434.4654
v -246.339 -10.98094 312.2131
v -366.994 -16.45262 191.4873
v -608.5164 10.98476 -53.37114
v -483.7006 14.15716 68.20421
v -612.0906 -29.6017 -172.4271
v 116.859 -6.52321 556.6804
v -5.643673 7.348098 433.2962
v -125.6069 -27.42681 312.573
v -246.5082 -35.51812 191.4338
v -487.2256 1.163347 -51.51193
v -370.2177 -55.17564 70.91506
v 237.9874 21.88109 557.1855
v 117.9765 -34.10911 435.5419
v -4.588108 -25.6982 312.3925
v -125.3179 -39.61481 190.9552
v -249.27 -77.11787 71.7043
v -367.0641 -28.38341 -50.97203
v -489.7241 -21.7699 -172.2538
v -611.7143 -29.37952 -294.0277
v -613.7368 16.3479 -416.2347
v -491.3578 23.20419 -290.5295
v -369.1314 -45.17022 -173.0925
v -244.0434 -30.03209 -50.97467
v -126.2285 -76.28152 71.48904
v -613.7894 -4.277912 -538.9006
v -490.6894 -7.029212 -415.3314
v -368.7489 -36.5381 -297.1781
v -242.6222 -10.70192 -167.3222
v -613.2582 -18.18797 -661.4399
v -490.9768 -5.819129 -537.3651
v -370.6519 33.69455 -412.1533
v -612.5318 -16.67857 -784.6705
v -490.5274 -23.57313 -658.9943
v -493.5723 -5.812923 -787.8848
v -364.8803 -22.70767 -535.6862
v -369.3567 0.6282082 -659.8588
v -245.9255 -10.51984 -291.1369
v -246.7846 29.41294 -663.9652
v -245.9224 54.02357 -537.6597
v -247.1243 6.994278 -415.5266
v -125.4083 -6.479692 -658.8869
v -122.6639 22.55938 -536.8663
v -124.5012 -4.418639 -414.3618
v -127.3674 -53.73381 -296.7088
v -123.5828 -46.42403 -170.3064
v -2.945763 -13.25914 -659.7161
v -2.739168 -11.03108 -536.7198
v -4.387689 -37.4383 -415.8794
v 0.5369833 0.9841586 -284.4105
v 117.2689 -26.74634 -658.7894
v 117.1694 -72.10091 -538.8918
v 117.0343 -18.95766 -412.4607
v 243.8527 -70.43899 -539.1686
v -3.854072 -61.98922 -171.6488
v 119.7766 -99.99337 -297.9282
v 237.2656 -20.88535 -414.5578
v 361.2796 -16.70903 -537.3412
v 355.1771 24.54039 -413.1404
v 234.6833 -14.10765 -292.0441
v 118.7503 -82.07128 -173.0352
v 482.9147 -13.07109 -416.1268
v 360.0298 -20.79509 -293.8549
v 240.036 -57.12664 -172.7373
v 603.0684 15.71014 -414.9808
v 602.3943 28.86996 -292.4776
v 483.1551 -22.49191 -294.6945
v 601.4209 68.75669 -173.5576
v 480.5027 -1.749239 -172.5706
v 603.1895 26.525 -52.23211
v 356.7469 -5.843231 -171.9897
v 481.7526 -5.71575 -51.0783
v 603.5849 36.74536 70.90689
v 360.0822 -29.5295 -51.05859
v 604.5413 47.92471 196.2751
v 478.7456 22.08368 70.33987
v 237.7926 -42.92852 -51.18973
v 603.0378 -26.87882 312.8068
v 358.5356 -15.06027 70.05964
v 480.1242 14.49328 192.9389
v 115.859 -50.70514 -51.57545
v 603.3 -22.22584 434.991
v 234.9334 -12.6603 68.3202
v 359.9234 -17.40691 191.896
v 481.2489 14.43577 314.3266
v -3.851257 -99.18882 -50.13748
v 601.6501 -65.16502 555.212
v 115.6502 -37.46228 68.72459
v 240.5717 -50.68813 193.4503
v 482.0205 -8.455378 435.116
v 359.9218 -6.536487 313.2941
v -126.195 -78.7082 -50.8598
v -4.175684 -61.23403 70.18315
v 118.3917 -57.94708 193.3731
v -4.473103 -38.8678 190.6664
v 118.1217 -42.77748 314.4901
v 237.5273 -0.7130278 312.1291
v 238.8515 -15.36063 435.0117
v 360.6318 -24.77857 435.1517
v 360.4205 -8.239135 556.7507
v 482.1203 -7.742834 556.8279
v 482.2738 -6.246276 678.9678
v 603.8359 -16.1347 678.6093
f 272 273 274
f 272 274 275
f 276 272 275
f 275 274 277
f 276 275 278
f 279 276 278
f 275 277 280
f 278 275 280
f 280 277 281
f 279 278 282
f 283 279 282
f 278 280 284
f 282 278 284
f 280 281 285
f 284 280 285
f 285 281 286
f 283 282 287
f 288 283 287
f 282 284 289
f 287 282 289
f 285 286 290
f 290 286 291
f 284 285 292
f 289 284 292
f 292 285 290
f 288 287 293
f 294 288 293
f 290 291 295
f 295 291 296
f 287 289 297
f 293 287 297
f 289 292 298
f 297 289 298
f 292 290 299
f 299 290 295
f 298 292 299
f 294 293 300
f 301 294 300
f 295 296 302
f 302 296 303
f 293 297 304
f 300 293 304
f 297 298 305
f 304 297 305
f 298 299 306
f 305 298 306
f 299 295 307
f 307 295 302
f 306 299 307
f 301 300 308
f 309 301 308
f 302 303 310
f 310 303 311
f 300 304 312
f 308 300 312
f 304 305 313
f 312 304 313
f 305 306 314
f 313 305 314
f 306 307 315
f 314 306 315
f 307 302 316
f 316 302 310
f 315 307 316
f 310 311 317
f 317 311 318
f 316 310 319
f 319 310 317
f 315 316 320
f 320 316 319
f 314 315 321
f 321 315 320
f 313 314 322
f 322 314 321
f 317 318 323
f 323 318 324
f 319 317 325
f 325 317 323
f 320 319 326
f 326 319 325
f 321 320 327
f 327 320 326
f 323 324 328
f 328 324 329
f 325 323 330
f 330 323 328
f 326 325 331
f 331 325 330
f 328 329 332
f 332 329 333
f 330 328 334
f 334 328 332
f 332 333 335
f 335 333 336
f 337 321 327
f 322 321 337
f 327 326 338
f 338 326 331
f 331 330 339
f 339 330 334
f 334 332 340
f 340 332 335
f 335 336 341
f 341 336 342
f 337 327 343
f 343 327 338
f 338 331 344
f 344 331 339
f 339 334 345
f 345 334 340
f 340 335 346
f 346 335 341
f 341 342 347
f 347 342 348
f 343 338 349
f 349 338 344
f 344 339 350
f 350 339 345
f 345 340 351
f 351 340 346
f 346 341 352
f 352 341 347
f 347 348 353
f 353 348 354
f 349 344 355
f 355 344 350
f 350 345 356
f 356 345 351
f 351 346 357
f 357 346 352
f 352 347 358
f 358 347 353
f 353 354 359
f 359 354 360
f 355 350 361
f 361 350 356
f 356 351 362
f 362 351 357
f 357 352 363
f 363 352 358
f 358 353 364
f 364 353 359
f 359 360 365
f 365 360 366
f 361 356 367
f 367 356 362
f 362 357 368
f 368 357 363
f 363 358 369
f 369 358 364
f 364 359 370
f 370 359 365
f 365 366 371
f 371 366 372
f 367 362 373
f 373 362 368
f 368 363 374
f 374 363 369
f 369 364 375
f 375 364 370
f 370 365 376
f 376 365 371
f 371 372 377
f 377 372 378
f 373 368 379
f 379 368 374
f 374 369 380
f 380 369 375
f 375 370 381
f 381 370 376
f 376 371 382
f 382 371 377
f 377 378 383
f 383 378 384
f 379 374 385
f 385 374 380
f 380 375 386
f 386 375 381
f 381 376 387
f 387 376 382
f 382 377 388
f 388 377 383
f 383 384 389
f 389 384 390
f 385 380 391
f 391 380 386
f 386 381 392
f 392 381 387
f 387 382 393
f 393 382 388
f 388 383 394
f 394 383 389
f 389 390 395
f 395 390 396
f 391 386 397
f 397 386 392
f 392 387 398
f 398 387 393
f 393 388 399
f 399 388 394
f 394 389 400
f 400 389 395
f 395 396 401
f 401 396 402
f 397 392 403
f 403 392 398
f 398 393 404
f 404 393 399
f 399 394 405
f 405 394 400
f 400 395 406
f 406 395 401
f 401 402 407
f 407 402 408
f 403 398 409
f 409 398 404
f 404 399 410
f 410 399 405
f 405 400 411
f 411 400 406
f 406 401 412
f 412 401 407
f 407 408 413
f 413 408 414
f 409 404 415
f 415 404 410
f 410 405 416
f 416 405 411
f 411 406 417
f 417 406 412
f 412 407 418
f 418 407 413
f 413 414 419
f 419 414 420
f 415 410 421
f 421 410 416
f 416 411 422
f 422 411 417
f 417 412 423
f 423 412 418
f 418 413 424
f 424 413 419
f 419 420 425
f 425 420 426
f 421 416 427
f 427 416 422
f 422 417 428
f 428 417 423
f 423 418 429
f 429 418 424
f 424 419 430
f 430 419 425
f 425 426 431
f 431 426 432
f 427 422 433
f 433 422 428
f 428 423 434
f 434 423 429
f 429 424 435
f 435 424 430
f 430 425 436
f 436 425 431
f 431 432 437
f 437 432 438
f 433 428 439
f 439 428 434
f 434 429 440
f 440 429 435
f 435 430 441
f 441 430 436
f 436 431 442
f 442 431 437
f 437 438 443
f 443 438 444
f 439 434 445
f 445 434 440
f 440 435 446
f 446 435 441
f 441 436 447
f 447 436 442
f 442 437 448
f 448 437 443
f 443 444 449
f 449 444 450
f 449 450 451
f 452 443 449
f 448 443 452
f 453 449 451
f 452 449 453
f 453 451 454
f 455 442 448
f 447 442 455
f 456 441 447
f 446 441 456
f 457 448 452
f 455 448 457
f 458 453 454
f 458 454 459
f 460 452 453
f 457 452 460
f 460 453 458
f 461 447 455
f 456 447 461
f 462 458 459
f 462 459 463
f 464 455 457
f 461 455 464
f 465 460 458
f 465 458 462
f 466 457 460
f 464 457 466
f 466 460 465
f 467 462 463
f 467 463 468
f 469 465 462
f 469 462 467
f 470 466 465
f 470 465 469
f 471 464 466
f 471 466 470
f 472 461 464
f 472 464 471
f 473 467 468
f 473 468 474
f 475 469 467
f 475 467 473
f 476 470 469
f 476 469 475
f 477 471 470
f 477 470 476
f 478 473 474
f 478 474 479
f 480 475 473
f 480 473 478
f 481 476 475
f 481 475 480
f 482 478 479
f 482 479 483
f 484 480 478
f 484 478 482
f 485 482 483
f 485 483 486
f 487 471 477
f 487 472 471
f 488 477 476
f 488 476 481
f 489 481 480
f 489 480 484
f 490 484 482
f 490 482 485
f 491 485 486
f 491 486 492
f 493 487 477
f 493 477 488
f 494 488 481
f 494 481 489
f 495 489 484
f 495 484 490
f 496 490 485
f 496 485 491
f 497 491 492
f 497 492 498
f 499 493 488
f 499 488 494
f 500 494 489
f 500 489 495
f 501 495 490
f 501 490 496
f 502 496 491
f 502 491 497
f 503 497 498
f 503 498 504
f 505 499 494
f 505 494 500
f 506 500 495
f 506 495 501
f 507 501 496
f 507 496 502
f 508 502 497
f 508 497 503
f 509 503 504
f 509 504 510
f 511 505 500
f 511 500 506
f 512 506 501
f 512 501 507
f 513 507 502
f 513 502 508
f 514 508 503
f 514 503 509
f 515 509 510
f 515 510 516
f 517 511 506
f 517 506 512
f 518 512 507
f 518 507 513
f 519 513 508
f 519 508 514
f 520 514 509
f 520 509 515
f 521 515 516
f 521 516 522
f 523 517 512
f 523 512 518
f 524 518 513
f 524 513 519
f 525 519 514
f 525 514 520
f 526 520 515
f 526 515 521
f 527 521 522
f 527 522 528
f 529 523 518
f 529 518 524
f 530 524 519
f 530 519 525
f 531 525 520
f 531 520 526
f 532 526 521
f 532 521 527
f 533 527 528
f 533 528 534
f 535 529 524
f 535 524 530
f 536 530 525
f 536 525 531
f 537 531 526
f 537 526 532
f 538 532 527
f 538 527 533
f 539 533 534
f 539 534 540
f 541 535 530
f 541 530 536
f 542 536 531
f 542 531 537
f 543 537 532
f 543 532 538
f 544 538 533
f 544 533 539
f 545 539 540
f 545 540 546
f 547 541 536
f 547 536 542
f 548 542 537
f 548 537 543
f 549 543 538
f 549 538 544
f 550 544 539
f 550 539 545
f 551 545 546
f 551 546 552
f 553 547 542
f 553 542 548
f 554 548 543
f 554 543 549
f 555 549 544
f 555 544 550
f 556 550 545
f 556 545 551
f 557 551 552
f 557 552 558
f 559 553 548
f 559 548 554
f 560 554 549
f 560 549 555
f 561 555 550
f 561 550 556
f 562 556 551
f 562 551 557
f 563 557 558
f 563 558 564
f 565 559 554
f 565 554 560
f 566 560 555
f 566 555 561
f 567 561 556
f 567 556 562
f 568 562 557
f 568 557 563
f 569 563 564
f 569 564 570
f 571 565 560
f 571 560 566
f 572 566 561
f 572 561 567
f 573 567 562
f 573 562 568
f 574 568 563
f 574 563 569
f 575 569 570
f 575 570 576
f 577 571 566
f 577 566 572
f 578 572 567
f 578 567 573
f 579 573 568
f 579 568 574
f 580 574 569
f 580 569 575
f 581 575 576
f 581 576 582
f 583 577 572
f 583 572 578
f 584 578 573
f 584 573 579
f 585 579 574
f 585 574 580
f 586 580 575
f 586 575 581
f 587 581 582
f 587 582 588
f 589 583 578
f 589 578 584
f 590 584 579
f 590 579 585
f 591 585 580
f 591 580 586
f 592 586 581
f 592 581 587
f 593 587 588
f 593 588 594
f 595 589 584
f 595 584 590
f 596 590 585
f 596 585 591
f 597 591 586
f 597 586 592
f 598 592 587
f 598 587 593
f 599 593 594
f 599 594 600
f 601 595 590
f 601 590 596
f 602 596 591
f 602 591 597
f 603 597 592
f 603 592 598
f 604 598 593
f 604 593 599
f 605 599 600
f 605 600 606
f 607 601 596
f 607 596 602
f 608 602 597
f 608 597 603
f 609 603 598
f 609 598 604
f 610 604 599
f 610 599 605
f 611 605 606
f 611 606 612
f 613 607 602
f 613 602 608
f 614 608 603
f 614 603 609
f 615 609 604
f 615 604 610
f 616 610 605
f 616 605 611
f 617 611 612
f 617 612 618
f 619 617 618
f 619 618 620
f 621 617 619
f 622 611 617
f 621 622 617
f 622 616 611
f 623 622 621
f 623 624 622
f 624 616 622
f 625 624 623
f 626 610 616
f 624 626 616
f 626 615 610
f 625 627 624
f 627 626 624
f 628 627 625
f 629 615 626
f 627 629 626
f 628 630 627
f 630 629 627
f 631 630 628
f 629 632 615
f 632 609 615
f 632 614 609
f 631 633 630
f 634 633 631
f 630 635 629
f 635 632 629
f 633 635 630
f 636 614 632
f 635 636 632
f 634 637 633
f 638 637 634
f 633 639 635
f 639 636 635
f 637 639 633
f 636 640 614
f 640 608 614
f 640 613 608
f 638 641 637
f 642 641 638
f 637 643 639
f 641 643 637
f 639 644 636
f 644 640 636
f 643 644 639
f 645 613 640
f 644 645 640
f 642 646 641
f 647 646 642
f 641 648 643
f 646 648 641
f 643 649 644
f 649 645 644
f 648 649 643
f 645 650 613
f 650 607 613
f 647 651 646
f 652 651 647
f 646 653 648
f 651 653 646
f 649 654 645
f 654 650 645
f 648 655 649
f 653 655 648
f 655 654 649
f 650 656 607
f 656 601 607
f 652 657 651
f 658 657 652
f 651 659 653
f 657 659 651
f 653 660 655
f 659 660 653
f 654 661 650
f 661 656 650
f 655 662 654
f 660 662 655
f 662 661 654
f 656 663 601
f 663 595 601
f 658 664 657
f 665 664 658
f 657 666 659
f 664 666 657
f 659 667 660
f 666 667 659
f 660 668 662
f 667 668 660
f 661 669 656
f 669 663 656
f 662 670 661
f 668 670 662
f 670 669 661
f 665 671 664
f 672 671 665
f 664 673 666
f 671 673 664
f 666 674 667
f 673 674 666
f 667 675 668
f 674 675 667
f 668 676 670
f 675 676 668
f 670 677 669
f 676 677 670
f 672 678 671
f 679 678 672
f 671 680 673
f 678 680 671
f 673 681 674
f 680 681 673
f 674 682 675
f 681 682 674
f 675 683 676
f 682 683 675
f 679 684 678
f 685 684 679
f 678 686 680
f 684 686 678
f 680 687 681
f 686 687 680
f 681 688 682
f 687 688 681
f 685 689 684
f 690 689 685
f 684 691 686
f 689 691 684
f 686 692 687
f 691 692 686
f 690 693 689
f 694 693 690
f 689 695 691
f 693 695 689
f 694 696 693
f 697 696 694
f 688 698 682
f 682 698 683
f 687 699 688
f 692 699 687
f 691 700 692
f 695 700 691
f 693 701 695
f 696 701 693
f 697 702 696
f 703 702 697
f 688 704 698
f 699 704 688
f 692 705 699
f 700 705 692
f 695 706 700
f 701 706 695
f 696 707 701
f 702 707 696
f 703 708 702
f 709 708 703
f 699 710 704
f 705 710 699
f 700 711 705
f 706 711 700
f 701 712 706
f 707 712 701
f 702 713 707
f 708 713 702
f 709 714 708
f 715 714 709
f 705 716 710
f 711 716 705
f 706 717 711
f 712 717 706
f 707 718 712
f 713 718 707
f 708 719 713
f 714 719 708
f 715 720 714
f 721 720 715
f 711 722 716
f 717 722 711
f 712 723 717
f 718 723 712
f 713 724 718
f 719 724 713
f 714 725 719
f 720 725 714
f 721 726 720
f 727 726 721
f 717 728 722
f 723 728 717
f 718 729 723
f 724 729 718
f 719 730 724
f 725 730 719
f 720 731 725
f 726 731 720
f 727 732 726
f 733 732 727
f 723 734 728
f 729 734 723
f 724 735 729
f 730 735 724
f 725 736 730
f 731 736 725
f 726 737 731
f 732 737 726
f 733 738 732
f 739 738 733
f 729 740 734
f 735 740 729
f 730 741 735
f 736 741 730
f 731 742 736
f 737 742 731
f 732 743 737
f 738 743 732
f 739 744 738
f 745 744 739
f 735 746 740
f 741 746 735
f 736 747 741
f 742 747 736
f 737 748 742
f 743 748 737
f 738 749 743
f 744 749 738
f 745 750 744
f 751 750 745
f 741 752 746
f 747 752 741
f 742 753 747
f 748 753 742
f 743 754 748
f 749 754 743
f 744 755 749
f 750 755 744
f 751 756 750
f 757 756 751
f 747 758 752
f 753 758 747
f 748 759 753
f 754 759 748
f 749 760 754
f 755 760 749
f 750 761 755
f 756 761 750
f 757 762 756
f 763 762 757
f 753 764 758
f 759 764 753
f 754 765 759
f 760 765 754
f 755 766 760
f 761 766 755
f 756 767 761
f 762 767 756
f 763 768 762
f 769 768 763
f 759 770 764
f 765 770 759
f 760 771 765
f 766 771 760
f 761 772 766
f 767 772 761
f 762 773 767
f 768 773 762
f 769 774 768
f 775 774 769
f 775 776 774
f 774 777 768
f 768 777 773
f 776 778 774
f 774 778 777
f 776 779 778
f 773 780 767
f 767 780 772
f 772 781 766
f 766 781 771
f 777 782 773
f 773 782 780
f 779 783 778
f 779 784 783
f 778 785 777
f 777 785 782
f 778 783 785
f 780 786 772
f 772 786 781
f 784 787 783
f 784 788 787
f 782 789 780
f 780 789 786
f 783 790 785
f 783 787 790
f 785 791 782
f 782 791 789
f 785 790 791
f 788 792 787
f 788 793 792
f 787 794 790
f 787 792 794
f 790 795 791
f 790 794 795
f 791 796 789
f 791 795 796
f 789 797 786
f 789 796 797
f 793 798 792
f 793 799 798
f 792 800 794
f 792 798 800
f 794 801 795
f 794 800 801
f 795 802 796
f 795 801 802
f 799 803 798
f 799 804 803
f 798 805 800
f 798 803 805
f 800 806 801
f 800 805 806
f 804 807 803
f 804 808 807
f 803 809 805
f 803 807 809
f 808 810 807
f 808 811 810
f 796 802 812
f 796 812 797
f 801 813 802
f 801 806 813
f 805 814 806
f 805 809 814
f 807 815 809
f 807 810 815
f 811 816 810
f 811 817 816
f 802 818 812
f 802 813 818
f 806 819 813
f 806 814 819
f 809 820 814
f 809 815 820
f 810 821 815
f 810 816 821
f 817 822 816
f 817 823 822
f 813 824 818
f 813 819 824
f 814 825 819
f 814 820 825
f 815 826 820
f 815 821 826
f 816 827 821
f 816 822 827
f 823 828 822
f 823 829 828
f 819 830 824
f 819 825 830
f 820 831 825
f 820 826 831
f 821 832 826
f 821 827 832
f 822 833 827
f 822 828 833
f 829 834 828
f 829 835 834
f 825 836 830
f 825 831 836
f 826 837 831
f 826 832 837
f 827 838 832
f 827 833 838
f 828 839 833
f 828 834 839
f 835 840 834
f 835 841 840
f 831 842 836
f 831 837 842
f 832 843 837
f 832 838 843
f 833 844 838
f 833 839 844
f 834 845 839
f 834 840 845
f 841 846 840
f 841 847 846
f 837 848 842
f 837 843 848
f 838 849 843
f 838 844 849
f 839 850 844
f 839 845 850
f 840 851 845
f 840 846 851
f 847 852 846
f 847 853 852
f 843 854 848
f 843 849 854
f 844 855 849
f 844 850 855
f 845 856 850
f 845 851 856
f 846 857 851
f 846 852 857
f 853 858 852
f 853 859 858
f 849 860 854
f 849 855 860
f 850 861 855
f 850 856 861
f 851 862 856
f 851 857 862
f 852 863 857
f 852 858 863
f 859 864 858
f 859 865 864
f 855 866 860
f 855 861 866
f 856 867 861
f 856 862 867
f 857 868 862
f 857 863 868
f 858 869 863
f 858 864 869
f 865 870 864
f 865 871 870
f 861 872 866
f 861 867 872
f 862 873 867
f 862 868 873
f 863 874 868
f 863 869 874
f 864 875 869
f 864 870 875
f 871 876 870
f 871 877 876
f 867 878 872
f 867 873 878
f 868 879 873
f 868 874 879
f 869 880 874
f 869 875 880
f 870 881 875
f 870 876 881
f 877 882 876
f 877 883 882
f 873 884 878
f 873 879 884
f 874 885 879
f 874 880 885
f 875 886 880
f 875 881 886
f 876 887 881
f 876 882 887
f 883 888 882
f 883 889 888
f 879 890 884
f 879 885 890
f 880 891 885
f 880 886 891
f 881 892 886
f 881 887 892
f 882 893 887
f 882 888 893
f 889 894 888
f 889 895 894
f 885 896 890
f 885 891 896
f 886 897 891
f 886 892 897
f 887 898 892
f 887 893 898
f 888 899 893
f 888 894 899
f 895 900 894
f 895 309 900
f 309 308 900
f 894 900 901
f 894 901 899
f 900 308 902
f 900 902 901
f 308 312 902
f 893 899 903
f 893 903 898
f 892 898 904
f 892 904 897
f 899 901 905
f 899 905 903
f 902 312 906
f 312 313 906
f 906 313 322
f 901 902 907
f 902 906 907
f 901 907 905
f 906 322 908
f 907 906 908
f 908 322 337
f 898 903 909
f 898 909 904
f 903 905 910
f 903 910 909
f 905 907 911
f 907 908 911
f 905 911 910
f 908 337 912
f 911 908 912
f 912 337 343
f 910 911 913
f 911 912 913
f 912 343 914
f 913 912 914
f 914 343 349
f 909 910 915
f 910 913 915
f 904 909 916
f 909 915 916
f 913 914 917
f 915 913 917
f 914 349 918
f 917 914 918
f 918 349 355
f 915 917 919
f 916 915 919
f 904 916 920
f 897 904 920
f 917 918 921
f 919 917 921
f 918 355 922
f 921 918 922
f 922 355 361
f 916 919 923
f 920 916 923
f 897 920 924
f 891 897 924
f 891 924 896
f 919 921 925
f 923 919 925
f 921 922 926
f 925 921 926
f 922 361 927
f 926 922 927
f 927 361 367
f 924 920 928
f 920 923 928
f 896 924 929
f 924 928 929
f 923 925 930
f 928 923 930
f 925 926 931
f 930 925 931
f 926 927 932
f 931 926 932
f 927 367 933
f 932 927 933
f 933 367 373
f 928 930 934
f 929 928 934
f 896 929 935
f 890 896 935
f 930 931 936
f 934 930 936
f 931 932 937
f 936 931 937
f 932 933 938
f 937 932 938
f 933 373 939
f 938 933 939
f 939 373 379
f 929 934 940
f 935 929 940
f 890 935 941
f 884 890 941
f 934 936 942
f 940 934 942
f 936 937 943
f 942 936 943
f 937 938 944
f 943 937 944
f 938 939 945
f 944 938 945
f 939 379 946
f 945 939 946
f 946 379 385
f 946 385 947
f 947 385 391
f 945 946 948
f 948 946 947
f 944 945 949
f 949 945 948
f 943 944 950
f 950 944 949
f 942 943 951
f 951 943 950
f 947 391 952
f 952 391 397
f 948 947 953
f 953 947 952
f 949 948 954
f 954 948 953
f 950 949 955
f 955 949 954
f 952 397 956
f 956 397 403
f 953 952 957
f 957 952 956
f 954 953 958
f 958 953 957
f 956 403 959
f 959 403 409
f 957 956 960
f 960 956 959
f 959 409 961
f 961 409 415
f 962 950 955
f 951 950 962
f 955 954 963
f 963 954 958
f 958 957 964
f 964 957 960
f 960 959 965
f 965 959 961
f 961 415 966
f 966 415 421
f 962 955 967
f 967 955 963
f 963 958 968
f 968 958 964
f 964 960 969
f 969 960 965
f 965 961 970
f 970 961 966
f 966 421 971
f 971 421 427
f 967 963 972
f 972 963 968
f 968 964 973
f 973 964 969
f 969 965 974
f 974 965 970
f 970 966 975
f 975 966 971
f 971 427 976
f 976 427 433
f 972 968 977
f 977 968 973
f 973 969 978
f 978 969 974
f 974 970 979
f 979 970 975
f 975 971 980
f 980 971 976
f 976 433 981
f 981 433 439
f 977 973 982
f 982 973 978
f 978 974 983
f 983 974 979
f 979 975 984
f 984 975 980
f 980 976 985
f 985 976 981
f 981 439 986
f 986 439 445
f 982 978 987
f 987 978 983
f 983 979 988
f 988 979 984
f 984 980 989
f 989 980 985
f 985 981 990
f 990 981 986
f 987 983 991
f 991 983 988
f 988 984 992
f 992 984 989
f 989 985 993
f 993 985 990
f 991 988 994
f 994 988 992
f 992 989 995
f 995 989 993
f 994 992 996
f 996 992 995
f 990 986 997
f 993 990 998
f 998 990 997
f 995 993 999
f 999 993 998
f 996 995 1000
f 1000 995 999
f 997 986 1001
f 986 445 1001
f 1001 445 1002
f 445 440 1002
f 1002 440 446
f 1002 446 1003
f 1003 446 456
f 1001 1002 1004
f 1004 1002 1003
f 997 1001 1005
f 1005 1001 1004
f 998 997 1006
f 1006 997 1005
f 999 998 1007
f 1007 998 1006
f 1003 456 1008
f 1008 456 461
f 1008 461 472
f 1004 1003 1009
f 1009 1003 1008
f 1010 1008 472
f 1009 1008 1010
f 1010 472 487
f 1005 1004 1011
f 1011 1004 1009
f 1006 1005 1012
f 1012 1005 1011
f 1013 1009 1010
f 1011 1009 1013
f 1014 1010 487
f 1013 1010 1014
f 1014 487 493
f 1015 1011 1013
f 1012 1011 1015
f 1016 1006 1012
f 1007 1006 1016
f 1017 1014 493
f 1017 493 499
f 1018 1013 1014
f 1015 1013 1018
f 1018 1014 1017
f 1019 1012 1015
f 1016 1012 1019
f 1020 1017 499
f 1020 499 505
f 1021 1018 1017
f 1021 1017 1020
f 1022 1015 1018
f 1019 1015 1022
f 1022 1018 1021
f 1023 1020 505
f 1023 505 511
f 1024 1021 1020
f 1024 1020 1023
f 1025 1022 1021
f 1025 1021 1024
f 1026 1019 1022
f 1026 1022 1025
f 1027 1016 1019
f 1027 1019 1026
f 1028 1023 511
f 1028 511 517
f 1029 1024 1023
f 1029 1023 1028
f 1030 1025 1024
f 1030 1024 1029
f 1031 1026 1025
f 1031 1025 1030
f 1032 1028 517
f 1032 517 523
f 1033 1029 1028
f 1033 1028 1032
f 1034 1030 1029
f 1034 1029 1033
f 1035 1032 523
f 1035 523 529
f 1036 1033 1032
f 1036 1032 1035
f 1037 1035 529
f 1037 529 535
f 1038 1026 1031
f 1038 1027 1026
f 1039 1031 1030
f 1039 1030 1034
f 1040 1034 1033
f 1040 1033 1036
f 1041 1036 1035
f 1041 1035 1037
f 1042 1037 535
f 1042 535 541
f 1043 1038 1031
f 1043 1031 1039
f 1044 1039 1034
f 1044 1034 1040
f 1045 1040 1036
f 1045 1036 1041
f 1046 1041 1037
f 1046 1037 1042
f 1047 1042 541
f 1047 541 547
f 1048 1043 1039
f 1048 1039 1044
f 1049 1044 1040
f 1049 1040 1045
f 1050 1045 1041
f 1050 1041 1046
f 1051 1046 1042
f 1051 1042 1047
f 1052 1047 547
f 1052 547 553
f 1053 1048 1044
f 1053 1044 1049
f 1054 1049 1045
f 1054 1045 1050
f 1055 1050 1046
f 1055 1046 1051
f 1056 1051 1047
f 1056 1047 1052
f 1057 1052 553
f 1057 553 559
f 1058 1053 1049
f 1058 1049 1054
f 1059 1054 1050
f 1059 1050 1055
f 1060 1055 1051
f 1060 1051 1056
f 1061 1056 1052
f 1061 1052 1057
f 1062 1057 559
f 1062 559 565
f 1063 1058 1054
f 1063 1054 1059
f 1064 1059 1055
f 1064 1055 1060
f 1065 1060 1056
f 1065 1056 1061
f 1066 1061 1057
f 1066 1057 1062
f 1067 1062 565
f 1067 565 571
f 1068 1063 1059
f 1068 1059 1064
f 1069 1064 1060
f 1069 1060 1065
f 1070 1065 1061
f 1070 1061 1066
f 1071 1066 1062
f 1071 1062 1067
f 1072 1067 571
f 1072 571 577
f 1073 1068 1064
f 1073 1064 1069
f 1074 1069 1065
f 1074 1065 1070
f 1075 1070 1066
f 1075 1066 1071
f 1076 1071 1067
f 1076 1067 1072
f 1077 1072 577
f 1077 577 583
f 1078 1073 1069
f 1078 1069 1074
f 1079 1074 1070
f 1079 1070 1075
f 1080 1075 1071
f 1080 1071 1076
f 1081 1076 1072
f 1081 1072 1077
f 1082 1077 583
f 1082 583 589
f 1083 1078 1074
f 1083 1074 1079
f 1084 1079 1075
f 1084 1075 1080
f 1085 1080 1076
f 1085 1076 1081
f 1086 1081 1077
f 1086 1077 1082
f 1087 1082 589
f 1087 589 595
f 663 1087 595
f 1088 1082 1087
f 1088 1086 1082
f 1089 1087 663
f 1089 1088 1087
f 669 1089 663
f 677 1089 669
f 1090 1081 1086
f 1090 1085 1081
f 1091 1080 1085
f 1091 1084 1080
f 1092 1088 1089
f 677 1092 1089
f 1093 1086 1088
f 1093 1090 1086
f 1092 1093 1088
f 1094 1085 1090
f 1094 1091 1085
f 1095 1092 677
f 676 1095 677
f 683 1095 676
f 1096 1093 1092
f 1095 1096 1092
f 1097 1090 1093
f 1097 1094 1090
f 1096 1097 1093
f 683 1098 1095
f 1098 1096 1095
f 698 1098 683
f 1099 1097 1096
f 1098 1099 1096
f 698 1100 1098
f 1100 1099 1098
f 704 1100 698
f 1101 1094 1097
f 1099 1101 1097
f 704 1102 1100
f 710 1102 704
f 1100 1103 1099
f 1103 1101 1099
f 1102 1103 1100
f 1101 1104 1094
f 1104 1091 1094
f 710 1105 1102
f 716 1105 710
f 1103 1106 1101
f 1106 1104 1101
f 1102 1107 1103
f 1105 1107 1102
f 1107 1106 1103
f 1104 1108 1091
f 1108 1084 1091
f 716 1109 1105
f 722 1109 716
f 1105 1110 1107
f 1109 1110 1105
f 1107 1111 1106
f 1110 1111 1107
f 1106 1112 1104
f 1112 1108 1104
f 1111 1112 1106
f 1108 1113 1084
f 1113 1079 1084
f 1113 1083 1079
f 722 1114 1109
f 728 1114 722
f 1109 1115 1110
f 1114 1115 1109
f 1110 1116 1111
f 1115 1116 1110
f 1112 1117 1108
f 1117 1113 1108
f 1111 1118 1112
f 1116 1118 1111
f 1118 1117 1112
f 1119 1083 1113
f 1117 1119 1113
f 728 1120 1114
f 734 1120 728
f 1114 1121 1115
f 1120 1121 1114
f 1115 1122 1116
f 1121 1122 1115
f 1116 1123 1118
f 1122 1123 1116
f 1118 1124 1117
f 1124 1119 1117
f 1123 1124 1118
f 1119 1125 1083
f 1125 1078 1083
f 734 1126 1120
f 740 1126 734
f 1120 1127 1121
f 1126 1127 1120
f 1121 1128 1122
f 1127 1128 1121
f 1122 1129 1123
f 1128 1129 1122
f 1123 1130 1124
f 1129 1130 1123
f 1124 1131 1119
f 1130 1131 1124
f 1131 1125 1119
f 740 1132 1126
f 746 1132 740
f 1126 1133 1127
f 1132 1133 1126
f 1127 1134 1128
f 1133 1134 1127
f 1128 1135 1129
f 1134 1135 1128
f 1129 1136 1130
f 1135 1136 1129
f 1130 1137 1131
f 1136 1137 1130
f 1131 1138 1125
f 1137 1138 1131
f 746 1139 1132
f 752 1139 746
f 1132 1140 1133
f 1139 1140 1132
f 1133 1141 1134
f 1140 1141 1133
f 1134 1142 1135
f 1141 1142 1134
f 1135 1143 1136
f 1142 1143 1135
f 1136 1144 1137
f 1143 1144 1136
f 752 1145 1139
f 758 1145 752
f 1139 1146 1140
f 1145 1146 1139
f 1140 1147 1141
f 1146 1147 1140
f 1141 1148 1142
f 1147 1148 1141
f 1142 1149 1143
f 1148 1149 1142
f 758 1150 1145
f 764 1150 758
f 1145 1151 1146
f 1150 1151 1145
f 1146 1152 1147
f 1151 1152 1146
f 1147 1153 1148
f 1152 1153 1147
f 764 1154 1150
f 770 1154 764
f 1150 1155 1151
f 1154 1155 1150
f 1151 1156 1152
f 1155 1156 1151
f 1148 1157 1149
f 1153 1157 1148
f 1152 1158 1153
f 1156 1158 1152
f 1153 1159 1157
f 1158 1159 1153
f 770 1160 1154
f 1154 1161 1155
f 1160 1161 1154
f 1155 1162 1156
f 1161 1162 1155
f 1156 1163 1158
f 1162 1163 1156
f 1158 1164 1159
f 1163 1164 1158
f 1165 1160 770
f 765 1165 770
f 771 1165 765
f 771 1166 1165
f 781 1166 771
f 1165 1167 1160
f 1166 1167 1165
f 1160 1168 1161
f 1167 1168 1160
f 1161 1169 1162
f 1168 1169 1161
f 1162 1170 1163
f 1169 1170 1162
f 781 1171 1166
f 786 1171 781
f 786 797 1171
f 1166 1172 1167
f 1171 1172 1166
f 797 1173 1171
f 1171 1173 1172
f 797 812 1173
f 1167 1174 1168
f 1172 1174 1167
f 1168 1175 1169
f 1174 1175 1168
f 812 1176 1173
f 812 818 1176
f 1173 1177 1172
f 1172 1177 1174
f 1173 1176 1177
f 818 1178 1176
f 818 824 1178
f 1177 1179 1174
f 1174 1179 1175
f 1176 1180 1177
f 1176 1178 1180
f 1177 1180 1179
f 1175 1181 1169
f 1169 1181 1170
f 824 1182 1178
f 824 830 1182
f 1178 1183 1180
f 1178 1182 1183
f 1180 1184 1179
f 1180 1183 1184
f 1179 1185 1175
f 1175 1185 1181
f 1179 1184 1185
f 830 1186 1182
f 830 836 1186
f 1182 1187 1183
f 1182 1186 1187
f 1183 1188 1184
f 1183 1187 1188
f 1184 1189 1185
f 1184 1188 1189
f 1185 1190 1181
f 1185 1189 1190
f 836 1191 1186
f 836 842 1191
f 1186 1192 1187
f 1186 1191 1192
f 1187 1193 1188
f 1187 1192 1193
f 1188 1194 1189
f 1188 1193 1194
f 842 1195 1191
f 842 848 1195
f 1191 1196 1192
f 1191 1195 1196
f 1192 1197 1193
f 1192 1196 1197
f 848 1198 1195
f 848 854 1198
f 1195 1199 1196
f 1195 1198 1199
f 854 1200 1198
f 854 860 1200
f 1189 1194 1201
f 1189 1201 1190
f 1193 1202 1194
f 1193 1197 1202
f 1196 1203 1197
f 1196 1199 1203
f 1198 1204 1199
f 1198 1200 1204
f 860 1205 1200
f 860 866 1205
f 1194 1206 1201
f 1194 1202 1206
f 1197 1207 1202
f 1197 1203 1207
f 1199 1208 1203
f 1199 1204 1208
f 1200 1209 1204
f 1200 1205 1209
f 866 1210 1205
f 866 872 1210
f 1202 1211 1206
f 1202 1207 1211
f 1203 1212 1207
f 1203 1208 1212
f 1204 1213 1208
f 1204 1209 1213
f 1205 1214 1209
f 1205 1210 1214
f 872 1215 1210
f 872 878 1215
f 1207 1216 1211
f 1207 1212 1216
f 1208 1217 1212
f 1208 1213 1217
f 1209 1218 1213
f 1209 1214 1218
f 1210 1219 1214
f 1210 1215 1219
f 878 1220 1215
f 878 884 1220
f 884 941 1220
f 1215 1220 1221
f 1215 1221 1219
f 1214 1219 1222
f 1214 1222 1218
f 1213 1218 1223
f 1213 1223 1217
f 1220 941 1224
f 1220 1224 1221
f 1219 1221 1225
f 1219 1225 1222
f 1218 1222 1226
f 1218 1226 1223
f 941 1227 1224
f 941 935 1227
f 935 940 1227
f 1221 1224 1228
f 1221 1228 1225
f 1222 1225 1229
f 1222 1229 1226
f 1227 940 1230
f 940 942 1230
f 1230 942 951
f 1224 1227 1231
f 1227 1230 1231
f 1224 1231 1228
f 1230 951 1232
f 1231 1230 1232
f 1232 951 962
f 1225 1228 1233
f 1225 1233 1229
f 1228 1231 1234
f 1231 1232 1234
f 1228 1234 1233
f 1232 962 1235
f 1234 1232 1235
f 1235 962 967
f 1233 1234 1236
f 1234 1235 1236
f 1235 967 1237
f 1236 1235 1237
f 1237 967 972
f 1229 1233 1238
f 1233 1236 1238
f 1237 972 1239
f 1239 972 977
f 1236 1237 1240
f 1238 1236 1240
f 1240 1237 1239
f 1229 1238 1241
f 1226 1229 1241
f 1239 977 1242
f 1242 977 982
f 1240 1239 1243
f 1243 1239 1242
f 1238 1240 1244
f 1241 1238 1244
f 1244 1240 1243
f 1226 1241 1245
f 1223 1226 1245
f 1242 982 1246
f 1246 982 987
f 1241 1244 1247
f 1245 1241 1247
f 1244 1243 1248
f 1247 1244 1248
f 1243 1242 1249
f 1249 1242 1246
f 1248 1243 1249
f 1223 1245 1250
f 1217 1223 1250
f 1246 987 1251
f 1251 987 991
f 1245 1247 1252
f 1250 1245 1252
f 1247 1248 1253
f 1252 1247 1253
f 1249 1246 1254
f 1254 1246 1251
f 1248 1249 1255
f 1253 1248 1255
f 1255 1249 1254
f 1217 1250 1256
f 1212 1217 1256
f 1212 1256 1216
f 1251 991 1257
f 1257 991 994
f 1254 1251 1258
f 1258 1251 1257
f 1255 1254 1259
f 1259 1254 1258
f 1253 1255 1260
f 1260 1255 1259
f 1256 1250 1261
f 1250 1252 1261
f 1252 1253 1262
f 1262 1253 1260
f 1261 1252 1262
f 1216 1256 1263
f 1256 1261 1263
f 1257 994 1264
f 1264 994 996
f 1258 1257 1265
f 1265 1257 1264
f 1259 1258 1266
f 1266 1258 1265
f 1260 1259 1267
f 1267 1259 1266
f 1261 1262 1268
f 1263 1261 1268
f 1262 1260 1269
f 1269 1260 1267
f 1268 1262 1269
f 1264 996 1270
f 1270 996 1000
f 1265 1264 1271
f 1271 1264 1270
f 1266 1265 1272
f 1272 1265 1271
f 1267 1266 1273
f 1273 1266 1272
f 1269 1267 1274
f 1274 1267 1273
f 1268 1269 1275
f 1275 1269 1274
f 1276 1268 1275
f 1263 1268 1276
f 1277 1263 1276
f 1216 1263 1277
f 1211 1216 1277
f 1211 1277 1278
f 1206 1211 1278
f 1277 1276 1279
f 1278 1277 1279
f 1276 1275 1280
f 1279 1276 1280
f 1275 1274 1281
f 1280 1275 1281
f 1274 1273 1282
f 1281 1274 1282
f 1206 1278 1283
f 1201 1206 1283
f 1278 1279 1284
f 1283 1278 1284
f 1279 1280 1285
f 1284 1279 1285
f 1280 1281 1286
f 1285 1280 1286
f 1201 1283 1287
f 1190 1201 1287
f 1283 1284 1288
f 1287 1283 1288
f 1284 1285 1289
f 1288 1284 1289
f 1190 1287 1290
f 1181 1190 1290
f 1181 1290 1170
f 1287 1288 1291
f 1290 1287 1291
f 1170 1290 1292
f 1290 1291 1292
f 1170 1292 1163
f 1163 1292 1164
f 1291 1288 1293
f 1288 1289 1293
f 1292 1291 1294
f 1292 1294 1164
f 1291 1293 1294
f 1289 1285 1295
f 1285 1286 1295
f 1164 1294 1296
f 1164 1296 1159
f 1294 1293 1297
f 1294 1297 1296
f 1293 1289 1298
f 1289 1295 1298
f 1293 1298 1297
f 1159 1296 1299
f 1159 1299 1157
f 1296 1297 1300
f 1296 1300 1299
f 1297 1298 1301
f 1297 1301 1300
f 1298 1295 1302
f 1298 1302 1301
f 1295 1286 1303
f 1295 1303 1302
f 1157 1299 1304
f 1157 1304 1149
f 1299 1300 1305
f 1299 1305 1304
f 1300 1301 1306
f 1300 1306 1305
f 1301 1302 1307
f 1301 1307 1306
f 1149 1304 1308
f 1149 1308 1143
f 1143 1308 1144
f 1304 1305 1309
f 1304 1309 1308
f 1305 1306 1310
f 1305 1310 1309
f 1308 1311 1144
f 1308 1309 1311
f 1302 1312 1307
f 1302 1303 1312
f 1306 1307 1313
f 1306 1313 1310
f 1309 1310 1314
f 1309 1314 1311
f 1144 1311 1315
f 1144 1315 1137
f 1137 1315 1138
f 1311 1316 1315
f 1311 1314 1316
f 1310 1317 1314
f 1310 1313 1317
f 1307 1318 1313
f 1307 1312 1318
f 1315 1319 1138
f 1315 1316 1319
f 1314 1320 1316
f 1314 1317 1320
f 1313 1321 1317
f 1313 1318 1321
f 1138 1319 1322
f 1138 1322 1125
f 1125 1322 1078
f 1322 1073 1078
f 1322 1323 1073
f 1319 1323 1322
f 1323 1068 1073
f 1316 1324 1319
f 1319 1324 1323
f 1316 1320 1324
f 1323 1325 1068
f 1324 1325 1323
f 1325 1063 1068
f 1320 1326 1324
f 1324 1326 1325
f 1325 1327 1063
f 1326 1327 1325
f 1327 1058 1063
f 1320 1328 1326
f 1317 1328 1320
f 1317 1321 1328
f 1326 1329 1327
f 1328 1329 1326
f 1327 1330 1058
f 1329 1330 1327
f 1330 1053 1058
f 1321 1331 1328
f 1328 1331 1329
f 1330 1332 1053
f 1332 1048 1053
f 1329 1333 1330
f 1331 1333 1329
f 1333 1332 1330
f 1321 1334 1331
f 1318 1334 1321
f 1332 1335 1048
f 1335 1043 1048
f 1331 1336 1333
f 1334 1336 1331
f 1333 1337 1332
f 1337 1335 1332
f 1336 1337 1333
f 1318 1338 1334
f 1312 1338 1318
f 1335 1339 1043
f 1339 1038 1043
f 1334 1340 1336
f 1338 1340 1334
f 1336 1341 1337
f 1340 1341 1336
f 1337 1342 1335
f 1342 1339 1335
f 1341 1342 1337
f 1312 1343 1338
f 1303 1343 1312
f 1339 1344 1038
f 1344 1027 1038
f 1338 1345 1340
f 1343 1345 1338
f 1340 1346 1341
f 1345 1346 1340
f 1342 1347 1339
f 1347 1344 1339
f 1341 1348 1342
f 1346 1348 1341
f 1348 1347 1342
f 1303 1349 1343
f 1286 1349 1303
f 1286 1281 1349
f 1281 1282 1349
f 1349 1350 1343
f 1343 1350 1345
f 1349 1282 1350
f 1345 1351 1346
f 1350 1351 1345
f 1282 1352 1350
f 1350 1352 1351
f 1282 1273 1352
f 1273 1272 1352
f 1352 1272 1353
f 1352 1353 1351
f 1272 1271 1353
f 1351 1354 1346
f 1351 1353 1354
f 1346 1354 1348
f 1353 1271 1355
f 1353 1355 1354
f 1271 1270 1355
f 1354 1356 1348
f 1354 1355 1356
f 1348 1356 1347
f 1355 1270 1357
f 1355 1357 1356
f 1270 1000 1357
f 1356 1358 1347
f 1356 1357 1358
f 1347 1358 1344
f 1357 1000 1359
f 1357 1359 1358
f 1000 999 1359
f 1359 999 1007
f 1358 1360 1344
f 1358 1359 1360
f 1359 1007 1360
f 1344 1360 1027
f 1360 1007 1016
f 1360 1016 1027
v -13.43359 21.33992 139.3376
v 13.88197 21.33992 139.3618
v -13.43602 21.33992 142.0714
v 13.87954 21.33992 142.0957
v -13.43602 5.260078 142.0714
v 13.87954 5.260077 142.0957
v -13.43359 5.260077 139.3376
v 13.88197 5.260076 139.3618
v -13.43602 21.33992 142.0714
v 13.87954 21.33992 142.0957
v -13.43602 5.260078 142.0714
v 13.87954 5.260077 142.0957
v -13.43359 5.260077 139.3376
v -13.43359 21.33992 139.3376
v 13.88197 21.33992 139.3618
v 13.88197 5.260076 139.3618
v 13.88197 21.33992 139.3618
v 13.87954 21.33992 142.0957
v 13.87954 5.260077 142.0957
v 13.88197 5.260076 139.3618
v -13.43359 5.260077 139.3376
v -13.43602 5.260078 142.0714
v -13.43602 21.33992 142.0714
v -13.43359 21.33992 139.3376
f 1361 1363 1364
f 1361 1364 1362
f 1369 1365 1366
f 1369 1366 1370
f 1371 1367 1368
f 1371 1368 1372
f 1373 1374 1375
f 1373 1375 1376
f 1377 1378 1379
f 1377 1379 1380
f 1381 1382 1383
f 1381 1383 1384
