v 20 -24 26
v 26 -24 26
v 20 -24 38
v 26 -24 38
v 20 -24 38
v 26 -24 38
v 26 -17 38
v 20 -17 38
v 36 -24 38
v 36 -24 26
v 36 -17 26
v 36 -17 38
v 26 -17 26
v 20 -24 26
v 20 -17 26
v 26 -24 26
v 16 -21 26
v 16 -24 38
v 16 -21 38
v 16 -24 26
v 16 -24 38
v 16 -21 38
v 16 -21 26
v 16 -24 26
v 16 -24 26
v 16 -24 38
v 28 -24 26
v 28 -24 38
v 36 -24 26
v 36 -24 38
v 28 -17 26
v 28 -24 26
v 36 -17 0
v 28 -24 0
v 28 -17 0
v 36 -24 0
v 28 -24 38
v 28 -17 38
v 36 -24 38
v 36 -17 38
v 36 -24 23
v 36 -17 23
v 28 -17 23
v 28 -24 26
v 28 -17 26
v 28 -24 23
v 36 -24 23
v 28 -24 23
v 26 -13 38
v 20 -13 38
v 26 -11 38
v 20 -11 38
v 36 -13 26
v 36 -13 38
v 36 -11 26
v 36 -11 38
v 26 -13 26
v 20 -13 26
v 26 -11 26
v 20 -11 26
v 20 -13 26
v 20 -17 38
v 20 -13 38
v 20 -17 26
v 20 -11 26
v 20 -11 38
v 28 -13 26
v 28 -11 26
v 36 -15 0
v 28 -15 0
v 36 -13 0
v 28 -13 0
v 28 -13 38
v 28 -11 38
v 36 -13 38
v 36 -11 38
v 28 -15 23
v 28 -13 26
v 28 -13 23
v 28 -11 26
v 36 -15 23
v 36 -13 23
v 36 -13 14
v 36 -15 14
v 36 -13 0
v 36 -15 0
v 36 -17 14
v 36 -17 0
v 36 -24 14
v 36 -24 0
v 28 -24 14
v 28 -17 14
v 28 -24 0
v 28 -17 0
v 36 -24 14
v 28 -24 14
v 36 -24 0
v 28 -24 0
v 36 -13 14
v 28 -13 14
v 36 -13 4
v 28 -13 4
v 22 -15 23
v 28 -15 23
v 28 -13 23
v 22 -13 23
v 20 -15 23
v 20 -13 23
v 22 -15 0
v 22 -13 0
v 20 -15 0
v 20 -13 0
v 28 -13 2
v 28 -15 14
v 28 -13 14
v 28 -15 2
v 28 -13 0
v 28 -15 0
v 28 -15 14
v 28 -15 2
v 28 -13 2
v 28 -13 14
v 28 -15 0
v 28 -13 0
v 20 -13 2
v 20 -15 14
v 20 -13 14
v 20 -15 2
v 20 -13 0
v 20 -15 0
v 22 -15 2
v 28 -15 0
v 28 -15 2
v 22 -15 0
v 22 -15 14
v 28 -15 14
v 20 -21 2
v 22 -21 0
v 22 -21 2
v 20 -21 0
v 20 -15 14
v 20 -15 2
v 22 -15 0
v 22 -15 2
v 22 -21 0
v 22 -21 2
v 22 -15 2
v 20 -15 2
v 22 -21 2
v 20 -21 2
v 20 -21 2
v 20 -21 0
v 20 -21 0
v 22 -21 0
v 36 -24 22
v 36 -17 22
v 28 -17 22
v 28 -24 22
v 28 -24 22
v 36 -24 22
v 28 -15 22
v 20 -13 22
v 20 -15 23
v 20 -13 23
v 20 -15 22
v 36 -15 22
v 36 -13 22
v 22 -15 22
v 28 -15 22
v 22 -15 23
v 28 -15 23
v 20 -15 22
v 20 -15 23
v 28 -11 26
v 36 -11 26
v 36 -8 26
v 28 -8 26
v 36 -1 26
v 28 -1 26
v 28 -9 23
v 28 -8 26
v 28 -1 22
v 28 -1 26
v 36 -10 23
v 36 -8 26
v 36 -1 22
v 36 -1 26
v 36 -10 14
v 36 -13 4
v 36 -1 14
v 28 -13 4
v 28 -9 14
v 28 -1 14
v 25 -13 22
v 26 -13 23
v 25 -13 23
v 26 -13 22
v 28 -1 20
v 28 -9 22
v 25 -13 14
v 26 -13 14
v 36 -10 22
v 36 -1 20
v 28 -9 23
v 26 -13 23
v 25 -13 23
v 28 -13 22
v 28 -13 23
v 28 -9 14
v 28 -13 14
v 25 -13 14
v 20 -11 38
v 26 -11 38
v 20 -11 26
v 26 -11 26
v 20 -17 38
v 20 -17 26
v 16 -21 38
v 16 -21 26
v 28 -11 26
v 28 -11 38
v 36 -11 26
v 36 -11 38
v 36 -1 22
v 28 -1 22
v 28 -1 26
v 36 -1 26
v 28 -1 14
v 36 -1 14
v 28 -13 4
v 36 -13 4
v 36 -13 0
v 28 -13 0
v 28 -13 2
v 36 -13 14
v 28 -13 14
v 22 -13 0
v 20 -13 0
v 20 -13 2
v 22 -13 2
v 20 -13 14
v 22 -13 14
v 36 -1 14
v 28 -1 14
v 28 -1 20
v 36 -1 20
v 22 -13 22
v 28 -13 22
v 22 -13 23
v 28 -13 23
v 20 -13 22
v 20 -13 23
v 28 -9 23
v 28 -9 22
v 25 -13 23
v 25 -13 22
v 28 -9 14
v 25 -13 14
f 1 2 3
f 2 4 3
f 5 6 7
f 8 5 7
f 9 10 11
f 12 9 11
f 13 14 15
f 13 16 14
f 17 18 19
f 17 20 18
f 5 8 21
f 8 22 21
f 15 14 23
f 14 24 23
f 1 3 25
f 3 26 25
f 4 27 28
f 4 2 27
f 28 29 30
f 28 27 29
f 31 16 13
f 31 32 16
f 33 34 35
f 33 36 34
f 6 37 38
f 7 6 38
f 37 39 40
f 38 37 40
f 10 41 42
f 11 10 42
f 43 44 45
f 43 46 44
f 27 47 29
f 27 48 47
f 8 7 49
f 50 8 49
f 50 49 51
f 52 50 51
f 12 11 53
f 54 12 53
f 54 53 55
f 56 54 55
f 57 15 58
f 57 13 15
f 59 58 60
f 59 57 58
f 61 62 63
f 61 64 62
f 65 63 66
f 65 61 63
f 67 13 57
f 67 31 13
f 68 57 59
f 68 67 57
f 69 35 70
f 69 33 35
f 71 70 72
f 71 69 70
f 7 38 73
f 49 7 73
f 49 73 74
f 51 49 74
f 38 40 75
f 73 38 75
f 73 75 76
f 74 73 76
f 77 45 78
f 77 43 45
f 79 78 80
f 79 77 78
f 11 42 81
f 53 11 81
f 53 81 82
f 55 53 82
f 83 84 85
f 84 86 85
f 84 87 86
f 87 88 86
f 87 89 88
f 89 90 88
f 91 92 93
f 92 94 93
f 95 96 97
f 96 98 97
f 99 100 101
f 100 102 101
f 103 104 105
f 106 103 105
f 107 103 106
f 108 107 106
f 72 109 110
f 72 70 109
f 110 111 112
f 110 109 111
f 113 114 115
f 113 116 114
f 117 116 113
f 117 118 116
f 116 118 94
f 92 116 94
f 116 92 114
f 119 120 121
f 122 119 121
f 120 123 124
f 121 120 124
f 125 126 127
f 125 128 126
f 129 128 125
f 129 130 128
f 131 132 133
f 131 134 132
f 135 133 136
f 135 131 133
f 137 138 139
f 137 140 138
f 141 131 135
f 141 142 131
f 143 144 145
f 144 146 145
f 147 148 149
f 148 150 149
f 128 130 151
f 130 152 151
f 111 109 153
f 109 154 153
f 41 155 156
f 42 41 156
f 155 89 87
f 156 155 87
f 157 46 43
f 157 158 46
f 92 158 157
f 92 91 158
f 159 95 160
f 159 96 95
f 48 160 47
f 48 159 160
f 161 43 77
f 161 157 43
f 114 157 161
f 114 92 157
f 162 163 164
f 162 165 163
f 127 165 162
f 127 126 165
f 42 156 166
f 81 42 166
f 156 87 84
f 166 156 84
f 81 166 167
f 82 81 167
f 166 84 83
f 167 166 83
f 168 136 169
f 168 135 136
f 170 169 171
f 170 168 169
f 172 135 168
f 172 141 135
f 173 168 170
f 173 172 168
f 174 175 176
f 177 174 176
f 177 176 178
f 179 177 178
f 180 80 181
f 180 79 80
f 182 181 183
f 182 180 181
f 55 82 184
f 185 55 184
f 185 184 186
f 187 185 186
f 188 83 189
f 190 188 189
f 191 192 193
f 191 115 192
f 194 195 196
f 194 197 195
f 198 180 182
f 198 199 180
f 200 197 194
f 200 201 197
f 193 199 198
f 193 192 199
f 82 167 202
f 184 82 202
f 184 202 203
f 186 184 203
f 167 83 188
f 202 167 188
f 202 188 190
f 203 202 190
f 105 204 205
f 204 206 205
f 207 208 197
f 208 195 197
f 209 210 211
f 100 207 201
f 207 197 201
f 212 213 214
f 213 215 214
f 216 217 218
f 217 219 218
f 220 215 213
f 221 220 213
f 222 220 221
f 223 222 221
f 224 225 226
f 227 224 226
f 228 229 230
f 229 231 230
f 232 233 234
f 232 234 235
f 234 236 235
f 237 238 239
f 240 237 239
f 240 239 241
f 242 240 241
f 233 237 240
f 234 233 240
f 234 240 242
f 236 234 242
f 243 244 245
f 246 243 245
f 246 245 225
f 224 246 225
f 236 242 247
f 248 236 247
f 248 247 249
f 250 248 249
f 242 241 251
f 247 242 251
f 247 251 252
f 249 247 252
f 253 254 255
f 254 256 255
f 254 257 256
f 257 258 256
v -6 -1 38
v -1 -1 38
v -6 1 38
v -1 1 38
v -1 -1 38
v -1 -1 36
v -1 1 38
v -1 1 36
v -1 -1 26
v -6 -1 26
v -1 1 26
v -6 1 26
v -6 -1 36
v -6 -1 38
v -6 1 36
v -6 1 38
v -6 -3 36
v -1 -3 36
v -6 -3 38
v -1 -3 38
v -1 -3 34
v -6 -3 34
v 8 1 36
v 8 -1 36
v 8 1 26
v 8 -1 26
v -6 -1 26
v -6 1 26
v -1 1 36
v -1 -1 36
v 3 1 36
v 3 -1 36
v 3 -3 36
v 3 -3 34
v 3 -1 26
v 3 1 26
v 3 1 38
v 3 -1 38
v 8 1 38
v 8 -1 38
v 8 -3 36
v 8 -3 34
v 8 -1 26
v 8 1 26
v 3 1 36
v 3 -1 36
v 3 1 38
v 3 -1 38
v 3 -3 38
v 8 -3 38
v 8 -1 38
v 8 1 38
v -6 -3 36
v -6 -3 34
v 3 -3 36
v -1 -3 36
v -1 -1 26
v 3 -1 26
v -1 -3 34
v 3 -3 34
v 3 -3 38
v 3 -3 36
v -6 -3 38
v -6 -1 26
v -6 -3 34
v -1 -3 36
v -1 -3 38
v -1 -3 38
v -6 -3 38
v 8 -1 26
v 8 -3 34
v 8 -3 34
v 8 -3 36
v 8 -3 38
v 8 -3 38
v 3 -3 38
v -6 1 38
v -1 1 38
v -6 1 36
v -1 1 36
v -6 1 26
v -1 1 26
v 3 1 26
v 3 1 36
v 8 1 26
v 8 1 36
v 8 1 38
v 3 1 38
f 259 260 261
f 260 262 261
f 263 264 265
f 264 266 265
f 267 268 269
f 268 270 269
f 271 272 273
f 272 274 273
f 275 276 277
f 276 278 277
f 276 275 279
f 275 280 279
f 281 282 283
f 282 284 283
f 271 273 285
f 273 286 285
f 287 288 289
f 288 290 289
f 276 279 291
f 279 292 291
f 267 269 293
f 269 294 293
f 295 296 297
f 296 298 297
f 291 292 299
f 292 300 299
f 293 294 301
f 294 302 301
f 303 304 305
f 304 306 305
f 291 299 307
f 299 308 307
f 282 281 309
f 281 310 309
f 271 285 311
f 285 312 311
f 290 288 313
f 288 314 313
f 315 316 317
f 316 318 317
f 306 304 319
f 304 320 319
f 272 271 321
f 271 311 321
f 322 315 323
f 315 317 323
f 264 263 324
f 263 325 324
f 260 259 326
f 259 327 326
f 316 328 318
f 328 329 318
f 284 282 330
f 282 331 330
f 282 309 331
f 309 332 331
f 298 296 333
f 296 334 333
f 335 336 337
f 336 338 337
f 337 338 339
f 338 340 339
f 340 338 341
f 338 342 341
f 341 342 343
f 342 344 343
f 344 342 345
f 342 346 345
v 32 -23 -10
v 36 -23 -10
v 32 -23 -6
v 36 -23 -6
v 32 -23 0
v 36 -23 0
v 36 -18 0
v 32 -18 0
v 32 -18 -6
v 36 -18 -6
v 36 -15 -6
v 32 -15 -6
v 36 -23 -6
v 36 -23 -10
v 36 -18 -10
v 36 -18 -6
v 36 -15 -10
v 36 -15 -6
v 36 -18 -16
v 32 -23 -16
v 32 -18 -16
v 36 -23 -16
v 36 -15 -10
v 32 -18 -10
v 32 -15 -10
v 36 -18 -10
v 24 -18 -10
v 24 -23 -6
v 24 -18 -6
v 24 -23 -10
v 32 -15 -10
v 32 -18 -6
v 32 -15 -6
v 32 -18 -10
v 32 -23 -6
v 24 -23 -6
v 24 -18 -6
v 32 -23 -10
v 24 -18 -10
v 24 -23 -10
v 24 -23 -10
v 24 -23 -6
v 28 -23 -10
v 28 -21 -10
v 28 -23 -16
v 28 -21 -16
v 36 -18 -16
v 36 -23 -16
v 36 -23 -16
v 32 -23 -16
v 32 -23 0
v 36 -23 0
v 36 -23 0
v 36 -18 0
v 28 -21 -6
v 28 -23 -6
v 28 -21 0
v 28 -23 0
v 32 -23 -10
v 32 -18 -10
v 28 -23 -10
v 28 -21 -10
v 28 -23 -16
v 28 -23 -10
v 28 -21 -16
v 28 -23 -16
v 32 -18 -6
v 32 -23 -6
v 28 -21 -6
v 28 -23 -6
v 28 -23 -6
v 28 -23 0
v 28 -23 0
v 28 -21 0
v 32 -15 -6
v 36 -15 -6
v 32 -15 -10
v 36 -15 -10
v 32 -18 -6
v 32 -18 -10
v 24 -18 -6
v 24 -18 -10
v 36 -18 -10
v 32 -18 -16
v 36 -18 -16
v 36 -18 -6
v 36 -18 0
v 32 -18 0
v 32 -18 -10
v 32 -18 -16
v 28 -21 -10
v 28 -21 -16
v 32 -18 0
v 32 -18 -6
v 28 -21 0
v 28 -21 -6
f 347 348 349
f 348 350 349
f 351 352 353
f 354 351 353
f 355 356 357
f 358 355 357
f 359 360 361
f 362 359 361
f 362 361 363
f 364 362 363
f 365 366 367
f 365 368 366
f 369 370 371
f 369 372 370
f 373 374 375
f 373 376 374
f 377 378 379
f 377 380 378
f 381 355 382
f 355 383 382
f 370 384 385
f 384 386 385
f 347 349 387
f 349 388 387
f 389 390 391
f 390 392 391
f 361 360 393
f 360 394 393
f 348 347 395
f 347 396 395
f 349 350 397
f 350 398 397
f 359 362 399
f 362 400 399
f 401 402 403
f 402 404 403
f 405 406 407
f 406 408 407
f 396 347 409
f 347 410 409
f 367 366 411
f 366 412 411
f 413 414 415
f 414 416 415
f 349 397 417
f 397 418 417
f 351 354 419
f 354 420 419
f 421 422 423
f 422 424 423
f 425 426 427
f 426 428 427
f 426 429 430
f 429 431 430
f 432 425 433
f 425 434 433
f 435 436 437
f 436 438 437
f 439 440 441
f 440 442 441
v 3 -23 35
v 3 -23 46.0007
v 2.999999 -16 35
v 3 -16 46.00071
v 4.000231 -23 46
v 7.000231 -23 45.99965
v 4.000231 -17 46
v 7.000231 -21 45.99965
v 7.000231 -23 45.99965
v 6.998846 -23 35
v 7.000231 -21 45.99965
v 6.998846 -21 35
v 6.998846 -23 35
v 3.998845 -23 35
v 6.998846 -21 35
v 3.998845 -17 35
v 3.998845 -17 35
v 4.000231 -17 46
v 6.998846 -21 35
v 7.000231 -21 45.99965
v 6.998846 -23 35
v 7.000231 -23 45.99965
v 3.998845 -23 35
v 4.000231 -23 46
v 3 -23 35
v 3 -23 46.0007
v 2.999999 -16 35
v 3 -23 35
v 4.000231 -23 46
v 4.000231 -17 46
v 3 -23 46.0007
v 3 -16 46.00071
v 4.000231 -17 46
v 3.998845 -17 35
v 3 -16 46.00071
v 2.999999 -16 35
f 443 444 445
f 444 446 445
f 447 448 449
f 448 450 449
f 451 452 453
f 452 454 453
f 455 456 457
f 456 458 457
f 459 460 461
f 460 462 461
f 463 464 465
f 464 466 465
f 465 466 467
f 466 468 467
f 458 456 469
f 456 470 469
f 471 472 473
f 472 474 473
f 475 476 477
f 476 478 477
v -14 -15 38
v -14 -21 38
v -10 -21 38
v -14 -21 26
v -14 -15 26
v -10 -21 26
v -26 -21 38
v -18 -21 38
v -18 -15 38
v -26 -15 38
v -14 -15 22
v -18 -21 22
v -18 -15 22
v -14 -21 22
v -26 -21 22
v -26 -15 22
v -18 -15 26
v -26 -15 26
v -18 -9 26
v -26 -9 26
v -26 -9 38
v -18 -9 38
v -18 -21 26
v -26 -21 26
v -18 -21 22
v -26 -21 22
v -14 -15 26
v -14 -21 26
v -14 -15 22
v -14 -21 22
v -14 -21 26
v -14 -21 22
v -30 -21 26
v -30 -15 26
v -30 -21 22
v -30 -15 22
v -30 -21 38
v -30 -15 38
v -30 -21 22
v -30 -21 26
v -30 -15 22
v -30 -21 22
v -30 -21 32
v -30 -15 32
v -36 -15 32
v -36 -21 38
v -36 -15 38
v -36 -21 32
v -14 -21 38
v -10 -21 34
v -10 -21 38
v -14 -21 34
v -10 -21 26
v -10 -21 34
v -10 -21 26
v -14 -15 26
v -14 -15 34
v -26 -21 34
v -18 -21 34
v -26 -21 38
v -18 -21 38
v -26 -9 26
v -26 -15 34
v -26 -9 34
v -26 -15 26
v -26 -15 38
v -26 -9 38
v -18 -15 38
v -18 -15 34
v -18 -9 34
v -18 -9 38
v -18 -15 26
v -18 -9 26
v -30 -21 32
v -30 -21 38
v -36 -21 38
v -36 -15 38
v -30 -23 22
v -36 -21 22
v -36 -23 22
v -36 -21 32
v -36 -21 38
v -30 -15 32
v -30 -21 32
v -30 -21 22
v -30 -23 22
v -30 -21 32
v -36 -21 32
v -30 -23 22
v -36 -23 22
v -36 -23 22
v -36 -21 22
v -10 -21 38
v -10 -21 34
v -10 1 38
v -10 1 34
v -10 -21 34
v -14 -15 34
v -10 1 34
v -12.92963 1 34
v -12.92963 1 38
v -10 1 38
v -18 -15 34
v -18 1 34
v -18 -15 26
v -14 -15 26
v -18 -15 22
v -14 -15 22
v -26 -15 26
v -26 -15 22
v -30 -15 26
v -30 -15 22
v -10 1 38
v -10 1 34
v -12.92963 1 34
v -12.92963 1 38
v -18 -9 26
v -26 -9 26
v -26 -9 34
v -18 -9 34
v -26 -9 38
v -18 -9 38
v -18 -15 34
v -14 -15 34
v -18 1 34
v -18 1 38
v -26 -15 34
v -30 -15 32
v -30 -15 38
v -26 -15 38
v -36 -15 38
v -36 -15 32
v -36 -15 32
v -30 -15 32
v -36 -21 22
v -30 -21 22
v -18 -15 38
v -14 -15 38
v -18 1 38
v -12.92963 1 38
v -18 -15 34
v -18 -15 38
v -18 1 34
v -18 1 38
f 479 480 481
f 482 483 484
f 485 486 487
f 488 485 487
f 486 480 479
f 487 486 479
f 489 490 491
f 489 492 490
f 491 493 494
f 491 490 493
f 495 496 497
f 496 498 497
f 488 487 499
f 487 500 499
f 501 502 503
f 502 504 503
f 505 506 507
f 506 508 507
f 509 501 510
f 501 503 510
f 511 512 513
f 512 514 513
f 485 488 515
f 488 516 515
f 504 502 517
f 502 518 517
f 494 493 519
f 493 520 519
f 512 521 522
f 512 511 521
f 523 524 525
f 523 526 524
f 527 528 529
f 527 530 528
f 530 531 528
f 530 509 531
f 532 533 534
f 535 532 534
f 536 501 537
f 536 502 501
f 538 537 539
f 538 536 537
f 537 509 530
f 537 501 509
f 539 530 527
f 539 537 530
f 540 541 542
f 540 543 541
f 542 544 545
f 542 541 544
f 546 547 548
f 549 546 548
f 547 550 551
f 548 547 551
f 552 502 536
f 552 518 502
f 553 536 538
f 553 552 536
f 515 516 554
f 516 555 554
f 520 556 557
f 556 558 557
f 552 553 559
f 553 560 559
f 561 562 563
f 562 564 563
f 565 566 567
f 566 568 567
f 526 523 569
f 523 570 569
f 571 572 573
f 572 574 573
f 575 576 577
f 576 578 577
f 479 481 579
f 481 580 579
f 576 581 578
f 581 582 578
f 583 584 585
f 584 586 585
f 587 583 588
f 583 585 588
f 587 588 589
f 588 590 589
f 591 592 593
f 594 591 593
f 595 596 597
f 598 595 597
f 598 597 599
f 600 598 599
f 584 583 601
f 602 584 601
f 593 603 604
f 594 593 604
f 605 606 607
f 608 605 607
f 587 589 606
f 605 587 606
f 607 606 609
f 606 610 609
f 611 612 613
f 612 614 613
f 615 616 617
f 616 618 617
f 619 620 621
f 620 622 621
v -36 -24 -34
v -32 -24 -34
v -36 -24 -30
v -32 -24 -30
v -36 -24 -26
v -32 -24 -26
v -32 -21 -26
v -36 -21 -26
v -36 -15 -30
v -32 -15 -30
v -32 -7 -30
v -36 -7 -30
v -22 -24 -30
v -22 -24 -34
v -22 -15 -34
v -22 -15 -30
v -22 -7 -34
v -22 -7 -30
v -32 -15 -34
v -36 -24 -34
v -36 -15 -34
v -32 -24 -34
v -32 -7 -34
v -36 -7 -34
v -36 -15 -34
v -36 -24 -30
v -36 -15 -30
v -36 -24 -34
v -36 -7 -34
v -36 -7 -30
v -36 -24 -26
v -32 -24 -26
v -22 -24 -26
v -22 -21 -26
v -36 -21 -26
v -36 -24 -26
v -32 -15 -30
v -36 -15 -30
v -32 -21 -26
v -36 -21 -26
v -22 -15 -34
v -22 -7 -34
v -22 -24 -26
v -22 -24 -30
v -22 -15 -30
v -22 -21 -26
v -22 -21 -26
v -22 -24 -26
v -22 -24 -34
v -22 -24 -34
v -22 -7 -30
v -22 -15 -30
v -32 -7 -34
v -32 -7 -30
v -32 -3 -34
v -32 -3 -30
v -22 -3 -34
v -32 -3 -34
v -32 -3 -30
v -22 -3 -30
v -22 -3 -30
v -22 -3 -34
v -36 -7 -30
v -32 -7 -30
v -36 -7 -34
v -32 -7 -34
v -32 -3 -34
v -32 -3 -30
v -22 -3 -34
v -22 -3 -30
f 623 624 625
f 624 626 625
f 627 628 629
f 630 627 629
f 631 632 633
f 634 631 633
f 635 636 637
f 638 635 637
f 638 637 639
f 640 638 639
f 641 642 643
f 641 644 642
f 645 643 646
f 645 641 643
f 647 648 649
f 647 650 648
f 651 649 652
f 651 647 649
f 625 626 653
f 626 654 653
f 635 638 655
f 638 656 655
f 649 648 657
f 648 658 657
f 659 660 661
f 660 662 661
f 641 645 663
f 645 664 663
f 654 626 665
f 626 666 665
f 659 661 667
f 661 668 667
f 629 628 669
f 628 670 669
f 626 624 666
f 624 671 666
f 644 641 672
f 641 663 672
f 633 632 673
f 632 674 673
f 675 676 677
f 676 678 677
f 664 645 679
f 645 680 679
f 633 673 681
f 673 682 681
f 640 639 683
f 639 684 683
f 685 686 687
f 686 688 687
f 689 690 691
f 690 692 691
v -26 -21 12
v -22 -21 12
v -26 -15 12
v -22 -15 12
v -22 -21 12
v -22 -21 2
v -22 -15 12
v -22 -15 2
v -22 -21 2
v -26 -21 2
v -22 -15 2
v -26 -15 2
v -26 -21 2
v -26 -21 12
v -26 -15 2
v -26 -15 12
v -26 -21 2
v -22 -21 2
v -26 -21 12
v -22 -21 12
v -26 -15 12
v -22 -15 12
v -26 -15 2
v -22 -15 2
f 693 694 695
f 694 696 695
f 697 698 699
f 698 700 699
f 701 702 703
f 702 704 703
f 705 706 707
f 706 708 707
f 709 710 711
f 710 712 711
f 713 714 715
f 714 716 715
v -18 -15 38
v -15 -15 38
v -18 -12 38
v -15 -12 38
v -15 -15 38
v -15 -15 35
v -15 -12 38
v -15 -12 35
v -15 -15 35
v -18 -15 35
v -15 -12 35
v -18 -12 35
v -18 -15 35
v -18 -15 38
v -18 -12 35
v -18 -12 38
v -18 -12 38
v -15 -12 38
v -18 -12 35
v -15 -12 35
v -18 -15 35
v -15 -15 35
v -18 -15 38
v -15 -15 38
f 717 718 719
f 718 720 719
f 721 722 723
f 722 724 723
f 725 726 727
f 726 728 727
f 729 730 731
f 730 732 731
f 733 734 735
f 734 736 735
f 737 738 739
f 738 740 739
v -26 -3 6
v -23.49903 -3 2.878277
v -26 1 6
v -23.49903 1 2.878277
v -23.49903 -3 2.878277
v -26.23054 -3 0.6899291
v -23.49903 1 2.878277
v -26.23054 1 0.6899291
v -26.23054 -3 0.6899291
v -28.73151 -3 3.811652
v -26.23054 1 0.6899291
v -28.73151 1 3.811652
v -28.73151 -3 3.811652
v -26 -3 6
v -28.73151 1 3.811652
v -26 1 6
v -26 1 6
v -23.49903 1 2.878277
v -28.73151 1 3.811652
v -26.23054 1 0.6899291
v -28.73151 -3 3.811652
v -26.23054 -3 0.6899291
v -26 -3 6
v -23.49903 -3 2.878277
f 741 742 743
f 742 744 743
f 745 746 747
f 746 748 747
f 749 750 751
f 750 752 751
f 753 754 755
f 754 756 755
f 757 758 759
f 758 760 759
f 761 762 763
f 762 764 763
v -2 -24 38
v 4 -24 38
v 4 -18 38
v -2 -18 38
v 4 -18 26
v -2 -24 26
v -2 -18 26
v 4 -24 26
v -2 -24 34
v 4 -24 30
v 4 -24 34
v -2 -24 30
v 4 -24 30
v 4 -18 30
v -2 -24 30
v -2 -18 30
v 4 -18 34
v 4 -24 34
v -2 -18 34
v -2 -24 34
v 4 -18 30
v 4 -18 34
v -2 -18 30
v -2 -18 34
v -2 -24 34.25
v 4 -24 34.25
v -2 -24 38
v 4 -24 38
v 4 -24 38
v 4 -24 34.25
v 4 -18 34.25
v 4 -18 38
v -2 -18 34.25
v -2 -24 38
v -2 -18 38
v -2 -24 34.25
v 4 -24 29.75
v -2 -24 29.75
v 4 -17.75 38
v -2 -17.75 38
v 4 -17.75 26
v -2 -17.75 26
v 4 -17.75 34.25
v 4 -17.75 38
v -2 -17.75 34.25
v -2 -17.75 38
v 4 -17 38
v -2 -17 38
v 4 -13 38
v -2 -13 38
v 4 -17 26
v -2 -17 26
v 4 -13 26
v -2 -13 26
v 4 -17.75 34
v 4 -17.75 30
v 4 -17 30
v 4 -17 34
v 4 -13 30
v 4 -13 34
v -2 -17 30
v -2 -17.75 34
v -2 -17 34
v -2 -17.75 30
v -2 -13 30
v -2 -13 34
v 4 -17 34.25
v 4 -17 38
v 4 -13 34.25
v 4 -13 38
v -2 -17 34.25
v -2 -17 38
v -2 -13 34.25
v -2 -13 38
v 4 -17.75 29.75
v 4 -17 29.75
v 4 -13 29.75
v -2 -17 29.75
v -2 -17.75 29.75
v -2 -13 29.75
v -2 -24 28
v 4 -24 26
v 4 -24 28
v -2 -24 26
v 4 -24 29.75
v 4 -24 28
v 4 -18 28
v 4 -18 29.75
v 10 -24 28
v 10 -24 26
v 10 -18 26
v 10 -18 28
v -2 -18 28
v -2 -24 29.75
v -2 -18 29.75
v -2 -24 28
v -2 -18 26
v -2 -24 26
v 4 -17.75 28
v 10 -17.75 26
v 10 -17.75 28
v -2 -17.75 28
v -2 -17.75 26
v 4 -17 28
v 10 -17 26
v 10 -17 28
v 4 -13 28
v 4 -17 26
v 4 -13 26
v -2 -17 28
v -2 -17 26
v -2 -13 28
v -2 -13 26
v 10 -24 28
v 10 -24 26
v 4 -22 22
v 4 -17 22
v 10 -22 22
v 10 -17 22
v 4 -17 28
v 4 -17.75 28
v 10 -17 28
v 10 -17.75 28
v 4 -23 22
v 10 -23 22
v 4 -18 28
v 10 -18 28
v 4 -24 22
v 10 -24 22
v 4 -24 28
v 10 -24 28
v 4 -24 26
v 4 -18 26
v 4 -24 22
v 4 -23 22
v 10 -24 22
v 4 -24 22
v 10 -23 22
v 10 -24 22
v 4 -17.75 26
v 4 -22 22
v 10 -22 22
v 4 -17 26
v 4 -17 22
v 10 -17 22
v 4.25 -24 34.25
v 4.25 -24 34
v 4.25 -18 34
v 4.25 -18 34.25
v -2.25 -18 34
v -2.25 -24 34.25
v -2.25 -18 34.25
v -2.25 -24 34
v 4.25 -24 30
v 4.25 -24 29.75
v 4.25 -18 29.75
v 4.25 -18 30
v -2.25 -18 29.75
v -2.25 -24 30
v -2.25 -18 30
v -2.25 -24 29.75
v 4.25 -17.75 30
v 4.25 -17.75 34
v -2.25 -17.75 30
v -2.25 -17.75 34
v 4.25 -17.75 34.25
v -2.25 -17.75 34.25
v 4.25 -17.75 29.75
v -2.25 -17.75 29.75
v 4 -18 34
v 4 -18 30
v 4.25 -18 34
v 4.25 -18 30
v 4 -17.75 29.75
v 4 -17.75 30
v 4.25 -17.75 29.75
v 4.25 -17.75 30
v 4 -17.75 34.25
v 4 -18 34.25
v 4.25 -17.75 34.25
v 4.25 -18 34.25
v 4 -17.75 34
v 4.25 -17.75 34
v 4 -18 29.75
v 4 -17.75 29.75
v 4.25 -18 29.75
v 4.25 -17.75 29.75
v 4 -24 30
v 4 -24 29.75
v 4.25 -24 30
v 4.25 -24 29.75
v 4 -24 29.75
v 4.25 -24 29.75
v 4 -18 30
v 4 -24 30
v 4.25 -18 30
v 4.25 -24 30
v 4 -17.75 34.25
v 4.25 -17.75 34.25
v 4 -24 34.25
v 4 -24 34
v 4.25 -24 34.25
v 4.25 -24 34
v 4 -24 34
v 4 -18 34
v 4.25 -24 34
v 4.25 -18 34
v 4 -24 34.25
v 4.25 -24 34.25
v -2 -18 30
v -2 -18 34
v -2.25 -18 30
v -2.25 -18 34
v -2 -17.75 30
v -2 -17.75 29.75
v -2.25 -17.75 30
v -2.25 -17.75 29.75
v -2 -17.75 29.75
v -2 -18 29.75
v -2.25 -17.75 29.75
v -2.25 -18 29.75
v -2 -24 29.75
v -2.25 -24 29.75
v -2 -18 34
v -2 -24 34
v -2.25 -18 34
v -2.25 -24 34
v -2 -17.75 34
v -2.25 -17.75 34
v -2 -18 34.25
v -2 -17.75 34.25
v -2.25 -18 34.25
v -2.25 -17.75 34.25
v -2 -17.75 34.25
v -2.25 -17.75 34.25
v -2 -24 34.25
v -2.25 -24 34.25
v -2 -24 34
v -2 -24 34.25
v -2.25 -24 34
v -2.25 -24 34.25
v -2 -24 30
v -2 -18 30
v -2.25 -24 30
v -2.25 -18 30
v -2 -24 29.75
v -2 -24 30
v -2.25 -24 29.75
v -2.25 -24 30
v 4 -13 30
v -2 -13 30
v -2 -13 34
v 4 -13 34
v -2 -13 34.25
v 4 -13 34.25
v -2 -13 38
v 4 -13 38
v 4 -13 29.75
v -2 -13 29.75
v 4 -13 26
v -2 -13 26
v -2 -13 28
v 4 -13 28
v 4 -17 26
v 4 -17 28
v 10 -17 26
v 10 -17 28
v 4 -17 22
v 10 -17 22
f 765 766 767
f 768 765 767
f 769 770 771
f 769 772 770
f 773 774 775
f 773 776 774
f 777 778 779
f 778 780 779
f 781 782 783
f 782 784 783
f 785 786 787
f 786 788 787
f 789 775 790
f 789 773 775
f 791 790 792
f 791 789 790
f 793 794 795
f 796 793 795
f 797 798 799
f 797 800 798
f 776 801 774
f 776 802 801
f 768 767 803
f 804 768 803
f 805 771 806
f 805 769 771
f 796 795 807
f 808 796 807
f 809 799 810
f 809 797 799
f 804 803 811
f 812 804 811
f 812 811 813
f 814 812 813
f 815 806 816
f 815 805 806
f 817 816 818
f 817 815 816
f 819 820 821
f 822 819 821
f 822 821 823
f 824 822 823
f 825 826 827
f 825 828 826
f 829 827 830
f 829 825 827
f 808 807 831
f 832 808 831
f 832 831 833
f 834 832 833
f 807 819 822
f 831 807 822
f 831 822 824
f 833 831 824
f 835 810 836
f 835 809 810
f 837 836 838
f 837 835 836
f 827 809 835
f 827 826 809
f 830 835 837
f 830 827 835
f 820 839 840
f 821 820 840
f 821 840 841
f 823 821 841
f 842 828 825
f 842 843 828
f 844 825 829
f 844 842 825
f 845 846 847
f 845 848 846
f 802 847 801
f 802 845 847
f 849 850 851
f 852 849 851
f 853 854 855
f 856 853 855
f 857 858 859
f 857 860 858
f 861 860 857
f 861 862 860
f 852 851 863
f 839 852 863
f 856 855 864
f 865 856 864
f 866 859 843
f 866 857 859
f 867 857 866
f 867 861 857
f 839 863 868
f 840 839 868
f 865 864 869
f 870 865 869
f 840 868 871
f 841 840 871
f 868 872 873
f 871 868 873
f 874 843 842
f 874 866 843
f 875 866 874
f 875 867 866
f 876 842 844
f 876 874 842
f 877 874 876
f 877 875 874
f 847 846 878
f 846 879 878
f 880 881 882
f 881 883 882
f 884 885 886
f 885 887 886
f 888 880 889
f 880 882 889
f 885 890 887
f 890 891 887
f 892 888 893
f 888 889 893
f 890 894 891
f 894 895 891
f 896 897 898
f 897 899 898
f 879 846 900
f 846 901 900
f 855 854 902
f 854 903 902
f 897 904 899
f 904 905 899
f 864 855 906
f 855 902 906
f 904 907 905
f 907 908 905
f 869 864 909
f 864 906 909
f 910 911 912
f 913 910 912
f 914 915 916
f 914 917 915
f 918 919 920
f 921 918 920
f 922 923 924
f 922 925 923
f 912 921 926
f 927 912 926
f 928 914 929
f 928 924 914
f 913 912 927
f 930 913 927
f 929 916 931
f 929 914 916
f 921 920 932
f 926 921 932
f 933 924 928
f 933 922 924
f 934 935 936
f 935 937 936
f 938 939 940
f 939 941 940
f 942 943 944
f 943 945 944
f 939 946 941
f 946 947 941
f 948 949 950
f 949 951 950
f 952 953 954
f 953 955 954
f 956 948 957
f 948 950 957
f 958 959 960
f 959 961 960
f 946 962 947
f 962 963 947
f 964 965 966
f 965 967 966
f 968 969 970
f 969 971 970
f 943 972 945
f 972 973 945
f 974 975 976
f 975 977 976
f 978 979 980
f 979 981 980
f 982 983 984
f 983 985 984
f 983 986 985
f 986 987 985
f 988 989 990
f 989 991 990
f 992 978 993
f 978 980 993
f 994 995 996
f 995 997 996
f 998 992 999
f 992 993 999
f 1000 994 1001
f 994 996 1001
f 1002 1003 1004
f 1003 1005 1004
f 1006 1007 1008
f 1007 1009 1008
f 1010 1011 1012
f 1011 1013 1012
f 1014 1015 1016
f 1017 1014 1016
f 1017 1016 1018
f 1019 1017 1018
f 1019 1018 1020
f 1021 1019 1020
f 1022 1023 1015
f 1014 1022 1015
f 1024 1025 1026
f 1027 1024 1026
f 1027 1026 1023
f 1022 1027 1023
f 1028 1029 1030
f 1029 1031 1030
f 1028 1030 1032
f 1030 1033 1032
v -4 -21 -22
v 2 -21 -22
v -4 -21 -18
v 2 -21 -18
v -4 -21 -18
v 2 -21 -18
v 2 -15 -18
v -4 -15 -18
v 2 -13 -18
v -4 -13 -18
v 2 -21 -18
v 2 -21 -22
v 2 -15 -22
v 2 -15 -18
v 2 -13 -22
v 2 -13 -18
v 2 -15 -22
v -4 -21 -22
v -4 -15 -22
v 2 -21 -22
v 2 -13 -35
v -4 -15 -35
v -4 -13 -35
v 2 -15 -35
v -4 -15 -22
v -4 -21 -18
v -4 -15 -18
v -4 -21 -22
v -4 -13 -22
v -4 -13 -18
v -4 -13 -30
v -4 -15 -30
v -4 -13 -35
v -4 -15 -35
v 2 -15 -30
v 2 -13 -30
v 2 -15 -35
v 2 -13 -35
v -4 -15 -22
v 2 -15 -30
v 2 -15 -22
v -4 -15 -30
v 2 -15 -35
v -4 -15 -35
v 2 -9 -35
v -4 -9 -35
v -4 -9 -35
v 2 -9 -35
v -4 -13 -18
v 2 -13 -18
v -4 -13 -22
v 2 -13 -22
v 2 -13 -30
v -4 -13 -30
v 2 -9 -35
v -4 -9 -35
v -4 -13 -30
v 2 -13 -30
f 1034 1035 1036
f 1035 1037 1036
f 1038 1039 1040
f 1041 1038 1040
f 1041 1040 1042
f 1043 1041 1042
f 1044 1045 1046
f 1047 1044 1046
f 1047 1046 1048
f 1049 1047 1048
f 1050 1051 1052
f 1050 1053 1051
f 1054 1055 1056
f 1054 1057 1055
f 1058 1059 1060
f 1058 1061 1059
f 1062 1060 1063
f 1062 1058 1060
f 1064 1058 1062
f 1064 1065 1058
f 1066 1065 1064
f 1066 1067 1065
f 1046 1068 1069
f 1048 1046 1069
f 1068 1070 1071
f 1069 1068 1071
f 1072 1073 1074
f 1072 1075 1073
f 1075 1076 1073
f 1075 1077 1076
f 1054 1056 1078
f 1056 1079 1078
f 1066 1064 1080
f 1071 1081 1069
f 1082 1083 1084
f 1083 1085 1084
f 1086 1087 1084
f 1085 1086 1084
f 1088 1089 1090
f 1091 1088 1090
v -10.00001 -19 -10
v -9.999989 -19 -4
v -10.00001 -13 -10
v -9.999989 -13 -4
v -9.999989 -19 -4
v -5 -19 -4.00001
v -9.999989 -13 -4
v -5 -17 -4.00001
v -5 -19 -4.00001
v -5 -19 -10.00001
v -5 -17 -4.00001
v -5 -17 -10.00001
v -5 -19 -10.00001
v -10.00001 -19 -10
v -5 -17 -10.00001
v -10.00001 -13 -10
v -5 -19 -10.00001
v -5 -19 -4.00001
v -10.00001 -19 -10
v -9.999989 -19 -4
v -10.00001 -13 -10
v -9.999989 -13 -4
v -5 -17 -10.00001
v -5 -17 -4.00001
f 1092 1093 1094
f 1093 1095 1094
f 1096 1097 1098
f 1097 1099 1098
f 1100 1101 1102
f 1101 1103 1102
f 1104 1105 1106
f 1105 1107 1106
f 1108 1109 1110
f 1109 1111 1110
f 1112 1113 1114
f 1113 1115 1114
v 36.00037 -23 -25.99892
v 36.00127 -23 -33.99965
v 36.00037 -13 -25.99892
v 36.00127 -13 -33.99965
v 28.00127 -23 -33.99965
v 18 -23 -33.99966
v 28.00127 -13 -33.99965
v 18 -13 -33.99966
v 7.999996 -23 -33.99967
v 7.999995 -23 -30.00002
v 7.999996 -21 -33.99968
v 7.999995 -21 -30.00002
v 17.99999 -23 -30.00001
v 28.00036 -23 -30.00001
v 17.99999 -13 -30
v 28.00036 -13 -30
v 17.99999 -23 -30.00001
v 18 -23 -33.99966
v 28.00036 -23 -30.00001
v 28.00127 -23 -33.99965
v 36.00037 -23 -25.99892
v 36.00127 -23 -33.99965
v 27.99964 -13 -16
v 27.99964 -23 -16
v 35.99965 -13 -16
v 35.99964 -23 -16
v 36.00127 -23 -33.99965
v 36.00127 -13 -33.99965
v 24 -13 -30
v 24 -23 -30.00001
v 24 -13 -16
v 24 -23 -16
v 27.99964 -23 -16
v 35.99964 -23 -16
v 36.00037 -23 -25.99892
v 36.00037 -13 -25.99892
v 35.99964 -23 -16
v 35.99965 -13 -16
v 28.00127 -13 -33.99965
v 28.00036 -13 -30
v 28.00127 -5 -33.99965
v 28.00036 -5 -25.99964
v 36.00128 -5 -33.99965
v 28.00127 -5 -33.99965
v 36.00037 -5 -25.99892
v 36.00128 -5 -33.99965
v 28.00036 -13 -30
v 36.00037 -13 -25.99892
v 28.00018 -13 -20
v 36.00019 -13 -20
v 28.00036 -5 -25.99964
v 28.00036 -13 -30
v 28.00018 -13 -20
v 36.00037 -13 -25.99892
v 36.00037 -5 -25.99892
v 36.00019 -13 -20
v 36.00037 -5 -25.99892
v 28.00036 -5 -25.99964
v 36.00019 -13 -20
v 28.00018 -13 -20
v 28.00036 -13 -30
v 28.00036 -23 -30.00001
v 24 -13 -30
v 24 -23 -30.00001
v 24 -23 -30.00001
v 24 -23 -16
v 24 -23 -16
v 24 -13 -16
v 7.999996 -23 -33.99967
v 7.999995 -23 -30.00002
v 7.999996 -21 -33.99968
v 7.999996 -23 -33.99967
v 7.999995 -23 -30.00002
v 7.999995 -21 -30.00002
v 28.00036 -13 -30
v 28.00127 -13 -33.99965
v 17.99999 -13 -30
v 18 -13 -33.99966
v 28.00127 -5 -33.99965
v 28.00036 -5 -25.99964
v 36.00128 -5 -33.99965
v 36.00037 -5 -25.99892
v 36.00037 -13 -25.99892
v 35.99965 -13 -16
v 27.99964 -13 -16
v 24 -13 -16
v 24 -13 -30
v 17.99999 -13 -30
v 18 -13 -33.99966
v 7.999995 -21 -30.00002
v 7.999996 -21 -33.99968
f 1116 1117 1118
f 1117 1119 1118
f 1120 1121 1122
f 1121 1123 1122
f 1124 1125 1126
f 1125 1127 1126
f 1128 1129 1130
f 1129 1131 1130
f 1132 1133 1134
f 1133 1135 1134
f 1134 1135 1136
f 1135 1137 1136
f 1138 1139 1140
f 1139 1141 1140
f 1120 1122 1142
f 1122 1143 1142
f 1144 1145 1146
f 1145 1147 1146
f 1134 1136 1148
f 1136 1149 1148
f 1150 1151 1152
f 1151 1153 1152
f 1154 1155 1156
f 1155 1157 1156
f 1143 1122 1158
f 1122 1159 1158
f 1118 1119 1160
f 1119 1161 1160
f 1162 1163 1164
f 1163 1165 1164
f 1166 1167 1168
f 1169 1170 1171
f 1172 1173 1174
f 1173 1175 1174
f 1176 1177 1178
f 1177 1179 1178
f 1134 1148 1180
f 1148 1181 1180
f 1139 1138 1182
f 1138 1183 1182
f 1133 1132 1184
f 1132 1185 1184
f 1123 1121 1186
f 1121 1187 1186
f 1128 1130 1188
f 1130 1189 1188
f 1190 1191 1192
f 1191 1193 1192
f 1194 1195 1196
f 1195 1197 1196
f 1198 1190 1199
f 1190 1200 1199
f 1200 1190 1201
f 1190 1202 1201
f 1203 1204 1205
f 1204 1206 1205
v 8 -24 6
v 8 -24 -2
v 14 -24 6
v 14 -24 -2
v 2 -24 -2
v 8 -24 -4
v 2 -24 -4
v 2 -24 6
v 2 -24 8
v 8 -24 8
v -10 -24 -2
v -4 -24 -4
v -4 -24 -2
v -10 -24 -4
v -10 -24 6
v -4 -24 6
v -10 -24 8
v -4 -24 8
v 2 -13 8
v -4 -13 8
v 2 -9 -4
v -4 -9 -4
v 8 -17 -2
v 8 -17 -4
v 8 -13 -4
v 8 -13 -2
v 8 -17 8
v 8 -17 6
v 8 -13 6
v 8 -13 8
v 14 -17 6
v 14 -17 -2
v 14 -13 -2
v 14 -13 6
v 8 -17 6
v 14 -17 6
v 14 -13 6
v 8 -13 6
v 2 -24 16
v 8 -24 16
v 8 -21 16
v 2 -21 16
v 2 -17 8
v 8 -17 8
v 8 -13 8
v 2 -13 8
v 8 -13 -4
v 2 -17 -4
v 2 -9 -4
v 8 -17 -4
v 2 -17 -4
v 2 -24 8
v 2 -17 8
v 2 -24 -4
v 2 -9 -4
v 2 -13 8
v 2 -24 12
v 8 -24 12
v 12 -24 8
v 12 -17 8
v 12 -24 12
v 12 -17 12
v 2 -17 12
v 2 -24 12
v 12 -24 12
v 12 -24 8
v 12 -21 16
v 12 -24 16
v 12 -24 6
v 12 -17 6
v 12 -24 6
v 2 -21 16
v 2 -24 16
v 8 -24 16
v 12 -24 16
v 12 -24 16
v 12 -21 16
v 2 -24 16
v -10 -24 12
v -4 -24 12
v -10 -24 16
v -4 -24 16
v 8 -24 -12
v 2 -24 -12
v -4 -24 8
v 2 -24 8
v 2 -21 8
v -4 -21 8
v -4 -24 -12
v -10 -24 -12
v 2 -24 -4
v 2 -17 -4
v 2 -24 8
v 2 -21 8
v 2 -24 -18
v -4 -24 -18
v 8 -24 -18
v -10 -24 -18
v 8 -13 -4
v 8 -17 -2
v 8 -13 -2
v 8 -17 -4
v 8 -9 -4
v 8 -9 -2
v 8 -17 -4
v 8 -13 -4
v 4 -17 -4
v 8 -17 -10
v 8 -17 -4
v 4 -17 -10
v 4 -17 -4
v 8 -17 -2
v 14 -13 -2
v 14 -17 -2
v 8 -13 -2
v 14 -24 -2
v 14 -24 -4
v 14 -19 -4
v 14 -19 -2
v 8 -19 -2
v 8 -19 -4
v 8 -24 8
v 8 -24 6
v 8 -19 6
v 8 -19 8
v 14 -24 6
v 14 -19 6
v 8 -24 6
v 14 -24 6
v 14 -19 6
v 8 -19 6
v 14 -19 -24
v 2 -24 -24
v 2 -19 -24
v 14 -24 -24
v 8 -17 -18
v 2 -19 -18
v 2 -17 -18
v 8 -19 -18
v 12 -17 6
v 8 -19 6
v 8 -17 6
v 12 -24 6
v 8 -24 6
v 8 -19 6
v 8 -24 8
v 8 -19 8
v 8 -24 6
v 8 -17 6
v 8 -17 8
v -22 -19 -4
v -22 -24 -2
v -22 -19 -2
v -22 -24 -4
v -22 -15 -4
v -22 -17 -2
v -22 -19 6
v -22 -24 8
v -22 -19 8
v -22 -24 6
v -22 -17 6
v -22 -17 8
v -10 -24 16
v -4 -24 16
v -4 -21 16
v -10 -21 16
v -4 -19 -4
v -10 -24 -4
v -10 -19 -4
v -4 -24 -4
v -4 -17 -4
v -10 -17 -4
v -4 -24 8
v -4 -24 -4
v -4 -19 -4
v -4 -19 8
v -4 -17 -4
v -4 -17 8
v -4 -24 12
v -4 -19 12
v -4 -17 12
v -22 -19 12
v -22 -17 12
v -22 -24 12
v -4 -21 16
v -4 -24 16
v -10 -17 12
v -10 -19 12
v -10 -21 16
v -10 -24 12
v -10 -24 16
v -10 -17 -12
v -10 -19 -4
v -10 -17 -4
v -10 -24 -12
v -10 -24 -4
v 8 -19 -12
v 8 -17 -12
v 14 -24 -12
v 14 -19 -12
v -10 -24 -4
v -4 -24 -4
v -4 -19 -4
v -10 -19 -4
v -4 -17 -4
v -10 -17 -4
v -4 -24 -24
v -4 -19 -24
v -4 -19 -18
v -4 -17 -18
v -10 -24 -24
v -10 -19 -24
v -10 -19 -18
v -10 -17 -18
v -4 -17 -4
v -4 -19 -4
v -4 -21 8
v -4 -24 -4
v -4 -24 8
v -4 -19 -18
v -4 -24 -12
v -4 -19 -12
v -4 -24 -18
v -4 -17 -18
v -4 -17 -12
v 2 -19 -12
v 2 -19 -18
v 2 -17 -18
v 2 -17 -12
v 2 -24 -12
v 2 -24 -18
v 2 -19 -18
v 2 -24 -12
v 2 -19 -12
v 2 -24 -18
v 2 -17 -18
v 2 -17 -12
v 8 -19 -18
v 8 -17 -18
v 14 -24 -24
v 14 -19 -24
v -10 -17 -18
v -10 -19 -18
v -10 -24 -18
v -4 -19 -12
v -4 -19 -18
v -4 -17 -18
v -4 -17 -12
v -4 -24 -12
v -4 -24 -18
v 8 -19 -2
v 8 -19 -4
v 8 -19 -2
v 14 -19 -2
v 8 -24 -2
v 14 -24 -2
v 14 -24 -4
v 8 -19 -2
v 8 -24 -2
v 14 -19 -2
v 14 -24 -2
v 14 -24 -12
v 14 -24 -24
v 2 -24 -24
v -4 -24 -24
v -10 -24 -24
v -10 -24 -24
v -10 -19 -24
v -26 -7 8
v -22 -9 6
v -22 -9 8
v -26 -7 6
v -22 -9 -2
v -26 -7 -2
v -26 -7 -2
v -22 -7 -3.999294
v -22 -9 -2
v -26 -7 -4
v -32 -7 8
v -26 -7 6
v -26 -7 8
v -32 -7 6
v -36 -9 8
v -32 -7 6
v -32 -7 8
v -36 -9 6
v -26 -7 -2
v -32 -7 -2
v -32 -7 -2
v -36 -9 -2
v -32 -7 -2
v -26 -7 -2
v -32 -7 -4
v -36 -9 -2
v -32 -7 -4
v -32 -7 -2
v -36 -9 -4
v 8 -15 -4
v 8 -15 -2
v 14 -13 -4
v 8 -15 -4
v 14 -15 -4
v 14 -15 -2
v 8 -15 -2
v 14 -13 -2
v 8 -13 -2
v 14 -15 -4
v 14 -15 -2
v 14 -13 -4
v 8 -19 -8
v 8 -15 -4
v 14 -15 -4
v 8 -19 -8
v 14 -19 -8
v 14 -19 -8
v 14 -19 -4
v 8 -19 -4
v 14 -19 -8
v 8 -19 -8
v -18 -24 -2
v -18 -24 -4
v -22 -24 -2
v -22 -24 -4
v -18 -24 6
v -22 -24 6
v -18 -24 8
v -22 -24 8
v -22 -24 12
v -18 -24 12
v -18 -9 -18
v -9.983076 -1 -22
v -9.983076 -9 -18
v -18 -1 -22
v -22 -9 -18
v -22 -1 -22
v -18 -19 -18
v -22 -24 -18
v -22 -19 -18
v -18 -24 -18
v -10 -24 -18
v -18 -17 -18
v -22 -17 -18
v -22 -24 12
v -18 -24 12
v -18 -19 12
v -22 -19 12
v -10 -24 12
v -10 -19 12
v -18 -17 12
v -22 -17 12
v -10 -17 12
v -20 -13 8
v -22 -17 8
v -22 -13 8
v -18 -17 8
v -20 -11 8
v -22 -9 8
v -22 -13 8
v -22 -13 12
v -22 -9 8
v -22 -9 12
v -20 -13 12
v -20 -13 8
v -20 -11 8
v -20 -11 12
v -20 -13 12
v -22 -13 12
v -20 -11 12
v -22 -9 12
v -18 -17 12
v -18 -17 8
v -17 -17 12
v -17 -17 8
v -17 -17 8
v -17 -17 12
v -20 -9 8
v -20 -9 12
v -20 -9 8
v -20 -9 12
v -10 -24 -4
v -10 -24 -10
v -10 -19 -10
v -10 -19 -4
v -10 -24 -18
v -10 -19 -18
v -10 -17 -10
v -10 -17 -4
v -10 -17 -18
v -22 -19 -10
v -22 -24 -10
v -22 -19 -18
v -22 -24 -18
v -22 -15 -10
v -22 -17 -18
v -18 -24 -10
v -10 -24 -10
v -18 -24 -18
v -22 -24 -10
v -22 -24 -18
v -22 -13 -3.999294
v -22 -13 -2
v -22 -7 -3.999294
v -22 -9 -2
v -22 -13 6
v -22 -9 6
v -10 -17 8
v -4 -17 8
v -4 -15 8
v -10 -15 8
v -4 -13 8
v -10 -13 8
v -4 -13 -4
v -10 -13 -4
v -4 -9 -4
v -10 -7 -4
v -4 -15 8
v -4 -13 -4
v -4 -13 8
v -4 -9 -4
v -18 -9 -18
v -22 -13 -18
v -22 -9 -18
v -18 -13 -18
v -9.983076 -9 -18
v -9.991538 -13 -18
v -22 -17 8
v -18 -17 8
v -18 -14.5 8
v -22 -13 8
v -18 -12 8
v -22 -9 8
v -10 -13 -4
v -10 -17 -10
v -9.99577 -13 -10
v -10 -17 -18
v -9.991538 -13 -18
v -10 -17 -10
v -9.99577 -13 -10
v -9.99577 -13 -10
v -9.991538 -13 -18
v -9.983076 -9 -18
v -9.991538 -7 -10
v -36 -13 -9.999294
v -36 -15 -4
v -36 -13 -3.999294
v -36 -15 -10
v -22 -13 -18
v -22 -13 -9.999294
v -22 -9 -18
v -22 -7 -9.999294
v -10 -7 -4
v -10 -13 -4
v -22 -7 -3.999294
v -22 -13 -3.999294
v -9.99577 -13 -10
v -9.991538 -7 -10
v -22 -13 -9.999294
v -22 -7 -9.999294
v -9.991538 -7 -10
v -10 -7 -4
v -22 -7 -9.999294
v -22 -7 -3.999294
v -32 -15 -4
v -22 -15 -4
v -22 -13 -3.999294
v -32 -13 -3.999294
v -36 -15 -4
v -36 -13 -3.999294
v -22 -13 -9.999294
v -32 -15 -10
v -32 -13 -9.999294
v -22 -15 -10
v -32 -21 -20
v -36 -23 -20
v -36 -21 -20
v -32 -23 -20
v -32 -15 -4
v -22 -15 -10
v -22 -15 -4
v -32 -15 -10
v -36 -15 -4
v -36 -15 -10
v -36 -23 -20
v -36 -21 -20
v -32 -13 -9.999294
v -32 -15 -10
v -32 -21 -20
v -32 -23 -20
v -32 -15 -10
v -36 -15 -10
v -32 -23 -20
v -36 -23 -20
v -9.983076 -1 -22
v -6 -1 -28
v -6 -1 -22
v -9.983076 -1 -28
v -6 -1 -34
v -9.983076 -1 -34
v -9.983076 -1 -22
v -18 -1 -22
v -18 -1 -28
v -9.983076 -1 -28
v -18 -1 -34
v -9.983076 -1 -34
v -22 -1 -22
v -22 -1 -28
v -22 -1 -34
v 4 -1 -22
v 4 -1 -28
v 14 -1 -22
v 14 -1 -28
v 14 -1 -34
v 4 -1 -34
v 4 -1 -22
v 14 -1 -22
v 4 1 -16
v 14 1 -16
v 4 1 -16
v 14 1 -16
v 4 -5 -4
v 14 -5 -4
v 8 -5 -4
v 8 -5 0
v 14 -5 0
v 14 -5 -4
v 14 -3 -4
v 14 -3 0
v -36 -6 -4
v -36 -9 -2
v -36 -6 -2
v -36 -9 -4
v -36 -3 -4
v -36 -3 -2
v 8 -5 6
v 8 -5 8
v 8 -3 6
v 8 -3 8
v 8 -3 0
v -36 -6 6
v -36 -9 8
v -36 -6 8
v -36 -9 6
v -36 -3 6
v -36 -3 8
v 8 -5 8
v 2 -5 8
v 2 -3 12
v 8 -3 12
v 8 -1 12
v 2 -1 12
v 8 -5 -4
v 2 -6 -4
v 8 -3 -4
v 2 -3 -4
v -4 -8 8
v -10 -8 8
v -4 -3 8
v -10 -3 8
v 2 -3 8
v -4 -6 -4
v -10 -5 -4
v -4 -3 -4
v -10 -3 -4
v -22 1 -22
v -22 -1 -22
v -22 -3 -18
v -22 3 -18
v -22 3 -22
v -10.00004 -3 -18
v -9.983076 -9 -18
v -9.983076 -1 -22
v -10.00004 1 -22
v -10.01701 3 -18
v -10.00004 -3 -18
v -10.00004 1 -22
v -10.01701 3 -22
v -6 1 -34
v -9.983076 -1 -34
v -10.00004 1 -34
v -6 -1 -34
v -6 3 -34
v -10.01701 3 -34
v -10.00004 1 -22
v -6 1 -22
v -6 3 -22
v -10.01701 3 -22
v -9.983076 -1 -22
v -6 -1 -22
v -26 -7 8
v -22 -6 8
v -26 -5 8
v -22 -3 8
v -26 -3 8
v -22 -5 -3.999647
v -26 -7 -4
v -26 -5 -4
v -22 -7 -3.999294
v -22 -3 -4
v -26 -3 -4
v -36 -6 8
v -36 -9 8
v -32 -7 8
v -32 -5 8
v -36 -3 8
v -32 -3 8
v -32 -5 -4
v -32 -7 -4
v -36 -6 -4
v -36 -9 -4
v -36 -3 -4
v -32 -3 -4
v -26 -7 -4
v -18 3 -34
v -22 1 -34
v -22 3 -34
v -18 1 -34
v -22 -1 -34
v -18 -1 -34
v -18 -7.5 8
v -18 -3 8
v -10 -5 -4
v -10.00002 -2 -11
v -10 -3 -4
v -10.00851 3 -12
v -10 -5 -4
v -10 -7 -4
v -9.991538 -7 -10
v -10.00002 -2 -11
v -10.00002 -2 -11
v -10.00004 -3 -18
v -10.00851 3 -12
v -10.01701 3 -18
v -9.991538 -7 -10
v -10.00004 -3 -18
v -9.983076 -9 -18
v -22 -2 -10.99965
v -22 -5 -3.999647
v -22 3 -12
v -22 -3 -4
v -22 1 -28
v -22 -1 -28
v -22 3 -28
v -22 1 -34
v -22 -1 -34
v -22 3 -34
v 14 -1 -22
v 14 -1 -28
v 14 1 -28
v 14 1 -22
v 14 3 -28
v 14 3 -22
v -6 -1 -28
v -6 -1 -34
v -6 1 -34
v -6 1 -28
v -6 3 -34
v -6 3 -28
v 4 1 -28
v -6 -1 -28
v -6 1 -28
v 4 -1 -28
v 4 3 -28
v -6 3 -28
v 4 1 -22
v 4 3 -22
v 4 -1 -22
v 14 1 -34
v 4 -1 -34
v 4 1 -34
v 14 -1 -34
v 14 3 -34
v 4 3 -34
v 4 -4 -4
v 14 -4 -4
v 14 -3 -4
v 4 -3 -4
v 4 -5 -4
v 14 -5 -4
v 4 1 -34
v 4 -1 -28
v 4 1 -28
v 4 -1 -34
v 4 3 -34
v 4 3 -28
v 14 1 -34
v 14 3 -34
v 14 -1 -34
v 4 3 -22
v 4 1 -22
v 4 3 -16
v 4 2 -16
v 4 -1 -22
v 4 1 -16
v 14 1 -16
v 14 2 -16
v 14 3 -16
v 4 -3 -4
v 4 -4 -4
v 4 -5 -4
v 14 -4 -4
v 8 -5 0
v 11 -5 -4
v 11 -5 0
v 8 -5 -4
v 14 -5 -4
v 14 -5 0
v 11 -3 -4
v 11 -5 -4
v 14 -3 -4
v 14 -5 -4
v 8 -5 0
v 11 -5 0
v 11 -3 0
v 8 -3 0
v 11 -5 8
v 14 -5 8
v 14 -3 8
v 11 -3 8
v 11 -5 4
v 14 -5 4
v 14 -5 4
v 14 -3 4
v 11 -3 0
v 11 -5 0
v 11 -3 4
v 11 -5 4
v 11 -5 8
v 14 -5 8
v 14 -5 8
v 14 -3 8
v 8 -3 4
v 8 -5 4
v 8 -3 8
v 8 -5 8
v 11 -3 4
v 11 -5 4
v 8 -3 4
v 8 -5 4
v 8 -5 4
v 8 -5 8
v 8 -3 8
v 2 -5 8
v 8 -5 8
v 2 -3 12
v 8 -3 12
v 8 -3 12
v 8 -1 12
v 2 -3 8
v 2 -5 8
v 2 -1 12
v 2 -3 12
v 8 -13 -2
v 8 -13 6
v 14 -13 -2
v 14 -13 6
v 8 -3 -4
v 2 -3 -4
v 2 -3 -2
v 8 -3 0
v 2 -3 6
v 8 -3 6
v 2 -3 8
v 8 -3 8
v -4 -3 -4
v -4 -3 -2
v -10 -3 -4
v -10 -3 -2
v -4 -3 6
v -10 -3 6
v -4 -3 8
v -10 -3 8
v 8 -17 8
v 2 -17 8
v 8 -17 12
v 2 -17 12
v 12 -17 8
v 12 -17 12
v 8 -17 6
v 12 -17 6
v 12 -17 12
v 8 -17 12
v 12 -21 16
v 8 -21 16
v 2 -17 12
v 2 -21 16
v -4 -17 8
v -10 -17 8
v -4 -17 12
v -10 -17 12
v -4 -17 12
v -10 -17 12
v -4 -21 16
v -10 -21 16
v 2 -17 -4
v 8 -17 -4
v 2 -17 -12
v 8 -17 -12
v -4 -17 -12
v -4 -17 -4
v -10 -17 -12
v -10 -17 -4
v 2 -17 -4
v -4 -17 -4
v 2 -21 8
v -4 -21 8
v -4 -17 -18
v 2 -17 -18
v 8 -17 -18
v -10 -17 -18
v 8 -19 -12
v 8 -19 -4
v 14 -19 -12
v 14 -19 -4
v 8 -13 -4
v 14 -13 -4
v 8 -19 -18
v 14 -19 -24
v 2 -19 -18
v 2 -19 -24
v -4 -19 -18
v -4 -19 -24
v -10 -19 -18
v -10 -19 -24
v -22 -3 -2
v -26 -3 -2
v -26 -3 6
v -22 -3 6
v -22 -3 -4
v -26 -3 -4
v -26 -3 8
v -22 -3 8
v -32 -3 -2
v -32 -3 6
v -36 -3 -2
v -36 -3 6
v -32 -3 -4
v -36 -3 -4
v -32 -3 8
v -36 -3 8
v -18 -3 -4
v -18 -3 -2
v -18 -3 6
v -18 -3 8
v -18 -17 8
v -18 -17 12
v -20 -9 8
v -22 -9 8
v -22 -9 12
v -20 -9 12
v -10.01701 3 -22
v -18 3 -22
v -18 3 -18
v -10.01701 3 -18
v -22 3 -22
v -22 3 -18
v -20 -13 8
v -20 -13 12
v -17 -17 8
v -17 -17 12
v -18 3 -12
v -22 3 -12
v -22 -3 -4
v -18 -3 -4
v -18 3 -18
v -22 3 -18
v -22 3 -12
v -18 3 -12
v -10.00851 3 -12
v -10 -3 -4
v -10.01701 3 -18
v -10.00851 3 -12
v -10 -13 -4
v -9.99577 -13 -10
v -22 -13 -3.999294
v -22 -13 -9.999294
v -32 -13 -9.999294
v -32 -13 -3.999294
v -36 -13 -9.999294
v -36 -13 -3.999294
v -36 -13 -9.999294
v -32 -13 -9.999294
v -36 -21 -20
v -32 -21 -20
v -6 3 -34
v -10.01701 3 -34
v -6 3 -28
v -10.01701 3 -28
v -6 3 -22
v -18 3 -34
v -18 3 -28
v -22 3 -34
v -22 3 -28
v 4 3 -28
v 4 3 -22
v 14 3 -28
v 14 3 -22
v 4 3 -34
v 14 3 -34
v 14 3 -16
v 4 3 -16
v 14 3 -16
v 4 3 -16
v 14 -3 -4
v 4 -3 -4
v 11 -3 -4
v 11 -3 0
v 14 -3 -4
v 14 -3 0
v 14 -3 4
v 11 -3 4
v 14 -3 8
v 11 -3 8
v 8 -3 4
v 8 -3 8
v 2 -3 8
v 8 -1 12
v 2 -1 12
f 1207 1208 1209
f 1208 1210 1209
f 1211 1212 1208
f 1211 1213 1212
f 1214 1208 1207
f 1214 1211 1208
f 1215 1207 1216
f 1215 1214 1207
f 1217 1218 1219
f 1217 1220 1218
f 1221 1219 1222
f 1221 1217 1219
f 1223 1222 1224
f 1223 1221 1222
f 1225 1226 1227
f 1226 1228 1227
f 1229 1230 1231
f 1232 1229 1231
f 1233 1234 1235
f 1236 1233 1235
f 1237 1238 1239
f 1240 1237 1239
f 1241 1242 1243
f 1244 1241 1243
f 1245 1246 1247
f 1248 1245 1247
f 1249 1250 1251
f 1252 1249 1251
f 1253 1254 1255
f 1253 1256 1254
f 1257 1258 1259
f 1257 1260 1258
f 1261 1259 1262
f 1261 1257 1259
f 1215 1216 1263
f 1216 1264 1263
f 1265 1266 1267
f 1266 1268 1267
f 1259 1258 1269
f 1258 1270 1269
f 1264 1216 1271
f 1216 1272 1271
f 1247 1246 1273
f 1246 1274 1273
f 1272 1216 1275
f 1216 1207 1275
f 1266 1265 1276
f 1265 1277 1276
f 1269 1270 1278
f 1270 1279 1278
f 1264 1271 1280
f 1271 1281 1280
f 1267 1268 1282
f 1268 1283 1282
f 1263 1264 1284
f 1264 1280 1284
f 1223 1224 1285
f 1224 1286 1285
f 1285 1286 1287
f 1286 1288 1287
f 1212 1213 1289
f 1213 1290 1289
f 1291 1292 1293
f 1294 1291 1293
f 1218 1290 1213
f 1218 1295 1290
f 1220 1295 1218
f 1220 1296 1295
f 1218 1213 1224
f 1213 1215 1224
f 1297 1298 1299
f 1298 1300 1299
f 1290 1295 1301
f 1295 1302 1301
f 1289 1290 1303
f 1290 1301 1303
f 1295 1296 1302
f 1296 1304 1302
f 1305 1306 1307
f 1305 1308 1306
f 1309 1307 1310
f 1309 1305 1307
f 1311 1312 1313
f 1314 1315 1316
f 1315 1317 1316
f 1318 1319 1320
f 1318 1321 1319
f 1322 1323 1324
f 1325 1322 1324
f 1326 1327 1230
f 1229 1326 1230
f 1328 1329 1330
f 1331 1328 1330
f 1331 1330 1234
f 1233 1331 1234
f 1332 1322 1325
f 1333 1332 1325
f 1333 1325 1238
f 1237 1333 1238
f 1334 1335 1336
f 1337 1334 1336
f 1337 1336 1242
f 1241 1337 1242
f 1338 1339 1340
f 1338 1341 1339
f 1342 1343 1344
f 1342 1345 1343
f 1346 1347 1348
f 1346 1349 1347
f 1349 1350 1347
f 1351 1352 1353
f 1351 1354 1352
f 1355 1353 1356
f 1355 1351 1353
f 1357 1358 1359
f 1357 1360 1358
f 1361 1359 1362
f 1361 1357 1359
f 1363 1364 1365
f 1363 1366 1364
f 1367 1365 1368
f 1367 1363 1365
f 1359 1366 1363
f 1359 1358 1366
f 1362 1363 1367
f 1362 1359 1363
f 1369 1370 1371
f 1372 1369 1371
f 1373 1374 1375
f 1373 1376 1374
f 1377 1375 1378
f 1377 1373 1375
f 1379 1380 1381
f 1382 1379 1381
f 1382 1381 1383
f 1384 1382 1383
f 1385 1379 1382
f 1386 1385 1382
f 1386 1382 1384
f 1387 1386 1384
f 1368 1388 1389
f 1368 1365 1388
f 1365 1390 1388
f 1365 1364 1390
f 1391 1392 1385
f 1391 1385 1386
f 1391 1386 1387
f 1393 1394 1395
f 1394 1396 1395
f 1396 1397 1395
f 1398 1399 1400
f 1398 1401 1399
f 1401 1402 1399
f 1327 1403 1404
f 1230 1327 1404
f 1323 1405 1406
f 1324 1323 1406
f 1407 1408 1409
f 1410 1407 1409
f 1410 1409 1411
f 1412 1410 1411
f 1340 1413 1414
f 1340 1339 1413
f 1344 1415 1416
f 1344 1343 1415
f 1414 1417 1418
f 1414 1413 1417
f 1416 1419 1420
f 1416 1415 1419
f 1421 1422 1423
f 1422 1424 1423
f 1424 1425 1423
f 1426 1427 1428
f 1426 1429 1427
f 1430 1428 1431
f 1430 1426 1428
f 1432 1433 1434
f 1435 1432 1434
f 1436 1437 1433
f 1432 1436 1433
f 1438 1439 1440
f 1438 1441 1439
f 1442 1440 1443
f 1442 1438 1440
f 1403 1444 1445
f 1404 1403 1445
f 1405 1446 1447
f 1406 1405 1447
f 1398 1448 1449
f 1398 1449 1401
f 1449 1450 1401
f 1451 1452 1453
f 1454 1451 1453
f 1455 1456 1452
f 1451 1455 1452
f 1308 1457 1306
f 1308 1458 1457
f 1320 1459 1318
f 1320 1460 1459
f 1460 1461 1459
f 1460 1462 1461
f 1208 1212 1210
f 1212 1463 1210
f 1464 1465 1466
f 1465 1467 1466
f 1212 1289 1463
f 1289 1468 1463
f 1289 1303 1468
f 1303 1469 1468
f 1303 1301 1469
f 1301 1470 1469
f 1301 1302 1470
f 1302 1471 1470
f 1302 1304 1471
f 1304 1472 1471
f 1450 1449 1473
f 1449 1474 1473
f 1475 1476 1477
f 1475 1478 1476
f 1478 1479 1476
f 1478 1480 1479
f 1481 1482 1483
f 1481 1484 1482
f 1485 1486 1487
f 1485 1488 1486
f 1489 1490 1491
f 1489 1492 1490
f 1488 1493 1486
f 1488 1494 1493
f 1492 1495 1490
f 1492 1496 1495
f 1497 1484 1498
f 1497 1499 1484
f 1500 1501 1502
f 1500 1503 1501
f 1504 1457 1505
f 1504 1458 1457
f 1305 1505 1307
f 1305 1504 1505
f 1506 1507 1253
f 1506 1508 1507
f 1464 1466 1509
f 1510 1464 1509
f 1510 1509 1511
f 1512 1510 1511
f 1325 1324 1513
f 1514 1325 1513
f 1514 1513 1515
f 1239 1514 1515
f 1458 1504 1516
f 1517 1518 1519
f 1518 1520 1519
f 1513 1324 1521
f 1522 1523 1524
f 1523 1525 1524
f 1526 1220 1217
f 1526 1527 1220
f 1528 1527 1526
f 1528 1529 1527
f 1530 1217 1221
f 1530 1526 1217
f 1531 1526 1530
f 1531 1528 1526
f 1532 1221 1223
f 1532 1530 1221
f 1533 1530 1532
f 1533 1531 1530
f 1534 1532 1535
f 1534 1533 1532
f 1535 1223 1285
f 1535 1532 1223
f 1536 1537 1538
f 1536 1539 1537
f 1540 1539 1536
f 1540 1541 1539
f 1542 1543 1544
f 1542 1545 1543
f 1419 1545 1542
f 1419 1546 1545
f 1547 1544 1548
f 1547 1542 1544
f 1420 1542 1547
f 1420 1419 1542
f 1549 1550 1551
f 1552 1549 1551
f 1550 1553 1554
f 1551 1550 1554
f 1552 1551 1555
f 1556 1552 1555
f 1551 1554 1557
f 1555 1551 1557
f 1558 1559 1560
f 1558 1561 1559
f 1562 1560 1563
f 1562 1558 1560
f 1564 1389 1565
f 1564 1368 1389
f 1566 1565 1567
f 1566 1564 1565
f 1568 1569 1570
f 1571 1568 1570
f 1556 1555 1572
f 1573 1556 1572
f 1573 1572 1574
f 1575 1573 1574
f 1576 1577 1578
f 1577 1579 1578
f 1561 1558 1580
f 1572 1555 1581
f 1562 1563 1582
f 1571 1570 1583
f 1570 1584 1583
f 1574 1585 1575
f 1586 1587 1588
f 1589 1586 1588
f 1587 1590 1591
f 1588 1587 1591
f 1589 1588 1592
f 1593 1589 1592
f 1588 1591 1594
f 1592 1588 1594
f 1595 1360 1357
f 1595 1596 1360
f 1597 1596 1595
f 1597 1598 1596
f 1599 1357 1361
f 1599 1595 1357
f 1600 1595 1599
f 1600 1597 1595
f 1601 1304 1602
f 1601 1603 1304
f 1527 1602 1220
f 1527 1601 1602
f 1604 1603 1601
f 1604 1605 1603
f 1529 1601 1527
f 1529 1604 1601
f 1606 1361 1607
f 1361 1362 1607
f 1608 1606 1609
f 1606 1607 1609
f 1610 1368 1564
f 1610 1367 1368
f 1611 1564 1566
f 1611 1610 1564
f 1607 1367 1610
f 1607 1362 1367
f 1609 1610 1611
f 1609 1607 1610
f 1612 1613 1614
f 1615 1612 1614
f 1615 1614 1616
f 1617 1615 1616
f 1618 1378 1619
f 1618 1377 1378
f 1620 1619 1621
f 1620 1618 1619
f 1622 1384 1383
f 1622 1383 1623
f 1624 1622 1623
f 1624 1623 1625
f 1626 1627 1628
f 1626 1629 1627
f 1629 1548 1627
f 1629 1547 1548
f 1630 1631 1626
f 1631 1629 1626
f 1631 1420 1629
f 1420 1547 1629
f 1632 1633 1634
f 1635 1632 1634
f 1635 1634 1636
f 1637 1635 1636
f 1633 1612 1615
f 1634 1633 1615
f 1634 1615 1617
f 1636 1634 1617
f 1638 1593 1639
f 1638 1639 1640
f 1641 1642 1643
f 1643 1642 1644
f 1645 1646 1647
f 1645 1647 1648
f 1649 1650 1651
f 1649 1652 1650
f 1653 1599 1654
f 1653 1600 1599
f 1655 1654 1656
f 1655 1653 1654
f 1657 1658 1659
f 1658 1660 1659
f 1661 1662 1663
f 1662 1664 1663
f 1665 1666 1667
f 1666 1668 1667
f 1669 1670 1671
f 1672 1669 1671
f 1673 1669 1672
f 1674 1673 1672
f 1675 1676 1677
f 1675 1678 1676
f 1679 1680 1681
f 1679 1682 1680
f 1683 1684 1685
f 1683 1686 1684
f 1687 1686 1683
f 1687 1688 1686
f 1652 1649 1689
f 1649 1690 1689
f 1691 1692 1693
f 1692 1694 1693
f 1695 1696 1697
f 1696 1698 1697
f 1699 1700 1701
f 1699 1702 1700
f 1702 1703 1700
f 1702 1704 1703
f 1705 1706 1707
f 1705 1707 1708
f 1708 1707 1709
f 1708 1709 1710
f 1711 1707 1706
f 1711 1712 1707
f 1712 1709 1707
f 1712 1713 1709
f 1701 1700 1714
f 1700 1715 1714
f 1714 1715 1716
f 1715 1717 1716
f 1717 1715 1718
f 1715 1719 1718
f 1720 1721 1722
f 1721 1723 1722
f 1724 1725 1726
f 1725 1727 1726
f 1232 1231 1728
f 1729 1232 1728
f 1730 1731 1732
f 1733 1730 1732
f 1734 1735 1736
f 1734 1737 1735
f 1738 1736 1739
f 1738 1734 1736
f 1236 1235 1740
f 1741 1236 1740
f 1741 1740 1742
f 1743 1741 1742
f 1235 1232 1729
f 1740 1235 1729
f 1740 1729 1744
f 1742 1740 1744
f 1745 1746 1747
f 1745 1748 1746
f 1749 1747 1750
f 1749 1745 1747
f 1736 1748 1745
f 1736 1735 1748
f 1739 1745 1749
f 1739 1736 1745
f 1252 1251 1751
f 1752 1252 1751
f 1753 1754 1755
f 1756 1753 1755
f 1757 1255 1758
f 1757 1253 1255
f 1759 1758 1760
f 1759 1757 1758
f 1617 1616 1761
f 1762 1617 1761
f 1762 1761 1763
f 1764 1762 1763
f 1616 1252 1752
f 1761 1616 1752
f 1761 1752 1765
f 1763 1761 1765
f 1766 1621 1767
f 1766 1620 1621
f 1768 1767 1769
f 1768 1766 1767
f 1758 1620 1766
f 1758 1255 1620
f 1760 1766 1768
f 1760 1758 1766
f 1770 1771 1772
f 1772 1771 1655
f 1773 1774 1770
f 1773 1770 1772
f 1775 1776 1777
f 1775 1777 1778
f 1779 1780 1781
f 1779 1781 1782
f 1783 1784 1785
f 1783 1786 1784
f 1787 1785 1788
f 1787 1783 1785
f 1789 1790 1791
f 1792 1789 1791
f 1793 1794 1790
f 1789 1793 1790
f 1795 1637 1796
f 1797 1795 1796
f 1797 1796 1798
f 1799 1797 1798
f 1800 1801 1802
f 1800 1803 1801
f 1804 1802 1805
f 1804 1800 1802
f 1806 1807 1808
f 1806 1808 1809
f 1806 1809 1810
f 1809 1811 1810
f 1808 1795 1797
f 1809 1808 1797
f 1809 1797 1799
f 1811 1809 1799
f 1812 1813 1814
f 1813 1815 1814
f 1816 1817 1812
f 1816 1812 1814
f 1802 1813 1812
f 1802 1818 1813
f 1805 1812 1817
f 1805 1802 1812
f 1819 1820 1821
f 1819 1822 1820
f 1822 1823 1820
f 1822 1824 1823
f 1788 1785 1822
f 1788 1822 1819
f 1785 1784 1824
f 1785 1824 1822
f 1637 1636 1825
f 1796 1637 1825
f 1796 1825 1826
f 1798 1796 1826
f 1636 1617 1762
f 1825 1636 1762
f 1825 1762 1764
f 1826 1825 1764
f 1827 1828 1829
f 1829 1828 1830
f 1831 1832 1833
f 1831 1833 1834
f 1835 1836 1837
f 1837 1836 1838
f 1839 1840 1835
f 1839 1841 1840
f 1842 1656 1843
f 1843 1656 1608
f 1844 1842 1845
f 1845 1842 1843
f 1842 1772 1656
f 1772 1655 1656
f 1844 1773 1772
f 1842 1844 1772
f 1846 1771 1770
f 1846 1847 1771
f 1848 1770 1774
f 1848 1846 1770
f 1849 1847 1846
f 1849 1850 1847
f 1851 1846 1848
f 1851 1849 1846
f 1852 1853 1854
f 1855 1852 1854
f 1855 1854 1856
f 1857 1855 1856
f 1858 1859 1860
f 1861 1858 1860
f 1861 1860 1862
f 1863 1861 1862
f 1864 1865 1866
f 1864 1867 1865
f 1868 1866 1869
f 1868 1864 1866
f 1790 1870 1871
f 1791 1790 1871
f 1794 1872 1870
f 1790 1794 1870
f 1873 1874 1875
f 1873 1876 1874
f 1877 1875 1878
f 1877 1873 1875
f 1879 1880 1881
f 1882 1879 1881
f 1883 1884 1880
f 1879 1883 1880
f 1885 1886 1887
f 1885 1888 1886
f 1889 1887 1890
f 1889 1885 1887
f 1854 1891 1892
f 1856 1854 1892
f 1853 1893 1891
f 1854 1853 1891
f 1894 1895 1896
f 1896 1895 1897
f 1895 1898 1897
f 1897 1898 1899
f 1900 1852 1901
f 1901 1852 1855
f 1901 1855 1902
f 1902 1855 1857
f 1896 1897 1903
f 1903 1897 1904
f 1897 1899 1904
f 1904 1899 1905
f 1731 1900 1906
f 1906 1900 1901
f 1906 1901 1732
f 1732 1901 1902
f 1907 1908 1909
f 1907 1910 1908
f 1909 1911 1912
f 1909 1908 1911
f 1913 1757 1759
f 1913 1914 1757
f 1915 1914 1913
f 1915 1916 1914
f 1917 1918 1919
f 1920 1917 1919
f 1921 1922 1923
f 1924 1921 1923
f 1909 1912 1925
f 1912 1926 1925
f 1730 1733 1927
f 1733 1928 1927
f 1929 1930 1931
f 1930 1932 1931
f 1925 1926 1933
f 1926 1934 1933
f 1927 1928 1935
f 1928 1936 1935
f 1937 1938 1939
f 1938 1940 1939
f 1941 1942 1943
f 1942 1944 1943
f 1925 1933 1945
f 1933 1946 1945
f 1921 1924 1751
f 1924 1947 1751
f 1948 1949 1950
f 1949 1951 1950
f 1741 1743 1952
f 1743 1953 1952
f 1954 1955 1956
f 1955 1957 1956
f 1958 1959 1960
f 1959 1961 1960
f 1962 1963 1964
f 1965 1962 1964
f 1965 1964 1966
f 1967 1965 1966
f 1967 1966 1968
f 1969 1967 1968
f 1963 1970 1971
f 1964 1963 1971
f 1970 1972 1973
f 1971 1970 1973
f 1964 1971 1974
f 1966 1964 1974
f 1971 1973 1975
f 1974 1971 1975
f 1966 1974 1976
f 1968 1966 1976
f 1974 1975 1977
f 1976 1974 1977
f 1978 1979 1980
f 1979 1981 1980
f 1978 1980 1982
f 1980 1983 1982
f 1978 1982 1984
f 1982 1985 1984
f 1986 1987 1988
f 1987 1989 1988
f 1987 1990 1989
f 1990 1991 1989
f 1992 1993 1994
f 1993 1995 1994
f 1996 1997 1998
f 1997 1999 1998
f 2000 2001 2002
f 2001 2003 2002
f 2002 2004 2005
f 2000 2002 2005
f 2004 2006 2007
f 2005 2004 2007
f 2008 2009 2010
f 2009 2011 2010
f 2004 2002 2012
f 2002 2013 2012
f 2002 2003 2013
f 2003 2014 2013
f 2006 2004 2015
f 2004 2012 2015
f 2016 2017 2018
f 2017 2019 2018
f 2020 1958 2021
f 1958 1960 2021
f 2022 2016 2023
f 2016 2018 2023
f 2024 2022 2025
f 2022 2023 2025
f 2026 2024 2027
f 2024 2025 2027
f 2028 2026 2029
f 2026 2027 2029
f 2030 2031 2032
f 2033 2030 2032
f 2034 2035 2031
f 2030 2034 2031
f 2033 2032 2036
f 2037 2033 2036
f 2031 2038 2039
f 2032 2031 2039
f 2038 2040 2041
f 2039 2038 2041
f 2035 2042 2038
f 2031 2035 2038
f 2042 2043 2040
f 2038 2042 2040
f 2032 2039 2044
f 2036 2032 2044
f 2039 2041 2045
f 2044 2039 2045
f 1972 2046 2047
f 1973 1972 2047
f 2046 2034 2030
f 2047 2046 2030
f 1973 2047 2048
f 1975 1973 2048
f 2047 2030 2033
f 2048 2047 2033
f 1975 2048 2049
f 1977 1975 2049
f 2048 2033 2037
f 2049 2048 2037
f 1993 2050 2051
f 1995 1993 2051
f 2052 2053 2054
f 2055 2052 2054
f 2056 2057 2058
f 2059 2056 2058
f 2057 2060 2061
f 2058 2057 2061
f 2062 2063 2064
f 2063 2065 2064
f 2066 2067 2068
f 2069 2066 2068
f 2070 2071 2072
f 2073 2070 2072
f 2074 2066 2069
f 2075 2074 2069
f 2076 2070 2073
f 2077 2076 2073
f 2078 2079 2080
f 2079 2081 2080
f 2081 2082 2083
f 2080 2081 2083
f 2082 2084 2085
f 2083 2082 2085
f 2086 2087 2088
f 2087 2089 2088
f 2090 2091 2092
f 2091 2093 2092
f 2092 2093 2094
f 2093 2056 2094
f 2091 2095 2096
f 2093 2091 2096
f 2093 2096 2057
f 2056 2093 2057
f 2095 2097 2098
f 2096 2095 2098
f 2096 2098 2060
f 2057 2096 2060
f 2092 2094 2099
f 2094 2100 2099
f 2099 2100 2101
f 2100 2102 2101
f 2099 2101 2103
f 2101 2104 2103
f 2102 2100 2105
f 2100 2106 2105
f 2107 2108 2109
f 2108 2110 2109
f 2111 1962 1965
f 2112 2111 1965
f 2113 2111 2112
f 2114 2113 2112
f 2114 2112 2115
f 2112 2116 2115
f 2115 2116 2117
f 2116 2118 2117
f 2118 2116 1969
f 2116 2119 1969
f 2120 2121 2122
f 2121 2123 2122
v -14 -23 44
v -2 -23 44
v -14 -10 44
v -2 -10 44
v -2 -23 38
v -2 -23 35
v -2 -17 38
v -2 -21 35
v -2 -23 35
v -14 -23 35
v -2 -21 35
v -14 -21 35
v -14 -23 35
v -14 -23 38
v -14 -21 35
v -14 -17 38
v -14 -23 35
v -2 -23 35
v -14 -23 38
v -2 -23 38
v -14 -23 44
v -2 -23 44
v -14 -10 44
v -14 -23 44
v -2 -23 44
v -2 -10 44
v -2 -17 38
v -14 -17 38
v -2 -10 44
v -14 -10 44
v -14 -17 38
v -2 -17 38
v -14 -21 35
v -2 -21 35
f 2124 2125 2126
f 2125 2127 2126
f 2128 2129 2130
f 2129 2131 2130
f 2132 2133 2134
f 2133 2135 2134
f 2136 2137 2138
f 2137 2139 2138
f 2140 2141 2142
f 2141 2143 2142
f 2142 2143 2144
f 2143 2145 2144
f 2139 2137 2146
f 2137 2147 2146
f 2128 2130 2148
f 2130 2149 2148
f 2150 2151 2152
f 2151 2153 2152
f 2154 2155 2156
f 2155 2157 2156
v -36 -23 -2
v -32 -23 -2
v -36 -23 4
v -32 -23 4
v -36 -23 15
v -32 -23 15
v -32 -21 15
v -36 -21 15
v -36 -18 4
v -32 -18 4
v -32 -15 4
v -36 -15 4
v -32 -23 4
v -32 -23 -2
v -32 -18 -2
v -32 -18 4
v -32 -15 -2
v -32 -15 4
v -32 -18 -2
v -36 -23 -2
v -36 -18 -2
v -32 -23 -2
v -32 -15 -2
v -36 -15 -2
v -36 -18 -2
v -36 -23 4
v -36 -18 4
v -36 -23 -2
v -36 -15 -2
v -36 -15 4
v -36 -23 10
v -32 -23 10
v -32 -23 10
v -32 -18 10
v -36 -18 10
v -36 -23 10
v -36 -23 15
v -32 -23 15
v -32 -23 15
v -32 -21 15
v -36 -21 15
v -36 -23 15
v -36 -15 4
v -32 -15 4
v -36 -15 -2
v -32 -15 -2
v -32 -18 4
v -36 -18 4
v -32 -18 10
v -36 -18 10
v -32 -18 10
v -36 -18 10
v -32 -21 15
v -36 -21 15
f 2158 2159 2160
f 2159 2161 2160
f 2162 2163 2164
f 2165 2162 2164
f 2166 2167 2168
f 2169 2166 2168
f 2170 2171 2172
f 2173 2170 2172
f 2173 2172 2174
f 2175 2173 2174
f 2176 2177 2178
f 2176 2179 2177
f 2180 2178 2181
f 2180 2176 2178
f 2182 2183 2184
f 2182 2185 2183
f 2186 2184 2187
f 2186 2182 2184
f 2160 2161 2188
f 2161 2189 2188
f 2170 2173 2190
f 2173 2191 2190
f 2184 2183 2192
f 2183 2193 2192
f 2188 2189 2194
f 2189 2195 2194
f 2190 2191 2196
f 2191 2197 2196
f 2192 2193 2198
f 2193 2199 2198
f 2200 2201 2202
f 2201 2203 2202
f 2204 2205 2206
f 2205 2207 2206
f 2208 2209 2210
f 2209 2211 2210
v -36 29 38
v 36 29 38
v 36 -21 38
v -36 -21 38
v 36 29 38
v 36 29 -34
v 36 -21 -34
v 36 -21 38
v 36 29 -34
v -36 29 -34
v -36 -21 -34
v 36 -21 -34
v -36 29 -34
v -36 29 38
v -36 -21 38
v -36 -21 -34
v -36 29 -34
v 36 29 -34
v 36 29 38
v -36 29 38
v -36 -21 38
v 36 -21 38
v 36 -21 -34
v -36 -21 -34
f 2212 2213 2214
f 2212 2214 2215
f 2216 2217 2218
f 2216 2218 2219
f 2220 2221 2222
f 2220 2222 2223
f 2224 2225 2226
f 2224 2226 2227
f 2228 2229 2230
f 2228 2230 2231
f 2232 2233 2234
f 2232 2234 2235
v -34.55049 15.93245 -7.844178
v -34.56634 15.93245 11.29203
v -36.46572 15.93245 -7.845764
v -36.48158 15.93245 11.29044
v -36.46573 4.667546 -7.845764
v -36.48158 4.667546 11.29044
v -34.5505 4.667545 -7.844178
v -34.56635 4.667545 11.29203
v -36.46572 15.93245 -7.845764
v -36.48158 15.93245 11.29044
v -36.46573 4.667546 -7.845764
v -36.48158 4.667546 11.29044
v -34.5505 4.667545 -7.844178
v -34.55049 15.93245 -7.844178
v -34.56634 15.93245 11.29203
v -34.56635 4.667545 11.29203
v -34.56634 15.93245 11.29203
v -36.48158 15.93245 11.29044
v -36.48158 4.667546 11.29044
v -34.56635 4.667545 11.29203
v -34.5505 4.667545 -7.844178
v -36.46573 4.667546 -7.845764
v -36.46572 15.93245 -7.845764
v -34.55049 15.93245 -7.844178
f 2236 2238 2239
f 2236 2239 2237
f 2244 2240 2241
f 2244 2241 2245
f 2246 2242 2243
f 2246 2243 2247
f 2248 2249 2250
f 2248 2250 2251
f 2252 2253 2254
f 2252 2254 2255
f 2256 2257 2258
f 2256 2258 2259
v 33.47592 26.26048 -4.745168
v 33.47591 7.693793 -4.745161
v 35.33415 26.26048 -4.743682
v 35.33414 7.693792 -4.743675
v 35.32541 26.26049 6.185965
v 35.32541 7.693796 6.185972
v 33.46718 26.26049 6.184479
v 33.46717 7.693798 6.184486
v 35.33415 26.26048 -4.743682
v 35.33414 7.693792 -4.743675
v 35.32541 26.26049 6.185965
v 35.32541 7.693796 6.185972
v 33.46718 26.26049 6.184479
v 33.47592 26.26048 -4.745168
v 33.47591 7.693793 -4.745161
v 33.46717 7.693798 6.184486
v 33.47591 7.693793 -4.745161
v 35.33414 7.693792 -4.743675
v 35.32541 7.693796 6.185972
v 33.46717 7.693798 6.184486
v 33.46718 26.26049 6.184479
v 35.32541 26.26049 6.185965
v 35.33415 26.26048 -4.743682
v 33.47592 26.26048 -4.745168
f 2260 2262 2263
f 2260 2263 2261
f 2268 2264 2265
f 2268 2265 2269
f 2270 2266 2267
f 2270 2267 2271
f 2272 2273 2274
f 2272 2274 2275
f 2276 2277 2278
f 2276 2278 2279
f 2280 2281 2282
f 2280 2282 2283
v -5.265182 26.26048 -33.67611
v -5.265174 7.693793 -33.6761
v -5.263632 26.26048 -35.53434
v -5.263623 7.693792 -35.53434
v 5.666013 26.26049 -35.52522
v 5.666021 7.693797 -35.52522
v 5.664462 26.26049 -33.66698
v 5.664471 7.693798 -33.66698
v -5.263632 26.26048 -35.53434
v -5.263623 7.693792 -35.53434
v 5.666013 26.26049 -35.52522
v 5.666021 7.693797 -35.52522
v 5.664462 26.26049 -33.66698
v -5.265182 26.26048 -33.67611
v -5.265174 7.693793 -33.6761
v 5.664471 7.693798 -33.66698
v -5.265174 7.693793 -33.6761
v -5.263623 7.693792 -35.53434
v 5.666021 7.693797 -35.52522
v 5.664471 7.693798 -33.66698
v 5.664462 26.26049 -33.66698
v 5.666013 26.26049 -35.52522
v -5.263632 26.26048 -35.53434
v -5.265182 26.26048 -33.67611
f 2284 2286 2287
f 2284 2287 2285
f 2292 2288 2289
f 2292 2289 2293
f 2294 2290 2291
f 2294 2291 2295
f 2296 2297 2298
f 2296 2298 2299
f 2300 2301 2302
f 2300 2302 2303
f 2304 2305 2306
f 2304 2306 2307
v 5.664689 26.26048 36.57607
v 5.66468 7.693793 36.57607
v 5.663148 26.26048 38.43431
v 5.66314 7.693793 38.43431
v -5.266495 26.26049 38.42525
v -5.266504 7.693799 38.42525
v -5.264955 26.26049 36.56701
v -5.264964 7.693799 36.56701
v 5.663148 26.26048 38.43431
v 5.66314 7.693793 38.43431
v -5.266495 26.26049 38.42525
v -5.266504 7.693799 38.42525
v -5.264955 26.26049 36.56701
v 5.664689 26.26048 36.57607
v 5.66468 7.693793 36.57607
v -5.264964 7.693799 36.56701
v 5.66468 7.693793 36.57607
v 5.66314 7.693793 38.43431
v -5.266504 7.693799 38.42525
v -5.264964 7.693799 36.56701
v -5.264955 26.26049 36.56701
v -5.266495 26.26049 38.42525
v 5.663148 26.26048 38.43431
v 5.664689 26.26048 36.57607
f 2308 2310 2311
f 2308 2311 2309
f 2316 2312 2313
f 2316 2313 2317
f 2318 2314 2315
f 2318 2315 2319
f 2320 2321 2322
f 2320 2322 2323
f 2324 2325 2326
f 2324 2326 2327
f 2328 2329 2330
f 2328 2330 2331
