v 32 -21 -4
v 16 -21 -4
v 16 -21 4
v 32 -21 4
v 32 -21 -32
v 16 -21 -32
v 16 -21 -16
v 32 -21 -16
v 32 -21 -16
v 16 -21 -16
v 16 -21 -4
v 32 -21 -4
v 32 -21 4
v 16 -21 4
v 16 -21 16
v 32 -21 16
v 32 -21 16
v 16 -21 16
v 16 -21 32
v 32 -21 32
v 16 -21 -4
v -16 -21 -4
v -16 -21 4
v 16 -21 4
v -16 -21 -4
v -32 -21 -4
v -32 -21 4
v -16 -21 4
v 16 -21 -32
v -16 -21 -32
v -16 -21 -16
v 16 -21 -16
v -16 -21 -32
v -32 -21 -32
v -32 -21 -16
v -16 -21 -16
v 16 -21 -16
v -16 -21 -16
v -16 -21 -4
v 16 -21 -4
v -16 -21 -16
v -32 -21 -16
v -32 -21 -4
v -16 -21 -4
v 16 -21 4
v -16 -21 4
v -16 -21 16
v 16 -21 16
v -16 -21 4
v -32 -21 4
v -32 -21 16
v -16 -21 16
v 16 -21 16
v -16 -21 16
v -16 -21 32
v 16 -21 32
v -16 -21 16
v -32 -21 16
v -32 -21 32
v -16 -21 32
v -7.232529 -146 -19
v -18.8488 -146 -19
v -23 -62 -23
v -10 -62 -23
v -18.8488 -146 -19
v -18.8488 -146 -7
v -23 -62 -10
v -23 -62 -23
v -18.8488 -146 -7
v -18.8488 -146 -3
v -23 -62 -3
v -23 -62 -10
v -18.8488 -146 -3
v -18.8488 -146 3
v -23 -62 3
v -23 -62 -3
v -18.8488 -146 3
v -18.8488 -146 7.232531
v -23 -62 10
v -23 -62 3
v -18.8488 -146 7.232531
v -18.8488 -146 18.8488
v -23 -62 23
v -23 -62 10
v 19 -146 18.8488
v 19 -146 7.232531
v 23 -62 9.999998
v 23 -62 23
v -18.8488 -146 18.8488
v -7.232531 -146 18.8488
v -10 -62 23
v -23 -62 23
v -7.232531 -146 18.8488
v 7.000002 -146 18.8488
v 10 -62 23
v -10 -62 23
v 19 -146 -19
v 7.000002 -146 -19
v 10 -62 -23
v 23 -62 -23
v 7.000002 -146 18.8488
v 19 -146 18.8488
v 23 -62 23
v 10 -62 23
v 7.000002 -146 -19
v -7.232529 -146 -19
v -10 -62 -23
v 10 -62 -23
v 19 -146 7.232531
v 19 -146 3
v 23 -62 3
v 23 -62 9.999998
v 19 -146 3
v 19 -146 -3
v 23 -62 -3
v 23 -62 3
v 19 -146 -3
v 19 -146 -7
v 23 -62 -10
v 23 -62 -3
v 19 -146 -7
v 19 -146 -19
v 23 -62 -23
v 23 -62 -10
v -23 -62 -23
v -30.98 -33 -31
v -15.32 -33 -31
v -10 -62 -23
v -30.98 -33 -31
v -32 -21 -32
v -16 -21 -32
v -15.32 -33 -31
v -23 -62 -10
v -30.98 -33 -15
v -30.98 -33 -31
v -23 -62 -23
v -30.98 -33 -15
v -32 -21 -16
v -32 -21 -32
v -30.98 -33 -31
v -23 -62 -3
v -30.98 -33 -3
v -30.98 -33 -15
v -23 -62 -10
v -30.98 -33 -3
v -32 -21 -4
v -32 -21 -16
v -30.98 -33 -15
v -23 -62 3
v -30.98 -33 4
v -30.98 -33 -3
v -23 -62 -3
v -30.98 -33 4
v -32 -21 4
v -32 -21 -4
v -30.98 -33 -3
v -23 -62 10
v -30.98 -33 15.32
v -30.98 -33 4
v -23 -62 3
v -30.98 -33 15.32
v -32 -21 16
v -32 -21 4
v -30.98 -33 4
v -23 -62 23
v -30.98 -33 30.98
v -30.98 -33 15.32
v -23 -62 10
v -30.98 -33 30.98
v -32 -21 32
v -32 -21 16
v -30.98 -33 15.32
v 23 -62 23
v 23 -62 9.999998
v 31 -33 15.32
v 31 -33 30.98
v 31 -33 15.32
v 32 -21 16
v 32 -21 32
v 31 -33 30.98
v -23 -62 23
v -10 -62 23
v -15.32 -33 30.98
v -30.98 -33 30.98
v -15.32 -33 30.98
v -16 -21 32
v -32 -21 32
v -30.98 -33 30.98
v -10 -62 23
v 10 -62 23
v 15 -33 30.98
v -15.32 -33 30.98
v 15 -33 30.98
v 16 -21 32
v -16 -21 32
v -15.32 -33 30.98
v 10 -62 -23
v 15 -33 -31
v 31 -33 -31
v 23 -62 -23
v 15 -33 -31
v 16 -21 -32
v 32 -21 -32
v 31 -33 -31
v 10 -62 23
v 23 -62 23
v 31 -33 30.98
v 15 -33 30.98
v 31 -33 30.98
v 32 -21 32
v 16 -21 32
v 15 -33 30.98
v -10 -62 -23
v -15.32 -33 -31
v 15 -33 -31
v 10 -62 -23
v -15.32 -33 -31
v -16 -21 -32
v 16 -21 -32
v 15 -33 -31
v 23 -62 9.999998
v 23 -62 3
v 31 -33 4
v 31 -33 15.32
v 31 -33 4
v 32 -21 4
v 32 -21 16
v 31 -33 15.32
v 23 -62 3
v 23 -62 -3
v 31 -33 -3
v 31 -33 4
v 31 -33 -3
v 32 -21 -4
v 32 -21 4
v 31 -33 4
v 23 -62 -3
v 23 -62 -10
v 31 -33 -15
v 31 -33 -3
v 31 -33 -15
v 32 -21 -16
v 32 -21 -4
v 31 -33 -3
v 23 -62 -10
v 23 -62 -23
v 31 -33 -31
v 31 -33 -15
v 31 -33 -31
v 32 -21 -32
v 32 -21 -16
v 31 -33 -15
f 1 2 3
f 4 1 3
f 5 6 7
f 8 5 7
f 9 10 11
f 12 9 11
f 13 14 15
f 16 13 15
f 17 18 19
f 20 17 19
f 21 22 23
f 24 21 23
f 25 26 27
f 28 25 27
f 29 30 31
f 32 29 31
f 33 34 35
f 36 33 35
f 37 38 39
f 40 37 39
f 41 42 43
f 44 41 43
f 45 46 47
f 48 45 47
f 49 50 51
f 52 49 51
f 53 54 55
f 56 53 55
f 57 58 59
f 60 57 59
f 64 62 63
f 64 61 62
f 68 66 67
f 68 65 66
f 72 70 71
f 72 69 70
f 76 74 75
f 76 73 74
f 80 78 79
f 80 77 78
f 84 82 83
f 84 81 82
f 85 86 87
f 88 85 87
f 89 90 91
f 92 89 91
f 93 94 95
f 96 93 95
f 100 98 99
f 100 97 98
f 101 102 103
f 104 101 103
f 108 106 107
f 108 105 106
f 109 110 111
f 112 109 111
f 113 114 115
f 116 113 115
f 117 118 119
f 120 117 119
f 121 122 123
f 124 121 123
f 127 128 125
f 127 125 126
f 131 132 129
f 131 129 130
f 135 136 134
f 134 136 133
f 139 140 138
f 138 140 137
f 143 144 142
f 142 144 141
f 147 148 146
f 146 148 145
f 151 152 150
f 152 149 150
f 155 156 154
f 156 153 154
f 159 160 157
f 159 157 158
f 163 164 161
f 163 161 162
f 167 168 165
f 167 165 166
f 171 172 169
f 171 169 170
f 176 173 175
f 173 174 175
f 179 180 178
f 180 177 178
f 184 181 183
f 181 182 183
f 187 188 186
f 188 185 186
f 189 190 191
f 189 191 192
f 195 196 193
f 195 193 194
f 199 200 198
f 198 200 197
f 203 204 202
f 202 204 201
f 205 206 208
f 208 206 207
f 212 209 211
f 211 209 210
f 214 215 213
f 215 216 213
f 219 220 218
f 220 217 218
f 224 221 223
f 221 222 223
f 227 228 226
f 228 225 226
f 232 229 230
f 232 230 231
f 235 236 233
f 235 233 234
f 237 238 240
f 240 238 239
f 244 241 243
f 243 241 242
f 245 246 248
f 248 246 247
f 252 249 251
f 251 249 250
v -1937.269 -98.80133 1734.752
v -1937.269 -81.66177 1856.269
v -1815.752 -96.46325 1856.269
v -1815.752 -101.5383 1734.752
v -1937.269 -104.8199 1613.236
v -1694.236 -80.47839 1856.269
v -1815.752 -83.61967 1613.236
v -1937.269 -82.14539 1491.719
v -1694.236 -90.86096 1734.752
v -1572.719 -108.8752 1856.269
v -1815.752 -72.35874 1491.719
v -1937.269 -111.1036 1370.202
v -1694.236 -72.49962 1613.236
v -1572.719 -92.53896 1734.752
v -1451.202 -76.47796 1856.269
v -1815.752 -80.19415 1370.202
v -1937.269 -82.90736 1248.685
v -1694.236 -93.61649 1491.719
v -1451.202 -97.74456 1734.752
v -1329.685 -99.63666 1856.269
v -1572.719 -94.98164 1613.236
v -1815.752 -100.9845 1248.685
v -1937.269 -97.5489 1127.168
v -1329.685 -96.9812 1734.752
v -1208.168 -85.53934 1856.269
v -1694.236 -101.0877 1370.202
v -1572.719 -78.62097 1491.719
v -1451.202 -108.0062 1613.236
v -1815.752 -79.5614 1127.168
v -1937.269 -75.96787 1005.651
v -1208.168 -90.1738 1734.752
v -1086.651 -86.80716 1856.269
v -1694.236 -86.78621 1248.685
v -1572.719 -89.51936 1370.202
v -1451.202 -105.4704 1491.719
v -1329.685 -73.69094 1613.236
v -1815.752 -80.99171 1005.651
v -1937.269 -73.67728 884.1346
v -1086.651 -88.18608 1734.752
v -965.1346 -99.85255 1856.269
v -1694.236 -75.66133 1127.168
v -1572.719 -105.7528 1248.685
v -1451.202 -88.15425 1370.202
v -1329.685 -91.45047 1491.719
v -1208.168 -92.26949 1613.236
v -965.1346 -95.91142 1734.752
v -843.6179 -78.04338 1856.269
v -1086.651 -99.77724 1613.236
v -1208.168 -101.8461 1491.719
v -1329.685 -81.00253 1370.202
v -1451.202 -89.60768 1248.685
v -843.6179 -89.84169 1734.752
v -722.101 -82.38254 1856.269
v -965.1346 -91.81896 1613.236
v -1086.651 -94.57124 1491.719
v -1208.168 -94.88473 1370.202
v -722.101 -83.44167 1734.752
v -600.5842 -99.15575 1856.269
v -843.6179 -80.57182 1613.236
v -965.1346 -72.61351 1491.719
v -600.5842 -76.58723 1734.752
v -479.0673 -85.74277 1856.269
v -722.101 -93.96621 1613.236
v -479.0673 -85.22813 1734.752
v -357.5505 -82.97047 1856.269
v -1329.685 -89.20141 1248.685
v -1086.651 -94.12722 1370.202
v -843.6182 -90.4093 1491.719
v -600.5854 -78.52584 1613.237
v -357.5505 -81.91782 1734.752
v -236.0337 -91.05464 1856.269
v -1208.168 -89.21792 1248.685
v -965.1378 -74.54001 1370.205
v -722.1038 -95.88739 1491.722
v -479.0717 -89.04294 1613.242
v -236.0337 -80.62901 1734.752
v -114.5168 -72.43148 1856.269
v -1086.652 -74.49937 1248.686
v -843.6173 -100.4051 1370.201
v -600.6323 -74.12735 1491.801
v -357.5646 -76.88966 1613.272
v -114.5168 -94.8802 1734.752
v 6.999997 -69.53191 1856.269
v -965.1665 -78.69366 1248.714
v -722.1204 -95.4084 1370.227
v -479.0554 -104.0587 1491.69
v -236.0414 -80.50388 1613.287
v 6.999997 -97.92726 1734.752
v 128.5168 -84.14456 1856.269
v -843.674 -90.49287 1248.741
v -600.6216 -94.11534 1370.265
v -357.662 -62.71711 1492.118
v -114.5168 -77.72626 1613.303
v 128.5168 -90.70182 1734.752
v 250.0337 -84.32793 1856.269
v -721.7319 -130.5328 1248.245
v -479.1794 -84.81293 1370.461
v -236.1242 -49.90544 1492.393
v 6.992706 -118.375 1613.187
v 250.0337 -102.4361 1734.752
v 371.5505 -100.6622 1856.269
v -601.4534 -38.95918 1249.985
v -357.7197 -73.60506 1370.791
v -114.5168 -106.2444 1491.615
v 128.5275 -82.4314 1613.263
v 371.5505 -84.63525 1734.752
v 493.0673 -71.7579 1856.269
v -479.4471 -69.64651 1249.442
v -236.0869 -83.5541 1370.572
v 6.987046 -106.388 1491.622
v 250.039 -86.59428 1613.243
v 493.0673 -87.87082 1734.752
v 614.5842 -91.21273 1856.269
v -357.5479 -93.63759 1248.677
v -114.5182 -73.91936 1370.867
v 128.5132 -100.859 1491.705
v 371.5509 -92.81608 1613.236
v 614.5842 -64.31999 1734.752
v 736.101 -84.64997 1856.269
v -236.2278 -63.22147 1249.818
v 7.003433 -95.41498 1370.236
v 250.0728 -82.59481 1491.854
v 493.0673 -85.12104 1613.236
v 736.101 -98.39133 1734.752
v 857.6179 -74.29908 1856.269
v -114.5836 -59.23592 1250.065
v 128.6613 -63.48073 1371.21
v 371.5554 -94.68592 1491.749
v 614.5842 -106.0313 1613.236
v 857.6179 -100.4049 1734.752
v 979.1346 -100.2231 1856.269
v 7.00006 -92.69046 1248.661
v 250.0699 -88.7493 1370.484
v 493.0677 -86.26643 1491.785
v 736.101 -101.5118 1613.236
v 979.1346 -92.9613 1734.752
v 1100.651 -93.63306 1856.269
v 128.5213 -85.35342 1249.065
v 371.6286 -68.23814 1371.083
v 614.5851 -67.44491 1491.873
v 857.6179 -88.79468 1613.236
v 1100.651 -100.1845 1734.752
v 1222.168 -99.64304 1856.269
v 250.017 -100.5373 1248.209
v 493.0759 -92.75828 1370.366
v 736.1088 -87.88989 1491.767
v 979.1346 -72.43621 1613.236
v 1222.168 -92.56203 1734.752
v 1343.685 -108.9312 1856.269
v 371.6131 -76.87576 1249.659
v 614.5844 -98.61817 1370.205
v 857.6323 -84.67004 1491.756
v 1100.651 -77.21789 1613.236
v 1343.685 -91.89777 1734.752
v 1465.202 -71.76653 1856.269
v 493.0654 -93.8569 1248.664
v 736.1217 -92.01446 1370.349
v 979.1304 -106.9517 1491.713
v 1222.168 -111.7852 1613.236
v 1465.202 -69.05373 1734.752
v 1586.719 -68.53106 1856.269
v 614.7003 -74.78139 1249.688
v 857.6533 -91.75604 1370.329
v 1100.653 -86.04225 1491.72
v 1343.685 -63.27667 1613.235
v 1586.719 -72.92751 1734.752
v 1708.236 -68.91913 1856.269
v 736.2206 -79.39627 1249.377
v 979.1738 -91.00557 1370.297
v 1222.168 -81.24578 1491.719
v 1465.202 -76.65746 1613.236
v 1708.236 -94.49722 1734.752
v 1829.752 -89.25176 1856.269
v 857.6613 -91.90558 1248.836
v 1100.711 -79.31821 1370.303
v 1343.685 -89.23875 1491.719
v 1586.719 -111.1186 1613.236
v 1829.752 -84.51909 1734.752
v 1951.269 -107.178 1856.269
v 1951.269 -110.4717 1734.752
v 1708.236 -79.27205 1613.236
v 1829.752 -72.97481 1613.236
v 1951.269 -98.37687 1613.236
v 1465.202 -71.11714 1491.719
v 1222.164 -104.1669 1370.197
v 1586.719 -84.85891 1491.719
v 1829.752 -81.43433 1491.719
v 1951.269 -100.5163 1491.719
v 1708.236 -73.93994 1491.719
v 1343.686 -82.24197 1370.203
v 1829.752 -94.55469 1370.202
v 1951.269 -86.53276 1370.202
v 1465.202 -89.85124 1370.202
v 1708.236 -94.86194 1370.202
v 1586.719 -82.84451 1370.202
v 1829.752 -77.51482 1248.685
v 1951.269 -86.56879 1248.685
v 1708.236 -86.73196 1248.685
v 1586.719 -92.25116 1248.685
v 1465.205 -83.51783 1248.688
v 1343.714 -86.22205 1248.717
v 1829.752 -101.0388 1127.168
v 1951.269 -90.65341 1127.168
v 1708.236 -72.02216 1127.168
v 1586.72 -80.68826 1127.169
v 1465.197 -102.1891 1127.164
v 1829.752 -84.66731 1005.651
v 1951.269 -83.97739 1005.651
v 1708.236 -86.61971 1005.651
v 1586.754 -70.94102 1005.682
v 1829.752 -83.16966 884.1346
v 1951.269 -66.76942 884.1346
v 1708.235 -104.1369 884.134
v 1829.752 -92.46033 762.6178
v 1951.269 -63.96951 762.6177
v 1343.667 -101.8363 1127.149
v 1465.518 -63.49533 1005.893
v 1586.753 -93.02231 884.1546
v 1708.254 -79.03481 762.6306
v 1829.752 -109.4697 641.101
v 1951.269 -70.70771 641.1009
v 1344.096 -78.95747 1005.996
v 1464.896 -115.2162 883.9533
v 1586.951 -78.27475 762.7133
v 1708.296 -75.3699 641.1242
v 1829.752 -87.48448 519.5841
v 1951.269 -99.991 519.5841
v 1344.262 -78.75942 884.5204
v 1464.794 -111.1425 762.4418
v 1586.977 -83.92463 641.1727
v 1708.313 -80.9167 519.5964
v 1829.752 -87.29514 398.0673
v 1951.269 -92.86373 398.0673
v 1344.144 -82.48749 762.8479
v 1466.632 -58.61745 641.5112
v 1587.778 -48.66479 519.7284
v 1708.234 -100.4706 398.0673
v 1829.752 -88.66993 276.5504
v 1951.269 -89.30512 276.5504
v 1344.587 -73.29351 641.4025
v 1465.09 -97.23962 519.5681
v 1587.249 -75.34624 398.0673
v 1708.294 -85.39655 276.5411
v 1829.752 -105.6072 155.0336
v 1951.269 -92.23248 155.0336
v 1344.987 -66.3146 519.8021
v 1464.916 -100.5364 398.0673
v 1586.381 -114.955 276.5964
v 1708.278 -82.71111 155.0173
v 1829.752 -88.38796 33.51681
v 1951.269 -88.31807 33.51681
v 1344.429 -75.35942 398.0673
v 1465.813 -80.78845 276.4629
v 1586.936 -86.4593 154.9752
v 1708.262 -77.67471 33.50999
v 1829.753 -95.36884 -87.99959
v 1951.269 -83.895 -88.00002
v 1344.422 -75.8099 276.4318
v 1466.806 -55.7353 154.6638
v 1586.608 -107.9464 33.52594
v 1708.268 -90.51705 -87.97339
v 1829.793 -77.33216 -209.4822
v 1951.269 -92.2774 -209.5168
v 1344.232 -80.73239 154.9433
v 1465.833 -81.43441 33.5197
v 1586.611 -105.6245 -88.06116
v 1708.196 -103.1375 -209.5474
v 1829.839 -87.64549 -330.9835
v 1951.276 -82.79913 -331.0274
v 1348.782 -15.03016 34.11125
v 1465.723 -85.31532 -87.76849
v 1586.841 -93.5772 -209.423
v 1708.839 -75.92528 -330.6766
v 1830.368 -59.37623 -452.295
v 1951.271 -99.14592 -452.549
v 1344.228 -81.51384 -87.77388
v 1464.643 -101.604 -209.8966
v 1587.117 -85.69858 -330.7719
v 1709.752 -60.2694 -451.8956
v 1830.243 -78.47014 -573.931
v 1951.411 -79.7452 -574.0129
v 1345.255 -65.47159 -208.6007
v 1465.405 -83.30977 -330.8962
v 1588.222 -67.1253 -451.8157
v 1708.423 -90.63842 -574.0134
v 1830.244 -82.07429 -695.5175
v 1951.507 -79.33533 -695.5463
v 1339.951 -112.9369 -333.4225
v 1465.669 -74.43738 -452.3029
v 1587.328 -77.99621 -573.8708
v 1711.055 -47.2551 -695.179
v 1829.697 -99.98538 -817.101
v 1951.573 -77.21861 -817.101
v 1347.297 -33.96372 -450.5222
v 1465.63 -70.08463 -573.9191
v 1587.655 -72.34653 -695.4365
v 1707.347 -105.5691 -817.101
v 1830.267 -81.29812 -938.6877
v 1951.561 -74.6263 -938.6642
v 1344.069 -56.78028 -573.922
v 1464.852 -73.99747 -695.6401
v 1584.152 -110.888 -817.0842
v 1709.327 -74.96076 -938.7747
v 1829.884 -93.59209 -1060.171
v 1951.314 -93.53058 -1060.152
v 1346.47 -33.68089 -695.1288
v 1471.904 -9.021796 -817.2803
v 1586.805 -82.01691 -938.6326
v 1708.885 -82.17721 -1060.321
v 1829.922 -88.6671 -1181.722
v 1951.307 -85.08085 -1181.677
v 1348.892 -13.29688 -817.3918
v 1465.548 -68.06818 -938.6921
v 1585.362 -103.1033 -1059.68
v 1708.54 -89.05515 -1181.783
v 1829.734 -102.5875 -1303.158
v 1951.269 -101.1888 -1303.168
v 1342.282 -69.5162 -938.225
v 1469.856 -24.69395 -1062.031
v 1587.657 -74.92393 -1182.122
v 1708.594 -85.11168 -1303.38
v 1829.759 -96.13195 -1424.691
v 1951.269 -73.91663 -1424.685
v 1345.523 -45.04198 -1061.075
v 1462.361 -116.4541 -1179.936
v 1586.421 -99.63306 -1302.969
v 1708.486 -79.61597 -1424.876
v 1829.751 -113.9373 -1546.201
v 1951.269 -108.6998 -1546.202
v 1342.392 -85.38363 -1180.679
v 1466.604 -63.95759 -1304.291
v 1587.526 -70.80898 -1425.362
v 1708.303 -79.61477 -1546.262
v 1829.752 -109.9739 -1667.719
v 1951.269 -90.63344 -1667.719
v 1342.325 -98.43028 -1301.811
v 1465.728 -80.69128 -1425.211
v 1586.993 -78.87049 -1546.476
v 1708.239 -89.03912 -1667.722
v 1829.752 -96.12388 -1789.236
v 1951.269 -89.71679 -1789.236
v 1344.099 -78.1408 -1425.201
v 1464.68 -117.8556 -1545.579
v 1586.722 -98.8223 -1667.723
v 1708.236 -81.45047 -1789.236
v 1829.752 -72.75038 -1910.752
v 1951.269 -83.29261 -1910.752
v 1829.752 -98.07085 -2032.269
v 1951.269 -120.0731 -2032.269
v 1708.236 -97.2895 -2032.269
v 1708.236 -72.07841 -1910.752
v 1586.719 -97.68562 -2032.269
v 1586.719 -90.15041 -1910.752
v 1465.202 -89.79026 -2032.269
v 1586.722 -59.86233 -1789.239
v 1465.202 -85.69354 -1910.752
v 1343.685 -98.92474 -2032.269
v 1465.214 -92.31816 -1789.249
v 1343.691 -70.72755 -1910.758
v 1222.168 -94.18732 -2032.269
v 1465.4 -78.85357 -1667.978
v 1222.161 -108.8868 -1910.741
v 1100.651 -95.68153 -2032.269
v 1343.807 -70.12886 -1789.444
v 1343.659 -100.1813 -1667.674
v 1100.696 -66.67828 -1910.868
v 979.1346 -76.30966 -2032.269
v 1222.265 -84.53284 -1789.468
v 1344.568 -66.64485 -1547.522
v 979.1456 -88.02525 -1910.821
v 857.6179 -81.76697 -2032.269
v 1100.974 -50.30101 -1790.394
v 1222.009 -105.0505 -1667.35
v 1221.648 -105.2513 -1545.164
v 857.6179 -110.081 -1910.685
v 736.101 -81.25112 -2032.269
v 979.1927 -84.20953 -1789.663
v 1100.874 -79.90341 -1668.492
v 1224.382 -34.10744 -1428.334
v 736.0908 -88.79522 -1910.817
v 614.5842 -115.9495 -2032.269
v 857.6179 -89.92643 -1789.503
v 1100.354 -96.77406 -1545.328
v 979.4833 -53.95698 -1670.122
v 1223.269 -53.38987 -1304.602
v 614.5653 -85.95062 -1910.801
v 493.0673 -89.4037 -2032.269
v 736.0651 -89.66676 -1789.5
v 857.6102 -112.8563 -1666.344
v 1100.436 -80.33138 -1424.174
v 979.5514 -57.07422 -1548.49
v 1220.525 -78.7548 -1180.05
v 493.0565 -87.29113 -1910.768
v 371.5505 -91.05178 -2032.269
v 614.5234 -89.91973 -1789.454
v 735.814 -58.08993 -1669.915
v 857.5794 -95.80846 -1544.901
v 1101.328 -50.5327 -1304.409
v 979.2436 -66.71548 -1425.132
v 371.5496 -94.89956 -1910.753
v 250.0337 -99.38562 -2032.269
v 493.0325 -94.30708 -1789.319
v 614.5011 -88.63748 -1668.029
v 736.0574 -78.78893 -1546.571
v 857.5259 -79.93343 -1423.345
v 979.8747 -37.43443 -1305.43
v 250.0337 -86.88934 -1910.752
v 128.5168 -94.88396 -2032.269
v 371.5371 -96.70679 -1789.259
v 492.7637 -79.59057 -1668.471
v 614.0627 -63.28045 -1548.164
v 736.1583 -73.45162 -1424.127
v 128.5168 -91.72874 -1910.752
v 6.999997 -91.81348 -2032.269
v 250.0273 -95.81181 -1789.243
v 371.746 -110.5376 -1667.367
v 492.0301 -56.82991 -1548.721
v 6.999997 -65.00365 -1910.752
v -114.5168 -99.05605 -2032.269
v 128.5164 -95.6917 -1789.236
v 250.0492 -101.4382 -1667.697
v -114.5168 -89.5472 -1910.752
v -236.0337 -91.58665 -2032.269
v 6.999997 -93.05642 -1789.236
v -236.0337 -94.94735 -1910.752
v -357.5505 -101.56 -2032.269
v 612.7497 -14.09998 -1431.432
v 371.3081 -85.90133 -1546.638
v 128.5108 -98.20076 -1667.726
v -114.5168 -94.22994 -1789.236
v -357.5505 -85.88206 -1910.752
v -479.0673 -85.5775 -2032.269
v 492.5602 -65.77032 -1425.843
v 250.2815 -105.714 -1545.845
v 6.997468 -93.09622 -1667.721
v -236.0337 -79.94279 -1789.236
v -479.0673 -77.5659 -1910.752
v -600.5842 -92.76246 -2032.269
v 368.9822 -35.54673 -1428.972
v 128.6181 -105.9917 -1546.076
v -114.5168 -89.37469 -1667.719
v -357.5505 -99.15546 -1789.236
v -600.5842 -87.06728 -1910.752
v -722.101 -104.2728 -2032.269
v 249.5877 -81.2179 -1425.28
v 7.024672 -104.8705 -1546.173
v -236.0337 -88.94657 -1667.719
v -479.0673 -89.99767 -1789.236
v -722.101 -102.0183 -1910.752
v -843.6179 -95.78065 -2032.269
v 126.1553 -34.37886 -1427.394
v -114.5366 -74.07944 -1546.225
v -357.5505 -78.94467 -1667.719
v -600.5842 -85.36743 -1789.236
v -843.6179 -77.60165 -1910.752
v -965.1346 -78.54752 -2032.269
v 6.904362 -94.28464 -1424.79
v -236.034 -87.53956 -1546.202
v -479.0673 -88.58358 -1667.719
v -722.101 -85.34589 -1789.236
v -965.1346 -104.7644 -1910.752
v -1086.651 -82.97967 -2032.269
v -114.5726 -90.48988 -1424.751
v -357.5505 -91.1745 -1546.202
v -600.5842 -104.0462 -1667.719
v -843.6179 -83.44869 -1789.236
v -1086.651 -86.58934 -1910.752
v -1208.168 -99.15835 -2032.269
v -236.0514 -86.12691 -1424.705
v -479.0673 -94.56034 -1546.202
v -722.101 -67.90022 -1667.719
v -965.1346 -81.37101 -1789.236
v -1208.168 -94.04697 -1910.752
v -1329.685 -92.39168 -2032.269
v -357.5517 -90.10913 -1424.686
v -600.5842 -103.7472 -1546.202
v -843.6179 -76.23852 -1667.719
v -1086.651 -86.38723 -1789.236
v -1329.685 -85.39816 -1910.752
v -1451.202 -97.2643 -2032.269
v -479.0673 -104.6986 -1424.685
v -722.101 -92.86509 -1546.202
v -965.1346 -83.49101 -1667.719
v -1208.168 -79.74787 -1789.236
v -1451.202 -98.75569 -1910.752
v -1572.719 -82.31771 -2032.269
v -600.5842 -71.40382 -1424.685
v -843.6179 -88.63705 -1546.202
v -1086.651 -75.32007 -1667.719
v -1329.685 -116.7916 -1789.236
v -1572.719 -102.3608 -1910.752
v -1694.236 -80.40812 -2032.269
v -722.101 -92.03634 -1424.685
v -965.1346 -86.44022 -1546.202
v -1208.168 -100.4682 -1667.719
v -1451.202 -79.36263 -1789.236
v -1694.236 -92.31921 -1910.752
v -1815.752 -83.94772 -2032.269
v -843.6179 -100.3827 -1424.685
v -1086.651 -81.60359 -1546.202
v -1329.685 -81.46002 -1667.719
v -1572.719 -101.0492 -1789.236
v -1815.752 -101.9693 -1910.752
v -1937.269 -60.28545 -2032.269
v -1937.269 -89.55128 -1910.752
v -1694.236 -77.29112 -1789.236
v -1815.752 -93.98869 -1789.236
v -1937.269 -92.54374 -1789.236
v -1451.202 -93.26836 -1667.719
v -1208.168 -105.7723 -1546.202
v -1572.719 -77.38941 -1667.719
v -1815.752 -75.37037 -1667.719
v -1937.269 -102.8033 -1667.719
v -1694.236 -92.08849 -1667.719
v -1329.685 -92.79638 -1546.202
v -1815.752 -85.93504 -1546.202
v -1937.269 -106.553 -1546.202
v -1451.202 -103.3761 -1546.202
v -1694.236 -101.4772 -1546.202
v -1572.719 -101.4315 -1546.202
v -1815.752 -70.9606 -1424.685
v -1937.269 -88.54458 -1424.685
v -1694.236 -79.88911 -1424.685
v -1572.719 -101.7437 -1424.685
v -1451.202 -70.27488 -1424.685
v -1329.685 -92.06062 -1424.685
v -1815.752 -81.98154 -1303.168
v -1937.269 -80.40346 -1303.168
v -1694.236 -95.41886 -1303.168
v -1572.719 -98.52715 -1303.168
v -1451.202 -81.89073 -1303.168
v -1815.752 -89.77089 -1181.651
v -1937.269 -85.13467 -1181.651
v -1694.236 -73.51421 -1181.651
v -1572.72 -88.18233 -1181.652
v -1815.752 -79.34686 -1060.135
v -1937.269 -71.9604 -1060.135
v -1694.235 -102.4603 -1060.134
v -1815.753 -92.85077 -938.6185
v -1937.269 -88.74792 -938.6178
v -1329.686 -95.43177 -1303.169
v -1451.219 -86.83226 -1181.671
v -1572.731 -95.13354 -1060.148
v -1694.281 -83.68578 -938.6586
v -1815.774 -85.77335 -817.1191
v -1937.269 -72.81643 -817.101
v -1329.744 -82.86366 -1181.753
v -1451.138 -107.9024 -1060.051
v -1572.815 -91.17262 -938.7137
v -1694.5 -74.68269 -817.3026
v -1815.807 -90.88879 -695.6156
v -1937.27 -98.17511 -695.5847
v -1329.427 -117.9401 -1059.698
v -1451.536 -82.34849 -939.0164
v -1573.174 -80.16134 -817.4819
v -1694.178 -101.2743 -695.5498
v -1815.913 -87.43594 -574.1339
v -1937.318 -77.53922 -574.1009
v -1330.214 -75.54557 -939.4094
v -1452.272 -65.41791 -818.1715
v -1573.595 -73.51253 -696.1697
v -1693.671 -112.6113 -573.8237
v -1816.893 -42.72766 -452.8681
v -1937.358 -85.0295 -452.5843
v -1331.052 -56.28244 -818.8078
v -1452.993 -54.70395 -697.0179
v -1572.652 -92.14293 -574.0336
v -1693.605 -108.5626 -452.3693
v -1815.794 -97.07153 -331.0394
v -1937.333 -93.51498 -331.0438
v -1331.016 -57.71197 -696.9151
v -1450.723 -90.45049 -573.7789
v -1574.21 -65.07706 -453.0491
v -1695.837 -63.37755 -331.2636
v -1815.744 -98.81089 -209.5168
v -1937.47 -82.2882 -209.5168
v -1328.862 -86.84535 -573.4495
v -1453.771 -44.95179 -453.5809
v -1573.757 -71.21555 -331.2072
v -1694.549 -87.44139 -209.5168
v -1816.863 -55.05226 -87.84935
v -1937.459 -80.59935 -87.96982
v -1332.218 -36.23097 -453.82
v -1454.642 -34.02308 -331.7239
v -1573.037 -80.52455 -209.5168
v -1694.486 -88.87482 -87.96407
v -1815.838 -95.05945 33.54045
v -1937.348 -86.80615 33.54661
v -1329.482 -67.71194 -330.9828
v -1449.605 -93.57536 -209.5168
v -1572.317 -91.1267 -88.06719
v -1694.908 -80.45532 33.71002
v -1816.147 -69.44469 155.1969
v -1937.254 -107.1245 155.023
v -1329.523 -65.84838 -209.5168
v -1454.208 -39.28978 -87.39691
v -1572.535 -90.53971 33.45531
v -1693.768 -109.9053 154.8318
v -1815.796 -92.72749 276.5755
v -1937.269 -99.87175 276.5505
v -1329.24 -70.61225 -88.1115
v -1452.338 -63.79577 33.97245
v -1572.607 -92.94543 154.9777
v -1694.936 -67.91116 276.9653
v -1815.756 -97.42589 398.0706
v -1937.269 -86.97288 398.0673
v -1329.873 -66.68481 33.60201
v -1452.469 -63.98693 155.7959
v -1574.24 -58.05941 277.5667
v -1694.289 -94.77071 398.1083
v -1815.752 -102.1266 519.5839
v -1937.269 -72.59573 519.5841
v -1329.546 -76.45514 154.9572
v -1453.504 -45.08304 278.3933
v -1573.952 -50.07092 399.0998
v -1694.318 -70.23087 519.6586
v -1815.752 -82.52651 641.1009
v -1937.269 -108.0239 641.101
v -1330.134 -75.50758 276.8859
v -1450.51 -111.8049 397.3756
v -1573.096 -65.94983 519.9618
v -1694.243 -71.81769 641.1078
v -1815.752 -93.76684 762.6178
v -1937.269 -84.43322 762.6178
v -1330.523 -73.044 398.9927
v -1451.646 -77.24501 520.1147
v -1572.74 -91.33858 641.125
v -1694.236 -103.4629 762.6178
v -1815.752 -84.97662 884.1346
v -1694.236 -95.87486 884.1346
v -1694.236 -96.26829 1005.651
v -1572.72 -82.41976 762.6194
v -1451.171 -103.766 641.0605
v -1572.719 -106.3749 884.1346
v -1572.719 -84.06561 1127.168
v -1572.719 -98.26681 1005.651
v -1451.202 -87.02386 1127.168
v -1451.211 -93.16994 762.628
v -1451.202 -71.77766 884.1346
v -1451.202 -85.01151 1005.651
v -1329.685 -72.8161 1127.168
v -1329.685 -106.1448 1005.651
v -1208.168 -71.05746 1127.168
v -1329.687 -86.81865 884.1365
v -1329.734 -85.79438 762.7023
v -1208.169 -81.25991 1005.653
v -1086.674 -71.23724 1127.188
v -1208.184 -88.10944 884.152
v -1330.058 -71.03221 641.73
v -1086.729 -75.48025 1005.697
v -965.2864 -72.92493 1127.284
v -1208.257 -87.11181 762.7906
v -1330.393 -71.17605 520.6146
v -1086.792 -82.52235 884.2365
v -965.355 -81.21439 1005.782
v -843.9584 -74.22205 1127.454
v -1208.314 -92.26866 641.3295
v -1209.254 -80.79688 520.6981
v -1087.176 -70.94997 763.3307
v -965.349 -87.58851 884.2759
v -843.9984 -80.05581 1005.906
v -722.4469 -79.60089 1127.514
v -1090.561 -46.12947 647.083
v -1212.062 -63.16587 400.4484
v -964.678 -108.9764 762.0463
v -844.0012 -82.23101 884.4001
v -722.4011 -83.25495 1005.892
v -601.0808 -72.01517 1127.789
v -1086.611 -73.65258 519.539
v -1214.891 -44.49048 278.1453
v -967.7053 -63.28677 646.8553
v -843.672 -90.40405 762.7061
v -723.6435 -49.04224 885.3222
v -602.1218 -42.30668 1007.189
v -478.4685 -119.1037 1126.172
v -357.7097 -78.89761 1127.564
v -478.7395 -96.19931 1005.193
v -602.7834 -50.46364 886.1555
v -720.3267 -130.6833 760.0234
v -843.3407 -85.60091 639.0473
v -236.3055 -62.67992 1128.293
v -358.0352 -61.39818 1006.954
v -479.5679 -73.42837 884.8746
v -605.4001 -37.78078 766.3771
v -114.7239 -63.87242 1128.391
v -236.0344 -81.22261 1005.655
v -358.322 -46.47055 888.076
v 6.944033 -78.94986 1127.574
v -114.3035 -89.88419 1004.919
v 128.4711 -77.26791 1127.679
v -722.2293 -87.10199 638.9474
v -481.3416 -41.84519 764.9788
v -236.1361 -81.18771 883.0346
v 6.526922 -52.68121 1007.433
v 250.0754 -107.7924 1125.19
v -601.784 -56.61676 642.9771
v -357.4382 -43.75102 762.0035
v -114.7608 -41.5294 886.7696
v 127.9247 -32.84744 1009.149
v 371.4559 -104.2157 1125.46
v -473.4533 -72.50725 638.9778
v -235.4847 -40.05063 763.8322
v 6.968846 -65.29331 884.22
v 250.0213 -70.26257 1005.855
v 493.2442 -67.51081 1128.541
v -359.5685 41.52956 643.616
v -114.3411 -55.66488 763.1312
v 128.4229 -58.71301 884.4991
v 371.671 -47.24294 1007.996
v 614.6032 -84.83302 1127.269
v -232.11 5.411237 642.4622
v 6.595394 -43.33039 763.6128
v 249.9236 -49.44541 885.1709
v 493.4298 -49.21029 1007.883
v 736.2466 -78.6913 1127.766
v -111.6609 -3.992218 642.8821
v 127.5071 -16.84654 765.1918
v 371.5482 -61.30083 884.0869
v 615.1579 -50.49164 1007.831
v 6.771649 -42.77412 641.4295
v 249.5139 -11.77004 765.5538
v 493.2745 -50.74874 885.17
v 127.17 -5.310097 642.9911
v 371.6559 -14.5444 765.3977
v 249.0463 13.81012 644.0145
v 736.0424 -81.49435 1005.481
v 615.0974 -48.00095 885.6155
v 493.2855 -40.55658 763.4788
v 371.562 -24.43685 642.048
v 857.8618 -77.03757 1127.875
v 979.001 -107.8313 1248.376
v 1101.156 -53.69122 1249.536
v 979.2971 -85.42828 1127.492
v 857.0207 -103.3736 1004.291
v 736.8405 -49.30371 885.7004
v 614.9327 -45.14566 763.3661
v 1222.225 -91.29552 1248.76
v 1101.087 -76.62331 1127.819
v 1222.212 -95.71021 1127.22
v 978.9594 -91.39145 1005.36
v 858.1638 -60.28046 885.0698
v 1100.414 -97.14323 1005.355
v 1221.839 -105.172 1005.322
v 980.0086 -58.60316 885.2913
v 735.1843 -80.24878 761.2261
v 1222.236 -88.86896 884.1889
v 1101.537 -65.56702 885.0204
v 858.3907 -50.59152 763.5679
v 1221.584 -96.75439 762.2667
v 1102.901 -38.99289 764.3065
v 979.9168 -57.31016 763.3853
v 1222.218 -81.59676 641.1208
v 1101.385 -62.89001 641.4683
v 977.0231 -101.7611 639.7386
v 856.9509 -71.12301 640.5706
v 735.9857 -54.65207 640.9865
v 1224.893 -40.00901 520.1311
v 1103.064 -36.29922 520.1891
v 977.2045 -92.41859 518.9678
v 858.954 -33.93566 520.1053
v 1220.813 -98.36785 398.0667
v 1101.783 -54.32481 398.0794
v 977.648 -83.32389 398.0101
v 1224.087 -52.67369 276.2512
v 1102.534 -45.93763 276.3387
v 1223.009 -70.88029 154.9867
v 736.9091 -33.1845 519.9839
v 859.7651 -21.72759 398.2642
v 979.5381 -56.75228 276.5364
v 1100.18 -78.09323 155.0038
v 1222.988 -71.72222 33.71151
v 734.5609 -69.98785 397.7523
v 858.1052 -48.00437 276.6341
v 980.6411 -44.22989 155.3363
v 1104.785 -24.71134 34.97079
v 1223.637 -61.979 -87.33672
v 736.6017 -38.57564 276.8169
v 861.0518 -22.41765 156.2806
v 979.0243 -59.92709 33.46949
v 1100.242 -68.29093 -88.21783
v 1220.978 -81.30052 -210.1919
v 737.7402 -19.86309 156.1003
v 857.7189 -45.30253 33.54775
v 979.6509 -46.80142 -87.69579
v 1107.161 5.024301 -205.4373
v 1222.626 -57.91225 -330.7488
v 737.3286 -13.93127 33.80864
v 860.2367 -17.88203 -87.25378
v 983.6331 6.164794 -206.1074
v 1105.546 -2.743694 -327.7679
v 1224.716 -31.12696 -451.0275
v 739.9385 13.69796 -88.7699
v 856.4999 -50.4384 -210.3131
v 977.2709 -56.69183 -332.571
v 1100.65 -38.95312 -452.5516
v 1224.261 -27.53764 -573.1516
v 738.1214 14.33818 -208.8837
v 858.4896 -10.81729 -329.9545
v 981.5007 0.9777088 -450.6229
v 1097.765 -56.61857 -575.5845
v 1227.367 1.354793 -694.6296
v 736.2292 -14.53657 -330.5801
v 857.5304 -19.66755 -452.6651
v 981.4264 9.162564 -572.4807
v 1101.75 -14.82278 -695.3345
v 1224.651 -19.25396 -817.3293
v 736.2302 3.96721 -451.4577
v 857.306 -17.26382 -574.4414
v 979.2788 -10.591 -695.5385
v 1103.018 -2.568424 -817.4445
v 1224.725 -20.83785 -939.5784
v 736.102 8.460142 -573.3083
v 858.4986 17.25402 -695.0646
v 981.4676 17.42638 -817.6943
v 1099.738 -37.45813 -938.1294
v 1221.878 -52.62187 -1059.94
v 1102.695 -14.84171 -1062.053
v 1103.421 -12.14925 -1185.43
v 977.9131 -33.94907 -937.5439
v 858.7278 26.19182 -817.8419
v 980.1641 -21.44992 -1183.958
v 980.5533 -5.349744 -1062.312
v 857.6 -11.10028 -938.578
v 857.7697 -42.43923 -1304.518
v 857.8696 -24.56756 -1183.169
v 858.0696 -5.020832 -1061.925
v 735.9986 -44.86998 -1304.21
v 736.0035 -28.99912 -1182.575
v 612.9649 -14.68226 -1308.493
v 735.9368 -9.263401 -1061.426
v 492.1599 -47.14823 -1304.968
v 614.1464 -30.41365 -1182.844
v 736.0175 -3.248438 -939.0784
v 369.9361 -48.33125 -1305.488
v 613.3677 -1.664174 -1062.646
v 493.9601 -59.83226 -1180.207
v 736.1176 -4.360985 -817.0604
v 247.8124 -49.99369 -1305.704
v 371.5444 -57.47204 -1181.658
v 493.2371 -35.84269 -1059.928
v 613.3221 9.085134 -940.309
v 735.9551 19.17929 -695.1752
v 127.7547 -76.85793 -1303.908
v 247.6899 -44.0888 -1183.817
v 368.7668 -18.04547 -1062.575
v 615.4173 -22.42303 -816.6404
v 492.1625 -12.78915 -939.3352
v 614.0148 4.71954 -695.4417
v 7.787589 -114.7333 -1302.451
v 126.2888 -54.6469 -1183.394
v 248.4849 -44.66432 -1061.212
v 369.3529 -15.92637 -939.883
v 493.9962 -26.79155 -816.7797
v 612.2522 41.41549 -571.9661
v -114.5065 -99.4107 -1303.158
v 5.853319 -72.45924 -1182.47
v 126.9513 -57.28725 -1061.064
v 249.284 -44.20073 -938.9654
v 370.9908 -24.83059 -817.2479
v 492.2583 -6.196691 -695.5067
v -236.1635 -78.16949 -1303.298
v -115.33 -73.23971 -1182.261
v 5.704352 -67.98196 -1060.967
v 129.4556 -74.44313 -938.0972
v 248.5988 -33.3633 -817.4803
v 370.4779 -19.04667 -695.5124
v 493.4061 -22.25762 -574.2108
v -357.557 -94.80292 -1303.176
v -235.8759 -110.6227 -1181.491
v -114.9804 -81.96938 -1060.684
v 5.527126 -53.88107 -940.8359
v 127.8071 -51.05019 -817.6989
v 248.8022 -32.72416 -695.5565
v -479.0572 -85.56667 -1303.185
v -357.5786 -85.32243 -1181.799
v -236.2596 -83.97703 -1060.807
v -114.7118 -72.40696 -940.2962
v 7.096392 -55.45258 -818.3066
v -600.5659 -83.81385 -1303.216
v -478.9615 -76.88306 -1181.965
v -357.7556 -62.37257 -1061.822
v -236.2746 -67.18503 -941.6229
v -722.095 -92.1662 -1303.207
v -600.7316 -125.5279 -1181.121
v -479.0747 -97.82544 -1060.093
v -114.8232 -65.42932 -815.6043
v -357.6619 -84.29479 -939.2015
v -236.0443 -49.90007 -818.0964
v -843.6179 -78.16256 -1303.292
v -721.9746 -62.09944 -1182.583
v -600.3298 -75.36796 -1061.05
v -478.9436 -98.70901 -937.7425
v -356.2062 -78.15533 -812.6277
v -965.1346 -99.76574 -1424.685
v -1086.651 -81.55728 -1424.685
v -965.1388 -94.54159 -1303.195
v -843.6179 -62.32051 -1182.64
v -721.9733 -76.81981 -1061.024
v -600.4305 -71.71039 -939.8689
v -1208.168 -85.35861 -1424.685
v -1086.648 -103.2626 -1303.159
v -1208.18 -84.32085 -1303.185
v -965.2488 -65.63657 -1182.493
v -843.6179 -81.22215 -1060.791
v -1208.178 -98.01529 -1181.675
v -1086.646 -100.2932 -1181.631
v -1208.087 -102.1293 -1059.946
v -965.391 -59.91593 -1061.92
v -1086.637 -96.04518 -1060.084
v -721.6237 -45.26397 -941.5422
v -1208.617 -74.78277 -939.512
v -1087.31 -57.80478 -940.587
v -964.8837 -106.3338 -937.1163
v -843.6179 -82.9672 -938.7543
v -1207.707 -94.79816 -816.3347
v -1088.264 -25.8548 -821.1216
v -965.2421 -69.25953 -817.6364
v -843.6179 -105.3237 -814.5102
v -722.0154 -68.0907 -817.7698
v -1208.575 -66.71874 -696.126
v -1087.87 -37.54533 -698.0156
v -965.2318 -60.62357 -695.972
v -843.6179 -44.34455 -697.261
v -1209.693 -41.58192 -575.5925
v -1088.264 -24.99449 -576.4828
v -965.4098 -44.29166 -574.8905
v -1208.763 -51.20443 -452.9477
v -1087.541 -35.24252 -453.4404
v -1209.015 -43.98673 -331.3165
v -722.0593 -52.4326 -696.7503
v -843.6179 -25.88415 -576.2121
v -965.0474 -49.76748 -452.3763
v -1087.106 -38.92642 -331.2614
v -1210.056 -29.21048 -209.5168
v -722.0999 -45.79609 -574.7766
v -843.6191 -1.76724 -455.1339
v -965.3333 -34.79877 -331.2323
v -1087.916 -24.63824 -209.5689
v -1208.487 -51.6825 -87.96153
v -721.9422 -32.25183 -453.2952
v -843.6233 -34.80477 -331.1745
v -965.7699 -23.71048 -209.7201
v -1090.234 -15.58476 -89.57764
v -1211.975 -34.15211 33.26068
v -721.3156 -6.659198 -332.1568
v -843.713 -20.45299 -209.9189
v -966.4879 -25.84237 -89.95255
v -1091.704 -19.54345 30.44926
v -1212.733 -45.3548 154.8743
v -1093.185 4.565599 152.9208
v -970.4645 24.81379 25.79897
v -843.8028 -17.21216 -90.93916
v -1099.249 22.10147 278.2069
v -972.6337 81.6489 149.41
v -843.972 42.99519 25.7073
v -1083.622 -34.19199 396.1566
v -983.0441 123.9991 279.32
v -843.5204 96.2761 156.3297
v -969.5337 -15.16753 527.9117
v -966.0108 46.65991 399.0121
v -843.5067 -10.68499 517.9686
v -842.9912 110.3811 275.2379
v -844.1849 96.67292 405.7096
v -720.5827 -12.94049 523.8204
v -712.8829 80.79776 409.8633
v -602.9446 -74.57395 514.3902
v -717.4825 106.1728 277.2649
v -480.6794 -14.87085 519.446
v -595.0138 4.977159 401.7953
v -708.1801 108.8799 142.6393
v -357.3906 -38.1364 520.4456
v -477.9619 -46.40363 398.3679
v -603.1237 11.83142 276.2962
v -720.2442 18.17449 30.22786
v -234.2568 -16.22223 517.5467
v -597.3922 11.51474 153.7156
v -465.7111 6.341127 277.7306
v -357.7093 -68.50619 399.2888
v -720.6309 -17.36736 -91.02937
v -114.1443 -40.92194 519.2021
v -596.8317 -13.55861 30.57976
v -466.8459 4.81612 152.1231
v -235.9149 -52.09663 397.76
v -356.9403 -44.89129 276.3571
v -721.0897 -3.427068 -210.3819
v 6.427012 -32.08995 519.5408
v -114.5314 -44.67723 397.4654
v -235.239 -32.38094 275.2131
v -355.894 -37.85262 154.4873
v -597.4164 -10.41524 -90.37114
v -472.6006 -7.242846 31.20421
v -600.9905 -51.00171 -209.4271
v 127.959 -27.92321 519.6804
v 5.456326 -14.0519 396.2962
v -114.5069 -48.82681 275.573
v -235.4082 -56.91813 154.4338
v -476.1256 -20.23665 -88.51192
v -359.1177 -76.57565 33.91506
v 249.0874 0.4810858 520.1855
v 129.0765 -55.50911 398.5419
v 6.511892 -47.0982 275.3925
v -114.2179 -61.01482 153.9552
v -238.17 -98.51787 34.7043
v -355.9641 -49.78341 -87.97203
v -478.6241 -43.1699 -209.2538
v -600.6143 -50.77952 -331.0277
v -602.6368 -5.0521 -453.2347
v -480.2578 1.804185 -327.5295
v -358.0314 -66.57023 -210.0925
v -232.9434 -51.43209 -87.97466
v -115.1285 -97.68153 34.48904
v -602.6894 -25.67791 -575.9006
v -479.5894 -28.42921 -452.3314
v -357.6489 -57.9381 -334.1781
v -231.5222 -32.10192 -204.3222
v -602.1582 -39.58797 -698.4399
v -479.8768 -27.21913 -574.3651
v -359.5518 12.29455 -449.1533
v -601.4318 -38.07857 -821.6705
v -479.4274 -44.97313 -695.9943
v -482.4723 -27.21292 -824.8848
v -353.7803 -44.10767 -572.6862
v -358.2567 -20.77179 -696.8588
v -234.8255 -31.91984 -328.1369
v -235.6846 8.01294 -700.9652
v -234.8224 32.62357 -574.6597
v -236.0243 -14.40572 -452.5266
v -114.3083 -27.87969 -695.8869
v -111.5639 1.159382 -573.8663
v -113.4012 -25.81864 -451.3618
v -116.2674 -75.1338 -333.7088
v -112.4828 -67.82403 -207.3064
v 8.154237 -34.65915 -696.7161
v 8.360832 -32.43108 -573.7198
v 6.712311 -58.8383 -452.8794
v 11.63698 -20.41584 -321.4105
v 128.3689 -48.14634 -695.7894
v 128.2694 -93.50092 -575.8918
v 128.1344 -40.35766 -449.4607
v 254.9527 -91.83899 -576.1686
v 7.245928 -83.38922 -208.6488
v 130.8766 -121.3934 -334.9282
v 248.3656 -42.28535 -451.5578
v 372.3796 -38.10904 -574.3412
v 366.2771 3.14039 -450.1404
v 245.7833 -35.50765 -329.0441
v 129.8503 -103.4713 -210.0352
v 494.0147 -34.47109 -453.1268
v 371.1298 -42.19509 -330.8549
v 251.136 -78.52664 -209.7373
v 614.1685 -5.689861 -451.9808
v 613.4943 7.469958 -329.4776
v 494.2551 -43.89191 -331.6945
v 612.5209 47.35669 -210.5576
v 491.6028 -23.14924 -209.5706
v 614.2895 5.124998 -89.23211
v 367.8468 -27.24323 -208.9897
v 492.8526 -27.11575 -88.0783
v 614.6849 15.34536 33.90689
v 371.1822 -50.9295 -88.05859
v 615.6413 26.52471 159.2751
v 489.8456 0.6836749 33.33987
v 248.8927 -64.32853 -88.18974
v 614.1378 -48.27882 275.8068
v 369.6355 -36.46027 33.05964
v 491.2242 -6.906723 155.9389
v 126.959 -72.10514 -88.57545
v 614.4 -43.62584 397.991
v 246.0334 -34.0603 31.3202
v 371.0234 -38.80691 154.896
v 492.3489 -6.964232 277.3266
v 7.248744 -120.5888 -87.13748
v 612.7501 -86.56503 518.212
v 126.7502 -58.86228 31.72459
v 251.6717 -72.08813 156.4503
v 493.1205 -29.85538 398.116
v 371.0218 -27.93649 276.2941
v -115.095 -100.1082 -87.8598
v 6.924316 -82.63403 33.18315
v 129.4917 -79.34708 156.3731
v 6.626897 -60.2678 153.6664
v 129.2217 -64.17748 277.4901
v 248.6273 -22.11303 275.1291
v 249.9515 -36.76063 398.0117
v 371.7318 -46.17857 398.1517
v 371.5205 -29.63914 519.7507
v 493.2203 -29.14284 519.8279
v 493.3738 -27.64628 641.9678
v 614.9359 -37.5347 641.6093
f 253 254 255
f 253 255 256
f 257 253 256
f 256 255 258
f 257 256 259
f 260 257 259
f 256 258 261
f 259 256 261
f 261 258 262
f 260 259 263
f 264 260 263
f 259 261 265
f 263 259 265
f 261 262 266
f 265 261 266
f 266 262 267
f 264 263 268
f 269 264 268
f 263 265 270
f 268 263 270
f 266 267 271
f 271 267 272
f 265 266 273
f 270 265 273
f 273 266 271
f 269 268 274
f 275 269 274
f 271 272 276
f 276 272 277
f 268 270 278
f 274 268 278
f 270 273 279
f 278 270 279
f 273 271 280
f 280 271 276
f 279 273 280
f 275 274 281
f 282 275 281
f 276 277 283
f 283 277 284
f 274 278 285
f 281 274 285
f 278 279 286
f 285 278 286
f 279 280 287
f 286 279 287
f 280 276 288
f 288 276 283
f 287 280 288
f 282 281 289
f 290 282 289
f 283 284 291
f 291 284 292
f 281 285 293
f 289 281 293
f 285 286 294
f 293 285 294
f 286 287 295
f 294 286 295
f 287 288 296
f 295 287 296
f 288 283 297
f 297 283 291
f 296 288 297
f 291 292 298
f 298 292 299
f 297 291 300
f 300 291 298
f 296 297 301
f 301 297 300
f 295 296 302
f 302 296 301
f 294 295 303
f 303 295 302
f 298 299 304
f 304 299 305
f 300 298 306
f 306 298 304
f 301 300 307
f 307 300 306
f 302 301 308
f 308 301 307
f 304 305 309
f 309 305 310
f 306 304 311
f 311 304 309
f 307 306 312
f 312 306 311
f 309 310 313
f 313 310 314
f 311 309 315
f 315 309 313
f 313 314 316
f 316 314 317
f 318 302 308
f 303 302 318
f 308 307 319
f 319 307 312
f 312 311 320
f 320 311 315
f 315 313 321
f 321 313 316
f 316 317 322
f 322 317 323
f 318 308 324
f 324 308 319
f 319 312 325
f 325 312 320
f 320 315 326
f 326 315 321
f 321 316 327
f 327 316 322
f 322 323 328
f 328 323 329
f 324 319 330
f 330 319 325
f 325 320 331
f 331 320 326
f 326 321 332
f 332 321 327
f 327 322 333
f 333 322 328
f 328 329 334
f 334 329 335
f 330 325 336
f 336 325 331
f 331 326 337
f 337 326 332
f 332 327 338
f 338 327 333
f 333 328 339
f 339 328 334
f 334 335 340
f 340 335 341
f 336 331 342
f 342 331 337
f 337 332 343
f 343 332 338
f 338 333 344
f 344 333 339
f 339 334 345
f 345 334 340
f 340 341 346
f 346 341 347
f 342 337 348
f 348 337 343
f 343 338 349
f 349 338 344
f 344 339 350
f 350 339 345
f 345 340 351
f 351 340 346
f 346 347 352
f 352 347 353
f 348 343 354
f 354 343 349
f 349 344 355
f 355 344 350
f 350 345 356
f 356 345 351
f 351 346 357
f 357 346 352
f 352 353 358
f 358 353 359
f 354 349 360
f 360 349 355
f 355 350 361
f 361 350 356
f 356 351 362
f 362 351 357
f 357 352 363
f 363 352 358
f 358 359 364
f 364 359 365
f 360 355 366
f 366 355 361
f 361 356 367
f 367 356 362
f 362 357 368
f 368 357 363
f 363 358 369
f 369 358 364
f 364 365 370
f 370 365 371
f 366 361 372
f 372 361 367
f 367 362 373
f 373 362 368
f 368 363 374
f 374 363 369
f 369 364 375
f 375 364 370
f 370 371 376
f 376 371 377
f 372 367 378
f 378 367 373
f 373 368 379
f 379 368 374
f 374 369 380
f 380 369 375
f 375 370 381
f 381 370 376
f 376 377 382
f 382 377 383
f 378 373 384
f 384 373 379
f 379 374 385
f 385 374 380
f 380 375 386
f 386 375 381
f 381 376 387
f 387 376 382
f 382 383 388
f 388 383 389
f 384 379 390
f 390 379 385
f 385 380 391
f 391 380 386
f 386 381 392
f 392 381 387
f 387 382 393
f 393 382 388
f 388 389 394
f 394 389 395
f 390 385 396
f 396 385 391
f 391 386 397
f 397 386 392
f 392 387 398
f 398 387 393
f 393 388 399
f 399 388 394
f 394 395 400
f 400 395 401
f 396 391 402
f 402 391 397
f 397 392 403
f 403 392 398
f 398 393 404
f 404 393 399
f 399 394 405
f 405 394 400
f 400 401 406
f 406 401 407
f 402 397 408
f 408 397 403
f 403 398 409
f 409 398 404
f 404 399 410
f 410 399 405
f 405 400 411
f 411 400 406
f 406 407 412
f 412 407 413
f 408 403 414
f 414 403 409
f 409 404 415
f 415 404 410
f 410 405 416
f 416 405 411
f 411 406 417
f 417 406 412
f 412 413 418
f 418 413 419
f 414 409 420
f 420 409 415
f 415 410 421
f 421 410 416
f 416 411 422
f 422 411 417
f 417 412 423
f 423 412 418
f 418 419 424
f 424 419 425
f 420 415 426
f 426 415 421
f 421 416 427
f 427 416 422
f 422 417 428
f 428 417 423
f 423 418 429
f 429 418 424
f 424 425 430
f 430 425 431
f 430 431 432
f 433 424 430
f 429 424 433
f 434 430 432
f 433 430 434
f 434 432 435
f 436 423 429
f 428 423 436
f 437 422 428
f 427 422 437
f 438 429 433
f 436 429 438
f 439 434 435
f 439 435 440
f 441 433 434
f 438 433 441
f 441 434 439
f 442 428 436
f 437 428 442
f 443 439 440
f 443 440 444
f 445 436 438
f 442 436 445
f 446 441 439
f 446 439 443
f 447 438 441
f 445 438 447
f 447 441 446
f 448 443 444
f 448 444 449
f 450 446 443
f 450 443 448
f 451 447 446
f 451 446 450
f 452 445 447
f 452 447 451
f 453 442 445
f 453 445 452
f 454 448 449
f 454 449 455
f 456 450 448
f 456 448 454
f 457 451 450
f 457 450 456
f 458 452 451
f 458 451 457
f 459 454 455
f 459 455 460
f 461 456 454
f 461 454 459
f 462 457 456
f 462 456 461
f 463 459 460
f 463 460 464
f 465 461 459
f 465 459 463
f 466 463 464
f 466 464 467
f 468 452 458
f 468 453 452
f 469 458 457
f 469 457 462
f 470 462 461
f 470 461 465
f 471 465 463
f 471 463 466
f 472 466 467
f 472 467 473
f 474 468 458
f 474 458 469
f 475 469 462
f 475 462 470
f 476 470 465
f 476 465 471
f 477 471 466
f 477 466 472
f 478 472 473
f 478 473 479
f 480 474 469
f 480 469 475
f 481 475 470
f 481 470 476
f 482 476 471
f 482 471 477
f 483 477 472
f 483 472 478
f 484 478 479
f 484 479 485
f 486 480 475
f 486 475 481
f 487 481 476
f 487 476 482
f 488 482 477
f 488 477 483
f 489 483 478
f 489 478 484
f 490 484 485
f 490 485 491
f 492 486 481
f 492 481 487
f 493 487 482
f 493 482 488
f 494 488 483
f 494 483 489
f 495 489 484
f 495 484 490
f 496 490 491
f 496 491 497
f 498 492 487
f 498 487 493
f 499 493 488
f 499 488 494
f 500 494 489
f 500 489 495
f 501 495 490
f 501 490 496
f 502 496 497
f 502 497 503
f 504 498 493
f 504 493 499
f 505 499 494
f 505 494 500
f 506 500 495
f 506 495 501
f 507 501 496
f 507 496 502
f 508 502 503
f 508 503 509
f 510 504 499
f 510 499 505
f 511 505 500
f 511 500 506
f 512 506 501
f 512 501 507
f 513 507 502
f 513 502 508
f 514 508 509
f 514 509 515
f 516 510 505
f 516 505 511
f 517 511 506
f 517 506 512
f 518 512 507
f 518 507 513
f 519 513 508
f 519 508 514
f 520 514 515
f 520 515 521
f 522 516 511
f 522 511 517
f 523 517 512
f 523 512 518
f 524 518 513
f 524 513 519
f 525 519 514
f 525 514 520
f 526 520 521
f 526 521 527
f 528 522 517
f 528 517 523
f 529 523 518
f 529 518 524
f 530 524 519
f 530 519 525
f 531 525 520
f 531 520 526
f 532 526 527
f 532 527 533
f 534 528 523
f 534 523 529
f 535 529 524
f 535 524 530
f 536 530 525
f 536 525 531
f 537 531 526
f 537 526 532
f 538 532 533
f 538 533 539
f 540 534 529
f 540 529 535
f 541 535 530
f 541 530 536
f 542 536 531
f 542 531 537
f 543 537 532
f 543 532 538
f 544 538 539
f 544 539 545
f 546 540 535
f 546 535 541
f 547 541 536
f 547 536 542
f 548 542 537
f 548 537 543
f 549 543 538
f 549 538 544
f 550 544 545
f 550 545 551
f 552 546 541
f 552 541 547
f 553 547 542
f 553 542 548
f 554 548 543
f 554 543 549
f 555 549 544
f 555 544 550
f 556 550 551
f 556 551 557
f 558 552 547
f 558 547 553
f 559 553 548
f 559 548 554
f 560 554 549
f 560 549 555
f 561 555 550
f 561 550 556
f 562 556 557
f 562 557 563
f 564 558 553
f 564 553 559
f 565 559 554
f 565 554 560
f 566 560 555
f 566 555 561
f 567 561 556
f 567 556 562
f 568 562 563
f 568 563 569
f 570 564 559
f 570 559 565
f 571 565 560
f 571 560 566
f 572 566 561
f 572 561 567
f 573 567 562
f 573 562 568
f 574 568 569
f 574 569 575
f 576 570 565
f 576 565 571
f 577 571 566
f 577 566 572
f 578 572 567
f 578 567 573
f 579 573 568
f 579 568 574
f 580 574 575
f 580 575 581
f 582 576 571
f 582 571 577
f 583 577 572
f 583 572 578
f 584 578 573
f 584 573 579
f 585 579 574
f 585 574 580
f 586 580 581
f 586 581 587
f 588 582 577
f 588 577 583
f 589 583 578
f 589 578 584
f 590 584 579
f 590 579 585
f 591 585 580
f 591 580 586
f 592 586 587
f 592 587 593
f 594 588 583
f 594 583 589
f 595 589 584
f 595 584 590
f 596 590 585
f 596 585 591
f 597 591 586
f 597 586 592
f 598 592 593
f 598 593 599
f 600 598 599
f 600 599 601
f 602 598 600
f 603 592 598
f 602 603 598
f 603 597 592
f 604 603 602
f 604 605 603
f 605 597 603
f 606 605 604
f 607 591 597
f 605 607 597
f 607 596 591
f 606 608 605
f 608 607 605
f 609 608 606
f 610 596 607
f 608 610 607
f 609 611 608
f 611 610 608
f 612 611 609
f 610 613 596
f 613 590 596
f 613 595 590
f 612 614 611
f 615 614 612
f 611 616 610
f 616 613 610
f 614 616 611
f 617 595 613
f 616 617 613
f 615 618 614
f 619 618 615
f 614 620 616
f 620 617 616
f 618 620 614
f 617 621 595
f 621 589 595
f 621 594 589
f 619 622 618
f 623 622 619
f 618 624 620
f 622 624 618
f 620 625 617
f 625 621 617
f 624 625 620
f 626 594 621
f 625 626 621
f 623 627 622
f 628 627 623
f 622 629 624
f 627 629 622
f 624 630 625
f 630 626 625
f 629 630 624
f 626 631 594
f 631 588 594
f 628 632 627
f 633 632 628
f 627 634 629
f 632 634 627
f 630 635 626
f 635 631 626
f 629 636 630
f 634 636 629
f 636 635 630
f 631 637 588
f 637 582 588
f 633 638 632
f 639 638 633
f 632 640 634
f 638 640 632
f 634 641 636
f 640 641 634
f 635 642 631
f 642 637 631
f 636 643 635
f 641 643 636
f 643 642 635
f 637 644 582
f 644 576 582
f 639 645 638
f 646 645 639
f 638 647 640
f 645 647 638
f 640 648 641
f 647 648 640
f 641 649 643
f 648 649 641
f 642 650 637
f 650 644 637
f 643 651 642
f 649 651 643
f 651 650 642
f 646 652 645
f 653 652 646
f 645 654 647
f 652 654 645
f 647 655 648
f 654 655 647
f 648 656 649
f 655 656 648
f 649 657 651
f 656 657 649
f 651 658 650
f 657 658 651
f 653 659 652
f 660 659 653
f 652 661 654
f 659 661 652
f 654 662 655
f 661 662 654
f 655 663 656
f 662 663 655
f 656 664 657
f 663 664 656
f 660 665 659
f 666 665 660
f 659 667 661
f 665 667 659
f 661 668 662
f 667 668 661
f 662 669 663
f 668 669 662
f 666 670 665
f 671 670 666
f 665 672 667
f 670 672 665
f 667 673 668
f 672 673 667
f 671 674 670
f 675 674 671
f 670 676 672
f 674 676 670
f 675 677 674
f 678 677 675
f 669 679 663
f 663 679 664
f 668 680 669
f 673 680 668
f 672 681 673
f 676 681 672
f 674 682 676
f 677 682 674
f 678 683 677
f 684 683 678
f 669 685 679
f 680 685 669
f 673 686 680
f 681 686 673
f 676 687 681
f 682 687 676
f 677 688 682
f 683 688 677
f 684 689 683
f 690 689 684
f 680 691 685
f 686 691 680
f 681 692 686
f 687 692 681
f 682 693 687
f 688 693 682
f 683 694 688
f 689 694 683
f 690 695 689
f 696 695 690
f 686 697 691
f 692 697 686
f 687 698 692
f 693 698 687
f 688 699 693
f 694 699 688
f 689 700 694
f 695 700 689
f 696 701 695
f 702 701 696
f 692 703 697
f 698 703 692
f 693 704 698
f 699 704 693
f 694 705 699
f 700 705 694
f 695 706 700
f 701 706 695
f 702 707 701
f 708 707 702
f 698 709 703
f 704 709 698
f 699 710 704
f 705 710 699
f 700 711 705
f 706 711 700
f 701 712 706
f 707 712 701
f 708 713 707
f 714 713 708
f 704 715 709
f 710 715 704
f 705 716 710
f 711 716 705
f 706 717 711
f 712 717 706
f 707 718 712
f 713 718 707
f 714 719 713
f 720 719 714
f 710 721 715
f 716 721 710
f 711 722 716
f 717 722 711
f 712 723 717
f 718 723 712
f 713 724 718
f 719 724 713
f 720 725 719
f 726 725 720
f 716 727 721
f 722 727 716
f 717 728 722
f 723 728 717
f 718 729 723
f 724 729 718
f 719 730 724
f 725 730 719
f 726 731 725
f 732 731 726
f 722 733 727
f 728 733 722
f 723 734 728
f 729 734 723
f 724 735 729
f 730 735 724
f 725 736 730
f 731 736 725
f 732 737 731
f 738 737 732
f 728 739 733
f 734 739 728
f 729 740 734
f 735 740 729
f 730 741 735
f 736 741 730
f 731 742 736
f 737 742 731
f 738 743 737
f 744 743 738
f 734 745 739
f 740 745 734
f 735 746 740
f 741 746 735
f 736 747 741
f 742 747 736
f 737 748 742
f 743 748 737
f 744 749 743
f 750 749 744
f 740 751 745
f 746 751 740
f 741 752 746
f 747 752 741
f 742 753 747
f 748 753 742
f 743 754 748
f 749 754 743
f 750 755 749
f 756 755 750
f 756 757 755
f 755 758 749
f 749 758 754
f 757 759 755
f 755 759 758
f 757 760 759
f 754 761 748
f 748 761 753
f 753 762 747
f 747 762 752
f 758 763 754
f 754 763 761
f 760 764 759
f 760 765 764
f 759 766 758
f 758 766 763
f 759 764 766
f 761 767 753
f 753 767 762
f 765 768 764
f 765 769 768
f 763 770 761
f 761 770 767
f 764 771 766
f 764 768 771
f 766 772 763
f 763 772 770
f 766 771 772
f 769 773 768
f 769 774 773
f 768 775 771
f 768 773 775
f 771 776 772
f 771 775 776
f 772 777 770
f 772 776 777
f 770 778 767
f 770 777 778
f 774 779 773
f 774 780 779
f 773 781 775
f 773 779 781
f 775 782 776
f 775 781 782
f 776 783 777
f 776 782 783
f 780 784 779
f 780 785 784
f 779 786 781
f 779 784 786
f 781 787 782
f 781 786 787
f 785 788 784
f 785 789 788
f 784 790 786
f 784 788 790
f 789 791 788
f 789 792 791
f 777 783 793
f 777 793 778
f 782 794 783
f 782 787 794
f 786 795 787
f 786 790 795
f 788 796 790
f 788 791 796
f 792 797 791
f 792 798 797
f 783 799 793
f 783 794 799
f 787 800 794
f 787 795 800
f 790 801 795
f 790 796 801
f 791 802 796
f 791 797 802
f 798 803 797
f 798 804 803
f 794 805 799
f 794 800 805
f 795 806 800
f 795 801 806
f 796 807 801
f 796 802 807
f 797 808 802
f 797 803 808
f 804 809 803
f 804 810 809
f 800 811 805
f 800 806 811
f 801 812 806
f 801 807 812
f 802 813 807
f 802 808 813
f 803 814 808
f 803 809 814
f 810 815 809
f 810 816 815
f 806 817 811
f 806 812 817
f 807 818 812
f 807 813 818
f 808 819 813
f 808 814 819
f 809 820 814
f 809 815 820
f 816 821 815
f 816 822 821
f 812 823 817
f 812 818 823
f 813 824 818
f 813 819 824
f 814 825 819
f 814 820 825
f 815 826 820
f 815 821 826
f 822 827 821
f 822 828 827
f 818 829 823
f 818 824 829
f 819 830 824
f 819 825 830
f 820 831 825
f 820 826 831
f 821 832 826
f 821 827 832
f 828 833 827
f 828 834 833
f 824 835 829
f 824 830 835
f 825 836 830
f 825 831 836
f 826 837 831
f 826 832 837
f 827 838 832
f 827 833 838
f 834 839 833
f 834 840 839
f 830 841 835
f 830 836 841
f 831 842 836
f 831 837 842
f 832 843 837
f 832 838 843
f 833 844 838
f 833 839 844
f 840 845 839
f 840 846 845
f 836 847 841
f 836 842 847
f 837 848 842
f 837 843 848
f 838 849 843
f 838 844 849
f 839 850 844
f 839 845 850
f 846 851 845
f 846 852 851
f 842 853 847
f 842 848 853
f 843 854 848
f 843 849 854
f 844 855 849
f 844 850 855
f 845 856 850
f 845 851 856
f 852 857 851
f 852 858 857
f 848 859 853
f 848 854 859
f 849 860 854
f 849 855 860
f 850 861 855
f 850 856 861
f 851 862 856
f 851 857 862
f 858 863 857
f 858 864 863
f 854 865 859
f 854 860 865
f 855 866 860
f 855 861 866
f 856 867 861
f 856 862 867
f 857 868 862
f 857 863 868
f 864 869 863
f 864 870 869
f 860 871 865
f 860 866 871
f 861 872 866
f 861 867 872
f 862 873 867
f 862 868 873
f 863 874 868
f 863 869 874
f 870 875 869
f 870 876 875
f 866 877 871
f 866 872 877
f 867 878 872
f 867 873 878
f 868 879 873
f 868 874 879
f 869 880 874
f 869 875 880
f 876 881 875
f 876 290 881
f 290 289 881
f 875 881 882
f 875 882 880
f 881 289 883
f 881 883 882
f 289 293 883
f 874 880 884
f 874 884 879
f 873 879 885
f 873 885 878
f 880 882 886
f 880 886 884
f 883 293 887
f 293 294 887
f 887 294 303
f 882 883 888
f 883 887 888
f 882 888 886
f 887 303 889
f 888 887 889
f 889 303 318
f 879 884 890
f 879 890 885
f 884 886 891
f 884 891 890
f 886 888 892
f 888 889 892
f 886 892 891
f 889 318 893
f 892 889 893
f 893 318 324
f 891 892 894
f 892 893 894
f 893 324 895
f 894 893 895
f 895 324 330
f 890 891 896
f 891 894 896
f 885 890 897
f 890 896 897
f 894 895 898
f 896 894 898
f 895 330 899
f 898 895 899
f 899 330 336
f 896 898 900
f 897 896 900
f 885 897 901
f 878 885 901
f 898 899 902
f 900 898 902
f 899 336 903
f 902 899 903
f 903 336 342
f 897 900 904
f 901 897 904
f 878 901 905
f 872 878 905
f 872 905 877
f 900 902 906
f 904 900 906
f 902 903 907
f 906 902 907
f 903 342 908
f 907 903 908
f 908 342 348
f 905 901 909
f 901 904 909
f 877 905 910
f 905 909 910
f 904 906 911
f 909 904 911
f 906 907 912
f 911 906 912
f 907 908 913
f 912 907 913
f 908 348 914
f 913 908 914
f 914 348 354
f 909 911 915
f 910 909 915
f 877 910 916
f 871 877 916
f 911 912 917
f 915 911 917
f 912 913 918
f 917 912 918
f 913 914 919
f 918 913 919
f 914 354 920
f 919 914 920
f 920 354 360
f 910 915 921
f 916 910 921
f 871 916 922
f 865 871 922
f 915 917 923
f 921 915 923
f 917 918 924
f 923 917 924
f 918 919 925
f 924 918 925
f 919 920 926
f 925 919 926
f 920 360 927
f 926 920 927
f 927 360 366
f 927 366 928
f 928 366 372
f 926 927 929
f 929 927 928
f 925 926 930
f 930 926 929
f 924 925 931
f 931 925 930
f 923 924 932
f 932 924 931
f 928 372 933
f 933 372 378
f 929 928 934
f 934 928 933
f 930 929 935
f 935 929 934
f 931 930 936
f 936 930 935
f 933 378 937
f 937 378 384
f 934 933 938
f 938 933 937
f 935 934 939
f 939 934 938
f 937 384 940
f 940 384 390
f 938 937 941
f 941 937 940
f 940 390 942
f 942 390 396
f 943 931 936
f 932 931 943
f 936 935 944
f 944 935 939
f 939 938 945
f 945 938 941
f 941 940 946
f 946 940 942
f 942 396 947
f 947 396 402
f 943 936 948
f 948 936 944
f 944 939 949
f 949 939 945
f 945 941 950
f 950 941 946
f 946 942 951
f 951 942 947
f 947 402 952
f 952 402 408
f 948 944 953
f 953 944 949
f 949 945 954
f 954 945 950
f 950 946 955
f 955 946 951
f 951 947 956
f 956 947 952
f 952 408 957
f 957 408 414
f 953 949 958
f 958 949 954
f 954 950 959
f 959 950 955
f 955 951 960
f 960 951 956
f 956 952 961
f 961 952 957
f 957 414 962
f 962 414 420
f 958 954 963
f 963 954 959
f 959 955 964
f 964 955 960
f 960 956 965
f 965 956 961
f 961 957 966
f 966 957 962
f 962 420 967
f 967 420 426
f 963 959 968
f 968 959 964
f 964 960 969
f 969 960 965
f 965 961 970
f 970 961 966
f 966 962 971
f 971 962 967
f 968 964 972
f 972 964 969
f 969 965 973
f 973 965 970
f 970 966 974
f 974 966 971
f 972 969 975
f 975 969 973
f 973 970 976
f 976 970 974
f 975 973 977
f 977 973 976
f 971 967 978
f 974 971 979
f 979 971 978
f 976 974 980
f 980 974 979
f 977 976 981
f 981 976 980
f 978 967 982
f 967 426 982
f 982 426 983
f 426 421 983
f 983 421 427
f 983 427 984
f 984 427 437
f 982 983 985
f 985 983 984
f 978 982 986
f 986 982 985
f 979 978 987
f 987 978 986
f 980 979 988
f 988 979 987
f 984 437 989
f 989 437 442
f 989 442 453
f 985 984 990
f 990 984 989
f 991 989 453
f 990 989 991
f 991 453 468
f 986 985 992
f 992 985 990
f 987 986 993
f 993 986 992
f 994 990 991
f 992 990 994
f 995 991 468
f 994 991 995
f 995 468 474
f 996 992 994
f 993 992 996
f 997 987 993
f 988 987 997
f 998 995 474
f 998 474 480
f 999 994 995
f 996 994 999
f 999 995 998
f 1000 993 996
f 997 993 1000
f 1001 998 480
f 1001 480 486
f 1002 999 998
f 1002 998 1001
f 1003 996 999
f 1000 996 1003
f 1003 999 1002
f 1004 1001 486
f 1004 486 492
f 1005 1002 1001
f 1005 1001 1004
f 1006 1003 1002
f 1006 1002 1005
f 1007 1000 1003
f 1007 1003 1006
f 1008 997 1000
f 1008 1000 1007
f 1009 1004 492
f 1009 492 498
f 1010 1005 1004
f 1010 1004 1009
f 1011 1006 1005
f 1011 1005 1010
f 1012 1007 1006
f 1012 1006 1011
f 1013 1009 498
f 1013 498 504
f 1014 1010 1009
f 1014 1009 1013
f 1015 1011 1010
f 1015 1010 1014
f 1016 1013 504
f 1016 504 510
f 1017 1014 1013
f 1017 1013 1016
f 1018 1016 510
f 1018 510 516
f 1019 1007 1012
f 1019 1008 1007
f 1020 1012 1011
f 1020 1011 1015
f 1021 1015 1014
f 1021 1014 1017
f 1022 1017 1016
f 1022 1016 1018
f 1023 1018 516
f 1023 516 522
f 1024 1019 1012
f 1024 1012 1020
f 1025 1020 1015
f 1025 1015 1021
f 1026 1021 1017
f 1026 1017 1022
f 1027 1022 1018
f 1027 1018 1023
f 1028 1023 522
f 1028 522 528
f 1029 1024 1020
f 1029 1020 1025
f 1030 1025 1021
f 1030 1021 1026
f 1031 1026 1022
f 1031 1022 1027
f 1032 1027 1023
f 1032 1023 1028
f 1033 1028 528
f 1033 528 534
f 1034 1029 1025
f 1034 1025 1030
f 1035 1030 1026
f 1035 1026 1031
f 1036 1031 1027
f 1036 1027 1032
f 1037 1032 1028
f 1037 1028 1033
f 1038 1033 534
f 1038 534 540
f 1039 1034 1030
f 1039 1030 1035
f 1040 1035 1031
f 1040 1031 1036
f 1041 1036 1032
f 1041 1032 1037
f 1042 1037 1033
f 1042 1033 1038
f 1043 1038 540
f 1043 540 546
f 1044 1039 1035
f 1044 1035 1040
f 1045 1040 1036
f 1045 1036 1041
f 1046 1041 1037
f 1046 1037 1042
f 1047 1042 1038
f 1047 1038 1043
f 1048 1043 546
f 1048 546 552
f 1049 1044 1040
f 1049 1040 1045
f 1050 1045 1041
f 1050 1041 1046
f 1051 1046 1042
f 1051 1042 1047
f 1052 1047 1043
f 1052 1043 1048
f 1053 1048 552
f 1053 552 558
f 1054 1049 1045
f 1054 1045 1050
f 1055 1050 1046
f 1055 1046 1051
f 1056 1051 1047
f 1056 1047 1052
f 1057 1052 1048
f 1057 1048 1053
f 1058 1053 558
f 1058 558 564
f 1059 1054 1050
f 1059 1050 1055
f 1060 1055 1051
f 1060 1051 1056
f 1061 1056 1052
f 1061 1052 1057
f 1062 1057 1053
f 1062 1053 1058
f 1063 1058 564
f 1063 564 570
f 1064 1059 1055
f 1064 1055 1060
f 1065 1060 1056
f 1065 1056 1061
f 1066 1061 1057
f 1066 1057 1062
f 1067 1062 1058
f 1067 1058 1063
f 1068 1063 570
f 1068 570 576
f 644 1068 576
f 1069 1063 1068
f 1069 1067 1063
f 1070 1068 644
f 1070 1069 1068
f 650 1070 644
f 658 1070 650
f 1071 1062 1067
f 1071 1066 1062
f 1072 1061 1066
f 1072 1065 1061
f 1073 1069 1070
f 658 1073 1070
f 1074 1067 1069
f 1074 1071 1067
f 1073 1074 1069
f 1075 1066 1071
f 1075 1072 1066
f 1076 1073 658
f 657 1076 658
f 664 1076 657
f 1077 1074 1073
f 1076 1077 1073
f 1078 1071 1074
f 1078 1075 1071
f 1077 1078 1074
f 664 1079 1076
f 1079 1077 1076
f 679 1079 664
f 1080 1078 1077
f 1079 1080 1077
f 679 1081 1079
f 1081 1080 1079
f 685 1081 679
f 1082 1075 1078
f 1080 1082 1078
f 685 1083 1081
f 691 1083 685
f 1081 1084 1080
f 1084 1082 1080
f 1083 1084 1081
f 1082 1085 1075
f 1085 1072 1075
f 691 1086 1083
f 697 1086 691
f 1084 1087 1082
f 1087 1085 1082
f 1083 1088 1084
f 1086 1088 1083
f 1088 1087 1084
f 1085 1089 1072
f 1089 1065 1072
f 697 1090 1086
f 703 1090 697
f 1086 1091 1088
f 1090 1091 1086
f 1088 1092 1087
f 1091 1092 1088
f 1087 1093 1085
f 1093 1089 1085
f 1092 1093 1087
f 1089 1094 1065
f 1094 1060 1065
f 1094 1064 1060
f 703 1095 1090
f 709 1095 703
f 1090 1096 1091
f 1095 1096 1090
f 1091 1097 1092
f 1096 1097 1091
f 1093 1098 1089
f 1098 1094 1089
f 1092 1099 1093
f 1097 1099 1092
f 1099 1098 1093
f 1100 1064 1094
f 1098 1100 1094
f 709 1101 1095
f 715 1101 709
f 1095 1102 1096
f 1101 1102 1095
f 1096 1103 1097
f 1102 1103 1096
f 1097 1104 1099
f 1103 1104 1097
f 1099 1105 1098
f 1105 1100 1098
f 1104 1105 1099
f 1100 1106 1064
f 1106 1059 1064
f 715 1107 1101
f 721 1107 715
f 1101 1108 1102
f 1107 1108 1101
f 1102 1109 1103
f 1108 1109 1102
f 1103 1110 1104
f 1109 1110 1103
f 1104 1111 1105
f 1110 1111 1104
f 1105 1112 1100
f 1111 1112 1105
f 1112 1106 1100
f 721 1113 1107
f 727 1113 721
f 1107 1114 1108
f 1113 1114 1107
f 1108 1115 1109
f 1114 1115 1108
f 1109 1116 1110
f 1115 1116 1109
f 1110 1117 1111
f 1116 1117 1110
f 1111 1118 1112
f 1117 1118 1111
f 1112 1119 1106
f 1118 1119 1112
f 727 1120 1113
f 733 1120 727
f 1113 1121 1114
f 1120 1121 1113
f 1114 1122 1115
f 1121 1122 1114
f 1115 1123 1116
f 1122 1123 1115
f 1116 1124 1117
f 1123 1124 1116
f 1117 1125 1118
f 1124 1125 1117
f 733 1126 1120
f 739 1126 733
f 1120 1127 1121
f 1126 1127 1120
f 1121 1128 1122
f 1127 1128 1121
f 1122 1129 1123
f 1128 1129 1122
f 1123 1130 1124
f 1129 1130 1123
f 739 1131 1126
f 745 1131 739
f 1126 1132 1127
f 1131 1132 1126
f 1127 1133 1128
f 1132 1133 1127
f 1128 1134 1129
f 1133 1134 1128
f 745 1135 1131
f 751 1135 745
f 1131 1136 1132
f 1135 1136 1131
f 1132 1137 1133
f 1136 1137 1132
f 1129 1138 1130
f 1134 1138 1129
f 1133 1139 1134
f 1137 1139 1133
f 1134 1140 1138
f 1139 1140 1134
f 751 1141 1135
f 1135 1142 1136
f 1141 1142 1135
f 1136 1143 1137
f 1142 1143 1136
f 1137 1144 1139
f 1143 1144 1137
f 1139 1145 1140
f 1144 1145 1139
f 1146 1141 751
f 746 1146 751
f 752 1146 746
f 752 1147 1146
f 762 1147 752
f 1146 1148 1141
f 1147 1148 1146
f 1141 1149 1142
f 1148 1149 1141
f 1142 1150 1143
f 1149 1150 1142
f 1143 1151 1144
f 1150 1151 1143
f 762 1152 1147
f 767 1152 762
f 767 778 1152
f 1147 1153 1148
f 1152 1153 1147
f 778 1154 1152
f 1152 1154 1153
f 778 793 1154
f 1148 1155 1149
f 1153 1155 1148
f 1149 1156 1150
f 1155 1156 1149
f 793 1157 1154
f 793 799 1157
f 1154 1158 1153
f 1153 1158 1155
f 1154 1157 1158
f 799 1159 1157
f 799 805 1159
f 1158 1160 1155
f 1155 1160 1156
f 1157 1161 1158
f 1157 1159 1161
f 1158 1161 1160
f 1156 1162 1150
f 1150 1162 1151
f 805 1163 1159
f 805 811 1163
f 1159 1164 1161
f 1159 1163 1164
f 1161 1165 1160
f 1161 1164 1165
f 1160 1166 1156
f 1156 1166 1162
f 1160 1165 1166
f 811 1167 1163
f 811 817 1167
f 1163 1168 1164
f 1163 1167 1168
f 1164 1169 1165
f 1164 1168 1169
f 1165 1170 1166
f 1165 1169 1170
f 1166 1171 1162
f 1166 1170 1171
f 817 1172 1167
f 817 823 1172
f 1167 1173 1168
f 1167 1172 1173
f 1168 1174 1169
f 1168 1173 1174
f 1169 1175 1170
f 1169 1174 1175
f 823 1176 1172
f 823 829 1176
f 1172 1177 1173
f 1172 1176 1177
f 1173 1178 1174
f 1173 1177 1178
f 829 1179 1176
f 829 835 1179
f 1176 1180 1177
f 1176 1179 1180
f 835 1181 1179
f 835 841 1181
f 1170 1175 1182
f 1170 1182 1171
f 1174 1183 1175
f 1174 1178 1183
f 1177 1184 1178
f 1177 1180 1184
f 1179 1185 1180
f 1179 1181 1185
f 841 1186 1181
f 841 847 1186
f 1175 1187 1182
f 1175 1183 1187
f 1178 1188 1183
f 1178 1184 1188
f 1180 1189 1184
f 1180 1185 1189
f 1181 1190 1185
f 1181 1186 1190
f 847 1191 1186
f 847 853 1191
f 1183 1192 1187
f 1183 1188 1192
f 1184 1193 1188
f 1184 1189 1193
f 1185 1194 1189
f 1185 1190 1194
f 1186 1195 1190
f 1186 1191 1195
f 853 1196 1191
f 853 859 1196
f 1188 1197 1192
f 1188 1193 1197
f 1189 1198 1193
f 1189 1194 1198
f 1190 1199 1194
f 1190 1195 1199
f 1191 1200 1195
f 1191 1196 1200
f 859 1201 1196
f 859 865 1201
f 865 922 1201
f 1196 1201 1202
f 1196 1202 1200
f 1195 1200 1203
f 1195 1203 1199
f 1194 1199 1204
f 1194 1204 1198
f 1201 922 1205
f 1201 1205 1202
f 1200 1202 1206
f 1200 1206 1203
f 1199 1203 1207
f 1199 1207 1204
f 922 1208 1205
f 922 916 1208
f 916 921 1208
f 1202 1205 1209
f 1202 1209 1206
f 1203 1206 1210
f 1203 1210 1207
f 1208 921 1211
f 921 923 1211
f 1211 923 932
f 1205 1208 1212
f 1208 1211 1212
f 1205 1212 1209
f 1211 932 1213
f 1212 1211 1213
f 1213 932 943
f 1206 1209 1214
f 1206 1214 1210
f 1209 1212 1215
f 1212 1213 1215
f 1209 1215 1214
f 1213 943 1216
f 1215 1213 1216
f 1216 943 948
f 1214 1215 1217
f 1215 1216 1217
f 1216 948 1218
f 1217 1216 1218
f 1218 948 953
f 1210 1214 1219
f 1214 1217 1219
f 1218 953 1220
f 1220 953 958
f 1217 1218 1221
f 1219 1217 1221
f 1221 1218 1220
f 1210 1219 1222
f 1207 1210 1222
f 1220 958 1223
f 1223 958 963
f 1221 1220 1224
f 1224 1220 1223
f 1219 1221 1225
f 1222 1219 1225
f 1225 1221 1224
f 1207 1222 1226
f 1204 1207 1226
f 1223 963 1227
f 1227 963 968
f 1222 1225 1228
f 1226 1222 1228
f 1225 1224 1229
f 1228 1225 1229
f 1224 1223 1230
f 1230 1223 1227
f 1229 1224 1230
f 1204 1226 1231
f 1198 1204 1231
f 1227 968 1232
f 1232 968 972
f 1226 1228 1233
f 1231 1226 1233
f 1228 1229 1234
f 1233 1228 1234
f 1230 1227 1235
f 1235 1227 1232
f 1229 1230 1236
f 1234 1229 1236
f 1236 1230 1235
f 1198 1231 1237
f 1193 1198 1237
f 1193 1237 1197
f 1232 972 1238
f 1238 972 975
f 1235 1232 1239
f 1239 1232 1238
f 1236 1235 1240
f 1240 1235 1239
f 1234 1236 1241
f 1241 1236 1240
f 1237 1231 1242
f 1231 1233 1242
f 1233 1234 1243
f 1243 1234 1241
f 1242 1233 1243
f 1197 1237 1244
f 1237 1242 1244
f 1238 975 1245
f 1245 975 977
f 1239 1238 1246
f 1246 1238 1245
f 1240 1239 1247
f 1247 1239 1246
f 1241 1240 1248
f 1248 1240 1247
f 1242 1243 1249
f 1244 1242 1249
f 1243 1241 1250
f 1250 1241 1248
f 1249 1243 1250
f 1245 977 1251
f 1251 977 981
f 1246 1245 1252
f 1252 1245 1251
f 1247 1246 1253
f 1253 1246 1252
f 1248 1247 1254
f 1254 1247 1253
f 1250 1248 1255
f 1255 1248 1254
f 1249 1250 1256
f 1256 1250 1255
f 1257 1249 1256
f 1244 1249 1257
f 1258 1244 1257
f 1197 1244 1258
f 1192 1197 1258
f 1192 1258 1259
f 1187 1192 1259
f 1258 1257 1260
f 1259 1258 1260
f 1257 1256 1261
f 1260 1257 1261
f 1256 1255 1262
f 1261 1256 1262
f 1255 1254 1263
f 1262 1255 1263
f 1187 1259 1264
f 1182 1187 1264
f 1259 1260 1265
f 1264 1259 1265
f 1260 1261 1266
f 1265 1260 1266
f 1261 1262 1267
f 1266 1261 1267
f 1182 1264 1268
f 1171 1182 1268
f 1264 1265 1269
f 1268 1264 1269
f 1265 1266 1270
f 1269 1265 1270
f 1171 1268 1271
f 1162 1171 1271
f 1162 1271 1151
f 1268 1269 1272
f 1271 1268 1272
f 1151 1271 1273
f 1271 1272 1273
f 1151 1273 1144
f 1144 1273 1145
f 1272 1269 1274
f 1269 1270 1274
f 1273 1272 1275
f 1273 1275 1145
f 1272 1274 1275
f 1270 1266 1276
f 1266 1267 1276
f 1145 1275 1277
f 1145 1277 1140
f 1275 1274 1278
f 1275 1278 1277
f 1274 1270 1279
f 1270 1276 1279
f 1274 1279 1278
f 1140 1277 1280
f 1140 1280 1138
f 1277 1278 1281
f 1277 1281 1280
f 1278 1279 1282
f 1278 1282 1281
f 1279 1276 1283
f 1279 1283 1282
f 1276 1267 1284
f 1276 1284 1283
f 1138 1280 1285
f 1138 1285 1130
f 1280 1281 1286
f 1280 1286 1285
f 1281 1282 1287
f 1281 1287 1286
f 1282 1283 1288
f 1282 1288 1287
f 1130 1285 1289
f 1130 1289 1124
f 1124 1289 1125
f 1285 1286 1290
f 1285 1290 1289
f 1286 1287 1291
f 1286 1291 1290
f 1289 1292 1125
f 1289 1290 1292
f 1283 1293 1288
f 1283 1284 1293
f 1287 1288 1294
f 1287 1294 1291
f 1290 1291 1295
f 1290 1295 1292
f 1125 1292 1296
f 1125 1296 1118
f 1118 1296 1119
f 1292 1297 1296
f 1292 1295 1297
f 1291 1298 1295
f 1291 1294 1298
f 1288 1299 1294
f 1288 1293 1299
f 1296 1300 1119
f 1296 1297 1300
f 1295 1301 1297
f 1295 1298 1301
f 1294 1302 1298
f 1294 1299 1302
f 1119 1300 1303
f 1119 1303 1106
f 1106 1303 1059
f 1303 1054 1059
f 1303 1304 1054
f 1300 1304 1303
f 1304 1049 1054
f 1297 1305 1300
f 1300 1305 1304
f 1297 1301 1305
f 1304 1306 1049
f 1305 1306 1304
f 1306 1044 1049
f 1301 1307 1305
f 1305 1307 1306
f 1306 1308 1044
f 1307 1308 1306
f 1308 1039 1044
f 1301 1309 1307
f 1298 1309 1301
f 1298 1302 1309
f 1307 1310 1308
f 1309 1310 1307
f 1308 1311 1039
f 1310 1311 1308
f 1311 1034 1039
f 1302 1312 1309
f 1309 1312 1310
f 1311 1313 1034
f 1313 1029 1034
f 1310 1314 1311
f 1312 1314 1310
f 1314 1313 1311
f 1302 1315 1312
f 1299 1315 1302
f 1313 1316 1029
f 1316 1024 1029
f 1312 1317 1314
f 1315 1317 1312
f 1314 1318 1313
f 1318 1316 1313
f 1317 1318 1314
f 1299 1319 1315
f 1293 1319 1299
f 1316 1320 1024
f 1320 1019 1024
f 1315 1321 1317
f 1319 1321 1315
f 1317 1322 1318
f 1321 1322 1317
f 1318 1323 1316
f 1323 1320 1316
f 1322 1323 1318
f 1293 1324 1319
f 1284 1324 1293
f 1320 1325 1019
f 1325 1008 1019
f 1319 1326 1321
f 1324 1326 1319
f 1321 1327 1322
f 1326 1327 1321
f 1323 1328 1320
f 1328 1325 1320
f 1322 1329 1323
f 1327 1329 1322
f 1329 1328 1323
f 1284 1330 1324
f 1267 1330 1284
f 1267 1262 1330
f 1262 1263 1330
f 1330 1331 1324
f 1324 1331 1326
f 1330 1263 1331
f 1326 1332 1327
f 1331 1332 1326
f 1263 1333 1331
f 1331 1333 1332
f 1263 1254 1333
f 1254 1253 1333
f 1333 1253 1334
f 1333 1334 1332
f 1253 1252 1334
f 1332 1335 1327
f 1332 1334 1335
f 1327 1335 1329
f 1334 1252 1336
f 1334 1336 1335
f 1252 1251 1336
f 1335 1337 1329
f 1335 1336 1337
f 1329 1337 1328
f 1336 1251 1338
f 1336 1338 1337
f 1251 981 1338
f 1337 1339 1328
f 1337 1338 1339
f 1328 1339 1325
f 1338 981 1340
f 1338 1340 1339
f 981 980 1340
f 1340 980 988
f 1339 1341 1325
f 1339 1340 1341
f 1340 988 1341
f 1325 1341 1008
f 1341 988 997
f 1341 997 1008
v -13.43359 0.03991847 139.3376
v 13.88197 0.03991761 139.3618
v -13.43602 0.03991994 142.0714
v 13.87954 0.03991908 142.0957
v -13.43602 -16.03992 142.0714
v 13.87954 -16.03992 142.0957
v -13.43359 -16.03992 139.3376
v 13.88197 -16.03992 139.3618
v -13.43602 0.03991994 142.0714
v 13.87954 0.03991908 142.0957
v -13.43602 -16.03992 142.0714
v 13.87954 -16.03992 142.0957
v -13.43359 -16.03992 139.3376
v -13.43359 0.03991847 139.3376
v 13.88197 0.03991761 139.3618
v 13.88197 -16.03992 139.3618
v 13.88197 0.03991761 139.3618
v 13.87954 0.03991908 142.0957
v 13.87954 -16.03992 142.0957
v 13.88197 -16.03992 139.3618
v -13.43359 -16.03992 139.3376
v -13.43602 -16.03992 142.0714
v -13.43602 0.03991994 142.0714
v -13.43359 0.03991847 139.3376
f 1342 1344 1345
f 1342 1345 1343
f 1350 1346 1347
f 1350 1347 1351
f 1352 1348 1349
f 1352 1349 1353
f 1354 1355 1356
f 1354 1356 1357
f 1358 1359 1360
f 1358 1360 1361
f 1362 1363 1364
f 1362 1364 1365
