v 1.227047 -10.42091 2.990101
v 1.926643 -10.17029 2.359318
v 1.185281 -10.17029 2.912642
v 1.988468 -10.42091 2.421807
v 3.27012 -10.17029 2.109959
v 3.368291 -10.42091 2.165702
v -3.672437 -10.42091 2.053366
v -3.419286 -10.42091 3.404717
v -3.338661 -10.17029 3.316337
v -3.585144 -10.17029 2.000583
v -4.110631 -10.42091 0.9558604
v -4.011795 -10.17029 0.9319879
v -4.485151 -10.42091 0.05494065
v -4.376449 -10.17029 0.0547996
v -2.460883 -10.42091 -3.291748
v -3.180574 -10.42091 -2.676666
v -3.106237 -10.17029 -2.604852
v -2.405504 -10.17029 -3.203732
v -1.644214 -10.42091 -3.625761
v -1.610347 -10.17029 -3.528946
v -0.4484152 -10.42091 -3.855418
v -0.4460477 -10.17029 -3.752553
v -3.180574 -10.42091 -2.676666
v -3.30735 -10.42091 -1.718816
v -3.229673 -10.17029 -1.672233
v -3.106237 -10.17029 -2.604852
v -3.30735 -10.42091 -1.718816
v -4.110631 -10.42091 -0.8459796
v -4.011795 -10.17029 -0.8223885
v -3.229673 -10.17029 -1.672233
v -4.110631 -10.42091 -0.8459796
v -4.485151 -10.42091 0.05494065
v -4.376449 -10.17029 0.0547996
v -4.011795 -10.17029 -0.8223885
v 3.368291 -10.42091 2.165702
v 3.860453 -10.42091 0.9839445
v 3.749317 -10.17029 0.9593319
v 3.27012 -10.17029 2.109959
v 3.860453 -10.42091 0.9839445
v 3.662088 -10.17029 -0.04090411
v 3.749317 -10.17029 0.9593319
v 3.770864 -10.42091 -0.04335228
v 3.366503 -10.17029 -1.1095
v 3.467282 -10.42091 -1.140858
v 2.996681 -10.17029 -2.082392
v 3.087454 -10.42091 -2.140071
v 2.254771 -10.17029 -3.069711
v 2.325473 -10.42091 -3.154101
v 1.431375 -10.17029 -3.559202
v 1.4798 -10.42091 -3.656836
v 1.431375 -10.17029 -3.559202
v 2.996681 -10.17029 -2.082392
v 2.254771 -10.17029 -3.069711
v 1.63719 -10.17029 -1.798348
v 0.4995 -10.17029 -3.091442
v 3.366503 -10.17029 -1.1095
v 0.5971128 -10.17029 -2.187314
v -0.4460477 -10.17029 -3.752553
v 2.02023 -10.17029 -0.8223888
v 3.662088 -10.17029 -0.04090411
v -0.2956562 -10.17029 -2.364647
v -1.610347 -10.17029 -3.528946
v 2.215876 -10.17029 0.0547996
v 3.749317 -10.17029 0.9593319
v 0.7600025 -10.17029 -0.9469189
v -1.195163 -10.17029 -2.184927
v -2.405504 -10.17029 -3.203732
v 2.02023 -10.17029 0.9319875
v 3.27012 -10.17029 2.109959
v 0.8594896 -10.17029 0.0547996
v -0.2956562 -10.17029 -1.066541
v -2.305679 -10.17029 -1.776388
v -3.106237 -10.17029 -2.604852
v -3.229673 -10.17029 -1.672233
v 1.637191 -10.17029 1.950494
v 1.926643 -10.17029 2.359318
v 1.185281 -10.17029 2.912642
v -1.428491 -10.17029 -0.932618
v -2.854358 -10.17029 -0.8223888
v -4.011795 -10.17029 -0.8223885
v 0.7600025 -10.17029 1.110162
v 0.5971128 -10.17029 2.507015
v 0.8002833 -10.17029 3.897693
v -0.2959942 -10.17029 0.05510039
v -3.134607 -10.17029 0.0547996
v -4.376449 -10.17029 0.0547996
v -1.571001 -10.17029 0.0547996
v -0.2956562 -10.17029 1.281313
v -0.2956562 -10.17029 2.760737
v -0.2546403 -10.17029 3.998873
v -1.428491 -10.17029 1.0897
v -2.854358 -10.17029 0.9319879
v -4.011795 -10.17029 0.9319879
v -1.195163 -10.17029 2.5036
v -1.241204 -10.17029 3.774645
v -2.305679 -10.17029 1.919074
v -3.585144 -10.17029 2.000583
v -2.132064 -10.17029 3.404833
v -3.338661 -10.17029 3.316337
v 3.467282 -10.42091 -1.140858
v 2.765505 -11.33283 -1.93483
v 3.087454 -10.42091 -2.140071
v 3.109829 -11.33283 -1.029017
v 3.770864 -10.42091 -0.04335228
v 3.385034 -11.33283 -0.03409851
v 3.860453 -10.42091 0.9839445
v 3.46625 -11.33283 0.897173
v 3.368291 -10.42091 2.165702
v 3.020092 -11.33283 1.968467
v -3.672437 -10.42091 2.053366
v -3.133026 -11.33283 3.091669
v -3.419286 -10.42091 3.404717
v -3.362515 -11.33283 1.866633
v -4.110631 -10.42091 0.9558604
v -3.75975 -11.33283 0.8717147
v -4.485151 -10.42091 0.05494065
v -4.099262 -11.33283 0.05500672
v -0.2518293 -10.42091 4.105718
v 0.7205449 -11.33283 3.63294
v 0.8316349 -10.42091 4.001801
v -0.261644 -11.33283 3.727144
v -1.265084 -10.42091 3.875424
v -1.180186 -11.33283 3.518376
v -2.180045 -10.42091 3.495608
v -2.009623 -11.33283 3.174063
v -3.419286 -10.42091 3.404717
v -3.133026 -11.33283 3.091669
v 3.087454 -10.42091 -2.140071
v 2.765505 -11.33283 -1.93483
v 2.074748 -11.33283 -2.854076
v 2.325473 -10.42091 -3.154101
v 1.308125 -11.33283 -3.309818
v 1.4798 -10.42091 -3.656836
v 1.4798 -10.42091 -3.656836
v 1.308125 -11.33283 -3.309818
v 0.4405002 -11.33283 -2.874308
v 0.5227139 -10.42091 -3.176421
v 0.4995 -10.17029 -3.091442
v 1.431375 -10.17029 -3.559202
v 0.8316349 -10.42091 4.001801
v 0.7205449 -11.33283 3.63294
v 1.078997 -11.33283 2.715808
v 1.227047 -10.42091 2.990101
v 1.185281 -10.17029 2.912642
v 0.8002833 -10.17029 3.897693
v -3.180574 -10.42091 -2.676666
v -2.916629 -11.33283 -2.421267
v -3.031554 -11.33283 -1.55295
v -3.30735 -10.42091 -1.718816
v 0.5227139 -10.42091 -3.176421
v 0.4405002 -11.33283 -2.874308
v -0.4398543 -11.33283 -3.489837
v -0.4484152 -10.42091 -3.855418
v 1.227047 -10.42091 2.990101
v 1.078997 -11.33283 2.715808
v 1.769245 -11.33283 2.200634
v 1.988468 -10.42091 2.421807
v -0.4484152 -10.42091 -3.855418
v -0.4398543 -11.33283 -3.489837
v -1.523878 -11.33283 -3.281646
v -1.644214 -10.42091 -3.625761
v -2.264209 -11.33283 -2.978856
v -2.460883 -10.42091 -3.291748
v -2.916629 -11.33283 -2.421267
v -3.180574 -10.42091 -2.676666
v -3.30735 -10.42091 -1.718816
v -3.031554 -11.33283 -1.55295
v -3.75975 -11.33283 -0.7617012
v -4.110631 -10.42091 -0.8459796
v -4.099262 -11.33283 0.05500672
v -4.485151 -10.42091 0.05494065
v 0.5227139 -10.42091 -3.176421
v -0.4484152 -10.42091 -3.855418
v -0.4460477 -10.17029 -3.752553
v 0.4995 -10.17029 -3.091442
v 1.988468 -10.42091 2.421807
v 1.769245 -11.33283 2.200634
v 3.020092 -11.33283 1.968467
v 3.368291 -10.42091 2.165702
v -3.419286 -10.42091 3.404717
v -2.132064 -10.17029 3.404833
v -3.338661 -10.17029 3.316337
v -2.180045 -10.42091 3.495608
v -1.241204 -10.17029 3.774645
v -1.265084 -10.42091 3.875424
v -0.2546403 -10.17029 3.998873
v -0.2518293 -10.42091 4.105718
v 0.8002833 -10.17029 3.897693
v 0.8316349 -10.42091 4.001801
v 0.7205449 -11.33283 3.63294
v 0.2962589 -12.13085 2.224011
v 0.5137607 -12.13085 1.667513
v 1.078997 -11.33283 2.715808
v -0.261644 -11.33283 3.727144
v 0.2962589 -12.13085 2.224011
v 0.7205449 -11.33283 3.63294
v -0.2997135 -12.13085 2.281172
v -1.180186 -11.33283 3.518376
v -0.8570663 -12.13085 2.154496
v -2.009623 -11.33283 3.174063
v -1.360352 -12.13085 1.945573
v -3.133026 -11.33283 3.091669
v -2.04201 -12.13085 1.895578
v -0.7148328 -12.29122 0.7241819
v -0.5358137 -12.29122 0.7984959
v -0.3375629 -12.29122 0.8435547
v -0.1255752 -12.29122 0.8232225
v -0.0482097 -12.29122 0.6252759
v 0.5137607 -12.13085 1.667513
v -0.3760265 -12.29122 -0.7141007
v -0.1860178 -12.29122 -0.58125
v 0.001243323 -12.29122 -0.6752469
v 0.1007678 -12.29122 0.514085
v -0.6099935 -12.29122 -0.6691665
v 0.9325892 -12.13085 1.354916
v 1.078997 -11.33283 2.715808
v 1.769245 -11.33283 2.200634
v 1.691578 -12.13085 1.214042
v 3.020092 -11.33283 1.968467
v 0.3707406 -12.29122 0.4639759
v 0.1667052 -12.29122 -0.5768832
v -0.4078479 -12.13085 -2.097947
v 0.1263335 -12.13085 -1.724457
v 0.4405002 -11.33283 -2.874308
v 0.6527907 -12.13085 -1.988715
v -0.4398543 -11.33283 -3.489837
v -1.065611 -12.13085 -1.971621
v -1.523878 -11.33283 -3.281646
v 1.117962 -12.13085 -1.71218
v -0.7697806 -12.29122 -0.6038146
v -1.51483 -12.13085 -1.787894
v -2.264209 -11.33283 -2.978856
v 2.074748 -11.33283 -2.854076
v 1.308125 -11.33283 -3.309818
v 2.765505 -11.33283 -1.93483
v 1.537099 -12.13085 -1.1544
v 3.109829 -11.33283 -1.029017
v -0.9105935 -12.29122 -0.4834692
v -1.910705 -12.13085 -1.449561
v -2.916629 -11.33283 -2.421267
v 0.3157926 -12.29122 -0.3784805
v 1.746029 -12.13085 -0.6047711
v 3.385034 -11.33283 -0.03409851
v -0.9353982 -12.29122 -0.2960586
v -1.980439 -12.13085 -0.9226834
v -3.031554 -11.33283 -1.55295
v 0.390109 -12.29122 -0.182977
v 1.913017 -12.13085 -0.001074729
v 3.46625 -11.33283 0.897173
v -2.422294 -12.13085 -0.4425695
v -3.75975 -11.33283 -0.7617012
v 0.467036 -12.29122 0.2327564
v 1.962297 -12.13085 0.5640022
v 3.020092 -11.33283 1.968467
v 0.4495068 -12.29122 0.03175818
v -1.092566 -12.29122 -0.1252818
v -2.628303 -12.13085 0.05299253
v -4.099262 -11.33283 0.05500672
v -1.165844 -12.29122 0.05098994
v -2.422294 -12.13085 0.5485545
v -3.75975 -11.33283 0.8717147
v -1.092566 -12.29122 0.2272616
v -1.00683 -12.29122 0.4419968
v -2.18126 -12.13085 1.152251
v -3.362515 -11.33283 1.866633
v -0.957299 -12.29122 0.7063986
v -3.133026 -11.33283 3.091669
v 1.308125 -11.33283 -3.309818
v 0.6527907 -12.13085 -1.988715
v 0.1263335 -12.13085 -1.724457
v 0.4405002 -11.33283 -2.874308
f 1 2 3
f 1 4 2
f 4 5 2
f 4 6 5
f 7 8 9
f 7 9 10
f 11 7 10
f 11 10 12
f 13 11 12
f 13 12 14
f 15 16 17
f 15 17 18
f 19 15 18
f 19 18 20
f 21 19 20
f 21 20 22
f 23 24 25
f 23 25 26
f 27 28 29
f 27 29 30
f 31 32 33
f 31 33 34
f 35 36 37
f 35 37 38
f 39 40 41
f 39 42 40
f 42 43 40
f 42 44 43
f 44 45 43
f 44 46 45
f 46 47 45
f 46 48 47
f 48 49 47
f 48 50 49
f 51 52 53
f 51 54 52
f 55 54 51
f 54 56 52
f 55 57 54
f 58 57 55
f 54 59 56
f 57 59 54
f 59 60 56
f 58 61 57
f 62 61 58
f 59 63 60
f 63 64 60
f 57 65 59
f 61 65 57
f 65 63 59
f 62 66 61
f 67 66 62
f 63 68 64
f 68 69 64
f 65 70 63
f 70 68 63
f 61 71 65
f 66 71 61
f 71 70 65
f 67 72 66
f 73 72 67
f 73 74 72
f 68 75 69
f 75 76 69
f 75 77 76
f 66 78 71
f 72 78 66
f 74 79 72
f 72 79 78
f 74 80 79
f 70 81 68
f 81 75 68
f 82 77 75
f 81 82 75
f 82 83 77
f 71 84 70
f 78 84 71
f 84 81 70
f 80 85 79
f 80 86 85
f 79 87 78
f 78 87 84
f 79 85 87
f 84 88 81
f 88 82 81
f 87 88 84
f 89 83 82
f 88 89 82
f 89 90 83
f 87 91 88
f 85 91 87
f 91 89 88
f 86 92 85
f 85 92 91
f 86 93 92
f 94 90 89
f 91 94 89
f 92 94 91
f 94 95 90
f 93 96 92
f 92 96 94
f 96 95 94
f 93 97 96
f 96 98 95
f 97 98 96
f 97 99 98
f 100 101 102
f 100 103 101
f 104 103 100
f 104 105 103
f 106 105 104
f 106 107 105
f 108 107 106
f 108 109 107
f 110 111 112
f 110 113 111
f 114 113 110
f 114 115 113
f 116 115 114
f 116 117 115
f 118 119 120
f 118 121 119
f 122 121 118
f 122 123 121
f 124 123 122
f 124 125 123
f 126 125 124
f 126 127 125
f 128 129 130
f 128 130 131
f 131 130 132
f 131 132 133
f 134 135 136
f 134 136 137
f 134 137 138
f 134 138 139
f 140 141 142
f 140 142 143
f 140 143 144
f 140 144 145
f 146 147 148
f 146 148 149
f 150 151 152
f 150 152 153
f 154 155 156
f 154 156 157
f 158 159 160
f 158 160 161
f 161 160 162
f 161 162 163
f 163 162 164
f 163 164 165
f 166 167 168
f 166 168 169
f 169 168 170
f 169 170 171
f 172 173 174
f 172 174 175
f 176 177 178
f 176 178 179
f 180 181 182
f 180 183 181
f 183 184 181
f 183 185 184
f 185 186 184
f 185 187 186
f 187 188 186
f 187 189 188
f 190 191 192
f 190 192 193
f 194 195 196
f 194 197 195
f 198 197 194
f 198 199 197
f 200 199 198
f 200 201 199
f 202 201 200
f 202 203 201
f 203 204 201
f 201 205 199
f 201 204 205
f 199 206 197
f 199 205 206
f 197 207 195
f 197 206 207
f 195 207 208
f 195 208 209
f 210 206 205
f 211 207 206
f 210 211 206
f 212 208 207
f 211 212 207
f 209 208 213
f 212 213 208
f 214 205 204
f 214 210 205
f 209 213 215
f 216 209 215
f 216 215 217
f 217 215 218
f 217 218 219
f 215 213 220
f 215 220 218
f 212 221 213
f 221 220 213
f 222 210 214
f 223 210 222
f 223 211 210
f 224 223 222
f 225 211 223
f 225 212 211
f 224 222 226
f 226 222 227
f 222 214 227
f 226 227 228
f 229 212 225
f 229 221 212
f 227 214 230
f 230 214 204
f 228 227 231
f 227 230 231
f 228 231 232
f 233 229 225
f 233 225 234
f 235 229 233
f 235 236 229
f 236 221 229
f 237 236 235
f 231 230 238
f 238 230 204
f 232 231 239
f 231 238 239
f 232 239 240
f 236 241 221
f 221 241 220
f 237 242 236
f 242 241 236
f 243 242 237
f 244 238 204
f 239 238 244
f 240 239 245
f 239 244 245
f 240 245 246
f 241 247 220
f 242 247 241
f 243 248 242
f 248 247 242
f 249 248 243
f 246 245 250
f 246 250 251
f 247 252 220
f 218 220 252
f 249 253 248
f 218 252 253
f 254 253 249
f 254 218 253
f 247 255 252
f 248 255 247
f 253 252 255
f 253 255 248
f 245 256 250
f 245 244 256
f 251 250 257
f 251 257 258
f 250 256 259
f 250 259 257
f 258 257 260
f 258 260 261
f 257 259 262
f 262 259 256
f 257 262 260
f 256 263 262
f 256 244 263
f 260 262 263
f 261 260 264
f 260 263 264
f 261 264 265
f 244 266 263
f 264 263 266
f 244 204 266
f 203 266 204
f 264 266 203
f 265 264 203
f 265 203 267
f 268 269 270
f 268 270 271
v -4177.942 -91.65843 3948.314
v -4177.942 -29.57489 4214.542
v -3911.714 -83.18937 4214.542
v -3911.714 -101.5723 3948.314
v -4177.942 -113.4592 3682.087
v -3645.487 -25.28838 4214.542
v -3911.714 -36.66681 3682.087
v -4177.942 -31.32662 3415.859
v -3645.487 -62.89652 3948.314
v -3379.259 -128.1483 4214.542
v -3911.714 4.122961 3415.859
v -4177.942 -136.22 3149.631
v -3645.487 3.612673 3682.087
v -3379.259 -68.97466 3948.314
v -3113.031 -10.79787 4214.542
v -3911.714 -24.25871 3149.631
v -4177.942 -34.08659 2883.404
v -3645.487 -72.87766 3415.859
v -3113.031 -87.83056 3948.314
v -2846.804 -94.68423 4214.542
v -3379.259 -77.82259 3682.087
v -3911.714 -99.56629 2883.404
v -4177.942 -87.12174 2617.176
v -2846.804 -85.06549 3948.314
v -2580.576 -43.62038 4214.542
v -3645.487 -99.94025 3149.631
v -3379.259 -18.56031 3415.859
v -3113.031 -125.0005 3682.087
v -3911.714 -21.96673 2617.176
v -4177.942 -8.950087 2350.948
v -2580.576 -60.40745 3948.314
v -2314.349 -48.21272 4214.542
v -3645.487 -48.13673 2883.404
v -3379.259 -58.03685 3149.631
v -3113.031 -115.8152 3415.859
v -2846.804 -0.7026044 3682.087
v -3911.714 -27.14763 2350.948
v -4177.942 -0.6529855 2084.721
v -2314.349 -53.20747 3948.314
v -2048.121 -95.46626 4214.542
v -3645.487 -7.839729 2617.176
v -3379.259 -116.8383 2883.404
v -3113.031 -53.0921 3149.631
v -2846.804 -65.03183 3415.859
v -2580.576 -67.9985 3682.087
v -2048.121 -81.1905 3948.314
v -1781.893 -16.4682 4214.542
v -2314.349 -95.19341 3682.087
v -2580.576 -102.6875 3415.859
v -2846.804 -27.18686 3149.631
v -3113.031 -58.35676 2883.404
v -1781.893 -59.20449 3948.314
v -1515.666 -32.18567 4214.542
v -2048.121 -66.36661 3682.087
v -2314.349 -76.33598 3415.859
v -2580.576 -77.47151 3149.631
v -1515.666 -36.02208 3948.314
v -1249.438 -92.94224 4214.542
v -1781.893 -25.62678 3682.087
v -2048.121 3.20013 3415.859
v -1249.438 -11.19366 3948.314
v -983.2105 -44.35725 4214.542
v -1515.666 -74.14445 3682.087
v -983.2105 -42.49306 3948.314
v -716.9829 -34.31531 4214.542
v -2846.804 -56.88516 2883.404
v -2314.349 -74.72763 3149.631
v -1781.894 -61.26048 3415.86
v -1249.441 -18.21576 3682.09
v -716.9829 -30.50233 3948.314
v -450.7552 -63.59812 4214.542
v -2580.576 -56.94496 2883.404
v -2048.128 -3.778082 3149.638
v -1515.672 -81.10341 3415.866
v -983.22 -56.31118 3682.101
v -450.7552 -25.83395 3948.314
v -184.5277 3.859429 4214.542
v -2314.35 -3.630844 2883.406
v -1781.892 -97.46752 3149.63
v -1249.544 -2.283335 3416.039
v -717.0138 -12.28911 3682.167
v -184.5277 -77.45515 3948.314
v 81.69999 14.36235 4214.542
v -2048.191 -18.82359 2883.467
v -1515.708 -79.36837 3149.687
v -983.1844 -110.7018 3415.796
v -450.7722 -25.38071 3682.199
v 81.69999 -88.49236 3948.314
v 347.9276 -38.56815 4214.542
v -1782.016 -61.56316 2883.527
v -1249.52 -74.68459 3149.77
v -717.2271 39.04727 3416.735
v -184.5277 -15.31946 3682.234
v 347.9276 -62.32009 3948.314
v 614.1553 -39.23237 4214.542
v -1514.857 -206.5975 2882.44
v -983.456 -40.98906 3150.199
v -450.9535 85.45419 3417.336
v 81.68401 -162.5591 3681.981
v 614.1553 -104.8243 3948.314
v 880.3829 -98.39901 4214.542
v -1251.343 125.1042 2886.253
v -717.3536 -0.3914721 3150.923
v -184.5277 -118.6191 3415.632
v 347.9511 -32.36261 3682.148
v 880.3829 -40.3455 3948.314
v 1146.61 6.299291 4214.542
v -984.0425 13.94737 2885.063
v -450.8719 -36.42926 3150.442
v 81.67162 -119.1391 3415.647
v 614.1669 -47.44156 3682.104
v 1146.61 -52.06553 3948.314
v 1412.838 -64.17075 4214.542
v -716.9773 -72.95406 2883.387
v -184.5307 -1.529966 3151.089
v 347.9197 -99.1118 3415.829
v 880.3839 -69.97842 3682.088
v 1412.838 33.2412 3948.314
v 1679.066 -40.39886 4214.542
v -451.1807 37.22038 2885.885
v 81.70752 -79.39219 3149.706
v 614.241 -32.95452 3416.156
v 1146.61 -42.10513 3682.087
v 1679.066 -90.17336 3948.314
v 1945.293 -2.905459 4214.542
v -184.6739 51.65699 2886.426
v 348.2443 36.28127 3151.841
v 880.3935 -76.7514 3415.925
v 1412.838 -117.8473 3682.087
v 1945.293 -97.46703 3948.314
v 2211.521 -96.80846 4214.542
v 81.70013 -69.52334 2883.35
v 614.2347 -55.24753 3150.25
v 1146.611 -46.254 3416.005
v 1679.066 -101.4764 3682.087
v 2211.521 -70.50449 3948.314
v 2477.749 -72.93777 4214.542
v 347.9375 -42.94682 2884.236
v 880.5541 19.04877 3151.562
v 1412.84 21.92205 3416.196
v 1945.293 -55.41195 3682.087
v 2477.749 -96.66879 3948.314
v 2743.976 -94.70734 4214.542
v 614.1188 -97.94646 2882.361
v 1146.629 -69.76899 3149.99
v 1679.083 -52.13456 3415.966
v 2211.521 3.842349 3682.087
v 2743.976 -69.05824 3948.314
v 3010.204 -128.3511 4214.542
v 880.5201 -12.23873 2885.537
v 1412.839 -90.99495 3149.639
v 1945.325 -40.47151 3415.941
v 2477.749 -13.47804 3682.087
v 3010.204 -66.65211 3948.314
v 3276.432 6.268024 4214.542
v 1146.606 -73.74845 2883.358
v 1679.111 -67.07471 3149.953
v 2211.512 -121.1809 3415.845
v 2743.976 -138.689 3682.087
v 3276.432 16.0945 3948.314
v 3542.659 17.98769 4214.542
v 1413.093 -4.652401 2885.602
v 1945.371 -66.13866 3149.911
v 2477.752 -45.44196 3415.863
v 3010.204 37.02039 3682.087
v 3542.659 2.062722 3948.314
v 3808.887 16.58202 4214.542
v 1679.328 -21.36859 2884.921
v 2211.607 -63.42028 3149.84
v 2743.976 -28.06801 3415.859
v 3276.432 -11.44801 3682.087
v 3808.887 -76.06794 3948.314
v 4075.115 -57.06765 4214.542
v 1945.389 -66.68031 2883.735
v 2477.879 -21.08588 3149.854
v 3010.204 -57.02045 3415.859
v 3542.659 -136.2745 3682.087
v 4075.115 -39.92476 3948.314
v 4341.342 -122.0007 4214.542
v 4341.342 -133.9314 3948.314
v 3808.887 -20.91871 3682.087
v 4075.115 1.891415 3682.087
v 4341.342 -90.12093 3682.087
v 3276.432 8.620352 3415.859
v 2743.967 -111.0936 3149.62
v 3542.659 -41.15563 3415.859
v 4075.115 -28.75096 3415.859
v 4341.342 -97.87051 3415.859
v 3808.887 -1.604512 3415.859
v 3010.207 -31.67645 3149.634
v 4075.115 -76.27604 3149.631
v 4341.342 -47.2187 3149.631
v 3276.432 -59.23903 3149.631
v 3808.887 -77.38896 3149.631
v 3542.659 -33.85894 3149.631
v 4075.115 -14.55352 2883.404
v 4341.342 -47.34916 2883.404
v 3808.887 -47.9402 2883.404
v 3542.659 -67.93209 2883.404
v 3276.438 -36.29787 2883.411
v 3010.266 -46.09318 2883.474
v 4075.115 -99.76313 2617.176
v 4341.342 -62.14463 2617.176
v 3808.887 5.342211 2617.176
v 3542.662 -26.04847 2617.179
v 3276.42 -103.9297 2617.166
v 4075.115 -40.46152 2350.948
v 4341.342 -37.96246 2350.948
v 3808.887 -47.53358 2350.948
v 3542.737 9.258391 2351.016
v 4075.115 -35.03667 2084.721
v 4341.342 24.36892 2084.721
v 3808.886 -110.9851 2084.72
v 4075.115 -68.68965 1818.493
v 4341.342 34.51089 1818.493
v 3010.163 -102.6516 2617.135
v 3277.123 36.22844 2351.477
v 3542.734 -70.7253 2084.765
v 3808.928 -20.05923 1818.521
v 4075.115 -130.3017 1552.266
v 4341.342 10.10355 1552.266
v 3011.104 -19.77912 2351.703
v 3275.761 -151.1168 2084.324
v 3543.167 -17.30609 1818.703
v 3809.019 -6.784022 1552.317
v 4075.115 -50.66591 1286.038
v 4341.342 -95.96753 1286.038
v 3011.469 -19.06172 2085.566
v 3275.538 -136.3609 1818.108
v 3543.225 -37.77129 1552.423
v 3809.055 -26.87585 1286.065
v 4075.115 -49.98004 1019.81
v 4341.342 -70.15082 1019.81
v 3011.209 -32.56564 1818.998
v 3279.564 53.89734 1553.164
v 3544.979 89.94831 1286.354
v 3808.882 -97.7047 1019.81
v 4075.115 -54.95984 753.5828
v 4341.342 -57.26066 753.5828
v 3012.18 0.737164 1552.926
v 3276.187 -86.00134 1286.003
v 3543.821 -6.698292 1019.81
v 3809.016 -43.10285 753.5623
v 4075.115 -116.3108 487.3552
v 4341.342 -67.8642 487.3552
v 3013.056 26.01648 1286.516
v 3275.805 -97.94308 1019.81
v 3541.92 -150.1708 753.6834
v 3808.979 -33.37556 487.3193
v 4075.115 -53.93843 221.1276
v 4341.342 -53.68528 221.1276
v 3011.834 -6.746008 1019.81
v 3277.769 -26.41124 753.391
v 3543.136 -46.95237 487.2271
v 3808.945 -15.13248 221.1126
v 4075.115 -79.22485 -45.09909
v 4341.342 -37.66382 -45.10003
v 3011.818 -8.377742 753.3229
v 3279.946 64.33728 486.545
v 3542.417 -124.7837 221.1476
v 3808.958 -61.65049 -45.04169
v 4075.202 -13.89165 -311.2519
v 4341.342 -68.02689 -311.3276
v 3011.402 -26.20817 487.1573
v 3277.814 -28.75103 221.1339
v 3542.424 -116.3733 -45.234
v 3808.799 -107.3646 -311.3946
v 4075.303 -51.24897 -577.4454
v 4341.356 -33.69431 -577.5415
v 3021.371 211.781 222.4299
v 3277.573 -42.80856 -44.59278
v 3542.927 -72.73507 -311.122
v 3810.208 -8.79555 -576.7729
v 4076.463 51.14907 -843.2232
v 4341.347 -92.90626 -843.7796
v 3011.393 -29.03871 -44.6046
v 3275.208 -101.81 -312.1596
v 3543.532 -44.19678 -576.9817
v 3812.209 47.91379 -842.3482
v 4076.189 -18.01362 -1109.712
v 4341.652 -22.6322 -1109.891
v 3013.645 29.07018 -309.3206
v 3276.877 -35.54395 -577.2542
v 3545.952 23.08008 -842.1731
v 3809.297 -62.09003 -1109.892
v 4076.19 -31.06867 -1376.092
v 4341.863 -21.14751 -1376.155
v 3002.022 -142.8605 -582.7888
v 3277.456 -3.406024 -843.2404
v 3543.995 -16.29693 -1109.58
v 3815.063 95.05472 -1375.35
v 4074.992 -95.94693 -1642.466
v 4342.008 -13.48023 -1642.466
v 3018.117 143.1992 -839.3391
v 3277.37 12.36071 -1109.686
v 3544.709 4.167563 -1375.915
v 3806.939 -116.1723 -1642.466
v 4076.241 -28.25717 -1908.846
v 4341.981 -4.09023 -1908.795
v 3011.044 60.55225 -1109.692
v 3275.665 -1.812504 -1376.361
v 3537.036 -135.4387 -1642.429
v 3811.279 -5.301741 -1909.037
v 4075.403 -72.78887 -2175.001
v 4341.441 -72.56606 -2174.959
v 3016.306 144.2238 -1375.241
v 3291.115 233.5449 -1642.859
v 3542.849 -30.86082 -1908.726
v 3810.309 -31.44143 -2175.329
v 4075.486 -54.94933 -2441.303
v 4341.425 -41.95908 -2441.205
v 3021.611 218.0595 -1643.103
v 3277.19 19.66485 -1908.856
v 3539.687 -107.2406 -2173.924
v 3809.554 -56.35497 -2441.437
v 4075.075 -105.3722 -2707.353
v 4341.341 -100.306 -2707.375
v 3007.13 14.41974 -1907.833
v 3286.629 176.7767 -2179.075
v 3544.715 -5.168299 -2442.18
v 3809.671 -42.07074 -2707.84
v 4075.13 -81.98878 -2973.617
v 4341.342 -1.519545 -2973.604
v 3014.23 103.0712 -2176.981
v 3270.207 -155.6004 -2437.391
v 3542.007 -94.67063 -2706.94
v 3809.434 -22.16396 -2974.021
v 4075.112 -146.4841 -3239.829
v 4341.342 -127.5125 -3239.831
v 3007.37 -43.05582 -2439.019
v 3279.504 34.55444 -2709.836
v 3544.427 9.737082 -2975.086
v 3809.034 -22.15958 -3239.962
v 4075.115 -132.1276 -3506.059
v 4341.342 -62.07181 -3506.059
v 3007.223 -90.3139 -2704.402
v 3277.585 -26.05895 -2974.757
v 3543.26 -19.46363 -3240.432
v 3808.894 -56.29681 -3506.065
v 4075.115 -81.95947 -3772.287
v 4341.342 -58.75148 -3772.287
v 3011.11 -16.82052 -2974.735
v 3275.288 -160.6771 -3238.467
v 3542.667 -91.7338 -3506.067
v 3808.887 -28.80888 -3772.287
v 4075.115 2.704945 -4038.514
v 4341.342 -35.48153 -4038.514
v 4075.115 -89.01183 -4304.742
v 4341.342 -168.7091 -4304.742
v 3808.887 -86.18159 -4304.742
v 3808.887 5.138976 -4038.514
v 3542.659 -87.61642 -4304.742
v 3542.659 -60.32214 -4038.514
v 3276.432 -59.01754 -4304.742
v 3542.667 49.38853 -3772.295
v 3276.432 -44.17828 -4038.514
v 3010.204 -92.1048 -4304.742
v 3276.457 -68.17425 -3772.316
v 3010.216 10.0321 -4038.526
v 2743.976 -74.94476 -4304.742
v 3276.865 -19.40229 -3506.627
v 2743.96 -128.1897 -4038.49
v 2477.749 -80.35715 -4304.742
v 3010.47 12.2007 -3772.744
v 3010.146 -96.65649 -3505.961
v 2477.846 24.69954 -4038.768
v 2211.521 -10.1876 -4304.742
v 2744.188 -39.97396 -3772.796
v 3012.139 24.82056 -3242.723
v 2211.545 -52.62426 -4038.665
v 1945.293 -29.95528 -4304.742
v 2478.454 84.02189 -3774.825
v 2743.627 -114.2937 -3505.251
v 2742.836 -115.0213 -3237.559
v 1945.293 -132.5154 -4038.367
v 1679.066 -28.08676 -4304.742
v 2211.648 -38.80286 -3773.223
v 2478.235 -23.20508 -3507.753
v 2748.826 142.6788 -2981.597
v 1679.043 -55.4133 -4038.655
v 1412.838 -153.7727 -4304.742
v 1945.293 -59.51082 -3772.873
v 2477.098 -84.31462 -3237.917
v 2212.285 70.77911 -3511.325
v 2746.388 72.83325 -2710.517
v 1412.797 -45.10947 -4038.621
v 1146.61 -57.61734 -4304.742
v 1678.987 -58.57026 -3772.865
v 1945.277 -142.5684 -3503.048
v 2477.275 -24.75535 -2972.484
v 2212.434 59.48769 -3244.844
v 2740.375 -19.04461 -2437.641
v 1146.587 -49.96511 -4038.549
v 880.3829 -63.58709 -4304.742
v 1412.705 -59.48657 -3772.766
v 1678.437 55.80856 -3510.871
v 1945.209 -80.81697 -3236.982
v 2479.23 83.18259 -2710.094
v 2211.76 24.56469 -2974.583
v 880.3808 -77.52467 -4038.516
v 614.1553 -93.77423 -4304.742
v 1146.534 -75.37859 -3772.47
v 1412.656 -54.84197 -3506.739
v 1678.97 -19.1682 -3240.64
v 1945.092 -23.31383 -2970.668
v 2213.142 130.6277 -2712.332
v 614.1553 -48.50976 -4038.514
v 347.9276 -77.46815 -4304.742
v 880.3536 -84.07093 -3772.337
v 1145.945 -22.07191 -3507.707
v 1411.696 37.00723 -3244.13
v 1679.191 0.1647995 -2972.381
v 347.9276 -66.03922 -4038.514
v 81.69999 -66.34615 -4304.742
v 614.1412 -80.82909 -3772.303
v 880.8112 -134.1695 -3505.288
v 1144.338 60.37262 -3245.352
v 81.69999 30.76545 -4038.514
v -184.5277 -92.58046 -4304.742
v 347.9267 -80.39404 -3772.288
v 614.1892 -101.2094 -3506.012
v -184.5277 -58.13713 -4038.514
v -450.7552 -65.52449 -4304.742
v 81.69999 -70.8484 -3772.287
v -450.7552 -77.69779 -4038.514
v -716.9829 -101.6503 -4304.742
v 1408.819 215.1506 -2988.386
v 879.8519 -44.931 -3240.788
v 347.9145 -89.48244 -3506.074
v -184.5277 -75.09917 -3772.287
v -716.9829 -44.86113 -4038.514
v -983.2105 -43.75792 -4304.742
v 1145.5 27.98833 -2976.14
v 614.6982 -116.6973 -3239.05
v 81.69445 -70.99259 -3506.064
v -450.7552 -23.34771 -3772.287
v -983.2105 -14.73799 -4038.514
v -1249.438 -69.78355 -4304.742
v 874.7562 137.4654 -2982.996
v 348.1495 -117.703 -3239.555
v -184.5277 -57.51235 -3506.059
v -716.9829 -92.9406 -3772.287
v -1249.438 -49.15428 -4038.514
v -1515.666 -111.4769 -4304.742
v 613.1782 -27.96653 -2974.908
v 81.75405 -113.642 -3239.767
v -450.7552 -55.96156 -3506.059
v -983.2105 -59.76886 -3772.287
v -1515.666 -103.3103 -4038.514
v -1781.893 -80.71618 -4304.742
v 342.7537 141.6957 -2979.538
v -184.571 -2.109276 -3239.882
v -716.9829 -19.73229 -3506.059
v -1249.438 -42.99706 -3772.287
v -1781.893 -14.86752 -4038.514
v -2048.121 -18.29366 -4304.742
v 81.49046 -75.29737 -2973.834
v -450.7561 -50.86504 -3239.832
v -983.2105 -54.64673 -3506.059
v -1515.666 -42.91903 -3772.287
v -2048.121 -113.2575 -4038.514
v -2314.349 -34.34794 -4304.742
v -184.6498 -61.55185 -2973.748
v -716.9829 -64.03167 -3239.831
v -1249.438 -110.6561 -3506.059
v -1781.893 -36.04692 -3772.287
v -2314.349 -47.42308 -4038.514
v -2580.576 -92.951 -4304.742
v -450.7942 -45.74811 -2973.647
v -983.2105 -76.29601 -3239.831
v -1515.666 20.27334 -3506.059
v -2048.121 -28.52106 -3772.287
v -2580.576 -74.43642 -4038.514
v -2846.804 -68.4405 -4304.742
v -716.9855 -60.17268 -2973.607
v -1249.438 -109.5732 -3239.831
v -1781.893 -9.929971 -3506.059
v -2314.349 -46.69101 -3772.287
v -2846.804 -43.10835 -4038.514
v -3113.031 -86.09031 -4304.742
v -983.2105 -113.0191 -2973.604
v -1515.666 -70.1554 -3239.831
v -2048.121 -36.20024 -3506.059
v -2580.576 -22.64166 -3772.287
v -3113.031 -91.4925 -4038.514
v -3379.259 -31.95019 -4304.742
v -1249.438 7.582453 -2973.604
v -1781.893 -54.84045 -3239.831
v -2314.349 -6.603109 -3506.059
v -2846.804 -156.8228 -3772.287
v -3379.259 -104.5512 -4038.514
v -3645.487 -25.0332 -4304.742
v -1515.666 -67.1535 -2973.604
v -2048.121 -46.883 -3239.831
v -2580.576 -97.69571 -3506.059
v -3113.031 -21.2462 -3772.287
v -3645.487 -68.17805 -4038.514
v -3911.714 -37.8545 -4304.742
v -1781.893 -97.38606 -2973.604
v -2314.349 -29.36357 -3239.831
v -2846.804 -28.84351 -3506.059
v -3379.259 -99.8003 -3772.287
v -3911.714 -103.1328 -4038.514
v -4177.942 47.85594 -4304.742
v -4177.942 -58.15191 -4038.514
v -3645.487 -13.74273 -3772.287
v -3911.714 -74.22533 -3772.287
v -4177.942 -68.99134 -3772.287
v -3113.031 -71.61614 -3506.059
v -2580.576 -116.9084 -3239.831
v -3379.259 -14.09878 -3506.059
v -3911.714 -6.785311 -3506.059
v -4177.942 -106.1539 -3506.059
v -3645.487 -67.34235 -3506.059
v -2846.804 -69.9065 -3239.831
v -3911.714 -45.05309 -3239.831
v -4177.942 -119.7361 -3239.831
v -3113.031 -108.2287 -3239.831
v -3645.487 -101.3507 -3239.831
v -3379.259 -101.1851 -3239.831
v -3911.714 9.18788 -2973.604
v -4177.942 -54.50549 -2973.604
v -3645.487 -23.15333 -2973.604
v -3379.259 -102.3158 -2973.604
v -3113.031 11.67171 -2973.604
v -2846.804 -67.24142 -2973.604
v -3911.714 -30.73263 -2707.376
v -4177.942 -25.01644 -2707.376
v -3645.487 -79.40581 -2707.376
v -3379.259 -90.66476 -2707.376
v -3113.031 -30.4037 -2707.376
v -3911.714 -58.94754 -2441.148
v -4177.942 -42.15405 -2441.148
v -3645.487 -0.06195139 -2441.148
v -3379.261 -53.19337 -2441.151
v -3911.714 -21.18922 -2174.921
v -4177.942 5.566302 -2174.921
v -3645.486 -104.9117 -2174.919
v -3911.716 -70.10365 -1908.695
v -4177.942 -55.24215 -1908.693
v -2846.806 -79.45257 -2707.378
v -3113.069 -48.30311 -2441.191
v -3379.286 -78.37237 -2174.95
v -3645.586 -36.90586 -1908.783
v -3911.761 -44.46756 -1642.506
v -4177.942 2.465514 -1642.466
v -2846.934 -33.92788 -2441.372
v -3112.891 -124.6244 -2174.737
v -3379.469 -64.02498 -1908.903
v -3646.065 -4.294508 -1642.907
v -3911.833 -62.99693 -1376.307
v -4177.943 -89.3897 -1376.239
v -2846.238 -160.9833 -2173.965
v -3113.763 -32.06186 -1909.567
v -3380.256 -24.1395 -1643.3
v -3645.36 -100.6159 -1376.163
v -3912.067 -50.4899 -1110.156
v -4178.049 -14.64159 -1110.084
v -2847.963 -7.420053 -1910.428
v -3115.377 29.26473 -1644.811
v -3381.179 -0.05593546 -1377.521
v -3644.251 -141.6811 -1109.477
v -3914.214 111.4542 -844.4787
v -4178.137 -41.7732 -843.857
v -2849.798 62.35556 -1646.205
v -3116.955 68.07322 -1379.379
v -3379.112 -67.53973 -1109.937
v -3644.105 -127.0156 -843.3858
v -3911.806 -85.39233 -577.5678
v -4178.081 -72.50966 -577.5774
v -2849.72 57.17746 -1379.154
v -3111.981 -61.40929 -1109.379
v -3382.525 30.49931 -844.8752
v -3648.996 36.6553 -578.0591
v -3911.697 -91.69274 -311.3276
v -4178.382 -31.84362 -311.3276
v -2845.001 -48.35065 -1108.657
v -3118.659 103.3978 -846.0403
v -3381.533 8.264174 -577.9354
v -3646.173 -50.50971 -311.3276
v -3914.148 66.81145 -44.76995
v -4178.358 -25.7262 -45.03387
v -2852.354 134.9867 -846.5642
v -3120.567 142.9842 -579.0674
v -3379.957 -25.45524 -311.3276
v -3646.035 -55.70195 -45.02129
v -3911.901 -78.10416 221.1794
v -4178.114 -48.20874 221.1929
v -2846.359 20.95509 -577.4438
v -3109.534 -72.72841 -311.3276
v -3378.379 -63.85878 -45.2472
v -3646.961 -25.20454 221.5509
v -3912.578 14.67858 487.7128
v -4177.908 -121.8065 487.3318
v -2846.449 27.70535 -311.3276
v -3119.616 123.9069 -43.77872
v -3378.856 -61.73258 220.9929
v -3644.463 -131.8792 486.9131
v -3911.809 -69.65727 753.6377
v -4177.942 -95.53552 753.5828
v -2845.829 10.44944 -45.34429
v -3115.52 35.14034 222.1258
v -3379.015 -70.44669 487.2326
v -3647.021 20.2334 754.4917
v -3911.723 -86.67603 1019.818
v -4177.942 -48.81274 1019.81
v -2847.216 24.67555 221.3143
v -3115.808 34.4479 489.0252
v -3382.591 55.91879 755.8092
v -3645.604 -77.05833 1019.9
v -3911.714 -103.7032 1286.038
v -4177.942 3.264727 1286.038
v -2846.498 -10.71493 487.1877
v -3118.074 102.9223 757.6202
v -3381.961 84.85498 1022.072
v -3645.668 11.8308 1286.201
v -3911.714 -32.70697 1552.266
v -4177.942 -125.0648 1552.266
v -2847.788 -7.28266 754.3177
v -3111.516 -138.7603 1018.295
v -3380.086 27.33776 1286.865
v -3645.502 6.082932 1552.281
v -3911.714 -73.42213 1818.493
v -4177.942 -39.61354 1818.493
v -2848.639 1.640987 1021.838
v -3114.004 -13.57608 1287.201
v -3379.306 -64.62641 1552.318
v -3645.487 -108.5435 1818.493
v -3911.714 -41.58191 2084.721
v -3645.487 -81.05792 2084.721
v -3645.487 -82.48304 2350.948
v -3379.262 -32.32032 1818.497
v -3112.964 -109.6414 1552.177
v -3379.259 -119.0914 2084.721
v -3379.259 -38.28204 2617.176
v -3379.259 -89.72215 2350.948
v -3113.031 -48.99753 2617.176
v -3113.051 -71.26006 1818.516
v -3113.031 6.227906 2084.721
v -3113.031 -41.70828 2350.948
v -2846.804 2.466383 2617.176
v -2846.804 -118.258 2350.948
v -2580.576 8.836594 2617.176
v -2846.809 -48.25418 2084.725
v -2846.912 -44.544 1818.678
v -2580.579 -28.11911 2350.951
v -2314.398 8.185395 2617.22
v -2580.611 -52.92971 2084.759
v -2847.621 8.928126 1553.644
v -2314.519 -7.183797 2351.048
v -2048.454 2.072142 2617.429
v -2580.771 -49.31604 1818.872
v -2848.355 8.407131 1288.296
v -2314.657 -32.69195 2084.944
v -2048.604 -27.95422 2351.234
v -1782.64 -2.626312 2617.802
v -2580.896 -67.99538 1552.767
v -2582.956 -26.44181 1288.479
v -2315.498 9.225997 1820.055
v -2048.591 -51.04278 2085.031
v -1782.727 -23.75757 2351.506
v -1516.424 -22.10976 2617.934
v -2322.915 99.1318 1565.372
v -2589.107 37.42194 1025.027
v -2047.121 -128.5146 1817.241
v -1782.733 -31.63665 2085.303
v -1516.323 -35.3456 2351.475
v -1250.526 5.367507 2618.535
v -2314.26 -0.5634667 1285.939
v -2595.304 105.0687 757.0768
v -2053.753 36.98395 1564.873
v -1782.012 -61.24129 1818.687
v -1519.045 88.58102 2087.323
v -1252.807 112.9788 2354.317
v -981.8986 -165.1982 2614.993
v -717.3318 -19.56232 2618.044
v -982.4924 -82.23319 2349.944
v -1254.256 83.43237 2089.148
v -1511.779 -207.1425 1812.809
v -1781.286 -43.84315 1547.766
v -451.3507 39.18203 2619.641
v -718.0449 43.82484 2353.803
v -984.3073 0.248625 2086.342
v -1259.989 129.3727 1826.729
v -184.9812 34.86251 2619.854
v -450.757 -27.98399 2350.956
v -718.6731 97.8963 2093.356
v 81.57738 -19.75157 2618.065
v -184.0603 -59.35828 2349.345
v 347.8275 -13.65917 2618.296
v -1515.947 -49.28046 1547.547
v -988.1932 114.6505 1823.666
v -450.9797 -27.85755 2082.311
v 80.66354 75.39979 2354.851
v 614.2466 -124.2262 2612.843
v -1252.067 61.14434 1556.376
v -716.7369 107.7471 1817.148
v -185.0622 115.7943 2090.494
v 346.6304 147.2424 2358.61
v 880.1757 -111.2704 2613.434
v -970.9109 3.585208 1547.614
v -449.5526 121.1508 1821.154
v 81.63174 29.71574 2084.908
v 614.1281 11.71587 2351.394
v 1146.998 21.6834 2620.185
v -721.4041 416.6537 1557.776
v -184.1426 64.59225 1819.618
v 347.722 53.55119 2085.52
v 880.6469 95.0985 2356.086
v 1412.88 -41.06178 2617.397
v -442.159 285.8246 1555.248
v 80.81356 109.2707 1820.673
v 613.9142 87.12064 2086.991
v 1147.405 87.9723 2355.837
v 1679.385 -18.81501 2618.485
v -178.2708 251.763 1556.168
v 345.7154 205.2016 1824.133
v 880.3779 44.17749 2084.616
v 1414.095 83.33093 2355.724
v 81.19971 111.2857 1552.985
v 613.0165 223.5898 1824.926
v 1147.064 82.39967 2086.99
v 344.9769 246.9893 1556.407
v 880.614 213.5405 1824.584
v 611.9921 316.2473 1558.649
v 1678.938 -28.96828 2350.574
v 1413.963 92.35281 2087.966
v 1147.089 119.3181 1820.38
v 880.4081 177.7077 1554.341
v 1945.828 -12.82479 2618.725
v 2211.228 -124.3672 2882.726
v 2478.853 71.74125 2885.269
v 2211.877 -43.21797 2617.886
v 1943.985 -108.2202 2347.968
v 1680.686 87.6339 2088.151
v 1413.602 102.6954 1820.133
v 2744.102 -64.47055 2883.568
v 2478.702 -11.32425 2618.602
v 2744.072 -80.46156 2617.291
v 2211.137 -64.81795 2350.31
v 1946.49 47.87349 2086.77
v 2477.229 -85.6523 2350.3
v 2743.254 -114.7344 2350.226
v 2213.436 53.94909 2087.255
v 1677.057 -24.45649 1815.444
v 2744.125 -55.68088 2084.84
v 2479.689 28.7243 2086.662
v 1946.987 82.96918 1820.575
v 2742.697 -84.2438 1817.724
v 2482.678 124.9822 1822.193
v 2213.235 58.63266 1820.175
v 2744.085 -29.33919 1552.309
v 2479.355 38.42113 1553.07
v 2206.895 -102.3794 1549.281
v 1943.832 8.599234 1551.104
v 1678.813 68.26091 1552.015
v 2749.947 121.3016 1287.236
v 2483.034 134.7393 1287.364
v 2207.292 -68.53844 1284.688
v 1948.221 143.3007 1287.18
v 2741.007 -90.08804 1019.809
v 2480.227 69.44639 1019.837
v 2208.264 -35.59522 1019.685
v 2748.18 75.42713 752.9271
v 2481.873 99.82677 753.1188
v 2745.818 9.478479 487.2523
v 1680.836 146.0216 1286.914
v 1949.998 187.5213 1020.242
v 2212.405 60.65353 753.5521
v 2476.717 -16.64849 487.2899
v 2745.771 6.42886 221.5542
v 1675.692 12.71111 1019.12
v 1946.361 92.34055 753.766
v 2214.822 106.0126 488.0184
v 2486.805 176.7135 224.3131
v 2747.195 41.72114 -43.64686
v 1680.163 126.4937 754.1664
v 1952.817 185.0218 490.0871
v 2211.279 49.15364 221.0239
v 2476.851 18.85782 -45.57724
v 2741.368 -28.26601 -312.8065
v 1682.657 194.275 489.692
v 1945.515 102.1273 221.1954
v 2212.652 96.69797 -44.43354
v 2492.011 284.4231 -302.39
v 2744.979 56.45191 -576.9312
v 1681.755 215.7615 221.7669
v 1951.031 201.4509 -43.46515
v 2221.376 288.5543 -303.858
v 2488.472 256.2856 -570.4003
v 2749.558 153.4747 -840.4463
v 1687.473 315.8412 -46.78677
v 1942.844 83.52396 -313.0721
v 2207.438 60.87257 -580.9233
v 2477.745 125.1265 -843.7853
v 2748.562 166.4761 -1108.004
v 1683.492 318.1602 -309.9404
v 1947.203 227.0411 -575.1909
v 2216.705 269.7654 -839.5599
v 2471.424 61.138 -1113.334
v 2755.367 271.1314 -1374.147
v 1679.347 213.569 -576.5617
v 1945.102 194.9834 -844.0339
v 2216.542 299.413 -1106.534
v 2480.155 212.5323 -1375.691
v 2749.414 196.4816 -1642.966
v 1679.349 280.5941 -841.3889
v 1944.61 203.6903 -1110.83
v 2211.837 227.8609 -1376.138
v 2482.933 256.9206 -1643.219
v 2749.579 190.7444 -1910.798
v 1679.068 296.8686 -1108.348
v 1947.223 328.7222 -1375.1
v 2216.632 329.3465 -1643.766
v 2475.748 130.5417 -1907.623
v 2743.339 75.61507 -2174.496
v 2482.226 212.4638 -2179.124
v 2483.817 222.2166 -2449.427
v 2208.845 143.2524 -1906.341
v 1947.725 361.0971 -1644.089
v 2213.776 188.5273 -2446.202
v 2214.629 246.846 -2179.691
v 1945.254 226.0162 -1908.606
v 1945.626 112.4991 -2710.334
v 1945.845 177.2345 -2444.473
v 1946.283 248.0374 -2178.844
v 1678.841 103.6943 -2709.66
v 1678.852 161.1823 -2443.172
v 1409.291 213.0414 -2719.043
v 1678.706 232.6698 -2177.75
v 1144.623 95.44195 -2711.32
v 1411.879 156.0586 -2443.762
v 1678.883 254.4574 -1909.703
v 876.8459 91.15676 -2712.458
v 1410.173 260.196 -2180.424
v 1148.567 49.49734 -2437.983
v 1679.102 250.4275 -1642.377
v 609.2887 85.13503 -2712.931
v 880.3695 58.04663 -2441.164
v 1146.982 136.3933 -2174.469
v 1410.073 299.1326 -1912.399
v 1678.746 335.696 -1375.342
v 346.2578 -12.1737 -2708.998
v 609.0204 106.5239 -2445.892
v 874.2841 200.8591 -2180.268
v 1414.663 185.0025 -1641.457
v 1144.628 219.8987 -1910.265
v 1411.591 283.3193 -1375.926
v 83.42551 -149.3673 -2705.805
v 343.0463 68.27994 -2444.967
v 610.7621 104.4392 -2177.281
v 875.5684 208.5349 -1911.465
v 1148.646 169.1786 -1641.762
v 1407.729 416.2408 -1105.407
v -184.505 -93.86519 -2707.354
v 79.18777 3.759407 -2442.942
v 344.4978 58.71596 -2176.958
v 612.5128 106.1184 -1909.455
v 879.1566 176.2817 -1642.788
v 1144.838 243.7781 -1376.069
v -451.0398 -16.92448 -2707.661
v -186.3091 0.9323652 -2442.485
v 78.8614 19.97718 -2176.744
v 349.9843 -3.42678 -1907.553
v 611.0117 145.3742 -1643.297
v 878.033 197.2324 -1376.081
v 1147.353 185.6016 -1110.325
v -716.9971 -77.17471 -2707.393
v -450.4095 -134.4779 -2440.796
v -185.5433 -30.68864 -2176.124
v 78.47312 71.05393 -1913.553
v 346.3726 81.30801 -1643.776
v 611.4573 147.6893 -1376.177
v -983.1883 -43.71883 -2707.412
v -717.0445 -42.83413 -2441.471
v -451.2503 -37.96081 -2176.394
v -184.9548 3.948727 -1912.371
v 81.91118 65.36153 -1645.107
v -1249.398 -37.36969 -2707.481
v -982.9788 -12.26472 -2441.835
v -717.4322 40.29573 -2178.618
v -451.2831 22.86383 -1915.277
v -1515.653 -67.6239 -2707.46
v -1249.761 -188.468 -2439.988
v -983.2267 -88.12307 -2174.829
v -185.1989 29.22339 -1639.187
v -717.2271 -39.11185 -1909.972
v -450.7786 85.47403 -1644.647
v -1781.893 -16.89935 -2707.648
v -1515.389 41.28508 -2443.189
v -1248.881 -6.776698 -2176.926
v -982.9395 -91.32357 -1906.776
v -714.0377 -16.87329 -1632.666
v -2048.121 -95.15121 -2973.604
v -2314.349 -29.19585 -2973.604
v -2048.13 -76.22812 -2707.435
v -1781.893 40.48429 -2443.315
v -1515.386 -12.03564 -2176.869
v -1249.102 6.471888 -1911.434
v -2580.576 -42.96516 -2973.604
v -2314.341 -107.8176 -2707.355
v -2580.602 -39.20617 -2707.413
v -2048.371 28.47273 -2442.992
v -1781.893 -27.98196 -2176.359
v -2580.598 -88.81071 -2441.2
v -2314.336 -97.06193 -2441.103
v -2580.398 -103.7125 -2174.507
v -2048.683 49.19423 -2178.832
v -2314.317 -81.67453 -2174.811
v -1514.62 102.2671 -1915.1
v -2581.559 -4.657011 -1910.652
v -2315.792 56.84131 -1913.008
v -2047.571 -118.9422 -1905.404
v -1781.893 -34.30298 -1908.992
v -2579.567 -77.15755 -1640.787
v -2317.882 172.5718 -1651.274
v -2048.356 15.34946 -1643.639
v -1781.893 -115.2835 -1636.79
v -1515.478 19.58324 -1643.931
v -2581.468 24.55276 -1377.425
v -2317.019 130.2258 -1381.565
v -2048.334 46.63093 -1377.088
v -1781.893 105.5975 -1379.912
v -2583.918 115.6043 -1113.352
v -2317.881 175.688 -1115.303
v -2048.724 105.789 -1111.814
v -2581.88 80.74927 -844.6532
v -2316.298 138.5671 -845.7327
v -2582.43 106.8935 -578.175
v -1515.574 76.3006 -1378.793
v -1781.893 172.4654 -1114.709
v -2047.93 85.95425 -843.4014
v -2315.344 125.2232 -578.0542
v -2584.712 160.4166 -311.3277
v -1515.663 100.3396 -1111.564
v -1781.896 259.8226 -849.4427
v -2048.556 140.1745 -577.9905
v -2317.119 176.9783 -311.4417
v -2581.274 79.01753 -45.01572
v -1515.318 149.4001 -845.4144
v -1781.905 140.1527 -577.8638
v -2049.513 180.3389 -311.7731
v -2322.198 209.7722 -48.55642
v -2588.917 142.5168 220.5664
v -1513.945 242.1027 -580.0161
v -1782.102 192.1383 -312.2085
v -2051.086 172.6167 -49.37778
v -2325.418 195.4328 214.407
v -2590.577 101.9379 487.006
v -2328.662 282.7615 482.7262
v -2059.798 356.1053 204.2188
v -1782.299 203.8773 -51.53934
v -2341.948 346.2806 757.2119
v -2064.55 561.9757 475.0345
v -1782.669 421.9627 204.0179
v -2307.711 142.3723 1015.624
v -2087.358 715.3784 759.6505
v -1781.68 614.9589 490.1947
v -2057.759 211.2834 1304.283
v -2050.041 435.2372 1021.88
v -1781.65 227.5202 1282.499
v -1780.521 666.0505 750.7072
v -1783.136 616.3962 1036.554
v -1512.339 219.3503 1295.319
v -1495.47 558.8926 1045.654
v -1254.609 -3.900878 1274.659
v -1505.547 650.8072 755.148
v -986.7422 212.358 1285.735
v -1237.234 284.2523 1027.978
v -1485.167 660.613 460.2007
v -716.6326 128.0846 1287.925
v -980.7887 98.13878 1020.469
v -1255.002 309.0801 753.0258
v -1511.598 332.0562 213.9219
v -446.8624 207.463 1281.574
v -1242.445 307.933 484.4675
v -953.9488 289.1929 756.1683
v -717.3309 18.07804 1022.487
v -1512.445 203.3152 -51.73695
v -183.7114 117.9948 1285.201
v -1241.217 217.1113 214.6929
v -956.435 283.669 480.9786
v -450.4952 77.51738 1019.137
v -715.6461 103.6169 753.1593
v -1513.45 253.8103 -313.2228
v 80.44466 149.9863 1285.943
v -184.5596 104.3922 1018.492
v -449.0142 148.9323 750.6529
v -713.3538 129.1126 486.1583
v -1242.498 228.4974 -50.29487
v -969.0427 239.9886 216.061
v -1250.328 81.48356 -311.131
v 346.7054 165.0793 1286.249
v 78.31801 215.3245 1015.93
v -184.506 89.36145 751.4413
v -449.385 60.05281 486.0411
v -976.7656 192.9219 -46.22158
v -720.4164 -11.1514 222.0001
v 612.082 267.9664 1287.356
v 349.1538 65.15656 1020.85
v 80.63062 95.62289 751.0458
v -183.8728 45.21361 484.9925
v -455.4357 -90.63138 223.7292
v -713.5073 85.89648 -45.03873
v -982.2395 109.8522 -310.7513
v -1249.504 82.28838 -577.5421
v -1253.935 247.924 -845.2819
v -985.8186 272.7591 -569.8782
v -718.0366 25.09065 -312.5889
v -443.9848 79.92457 -45.0445
v -185.8677 -87.60196 223.2576
v -1254.051 173.2124 -1114.027
v -984.3542 163.2466 -843.3029
v -717.1984 56.3583 -584.4444
v -440.8713 149.9431 -299.9469
v -1252.887 122.8269 -1382.495
v -984.984 167.6298 -1110.663
v -721.3676 310.7578 -836.3401
v -1251.295 128.2943 -1652.477
v -983.9993 103.3206 -1377.137
v -990.6703 167.6523 -1659.519
v -708.7228 106.4555 -1106.985
v -718.5302 190.9836 -1379.031
v -448.1083 150.6026 -571.2089
v -449.9906 295.2488 -1388.027
v -448.1016 384.3943 -1111.308
v -450.7348 214.043 -843.7306
v -184.0708 165.2371 -1376.901
v -178.0581 270.4235 -1109.57
v -182.0834 172.7027 -841.1788
v -188.3628 -5.928668 -583.4161
v -180.0713 20.54908 -306.485
v 84.22878 140.6803 -1378.718
v 84.6814 148.7508 -1109.249
v 81.06971 53.09757 -844.5034
v 91.85902 192.2729 -556.4722
v 347.6035 91.82645 -1376.688
v 347.3855 -72.45868 -1114.008
v 347.0897 120.0389 -837.0135
v 624.9323 -66.43879 -1114.614
v 82.23879 -35.83178 -309.4259
v 353.0975 -173.4919 -586.0878
v 610.5008 113.0563 -841.6082
v 882.1995 128.1839 -1110.61
v 868.8295 277.5992 -838.5027
v 604.8433 137.6067 -573.1965
v 350.849 -108.5738 -312.4633
v 1148.686 141.3614 -845.0456
v 879.4613 113.3832 -577.1636
v 616.5704 -18.21836 -311.8105
v 1411.927 245.6139 -842.5348
v 1410.45 293.2819 -574.1462
v 1149.213 107.2369 -579.0032
v 1408.318 437.7611 -313.6078
v 1143.402 182.3718 -311.4453
v 1412.193 284.7879 -47.79941
v 872.2687 167.5424 -310.1728
v 1146.14 168.0042 -45.27156
v 1413.059 321.8084 221.9822
v 879.576 81.74509 -45.22836
v 1415.154 362.3027 496.6477
v 1139.552 268.7003 220.7399
v 611.6555 33.2106 -45.51568
v 1411.86 91.34641 751.9535
v 876.1875 134.1561 220.126
v 1142.573 241.2061 489.3384
v 344.5147 5.041844 -46.36073
v 1412.435 108.2006 1019.643
v 605.3912 142.8493 216.3151
v 879.228 125.656 487.0536
v 1145.036 240.9977 755.2831
v 82.24496 -170.5776 -43.21033
v 1408.82 -47.3354 1283.032
v 344.0572 53.01063 217.2011
v 617.744 5.103401 490.459
v 1146.727 158.0805 1019.917
v 879.2245 165.0312 753.0211
v -185.7942 -96.39194 -44.79284
v 81.53418 -33.09632 220.3966
v 350.0634 -21.19025 490.2898
v 80.88258 47.91947 484.3597
v 349.4719 33.75765 755.6413
v 611.0742 186.1252 750.4687
v 613.9753 133.068 1019.689
v 880.7802 98.95399 1019.995
v 880.3172 158.8638 1286.403
v 1146.946 160.6615 1286.572
v 1147.282 166.0824 1554.165
v 1413.609 130.2641 1553.38
f 272 273 274
f 272 274 275
f 276 272 275
f 275 274 277
f 276 275 278
f 279 276 278
f 275 277 280
f 278 275 280
f 280 277 281
f 279 278 282
f 283 279 282
f 278 280 284
f 282 278 284
f 280 281 285
f 284 280 285
f 285 281 286
f 283 282 287
f 288 283 287
f 282 284 289
f 287 282 289
f 285 286 290
f 290 286 291
f 284 285 292
f 289 284 292
f 292 285 290
f 288 287 293
f 294 288 293
f 290 291 295
f 295 291 296
f 287 289 297
f 293 287 297
f 289 292 298
f 297 289 298
f 292 290 299
f 299 290 295
f 298 292 299
f 294 293 300
f 301 294 300
f 295 296 302
f 302 296 303
f 293 297 304
f 300 293 304
f 297 298 305
f 304 297 305
f 298 299 306
f 305 298 306
f 299 295 307
f 307 295 302
f 306 299 307
f 301 300 308
f 309 301 308
f 302 303 310
f 310 303 311
f 300 304 312
f 308 300 312
f 304 305 313
f 312 304 313
f 305 306 314
f 313 305 314
f 306 307 315
f 314 306 315
f 307 302 316
f 316 302 310
f 315 307 316
f 310 311 317
f 317 311 318
f 316 310 319
f 319 310 317
f 315 316 320
f 320 316 319
f 314 315 321
f 321 315 320
f 313 314 322
f 322 314 321
f 317 318 323
f 323 318 324
f 319 317 325
f 325 317 323
f 320 319 326
f 326 319 325
f 321 320 327
f 327 320 326
f 323 324 328
f 328 324 329
f 325 323 330
f 330 323 328
f 326 325 331
f 331 325 330
f 328 329 332
f 332 329 333
f 330 328 334
f 334 328 332
f 332 333 335
f 335 333 336
f 337 321 327
f 322 321 337
f 327 326 338
f 338 326 331
f 331 330 339
f 339 330 334
f 334 332 340
f 340 332 335
f 335 336 341
f 341 336 342
f 337 327 343
f 343 327 338
f 338 331 344
f 344 331 339
f 339 334 345
f 345 334 340
f 340 335 346
f 346 335 341
f 341 342 347
f 347 342 348
f 343 338 349
f 349 338 344
f 344 339 350
f 350 339 345
f 345 340 351
f 351 340 346
f 346 341 352
f 352 341 347
f 347 348 353
f 353 348 354
f 349 344 355
f 355 344 350
f 350 345 356
f 356 345 351
f 351 346 357
f 357 346 352
f 352 347 358
f 358 347 353
f 353 354 359
f 359 354 360
f 355 350 361
f 361 350 356
f 356 351 362
f 362 351 357
f 357 352 363
f 363 352 358
f 358 353 364
f 364 353 359
f 359 360 365
f 365 360 366
f 361 356 367
f 367 356 362
f 362 357 368
f 368 357 363
f 363 358 369
f 369 358 364
f 364 359 370
f 370 359 365
f 365 366 371
f 371 366 372
f 367 362 373
f 373 362 368
f 368 363 374
f 374 363 369
f 369 364 375
f 375 364 370
f 370 365 376
f 376 365 371
f 371 372 377
f 377 372 378
f 373 368 379
f 379 368 374
f 374 369 380
f 380 369 375
f 375 370 381
f 381 370 376
f 376 371 382
f 382 371 377
f 377 378 383
f 383 378 384
f 379 374 385
f 385 374 380
f 380 375 386
f 386 375 381
f 381 376 387
f 387 376 382
f 382 377 388
f 388 377 383
f 383 384 389
f 389 384 390
f 385 380 391
f 391 380 386
f 386 381 392
f 392 381 387
f 387 382 393
f 393 382 388
f 388 383 394
f 394 383 389
f 389 390 395
f 395 390 396
f 391 386 397
f 397 386 392
f 392 387 398
f 398 387 393
f 393 388 399
f 399 388 394
f 394 389 400
f 400 389 395
f 395 396 401
f 401 396 402
f 397 392 403
f 403 392 398
f 398 393 404
f 404 393 399
f 399 394 405
f 405 394 400
f 400 395 406
f 406 395 401
f 401 402 407
f 407 402 408
f 403 398 409
f 409 398 404
f 404 399 410
f 410 399 405
f 405 400 411
f 411 400 406
f 406 401 412
f 412 401 407
f 407 408 413
f 413 408 414
f 409 404 415
f 415 404 410
f 410 405 416
f 416 405 411
f 411 406 417
f 417 406 412
f 412 407 418
f 418 407 413
f 413 414 419
f 419 414 420
f 415 410 421
f 421 410 416
f 416 411 422
f 422 411 417
f 417 412 423
f 423 412 418
f 418 413 424
f 424 413 419
f 419 420 425
f 425 420 426
f 421 416 427
f 427 416 422
f 422 417 428
f 428 417 423
f 423 418 429
f 429 418 424
f 424 419 430
f 430 419 425
f 425 426 431
f 431 426 432
f 427 422 433
f 433 422 428
f 428 423 434
f 434 423 429
f 429 424 435
f 435 424 430
f 430 425 436
f 436 425 431
f 431 432 437
f 437 432 438
f 433 428 439
f 439 428 434
f 434 429 440
f 440 429 435
f 435 430 441
f 441 430 436
f 436 431 442
f 442 431 437
f 437 438 443
f 443 438 444
f 439 434 445
f 445 434 440
f 440 435 446
f 446 435 441
f 441 436 447
f 447 436 442
f 442 437 448
f 448 437 443
f 443 444 449
f 449 444 450
f 449 450 451
f 452 443 449
f 448 443 452
f 453 449 451
f 452 449 453
f 453 451 454
f 455 442 448
f 447 442 455
f 456 441 447
f 446 441 456
f 457 448 452
f 455 448 457
f 458 453 454
f 458 454 459
f 460 452 453
f 457 452 460
f 460 453 458
f 461 447 455
f 456 447 461
f 462 458 459
f 462 459 463
f 464 455 457
f 461 455 464
f 465 460 458
f 465 458 462
f 466 457 460
f 464 457 466
f 466 460 465
f 467 462 463
f 467 463 468
f 469 465 462
f 469 462 467
f 470 466 465
f 470 465 469
f 471 464 466
f 471 466 470
f 472 461 464
f 472 464 471
f 473 467 468
f 473 468 474
f 475 469 467
f 475 467 473
f 476 470 469
f 476 469 475
f 477 471 470
f 477 470 476
f 478 473 474
f 478 474 479
f 480 475 473
f 480 473 478
f 481 476 475
f 481 475 480
f 482 478 479
f 482 479 483
f 484 480 478
f 484 478 482
f 485 482 483
f 485 483 486
f 487 471 477
f 487 472 471
f 488 477 476
f 488 476 481
f 489 481 480
f 489 480 484
f 490 484 482
f 490 482 485
f 491 485 486
f 491 486 492
f 493 487 477
f 493 477 488
f 494 488 481
f 494 481 489
f 495 489 484
f 495 484 490
f 496 490 485
f 496 485 491
f 497 491 492
f 497 492 498
f 499 493 488
f 499 488 494
f 500 494 489
f 500 489 495
f 501 495 490
f 501 490 496
f 502 496 491
f 502 491 497
f 503 497 498
f 503 498 504
f 505 499 494
f 505 494 500
f 506 500 495
f 506 495 501
f 507 501 496
f 507 496 502
f 508 502 497
f 508 497 503
f 509 503 504
f 509 504 510
f 511 505 500
f 511 500 506
f 512 506 501
f 512 501 507
f 513 507 502
f 513 502 508
f 514 508 503
f 514 503 509
f 515 509 510
f 515 510 516
f 517 511 506
f 517 506 512
f 518 512 507
f 518 507 513
f 519 513 508
f 519 508 514
f 520 514 509
f 520 509 515
f 521 515 516
f 521 516 522
f 523 517 512
f 523 512 518
f 524 518 513
f 524 513 519
f 525 519 514
f 525 514 520
f 526 520 515
f 526 515 521
f 527 521 522
f 527 522 528
f 529 523 518
f 529 518 524
f 530 524 519
f 530 519 525
f 531 525 520
f 531 520 526
f 532 526 521
f 532 521 527
f 533 527 528
f 533 528 534
f 535 529 524
f 535 524 530
f 536 530 525
f 536 525 531
f 537 531 526
f 537 526 532
f 538 532 527
f 538 527 533
f 539 533 534
f 539 534 540
f 541 535 530
f 541 530 536
f 542 536 531
f 542 531 537
f 543 537 532
f 543 532 538
f 544 538 533
f 544 533 539
f 545 539 540
f 545 540 546
f 547 541 536
f 547 536 542
f 548 542 537
f 548 537 543
f 549 543 538
f 549 538 544
f 550 544 539
f 550 539 545
f 551 545 546
f 551 546 552
f 553 547 542
f 553 542 548
f 554 548 543
f 554 543 549
f 555 549 544
f 555 544 550
f 556 550 545
f 556 545 551
f 557 551 552
f 557 552 558
f 559 553 548
f 559 548 554
f 560 554 549
f 560 549 555
f 561 555 550
f 561 550 556
f 562 556 551
f 562 551 557
f 563 557 558
f 563 558 564
f 565 559 554
f 565 554 560
f 566 560 555
f 566 555 561
f 567 561 556
f 567 556 562
f 568 562 557
f 568 557 563
f 569 563 564
f 569 564 570
f 571 565 560
f 571 560 566
f 572 566 561
f 572 561 567
f 573 567 562
f 573 562 568
f 574 568 563
f 574 563 569
f 575 569 570
f 575 570 576
f 577 571 566
f 577 566 572
f 578 572 567
f 578 567 573
f 579 573 568
f 579 568 574
f 580 574 569
f 580 569 575
f 581 575 576
f 581 576 582
f 583 577 572
f 583 572 578
f 584 578 573
f 584 573 579
f 585 579 574
f 585 574 580
f 586 580 575
f 586 575 581
f 587 581 582
f 587 582 588
f 589 583 578
f 589 578 584
f 590 584 579
f 590 579 585
f 591 585 580
f 591 580 586
f 592 586 581
f 592 581 587
f 593 587 588
f 593 588 594
f 595 589 584
f 595 584 590
f 596 590 585
f 596 585 591
f 597 591 586
f 597 586 592
f 598 592 587
f 598 587 593
f 599 593 594
f 599 594 600
f 601 595 590
f 601 590 596
f 602 596 591
f 602 591 597
f 603 597 592
f 603 592 598
f 604 598 593
f 604 593 599
f 605 599 600
f 605 600 606
f 607 601 596
f 607 596 602
f 608 602 597
f 608 597 603
f 609 603 598
f 609 598 604
f 610 604 599
f 610 599 605
f 611 605 606
f 611 606 612
f 613 607 602
f 613 602 608
f 614 608 603
f 614 603 609
f 615 609 604
f 615 604 610
f 616 610 605
f 616 605 611
f 617 611 612
f 617 612 618
f 619 617 618
f 619 618 620
f 621 617 619
f 622 611 617
f 621 622 617
f 622 616 611
f 623 622 621
f 623 624 622
f 624 616 622
f 625 624 623
f 626 610 616
f 624 626 616
f 626 615 610
f 625 627 624
f 627 626 624
f 628 627 625
f 629 615 626
f 627 629 626
f 628 630 627
f 630 629 627
f 631 630 628
f 629 632 615
f 632 609 615
f 632 614 609
f 631 633 630
f 634 633 631
f 630 635 629
f 635 632 629
f 633 635 630
f 636 614 632
f 635 636 632
f 634 637 633
f 638 637 634
f 633 639 635
f 639 636 635
f 637 639 633
f 636 640 614
f 640 608 614
f 640 613 608
f 638 641 637
f 642 641 638
f 637 643 639
f 641 643 637
f 639 644 636
f 644 640 636
f 643 644 639
f 645 613 640
f 644 645 640
f 642 646 641
f 647 646 642
f 641 648 643
f 646 648 641
f 643 649 644
f 649 645 644
f 648 649 643
f 645 650 613
f 650 607 613
f 647 651 646
f 652 651 647
f 646 653 648
f 651 653 646
f 649 654 645
f 654 650 645
f 648 655 649
f 653 655 648
f 655 654 649
f 650 656 607
f 656 601 607
f 652 657 651
f 658 657 652
f 651 659 653
f 657 659 651
f 653 660 655
f 659 660 653
f 654 661 650
f 661 656 650
f 655 662 654
f 660 662 655
f 662 661 654
f 656 663 601
f 663 595 601
f 658 664 657
f 665 664 658
f 657 666 659
f 664 666 657
f 659 667 660
f 666 667 659
f 660 668 662
f 667 668 660
f 661 669 656
f 669 663 656
f 662 670 661
f 668 670 662
f 670 669 661
f 665 671 664
f 672 671 665
f 664 673 666
f 671 673 664
f 666 674 667
f 673 674 666
f 667 675 668
f 674 675 667
f 668 676 670
f 675 676 668
f 670 677 669
f 676 677 670
f 672 678 671
f 679 678 672
f 671 680 673
f 678 680 671
f 673 681 674
f 680 681 673
f 674 682 675
f 681 682 674
f 675 683 676
f 682 683 675
f 679 684 678
f 685 684 679
f 678 686 680
f 684 686 678
f 680 687 681
f 686 687 680
f 681 688 682
f 687 688 681
f 685 689 684
f 690 689 685
f 684 691 686
f 689 691 684
f 686 692 687
f 691 692 686
f 690 693 689
f 694 693 690
f 689 695 691
f 693 695 689
f 694 696 693
f 697 696 694
f 688 698 682
f 682 698 683
f 687 699 688
f 692 699 687
f 691 700 692
f 695 700 691
f 693 701 695
f 696 701 693
f 697 702 696
f 703 702 697
f 688 704 698
f 699 704 688
f 692 705 699
f 700 705 692
f 695 706 700
f 701 706 695
f 696 707 701
f 702 707 696
f 703 708 702
f 709 708 703
f 699 710 704
f 705 710 699
f 700 711 705
f 706 711 700
f 701 712 706
f 707 712 701
f 702 713 707
f 708 713 702
f 709 714 708
f 715 714 709
f 705 716 710
f 711 716 705
f 706 717 711
f 712 717 706
f 707 718 712
f 713 718 707
f 708 719 713
f 714 719 708
f 715 720 714
f 721 720 715
f 711 722 716
f 717 722 711
f 712 723 717
f 718 723 712
f 713 724 718
f 719 724 713
f 714 725 719
f 720 725 714
f 721 726 720
f 727 726 721
f 717 728 722
f 723 728 717
f 718 729 723
f 724 729 718
f 719 730 724
f 725 730 719
f 720 731 725
f 726 731 720
f 727 732 726
f 733 732 727
f 723 734 728
f 729 734 723
f 724 735 729
f 730 735 724
f 725 736 730
f 731 736 725
f 726 737 731
f 732 737 726
f 733 738 732
f 739 738 733
f 729 740 734
f 735 740 729
f 730 741 735
f 736 741 730
f 731 742 736
f 737 742 731
f 732 743 737
f 738 743 732
f 739 744 738
f 745 744 739
f 735 746 740
f 741 746 735
f 736 747 741
f 742 747 736
f 737 748 742
f 743 748 737
f 738 749 743
f 744 749 738
f 745 750 744
f 751 750 745
f 741 752 746
f 747 752 741
f 742 753 747
f 748 753 742
f 743 754 748
f 749 754 743
f 744 755 749
f 750 755 744
f 751 756 750
f 757 756 751
f 747 758 752
f 753 758 747
f 748 759 753
f 754 759 748
f 749 760 754
f 755 760 749
f 750 761 755
f 756 761 750
f 757 762 756
f 763 762 757
f 753 764 758
f 759 764 753
f 754 765 759
f 760 765 754
f 755 766 760
f 761 766 755
f 756 767 761
f 762 767 756
f 763 768 762
f 769 768 763
f 759 770 764
f 765 770 759
f 760 771 765
f 766 771 760
f 761 772 766
f 767 772 761
f 762 773 767
f 768 773 762
f 769 774 768
f 775 774 769
f 775 776 774
f 774 777 768
f 768 777 773
f 776 778 774
f 774 778 777
f 776 779 778
f 773 780 767
f 767 780 772
f 772 781 766
f 766 781 771
f 777 782 773
f 773 782 780
f 779 783 778
f 779 784 783
f 778 785 777
f 777 785 782
f 778 783 785
f 780 786 772
f 772 786 781
f 784 787 783
f 784 788 787
f 782 789 780
f 780 789 786
f 783 790 785
f 783 787 790
f 785 791 782
f 782 791 789
f 785 790 791
f 788 792 787
f 788 793 792
f 787 794 790
f 787 792 794
f 790 795 791
f 790 794 795
f 791 796 789
f 791 795 796
f 789 797 786
f 789 796 797
f 793 798 792
f 793 799 798
f 792 800 794
f 792 798 800
f 794 801 795
f 794 800 801
f 795 802 796
f 795 801 802
f 799 803 798
f 799 804 803
f 798 805 800
f 798 803 805
f 800 806 801
f 800 805 806
f 804 807 803
f 804 808 807
f 803 809 805
f 803 807 809
f 808 810 807
f 808 811 810
f 796 802 812
f 796 812 797
f 801 813 802
f 801 806 813
f 805 814 806
f 805 809 814
f 807 815 809
f 807 810 815
f 811 816 810
f 811 817 816
f 802 818 812
f 802 813 818
f 806 819 813
f 806 814 819
f 809 820 814
f 809 815 820
f 810 821 815
f 810 816 821
f 817 822 816
f 817 823 822
f 813 824 818
f 813 819 824
f 814 825 819
f 814 820 825
f 815 826 820
f 815 821 826
f 816 827 821
f 816 822 827
f 823 828 822
f 823 829 828
f 819 830 824
f 819 825 830
f 820 831 825
f 820 826 831
f 821 832 826
f 821 827 832
f 822 833 827
f 822 828 833
f 829 834 828
f 829 835 834
f 825 836 830
f 825 831 836
f 826 837 831
f 826 832 837
f 827 838 832
f 827 833 838
f 828 839 833
f 828 834 839
f 835 840 834
f 835 841 840
f 831 842 836
f 831 837 842
f 832 843 837
f 832 838 843
f 833 844 838
f 833 839 844
f 834 845 839
f 834 840 845
f 841 846 840
f 841 847 846
f 837 848 842
f 837 843 848
f 838 849 843
f 838 844 849
f 839 850 844
f 839 845 850
f 840 851 845
f 840 846 851
f 847 852 846
f 847 853 852
f 843 854 848
f 843 849 854
f 844 855 849
f 844 850 855
f 845 856 850
f 845 851 856
f 846 857 851
f 846 852 857
f 853 858 852
f 853 859 858
f 849 860 854
f 849 855 860
f 850 861 855
f 850 856 861
f 851 862 856
f 851 857 862
f 852 863 857
f 852 858 863
f 859 864 858
f 859 865 864
f 855 866 860
f 855 861 866
f 856 867 861
f 856 862 867
f 857 868 862
f 857 863 868
f 858 869 863
f 858 864 869
f 865 870 864
f 865 871 870
f 861 872 866
f 861 867 872
f 862 873 867
f 862 868 873
f 863 874 868
f 863 869 874
f 864 875 869
f 864 870 875
f 871 876 870
f 871 877 876
f 867 878 872
f 867 873 878
f 868 879 873
f 868 874 879
f 869 880 874
f 869 875 880
f 870 881 875
f 870 876 881
f 877 882 876
f 877 883 882
f 873 884 878
f 873 879 884
f 874 885 879
f 874 880 885
f 875 886 880
f 875 881 886
f 876 887 881
f 876 882 887
f 883 888 882
f 883 889 888
f 879 890 884
f 879 885 890
f 880 891 885
f 880 886 891
f 881 892 886
f 881 887 892
f 882 893 887
f 882 888 893
f 889 894 888
f 889 895 894
f 885 896 890
f 885 891 896
f 886 897 891
f 886 892 897
f 887 898 892
f 887 893 898
f 888 899 893
f 888 894 899
f 895 900 894
f 895 309 900
f 309 308 900
f 894 900 901
f 894 901 899
f 900 308 902
f 900 902 901
f 308 312 902
f 893 899 903
f 893 903 898
f 892 898 904
f 892 904 897
f 899 901 905
f 899 905 903
f 902 312 906
f 312 313 906
f 906 313 322
f 901 902 907
f 902 906 907
f 901 907 905
f 906 322 908
f 907 906 908
f 908 322 337
f 898 903 909
f 898 909 904
f 903 905 910
f 903 910 909
f 905 907 911
f 907 908 911
f 905 911 910
f 908 337 912
f 911 908 912
f 912 337 343
f 910 911 913
f 911 912 913
f 912 343 914
f 913 912 914
f 914 343 349
f 909 910 915
f 910 913 915
f 904 909 916
f 909 915 916
f 913 914 917
f 915 913 917
f 914 349 918
f 917 914 918
f 918 349 355
f 915 917 919
f 916 915 919
f 904 916 920
f 897 904 920
f 917 918 921
f 919 917 921
f 918 355 922
f 921 918 922
f 922 355 361
f 916 919 923
f 920 916 923
f 897 920 924
f 891 897 924
f 891 924 896
f 919 921 925
f 923 919 925
f 921 922 926
f 925 921 926
f 922 361 927
f 926 922 927
f 927 361 367
f 924 920 928
f 920 923 928
f 896 924 929
f 924 928 929
f 923 925 930
f 928 923 930
f 925 926 931
f 930 925 931
f 926 927 932
f 931 926 932
f 927 367 933
f 932 927 933
f 933 367 373
f 928 930 934
f 929 928 934
f 896 929 935
f 890 896 935
f 930 931 936
f 934 930 936
f 931 932 937
f 936 931 937
f 932 933 938
f 937 932 938
f 933 373 939
f 938 933 939
f 939 373 379
f 929 934 940
f 935 929 940
f 890 935 941
f 884 890 941
f 934 936 942
f 940 934 942
f 936 937 943
f 942 936 943
f 937 938 944
f 943 937 944
f 938 939 945
f 944 938 945
f 939 379 946
f 945 939 946
f 946 379 385
f 946 385 947
f 947 385 391
f 945 946 948
f 948 946 947
f 944 945 949
f 949 945 948
f 943 944 950
f 950 944 949
f 942 943 951
f 951 943 950
f 947 391 952
f 952 391 397
f 948 947 953
f 953 947 952
f 949 948 954
f 954 948 953
f 950 949 955
f 955 949 954
f 952 397 956
f 956 397 403
f 953 952 957
f 957 952 956
f 954 953 958
f 958 953 957
f 956 403 959
f 959 403 409
f 957 956 960
f 960 956 959
f 959 409 961
f 961 409 415
f 962 950 955
f 951 950 962
f 955 954 963
f 963 954 958
f 958 957 964
f 964 957 960
f 960 959 965
f 965 959 961
f 961 415 966
f 966 415 421
f 962 955 967
f 967 955 963
f 963 958 968
f 968 958 964
f 964 960 969
f 969 960 965
f 965 961 970
f 970 961 966
f 966 421 971
f 971 421 427
f 967 963 972
f 972 963 968
f 968 964 973
f 973 964 969
f 969 965 974
f 974 965 970
f 970 966 975
f 975 966 971
f 971 427 976
f 976 427 433
f 972 968 977
f 977 968 973
f 973 969 978
f 978 969 974
f 974 970 979
f 979 970 975
f 975 971 980
f 980 971 976
f 976 433 981
f 981 433 439
f 977 973 982
f 982 973 978
f 978 974 983
f 983 974 979
f 979 975 984
f 984 975 980
f 980 976 985
f 985 976 981
f 981 439 986
f 986 439 445
f 982 978 987
f 987 978 983
f 983 979 988
f 988 979 984
f 984 980 989
f 989 980 985
f 985 981 990
f 990 981 986
f 987 983 991
f 991 983 988
f 988 984 992
f 992 984 989
f 989 985 993
f 993 985 990
f 991 988 994
f 994 988 992
f 992 989 995
f 995 989 993
f 994 992 996
f 996 992 995
f 990 986 997
f 993 990 998
f 998 990 997
f 995 993 999
f 999 993 998
f 996 995 1000
f 1000 995 999
f 997 986 1001
f 986 445 1001
f 1001 445 1002
f 445 440 1002
f 1002 440 446
f 1002 446 1003
f 1003 446 456
f 1001 1002 1004
f 1004 1002 1003
f 997 1001 1005
f 1005 1001 1004
f 998 997 1006
f 1006 997 1005
f 999 998 1007
f 1007 998 1006
f 1003 456 1008
f 1008 456 461
f 1008 461 472
f 1004 1003 1009
f 1009 1003 1008
f 1010 1008 472
f 1009 1008 1010
f 1010 472 487
f 1005 1004 1011
f 1011 1004 1009
f 1006 1005 1012
f 1012 1005 1011
f 1013 1009 1010
f 1011 1009 1013
f 1014 1010 487
f 1013 1010 1014
f 1014 487 493
f 1015 1011 1013
f 1012 1011 1015
f 1016 1006 1012
f 1007 1006 1016
f 1017 1014 493
f 1017 493 499
f 1018 1013 1014
f 1015 1013 1018
f 1018 1014 1017
f 1019 1012 1015
f 1016 1012 1019
f 1020 1017 499
f 1020 499 505
f 1021 1018 1017
f 1021 1017 1020
f 1022 1015 1018
f 1019 1015 1022
f 1022 1018 1021
f 1023 1020 505
f 1023 505 511
f 1024 1021 1020
f 1024 1020 1023
f 1025 1022 1021
f 1025 1021 1024
f 1026 1019 1022
f 1026 1022 1025
f 1027 1016 1019
f 1027 1019 1026
f 1028 1023 511
f 1028 511 517
f 1029 1024 1023
f 1029 1023 1028
f 1030 1025 1024
f 1030 1024 1029
f 1031 1026 1025
f 1031 1025 1030
f 1032 1028 517
f 1032 517 523
f 1033 1029 1028
f 1033 1028 1032
f 1034 1030 1029
f 1034 1029 1033
f 1035 1032 523
f 1035 523 529
f 1036 1033 1032
f 1036 1032 1035
f 1037 1035 529
f 1037 529 535
f 1038 1026 1031
f 1038 1027 1026
f 1039 1031 1030
f 1039 1030 1034
f 1040 1034 1033
f 1040 1033 1036
f 1041 1036 1035
f 1041 1035 1037
f 1042 1037 535
f 1042 535 541
f 1043 1038 1031
f 1043 1031 1039
f 1044 1039 1034
f 1044 1034 1040
f 1045 1040 1036
f 1045 1036 1041
f 1046 1041 1037
f 1046 1037 1042
f 1047 1042 541
f 1047 541 547
f 1048 1043 1039
f 1048 1039 1044
f 1049 1044 1040
f 1049 1040 1045
f 1050 1045 1041
f 1050 1041 1046
f 1051 1046 1042
f 1051 1042 1047
f 1052 1047 547
f 1052 547 553
f 1053 1048 1044
f 1053 1044 1049
f 1054 1049 1045
f 1054 1045 1050
f 1055 1050 1046
f 1055 1046 1051
f 1056 1051 1047
f 1056 1047 1052
f 1057 1052 553
f 1057 553 559
f 1058 1053 1049
f 1058 1049 1054
f 1059 1054 1050
f 1059 1050 1055
f 1060 1055 1051
f 1060 1051 1056
f 1061 1056 1052
f 1061 1052 1057
f 1062 1057 559
f 1062 559 565
f 1063 1058 1054
f 1063 1054 1059
f 1064 1059 1055
f 1064 1055 1060
f 1065 1060 1056
f 1065 1056 1061
f 1066 1061 1057
f 1066 1057 1062
f 1067 1062 565
f 1067 565 571
f 1068 1063 1059
f 1068 1059 1064
f 1069 1064 1060
f 1069 1060 1065
f 1070 1065 1061
f 1070 1061 1066
f 1071 1066 1062
f 1071 1062 1067
f 1072 1067 571
f 1072 571 577
f 1073 1068 1064
f 1073 1064 1069
f 1074 1069 1065
f 1074 1065 1070
f 1075 1070 1066
f 1075 1066 1071
f 1076 1071 1067
f 1076 1067 1072
f 1077 1072 577
f 1077 577 583
f 1078 1073 1069
f 1078 1069 1074
f 1079 1074 1070
f 1079 1070 1075
f 1080 1075 1071
f 1080 1071 1076
f 1081 1076 1072
f 1081 1072 1077
f 1082 1077 583
f 1082 583 589
f 1083 1078 1074
f 1083 1074 1079
f 1084 1079 1075
f 1084 1075 1080
f 1085 1080 1076
f 1085 1076 1081
f 1086 1081 1077
f 1086 1077 1082
f 1087 1082 589
f 1087 589 595
f 663 1087 595
f 1088 1082 1087
f 1088 1086 1082
f 1089 1087 663
f 1089 1088 1087
f 669 1089 663
f 677 1089 669
f 1090 1081 1086
f 1090 1085 1081
f 1091 1080 1085
f 1091 1084 1080
f 1092 1088 1089
f 677 1092 1089
f 1093 1086 1088
f 1093 1090 1086
f 1092 1093 1088
f 1094 1085 1090
f 1094 1091 1085
f 1095 1092 677
f 676 1095 677
f 683 1095 676
f 1096 1093 1092
f 1095 1096 1092
f 1097 1090 1093
f 1097 1094 1090
f 1096 1097 1093
f 683 1098 1095
f 1098 1096 1095
f 698 1098 683
f 1099 1097 1096
f 1098 1099 1096
f 698 1100 1098
f 1100 1099 1098
f 704 1100 698
f 1101 1094 1097
f 1099 1101 1097
f 704 1102 1100
f 710 1102 704
f 1100 1103 1099
f 1103 1101 1099
f 1102 1103 1100
f 1101 1104 1094
f 1104 1091 1094
f 710 1105 1102
f 716 1105 710
f 1103 1106 1101
f 1106 1104 1101
f 1102 1107 1103
f 1105 1107 1102
f 1107 1106 1103
f 1104 1108 1091
f 1108 1084 1091
f 716 1109 1105
f 722 1109 716
f 1105 1110 1107
f 1109 1110 1105
f 1107 1111 1106
f 1110 1111 1107
f 1106 1112 1104
f 1112 1108 1104
f 1111 1112 1106
f 1108 1113 1084
f 1113 1079 1084
f 1113 1083 1079
f 722 1114 1109
f 728 1114 722
f 1109 1115 1110
f 1114 1115 1109
f 1110 1116 1111
f 1115 1116 1110
f 1112 1117 1108
f 1117 1113 1108
f 1111 1118 1112
f 1116 1118 1111
f 1118 1117 1112
f 1119 1083 1113
f 1117 1119 1113
f 728 1120 1114
f 734 1120 728
f 1114 1121 1115
f 1120 1121 1114
f 1115 1122 1116
f 1121 1122 1115
f 1116 1123 1118
f 1122 1123 1116
f 1118 1124 1117
f 1124 1119 1117
f 1123 1124 1118
f 1119 1125 1083
f 1125 1078 1083
f 734 1126 1120
f 740 1126 734
f 1120 1127 1121
f 1126 1127 1120
f 1121 1128 1122
f 1127 1128 1121
f 1122 1129 1123
f 1128 1129 1122
f 1123 1130 1124
f 1129 1130 1123
f 1124 1131 1119
f 1130 1131 1124
f 1131 1125 1119
f 740 1132 1126
f 746 1132 740
f 1126 1133 1127
f 1132 1133 1126
f 1127 1134 1128
f 1133 1134 1127
f 1128 1135 1129
f 1134 1135 1128
f 1129 1136 1130
f 1135 1136 1129
f 1130 1137 1131
f 1136 1137 1130
f 1131 1138 1125
f 1137 1138 1131
f 746 1139 1132
f 752 1139 746
f 1132 1140 1133
f 1139 1140 1132
f 1133 1141 1134
f 1140 1141 1133
f 1134 1142 1135
f 1141 1142 1134
f 1135 1143 1136
f 1142 1143 1135
f 1136 1144 1137
f 1143 1144 1136
f 752 1145 1139
f 758 1145 752
f 1139 1146 1140
f 1145 1146 1139
f 1140 1147 1141
f 1146 1147 1140
f 1141 1148 1142
f 1147 1148 1141
f 1142 1149 1143
f 1148 1149 1142
f 758 1150 1145
f 764 1150 758
f 1145 1151 1146
f 1150 1151 1145
f 1146 1152 1147
f 1151 1152 1146
f 1147 1153 1148
f 1152 1153 1147
f 764 1154 1150
f 770 1154 764
f 1150 1155 1151
f 1154 1155 1150
f 1151 1156 1152
f 1155 1156 1151
f 1148 1157 1149
f 1153 1157 1148
f 1152 1158 1153
f 1156 1158 1152
f 1153 1159 1157
f 1158 1159 1153
f 770 1160 1154
f 1154 1161 1155
f 1160 1161 1154
f 1155 1162 1156
f 1161 1162 1155
f 1156 1163 1158
f 1162 1163 1156
f 1158 1164 1159
f 1163 1164 1158
f 1165 1160 770
f 765 1165 770
f 771 1165 765
f 771 1166 1165
f 781 1166 771
f 1165 1167 1160
f 1166 1167 1165
f 1160 1168 1161
f 1167 1168 1160
f 1161 1169 1162
f 1168 1169 1161
f 1162 1170 1163
f 1169 1170 1162
f 781 1171 1166
f 786 1171 781
f 786 797 1171
f 1166 1172 1167
f 1171 1172 1166
f 797 1173 1171
f 1171 1173 1172
f 797 812 1173
f 1167 1174 1168
f 1172 1174 1167
f 1168 1175 1169
f 1174 1175 1168
f 812 1176 1173
f 812 818 1176
f 1173 1177 1172
f 1172 1177 1174
f 1173 1176 1177
f 818 1178 1176
f 818 824 1178
f 1177 1179 1174
f 1174 1179 1175
f 1176 1180 1177
f 1176 1178 1180
f 1177 1180 1179
f 1175 1181 1169
f 1169 1181 1170
f 824 1182 1178
f 824 830 1182
f 1178 1183 1180
f 1178 1182 1183
f 1180 1184 1179
f 1180 1183 1184
f 1179 1185 1175
f 1175 1185 1181
f 1179 1184 1185
f 830 1186 1182
f 830 836 1186
f 1182 1187 1183
f 1182 1186 1187
f 1183 1188 1184
f 1183 1187 1188
f 1184 1189 1185
f 1184 1188 1189
f 1185 1190 1181
f 1185 1189 1190
f 836 1191 1186
f 836 842 1191
f 1186 1192 1187
f 1186 1191 1192
f 1187 1193 1188
f 1187 1192 1193
f 1188 1194 1189
f 1188 1193 1194
f 842 1195 1191
f 842 848 1195
f 1191 1196 1192
f 1191 1195 1196
f 1192 1197 1193
f 1192 1196 1197
f 848 1198 1195
f 848 854 1198
f 1195 1199 1196
f 1195 1198 1199
f 854 1200 1198
f 854 860 1200
f 1189 1194 1201
f 1189 1201 1190
f 1193 1202 1194
f 1193 1197 1202
f 1196 1203 1197
f 1196 1199 1203
f 1198 1204 1199
f 1198 1200 1204
f 860 1205 1200
f 860 866 1205
f 1194 1206 1201
f 1194 1202 1206
f 1197 1207 1202
f 1197 1203 1207
f 1199 1208 1203
f 1199 1204 1208
f 1200 1209 1204
f 1200 1205 1209
f 866 1210 1205
f 866 872 1210
f 1202 1211 1206
f 1202 1207 1211
f 1203 1212 1207
f 1203 1208 1212
f 1204 1213 1208
f 1204 1209 1213
f 1205 1214 1209
f 1205 1210 1214
f 872 1215 1210
f 872 878 1215
f 1207 1216 1211
f 1207 1212 1216
f 1208 1217 1212
f 1208 1213 1217
f 1209 1218 1213
f 1209 1214 1218
f 1210 1219 1214
f 1210 1215 1219
f 878 1220 1215
f 878 884 1220
f 884 941 1220
f 1215 1220 1221
f 1215 1221 1219
f 1214 1219 1222
f 1214 1222 1218
f 1213 1218 1223
f 1213 1223 1217
f 1220 941 1224
f 1220 1224 1221
f 1219 1221 1225
f 1219 1225 1222
f 1218 1222 1226
f 1218 1226 1223
f 941 1227 1224
f 941 935 1227
f 935 940 1227
f 1221 1224 1228
f 1221 1228 1225
f 1222 1225 1229
f 1222 1229 1226
f 1227 940 1230
f 940 942 1230
f 1230 942 951
f 1224 1227 1231
f 1227 1230 1231
f 1224 1231 1228
f 1230 951 1232
f 1231 1230 1232
f 1232 951 962
f 1225 1228 1233
f 1225 1233 1229
f 1228 1231 1234
f 1231 1232 1234
f 1228 1234 1233
f 1232 962 1235
f 1234 1232 1235
f 1235 962 967
f 1233 1234 1236
f 1234 1235 1236
f 1235 967 1237
f 1236 1235 1237
f 1237 967 972
f 1229 1233 1238
f 1233 1236 1238
f 1237 972 1239
f 1239 972 977
f 1236 1237 1240
f 1238 1236 1240
f 1240 1237 1239
f 1229 1238 1241
f 1226 1229 1241
f 1239 977 1242
f 1242 977 982
f 1240 1239 1243
f 1243 1239 1242
f 1238 1240 1244
f 1241 1238 1244
f 1244 1240 1243
f 1226 1241 1245
f 1223 1226 1245
f 1242 982 1246
f 1246 982 987
f 1241 1244 1247
f 1245 1241 1247
f 1244 1243 1248
f 1247 1244 1248
f 1243 1242 1249
f 1249 1242 1246
f 1248 1243 1249
f 1223 1245 1250
f 1217 1223 1250
f 1246 987 1251
f 1251 987 991
f 1245 1247 1252
f 1250 1245 1252
f 1247 1248 1253
f 1252 1247 1253
f 1249 1246 1254
f 1254 1246 1251
f 1248 1249 1255
f 1253 1248 1255
f 1255 1249 1254
f 1217 1250 1256
f 1212 1217 1256
f 1212 1256 1216
f 1251 991 1257
f 1257 991 994
f 1254 1251 1258
f 1258 1251 1257
f 1255 1254 1259
f 1259 1254 1258
f 1253 1255 1260
f 1260 1255 1259
f 1256 1250 1261
f 1250 1252 1261
f 1252 1253 1262
f 1262 1253 1260
f 1261 1252 1262
f 1216 1256 1263
f 1256 1261 1263
f 1257 994 1264
f 1264 994 996
f 1258 1257 1265
f 1265 1257 1264
f 1259 1258 1266
f 1266 1258 1265
f 1260 1259 1267
f 1267 1259 1266
f 1261 1262 1268
f 1263 1261 1268
f 1262 1260 1269
f 1269 1260 1267
f 1268 1262 1269
f 1264 996 1270
f 1270 996 1000
f 1265 1264 1271
f 1271 1264 1270
f 1266 1265 1272
f 1272 1265 1271
f 1267 1266 1273
f 1273 1266 1272
f 1269 1267 1274
f 1274 1267 1273
f 1268 1269 1275
f 1275 1269 1274
f 1276 1268 1275
f 1263 1268 1276
f 1277 1263 1276
f 1216 1263 1277
f 1211 1216 1277
f 1211 1277 1278
f 1206 1211 1278
f 1277 1276 1279
f 1278 1277 1279
f 1276 1275 1280
f 1279 1276 1280
f 1275 1274 1281
f 1280 1275 1281
f 1274 1273 1282
f 1281 1274 1282
f 1206 1278 1283
f 1201 1206 1283
f 1278 1279 1284
f 1283 1278 1284
f 1279 1280 1285
f 1284 1279 1285
f 1280 1281 1286
f 1285 1280 1286
f 1201 1283 1287
f 1190 1201 1287
f 1283 1284 1288
f 1287 1283 1288
f 1284 1285 1289
f 1288 1284 1289
f 1190 1287 1290
f 1181 1190 1290
f 1181 1290 1170
f 1287 1288 1291
f 1290 1287 1291
f 1170 1290 1292
f 1290 1291 1292
f 1170 1292 1163
f 1163 1292 1164
f 1291 1288 1293
f 1288 1289 1293
f 1292 1291 1294
f 1292 1294 1164
f 1291 1293 1294
f 1289 1285 1295
f 1285 1286 1295
f 1164 1294 1296
f 1164 1296 1159
f 1294 1293 1297
f 1294 1297 1296
f 1293 1289 1298
f 1289 1295 1298
f 1293 1298 1297
f 1159 1296 1299
f 1159 1299 1157
f 1296 1297 1300
f 1296 1300 1299
f 1297 1298 1301
f 1297 1301 1300
f 1298 1295 1302
f 1298 1302 1301
f 1295 1286 1303
f 1295 1303 1302
f 1157 1299 1304
f 1157 1304 1149
f 1299 1300 1305
f 1299 1305 1304
f 1300 1301 1306
f 1300 1306 1305
f 1301 1302 1307
f 1301 1307 1306
f 1149 1304 1308
f 1149 1308 1143
f 1143 1308 1144
f 1304 1305 1309
f 1304 1309 1308
f 1305 1306 1310
f 1305 1310 1309
f 1308 1311 1144
f 1308 1309 1311
f 1302 1312 1307
f 1302 1303 1312
f 1306 1307 1313
f 1306 1313 1310
f 1309 1310 1314
f 1309 1314 1311
f 1144 1311 1315
f 1144 1315 1137
f 1137 1315 1138
f 1311 1316 1315
f 1311 1314 1316
f 1310 1317 1314
f 1310 1313 1317
f 1307 1318 1313
f 1307 1312 1318
f 1315 1319 1138
f 1315 1316 1319
f 1314 1320 1316
f 1314 1317 1320
f 1313 1321 1317
f 1313 1318 1321
f 1138 1319 1322
f 1138 1322 1125
f 1125 1322 1078
f 1322 1073 1078
f 1322 1323 1073
f 1319 1323 1322
f 1323 1068 1073
f 1316 1324 1319
f 1319 1324 1323
f 1316 1320 1324
f 1323 1325 1068
f 1324 1325 1323
f 1325 1063 1068
f 1320 1326 1324
f 1324 1326 1325
f 1325 1327 1063
f 1326 1327 1325
f 1327 1058 1063
f 1320 1328 1326
f 1317 1328 1320
f 1317 1321 1328
f 1326 1329 1327
f 1328 1329 1326
f 1327 1330 1058
f 1329 1330 1327
f 1330 1053 1058
f 1321 1331 1328
f 1328 1331 1329
f 1330 1332 1053
f 1332 1048 1053
f 1329 1333 1330
f 1331 1333 1329
f 1333 1332 1330
f 1321 1334 1331
f 1318 1334 1321
f 1332 1335 1048
f 1335 1043 1048
f 1331 1336 1333
f 1334 1336 1331
f 1333 1337 1332
f 1337 1335 1332
f 1336 1337 1333
f 1318 1338 1334
f 1312 1338 1318
f 1335 1339 1043
f 1339 1038 1043
f 1334 1340 1336
f 1338 1340 1334
f 1336 1341 1337
f 1340 1341 1336
f 1337 1342 1335
f 1342 1339 1335
f 1341 1342 1337
f 1312 1343 1338
f 1303 1343 1312
f 1339 1344 1038
f 1344 1027 1038
f 1338 1345 1340
f 1343 1345 1338
f 1340 1346 1341
f 1345 1346 1340
f 1342 1347 1339
f 1347 1344 1339
f 1341 1348 1342
f 1346 1348 1341
f 1348 1347 1342
f 1303 1349 1343
f 1286 1349 1303
f 1286 1281 1349
f 1281 1282 1349
f 1349 1350 1343
f 1343 1350 1345
f 1349 1282 1350
f 1345 1351 1346
f 1350 1351 1345
f 1282 1352 1350
f 1350 1352 1351
f 1282 1273 1352
f 1273 1272 1352
f 1352 1272 1353
f 1352 1353 1351
f 1272 1271 1353
f 1351 1354 1346
f 1351 1353 1354
f 1346 1354 1348
f 1353 1271 1355
f 1353 1355 1354
f 1271 1270 1355
f 1354 1356 1348
f 1354 1355 1356
f 1348 1356 1347
f 1355 1270 1357
f 1355 1357 1356
f 1270 1000 1357
f 1356 1358 1347
f 1356 1357 1358
f 1347 1358 1344
f 1357 1000 1359
f 1357 1359 1358
f 1000 999 1359
f 1359 999 1007
f 1358 1360 1344
f 1358 1359 1360
f 1359 1007 1360
f 1344 1360 1027
f 1360 1007 1016
f 1360 1016 1027
v -13.43359 21.33992 139.3376
v 13.88197 21.33992 139.3618
v -13.43602 21.33992 142.0714
v 13.87954 21.33992 142.0957
v -13.43602 5.260078 142.0714
v 13.87954 5.260077 142.0957
v -13.43359 5.260077 139.3376
v 13.88197 5.260076 139.3618
v -13.43602 21.33992 142.0714
v 13.87954 21.33992 142.0957
v -13.43602 5.260078 142.0714
v 13.87954 5.260077 142.0957
v -13.43359 5.260077 139.3376
v -13.43359 21.33992 139.3376
v 13.88197 21.33992 139.3618
v 13.88197 5.260076 139.3618
v 13.88197 21.33992 139.3618
v 13.87954 21.33992 142.0957
v 13.87954 5.260077 142.0957
v 13.88197 5.260076 139.3618
v -13.43359 5.260077 139.3376
v -13.43602 5.260078 142.0714
v -13.43602 21.33992 142.0714
v -13.43359 21.33992 139.3376
f 1361 1363 1364
f 1361 1364 1362
f 1369 1365 1366
f 1369 1366 1370
f 1371 1367 1368
f 1371 1368 1372
f 1373 1374 1375
f 1373 1375 1376
f 1377 1378 1379
f 1377 1379 1380
f 1381 1382 1383
f 1381 1383 1384
