v 32 -21.5 -21
v 16 -21.5 -21
v 16 -21.5 -13
v 32 -21.5 -13
v 32 -21.5 -32
v 16 -21.5 -32
v 16 -21.5 -16
v 32 -21.5 -16
v 32 -21.5 -16
v 16 -21.5 -16
v 16 -21.5 -21
v 32 -21.5 -21
v 16 -21.5 16
v 32 -21.5 16
v 16 -21.5 32
v 32 -21.5 32
v -16 -21.5 -21
v -16 -21.5 -13
v -32 -21.5 -21
v -32 -21.5 -13
v -16 -21.5 -32
v -16 -21.5 -16
v -32 -21.5 -32
v -32 -21.5 -16
v -16 -21.5 -16
v -16 -21.5 -21
v -32 -21.5 -16
v -32 -21.5 -21
v -16 -21.5 16
v -32 -21.5 16
v -16 -21.5 32
v -32 -21.5 32
v -16 -21.5 -32
v -16 -131 -32
v -32 -131 -32
v -32 -21.5 -32
v -32 -21.5 -32
v -32 -131 -32
v -32 -21.5 -16
v -32 -131 -16
v -32 -21.5 -16
v -32 -131 -16
v -32 -21.5 -21
v -32 -131 -21
v -32 -21.5 -21
v -32 -131 -21
v -32 -21.5 -13
v -32 -131 -13
v -32 -131 16
v -32 -21.5 16
v -32 -131 32
v -32 -21.5 32
v 32 -21.5 32
v 32 -131 32
v 32 -21.5 16
v 32 -131 16
v -32 -21.5 32
v -32 -131 32
v -16 -21.5 32
v -16 -131 32
v 16 -131 32
v 16 -21.5 32
v 32 -21.5 -32
v 32 -131 -32
v 16 -21.5 -32
v 16 -131 -32
v 32 -131 32
v 32 -21.5 32
v 32 -21.5 -13
v 32 -131 -13
v 32 -131 -21
v 32 -21.5 -21
v 32 -131 -21
v 32 -131 -16
v 32 -21.5 -21
v 32 -21.5 -16
v 32 -131 -16
v 32 -131 -32
v 32 -21.5 -16
v 32 -21.5 -32
v 32 -131 -13
v -16 -131 32
v -32 -131 32
v -32 -131 16
v -32 -131 -13
v -32 -131 -21
v -16 -131 -32
v -32 -131 -21
v -32 -131 -16
v -16 -131 -32
v -32 -131 -16
v -32 -131 -32
v -16 -131 -32
v 32 -131 -21
v 16 -131 -32
v 16 -131 -32
v 32 -131 -16
v 32 -131 -21
v 16 -131 -32
v 32 -131 -32
v 32 -131 -16
v 16 -131 32
v 32 -131 16
v 32 -131 32
f 1 2 3
f 4 1 3
f 5 6 7
f 8 5 7
f 9 10 11
f 12 9 11
f 4 3 13
f 14 4 13
f 14 13 15
f 16 14 15
f 2 17 18
f 3 2 18
f 17 19 20
f 18 17 20
f 6 21 22
f 7 6 22
f 21 23 24
f 22 21 24
f 10 25 26
f 11 10 26
f 25 27 28
f 26 25 28
f 3 18 29
f 13 3 29
f 18 20 30
f 29 18 30
f 13 29 31
f 15 13 31
f 29 30 32
f 31 29 32
f 33 34 35
f 33 35 36
f 37 38 39
f 39 38 40
f 41 42 43
f 43 42 44
f 45 46 47
f 46 48 47
f 47 48 49
f 47 49 50
f 50 49 51
f 50 51 52
f 53 54 55
f 54 56 55
f 57 58 59
f 58 60 59
f 59 60 61
f 59 61 62
f 63 64 65
f 65 64 66
f 61 67 62
f 62 67 68
f 65 66 33
f 66 34 33
f 55 56 69
f 56 70 69
f 69 70 71
f 69 71 72
f 73 74 75
f 75 74 76
f 77 78 79
f 79 78 80
f 81 82 83
f 81 83 84
f 81 84 85
f 81 85 86
f 81 86 87
f 88 89 90
f 91 92 93
f 81 87 94
f 87 95 94
f 96 97 98
f 99 100 101
f 81 102 82
f 103 102 81
f 102 103 104
v -30 -24 30
v -29 -24 30
v -30 -21 30
v -29 -21 30
v -29 -24 29
v -29 -24 -30
v -29 -21 29
v -29 -21 -30
v -29 -24 -30
v -30 -24 -30
v -29 -21 -30
v -30 -21 -30
v -30 -24 -30
v -30 -24 29
v -30 -21 -30
v -30 -21 29
v -30 -21 29
v -29 -21 29
v -30 -21 -30
v -29 -21 -30
v -30 -24 -30
v -29 -24 -30
v -30 -24 29
v -29 -24 29
v -30 -24 30
v -29 -24 30
v -30 -21 30
v -30 -24 30
v 30 -24 29
v 30 -21 29
v 30 -24 30
v 30 -21 30
v -29 -21 30
v -30 -21 30
v 29 -21 29
v -29 -24 29
v -29 -21 29
v 29 -24 29
v 30 -21 -30
v 29 -24 -30
v 29 -21 -30
v 30 -24 -30
v 29 -24 29
v 29 -24 30
v 30 -24 29
v 30 -24 30
v 29 -21 29
v 29 -21 30
v 30 -21 29
v 30 -21 30
v 29 -24 30
v 29 -21 30
v 30 -24 30
v 30 -21 30
v 29 -21 -29
v 29 -24 29
v 29 -21 29
v 29 -24 -29
v -29 -21 -30
v -29 -24 -29
v -29 -21 -29
v -29 -24 -30
v 30 -21 -29
v 29 -21 -29
v 30 -21 -30
v 29 -21 -30
v 30 -24 -29
v 30 -21 -29
v 30 -24 -30
v 30 -21 -30
v 30 -24 -29
v 29 -24 -29
v 30 -24 -30
v 29 -24 -30
v 29 -24 -29
v 29 -21 -29
v -29 -24 -29
v -29 -21 -29
v -29 -21 -29
v -29 -24 -29
f 105 106 107
f 106 108 107
f 109 110 111
f 110 112 111
f 113 114 115
f 114 116 115
f 117 118 119
f 118 120 119
f 121 122 123
f 122 124 123
f 125 126 127
f 126 128 127
f 127 128 129
f 128 130 129
f 120 118 131
f 118 132 131
f 133 134 135
f 134 136 135
f 122 121 137
f 121 138 137
f 139 140 141
f 139 142 140
f 143 144 145
f 143 146 144
f 130 147 148
f 130 128 147
f 148 149 150
f 148 147 149
f 151 122 137
f 152 151 137
f 153 151 152
f 154 153 152
f 106 155 156
f 108 106 156
f 155 157 158
f 156 155 158
f 159 160 161
f 159 162 160
f 163 164 165
f 163 166 164
f 167 168 151
f 153 167 151
f 169 170 168
f 167 169 168
f 133 171 172
f 134 133 172
f 171 173 174
f 172 171 174
f 147 175 149
f 147 176 175
f 176 177 175
f 176 178 177
f 179 180 181
f 180 182 181
f 168 170 183
f 170 124 183
f 145 144 115
f 144 113 115
f 178 176 126
f 176 184 126
v -1937.269 -98.80133 1734.752
v -1937.269 -81.66177 1856.269
v -1815.752 -96.46325 1856.269
v -1815.752 -101.5383 1734.752
v -1937.269 -104.8199 1613.236
v -1694.236 -80.47839 1856.269
v -1815.752 -83.61967 1613.236
v -1937.269 -82.14539 1491.719
v -1694.236 -90.86096 1734.752
v -1572.719 -108.8752 1856.269
v -1815.752 -72.35874 1491.719
v -1937.269 -111.1036 1370.202
v -1694.236 -72.49962 1613.236
v -1572.719 -92.53896 1734.752
v -1451.202 -76.47796 1856.269
v -1815.752 -80.19415 1370.202
v -1937.269 -82.90736 1248.685
v -1694.236 -93.61649 1491.719
v -1451.202 -97.74456 1734.752
v -1329.685 -99.63666 1856.269
v -1572.719 -94.98164 1613.236
v -1815.752 -100.9845 1248.685
v -1937.269 -97.5489 1127.168
v -1329.685 -96.9812 1734.752
v -1208.168 -85.53934 1856.269
v -1694.236 -101.0877 1370.202
v -1572.719 -78.62097 1491.719
v -1451.202 -108.0062 1613.236
v -1815.752 -79.5614 1127.168
v -1937.269 -75.96787 1005.651
v -1208.168 -90.1738 1734.752
v -1086.651 -86.80716 1856.269
v -1694.236 -86.78621 1248.685
v -1572.719 -89.51936 1370.202
v -1451.202 -105.4704 1491.719
v -1329.685 -73.69094 1613.236
v -1815.752 -80.99171 1005.651
v -1937.269 -73.67728 884.1346
v -1086.651 -88.18608 1734.752
v -965.1346 -99.85255 1856.269
v -1694.236 -75.66133 1127.168
v -1572.719 -105.7528 1248.685
v -1451.202 -88.15425 1370.202
v -1329.685 -91.45047 1491.719
v -1208.168 -92.26949 1613.236
v -965.1346 -95.91142 1734.752
v -843.6179 -78.04338 1856.269
v -1086.651 -99.77724 1613.236
v -1208.168 -101.8461 1491.719
v -1329.685 -81.00253 1370.202
v -1451.202 -89.60768 1248.685
v -843.6179 -89.84169 1734.752
v -722.101 -82.38254 1856.269
v -965.1346 -91.81896 1613.236
v -1086.651 -94.57124 1491.719
v -1208.168 -94.88473 1370.202
v -722.101 -83.44167 1734.752
v -600.5842 -99.15575 1856.269
v -843.6179 -80.57182 1613.236
v -965.1346 -72.61351 1491.719
v -600.5842 -76.58723 1734.752
v -479.0673 -85.74277 1856.269
v -722.101 -93.96621 1613.236
v -479.0673 -85.22813 1734.752
v -357.5505 -82.97047 1856.269
v -1329.685 -89.20141 1248.685
v -1086.651 -94.12722 1370.202
v -843.6182 -90.4093 1491.719
v -600.5854 -78.52584 1613.237
v -357.5505 -81.91782 1734.752
v -236.0337 -91.05464 1856.269
v -1208.168 -89.21792 1248.685
v -965.1378 -74.54001 1370.205
v -722.1038 -95.88739 1491.722
v -479.0717 -89.04294 1613.242
v -236.0337 -80.62901 1734.752
v -114.5168 -72.43148 1856.269
v -1086.652 -74.49937 1248.686
v -843.6173 -100.4051 1370.201
v -600.6323 -74.12735 1491.801
v -357.5646 -76.88966 1613.272
v -114.5168 -94.8802 1734.752
v 6.999997 -69.53191 1856.269
v -965.1665 -78.69366 1248.714
v -722.1204 -95.4084 1370.227
v -479.0554 -104.0587 1491.69
v -236.0414 -80.50388 1613.287
v 6.999997 -97.92726 1734.752
v 128.5168 -84.14456 1856.269
v -843.674 -90.49287 1248.741
v -600.6216 -94.11534 1370.265
v -357.662 -62.71711 1492.118
v -114.5168 -77.72626 1613.303
v 128.5168 -90.70182 1734.752
v 250.0337 -84.32793 1856.269
v -721.7319 -130.5328 1248.245
v -479.1794 -84.81293 1370.461
v -236.1242 -49.90544 1492.393
v 6.992706 -118.375 1613.187
v 250.0337 -102.4361 1734.752
v 371.5505 -100.6622 1856.269
v -601.4534 -38.95918 1249.985
v -357.7197 -73.60506 1370.791
v -114.5168 -106.2444 1491.615
v 128.5275 -82.4314 1613.263
v 371.5505 -84.63525 1734.752
v 493.0673 -71.7579 1856.269
v -479.4471 -69.64651 1249.442
v -236.0869 -83.5541 1370.572
v 6.987046 -106.388 1491.622
v 250.039 -86.59428 1613.243
v 493.0673 -87.87082 1734.752
v 614.5842 -91.21273 1856.269
v -357.5479 -93.63759 1248.677
v -114.5182 -73.91936 1370.867
v 128.5132 -100.859 1491.705
v 371.5509 -92.81608 1613.236
v 614.5842 -64.31999 1734.752
v 736.101 -84.64997 1856.269
v -236.2278 -63.22147 1249.818
v 7.003433 -95.41498 1370.236
v 250.0728 -82.59481 1491.854
v 493.0673 -85.12104 1613.236
v 736.101 -98.39133 1734.752
v 857.6179 -74.29908 1856.269
v -114.5836 -59.23592 1250.065
v 128.6613 -63.48073 1371.21
v 371.5554 -94.68592 1491.749
v 614.5842 -106.0313 1613.236
v 857.6179 -100.4049 1734.752
v 979.1346 -100.2231 1856.269
v 7.00006 -92.69046 1248.661
v 250.0699 -88.7493 1370.484
v 493.0677 -86.26643 1491.785
v 736.101 -101.5118 1613.236
v 979.1346 -92.9613 1734.752
v 1100.651 -93.63306 1856.269
v 128.5213 -85.35342 1249.065
v 371.6286 -68.23814 1371.083
v 614.5851 -67.44491 1491.873
v 857.6179 -88.79468 1613.236
v 1100.651 -100.1845 1734.752
v 1222.168 -99.64304 1856.269
v 250.017 -100.5373 1248.209
v 493.0759 -92.75828 1370.366
v 736.1088 -87.88989 1491.767
v 979.1346 -72.43621 1613.236
v 1222.168 -92.56203 1734.752
v 1343.685 -108.9312 1856.269
v 371.6131 -76.87576 1249.659
v 614.5844 -98.61817 1370.205
v 857.6323 -84.67004 1491.756
v 1100.651 -77.21789 1613.236
v 1343.685 -91.89777 1734.752
v 1465.202 -71.76653 1856.269
v 493.0654 -93.8569 1248.664
v 736.1217 -92.01446 1370.349
v 979.1304 -106.9517 1491.713
v 1222.168 -111.7852 1613.236
v 1465.202 -69.05373 1734.752
v 1586.719 -68.53106 1856.269
v 614.7003 -74.78139 1249.688
v 857.6533 -91.75604 1370.329
v 1100.653 -86.04225 1491.72
v 1343.685 -63.27667 1613.235
v 1586.719 -72.92751 1734.752
v 1708.236 -68.91913 1856.269
v 736.2206 -79.39627 1249.377
v 979.1738 -91.00557 1370.297
v 1222.168 -81.24578 1491.719
v 1465.202 -76.65746 1613.236
v 1708.236 -94.49722 1734.752
v 1829.752 -89.25176 1856.269
v 857.6613 -91.90558 1248.836
v 1100.711 -79.31821 1370.303
v 1343.685 -89.23875 1491.719
v 1586.719 -111.1186 1613.236
v 1829.752 -84.51909 1734.752
v 1951.269 -107.178 1856.269
v 1951.269 -110.4717 1734.752
v 1708.236 -79.27205 1613.236
v 1829.752 -72.97481 1613.236
v 1951.269 -98.37687 1613.236
v 1465.202 -71.11714 1491.719
v 1222.164 -104.1669 1370.197
v 1586.719 -84.85891 1491.719
v 1829.752 -81.43433 1491.719
v 1951.269 -100.5163 1491.719
v 1708.236 -73.93994 1491.719
v 1343.686 -82.24197 1370.203
v 1829.752 -94.55469 1370.202
v 1951.269 -86.53276 1370.202
v 1465.202 -89.85124 1370.202
v 1708.236 -94.86194 1370.202
v 1586.719 -82.84451 1370.202
v 1829.752 -77.51482 1248.685
v 1951.269 -86.56879 1248.685
v 1708.236 -86.73196 1248.685
v 1586.719 -92.25116 1248.685
v 1465.205 -83.51783 1248.688
v 1343.714 -86.22205 1248.717
v 1829.752 -101.0388 1127.168
v 1951.269 -90.65341 1127.168
v 1708.236 -72.02216 1127.168
v 1586.72 -80.68826 1127.169
v 1465.197 -102.1891 1127.164
v 1829.752 -84.66731 1005.651
v 1951.269 -83.97739 1005.651
v 1708.236 -86.61971 1005.651
v 1586.754 -70.94102 1005.682
v 1829.752 -83.16966 884.1346
v 1951.269 -66.76942 884.1346
v 1708.235 -104.1369 884.134
v 1829.752 -92.46033 762.6178
v 1951.269 -63.96951 762.6177
v 1343.667 -101.8363 1127.149
v 1465.518 -63.49533 1005.893
v 1586.753 -93.02231 884.1546
v 1708.254 -79.03481 762.6306
v 1829.752 -109.4697 641.101
v 1951.269 -70.70771 641.1009
v 1344.096 -78.95747 1005.996
v 1464.896 -115.2162 883.9533
v 1586.951 -78.27475 762.7133
v 1708.296 -75.3699 641.1242
v 1829.752 -87.48448 519.5841
v 1951.269 -99.991 519.5841
v 1344.262 -78.75942 884.5204
v 1464.794 -111.1425 762.4418
v 1586.977 -83.92463 641.1727
v 1708.313 -80.9167 519.5964
v 1829.752 -87.29514 398.0673
v 1951.269 -92.86373 398.0673
v 1344.144 -82.48749 762.8479
v 1466.632 -58.61745 641.5112
v 1587.778 -48.66479 519.7284
v 1708.234 -100.4706 398.0673
v 1829.752 -88.66993 276.5504
v 1951.269 -89.30512 276.5504
v 1344.587 -73.29351 641.4025
v 1465.09 -97.23962 519.5681
v 1587.249 -75.34624 398.0673
v 1708.294 -85.39655 276.5411
v 1829.752 -105.6072 155.0336
v 1951.269 -92.23248 155.0336
v 1344.987 -66.3146 519.8021
v 1464.916 -100.5364 398.0673
v 1586.381 -114.955 276.5964
v 1708.278 -82.71111 155.0173
v 1829.752 -88.38796 33.51681
v 1951.269 -88.31807 33.51681
v 1344.429 -75.35942 398.0673
v 1465.813 -80.78845 276.4629
v 1586.936 -86.4593 154.9752
v 1708.262 -77.67471 33.50999
v 1829.753 -95.36884 -87.99959
v 1951.269 -83.895 -88.00002
v 1344.422 -75.8099 276.4318
v 1466.806 -55.7353 154.6638
v 1586.608 -107.9464 33.52594
v 1708.268 -90.51705 -87.97339
v 1829.793 -77.33216 -209.4822
v 1951.269 -92.2774 -209.5168
v 1344.232 -80.73239 154.9433
v 1465.833 -81.43441 33.5197
v 1586.611 -105.6245 -88.06116
v 1708.196 -103.1375 -209.5474
v 1829.839 -87.64549 -330.9835
v 1951.276 -82.79913 -331.0274
v 1348.782 -15.03016 34.11125
v 1465.723 -85.31532 -87.76849
v 1586.841 -93.5772 -209.423
v 1708.839 -75.92528 -330.6766
v 1830.368 -59.37623 -452.295
v 1951.271 -99.14592 -452.549
v 1344.228 -81.51384 -87.77388
v 1464.643 -101.604 -209.8966
v 1587.117 -85.69858 -330.7719
v 1709.752 -60.2694 -451.8956
v 1830.243 -78.47014 -573.931
v 1951.411 -79.7452 -574.0129
v 1345.255 -65.47159 -208.6007
v 1465.405 -83.30977 -330.8962
v 1588.222 -67.1253 -451.8157
v 1708.423 -90.63842 -574.0134
v 1830.244 -82.07429 -695.5175
v 1951.507 -79.33533 -695.5463
v 1339.951 -112.9369 -333.4225
v 1465.669 -74.43738 -452.3029
v 1587.328 -77.99621 -573.8708
v 1711.055 -47.2551 -695.179
v 1829.697 -99.98538 -817.101
v 1951.573 -77.21861 -817.101
v 1347.297 -33.96372 -450.5222
v 1465.63 -70.08463 -573.9191
v 1587.655 -72.34653 -695.4365
v 1707.347 -105.5691 -817.101
v 1830.267 -81.29812 -938.6877
v 1951.561 -74.6263 -938.6642
v 1344.069 -56.78028 -573.922
v 1464.852 -73.99747 -695.6401
v 1584.152 -110.888 -817.0842
v 1709.327 -74.96076 -938.7747
v 1829.884 -93.59209 -1060.171
v 1951.314 -93.53058 -1060.152
v 1346.47 -33.68089 -695.1288
v 1471.904 -9.021796 -817.2803
v 1586.805 -82.01691 -938.6326
v 1708.885 -82.17721 -1060.321
v 1829.922 -88.6671 -1181.722
v 1951.307 -85.08085 -1181.677
v 1348.892 -13.29688 -817.3918
v 1465.548 -68.06818 -938.6921
v 1585.362 -103.1033 -1059.68
v 1708.54 -89.05515 -1181.783
v 1829.734 -102.5875 -1303.158
v 1951.269 -101.1888 -1303.168
v 1342.282 -69.5162 -938.225
v 1469.856 -24.69395 -1062.031
v 1587.657 -74.92393 -1182.122
v 1708.594 -85.11168 -1303.38
v 1829.759 -96.13195 -1424.691
v 1951.269 -73.91663 -1424.685
v 1345.523 -45.04198 -1061.075
v 1462.361 -116.4541 -1179.936
v 1586.421 -99.63306 -1302.969
v 1708.486 -79.61597 -1424.876
v 1829.751 -113.9373 -1546.201
v 1951.269 -108.6998 -1546.202
v 1342.392 -85.38363 -1180.679
v 1466.604 -63.95759 -1304.291
v 1587.526 -70.80898 -1425.362
v 1708.303 -79.61477 -1546.262
v 1829.752 -109.9739 -1667.719
v 1951.269 -90.63344 -1667.719
v 1342.325 -98.43028 -1301.811
v 1465.728 -80.69128 -1425.211
v 1586.993 -78.87049 -1546.476
v 1708.239 -89.03912 -1667.722
v 1829.752 -96.12388 -1789.236
v 1951.269 -89.71679 -1789.236
v 1344.099 -78.1408 -1425.201
v 1464.68 -117.8556 -1545.579
v 1586.722 -98.8223 -1667.723
v 1708.236 -81.45047 -1789.236
v 1829.752 -72.75038 -1910.752
v 1951.269 -83.29261 -1910.752
v 1829.752 -98.07085 -2032.269
v 1951.269 -120.0731 -2032.269
v 1708.236 -97.2895 -2032.269
v 1708.236 -72.07841 -1910.752
v 1586.719 -97.68562 -2032.269
v 1586.719 -90.15041 -1910.752
v 1465.202 -89.79026 -2032.269
v 1586.722 -59.86233 -1789.239
v 1465.202 -85.69354 -1910.752
v 1343.685 -98.92474 -2032.269
v 1465.214 -92.31816 -1789.249
v 1343.691 -70.72755 -1910.758
v 1222.168 -94.18732 -2032.269
v 1465.4 -78.85357 -1667.978
v 1222.161 -108.8868 -1910.741
v 1100.651 -95.68153 -2032.269
v 1343.807 -70.12886 -1789.444
v 1343.659 -100.1813 -1667.674
v 1100.696 -66.67828 -1910.868
v 979.1346 -76.30966 -2032.269
v 1222.265 -84.53284 -1789.468
v 1344.568 -66.64485 -1547.522
v 979.1456 -88.02525 -1910.821
v 857.6179 -81.76697 -2032.269
v 1100.974 -50.30101 -1790.394
v 1222.009 -105.0505 -1667.35
v 1221.648 -105.2513 -1545.164
v 857.6179 -110.081 -1910.685
v 736.101 -81.25112 -2032.269
v 979.1927 -84.20953 -1789.663
v 1100.874 -79.90341 -1668.492
v 1224.382 -34.10744 -1428.334
v 736.0908 -88.79522 -1910.817
v 614.5842 -115.9495 -2032.269
v 857.6179 -89.92643 -1789.503
v 1100.354 -96.77406 -1545.328
v 979.4833 -53.95698 -1670.122
v 1223.269 -53.38987 -1304.602
v 614.5653 -85.95062 -1910.801
v 493.0673 -89.4037 -2032.269
v 736.0651 -89.66676 -1789.5
v 857.6102 -112.8563 -1666.344
v 1100.436 -80.33138 -1424.174
v 979.5514 -57.07422 -1548.49
v 1220.525 -78.7548 -1180.05
v 493.0565 -87.29113 -1910.768
v 371.5505 -91.05178 -2032.269
v 614.5234 -89.91973 -1789.454
v 735.814 -58.08993 -1669.915
v 857.5794 -95.80846 -1544.901
v 1101.328 -50.5327 -1304.409
v 979.2436 -66.71548 -1425.132
v 371.5496 -94.89956 -1910.753
v 250.0337 -99.38562 -2032.269
v 493.0325 -94.30708 -1789.319
v 614.5011 -88.63748 -1668.029
v 736.0574 -78.78893 -1546.571
v 857.5259 -79.93343 -1423.345
v 979.8747 -37.43443 -1305.43
v 250.0337 -86.88934 -1910.752
v 128.5168 -94.88396 -2032.269
v 371.5371 -96.70679 -1789.259
v 492.7637 -79.59057 -1668.471
v 614.0627 -63.28045 -1548.164
v 736.1583 -73.45162 -1424.127
v 128.5168 -91.72874 -1910.752
v 6.999997 -91.81348 -2032.269
v 250.0273 -95.81181 -1789.243
v 371.746 -110.5376 -1667.367
v 492.0301 -56.82991 -1548.721
v 6.999997 -65.00365 -1910.752
v -114.5168 -99.05605 -2032.269
v 128.5164 -95.6917 -1789.236
v 250.0492 -101.4382 -1667.697
v -114.5168 -89.5472 -1910.752
v -236.0337 -91.58665 -2032.269
v 6.999997 -93.05642 -1789.236
v -236.0337 -94.94735 -1910.752
v -357.5505 -101.56 -2032.269
v 612.7497 -14.09998 -1431.432
v 371.3081 -85.90133 -1546.638
v 128.5108 -98.20076 -1667.726
v -114.5168 -94.22994 -1789.236
v -357.5505 -85.88206 -1910.752
v -479.0673 -85.5775 -2032.269
v 492.5602 -65.77032 -1425.843
v 250.2815 -105.714 -1545.845
v 6.997468 -93.09622 -1667.721
v -236.0337 -79.94279 -1789.236
v -479.0673 -77.5659 -1910.752
v -600.5842 -92.76246 -2032.269
v 368.9822 -35.54673 -1428.972
v 128.6181 -105.9917 -1546.076
v -114.5168 -89.37469 -1667.719
v -357.5505 -99.15546 -1789.236
v -600.5842 -87.06728 -1910.752
v -722.101 -104.2728 -2032.269
v 249.5877 -81.2179 -1425.28
v 7.024672 -104.8705 -1546.173
v -236.0337 -88.94657 -1667.719
v -479.0673 -89.99767 -1789.236
v -722.101 -102.0183 -1910.752
v -843.6179 -95.78065 -2032.269
v 126.1553 -34.37886 -1427.394
v -114.5366 -74.07944 -1546.225
v -357.5505 -78.94467 -1667.719
v -600.5842 -85.36743 -1789.236
v -843.6179 -77.60165 -1910.752
v -965.1346 -78.54752 -2032.269
v 6.904362 -94.28464 -1424.79
v -236.034 -87.53956 -1546.202
v -479.0673 -88.58358 -1667.719
v -722.101 -85.34589 -1789.236
v -965.1346 -104.7644 -1910.752
v -1086.651 -82.97967 -2032.269
v -114.5726 -90.48988 -1424.751
v -357.5505 -91.1745 -1546.202
v -600.5842 -104.0462 -1667.719
v -843.6179 -83.44869 -1789.236
v -1086.651 -86.58934 -1910.752
v -1208.168 -99.15835 -2032.269
v -236.0514 -86.12691 -1424.705
v -479.0673 -94.56034 -1546.202
v -722.101 -67.90022 -1667.719
v -965.1346 -81.37101 -1789.236
v -1208.168 -94.04697 -1910.752
v -1329.685 -92.39168 -2032.269
v -357.5517 -90.10913 -1424.686
v -600.5842 -103.7472 -1546.202
v -843.6179 -76.23852 -1667.719
v -1086.651 -86.38723 -1789.236
v -1329.685 -85.39816 -1910.752
v -1451.202 -97.2643 -2032.269
v -479.0673 -104.6986 -1424.685
v -722.101 -92.86509 -1546.202
v -965.1346 -83.49101 -1667.719
v -1208.168 -79.74787 -1789.236
v -1451.202 -98.75569 -1910.752
v -1572.719 -82.31771 -2032.269
v -600.5842 -71.40382 -1424.685
v -843.6179 -88.63705 -1546.202
v -1086.651 -75.32007 -1667.719
v -1329.685 -116.7916 -1789.236
v -1572.719 -102.3608 -1910.752
v -1694.236 -80.40812 -2032.269
v -722.101 -92.03634 -1424.685
v -965.1346 -86.44022 -1546.202
v -1208.168 -100.4682 -1667.719
v -1451.202 -79.36263 -1789.236
v -1694.236 -92.31921 -1910.752
v -1815.752 -83.94772 -2032.269
v -843.6179 -100.3827 -1424.685
v -1086.651 -81.60359 -1546.202
v -1329.685 -81.46002 -1667.719
v -1572.719 -101.0492 -1789.236
v -1815.752 -101.9693 -1910.752
v -1937.269 -60.28545 -2032.269
v -1937.269 -89.55128 -1910.752
v -1694.236 -77.29112 -1789.236
v -1815.752 -93.98869 -1789.236
v -1937.269 -92.54374 -1789.236
v -1451.202 -93.26836 -1667.719
v -1208.168 -105.7723 -1546.202
v -1572.719 -77.38941 -1667.719
v -1815.752 -75.37037 -1667.719
v -1937.269 -102.8033 -1667.719
v -1694.236 -92.08849 -1667.719
v -1329.685 -92.79638 -1546.202
v -1815.752 -85.93504 -1546.202
v -1937.269 -106.553 -1546.202
v -1451.202 -103.3761 -1546.202
v -1694.236 -101.4772 -1546.202
v -1572.719 -101.4315 -1546.202
v -1815.752 -70.9606 -1424.685
v -1937.269 -88.54458 -1424.685
v -1694.236 -79.88911 -1424.685
v -1572.719 -101.7437 -1424.685
v -1451.202 -70.27488 -1424.685
v -1329.685 -92.06062 -1424.685
v -1815.752 -81.98154 -1303.168
v -1937.269 -80.40346 -1303.168
v -1694.236 -95.41886 -1303.168
v -1572.719 -98.52715 -1303.168
v -1451.202 -81.89073 -1303.168
v -1815.752 -89.77089 -1181.651
v -1937.269 -85.13467 -1181.651
v -1694.236 -73.51421 -1181.651
v -1572.72 -88.18233 -1181.652
v -1815.752 -79.34686 -1060.135
v -1937.269 -71.9604 -1060.135
v -1694.235 -102.4603 -1060.134
v -1815.753 -92.85077 -938.6185
v -1937.269 -88.74792 -938.6178
v -1329.686 -95.43177 -1303.169
v -1451.219 -86.83226 -1181.671
v -1572.731 -95.13354 -1060.148
v -1694.281 -83.68578 -938.6586
v -1815.774 -85.77335 -817.1191
v -1937.269 -72.81643 -817.101
v -1329.744 -82.86366 -1181.753
v -1451.138 -107.9024 -1060.051
v -1572.815 -91.17262 -938.7137
v -1694.5 -74.68269 -817.3026
v -1815.807 -90.88879 -695.6156
v -1937.27 -98.17511 -695.5847
v -1329.427 -117.9401 -1059.698
v -1451.536 -82.34849 -939.0164
v -1573.174 -80.16134 -817.4819
v -1694.178 -101.2743 -695.5498
v -1815.913 -87.43594 -574.1339
v -1937.318 -77.53922 -574.1009
v -1330.214 -75.54557 -939.4094
v -1452.272 -65.41791 -818.1715
v -1573.595 -73.51253 -696.1697
v -1693.671 -112.6113 -573.8237
v -1816.893 -42.72766 -452.8681
v -1937.358 -85.0295 -452.5843
v -1331.052 -56.28244 -818.8078
v -1452.993 -54.70395 -697.0179
v -1572.652 -92.14293 -574.0336
v -1693.605 -108.5626 -452.3693
v -1815.794 -97.07153 -331.0394
v -1937.333 -93.51498 -331.0438
v -1331.016 -57.71197 -696.9151
v -1450.723 -90.45049 -573.7789
v -1574.21 -65.07706 -453.0491
v -1695.837 -63.37755 -331.2636
v -1815.744 -98.81089 -209.5168
v -1937.47 -82.2882 -209.5168
v -1328.862 -86.84535 -573.4495
v -1453.771 -44.95179 -453.5809
v -1573.757 -71.21555 -331.2072
v -1694.549 -87.44139 -209.5168
v -1816.863 -55.05226 -87.84935
v -1937.459 -80.59935 -87.96982
v -1332.218 -36.23097 -453.82
v -1454.642 -34.02308 -331.7239
v -1573.037 -80.52455 -209.5168
v -1694.486 -88.87482 -87.96407
v -1815.838 -95.05945 33.54045
v -1937.348 -86.80615 33.54661
v -1329.482 -67.71194 -330.9828
v -1449.605 -93.57536 -209.5168
v -1572.317 -91.1267 -88.06719
v -1694.908 -80.45532 33.71002
v -1816.147 -69.44469 155.1969
v -1937.254 -107.1245 155.023
v -1329.523 -65.84838 -209.5168
v -1454.208 -39.28978 -87.39691
v -1572.535 -90.53971 33.45531
v -1693.768 -109.9053 154.8318
v -1815.796 -92.72749 276.5755
v -1937.269 -99.87175 276.5505
v -1329.24 -70.61225 -88.1115
v -1452.338 -63.79577 33.97245
v -1572.607 -92.94543 154.9777
v -1694.936 -67.91116 276.9653
v -1815.756 -97.42589 398.0706
v -1937.269 -86.97288 398.0673
v -1329.873 -66.68481 33.60201
v -1452.469 -63.98693 155.7959
v -1574.24 -58.05941 277.5667
v -1694.289 -94.77071 398.1083
v -1815.752 -102.1266 519.5839
v -1937.269 -72.59573 519.5841
v -1329.546 -76.45514 154.9572
v -1453.504 -45.08304 278.3933
v -1573.952 -50.07092 399.0998
v -1694.318 -70.23087 519.6586
v -1815.752 -82.52651 641.1009
v -1937.269 -108.0239 641.101
v -1330.134 -75.50758 276.8859
v -1450.51 -111.8049 397.3756
v -1573.096 -65.94983 519.9618
v -1694.243 -71.81769 641.1078
v -1815.752 -93.76684 762.6178
v -1937.269 -84.43322 762.6178
v -1330.523 -73.044 398.9927
v -1451.646 -77.24501 520.1147
v -1572.74 -91.33858 641.125
v -1694.236 -103.4629 762.6178
v -1815.752 -84.97662 884.1346
v -1694.236 -95.87486 884.1346
v -1694.236 -96.26829 1005.651
v -1572.72 -82.41976 762.6194
v -1451.171 -103.766 641.0605
v -1572.719 -106.3749 884.1346
v -1572.719 -84.06561 1127.168
v -1572.719 -98.26681 1005.651
v -1451.202 -87.02386 1127.168
v -1451.211 -93.16994 762.628
v -1451.202 -71.77766 884.1346
v -1451.202 -85.01151 1005.651
v -1329.685 -72.8161 1127.168
v -1329.685 -106.1448 1005.651
v -1208.168 -71.05746 1127.168
v -1329.687 -86.81865 884.1365
v -1329.734 -85.79438 762.7023
v -1208.169 -81.25991 1005.653
v -1086.674 -71.23724 1127.188
v -1208.184 -88.10944 884.152
v -1330.058 -71.03221 641.73
v -1086.729 -75.48025 1005.697
v -965.2864 -72.92493 1127.284
v -1208.257 -87.11181 762.7906
v -1330.393 -71.17605 520.6146
v -1086.792 -82.52235 884.2365
v -965.355 -81.21439 1005.782
v -843.9584 -74.22205 1127.454
v -1208.314 -92.26866 641.3295
v -1209.254 -80.79688 520.6981
v -1087.176 -70.94997 763.3307
v -965.349 -87.58851 884.2759
v -843.9984 -80.05581 1005.906
v -722.4469 -79.60089 1127.514
v -1090.561 -46.12947 647.083
v -1212.062 -63.16587 400.4484
v -964.678 -108.9764 762.0463
v -844.0012 -82.23101 884.4001
v -722.4011 -83.25495 1005.892
v -601.0808 -72.01517 1127.789
v -1086.611 -73.65258 519.539
v -1214.891 -44.49048 278.1453
v -967.7053 -63.28677 646.8553
v -843.672 -90.40405 762.7061
v -723.6435 -49.04224 885.3222
v -602.1218 -42.30668 1007.189
v -478.4685 -119.1037 1126.172
v -357.7097 -78.89761 1127.564
v -478.7395 -96.19931 1005.193
v -602.7834 -50.46364 886.1555
v -720.3267 -130.6833 760.0234
v -843.3407 -85.60091 639.0473
v -236.3055 -62.67992 1128.293
v -358.0352 -61.39818 1006.954
v -479.5679 -73.42837 884.8746
v -605.4001 -37.78078 766.3771
v -114.7239 -63.87242 1128.391
v -236.0344 -81.22261 1005.655
v -358.322 -46.47055 888.076
v 6.944033 -78.94986 1127.574
v -114.3035 -89.88419 1004.919
v 128.4711 -77.26791 1127.679
v -722.2293 -87.10199 638.9474
v -481.3416 -41.84519 764.9788
v -236.1361 -81.18771 883.0346
v 6.526922 -52.68121 1007.433
v 250.0754 -107.7924 1125.19
v -601.784 -56.61676 642.9771
v -357.4382 -43.75102 762.0035
v -114.7608 -41.5294 886.7696
v 127.9247 -32.84744 1009.149
v 371.4559 -104.2157 1125.46
v -473.4533 -72.50725 638.9778
v -235.4847 -40.05063 763.8322
v 6.968846 -65.29331 884.22
v 250.0213 -70.26257 1005.855
v 493.2442 -67.51081 1128.541
v -359.5685 41.52956 643.616
v -114.3411 -55.66488 763.1312
v 128.4229 -58.71301 884.4991
v 371.671 -47.24294 1007.996
v 614.6032 -84.83302 1127.269
v -232.11 5.411237 642.4622
v 6.595394 -43.33039 763.6128
v 249.9236 -49.44541 885.1709
v 493.4298 -49.21029 1007.883
v 736.2466 -78.6913 1127.766
v -111.6609 -3.992218 642.8821
v 127.5071 -16.84654 765.1918
v 371.5482 -61.30083 884.0869
v 615.1579 -50.49164 1007.831
v 6.771649 -42.77412 641.4295
v 249.5139 -11.77004 765.5538
v 493.2745 -50.74874 885.17
v 127.17 -5.310097 642.9911
v 371.6559 -14.5444 765.3977
v 249.0463 13.81012 644.0145
v 736.0424 -81.49435 1005.481
v 615.0974 -48.00095 885.6155
v 493.2855 -40.55658 763.4788
v 371.562 -24.43685 642.048
v 857.8618 -77.03757 1127.875
v 979.001 -107.8313 1248.376
v 1101.156 -53.69122 1249.536
v 979.2971 -85.42828 1127.492
v 857.0207 -103.3736 1004.291
v 736.8405 -49.30371 885.7004
v 614.9327 -45.14566 763.3661
v 1222.225 -91.29552 1248.76
v 1101.087 -76.62331 1127.819
v 1222.212 -95.71021 1127.22
v 978.9594 -91.39145 1005.36
v 858.1638 -60.28046 885.0698
v 1100.414 -97.14323 1005.355
v 1221.839 -105.172 1005.322
v 980.0086 -58.60316 885.2913
v 735.1843 -80.24878 761.2261
v 1222.236 -88.86896 884.1889
v 1101.537 -65.56702 885.0204
v 858.3907 -50.59152 763.5679
v 1221.584 -96.75439 762.2667
v 1102.901 -38.99289 764.3065
v 979.9168 -57.31016 763.3853
v 1222.218 -81.59676 641.1208
v 1101.385 -62.89001 641.4683
v 977.0231 -101.7611 639.7386
v 856.9509 -71.12301 640.5706
v 735.9857 -54.65207 640.9865
v 1224.893 -40.00901 520.1311
v 1103.064 -36.29922 520.1891
v 977.2045 -92.41859 518.9678
v 858.954 -33.93566 520.1053
v 1220.813 -98.36785 398.0667
v 1101.783 -54.32481 398.0794
v 977.648 -83.32389 398.0101
v 1224.087 -52.67369 276.2512
v 1102.534 -45.93763 276.3387
v 1223.009 -70.88029 154.9867
v 736.9091 -33.1845 519.9839
v 859.7651 -21.72759 398.2642
v 979.5381 -56.75228 276.5364
v 1100.18 -78.09323 155.0038
v 1222.988 -71.72222 33.71151
v 734.5609 -69.98785 397.7523
v 858.1052 -48.00437 276.6341
v 980.6411 -44.22989 155.3363
v 1104.785 -24.71134 34.97079
v 1223.637 -61.979 -87.33672
v 736.6017 -38.57564 276.8169
v 861.0518 -22.41765 156.2806
v 979.0243 -59.92709 33.46949
v 1100.242 -68.29093 -88.21783
v 1220.978 -81.30052 -210.1919
v 737.7402 -19.86309 156.1003
v 857.7189 -45.30253 33.54775
v 979.6509 -46.80142 -87.69579
v 1107.161 5.024301 -205.4373
v 1222.626 -57.91225 -330.7488
v 737.3286 -13.93127 33.80864
v 860.2367 -17.88203 -87.25378
v 983.6331 6.164794 -206.1074
v 1105.546 -2.743694 -327.7679
v 1224.716 -31.12696 -451.0275
v 739.9385 13.69796 -88.7699
v 856.4999 -50.4384 -210.3131
v 977.2709 -56.69183 -332.571
v 1100.65 -38.95312 -452.5516
v 1224.261 -27.53764 -573.1516
v 738.1214 14.33818 -208.8837
v 858.4896 -10.81729 -329.9545
v 981.5007 0.9777088 -450.6229
v 1097.765 -56.61857 -575.5845
v 1227.367 1.354793 -694.6296
v 736.2292 -14.53657 -330.5801
v 857.5304 -19.66755 -452.6651
v 981.4264 9.162564 -572.4807
v 1101.75 -14.82278 -695.3345
v 1224.651 -19.25396 -817.3293
v 736.2302 3.96721 -451.4577
v 857.306 -17.26382 -574.4414
v 979.2788 -10.591 -695.5385
v 1103.018 -2.568424 -817.4445
v 1224.725 -20.83785 -939.5784
v 736.102 8.460142 -573.3083
v 858.4986 17.25402 -695.0646
v 981.4676 17.42638 -817.6943
v 1099.738 -37.45813 -938.1294
v 1221.878 -52.62187 -1059.94
v 1102.695 -14.84171 -1062.053
v 1103.421 -12.14925 -1185.43
v 977.9131 -33.94907 -937.5439
v 858.7278 26.19182 -817.8419
v 980.1641 -21.44992 -1183.958
v 980.5533 -5.349744 -1062.312
v 857.6 -11.10028 -938.578
v 857.7697 -42.43923 -1304.518
v 857.8696 -24.56756 -1183.169
v 858.0696 -5.020832 -1061.925
v 735.9986 -44.86998 -1304.21
v 736.0035 -28.99912 -1182.575
v 612.9649 -14.68226 -1308.493
v 735.9368 -9.263401 -1061.426
v 492.1599 -47.14823 -1304.968
v 614.1464 -30.41365 -1182.844
v 736.0175 -3.248438 -939.0784
v 369.9361 -48.33125 -1305.488
v 613.3677 -1.664174 -1062.646
v 493.9601 -59.83226 -1180.207
v 736.1176 -4.360985 -817.0604
v 247.8124 -49.99369 -1305.704
v 371.5444 -57.47204 -1181.658
v 493.2371 -35.84269 -1059.928
v 613.3221 9.085134 -940.309
v 735.9551 19.17929 -695.1752
v 127.7547 -76.85793 -1303.908
v 247.6899 -44.0888 -1183.817
v 368.7668 -18.04547 -1062.575
v 615.4173 -22.42303 -816.6404
v 492.1625 -12.78915 -939.3352
v 614.0148 4.71954 -695.4417
v 7.787589 -114.7333 -1302.451
v 126.2888 -54.6469 -1183.394
v 248.4849 -44.66432 -1061.212
v 369.3529 -15.92637 -939.883
v 493.9962 -26.79155 -816.7797
v 612.2522 41.41549 -571.9661
v -114.5065 -99.4107 -1303.158
v 5.853319 -72.45924 -1182.47
v 126.9513 -57.28725 -1061.064
v 249.284 -44.20073 -938.9654
v 370.9908 -24.83059 -817.2479
v 492.2583 -6.196691 -695.5067
v -236.1635 -78.16949 -1303.298
v -115.33 -73.23971 -1182.261
v 5.704352 -67.98196 -1060.967
v 129.4556 -74.44313 -938.0972
v 248.5988 -33.3633 -817.4803
v 370.4779 -19.04667 -695.5124
v 493.4061 -22.25762 -574.2108
v -357.557 -94.80292 -1303.176
v -235.8759 -110.6227 -1181.491
v -114.9804 -81.96938 -1060.684
v 5.527126 -53.88107 -940.8359
v 127.8071 -51.05019 -817.6989
v 248.8022 -32.72416 -695.5565
v -479.0572 -85.56667 -1303.185
v -357.5786 -85.32243 -1181.799
v -236.2596 -83.97703 -1060.807
v -114.7118 -72.40696 -940.2962
v 7.096392 -55.45258 -818.3066
v -600.5659 -83.81385 -1303.216
v -478.9615 -76.88306 -1181.965
v -357.7556 -62.37257 -1061.822
v -236.2746 -67.18503 -941.6229
v -722.095 -92.1662 -1303.207
v -600.7316 -125.5279 -1181.121
v -479.0747 -97.82544 -1060.093
v -114.8232 -65.42932 -815.6043
v -357.6619 -84.29479 -939.2015
v -236.0443 -49.90007 -818.0964
v -843.6179 -78.16256 -1303.292
v -721.9746 -62.09944 -1182.583
v -600.3298 -75.36796 -1061.05
v -478.9436 -98.70901 -937.7425
v -356.2062 -78.15533 -812.6277
v -965.1346 -99.76574 -1424.685
v -1086.651 -81.55728 -1424.685
v -965.1388 -94.54159 -1303.195
v -843.6179 -62.32051 -1182.64
v -721.9733 -76.81981 -1061.024
v -600.4305 -71.71039 -939.8689
v -1208.168 -85.35861 -1424.685
v -1086.648 -103.2626 -1303.159
v -1208.18 -84.32085 -1303.185
v -965.2488 -65.63657 -1182.493
v -843.6179 -81.22215 -1060.791
v -1208.178 -98.01529 -1181.675
v -1086.646 -100.2932 -1181.631
v -1208.087 -102.1293 -1059.946
v -965.391 -59.91593 -1061.92
v -1086.637 -96.04518 -1060.084
v -721.6237 -45.26397 -941.5422
v -1208.617 -74.78277 -939.512
v -1087.31 -57.80478 -940.587
v -964.8837 -106.3338 -937.1163
v -843.6179 -82.9672 -938.7543
v -1207.707 -94.79816 -816.3347
v -1088.264 -25.8548 -821.1216
v -965.2421 -69.25953 -817.6364
v -843.6179 -105.3237 -814.5102
v -722.0154 -68.0907 -817.7698
v -1208.575 -66.71874 -696.126
v -1087.87 -37.54533 -698.0156
v -965.2318 -60.62357 -695.972
v -843.6179 -44.34455 -697.261
v -1209.693 -41.58192 -575.5925
v -1088.264 -24.99449 -576.4828
v -965.4098 -44.29166 -574.8905
v -1208.763 -51.20443 -452.9477
v -1087.541 -35.24252 -453.4404
v -1209.015 -43.98673 -331.3165
v -722.0593 -52.4326 -696.7503
v -843.6179 -25.88415 -576.2121
v -965.0474 -49.76748 -452.3763
v -1087.106 -38.92642 -331.2614
v -1210.056 -29.21048 -209.5168
v -722.0999 -45.79609 -574.7766
v -843.6191 -1.76724 -455.1339
v -965.3333 -34.79877 -331.2323
v -1087.916 -24.63824 -209.5689
v -1208.487 -51.6825 -87.96153
v -721.9422 -32.25183 -453.2952
v -843.6233 -34.80477 -331.1745
v -965.7699 -23.71048 -209.7201
v -1090.234 -15.58476 -89.57764
v -1211.975 -34.15211 33.26068
v -721.3156 -6.659198 -332.1568
v -843.713 -20.45299 -209.9189
v -966.4879 -25.84237 -89.95255
v -1091.704 -19.54345 30.44926
v -1212.733 -45.3548 154.8743
v -1093.185 4.565599 152.9208
v -970.4645 24.81379 25.79897
v -843.8028 -17.21216 -90.93916
v -1099.249 22.10147 278.2069
v -972.6337 81.6489 149.41
v -843.972 42.99519 25.7073
v -1083.622 -34.19199 396.1566
v -983.0441 123.9991 279.32
v -843.5204 96.2761 156.3297
v -969.5337 -15.16753 527.9117
v -966.0108 46.65991 399.0121
v -843.5067 -10.68499 517.9686
v -842.9912 110.3811 275.2379
v -844.1849 96.67292 405.7096
v -720.5827 -12.94049 523.8204
v -712.8829 80.79776 409.8633
v -602.9446 -74.57395 514.3902
v -717.4825 106.1728 277.2649
v -480.6794 -14.87085 519.446
v -595.0138 4.977159 401.7953
v -708.1801 108.8799 142.6393
v -357.3906 -38.1364 520.4456
v -477.9619 -46.40363 398.3679
v -603.1237 11.83142 276.2962
v -720.2442 18.17449 30.22786
v -234.2568 -16.22223 517.5467
v -597.3922 11.51474 153.7156
v -465.7111 6.341127 277.7306
v -357.7093 -68.50619 399.2888
v -720.6309 -17.36736 -91.02937
v -114.1443 -40.92194 519.2021
v -596.8317 -13.55861 30.57976
v -466.8459 4.81612 152.1231
v -235.9149 -52.09663 397.76
v -356.9403 -44.89129 276.3571
v -721.0897 -3.427068 -210.3819
v 6.427012 -32.08995 519.5408
v -114.5314 -44.67723 397.4654
v -235.239 -32.38094 275.2131
v -355.894 -37.85262 154.4873
v -597.4164 -10.41524 -90.37114
v -472.6006 -7.242846 31.20421
v -600.9905 -51.00171 -209.4271
v 127.959 -27.92321 519.6804
v 5.456326 -14.0519 396.2962
v -114.5069 -48.82681 275.573
v -235.4082 -56.91813 154.4338
v -476.1256 -20.23665 -88.51192
v -359.1177 -76.57565 33.91506
v 249.0874 0.4810858 520.1855
v 129.0765 -55.50911 398.5419
v 6.511892 -47.0982 275.3925
v -114.2179 -61.01482 153.9552
v -238.17 -98.51787 34.7043
v -355.9641 -49.78341 -87.97203
v -478.6241 -43.1699 -209.2538
v -600.6143 -50.77952 -331.0277
v -602.6368 -5.0521 -453.2347
v -480.2578 1.804185 -327.5295
v -358.0314 -66.57023 -210.0925
v -232.9434 -51.43209 -87.97466
v -115.1285 -97.68153 34.48904
v -602.6894 -25.67791 -575.9006
v -479.5894 -28.42921 -452.3314
v -357.6489 -57.9381 -334.1781
v -231.5222 -32.10192 -204.3222
v -602.1582 -39.58797 -698.4399
v -479.8768 -27.21913 -574.3651
v -359.5518 12.29455 -449.1533
v -601.4318 -38.07857 -821.6705
v -479.4274 -44.97313 -695.9943
v -482.4723 -27.21292 -824.8848
v -353.7803 -44.10767 -572.6862
v -358.2567 -20.77179 -696.8588
v -234.8255 -31.91984 -328.1369
v -235.6846 8.01294 -700.9652
v -234.8224 32.62357 -574.6597
v -236.0243 -14.40572 -452.5266
v -114.3083 -27.87969 -695.8869
v -111.5639 1.159382 -573.8663
v -113.4012 -25.81864 -451.3618
v -116.2674 -75.1338 -333.7088
v -112.4828 -67.82403 -207.3064
v 8.154237 -34.65915 -696.7161
v 8.360832 -32.43108 -573.7198
v 6.712311 -58.8383 -452.8794
v 11.63698 -20.41584 -321.4105
v 128.3689 -48.14634 -695.7894
v 128.2694 -93.50092 -575.8918
v 128.1344 -40.35766 -449.4607
v 254.9527 -91.83899 -576.1686
v 7.245928 -83.38922 -208.6488
v 130.8766 -121.3934 -334.9282
v 248.3656 -42.28535 -451.5578
v 372.3796 -38.10904 -574.3412
v 366.2771 3.14039 -450.1404
v 245.7833 -35.50765 -329.0441
v 129.8503 -103.4713 -210.0352
v 494.0147 -34.47109 -453.1268
v 371.1298 -42.19509 -330.8549
v 251.136 -78.52664 -209.7373
v 614.1685 -5.689861 -451.9808
v 613.4943 7.469958 -329.4776
v 494.2551 -43.89191 -331.6945
v 612.5209 47.35669 -210.5576
v 491.6028 -23.14924 -209.5706
v 614.2895 5.124998 -89.23211
v 367.8468 -27.24323 -208.9897
v 492.8526 -27.11575 -88.0783
v 614.6849 15.34536 33.90689
v 371.1822 -50.9295 -88.05859
v 615.6413 26.52471 159.2751
v 489.8456 0.6836749 33.33987
v 248.8927 -64.32853 -88.18974
v 614.1378 -48.27882 275.8068
v 369.6355 -36.46027 33.05964
v 491.2242 -6.906723 155.9389
v 126.959 -72.10514 -88.57545
v 614.4 -43.62584 397.991
v 246.0334 -34.0603 31.3202
v 371.0234 -38.80691 154.896
v 492.3489 -6.964232 277.3266
v 7.248744 -120.5888 -87.13748
v 612.7501 -86.56503 518.212
v 126.7502 -58.86228 31.72459
v 251.6717 -72.08813 156.4503
v 493.1205 -29.85538 398.116
v 371.0218 -27.93649 276.2941
v -115.095 -100.1082 -87.8598
v 6.924316 -82.63403 33.18315
v 129.4917 -79.34708 156.3731
v 6.626897 -60.2678 153.6664
v 129.2217 -64.17748 277.4901
v 248.6273 -22.11303 275.1291
v 249.9515 -36.76063 398.0117
v 371.7318 -46.17857 398.1517
v 371.5205 -29.63914 519.7507
v 493.2203 -29.14284 519.8279
v 493.3738 -27.64628 641.9678
v 614.9359 -37.5347 641.6093
f 185 186 187
f 185 187 188
f 189 185 188
f 188 187 190
f 189 188 191
f 192 189 191
f 188 190 193
f 191 188 193
f 193 190 194
f 192 191 195
f 196 192 195
f 191 193 197
f 195 191 197
f 193 194 198
f 197 193 198
f 198 194 199
f 196 195 200
f 201 196 200
f 195 197 202
f 200 195 202
f 198 199 203
f 203 199 204
f 197 198 205
f 202 197 205
f 205 198 203
f 201 200 206
f 207 201 206
f 203 204 208
f 208 204 209
f 200 202 210
f 206 200 210
f 202 205 211
f 210 202 211
f 205 203 212
f 212 203 208
f 211 205 212
f 207 206 213
f 214 207 213
f 208 209 215
f 215 209 216
f 206 210 217
f 213 206 217
f 210 211 218
f 217 210 218
f 211 212 219
f 218 211 219
f 212 208 220
f 220 208 215
f 219 212 220
f 214 213 221
f 222 214 221
f 215 216 223
f 223 216 224
f 213 217 225
f 221 213 225
f 217 218 226
f 225 217 226
f 218 219 227
f 226 218 227
f 219 220 228
f 227 219 228
f 220 215 229
f 229 215 223
f 228 220 229
f 223 224 230
f 230 224 231
f 229 223 232
f 232 223 230
f 228 229 233
f 233 229 232
f 227 228 234
f 234 228 233
f 226 227 235
f 235 227 234
f 230 231 236
f 236 231 237
f 232 230 238
f 238 230 236
f 233 232 239
f 239 232 238
f 234 233 240
f 240 233 239
f 236 237 241
f 241 237 242
f 238 236 243
f 243 236 241
f 239 238 244
f 244 238 243
f 241 242 245
f 245 242 246
f 243 241 247
f 247 241 245
f 245 246 248
f 248 246 249
f 250 234 240
f 235 234 250
f 240 239 251
f 251 239 244
f 244 243 252
f 252 243 247
f 247 245 253
f 253 245 248
f 248 249 254
f 254 249 255
f 250 240 256
f 256 240 251
f 251 244 257
f 257 244 252
f 252 247 258
f 258 247 253
f 253 248 259
f 259 248 254
f 254 255 260
f 260 255 261
f 256 251 262
f 262 251 257
f 257 252 263
f 263 252 258
f 258 253 264
f 264 253 259
f 259 254 265
f 265 254 260
f 260 261 266
f 266 261 267
f 262 257 268
f 268 257 263
f 263 258 269
f 269 258 264
f 264 259 270
f 270 259 265
f 265 260 271
f 271 260 266
f 266 267 272
f 272 267 273
f 268 263 274
f 274 263 269
f 269 264 275
f 275 264 270
f 270 265 276
f 276 265 271
f 271 266 277
f 277 266 272
f 272 273 278
f 278 273 279
f 274 269 280
f 280 269 275
f 275 270 281
f 281 270 276
f 276 271 282
f 282 271 277
f 277 272 283
f 283 272 278
f 278 279 284
f 284 279 285
f 280 275 286
f 286 275 281
f 281 276 287
f 287 276 282
f 282 277 288
f 288 277 283
f 283 278 289
f 289 278 284
f 284 285 290
f 290 285 291
f 286 281 292
f 292 281 287
f 287 282 293
f 293 282 288
f 288 283 294
f 294 283 289
f 289 284 295
f 295 284 290
f 290 291 296
f 296 291 297
f 292 287 298
f 298 287 293
f 293 288 299
f 299 288 294
f 294 289 300
f 300 289 295
f 295 290 301
f 301 290 296
f 296 297 302
f 302 297 303
f 298 293 304
f 304 293 299
f 299 294 305
f 305 294 300
f 300 295 306
f 306 295 301
f 301 296 307
f 307 296 302
f 302 303 308
f 308 303 309
f 304 299 310
f 310 299 305
f 305 300 311
f 311 300 306
f 306 301 312
f 312 301 307
f 307 302 313
f 313 302 308
f 308 309 314
f 314 309 315
f 310 305 316
f 316 305 311
f 311 306 317
f 317 306 312
f 312 307 318
f 318 307 313
f 313 308 319
f 319 308 314
f 314 315 320
f 320 315 321
f 316 311 322
f 322 311 317
f 317 312 323
f 323 312 318
f 318 313 324
f 324 313 319
f 319 314 325
f 325 314 320
f 320 321 326
f 326 321 327
f 322 317 328
f 328 317 323
f 323 318 329
f 329 318 324
f 324 319 330
f 330 319 325
f 325 320 331
f 331 320 326
f 326 327 332
f 332 327 333
f 328 323 334
f 334 323 329
f 329 324 335
f 335 324 330
f 330 325 336
f 336 325 331
f 331 326 337
f 337 326 332
f 332 333 338
f 338 333 339
f 334 329 340
f 340 329 335
f 335 330 341
f 341 330 336
f 336 331 342
f 342 331 337
f 337 332 343
f 343 332 338
f 338 339 344
f 344 339 345
f 340 335 346
f 346 335 341
f 341 336 347
f 347 336 342
f 342 337 348
f 348 337 343
f 343 338 349
f 349 338 344
f 344 345 350
f 350 345 351
f 346 341 352
f 352 341 347
f 347 342 353
f 353 342 348
f 348 343 354
f 354 343 349
f 349 344 355
f 355 344 350
f 350 351 356
f 356 351 357
f 352 347 358
f 358 347 353
f 353 348 359
f 359 348 354
f 354 349 360
f 360 349 355
f 355 350 361
f 361 350 356
f 356 357 362
f 362 357 363
f 362 363 364
f 365 356 362
f 361 356 365
f 366 362 364
f 365 362 366
f 366 364 367
f 368 355 361
f 360 355 368
f 369 354 360
f 359 354 369
f 370 361 365
f 368 361 370
f 371 366 367
f 371 367 372
f 373 365 366
f 370 365 373
f 373 366 371
f 374 360 368
f 369 360 374
f 375 371 372
f 375 372 376
f 377 368 370
f 374 368 377
f 378 373 371
f 378 371 375
f 379 370 373
f 377 370 379
f 379 373 378
f 380 375 376
f 380 376 381
f 382 378 375
f 382 375 380
f 383 379 378
f 383 378 382
f 384 377 379
f 384 379 383
f 385 374 377
f 385 377 384
f 386 380 381
f 386 381 387
f 388 382 380
f 388 380 386
f 389 383 382
f 389 382 388
f 390 384 383
f 390 383 389
f 391 386 387
f 391 387 392
f 393 388 386
f 393 386 391
f 394 389 388
f 394 388 393
f 395 391 392
f 395 392 396
f 397 393 391
f 397 391 395
f 398 395 396
f 398 396 399
f 400 384 390
f 400 385 384
f 401 390 389
f 401 389 394
f 402 394 393
f 402 393 397
f 403 397 395
f 403 395 398
f 404 398 399
f 404 399 405
f 406 400 390
f 406 390 401
f 407 401 394
f 407 394 402
f 408 402 397
f 408 397 403
f 409 403 398
f 409 398 404
f 410 404 405
f 410 405 411
f 412 406 401
f 412 401 407
f 413 407 402
f 413 402 408
f 414 408 403
f 414 403 409
f 415 409 404
f 415 404 410
f 416 410 411
f 416 411 417
f 418 412 407
f 418 407 413
f 419 413 408
f 419 408 414
f 420 414 409
f 420 409 415
f 421 415 410
f 421 410 416
f 422 416 417
f 422 417 423
f 424 418 413
f 424 413 419
f 425 419 414
f 425 414 420
f 426 420 415
f 426 415 421
f 427 421 416
f 427 416 422
f 428 422 423
f 428 423 429
f 430 424 419
f 430 419 425
f 431 425 420
f 431 420 426
f 432 426 421
f 432 421 427
f 433 427 422
f 433 422 428
f 434 428 429
f 434 429 435
f 436 430 425
f 436 425 431
f 437 431 426
f 437 426 432
f 438 432 427
f 438 427 433
f 439 433 428
f 439 428 434
f 440 434 435
f 440 435 441
f 442 436 431
f 442 431 437
f 443 437 432
f 443 432 438
f 444 438 433
f 444 433 439
f 445 439 434
f 445 434 440
f 446 440 441
f 446 441 447
f 448 442 437
f 448 437 443
f 449 443 438
f 449 438 444
f 450 444 439
f 450 439 445
f 451 445 440
f 451 440 446
f 452 446 447
f 452 447 453
f 454 448 443
f 454 443 449
f 455 449 444
f 455 444 450
f 456 450 445
f 456 445 451
f 457 451 446
f 457 446 452
f 458 452 453
f 458 453 459
f 460 454 449
f 460 449 455
f 461 455 450
f 461 450 456
f 462 456 451
f 462 451 457
f 463 457 452
f 463 452 458
f 464 458 459
f 464 459 465
f 466 460 455
f 466 455 461
f 467 461 456
f 467 456 462
f 468 462 457
f 468 457 463
f 469 463 458
f 469 458 464
f 470 464 465
f 470 465 471
f 472 466 461
f 472 461 467
f 473 467 462
f 473 462 468
f 474 468 463
f 474 463 469
f 475 469 464
f 475 464 470
f 476 470 471
f 476 471 477
f 478 472 467
f 478 467 473
f 479 473 468
f 479 468 474
f 480 474 469
f 480 469 475
f 481 475 470
f 481 470 476
f 482 476 477
f 482 477 483
f 484 478 473
f 484 473 479
f 485 479 474
f 485 474 480
f 486 480 475
f 486 475 481
f 487 481 476
f 487 476 482
f 488 482 483
f 488 483 489
f 490 484 479
f 490 479 485
f 491 485 480
f 491 480 486
f 492 486 481
f 492 481 487
f 493 487 482
f 493 482 488
f 494 488 489
f 494 489 495
f 496 490 485
f 496 485 491
f 497 491 486
f 497 486 492
f 498 492 487
f 498 487 493
f 499 493 488
f 499 488 494
f 500 494 495
f 500 495 501
f 502 496 491
f 502 491 497
f 503 497 492
f 503 492 498
f 504 498 493
f 504 493 499
f 505 499 494
f 505 494 500
f 506 500 501
f 506 501 507
f 508 502 497
f 508 497 503
f 509 503 498
f 509 498 504
f 510 504 499
f 510 499 505
f 511 505 500
f 511 500 506
f 512 506 507
f 512 507 513
f 514 508 503
f 514 503 509
f 515 509 504
f 515 504 510
f 516 510 505
f 516 505 511
f 517 511 506
f 517 506 512
f 518 512 513
f 518 513 519
f 520 514 509
f 520 509 515
f 521 515 510
f 521 510 516
f 522 516 511
f 522 511 517
f 523 517 512
f 523 512 518
f 524 518 519
f 524 519 525
f 526 520 515
f 526 515 521
f 527 521 516
f 527 516 522
f 528 522 517
f 528 517 523
f 529 523 518
f 529 518 524
f 530 524 525
f 530 525 531
f 532 530 531
f 532 531 533
f 534 530 532
f 535 524 530
f 534 535 530
f 535 529 524
f 536 535 534
f 536 537 535
f 537 529 535
f 538 537 536
f 539 523 529
f 537 539 529
f 539 528 523
f 538 540 537
f 540 539 537
f 541 540 538
f 542 528 539
f 540 542 539
f 541 543 540
f 543 542 540
f 544 543 541
f 542 545 528
f 545 522 528
f 545 527 522
f 544 546 543
f 547 546 544
f 543 548 542
f 548 545 542
f 546 548 543
f 549 527 545
f 548 549 545
f 547 550 546
f 551 550 547
f 546 552 548
f 552 549 548
f 550 552 546
f 549 553 527
f 553 521 527
f 553 526 521
f 551 554 550
f 555 554 551
f 550 556 552
f 554 556 550
f 552 557 549
f 557 553 549
f 556 557 552
f 558 526 553
f 557 558 553
f 555 559 554
f 560 559 555
f 554 561 556
f 559 561 554
f 556 562 557
f 562 558 557
f 561 562 556
f 558 563 526
f 563 520 526
f 560 564 559
f 565 564 560
f 559 566 561
f 564 566 559
f 562 567 558
f 567 563 558
f 561 568 562
f 566 568 561
f 568 567 562
f 563 569 520
f 569 514 520
f 565 570 564
f 571 570 565
f 564 572 566
f 570 572 564
f 566 573 568
f 572 573 566
f 567 574 563
f 574 569 563
f 568 575 567
f 573 575 568
f 575 574 567
f 569 576 514
f 576 508 514
f 571 577 570
f 578 577 571
f 570 579 572
f 577 579 570
f 572 580 573
f 579 580 572
f 573 581 575
f 580 581 573
f 574 582 569
f 582 576 569
f 575 583 574
f 581 583 575
f 583 582 574
f 578 584 577
f 585 584 578
f 577 586 579
f 584 586 577
f 579 587 580
f 586 587 579
f 580 588 581
f 587 588 580
f 581 589 583
f 588 589 581
f 583 590 582
f 589 590 583
f 585 591 584
f 592 591 585
f 584 593 586
f 591 593 584
f 586 594 587
f 593 594 586
f 587 595 588
f 594 595 587
f 588 596 589
f 595 596 588
f 592 597 591
f 598 597 592
f 591 599 593
f 597 599 591
f 593 600 594
f 599 600 593
f 594 601 595
f 600 601 594
f 598 602 597
f 603 602 598
f 597 604 599
f 602 604 597
f 599 605 600
f 604 605 599
f 603 606 602
f 607 606 603
f 602 608 604
f 606 608 602
f 607 609 606
f 610 609 607
f 601 611 595
f 595 611 596
f 600 612 601
f 605 612 600
f 604 613 605
f 608 613 604
f 606 614 608
f 609 614 606
f 610 615 609
f 616 615 610
f 601 617 611
f 612 617 601
f 605 618 612
f 613 618 605
f 608 619 613
f 614 619 608
f 609 620 614
f 615 620 609
f 616 621 615
f 622 621 616
f 612 623 617
f 618 623 612
f 613 624 618
f 619 624 613
f 614 625 619
f 620 625 614
f 615 626 620
f 621 626 615
f 622 627 621
f 628 627 622
f 618 629 623
f 624 629 618
f 619 630 624
f 625 630 619
f 620 631 625
f 626 631 620
f 621 632 626
f 627 632 621
f 628 633 627
f 634 633 628
f 624 635 629
f 630 635 624
f 625 636 630
f 631 636 625
f 626 637 631
f 632 637 626
f 627 638 632
f 633 638 627
f 634 639 633
f 640 639 634
f 630 641 635
f 636 641 630
f 631 642 636
f 637 642 631
f 632 643 637
f 638 643 632
f 633 644 638
f 639 644 633
f 640 645 639
f 646 645 640
f 636 647 641
f 642 647 636
f 637 648 642
f 643 648 637
f 638 649 643
f 644 649 638
f 639 650 644
f 645 650 639
f 646 651 645
f 652 651 646
f 642 653 647
f 648 653 642
f 643 654 648
f 649 654 643
f 644 655 649
f 650 655 644
f 645 656 650
f 651 656 645
f 652 657 651
f 658 657 652
f 648 659 653
f 654 659 648
f 649 660 654
f 655 660 649
f 650 661 655
f 656 661 650
f 651 662 656
f 657 662 651
f 658 663 657
f 664 663 658
f 654 665 659
f 660 665 654
f 655 666 660
f 661 666 655
f 656 667 661
f 662 667 656
f 657 668 662
f 663 668 657
f 664 669 663
f 670 669 664
f 660 671 665
f 666 671 660
f 661 672 666
f 667 672 661
f 662 673 667
f 668 673 662
f 663 674 668
f 669 674 663
f 670 675 669
f 676 675 670
f 666 677 671
f 672 677 666
f 667 678 672
f 673 678 667
f 668 679 673
f 674 679 668
f 669 680 674
f 675 680 669
f 676 681 675
f 682 681 676
f 672 683 677
f 678 683 672
f 673 684 678
f 679 684 673
f 674 685 679
f 680 685 674
f 675 686 680
f 681 686 675
f 682 687 681
f 688 687 682
f 688 689 687
f 687 690 681
f 681 690 686
f 689 691 687
f 687 691 690
f 689 692 691
f 686 693 680
f 680 693 685
f 685 694 679
f 679 694 684
f 690 695 686
f 686 695 693
f 692 696 691
f 692 697 696
f 691 698 690
f 690 698 695
f 691 696 698
f 693 699 685
f 685 699 694
f 697 700 696
f 697 701 700
f 695 702 693
f 693 702 699
f 696 703 698
f 696 700 703
f 698 704 695
f 695 704 702
f 698 703 704
f 701 705 700
f 701 706 705
f 700 707 703
f 700 705 707
f 703 708 704
f 703 707 708
f 704 709 702
f 704 708 709
f 702 710 699
f 702 709 710
f 706 711 705
f 706 712 711
f 705 713 707
f 705 711 713
f 707 714 708
f 707 713 714
f 708 715 709
f 708 714 715
f 712 716 711
f 712 717 716
f 711 718 713
f 711 716 718
f 713 719 714
f 713 718 719
f 717 720 716
f 717 721 720
f 716 722 718
f 716 720 722
f 721 723 720
f 721 724 723
f 709 715 725
f 709 725 710
f 714 726 715
f 714 719 726
f 718 727 719
f 718 722 727
f 720 728 722
f 720 723 728
f 724 729 723
f 724 730 729
f 715 731 725
f 715 726 731
f 719 732 726
f 719 727 732
f 722 733 727
f 722 728 733
f 723 734 728
f 723 729 734
f 730 735 729
f 730 736 735
f 726 737 731
f 726 732 737
f 727 738 732
f 727 733 738
f 728 739 733
f 728 734 739
f 729 740 734
f 729 735 740
f 736 741 735
f 736 742 741
f 732 743 737
f 732 738 743
f 733 744 738
f 733 739 744
f 734 745 739
f 734 740 745
f 735 746 740
f 735 741 746
f 742 747 741
f 742 748 747
f 738 749 743
f 738 744 749
f 739 750 744
f 739 745 750
f 740 751 745
f 740 746 751
f 741 752 746
f 741 747 752
f 748 753 747
f 748 754 753
f 744 755 749
f 744 750 755
f 745 756 750
f 745 751 756
f 746 757 751
f 746 752 757
f 747 758 752
f 747 753 758
f 754 759 753
f 754 760 759
f 750 761 755
f 750 756 761
f 751 762 756
f 751 757 762
f 752 763 757
f 752 758 763
f 753 764 758
f 753 759 764
f 760 765 759
f 760 766 765
f 756 767 761
f 756 762 767
f 757 768 762
f 757 763 768
f 758 769 763
f 758 764 769
f 759 770 764
f 759 765 770
f 766 771 765
f 766 772 771
f 762 773 767
f 762 768 773
f 763 774 768
f 763 769 774
f 764 775 769
f 764 770 775
f 765 776 770
f 765 771 776
f 772 777 771
f 772 778 777
f 768 779 773
f 768 774 779
f 769 780 774
f 769 775 780
f 770 781 775
f 770 776 781
f 771 782 776
f 771 777 782
f 778 783 777
f 778 784 783
f 774 785 779
f 774 780 785
f 775 786 780
f 775 781 786
f 776 787 781
f 776 782 787
f 777 788 782
f 777 783 788
f 784 789 783
f 784 790 789
f 780 791 785
f 780 786 791
f 781 792 786
f 781 787 792
f 782 793 787
f 782 788 793
f 783 794 788
f 783 789 794
f 790 795 789
f 790 796 795
f 786 797 791
f 786 792 797
f 787 798 792
f 787 793 798
f 788 799 793
f 788 794 799
f 789 800 794
f 789 795 800
f 796 801 795
f 796 802 801
f 792 803 797
f 792 798 803
f 793 804 798
f 793 799 804
f 794 805 799
f 794 800 805
f 795 806 800
f 795 801 806
f 802 807 801
f 802 808 807
f 798 809 803
f 798 804 809
f 799 810 804
f 799 805 810
f 800 811 805
f 800 806 811
f 801 812 806
f 801 807 812
f 808 813 807
f 808 222 813
f 222 221 813
f 807 813 814
f 807 814 812
f 813 221 815
f 813 815 814
f 221 225 815
f 806 812 816
f 806 816 811
f 805 811 817
f 805 817 810
f 812 814 818
f 812 818 816
f 815 225 819
f 225 226 819
f 819 226 235
f 814 815 820
f 815 819 820
f 814 820 818
f 819 235 821
f 820 819 821
f 821 235 250
f 811 816 822
f 811 822 817
f 816 818 823
f 816 823 822
f 818 820 824
f 820 821 824
f 818 824 823
f 821 250 825
f 824 821 825
f 825 250 256
f 823 824 826
f 824 825 826
f 825 256 827
f 826 825 827
f 827 256 262
f 822 823 828
f 823 826 828
f 817 822 829
f 822 828 829
f 826 827 830
f 828 826 830
f 827 262 831
f 830 827 831
f 831 262 268
f 828 830 832
f 829 828 832
f 817 829 833
f 810 817 833
f 830 831 834
f 832 830 834
f 831 268 835
f 834 831 835
f 835 268 274
f 829 832 836
f 833 829 836
f 810 833 837
f 804 810 837
f 804 837 809
f 832 834 838
f 836 832 838
f 834 835 839
f 838 834 839
f 835 274 840
f 839 835 840
f 840 274 280
f 837 833 841
f 833 836 841
f 809 837 842
f 837 841 842
f 836 838 843
f 841 836 843
f 838 839 844
f 843 838 844
f 839 840 845
f 844 839 845
f 840 280 846
f 845 840 846
f 846 280 286
f 841 843 847
f 842 841 847
f 809 842 848
f 803 809 848
f 843 844 849
f 847 843 849
f 844 845 850
f 849 844 850
f 845 846 851
f 850 845 851
f 846 286 852
f 851 846 852
f 852 286 292
f 842 847 853
f 848 842 853
f 803 848 854
f 797 803 854
f 847 849 855
f 853 847 855
f 849 850 856
f 855 849 856
f 850 851 857
f 856 850 857
f 851 852 858
f 857 851 858
f 852 292 859
f 858 852 859
f 859 292 298
f 859 298 860
f 860 298 304
f 858 859 861
f 861 859 860
f 857 858 862
f 862 858 861
f 856 857 863
f 863 857 862
f 855 856 864
f 864 856 863
f 860 304 865
f 865 304 310
f 861 860 866
f 866 860 865
f 862 861 867
f 867 861 866
f 863 862 868
f 868 862 867
f 865 310 869
f 869 310 316
f 866 865 870
f 870 865 869
f 867 866 871
f 871 866 870
f 869 316 872
f 872 316 322
f 870 869 873
f 873 869 872
f 872 322 874
f 874 322 328
f 875 863 868
f 864 863 875
f 868 867 876
f 876 867 871
f 871 870 877
f 877 870 873
f 873 872 878
f 878 872 874
f 874 328 879
f 879 328 334
f 875 868 880
f 880 868 876
f 876 871 881
f 881 871 877
f 877 873 882
f 882 873 878
f 878 874 883
f 883 874 879
f 879 334 884
f 884 334 340
f 880 876 885
f 885 876 881
f 881 877 886
f 886 877 882
f 882 878 887
f 887 878 883
f 883 879 888
f 888 879 884
f 884 340 889
f 889 340 346
f 885 881 890
f 890 881 886
f 886 882 891
f 891 882 887
f 887 883 892
f 892 883 888
f 888 884 893
f 893 884 889
f 889 346 894
f 894 346 352
f 890 886 895
f 895 886 891
f 891 887 896
f 896 887 892
f 892 888 897
f 897 888 893
f 893 889 898
f 898 889 894
f 894 352 899
f 899 352 358
f 895 891 900
f 900 891 896
f 896 892 901
f 901 892 897
f 897 893 902
f 902 893 898
f 898 894 903
f 903 894 899
f 900 896 904
f 904 896 901
f 901 897 905
f 905 897 902
f 902 898 906
f 906 898 903
f 904 901 907
f 907 901 905
f 905 902 908
f 908 902 906
f 907 905 909
f 909 905 908
f 903 899 910
f 906 903 911
f 911 903 910
f 908 906 912
f 912 906 911
f 909 908 913
f 913 908 912
f 910 899 914
f 899 358 914
f 914 358 915
f 358 353 915
f 915 353 359
f 915 359 916
f 916 359 369
f 914 915 917
f 917 915 916
f 910 914 918
f 918 914 917
f 911 910 919
f 919 910 918
f 912 911 920
f 920 911 919
f 916 369 921
f 921 369 374
f 921 374 385
f 917 916 922
f 922 916 921
f 923 921 385
f 922 921 923
f 923 385 400
f 918 917 924
f 924 917 922
f 919 918 925
f 925 918 924
f 926 922 923
f 924 922 926
f 927 923 400
f 926 923 927
f 927 400 406
f 928 924 926
f 925 924 928
f 929 919 925
f 920 919 929
f 930 927 406
f 930 406 412
f 931 926 927
f 928 926 931
f 931 927 930
f 932 925 928
f 929 925 932
f 933 930 412
f 933 412 418
f 934 931 930
f 934 930 933
f 935 928 931
f 932 928 935
f 935 931 934
f 936 933 418
f 936 418 424
f 937 934 933
f 937 933 936
f 938 935 934
f 938 934 937
f 939 932 935
f 939 935 938
f 940 929 932
f 940 932 939
f 941 936 424
f 941 424 430
f 942 937 936
f 942 936 941
f 943 938 937
f 943 937 942
f 944 939 938
f 944 938 943
f 945 941 430
f 945 430 436
f 946 942 941
f 946 941 945
f 947 943 942
f 947 942 946
f 948 945 436
f 948 436 442
f 949 946 945
f 949 945 948
f 950 948 442
f 950 442 448
f 951 939 944
f 951 940 939
f 952 944 943
f 952 943 947
f 953 947 946
f 953 946 949
f 954 949 948
f 954 948 950
f 955 950 448
f 955 448 454
f 956 951 944
f 956 944 952
f 957 952 947
f 957 947 953
f 958 953 949
f 958 949 954
f 959 954 950
f 959 950 955
f 960 955 454
f 960 454 460
f 961 956 952
f 961 952 957
f 962 957 953
f 962 953 958
f 963 958 954
f 963 954 959
f 964 959 955
f 964 955 960
f 965 960 460
f 965 460 466
f 966 961 957
f 966 957 962
f 967 962 958
f 967 958 963
f 968 963 959
f 968 959 964
f 969 964 960
f 969 960 965
f 970 965 466
f 970 466 472
f 971 966 962
f 971 962 967
f 972 967 963
f 972 963 968
f 973 968 964
f 973 964 969
f 974 969 965
f 974 965 970
f 975 970 472
f 975 472 478
f 976 971 967
f 976 967 972
f 977 972 968
f 977 968 973
f 978 973 969
f 978 969 974
f 979 974 970
f 979 970 975
f 980 975 478
f 980 478 484
f 981 976 972
f 981 972 977
f 982 977 973
f 982 973 978
f 983 978 974
f 983 974 979
f 984 979 975
f 984 975 980
f 985 980 484
f 985 484 490
f 986 981 977
f 986 977 982
f 987 982 978
f 987 978 983
f 988 983 979
f 988 979 984
f 989 984 980
f 989 980 985
f 990 985 490
f 990 490 496
f 991 986 982
f 991 982 987
f 992 987 983
f 992 983 988
f 993 988 984
f 993 984 989
f 994 989 985
f 994 985 990
f 995 990 496
f 995 496 502
f 996 991 987
f 996 987 992
f 997 992 988
f 997 988 993
f 998 993 989
f 998 989 994
f 999 994 990
f 999 990 995
f 1000 995 502
f 1000 502 508
f 576 1000 508
f 1001 995 1000
f 1001 999 995
f 1002 1000 576
f 1002 1001 1000
f 582 1002 576
f 590 1002 582
f 1003 994 999
f 1003 998 994
f 1004 993 998
f 1004 997 993
f 1005 1001 1002
f 590 1005 1002
f 1006 999 1001
f 1006 1003 999
f 1005 1006 1001
f 1007 998 1003
f 1007 1004 998
f 1008 1005 590
f 589 1008 590
f 596 1008 589
f 1009 1006 1005
f 1008 1009 1005
f 1010 1003 1006
f 1010 1007 1003
f 1009 1010 1006
f 596 1011 1008
f 1011 1009 1008
f 611 1011 596
f 1012 1010 1009
f 1011 1012 1009
f 611 1013 1011
f 1013 1012 1011
f 617 1013 611
f 1014 1007 1010
f 1012 1014 1010
f 617 1015 1013
f 623 1015 617
f 1013 1016 1012
f 1016 1014 1012
f 1015 1016 1013
f 1014 1017 1007
f 1017 1004 1007
f 623 1018 1015
f 629 1018 623
f 1016 1019 1014
f 1019 1017 1014
f 1015 1020 1016
f 1018 1020 1015
f 1020 1019 1016
f 1017 1021 1004
f 1021 997 1004
f 629 1022 1018
f 635 1022 629
f 1018 1023 1020
f 1022 1023 1018
f 1020 1024 1019
f 1023 1024 1020
f 1019 1025 1017
f 1025 1021 1017
f 1024 1025 1019
f 1021 1026 997
f 1026 992 997
f 1026 996 992
f 635 1027 1022
f 641 1027 635
f 1022 1028 1023
f 1027 1028 1022
f 1023 1029 1024
f 1028 1029 1023
f 1025 1030 1021
f 1030 1026 1021
f 1024 1031 1025
f 1029 1031 1024
f 1031 1030 1025
f 1032 996 1026
f 1030 1032 1026
f 641 1033 1027
f 647 1033 641
f 1027 1034 1028
f 1033 1034 1027
f 1028 1035 1029
f 1034 1035 1028
f 1029 1036 1031
f 1035 1036 1029
f 1031 1037 1030
f 1037 1032 1030
f 1036 1037 1031
f 1032 1038 996
f 1038 991 996
f 647 1039 1033
f 653 1039 647
f 1033 1040 1034
f 1039 1040 1033
f 1034 1041 1035
f 1040 1041 1034
f 1035 1042 1036
f 1041 1042 1035
f 1036 1043 1037
f 1042 1043 1036
f 1037 1044 1032
f 1043 1044 1037
f 1044 1038 1032
f 653 1045 1039
f 659 1045 653
f 1039 1046 1040
f 1045 1046 1039
f 1040 1047 1041
f 1046 1047 1040
f 1041 1048 1042
f 1047 1048 1041
f 1042 1049 1043
f 1048 1049 1042
f 1043 1050 1044
f 1049 1050 1043
f 1044 1051 1038
f 1050 1051 1044
f 659 1052 1045
f 665 1052 659
f 1045 1053 1046
f 1052 1053 1045
f 1046 1054 1047
f 1053 1054 1046
f 1047 1055 1048
f 1054 1055 1047
f 1048 1056 1049
f 1055 1056 1048
f 1049 1057 1050
f 1056 1057 1049
f 665 1058 1052
f 671 1058 665
f 1052 1059 1053
f 1058 1059 1052
f 1053 1060 1054
f 1059 1060 1053
f 1054 1061 1055
f 1060 1061 1054
f 1055 1062 1056
f 1061 1062 1055
f 671 1063 1058
f 677 1063 671
f 1058 1064 1059
f 1063 1064 1058
f 1059 1065 1060
f 1064 1065 1059
f 1060 1066 1061
f 1065 1066 1060
f 677 1067 1063
f 683 1067 677
f 1063 1068 1064
f 1067 1068 1063
f 1064 1069 1065
f 1068 1069 1064
f 1061 1070 1062
f 1066 1070 1061
f 1065 1071 1066
f 1069 1071 1065
f 1066 1072 1070
f 1071 1072 1066
f 683 1073 1067
f 1067 1074 1068
f 1073 1074 1067
f 1068 1075 1069
f 1074 1075 1068
f 1069 1076 1071
f 1075 1076 1069
f 1071 1077 1072
f 1076 1077 1071
f 1078 1073 683
f 678 1078 683
f 684 1078 678
f 684 1079 1078
f 694 1079 684
f 1078 1080 1073
f 1079 1080 1078
f 1073 1081 1074
f 1080 1081 1073
f 1074 1082 1075
f 1081 1082 1074
f 1075 1083 1076
f 1082 1083 1075
f 694 1084 1079
f 699 1084 694
f 699 710 1084
f 1079 1085 1080
f 1084 1085 1079
f 710 1086 1084
f 1084 1086 1085
f 710 725 1086
f 1080 1087 1081
f 1085 1087 1080
f 1081 1088 1082
f 1087 1088 1081
f 725 1089 1086
f 725 731 1089
f 1086 1090 1085
f 1085 1090 1087
f 1086 1089 1090
f 731 1091 1089
f 731 737 1091
f 1090 1092 1087
f 1087 1092 1088
f 1089 1093 1090
f 1089 1091 1093
f 1090 1093 1092
f 1088 1094 1082
f 1082 1094 1083
f 737 1095 1091
f 737 743 1095
f 1091 1096 1093
f 1091 1095 1096
f 1093 1097 1092
f 1093 1096 1097
f 1092 1098 1088
f 1088 1098 1094
f 1092 1097 1098
f 743 1099 1095
f 743 749 1099
f 1095 1100 1096
f 1095 1099 1100
f 1096 1101 1097
f 1096 1100 1101
f 1097 1102 1098
f 1097 1101 1102
f 1098 1103 1094
f 1098 1102 1103
f 749 1104 1099
f 749 755 1104
f 1099 1105 1100
f 1099 1104 1105
f 1100 1106 1101
f 1100 1105 1106
f 1101 1107 1102
f 1101 1106 1107
f 755 1108 1104
f 755 761 1108
f 1104 1109 1105
f 1104 1108 1109
f 1105 1110 1106
f 1105 1109 1110
f 761 1111 1108
f 761 767 1111
f 1108 1112 1109
f 1108 1111 1112
f 767 1113 1111
f 767 773 1113
f 1102 1107 1114
f 1102 1114 1103
f 1106 1115 1107
f 1106 1110 1115
f 1109 1116 1110
f 1109 1112 1116
f 1111 1117 1112
f 1111 1113 1117
f 773 1118 1113
f 773 779 1118
f 1107 1119 1114
f 1107 1115 1119
f 1110 1120 1115
f 1110 1116 1120
f 1112 1121 1116
f 1112 1117 1121
f 1113 1122 1117
f 1113 1118 1122
f 779 1123 1118
f 779 785 1123
f 1115 1124 1119
f 1115 1120 1124
f 1116 1125 1120
f 1116 1121 1125
f 1117 1126 1121
f 1117 1122 1126
f 1118 1127 1122
f 1118 1123 1127
f 785 1128 1123
f 785 791 1128
f 1120 1129 1124
f 1120 1125 1129
f 1121 1130 1125
f 1121 1126 1130
f 1122 1131 1126
f 1122 1127 1131
f 1123 1132 1127
f 1123 1128 1132
f 791 1133 1128
f 791 797 1133
f 797 854 1133
f 1128 1133 1134
f 1128 1134 1132
f 1127 1132 1135
f 1127 1135 1131
f 1126 1131 1136
f 1126 1136 1130
f 1133 854 1137
f 1133 1137 1134
f 1132 1134 1138
f 1132 1138 1135
f 1131 1135 1139
f 1131 1139 1136
f 854 1140 1137
f 854 848 1140
f 848 853 1140
f 1134 1137 1141
f 1134 1141 1138
f 1135 1138 1142
f 1135 1142 1139
f 1140 853 1143
f 853 855 1143
f 1143 855 864
f 1137 1140 1144
f 1140 1143 1144
f 1137 1144 1141
f 1143 864 1145
f 1144 1143 1145
f 1145 864 875
f 1138 1141 1146
f 1138 1146 1142
f 1141 1144 1147
f 1144 1145 1147
f 1141 1147 1146
f 1145 875 1148
f 1147 1145 1148
f 1148 875 880
f 1146 1147 1149
f 1147 1148 1149
f 1148 880 1150
f 1149 1148 1150
f 1150 880 885
f 1142 1146 1151
f 1146 1149 1151
f 1150 885 1152
f 1152 885 890
f 1149 1150 1153
f 1151 1149 1153
f 1153 1150 1152
f 1142 1151 1154
f 1139 1142 1154
f 1152 890 1155
f 1155 890 895
f 1153 1152 1156
f 1156 1152 1155
f 1151 1153 1157
f 1154 1151 1157
f 1157 1153 1156
f 1139 1154 1158
f 1136 1139 1158
f 1155 895 1159
f 1159 895 900
f 1154 1157 1160
f 1158 1154 1160
f 1157 1156 1161
f 1160 1157 1161
f 1156 1155 1162
f 1162 1155 1159
f 1161 1156 1162
f 1136 1158 1163
f 1130 1136 1163
f 1159 900 1164
f 1164 900 904
f 1158 1160 1165
f 1163 1158 1165
f 1160 1161 1166
f 1165 1160 1166
f 1162 1159 1167
f 1167 1159 1164
f 1161 1162 1168
f 1166 1161 1168
f 1168 1162 1167
f 1130 1163 1169
f 1125 1130 1169
f 1125 1169 1129
f 1164 904 1170
f 1170 904 907
f 1167 1164 1171
f 1171 1164 1170
f 1168 1167 1172
f 1172 1167 1171
f 1166 1168 1173
f 1173 1168 1172
f 1169 1163 1174
f 1163 1165 1174
f 1165 1166 1175
f 1175 1166 1173
f 1174 1165 1175
f 1129 1169 1176
f 1169 1174 1176
f 1170 907 1177
f 1177 907 909
f 1171 1170 1178
f 1178 1170 1177
f 1172 1171 1179
f 1179 1171 1178
f 1173 1172 1180
f 1180 1172 1179
f 1174 1175 1181
f 1176 1174 1181
f 1175 1173 1182
f 1182 1173 1180
f 1181 1175 1182
f 1177 909 1183
f 1183 909 913
f 1178 1177 1184
f 1184 1177 1183
f 1179 1178 1185
f 1185 1178 1184
f 1180 1179 1186
f 1186 1179 1185
f 1182 1180 1187
f 1187 1180 1186
f 1181 1182 1188
f 1188 1182 1187
f 1189 1181 1188
f 1176 1181 1189
f 1190 1176 1189
f 1129 1176 1190
f 1124 1129 1190
f 1124 1190 1191
f 1119 1124 1191
f 1190 1189 1192
f 1191 1190 1192
f 1189 1188 1193
f 1192 1189 1193
f 1188 1187 1194
f 1193 1188 1194
f 1187 1186 1195
f 1194 1187 1195
f 1119 1191 1196
f 1114 1119 1196
f 1191 1192 1197
f 1196 1191 1197
f 1192 1193 1198
f 1197 1192 1198
f 1193 1194 1199
f 1198 1193 1199
f 1114 1196 1200
f 1103 1114 1200
f 1196 1197 1201
f 1200 1196 1201
f 1197 1198 1202
f 1201 1197 1202
f 1103 1200 1203
f 1094 1103 1203
f 1094 1203 1083
f 1200 1201 1204
f 1203 1200 1204
f 1083 1203 1205
f 1203 1204 1205
f 1083 1205 1076
f 1076 1205 1077
f 1204 1201 1206
f 1201 1202 1206
f 1205 1204 1207
f 1205 1207 1077
f 1204 1206 1207
f 1202 1198 1208
f 1198 1199 1208
f 1077 1207 1209
f 1077 1209 1072
f 1207 1206 1210
f 1207 1210 1209
f 1206 1202 1211
f 1202 1208 1211
f 1206 1211 1210
f 1072 1209 1212
f 1072 1212 1070
f 1209 1210 1213
f 1209 1213 1212
f 1210 1211 1214
f 1210 1214 1213
f 1211 1208 1215
f 1211 1215 1214
f 1208 1199 1216
f 1208 1216 1215
f 1070 1212 1217
f 1070 1217 1062
f 1212 1213 1218
f 1212 1218 1217
f 1213 1214 1219
f 1213 1219 1218
f 1214 1215 1220
f 1214 1220 1219
f 1062 1217 1221
f 1062 1221 1056
f 1056 1221 1057
f 1217 1218 1222
f 1217 1222 1221
f 1218 1219 1223
f 1218 1223 1222
f 1221 1224 1057
f 1221 1222 1224
f 1215 1225 1220
f 1215 1216 1225
f 1219 1220 1226
f 1219 1226 1223
f 1222 1223 1227
f 1222 1227 1224
f 1057 1224 1228
f 1057 1228 1050
f 1050 1228 1051
f 1224 1229 1228
f 1224 1227 1229
f 1223 1230 1227
f 1223 1226 1230
f 1220 1231 1226
f 1220 1225 1231
f 1228 1232 1051
f 1228 1229 1232
f 1227 1233 1229
f 1227 1230 1233
f 1226 1234 1230
f 1226 1231 1234
f 1051 1232 1235
f 1051 1235 1038
f 1038 1235 991
f 1235 986 991
f 1235 1236 986
f 1232 1236 1235
f 1236 981 986
f 1229 1237 1232
f 1232 1237 1236
f 1229 1233 1237
f 1236 1238 981
f 1237 1238 1236
f 1238 976 981
f 1233 1239 1237
f 1237 1239 1238
f 1238 1240 976
f 1239 1240 1238
f 1240 971 976
f 1233 1241 1239
f 1230 1241 1233
f 1230 1234 1241
f 1239 1242 1240
f 1241 1242 1239
f 1240 1243 971
f 1242 1243 1240
f 1243 966 971
f 1234 1244 1241
f 1241 1244 1242
f 1243 1245 966
f 1245 961 966
f 1242 1246 1243
f 1244 1246 1242
f 1246 1245 1243
f 1234 1247 1244
f 1231 1247 1234
f 1245 1248 961
f 1248 956 961
f 1244 1249 1246
f 1247 1249 1244
f 1246 1250 1245
f 1250 1248 1245
f 1249 1250 1246
f 1231 1251 1247
f 1225 1251 1231
f 1248 1252 956
f 1252 951 956
f 1247 1253 1249
f 1251 1253 1247
f 1249 1254 1250
f 1253 1254 1249
f 1250 1255 1248
f 1255 1252 1248
f 1254 1255 1250
f 1225 1256 1251
f 1216 1256 1225
f 1252 1257 951
f 1257 940 951
f 1251 1258 1253
f 1256 1258 1251
f 1253 1259 1254
f 1258 1259 1253
f 1255 1260 1252
f 1260 1257 1252
f 1254 1261 1255
f 1259 1261 1254
f 1261 1260 1255
f 1216 1262 1256
f 1199 1262 1216
f 1199 1194 1262
f 1194 1195 1262
f 1262 1263 1256
f 1256 1263 1258
f 1262 1195 1263
f 1258 1264 1259
f 1263 1264 1258
f 1195 1265 1263
f 1263 1265 1264
f 1195 1186 1265
f 1186 1185 1265
f 1265 1185 1266
f 1265 1266 1264
f 1185 1184 1266
f 1264 1267 1259
f 1264 1266 1267
f 1259 1267 1261
f 1266 1184 1268
f 1266 1268 1267
f 1184 1183 1268
f 1267 1269 1261
f 1267 1268 1269
f 1261 1269 1260
f 1268 1183 1270
f 1268 1270 1269
f 1183 913 1270
f 1269 1271 1260
f 1269 1270 1271
f 1260 1271 1257
f 1270 913 1272
f 1270 1272 1271
f 913 912 1272
f 1272 912 920
f 1271 1273 1257
f 1271 1272 1273
f 1272 920 1273
f 1257 1273 940
f 1273 920 929
f 1273 929 940
v -13.43359 0.03991847 139.3376
v 13.88197 0.03991761 139.3618
v -13.43602 0.03991994 142.0714
v 13.87954 0.03991908 142.0957
v -13.43602 -16.03992 142.0714
v 13.87954 -16.03992 142.0957
v -13.43359 -16.03992 139.3376
v 13.88197 -16.03992 139.3618
v -13.43602 0.03991994 142.0714
v 13.87954 0.03991908 142.0957
v -13.43602 -16.03992 142.0714
v 13.87954 -16.03992 142.0957
v -13.43359 -16.03992 139.3376
v -13.43359 0.03991847 139.3376
v 13.88197 0.03991761 139.3618
v 13.88197 -16.03992 139.3618
v 13.88197 0.03991761 139.3618
v 13.87954 0.03991908 142.0957
v 13.87954 -16.03992 142.0957
v 13.88197 -16.03992 139.3618
v -13.43359 -16.03992 139.3376
v -13.43602 -16.03992 142.0714
v -13.43602 0.03991994 142.0714
v -13.43359 0.03991847 139.3376
f 1274 1276 1277
f 1274 1277 1275
f 1282 1278 1279
f 1282 1279 1283
f 1284 1280 1281
f 1284 1281 1285
f 1286 1287 1288
f 1286 1288 1289
f 1290 1291 1292
f 1290 1292 1293
f 1294 1295 1296
f 1294 1296 1297
