v 27 -24 -14
v 35 -24 -14
v 27 -20 -14
v 35 -20 -14
v 35 -24 -35
v 27 -24 -35
v 35 -16 -35
v 27 -14 -35
v 27 -24 -17
v 35 -24 -17
v 27 -24 -14
v 35 -24 -14
v 27 -16 -17
v 27 -24 -17
v 27 -20 -14
v 27 -24 -14
v 35 -24 -17
v 35 -16 -17
v 35 -24 -14
v 35 -20 -14
v 35 -16 -17
v 27 -16 -17
v 35 -20 -14
v 27 -20 -14
v 27 -16 -17
v 35 -16 -17
v 27 -12 -17
v 35 -12 -17
v 35 -12 -35
v 27 -12 -35
v 35 -24 -31
v 35 -16 -31
v 35 -24 -35
v 35 -16 -35
v 13 -14 -35
v 13 -24 -31
v 13 -14 -31
v 13 -24 -35
v 27 -16 -31
v 27 -24 -31
v 35 -12 -31
v 27 -12 -31
v 27 -12 -17
v 35 -12 -17
v 35 -12 -35
v 27 -12 -35
v 27 -24 -31
v 35 -24 -35
v 35 -24 -31
v 27 -24 -35
v 13 -12 -35
v 13 -12 -31
v 27 -12 -31
v 27 -12 -17
v 35 -12 -31
v 35 -12 -17
v 35 -12 -35
v 17 -14 -31
v 27 -16 -31
v 27 -12 -31
v 17 -12 -31
v 13 -14 -17
v 17 -14 -17
v 17 -12 -17
v 13 -12 -17
v 17 -12 -35
v 17 -12 -31
v 13 -12 -35
v 13 -12 -31
v 17 -14 -35
v 17 -12 -35
v 13 -14 -35
v 13 -12 -35
v 17 -24 -35
v 13 -24 -35
v 17 -24 -31
v 27 -24 -31
v 13 -24 -17
v 17 -24 -17
v 17 -24 -31
v 17 -24 -35
v 13 -24 -31
v 13 -24 -35
v 17 -14 -21
v 17 -14 -31
v 17 -12 -31
v 17 -12 -21
v 27 -14 -17
v 27 -14 -21
v 27 -12 -21
v 27 -12 -17
v 13 -14 -21
v 13 -12 -21
v 13 -14 -17
v 13 -12 -17
v 13 -12 -21
v 17 -12 -21
v 13 -12 -17
v 17 -12 -17
v 13 -24 -21
v 17 -24 -21
v 13 -24 -17
v 17 -24 -17
v 27 -24 -17
v 27 -24 -21
v 13 -24 -17
v 13 -24 -21
v 17 -14 -21
v 17 -12 -21
v 27 -14 -21
v 27 -12 -21
v 27 -14 -17
v 27 -12 -21
v 27 -24 -21
v 13 -24 -21
v 13 -14 -21
v 17 -24 -21
v 13 -14 -21
v 13 -14 -31
v 17 -14 -21
v 17 -14 -31
v 13 -14 -31
v 13 -24 -31
v 13 -24 -31
v 13 -24 -21
v 17 -24 -31
v 17 -24 -21
v 17 -14 -17
v 17 -24 -17
v 17 -24 -21
v 27 -14 -17
v 17 -14 -17
v 27 -14 -21
v 17 -24 -17
v 27 -24 -17
v 27 -24 -21
v 27 -14 -17
v 27 -24 -21
v 27 -14 -21
f 1 2 3
f 2 4 3
f 5 6 7
f 6 8 7
f 9 10 11
f 10 12 11
f 13 14 15
f 14 16 15
f 17 18 19
f 18 20 19
f 21 22 23
f 22 24 23
f 25 26 27
f 26 28 27
f 7 8 29
f 8 30 29
f 17 31 32
f 18 17 32
f 31 33 34
f 32 31 34
f 35 36 37
f 35 38 36
f 39 14 13
f 39 40 14
f 41 42 43
f 44 41 43
f 45 46 42
f 41 45 42
f 47 48 49
f 47 50 48
f 9 49 10
f 9 47 49
f 51 37 52
f 51 35 37
f 53 13 54
f 53 39 13
f 18 32 55
f 56 18 55
f 32 34 57
f 55 32 57
f 58 59 60
f 61 58 60
f 62 63 64
f 65 62 64
f 46 66 67
f 42 46 67
f 66 68 69
f 67 66 69
f 30 70 71
f 30 8 70
f 71 72 73
f 71 70 72
f 8 74 70
f 8 6 74
f 70 75 72
f 70 74 75
f 76 77 59
f 58 76 59
f 78 79 63
f 62 78 63
f 80 50 47
f 80 81 50
f 82 81 80
f 82 83 81
f 84 85 86
f 87 84 86
f 88 89 90
f 91 88 90
f 52 92 93
f 52 37 92
f 93 94 95
f 93 92 94
f 67 69 96
f 97 67 96
f 97 96 98
f 99 97 98
f 100 80 101
f 100 82 80
f 102 101 103
f 102 100 101
f 104 105 89
f 88 104 89
f 92 106 94
f 92 107 106
f 108 109 110
f 109 111 110
f 64 63 27
f 63 112 27
f 97 99 113
f 99 43 113
f 103 101 9
f 101 114 9
f 115 116 117
f 116 108 117
f 118 119 120
f 119 121 120
f 122 123 58
f 123 76 58
f 124 125 126
f 125 127 126
f 128 129 84
f 129 130 84
f 131 132 133
f 132 120 133
f 134 135 127
f 135 136 127
f 14 137 138
f 137 139 138
v -22 -2.5 -22.5
v -24.5 -2.5 -22.5
v -24.5 -2.5 -20
v -22 -2.5 -20
v -24.5 -23 -20
v -22 -23 -22.5
v -22 -23 -20
v -24.5 -23 -22.5
v -32 -2.5 -22.5
v -32 -2.5 -20
v -32 -5 -22.5
v -37 -5 -22.5
v -37 -5 -20
v -32 -5 -20
v -32 -23 -20
v -32 -23 -22.5
v -37 -23 -20
v -37 -23 -22.5
v -22 -5 -35
v -24.5 -5 -35
v -24.5 -5 -30
v -22 -5 -30
v -22 -2.5 -30
v -24.5 -2.5 -30
v -24.5 -23 -30
v -22 -23 -35
v -22 -23 -30
v -24.5 -23 -35
v -32 -5 -35
v -32 -5 -30
v -24.5 -5 -22.5
v -37 -5 -35
v -37 -5 -30
v -32 -23 -30
v -32 -23 -35
v -37 -23 -30
v -37 -23 -35
v -22 -5 -30
v -24.5 -5 -30
v -22 -2.5 -30
v -24.5 -2.5 -30
v -24.5 -5 -30
v -24.5 -5 -22.5
v -24.5 -2.5 -30
v -24.5 -2.5 -22.5
v -22 -5 -22.5
v -22 -5 -30
v -22 -2.5 -22.5
v -22 -2.5 -30
v -32 -5 -20
v -24.5 -5 -20
v -32 -2.5 -20
v -24.5 -2.5 -20
v -22 -5 -20
v -22 -2.5 -20
v -22 -5 -20
v -22 -2.5 -20
v -24.5 -5 -22.5
v -32 -5 -22.5
v -24.5 -2.5 -22.5
v -32 -2.5 -22.5
v -32 -5 -22.5
v -32 -5 -20
v -32 -2.5 -22.5
v -32 -2.5 -20
v -22 -14 -20
v -22 -14 -22.5
v -37 -5 -22.5
v -37 -14 -20
v -37 -5 -20
v -37 -14 -22.5
v -24.5 -14 -20
v -22 -14 -20
v -22 -5 -35
v -24.5 -14 -35
v -24.5 -5 -35
v -22 -14 -35
v -37 -14 -20
v -32 -14 -20
v -37 -5 -20
v -32 -5 -35
v -37 -14 -35
v -37 -5 -35
v -32 -14 -35
v -22 -14 -30
v -22 -14 -35
v -22 -5 -35
v -37 -5 -30
v -37 -14 -30
v -37 -5 -35
v -37 -14 -35
v -19 -23 -17
v -19 -23 -22.5
v -22 -14 -30
v -22 -14 -22.5
v -19 -14 -30
v -19 -14 -22.5
v -22 -14 -20
v -19 -14 -17
v -19 -23 -30
v -24.5 -23 -17
v -24.5 -14 -20
v -24.5 -14 -17
v -32 -23 -17
v -32 -14 -20
v -32 -14 -17
v -19 -17.5 -17
v -19 -17.5 -22.5
v -19 -14 -22.5
v -19 -14 -17
v -37 -17.5 -20
v -37 -17.5 -22.5
v -24.5 -17.5 -17
v -19 -17.5 -17
v -19 -14 -17
v -24.5 -14 -17
v -24.5 -17.5 -35
v -22 -17.5 -35
v -37 -17.5 -20
v -32 -17.5 -20
v -32 -17.5 -17
v -32 -14 -17
v -37 -17.5 -35
v -32 -17.5 -35
v -19 -17.5 -30
v -19 -14 -30
v -22 -17.5 -30
v -22 -17.5 -35
v -37 -17.5 -30
v -37 -17.5 -35
v -32 -14 -20
v -32 -17.5 -17
v -32 -14 -17
v -32 -17.5 -20
v -19 -14 -30
v -22 -17.5 -30
v -22 -14 -30
v -19 -17.5 -30
v -32 -23 -16.5
v -24.5 -23 -16.5
v -18.5 -23 -16.5
v -18.5 -23 -22.5
v -18.5 -23 -30
v -17 -19.5 -15
v -17 -19.5 -22.5
v -19 -17.5 -22.5
v -19 -17.5 -17
v -37 -19.5 -20
v -37 -19.5 -22.5
v -24.5 -19.5 -15
v -17 -19.5 -15
v -19 -17.5 -17
v -24.5 -17.5 -17
v -24.5 -19.5 -35
v -22 -19.5 -35
v -37 -19.5 -20
v -32 -19.5 -20
v -32 -19.5 -15
v -32 -17.5 -17
v -37 -19.5 -35
v -32 -19.5 -35
v -17 -19.5 -30
v -19 -17.5 -30
v -22 -19.5 -30
v -22 -19.5 -35
v -37 -19.5 -30
v -37 -19.5 -35
v -32 -19.5 -17
v -32 -19.5 -20
v -22 -19.5 -30
v -19 -19.5 -30
v -32 -19.5 -15
v -17 -19.5 -30
v -18.5 -23 -16.5
v -18.5 -23 -22.5
v -17 -20 -22.5
v -17 -20 -15
v -17 -20 -15
v -17 -20 -22.5
v -17 -19.5 -22.5
v -17 -19.5 -15
v -37 -20 -22.5
v -37 -23 -20
v -37 -20 -20
v -37 -23 -22.5
v -24.5 -23 -16.5
v -18.5 -23 -16.5
v -17 -20 -15
v -24.5 -20 -15
v -24.5 -20 -15
v -17 -20 -15
v -17 -19.5 -15
v -24.5 -19.5 -15
v -22 -20 -35
v -24.5 -23 -35
v -24.5 -20 -35
v -22 -23 -35
v -37 -23 -20
v -32 -23 -20
v -32 -20 -20
v -37 -20 -20
v -32 -23 -16.5
v -32 -20 -15
v -32 -20 -15
v -32 -19.5 -15
v -32 -20 -35
v -37 -23 -35
v -37 -20 -35
v -32 -23 -35
v -18.5 -23 -30
v -17 -20 -30
v -17 -20 -30
v -17 -19.5 -30
v -22 -23 -30
v -22 -23 -35
v -22 -20 -35
v -22 -20 -30
v -37 -20 -30
v -37 -23 -30
v -37 -20 -35
v -37 -23 -35
v -32 -20 -20
v -32 -23 -17
v -32 -20 -17
v -32 -23 -20
v -19 -20 -30
v -22 -23 -30
v -22 -20 -30
v -19 -23 -30
v -32 -23 -16.5
v -32 -20 -15
v -17 -20 -30
v -18.5 -23 -30
f 140 141 142
f 143 140 142
f 144 145 146
f 144 147 145
f 141 148 149
f 142 141 149
f 150 151 152
f 153 150 152
f 154 147 144
f 154 155 147
f 156 155 154
f 156 157 155
f 158 159 160
f 161 158 160
f 162 163 141
f 140 162 141
f 164 165 166
f 164 167 165
f 147 166 145
f 147 164 166
f 159 168 169
f 160 159 169
f 160 169 150
f 170 160 150
f 168 171 172
f 169 168 172
f 169 172 151
f 150 169 151
f 173 167 164
f 173 174 167
f 155 164 147
f 155 173 164
f 175 174 173
f 175 176 174
f 157 173 155
f 157 175 173
f 177 178 179
f 178 180 179
f 181 182 183
f 182 184 183
f 185 186 187
f 186 188 187
f 189 190 191
f 190 192 191
f 193 185 194
f 185 187 194
f 190 195 192
f 195 196 192
f 197 198 199
f 198 200 199
f 201 202 203
f 202 204 203
f 205 206 185
f 193 205 185
f 207 208 209
f 207 210 208
f 211 212 195
f 190 211 195
f 213 214 215
f 213 216 214
f 217 218 189
f 219 217 189
f 218 211 190
f 189 218 190
f 220 221 222
f 220 223 221
f 215 223 220
f 215 214 223
f 206 224 186
f 185 206 186
f 224 225 226
f 186 224 226
f 227 210 207
f 227 228 210
f 229 228 227
f 229 230 228
f 146 145 231
f 145 232 231
f 233 234 235
f 234 236 235
f 234 237 236
f 237 238 236
f 145 166 232
f 166 239 232
f 144 146 240
f 146 231 240
f 237 241 238
f 241 242 238
f 154 144 243
f 144 240 243
f 241 244 242
f 244 245 242
f 246 247 248
f 249 246 248
f 210 250 208
f 210 251 250
f 252 253 254
f 255 252 254
f 216 256 214
f 216 257 256
f 258 259 218
f 217 258 218
f 260 252 255
f 261 260 255
f 223 262 221
f 223 263 262
f 214 263 223
f 214 256 263
f 247 264 265
f 248 247 265
f 266 267 225
f 224 266 225
f 228 251 210
f 228 268 251
f 230 268 228
f 230 269 268
f 270 271 272
f 270 273 271
f 274 275 276
f 274 277 275
f 243 240 278
f 240 279 278
f 240 231 279
f 231 280 279
f 231 232 280
f 232 281 280
f 232 239 281
f 239 282 281
f 283 284 285
f 286 283 285
f 251 287 250
f 251 288 287
f 289 290 291
f 292 289 291
f 257 293 256
f 257 294 293
f 295 296 259
f 258 295 259
f 297 289 292
f 298 297 292
f 263 299 262
f 263 300 299
f 256 300 263
f 256 293 300
f 284 301 302
f 285 284 302
f 303 304 267
f 266 303 267
f 268 288 251
f 268 305 288
f 269 305 268
f 269 306 305
f 273 307 271
f 273 308 307
f 277 309 275
f 277 310 309
f 271 307 311
f 277 312 310
f 313 314 315
f 316 313 315
f 317 318 319
f 320 317 319
f 321 322 323
f 321 324 322
f 288 323 287
f 288 321 323
f 325 326 327
f 328 325 327
f 329 330 331
f 332 329 331
f 333 334 335
f 333 336 334
f 294 335 293
f 294 333 335
f 337 338 339
f 340 337 339
f 340 339 296
f 295 340 296
f 341 325 328
f 342 341 328
f 343 329 332
f 344 343 332
f 345 346 347
f 345 348 346
f 300 347 299
f 300 345 347
f 335 348 345
f 335 334 348
f 293 345 300
f 293 335 345
f 314 349 350
f 315 314 350
f 318 351 352
f 319 318 352
f 353 354 355
f 356 353 355
f 356 355 304
f 303 356 304
f 357 324 321
f 357 358 324
f 305 321 288
f 305 357 321
f 359 358 357
f 359 360 358
f 306 357 305
f 306 359 357
f 361 362 363
f 361 364 362
f 308 363 307
f 308 361 363
f 365 366 367
f 365 368 366
f 310 367 309
f 310 365 367
f 363 369 370
f 363 362 369
f 307 370 311
f 307 363 370
f 371 368 365
f 371 372 368
f 312 365 310
f 312 371 365
v 25.5 -6 22
v 25.49983 -6 23
v 25.5 -3.5 22
v 25.49983 -3.5 23
v 25.49983 -6 23
v 27.99983 -6 23.00043
v 25.49983 -3.5 23
v 27.99983 -3.5 23.00043
v 27.99983 -6 23.00043
v 28 -6 22.00043
v 27.99983 -3.5 23.00043
v 28 -3.5 22.00043
v 28 -6 22.00043
v 25.5 -6 22
v 28 -3.5 22.00043
v 25.5 -3.5 22
v 25.5 -3.5 22
v 25.49983 -3.5 23
v 28 -3.5 22.00043
v 27.99983 -3.5 23.00043
v 28 -6 22.00043
v 27.99983 -6 23.00043
v 25.5 -6 22
v 25.49983 -6 23
f 373 374 375
f 374 376 375
f 377 378 379
f 378 380 379
f 381 382 383
f 382 384 383
f 385 386 387
f 386 388 387
f 389 390 391
f 390 392 391
f 393 394 395
f 394 396 395
v -2.222337 -15.0391 33.18821
v -1.156177 -12.09206 37.08414
v -2.455136 -13.82734 32.3353
v -1.388975 -10.8803 36.23122
v -1.156177 -12.09206 37.08414
v 1.255314 -12.09285 36.4248
v -1.388975 -10.8803 36.23122
v 1.022208 -10.88071 35.57168
v 1.255314 -12.09285 36.4248
v 0.1891527 -15.03989 32.52888
v 1.022208 -10.88071 35.57168
v -0.04395274 -13.82775 31.67575
v 0.1891527 -15.03989 32.52888
v -2.222337 -15.0391 33.18821
v -0.04395274 -13.82775 31.67575
v -2.455136 -13.82734 32.3353
v -2.455136 -13.82734 32.3353
v -1.388975 -10.8803 36.23122
v -0.04395274 -13.82775 31.67575
v 1.022208 -10.88071 35.57168
v 0.1891527 -15.03989 32.52888
v 1.255314 -12.09285 36.4248
v -2.222337 -15.0391 33.18821
v -1.156177 -12.09206 37.08414
f 397 398 399
f 398 400 399
f 401 402 403
f 402 404 403
f 405 406 407
f 406 408 407
f 409 410 411
f 410 412 411
f 413 414 415
f 414 416 415
f 417 418 419
f 418 420 419
v -37 -15 32
v -32 -15 32
v -37 -12.5 32
v -32 -12.5 32
v -32 -15 32
v -32 -15 27
v -32 -12.5 32
v -32 -12.5 27
v -32 -15 27
v -37 -15 27
v -32 -12.5 27
v -37 -12.5 27
v -37 -15 27
v -37 -15 32
v -37 -12.5 27
v -37 -12.5 32
v -37 -12.5 32
v -32 -12.5 32
v -37 -12.5 27
v -32 -12.5 27
v -37 -15 27
v -32 -15 27
v -37 -15 32
v -32 -15 32
f 421 422 423
f 422 424 423
f 425 426 427
f 426 428 427
f 429 430 431
f 430 432 431
f 433 434 435
f 434 436 435
f 437 438 439
f 438 440 439
f 441 442 443
f 442 444 443
v -37 -15 37
v -32 -15 37
v -37 -10 37
v -32 -10 37
v -32 -15 37
v -32 -15 32
v -32 -10 37
v -32 -10 32
v -32 -15 32
v -37 -15 32
v -32 -10 32
v -37 -10 32
v -37 -15 32
v -37 -15 37
v -37 -10 32
v -37 -10 37
v -37 -10 37
v -32 -10 37
v -37 -10 32
v -32 -10 32
v -37 -15 32
v -32 -15 32
v -37 -15 37
v -32 -15 37
f 445 446 447
f 446 448 447
f 449 450 451
f 450 452 451
f 453 454 455
f 454 456 455
f 457 458 459
f 458 460 459
f 461 462 463
f 462 464 463
f 465 466 467
f 466 468 467
v -23.5 -15 30
v -30 -15 30
v -30 -15 37
v -23.5 -15 37
v -37 -15 30
v -37 -15 37
v -25.5 -15 25.5
v -30 -15 23.5
v -37 -15 23.5
v -30 -22.5 30
v -25.5 -22.5 25.5
v -23.5 -22.5 30
v -30 -22.5 23.5
v -37 -22.5 30
v -37 -22.5 23.5
v -30 -22.5 37
v -23.5 -22.5 37
v -37 -22.5 37
v -15 -22.5 37
v -15 -22.5 30
v -23.5 -15 30
v -23.5 -15 37
v -15 -20 30
v -15 -20 37
v -37 -15 23.5
v -30 -15 23.5
v -37 -20 15
v -30 -20 15
v -30 -22.5 15
v -37 -22.5 15
v -15 -22.5 37
v -15 -22.5 30
v -15 -21.25 30
v -15 -21.25 37
v -15 -20 30
v -15 -20 37
v -23.5 -22.5 36
v -32 -22.5 32
v -32 -16.5 32
v -23.5 -16.5 36
v -23.5 -16.5 30
v -25.5 -16.5 25.5
v -25.5 -15 25.5
v -23.5 -15 30
v -37 -18.75 23.5
v -37 -22.5 30
v -37 -18.75 30
v -37 -22.5 23.5
v -37 -15 23.5
v -37 -15 30
v -37 -22.5 37
v -37 -18.75 37
v -37 -15 37
v -37 -22.5 37
v -30 -22.5 37
v -30 -18.75 37
v -37 -18.75 37
v -30 -15 37
v -37 -15 37
v -23.5 -22.5 37
v -23.5 -18.75 37
v -23.5 -15 37
v -32 -16.5 32
v -36 -22.5 23.5
v -36 -16.5 23.5
v -32 -22.5 32
v -25.5 -15 25.5
v -30 -16.5 23.5
v -30 -15 23.5
v -25.5 -16.5 25.5
v -30 -21.25 15
v -37 -22.5 15
v -37 -21.25 15
v -30 -22.5 15
v -30 -20 15
v -37 -20 15
v -15 -21.25 30
v -23.5 -22.5 30
v -23.5 -16.5 30
v -15 -22.5 30
v -15 -20 30
v -23.5 -15 30
v -15 -21.25 37
v -15 -20 37
v -15 -22.5 37
v -37 -21.25 15
v -37 -22.5 15
v -37 -20 15
v -30 -21.25 15
v -30 -20 15
v -30 -16.5 23.5
v -30 -15 23.5
v -30 -22.5 23.5
v -30 -22.5 15
v -23.5 -22.5 30
v -25.5 -22.5 25.5
v -23.5 -22.5 36
v -32 -22.5 32
v -30 -22.5 23.5
v -36 -22.5 23.5
v -23.5 -16.5 30
v -23.5 -22.5 30
v -23.5 -16.5 36
v -23.5 -22.5 36
v -25.5 -16.5 25.5
v -23.5 -16.5 30
v -32 -16.5 32
v -23.5 -16.5 36
v -30 -22.5 23.5
v -30 -16.5 23.5
v -36 -22.5 23.5
v -36 -16.5 23.5
v -30 -16.5 23.5
v -36 -16.5 23.5
f 469 470 471
f 472 469 471
f 470 473 474
f 471 470 474
f 475 476 470
f 469 475 470
f 476 477 473
f 470 476 473
f 478 479 480
f 478 481 479
f 482 481 478
f 482 483 481
f 484 480 485
f 484 478 480
f 486 478 484
f 486 482 478
f 485 480 487
f 480 488 487
f 489 490 491
f 490 492 491
f 493 494 495
f 494 496 495
f 481 483 497
f 483 498 497
f 499 500 501
f 502 499 501
f 502 501 503
f 504 502 503
f 505 506 507
f 508 505 507
f 509 510 511
f 512 509 511
f 513 514 515
f 513 516 514
f 517 515 518
f 517 513 515
f 515 519 520
f 515 514 519
f 518 520 521
f 518 515 520
f 522 523 524
f 525 522 524
f 525 524 526
f 527 525 526
f 523 528 529
f 524 523 529
f 524 529 530
f 526 524 530
f 531 532 533
f 531 534 532
f 535 536 537
f 535 538 536
f 539 540 541
f 539 542 540
f 543 541 544
f 543 539 541
f 545 546 547
f 545 548 546
f 549 547 550
f 547 549 545
f 551 552 529
f 530 529 552
f 528 553 551
f 529 528 551
f 554 516 513
f 554 555 516
f 556 513 517
f 513 556 554
f 557 558 559
f 560 559 558
f 561 562 557
f 559 561 557
f 563 564 565
f 564 566 565
f 564 567 566
f 567 568 566
f 569 570 571
f 570 572 571
f 573 574 575
f 574 576 575
f 577 578 579
f 578 580 579
f 581 573 582
f 573 575 582
v 0.7071068 -16.5 0.7071068
v 0 -16.5 0
v 1 -16.5 0
v 0 -16.5 1
v -0.7071068 -16.5 0.7071068
v -1 -16.5 -8.742278E-08
v -0.7071068 -16.5 -0.7071067
v 0 -16.5 -1
v 0.7071066 -16.5 -0.7071069
v 1 -12 0
v 0 -12 0
v 0.7071068 -12 0.7071068
v 0 -12 1
v -0.7071068 -12 0.7071068
v -1 -12 -8.940697E-08
v -0.7071068 -12 -0.7071067
v 0 -12 -1
v 0.7071066 -12 -0.7071069
v 0.7071068 -14 0.7071068
v 1 -14 0
v 0.7071068 -12 0.7071068
v 1 -12 0
v 0 -14 1
v 0.7071068 -14 0.7071068
v 0 -12 1
v 0.7071068 -12 0.7071068
v -0.7071068 -14 0.7071068
v 0 -14 1
v -0.7071068 -12 0.7071068
v 0 -12 1
v -1 -12 -8.940697E-08
v -0.7071068 -14 0.7071068
v -0.7071068 -12 0.7071068
v -1 -14 -8.940697E-08
v -0.7071068 -12 -0.7071067
v -1 -14 -8.940697E-08
v -1 -12 -8.940697E-08
v -0.7071068 -14 -0.7071067
v -0.7071068 -12 -0.7071067
v 0 -12 -1
v 0 -14 -1
v -0.7071068 -14 -0.7071067
v 0.7071066 -12 -0.7071069
v 0 -14 -1
v 0 -12 -1
v 0.7071066 -14 -0.7071069
v 1 -14 0
v 0.7071066 -14 -0.7071069
v 0.7071066 -12 -0.7071069
v 1 -12 0
v 0.7071068 -16.5 0.7071068
v 1 -16.5 0
v 1 -16 0
v 0.7071068 -16 0.7071068
v 0.1330816 -16 0.1330817
v 0.1882058 -16 5.960464E-08
v 0.1882058 -14 5.960464E-08
v 0.1330816 -14 0.1330817
v 0 -16.5 1
v 0.7071068 -16.5 0.7071068
v 0 -16 1
v 0.7071068 -16 0.7071068
v -1.490116E-08 -16 0.1882058
v 0.1330816 -16 0.1330817
v 0.1330816 -14 0.1330817
v -1.490116E-08 -14 0.1882058
v -0.7071068 -16.5 0.7071068
v 0 -16.5 1
v -0.7071068 -16 0.7071068
v 0 -16 1
v -0.1330817 -16 0.1330817
v -1.490116E-08 -16 0.1882058
v -1.490116E-08 -14 0.1882058
v -0.1330817 -14 0.1330817
v -1 -16 -8.940697E-08
v -0.7071068 -16.5 0.7071068
v -0.7071068 -16 0.7071068
v -1 -16.5 -8.742278E-08
v -0.188206 -14 -2.980232E-08
v -0.1330817 -16 0.1330817
v -0.1330817 -14 0.1330817
v -0.188206 -16 -2.980232E-08
v -1 -16 -8.940697E-08
v -0.7071068 -16 -0.7071067
v -0.7071068 -16.5 -0.7071067
v -1 -16.5 -8.742278E-08
v -0.188206 -14 -2.980232E-08
v -0.1330817 -14 -0.1330816
v -0.1330817 -16 -0.1330816
v -0.188206 -16 -2.980232E-08
v 5.960464E-08 -14 -0.1882058
v -0.1330817 -16 -0.1330816
v -0.1330817 -14 -0.1330816
v 5.960464E-08 -16 -0.1882058
v 0 -16 -1
v -0.7071068 -16.5 -0.7071067
v -0.7071068 -16 -0.7071067
v 0 -16.5 -1
v 0.7071066 -16 -0.7071069
v 0 -16.5 -1
v 0 -16 -1
v 0.7071066 -16.5 -0.7071069
v 0.1330816 -14 -0.1330817
v 5.960464E-08 -16 -0.1882058
v 5.960464E-08 -14 -0.1882058
v 0.1330816 -16 -0.1330817
v 1 -16.5 0
v 0.7071066 -16.5 -0.7071069
v 0.7071066 -16 -0.7071069
v 1 -16 0
v 0.1882058 -16 5.960464E-08
v 0.1330816 -16 -0.1330817
v 0.1330816 -14 -0.1330817
v 0.1882058 -14 5.960464E-08
v 1 -16 0
v 0.7071066 -16 -0.7071069
v 0.1882058 -16 5.960464E-08
v 0.1330816 -16 -0.1330817
v 0 -16 -1
v 5.960464E-08 -16 -0.1882058
v 0.7071066 -14 -0.7071069
v 1 -14 0
v 0.1330816 -14 -0.1330817
v 0.1882058 -14 5.960464E-08
v -0.7071068 -16 -0.7071067
v -0.1330817 -16 -0.1330816
v 0 -14 -1
v 5.960464E-08 -14 -0.1882058
v -1 -16 -8.940697E-08
v -0.188206 -16 -2.980232E-08
v -0.7071068 -14 -0.7071067
v -0.1330817 -14 -0.1330816
v -1 -14 -8.940697E-08
v -0.188206 -14 -2.980232E-08
v -0.7071068 -16 0.7071068
v -0.1330817 -16 0.1330817
v 0 -14 1
v -0.7071068 -14 0.7071068
v -1.490116E-08 -14 0.1882058
v -0.1330817 -14 0.1330817
v 0 -16 1
v -1.490116E-08 -16 0.1882058
v 0.7071068 -14 0.7071068
v 0.1330816 -14 0.1330817
v 0.7071068 -16 0.7071068
v 0.1330816 -16 0.1330817
f 583 584 585
f 586 584 583
f 587 584 586
f 588 584 587
f 589 584 588
f 590 584 589
f 591 584 590
f 585 584 591
f 592 593 594
f 594 593 595
f 595 593 596
f 596 593 597
f 597 593 598
f 598 593 599
f 599 593 600
f 600 593 592
f 601 602 603
f 602 604 603
f 605 606 607
f 606 608 607
f 609 610 611
f 610 612 611
f 613 614 615
f 613 616 614
f 617 618 619
f 617 620 618
f 621 622 623
f 621 623 624
f 625 626 627
f 625 628 626
f 629 630 631
f 632 629 631
f 633 634 635
f 636 633 635
f 637 638 639
f 640 637 639
f 641 642 643
f 642 644 643
f 645 646 647
f 648 645 647
f 649 650 651
f 650 652 651
f 653 654 655
f 656 653 655
f 657 658 659
f 657 660 658
f 661 662 663
f 661 664 662
f 665 666 667
f 665 667 668
f 669 670 671
f 669 671 672
f 673 674 675
f 673 676 674
f 677 678 679
f 677 680 678
f 681 682 683
f 681 684 682
f 685 686 687
f 685 688 686
f 689 690 691
f 692 689 691
f 693 694 695
f 696 693 695
f 697 698 699
f 698 700 699
f 698 701 700
f 701 702 700
f 703 704 705
f 704 706 705
f 701 707 702
f 707 708 702
f 709 703 710
f 703 705 710
f 707 711 708
f 711 712 708
f 713 709 714
f 709 710 714
f 715 713 716
f 713 714 716
f 711 717 712
f 717 718 712
f 719 720 721
f 720 722 721
f 720 715 722
f 715 716 722
f 717 723 718
f 723 724 718
f 725 719 726
f 719 721 726
f 723 727 724
f 727 728 724
f 704 725 706
f 725 726 706
f 727 697 728
f 697 699 728
v 20 -6 25.5
v 21 -6 25.5
v 20 -3.5 25.5
v 21 -3.5 25.5
v 21 -6 25.5
v 21 -6 23
v 21 -3.5 25.5
v 21 -3.5 23
v 21 -6 23
v 20 -6 23
v 21 -3.5 23
v 20 -3.5 23
v 20 -6 23
v 20 -6 25.5
v 20 -3.5 23
v 20 -3.5 25.5
v 20 -3.5 25.5
v 21 -3.5 25.5
v 20 -3.5 23
v 21 -3.5 23
v 20 -6 23
v 21 -6 23
v 20 -6 25.5
v 21 -6 25.5
f 729 730 731
f 730 732 731
f 733 734 735
f 734 736 735
f 737 738 739
f 738 740 739
f 741 742 743
f 742 744 743
f 745 746 747
f 746 748 747
f 749 750 751
f 750 752 751
v -2 -17.49993 31.49
v 5.5 -17.49993 31.49
v -2 -17.50007 29.99
v 5.5 -17.50007 29.99
v 5.5 -17.49993 31.49
v 5.5 -19.99993 31.49024
v 5.5 -17.50007 29.99
v 5.5 -19.99983 29.98976
v 5.5 -19.99993 31.49024
v -2 -19.99993 31.49024
v 5.5 -19.99983 29.98976
v -2 -19.99983 29.98976
v -2 -19.99993 31.49024
v -2 -17.49993 31.49
v -2 -19.99983 29.98976
v -2 -17.50007 29.99
v -2 -17.50007 29.99
v 5.5 -17.50007 29.99
v -2 -19.99983 29.98976
v 5.5 -19.99983 29.98976
v -2 -19.99993 31.49024
v 5.5 -19.99993 31.49024
v -2 -17.49993 31.49
v 5.5 -17.49993 31.49
f 753 754 755
f 754 756 755
f 757 758 759
f 758 760 759
f 761 762 763
f 762 764 763
f 765 766 767
f 766 768 767
f 769 770 771
f 770 772 771
f 773 774 775
f 774 776 775
v -32 -15 37
v -27 -15 37
v -32 -7.5 37
v -27 -7.5 37
v -27 -15 37
v -27 -15 32
v -27 -7.5 37
v -27 -7.5 32
v -27 -15 32
v -32 -15 32
v -27 -7.5 32
v -32 -7.5 32
v -32 -15 32
v -32 -15 37
v -32 -7.5 32
v -32 -7.5 37
v -32 -7.5 37
v -27 -7.5 37
v -32 -7.5 32
v -27 -7.5 32
v -32 -15 32
v -27 -15 32
v -32 -15 37
v -27 -15 37
f 777 778 779
f 778 780 779
f 781 782 783
f 782 784 783
f 785 786 787
f 786 788 787
f 789 790 791
f 790 792 791
f 793 794 795
f 794 796 795
f 797 798 799
f 798 800 799
v -7.5 -20.00704 -30.74283
v -2.5 -20.00704 -30.74283
v -7.5 -18.94629 -29.68226
v -2.5 -18.94629 -29.68226
v -2.5 -20.00704 -30.74283
v -2.5 -15.76477 -34.98584
v -2.5 -18.94629 -29.68226
v -2.5 -14.70402 -33.92527
v -2.5 -15.76477 -34.98584
v -7.5 -15.76477 -34.98584
v -2.5 -14.70402 -33.92527
v -7.5 -14.70402 -33.92527
v -7.5 -15.76477 -34.98584
v -7.5 -20.00704 -30.74283
v -7.5 -14.70402 -33.92527
v -7.5 -18.94629 -29.68226
v -7.5 -18.94629 -29.68226
v -2.5 -18.94629 -29.68226
v -7.5 -14.70402 -33.92527
v -2.5 -14.70402 -33.92527
v -7.5 -15.76477 -34.98584
v -2.5 -15.76477 -34.98584
v -7.5 -20.00704 -30.74283
v -2.5 -20.00704 -30.74283
f 801 802 803
f 802 804 803
f 805 806 807
f 806 808 807
f 809 810 811
f 810 812 811
f 813 814 815
f 814 816 815
f 817 818 819
f 818 820 819
f 821 822 823
f 822 824 823
v -2.531685 -17.5 37.0005
v 2.465804 -17.5 36.84208
v -2.579213 -17.5 35.50126
v 2.418277 -17.5 35.34283
v 2.465804 -17.5 36.84208
v 2.465804 -20 36.84208
v 2.418277 -17.5 35.34283
v 2.418262 -19.99976 35.34235
v 2.465804 -20 36.84208
v -2.531685 -20 37.0005
v 2.418262 -19.99976 35.34235
v -2.579228 -19.99976 35.50077
v -2.531685 -20 37.0005
v -2.531685 -17.5 37.0005
v -2.579228 -19.99976 35.50077
v -2.579213 -17.5 35.50126
v -2.579213 -17.5 35.50126
v 2.418277 -17.5 35.34283
v -2.579228 -19.99976 35.50077
v 2.418262 -19.99976 35.34235
v -2.531685 -20 37.0005
v 2.465804 -20 36.84208
v -2.531685 -17.5 37.0005
v 2.465804 -17.5 36.84208
f 825 826 827
f 826 828 827
f 829 830 831
f 830 832 831
f 833 834 835
f 834 836 835
f 837 838 839
f 838 840 839
f 841 842 843
f 842 844 843
f 845 846 847
f 846 848 847
v 20 -6 37
v 21 -6 37
v 20 -3.5 37
v 21 -3.5 37
v 21 -6 37
v 21 -6 34.5
v 21 -3.5 37
v 21 -3.5 34.5
v 21 -6 34.5
v 20 -6 34.5
v 21 -3.5 34.5
v 20 -3.5 34.5
v 20 -6 34.5
v 20 -6 37
v 20 -3.5 34.5
v 20 -3.5 37
v 20 -3.5 37
v 21 -3.5 37
v 20 -3.5 34.5
v 21 -3.5 34.5
v 20 -6 34.5
v 21 -6 34.5
v 20 -6 37
v 21 -6 37
f 849 850 851
f 850 852 851
f 853 854 855
f 854 856 855
f 857 858 859
f 858 860 859
f 861 862 863
f 862 864 863
f 865 866 867
f 866 868 867
f 869 870 871
f 870 872 871
v 20 -6 31
v 21 -6 31
v 20 -3.5 31
v 21 -3.5 31
v 21 -6 31
v 21 -6 28.5
v 21 -3.5 31
v 21 -3.5 28.5
v 21 -6 28.5
v 20 -6 28.5
v 21 -3.5 28.5
v 20 -3.5 28.5
v 20 -6 28.5
v 20 -6 31
v 20 -3.5 28.5
v 20 -3.5 31
v 20 -3.5 31
v 21 -3.5 31
v 20 -3.5 28.5
v 21 -3.5 28.5
v 20 -6 28.5
v 21 -6 28.5
v 20 -6 31
v 21 -6 31
f 873 874 875
f 874 876 875
f 877 878 879
f 878 880 879
f 881 882 883
f 882 884 883
f 885 886 887
f 886 888 887
f 889 890 891
f 890 892 891
f 893 894 895
f 894 896 895
v 21 -20 37
v 35 -20 37
v 21 -17.5 37
v 35 -17.5 37
v 35 -20 37
v 35 -20 22
v 35 -17.5 37
v 35 -17.5 22
v 35 -20 22
v 21 -20 22
v 35 -17.5 22
v 21 -17.5 22
v 21 -20 22
v 21 -20 37
v 21 -17.5 22
v 21 -17.5 37
v 21 -17.5 37
v 35 -17.5 37
v 21 -17.5 22
v 35 -17.5 22
v 21 -20 22
v 35 -20 22
v 21 -20 37
v 35 -20 37
f 897 898 899
f 898 900 899
f 901 902 903
f 902 904 903
f 905 906 907
f 906 908 907
f 909 910 911
f 910 912 911
f 913 914 915
f 914 916 915
f 917 918 919
f 918 920 919
v -9.5 -21 9.5
v -3.5 -21 12.5
v -3.5 -16.5 12.5
v -9.5 -16.5 9.5
v -3.5 -16.5 -12.5
v -9.5 -21 -9.5
v -9.5 -16.5 -9.5
v -3.5 -21 -12.5
v -3.5 -21 22.5
v 3.5 -21 22.5
v 3.5 -20 22.5
v -3.5 -20 22.5
v 3.5 -21 12.5
v 9.5 -21 9.5
v 9.5 -16.5 9.5
v 3.5 -16.5 12.5
v 3.5 -20 -22.5
v -3.5 -21 -22.5
v -3.5 -20 -22.5
v 3.5 -21 -22.5
v 9.5 -16.5 -9.5
v 3.5 -21 -12.5
v 3.5 -16.5 -12.5
v 9.5 -21 -9.5
v 9.5 -21 9.5
v 12.5 -21 3.5
v 12.5 -16.5 3.5
v 9.5 -16.5 9.5
v -12.5 -16.5 3.5
v -9.5 -21 9.5
v -9.5 -16.5 9.5
v -12.5 -21 3.5
v -3.5 -16.5 3.5
v -12.5 -16.5 3.5
v -9.5 -16.5 9.5
v -3.5 -16.5 12.5
v -9.5 -21 9.5
v -3.5 -21 3.5
v -3.5 -21 12.5
v -12.5 -21 3.5
v 12.5 -16.5 3.5
v 3.5 -16.5 3.5
v 3.5 -16.5 12.5
v 9.5 -16.5 9.5
v 3.5 -21 12.5
v 12.5 -21 3.5
v 9.5 -21 9.5
v 3.5 -21 3.5
v 22.5 -21 3.5
v 22.5 -21 -3.5
v 22.5 -20 -3.5
v 22.5 -20 3.5
v 12.5 -21 -3.5
v 9.5 -21 -9.5
v 9.5 -16.5 -9.5
v 12.5 -16.5 -3.5
v -22.5 -20 -3.5
v -22.5 -21 3.5
v -22.5 -20 3.5
v -22.5 -21 -3.5
v -9.5 -16.5 -9.5
v -12.5 -21 -3.5
v -12.5 -16.5 -3.5
v -9.5 -21 -9.5
v -3.5 -16.5 -12.5
v -9.5 -16.5 -9.5
v -12.5 -16.5 -3.5
v -3.5 -16.5 -3.5
v -12.5 -21 -3.5
v -3.5 -21 -12.5
v -3.5 -21 -3.5
v -9.5 -21 -9.5
v 9.5 -16.5 -9.5
v 3.5 -16.5 -12.5
v 3.5 -16.5 -3.5
v 12.5 -16.5 -3.5
v 3.5 -21 -3.5
v 9.5 -21 -9.5
v 12.5 -21 -3.5
v 3.5 -21 -12.5
v -3.5 -21 15
v 3.5 -21 15
v -3.5 -21 22.5
v 3.5 -21 22.5
v 3.5 -21 22.5
v 3.5 -21 15
v 3.5 -16.5 15
v 3.5 -20 22.5
v -3.5 -16.5 15
v -3.5 -21 22.5
v -3.5 -20 22.5
v -3.5 -21 15
v 3.5 -16.5 12.5
v -3.5 -16.5 12.5
v -3.5 -16.5 15
v 3.5 -16.5 15
v 3.5 -16.5 15
v -3.5 -16.5 15
v -3.5 -20 22.5
v 3.5 -20 22.5
v -15 -16.5 3.5
v -15 -16.5 -3.5
v -15 -21 -3.5
v -15 -21 3.5
v -15 -21 3.5
v -15 -16.5 3.5
v -22.5 -21 3.5
v -22.5 -20 3.5
v -15 -16.5 3.5
v -15 -16.5 -3.5
v -22.5 -20 3.5
v -22.5 -20 -3.5
v -15 -16.5 -3.5
v -15 -21 -3.5
v -22.5 -20 -3.5
v -22.5 -21 -3.5
v -22.5 -21 -3.5
v -22.5 -21 3.5
v -3.5 -16.5 -15
v 3.5 -16.5 -15
v 3.5 -21 -15
v -3.5 -21 -15
v -3.5 -21 -15
v -3.5 -16.5 -15
v -3.5 -21 -22.5
v -3.5 -20 -22.5
v -3.5 -16.5 -15
v 3.5 -16.5 -15
v -3.5 -20 -22.5
v 3.5 -20 -22.5
v 3.5 -16.5 -15
v 3.5 -21 -15
v 3.5 -20 -22.5
v 3.5 -21 -22.5
v 3.5 -21 -22.5
v -3.5 -21 -22.5
v 15 -21 3.5
v 15 -21 -3.5
v 15 -16.5 -3.5
v 15 -16.5 3.5
v 22.5 -21 3.5
v 22.5 -21 -3.5
v 15 -21 -3.5
v 15 -16.5 -3.5
v 22.5 -21 -3.5
v 22.5 -20 -3.5
v 15 -16.5 3.5
v 15 -21 3.5
v 22.5 -20 3.5
v 22.5 -21 3.5
v 15 -16.5 -3.5
v 15 -16.5 3.5
v 22.5 -20 -3.5
v 22.5 -20 3.5
v -12.5 -21 3.5
v -12.5 -16.5 3.5
v -12.5 -20.5 3.5
v -12.5 -16.5 3.5
v -12.5 -17.5 3.5
v -12.5 -20.5 3.5
v -12.5 -21 3.5
v -15 -20.5 3.5
v -12.5 -20.5 3.5
v -12.5 -16.5 3.5
v -12.5 -17.5 3.5
v -15 -17.5 3.5
v -15 -16.5 3.5
v -15 -21 3.5
v -15 -17.5 3.5
v -15 -21 3.5
v -15 -20.5 3.5
v -15 -17.5 3.5
v -12.5 -16.5 -3.5
v -12.5 -21 -3.5
v -12.5 -17.5 -3.5
v -12.5 -21 -3.5
v -12.5 -20.5 -3.5
v -12.5 -17.5 -3.5
v -12.5 -16.5 -3.5
v -15 -17.5 -3.5
v -12.5 -17.5 -3.5
v -12.5 -21 -3.5
v -12.5 -20.5 -3.5
v -15 -20.5 -3.5
v -15 -21 -3.5
v -15 -16.5 -3.5
v -15 -20.5 -3.5
v -15 -16.5 -3.5
v -15 -17.5 -3.5
v -15 -20.5 -3.5
v -12.5 -20.5 3.5
v -12.5 -17.5 3.5
v -12.5 -20.5 -3.5
v -12.5 -17.5 -3.5
v -15 -20.5 3.5
v -12.5 -20.5 3.5
v -15 -20.5 -3.5
v -12.5 -20.5 -3.5
v -12.5 -17.5 3.5
v -15 -17.5 3.5
v -12.5 -17.5 -3.5
v -15 -17.5 -3.5
v -15 -17.5 3.5
v -15 -20.5 3.5
v -15 -17.5 -3.5
v -15 -20.5 -3.5
v -3.5 -21 15
v -3.5 -16.5 15
v -3.5 -21 15
v -3.5 -16.5 15
v -3.5 -16.5 15
v -3.5 -21 15
v -3.5 -16.5 15
v -3.5 -16.5 12.5
v -3.5 -16.5 15
v -3.5 -16.5 12.5
v -3.5 -16.5 12.5
v -3.5 -16.5 15
v -3.5 -16.5 12.5
v -3.5 -21 12.5
v -3.5 -16.5 12.5
v -3.5 -21 12.5
v -3.5 -21 12.5
v -3.5 -16.5 12.5
v -3.5 -21 12.5
v -3.5 -21 15
v -3.5 -21 12.5
v -3.5 -21 15
v -3.5 -21 15
v -3.5 -21 12.5
v -3.5 -21 15
v -3.5 -16.5 15
v -3.5 -20.5 15
v -3.5 -16.5 15
v -3.5 -17.5 15
v -3.5 -20.5 15
v -3.5 -16.5 12.5
v -3.5 -17.5 15
v -3.5 -17.5 12.5
v -3.5 -16.5 12.5
v -3.5 -21 12.5
v -3.5 -17.5 12.5
v -3.5 -21 12.5
v -3.5 -20.5 12.5
v -3.5 -17.5 12.5
v -3.5 -21 12.5
v -3.5 -20.5 12.5
v -3.5 -20.5 15
v 3.5 -21 12.5
v 3.5 -20.5 15
v 3.5 -20.5 12.5
v 3.5 -21 12.5
v 3.5 -16.5 12.5
v 3.5 -20.5 12.5
v 3.5 -16.5 12.5
v 3.5 -17 12.5
v 3.5 -20.5 12.5
v 3.5 -16.5 15
v 3.5 -21 15
v 3.5 -17 15
v 3.5 -21 15
v 3.5 -20.5 15
v 3.5 -17 15
v 3.5 -16.5 12.5
v 3.5 -17 12.5
v 3.5 -17 15
v 3.5 -20.5 15
v 3.5 -20.5 12.5
v -3.5 -20.5 15
v -3.5 -20.5 12.5
v 3.5 -20.5 12.5
v 3.5 -17 12.5
v -3.5 -20.5 12.5
v -3.5 -17 12.5
v 3.5 -17 15
v 3.5 -20.5 15
v -3.5 -17 15
v -3.5 -20.5 15
v 3.5 -17 12.5
v 3.5 -17 15
v -3.5 -17 12.5
v -3.5 -17 15
v 12.5 -16.5 3.5
v 12.5 -21 3.5
v 12.5 -17.5 3.5
v 12.5 -21 3.5
v 12.5 -20.5 3.5
v 12.5 -17.5 3.5
v 12.5 -16.5 3.5
v 15 -17.5 3.5
v 12.5 -17.5 3.5
v 12.5 -21 3.5
v 12.5 -20.5 3.5
v 15 -20.5 3.5
v 15 -21 3.5
v 15 -16.5 3.5
v 15 -20.5 3.5
v 15 -16.5 3.5
v 15 -17.5 3.5
v 15 -20.5 3.5
v 12.5 -21 -3.5
v 12.5 -16.5 -3.5
v 12.5 -20.5 -3.5
v 12.5 -16.5 -3.5
v 12.5 -17.5 -3.5
v 12.5 -20.5 -3.5
v 12.5 -21 -3.5
v 15 -20.5 -3.5
v 12.5 -20.5 -3.5
v 12.5 -16.5 -3.5
v 12.5 -17.5 -3.5
v 15 -17.5 -3.5
v 15 -16.5 -3.5
v 15 -21 -3.5
v 15 -17.5 -3.5
v 15 -21 -3.5
v 15 -20.5 -3.5
v 15 -17.5 -3.5
v 12.5 -20.5 -3.5
v 12.5 -17.5 -3.5
v 12.5 -20.5 3.5
v 12.5 -17.5 3.5
v 15 -20.5 -3.5
v 12.5 -20.5 -3.5
v 15 -20.5 3.5
v 12.5 -20.5 3.5
v 12.5 -17.5 -3.5
v 15 -17.5 -3.5
v 12.5 -17.5 3.5
v 15 -17.5 3.5
v 15 -17.5 -3.5
v 15 -20.5 -3.5
v 15 -17.5 3.5
v 15 -20.5 3.5
v 3.5 -16.5 -12.5
v 3.5 -21 -12.5
v 3.5 -17.5 -12.5
v 3.5 -21 -12.5
v 3.5 -20.5 -12.5
v 3.5 -17.5 -12.5
v 3.5 -16.5 -12.5
v 3.5 -17.5 -15
v 3.5 -17.5 -12.5
v 3.5 -21 -12.5
v 3.5 -20.5 -12.5
v 3.5 -20.5 -15
v 3.5 -21 -15
v 3.5 -16.5 -15
v 3.5 -20.5 -15
v 3.5 -16.5 -15
v 3.5 -17.5 -15
v 3.5 -20.5 -15
v -3.5 -21 -12.5
v -3.5 -16.5 -12.5
v -3.5 -20.5 -12.5
v -3.5 -16.5 -12.5
v -3.5 -17.5 -12.5
v -3.5 -20.5 -12.5
v -3.5 -21 -12.5
v -3.5 -20.5 -15
v -3.5 -20.5 -12.5
v -3.5 -16.5 -12.5
v -3.5 -17.5 -12.5
v -3.5 -17.5 -15
v -3.5 -16.5 -15
v -3.5 -21 -15
v -3.5 -17.5 -15
v -3.5 -21 -15
v -3.5 -20.5 -15
v -3.5 -17.5 -15
v 3.5 -17.5 -12.5
v 3.5 -20.5 -12.5
v -3.5 -17.5 -12.5
v -3.5 -20.5 -12.5
v 3.5 -17.5 -15
v 3.5 -17.5 -12.5
v -3.5 -17.5 -15
v -3.5 -17.5 -12.5
v 3.5 -20.5 -12.5
v 3.5 -20.5 -15
v -3.5 -20.5 -12.5
v -3.5 -20.5 -15
v 3.5 -20.5 -15
v 3.5 -17.5 -15
v -3.5 -20.5 -15
v -3.5 -17.5 -15
f 921 922 923
f 924 921 923
f 925 926 927
f 925 928 926
f 929 930 931
f 932 929 931
f 933 934 935
f 936 933 935
f 937 938 939
f 937 940 938
f 941 942 943
f 941 944 942
f 945 946 947
f 948 945 947
f 949 950 951
f 949 952 950
f 953 954 955
f 956 953 955
f 957 958 959
f 957 960 958
f 961 962 963
f 964 961 963
f 962 953 956
f 963 962 956
f 965 966 967
f 965 968 966
f 959 968 965
f 959 958 968
f 969 970 971
f 972 969 971
f 973 974 975
f 976 973 975
f 977 978 979
f 977 980 978
f 981 982 983
f 981 984 982
f 985 986 987
f 988 985 987
f 988 987 954
f 953 988 954
f 989 990 991
f 989 992 990
f 960 991 958
f 960 989 991
f 993 994 995
f 996 993 995
f 996 995 962
f 961 996 962
f 994 985 988
f 995 994 988
f 995 988 953
f 962 995 953
f 997 998 999
f 997 1000 998
f 968 999 966
f 968 997 999
f 991 1000 997
f 991 990 1000
f 958 997 968
f 958 991 997
f 1001 965 1002
f 1001 959 965
f 1003 1002 1004
f 1003 1001 1002
f 1005 1006 1007
f 1008 1005 1007
f 1009 1010 1011
f 1009 1012 1010
f 1013 1014 1015
f 1016 1013 1015
f 1017 1018 1019
f 1020 1017 1019
f 954 987 1021
f 987 1022 1021
f 989 960 1023
f 960 1024 1023
f 1025 1026 1027
f 1026 1028 1027
f 1029 1030 1031
f 1030 1032 1031
f 1033 1034 1035
f 1034 1036 1035
f 1023 1024 1037
f 1024 1038 1037
f 985 994 1039
f 994 1040 1039
f 1000 990 1041
f 990 1042 1041
f 1043 1044 1045
f 1044 1046 1045
f 1047 1048 1049
f 1048 1050 1049
f 1051 1052 1053
f 1052 1054 1053
f 1041 1042 1055
f 1042 1056 1055
f 966 999 1057
f 999 1058 1057
f 996 961 1059
f 961 1060 1059
f 1057 1058 1061
f 1058 1062 1061
f 1063 1064 1065
f 1064 1066 1065
f 1067 1068 1069
f 1068 1070 1069
f 1071 1072 1073
f 1072 1074 1073
f 1075 1076 1077
f 1078 1079 1080
f 1025 1081 1082
f 1081 1083 1082
f 1084 1026 1085
f 1026 1086 1085
f 1087 1088 1089
f 1090 1091 1092
f 1093 1094 1095
f 1096 1097 1098
f 1033 1099 1100
f 1099 1101 1100
f 1102 1034 1103
f 1034 1104 1103
f 1105 1106 1107
f 1108 1109 1110
f 1111 1112 1113
f 1112 1114 1113
f 1115 1116 1117
f 1116 1118 1117
f 1119 1120 1121
f 1120 1122 1121
f 1123 1124 1125
f 1124 1126 1125
f 1127 1128 1129
f 1130 1131 1132
f 1133 1134 1135
f 1136 1137 1138
f 1139 1140 1141
f 1142 1143 1144
f 1145 1146 1147
f 1148 1149 1150
f 1151 1152 1153
f 1154 1155 1156
f 1009 1157 1158
f 1157 1159 1158
f 1160 1161 1162
f 1163 1164 1165
f 1166 1012 1167
f 1012 1168 1167
f 1006 1169 1170
f 1169 1171 1170
f 1172 1173 1174
f 1175 1176 1177
f 1178 1179 1180
f 1181 1182 1183
f 1184 1007 1185
f 1007 1186 1185
f 1187 1188 1189
f 1188 1190 1189
f 1191 1192 1193
f 1192 1194 1193
f 1195 1196 1197
f 1196 1198 1197
f 1199 1200 1201
f 1200 1202 1201
f 1203 1204 1205
f 1206 1207 1208
f 1067 1209 1210
f 1209 1211 1210
f 1212 1068 1213
f 1068 1214 1213
f 1215 1216 1217
f 1218 1219 1220
f 1221 1222 1223
f 1224 1225 1226
f 1063 1227 1228
f 1227 1229 1228
f 1230 1064 1231
f 1064 1232 1231
f 1233 1234 1235
f 1236 1237 1238
f 1239 1240 1241
f 1240 1242 1241
f 1243 1244 1245
f 1244 1246 1245
f 1247 1248 1249
f 1248 1250 1249
f 1251 1252 1253
f 1252 1254 1253
f 1255 1256 1257
f 1258 1259 1260
f 1051 1261 1262
f 1261 1263 1262
f 1264 1052 1265
f 1052 1266 1265
f 1267 1268 1269
f 1270 1271 1272
f 1273 1274 1275
f 1276 1277 1278
f 1043 1279 1280
f 1279 1281 1280
f 1282 1044 1283
f 1044 1284 1283
f 1285 1286 1287
f 1288 1289 1290
f 1291 1292 1293
f 1292 1294 1293
f 1295 1296 1297
f 1296 1298 1297
f 1299 1300 1301
f 1300 1302 1301
f 1303 1304 1305
f 1304 1306 1305
v 0.55 -15.00077 -12.25
v 0.55 -14.99923 12.25
v 0.3889087 -15.38968 -12.25004
v 0.3889087 -15.38814 12.24997
v 0.3889087 -15.38968 -12.25004
v 0.3889087 -15.38814 12.24997
v 0 -15.55077 -12.25005
v 0 -15.54923 12.24995
v 0 -15.55077 -12.25005
v 0 -15.54923 12.24995
v -0.3889088 -15.38968 -12.25004
v -0.3889088 -15.38814 12.24997
v -0.3889088 -15.38968 -12.25004
v -0.3889088 -15.38814 12.24997
v -0.55 -15.00077 -12.25
v -0.55 -14.99923 12.25
v -0.55 -15.00077 -12.25
v -0.55 -14.99923 12.25
v -0.3889088 -14.61186 -12.24997
v -0.3889088 -14.61032 12.25004
v -0.3889088 -14.61186 -12.24997
v -0.3889088 -14.61032 12.25004
v 0 -14.45077 -12.24995
v 0 -14.44923 12.25005
v 0 -14.45077 -12.24995
v 0 -14.44923 12.25005
v 0.3889087 -14.61186 -12.24997
v 0.3889087 -14.61032 12.25004
v 0.3889087 -14.61186 -12.24997
v 0.3889087 -14.61032 12.25004
v 0.55 -15.00077 -12.25
v 0.55 -14.99923 12.25
v 0.3889087 -15.38968 -12.25004
v 0 -15.00077 -12.25
v 0.55 -15.00077 -12.25
v 0 -15.55077 -12.25005
v -0.3889088 -15.38968 -12.25004
v -0.55 -15.00077 -12.25
v -0.3889088 -14.61186 -12.24997
v 0 -14.45077 -12.24995
v 0.3889087 -14.61186 -12.24997
v 0.55 -14.99923 12.25
v 0 -14.99923 12.25
v 0.3889087 -15.38814 12.24997
v 0 -15.54923 12.24995
v -0.3889088 -15.38814 12.24997
v -0.55 -14.99923 12.25
v -0.3889088 -14.61032 12.25004
v 0 -14.44923 12.25005
v 0.3889087 -14.61032 12.25004
f 1307 1308 1309
f 1308 1310 1309
f 1311 1312 1313
f 1312 1314 1313
f 1315 1316 1317
f 1316 1318 1317
f 1319 1320 1321
f 1320 1322 1321
f 1323 1324 1325
f 1324 1326 1325
f 1327 1328 1329
f 1328 1330 1329
f 1331 1332 1333
f 1332 1334 1333
f 1335 1336 1337
f 1336 1338 1337
f 1339 1340 1341
f 1342 1340 1339
f 1343 1340 1342
f 1344 1340 1343
f 1345 1340 1344
f 1346 1340 1345
f 1347 1340 1346
f 1341 1340 1347
f 1348 1349 1350
f 1350 1349 1351
f 1351 1349 1352
f 1352 1349 1353
f 1353 1349 1354
f 1354 1349 1355
f 1355 1349 1356
f 1356 1349 1348
v 33 -8 33
v 35 -8 33
v 35 -6 33
v 33 -6 33
v 31 -8 33
v 31 -6 33
v 20 -6 35
v 20 -8 37
v 20 -6 37
v 20 -8 35
v 20 -6 33
v 20 -8 33
v 31 -8 35
v 31 -8 33
v 31 -6 33
v 31 -6 35
v 31 -8 37
v 31 -6 37
v 20 -8 37
v 22.5 -8 37
v 22.5 -6 37
v 20 -6 37
v 22.5 -6 22
v 20 -8 22
v 20 -6 22
v 22.5 -8 22
v 22.5 -6 33
v 20 -6 33
v 20 -6 35
v 22.5 -6 35
v 20 -6 37
v 22.5 -6 37
v 20 -8 35
v 22.5 -8 33
v 22.5 -8 35
v 20 -8 33
v 20 -8 37
v 22.5 -8 37
v 35 -8 33
v 35 -8 28
v 35 -6 28
v 35 -6 33
v 35 -8 22
v 35 -6 22
v 20 -6 28
v 20 -8 28
v 20 -6 22
v 20 -8 22
v 35 -6 22
v 33 -6 22
v 33 -6 28
v 35 -6 28
v 33 -6 33
v 35 -6 33
v 32.5 -6 22
v 31 -6 28
v 31 -6 33
v 33 -8 28
v 35 -8 22
v 35 -8 28
v 33 -8 22
v 33 -8 33
v 35 -8 33
v 31 -8 28
v 32.5 -8 22
v 31 -8 33
v 22.5 -6 22
v 20 -6 22
v 20 -6 28
v 22.5 -6 28
v 20 -8 28
v 22.5 -8 22
v 22.5 -8 28
v 20 -8 22
v 35 -6 22
v 33 -8 22
v 33 -6 22
v 32.5 -8 22
v 32.5 -6 22
v 35 -8 22
v 28 -8 37
v 28 -6 37
v 31 -8 37
v 31 -6 37
v 28 -6 22
v 28 -8 22
v 32.5 -20 -0.5
v 28 -22 -0.5
v 28 -20 -0.5
v 32.5 -22 -0.5
v 28 -6 33
v 28 -6 35
v 31 -6 35
v 28 -6 37
v 31 -6 37
v 28 -8 35
v 31 -8 35
v 28 -8 33
v 28 -8 37
v 31 -8 37
v 28 -6 22
v 28 -6 28
v 28 -8 28
v 28 -8 22
v 28 -6 14.5
v 28 -8 22
v 28 -6 22
v 28 -8 14.5
v 28 -6 12
v 28 -8 12
v 32.5 -6 14.5
v 28 -6 14.5
v 32.5 -6 12
v 28 -6 12
v 32.5 -8 22
v 32.5 -8 14.5
v 32.5 -6 14.5
v 32.5 -6 22
v 32.5 -8 12
v 32.5 -6 12
v 32.5 -8 14.5
v 28 -8 14.5
v 28 -25.5 14.5
v 32.5 -25.5 12
v 32.5 -25.5 14.5
v 28 -25.5 12
v 32.5 -25.5 12
v 32.5 -25.5 14.5
v 32.5 -8 14.5
v 28 -8 14.5
v 32.5 -25.5 14.5
v 28 -25.5 14.5
v 28 -25.5 14.5
v 28 -25.5 12
v 28 -25.5 -0.5
v 32.5 -25.5 -0.5
v 28 -22 -0.5
v 28 -20 -0.5
v 28 -6 12
v 32.5 -6 12
v 28 -20 -0.5
v 32.5 -20 -0.5
v 32.5 -20 -0.5
v 32.5 -22 -0.5
v 28 -25.5 -0.5
v 32.5 -25.5 -0.5
v 32.5 -25.5 -0.5
v 28 -25.5 -0.5
f 1357 1358 1359
f 1360 1357 1359
f 1361 1357 1360
f 1362 1361 1360
f 1363 1364 1365
f 1363 1366 1364
f 1367 1366 1363
f 1367 1368 1366
f 1369 1370 1371
f 1372 1369 1371
f 1373 1369 1372
f 1374 1373 1372
f 1375 1376 1377
f 1378 1375 1377
f 1379 1380 1381
f 1379 1382 1380
f 1383 1384 1385
f 1386 1383 1385
f 1386 1385 1387
f 1388 1386 1387
f 1389 1390 1391
f 1389 1392 1390
f 1393 1391 1394
f 1393 1389 1391
f 1395 1396 1397
f 1398 1395 1397
f 1396 1399 1400
f 1397 1396 1400
f 1401 1368 1367
f 1401 1402 1368
f 1403 1402 1401
f 1403 1404 1402
f 1405 1406 1407
f 1408 1405 1407
f 1408 1407 1409
f 1410 1408 1409
f 1406 1411 1412
f 1407 1406 1412
f 1407 1412 1413
f 1409 1407 1413
f 1414 1415 1416
f 1414 1417 1415
f 1418 1416 1419
f 1418 1414 1416
f 1420 1417 1414
f 1420 1421 1417
f 1422 1414 1418
f 1422 1420 1414
f 1423 1424 1425
f 1426 1423 1425
f 1426 1425 1384
f 1383 1426 1384
f 1427 1428 1429
f 1427 1430 1428
f 1392 1429 1390
f 1392 1427 1429
f 1431 1432 1433
f 1433 1432 1434
f 1433 1434 1435
f 1431 1436 1432
f 1376 1437 1438
f 1377 1376 1438
f 1437 1439 1440
f 1438 1437 1440
f 1441 1382 1379
f 1441 1442 1382
f 1443 1444 1445
f 1443 1446 1444
f 1413 1447 1448
f 1449 1413 1448
f 1447 1383 1386
f 1448 1447 1386
f 1449 1448 1450
f 1451 1449 1450
f 1448 1386 1388
f 1450 1448 1388
f 1452 1422 1453
f 1452 1454 1422
f 1391 1454 1452
f 1391 1390 1454
f 1455 1453 1456
f 1455 1452 1453
f 1394 1452 1455
f 1394 1391 1452
f 1411 1457 1458
f 1412 1411 1458
f 1457 1423 1426
f 1458 1457 1426
f 1412 1458 1447
f 1413 1412 1447
f 1458 1426 1383
f 1447 1458 1383
f 1459 1421 1420
f 1459 1460 1421
f 1429 1460 1459
f 1429 1428 1460
f 1454 1420 1422
f 1454 1459 1420
f 1390 1459 1454
f 1390 1429 1459
f 1461 1462 1463
f 1461 1464 1462
f 1465 1464 1461
f 1465 1466 1464
f 1467 1468 1457
f 1411 1467 1457
f 1469 1470 1468
f 1467 1469 1468
f 1471 1472 1473
f 1474 1471 1473
f 1472 1475 1476
f 1473 1472 1476
f 1460 1477 1421
f 1460 1478 1477
f 1479 1480 1481
f 1479 1482 1480
f 1475 1472 1483
f 1472 1484 1483
f 1485 1486 1487
f 1486 1488 1487
f 1464 1466 1489
f 1466 1490 1489
f 1444 1446 1491
f 1446 1492 1491
f 1466 1465 1493
f 1465 1494 1493
f 1495 1496 1497
f 1496 1498 1497
f 1476 1475 1499
f 1475 1500 1499
f 1490 1466 1501
f 1466 1493 1501
f 1475 1483 1500
f 1483 1502 1500
f 1480 1482 1503
f 1482 1504 1503
v 20 -6 22
v 19.99983 -6 23
v 20 -3.5 22
v 19.99983 -3.5 23
v 19.99983 -6 23
v 22.49983 -6 23.00043
v 19.99983 -3.5 23
v 22.49983 -3.5 23.00043
v 22.49983 -6 23.00043
v 22.5 -6 22.00043
v 22.49983 -3.5 23.00043
v 22.5 -3.5 22.00043
v 22.5 -6 22.00043
v 20 -6 22
v 22.5 -3.5 22.00043
v 20 -3.5 22
v 20 -3.5 22
v 19.99983 -3.5 23
v 22.5 -3.5 22.00043
v 22.49983 -3.5 23.00043
v 22.5 -6 22.00043
v 22.49983 -6 23.00043
v 20 -6 22
v 19.99983 -6 23
f 1505 1506 1507
f 1506 1508 1507
f 1509 1510 1511
f 1510 1512 1511
f 1513 1514 1515
f 1514 1516 1515
f 1517 1518 1519
f 1518 1520 1519
f 1521 1522 1523
f 1522 1524 1523
f 1525 1526 1527
f 1526 1528 1527
v -2 -17.5 37
v 3 -17.5 37
v -2 -15 37
v 3 -15 37
v 3 -17.5 37
v 3 -17.5 29.5
v 3 -15 37
v 3 -15 29.5
v 3 -17.5 29.5
v -2 -17.5 29.5
v 3 -15 29.5
v -2 -15 29.5
v -2 -17.5 29.5
v -2 -17.5 37
v -2 -15 29.5
v -2 -15 37
v -2 -15 37
v 3 -15 37
v -2 -15 29.5
v 3 -15 29.5
v -2 -17.5 29.5
v 3 -17.5 29.5
v -2 -17.5 37
v 3 -17.5 37
f 1529 1530 1531
f 1530 1532 1531
f 1533 1534 1535
f 1534 1536 1535
f 1537 1538 1539
f 1538 1540 1539
f 1541 1542 1543
f 1542 1544 1543
f 1545 1546 1547
f 1546 1548 1547
f 1549 1550 1551
f 1550 1552 1551
v -37 -20 2.5
v -32 -20 2.5
v -37 -17.5 2.5
v -32 -17.5 2.5
v -32 -20 2.5
v -32 -20 -2.5
v -32 -17.5 2.5
v -32 -17.5 -2.5
v -32 -20 -2.5
v -37 -20 -2.5
v -32 -17.5 -2.5
v -37 -17.5 -2.5
v -37 -20 -2.5
v -37 -20 2.5
v -37 -17.5 -2.5
v -37 -17.5 2.5
v -37 -17.5 2.5
v -32 -17.5 2.5
v -37 -17.5 -2.5
v -32 -17.5 -2.5
v -37 -20 -2.5
v -32 -20 -2.5
v -37 -20 2.5
v -32 -20 2.5
f 1553 1554 1555
f 1554 1556 1555
f 1557 1558 1559
f 1558 1560 1559
f 1561 1562 1563
f 1562 1564 1563
f 1565 1566 1567
f 1566 1568 1567
f 1569 1570 1571
f 1570 1572 1571
f 1573 1574 1575
f 1574 1576 1575
v 23 -20 27
v 25.5 -20 27
v 23 -8 27
v 25.5 -8 27
v 25.5 -20 27
v 25.5 -20 24.5
v 25.5 -8 27
v 25.5 -8 24.5
v 25.5 -20 24.5
v 23 -20 24.5
v 25.5 -8 24.5
v 23 -8 24.5
v 23 -20 24.5
v 23 -20 27
v 23 -8 24.5
v 23 -8 27
v 23 -8 27
v 25.5 -8 27
v 23 -8 24.5
v 25.5 -8 24.5
v 23 -20 24.5
v 25.5 -20 24.5
v 23 -20 27
v 25.5 -20 27
f 1577 1578 1579
f 1578 1580 1579
f 1581 1582 1583
f 1582 1584 1583
f 1585 1586 1587
f 1586 1588 1587
f 1589 1590 1591
f 1590 1592 1591
f 1593 1594 1595
f 1594 1596 1595
f 1597 1598 1599
f 1598 1600 1599
v 32.5 -6 22
v 32.49982 -6 23
v 32.5 -3.5 22
v 32.49982 -3.5 23
v 32.49982 -6 23
v 34.99982 -6 23.00043
v 32.49982 -3.5 23
v 34.99982 -3.5 23.00043
v 34.99982 -6 23.00043
v 35 -6 22.00043
v 34.99982 -3.5 23.00043
v 35 -3.5 22.00043
v 35 -6 22.00043
v 32.5 -6 22
v 35 -3.5 22.00043
v 32.5 -3.5 22
v 32.5 -3.5 22
v 32.49982 -3.5 23
v 35 -3.5 22.00043
v 34.99982 -3.5 23.00043
v 35 -6 22.00043
v 34.99982 -6 23.00043
v 32.5 -6 22
v 32.49982 -6 23
f 1601 1602 1603
f 1602 1604 1603
f 1605 1606 1607
f 1606 1608 1607
f 1609 1610 1611
f 1610 1612 1611
f 1613 1614 1615
f 1614 1616 1615
f 1617 1618 1619
f 1618 1620 1619
f 1621 1622 1623
f 1622 1624 1623
v -37 30 37
v 35 30 37
v 35 -20 37
v -37 -20 37
v 35 30 37
v 35 30 -35
v 35 -20 -35
v 35 -20 37
v 35 30 -35
v -37 30 -35
v -37 -20 -35
v 35 -20 -35
v -37 30 -35
v -37 30 37
v -37 -20 37
v -37 -20 -35
v -37 30 -35
v 35 30 -35
v 35 30 37
v -37 30 37
v -37 -20 37
v 35 -20 37
v 35 -20 -35
v -37 -20 -35
f 1625 1626 1627
f 1625 1627 1628
f 1629 1630 1631
f 1629 1631 1632
f 1633 1634 1635
f 1633 1635 1636
f 1637 1638 1639
f 1637 1639 1640
f 1641 1642 1643
f 1641 1643 1644
f 1645 1646 1647
f 1645 1647 1648
v -34.55049 15.93245 -7.844178
v -34.56634 15.93245 11.29203
v -36.46572 15.93245 -7.845764
v -36.48158 15.93245 11.29044
v -36.46573 4.667546 -7.845764
v -36.48158 4.667546 11.29044
v -34.5505 4.667545 -7.844178
v -34.56635 4.667545 11.29203
v -36.46572 15.93245 -7.845764
v -36.48158 15.93245 11.29044
v -36.46573 4.667546 -7.845764
v -36.48158 4.667546 11.29044
v -34.5505 4.667545 -7.844178
v -34.55049 15.93245 -7.844178
v -34.56634 15.93245 11.29203
v -34.56635 4.667545 11.29203
v -34.56634 15.93245 11.29203
v -36.48158 15.93245 11.29044
v -36.48158 4.667546 11.29044
v -34.56635 4.667545 11.29203
v -34.5505 4.667545 -7.844178
v -36.46573 4.667546 -7.845764
v -36.46572 15.93245 -7.845764
v -34.55049 15.93245 -7.844178
f 1649 1651 1652
f 1649 1652 1650
f 1657 1653 1654
f 1657 1654 1658
f 1659 1655 1656
f 1659 1656 1660
f 1661 1662 1663
f 1661 1663 1664
f 1665 1666 1667
f 1665 1667 1668
f 1669 1670 1671
f 1669 1671 1672
v 33.47592 14.39048 -4.745168
v 33.47591 -4.176207 -4.745161
v 35.33415 14.39048 -4.743682
v 35.33414 -4.176208 -4.743675
v 35.32541 14.39049 6.185965
v 35.32541 -4.176204 6.185972
v 33.46718 14.39049 6.184479
v 33.46717 -4.176202 6.184486
v 35.33415 14.39048 -4.743682
v 35.33414 -4.176208 -4.743675
v 35.32541 14.39049 6.185965
v 35.32541 -4.176204 6.185972
v 33.46718 14.39049 6.184479
v 33.47592 14.39048 -4.745168
v 33.47591 -4.176207 -4.745161
v 33.46717 -4.176202 6.184486
v 33.47591 -4.176207 -4.745161
v 35.33414 -4.176208 -4.743675
v 35.32541 -4.176204 6.185972
v 33.46717 -4.176202 6.184486
v 33.46718 14.39049 6.184479
v 35.32541 14.39049 6.185965
v 35.33415 14.39048 -4.743682
v 33.47592 14.39048 -4.745168
f 1673 1675 1676
f 1673 1676 1674
f 1681 1677 1678
f 1681 1678 1682
f 1683 1679 1680
f 1683 1680 1684
f 1685 1686 1687
f 1685 1687 1688
f 1689 1690 1691
f 1689 1691 1692
f 1693 1694 1695
f 1693 1695 1696
v -5.265182 14.39048 -33.67611
v -5.265174 -4.176207 -33.6761
v -5.263632 14.39048 -35.53434
v -5.263623 -4.176208 -35.53434
v 5.666013 14.39049 -35.52522
v 5.666021 -4.176203 -35.52522
v 5.664462 14.39049 -33.66698
v 5.664471 -4.176202 -33.66698
v -5.263632 14.39048 -35.53434
v -5.263623 -4.176208 -35.53434
v 5.666013 14.39049 -35.52522
v 5.666021 -4.176203 -35.52522
v 5.664462 14.39049 -33.66698
v -5.265182 14.39048 -33.67611
v -5.265174 -4.176207 -33.6761
v 5.664471 -4.176202 -33.66698
v -5.265174 -4.176207 -33.6761
v -5.263623 -4.176208 -35.53434
v 5.666021 -4.176203 -35.52522
v 5.664471 -4.176202 -33.66698
v 5.664462 14.39049 -33.66698
v 5.666013 14.39049 -35.52522
v -5.263632 14.39048 -35.53434
v -5.265182 14.39048 -33.67611
f 1697 1699 1700
f 1697 1700 1698
f 1705 1701 1702
f 1705 1702 1706
f 1707 1703 1704
f 1707 1704 1708
f 1709 1710 1711
f 1709 1711 1712
f 1713 1714 1715
f 1713 1715 1716
f 1717 1718 1719
f 1717 1719 1720
v 5.664689 14.39048 35.57607
v 5.66468 -4.176207 35.57607
v 5.663148 14.39048 37.43431
v 5.66314 -4.176207 37.43431
v -5.266495 14.39049 37.42525
v -5.266504 -4.176201 37.42525
v -5.264955 14.39049 35.56701
v -5.264964 -4.176201 35.56701
v 5.663148 14.39048 37.43431
v 5.66314 -4.176207 37.43431
v -5.266495 14.39049 37.42525
v -5.266504 -4.176201 37.42525
v -5.264955 14.39049 35.56701
v 5.664689 14.39048 35.57607
v 5.66468 -4.176207 35.57607
v -5.264964 -4.176201 35.56701
v 5.66468 -4.176207 35.57607
v 5.66314 -4.176207 37.43431
v -5.266504 -4.176201 37.42525
v -5.264964 -4.176201 35.56701
v -5.264955 14.39049 35.56701
v -5.266495 14.39049 37.42525
v 5.663148 14.39048 37.43431
v 5.664689 14.39048 35.57607
f 1721 1723 1724
f 1721 1724 1722
f 1729 1725 1726
f 1729 1726 1730
f 1731 1727 1728
f 1731 1728 1732
f 1733 1734 1735
f 1733 1735 1736
f 1737 1738 1739
f 1737 1739 1740
f 1741 1742 1743
f 1741 1743 1744
v -33.50776 -19.16611 27.56813
v -33.02017 -19.16611 28.67061
v -33.88064 -19.16611 27.73305
v -33.39305 -19.16611 28.83552
v -33.88064 -19.99609 27.73305
v -33.39305 -19.99609 28.83552
v -33.50776 -19.99609 27.56813
v -33.02017 -19.99609 28.67061
v -33.88064 -19.16611 27.73305
v -33.39305 -19.16611 28.83552
v -33.88064 -19.99609 27.73305
v -33.39305 -19.99609 28.83552
v -33.50776 -19.99609 27.56813
v -33.50776 -19.16611 27.56813
v -33.02017 -19.16611 28.67061
v -33.02017 -19.99609 28.67061
v -33.02017 -19.16611 28.67061
v -33.39305 -19.16611 28.83552
v -33.39305 -19.99609 28.83552
v -33.02017 -19.99609 28.67061
v -33.50776 -19.99609 27.56813
v -33.88064 -19.99609 27.73305
v -33.88064 -19.16611 27.73305
v -33.50776 -19.16611 27.56813
f 1745 1747 1748
f 1745 1748 1746
f 1753 1749 1750
f 1753 1750 1754
f 1755 1751 1752
f 1755 1752 1756
f 1757 1758 1759
f 1757 1759 1760
f 1761 1762 1763
f 1761 1763 1764
f 1765 1766 1767
f 1765 1767 1768
