v -23.36 -20 32.1
v -18.46926 -20 33.13956
v -23.36 -12 32.09999
v -18.46926 -12 33.13955
v -18.46926 -20 33.13956
v -17.22179 -20 27.27067
v -18.46926 -12 33.13955
v -17.22179 -12 27.27067
v -17.22179 -20 27.27067
v -22.11253 -20 26.23111
v -17.22179 -12 27.27067
v -22.11253 -12 26.23111
v -22.11253 -20 26.23111
v -23.36 -20 32.1
v -22.11253 -12 26.23111
v -23.36 -12 32.09999
v -23.36 -12 32.09999
v -18.46926 -12 33.13955
v -22.11253 -12 26.23111
v -17.22179 -12 27.27067
v -22.11253 -20 26.23111
v -17.22179 -20 27.27067
v -23.36 -20 32.1
v -18.46926 -20 33.13956
f 1 2 3
f 2 4 3
f 5 6 7
f 6 8 7
f 9 10 11
f 10 12 11
f 13 14 15
f 14 16 15
f 17 18 19
f 18 20 19
f 21 22 23
f 22 24 23
v 18 -14 -27
v 18 -14 -23
v 28 -14 -27
v 28 -14 -23
v 18 -14 -35
v 28 -14 -35
v 0 -6 -35
v -3.999998 -6 -35
v 0 -6 -27
v -3.999999 -6 -27
v 0 -14 -27
v -3.999999 -14 -27
v -3.999999 -14 -23
v 0 -14 -23
v 6 -6 -35
v 6 -6 -27
v 6 -14 -27
v 6 -14 -23
v 18 -6 -35
v 15 -6 -35
v 15 -6 -27
v 18 -6 -27
v 15 -14 -27
v 15 -14 -23
v 9 -6 -35
v 9 -6 -27
v 9 -14 -27
v 9 -14 -23
v 0 -14 -32
v 6 -14 -32
v 9 -14 -32
v 15 -14 -32
v -8 -14 -23
v -8 -14 -27
v -8 -14 -27
v -3.999999 -14 -27
v -8 -16 -31
v -3.999999 -16 -31
v -8 -16 -31
v -3.999999 -16 -31
v -8 -16 -35
v -3.999999 -16 -35
v -8 -16 -31
v -8 -16 -35
v -14 -20 -31
v -14 -20 -35
v 28 -22 -27
v 28 -22 -35
v 28 -14 -27
v 28 -14 -35
v -4 -22 -35
v -4 -22 -27
v -3.999998 -14 -35
v -3.999999 -14 -27
v -8 -14 -27
v -8 -22 -27
v -8 -14 -23
v -8 -22 -23
v 28 -22 -23
v 28 -14 -23
v 18 -22 -35
v 18 -14 -35
v 28 -22 -35
v 28 -14 -35
v 18 -22 -23
v 18 -22 -27
v 28 -22 -23
v 28 -22 -27
v 18 -14 -23
v 18 -22 -23
v 28 -14 -23
v 28 -22 -23
v 18 -22 -35
v 28 -22 -35
v 0 -22 -23
v -3.999999 -14 -23
v -4 -22 -23
v 0 -14 -23
v 0 -14 -35
v 0 -22 -35
v -3.999998 -14 -35
v -4 -22 -35
v -4 -22 -27
v 0 -22 -35
v 0 -22 -27
v -4 -22 -35
v -4 -22 -23
v 0 -22 -23
v 6 -22 -23
v 6 -14 -23
v 6 -14 -35
v 6 -22 -35
v 6 -22 -35
v 6 -22 -27
v 6 -22 -23
v 15 -22 -23
v 15 -14 -23
v 15 -22 -35
v 15 -14 -35
v 15 -22 -27
v 15 -22 -35
v 15 -22 -23
v 9 -22 -23
v 9 -14 -23
v 9 -14 -35
v 9 -22 -35
v 9 -22 -27
v 9 -22 -35
v 9 -22 -23
v -3.999998 -9 -35
v -3.999999 -9 -27
v -3.999998 -6 -35
v -3.999999 -6 -27
v 18 -14 -27
v 18 -14 -35
v 18 -9 -35
v 18 -9 -27
v 18 -6 -35
v 18 -6 -27
v -3.999999 -14 -27
v 0 -14 -27
v 0 -9 -27
v -3.999999 -9 -27
v 0 -6 -27
v -3.999999 -6 -27
v 0 -9 -35
v -3.999998 -9 -35
v 0 -6 -35
v -3.999998 -6 -35
v 0 -14 -32
v 6 -14 -32
v 6 -9 -32
v 0 -9 -32
v 6 -9 -27
v 6 -6 -27
v 6 -9 -35
v 6 -6 -35
v 15 -14 -27
v 18 -14 -27
v 18 -9 -27
v 15 -9 -27
v 18 -6 -27
v 15 -6 -27
v 18 -9 -35
v 15 -9 -35
v 18 -6 -35
v 15 -6 -35
v 6 -14 -27
v 9 -14 -27
v 9 -9 -27
v 9 -6 -27
v 9 -14 -32
v 15 -14 -32
v 15 -9 -32
v 9 -9 -32
v 9 -9 -35
v 9 -6 -35
v 6 -14 -27
v 6 -9 -27
v 6 -14 -32
v 6 -9 -32
v 0 -9 -27
v 0 -14 -27
v 0 -9 -32
v 0 -14 -32
v 6 -9 -27
v 0 -9 -27
v 6 -9 -32
v 0 -9 -32
v 15 -14 -27
v 15 -9 -27
v 15 -14 -32
v 15 -9 -32
v 9 -9 -27
v 9 -14 -27
v 9 -9 -32
v 9 -14 -32
v 15 -9 -27
v 9 -9 -27
v 15 -9 -32
v 9 -9 -32
v -3.999999 -16 -35
v -8 -16 -35
v -8 -22 -35
v -8 -22 -27
v -8 -22 -23
v -8 -22 -23
v -8 -14 -23
v -3.999999 -14 -27
v -4 -22 -27
v -3.999999 -16 -31
v -4 -22 -31
v -4 -22 -31
v -8 -22 -31
v -8 -22 -31
v -8 -16 -31
v -3.999999 -16 -35
v -4 -22 -35
v -8 -22 -35
v -14 -22 -31
v -14 -20 -31
v -14 -22 -35
v -14 -20 -35
v -8 -22 -31
v -8 -16 -31
v -14 -22 -31
v -14 -20 -31
v -14 -22 -35
v -14 -22 -31
v -14 -20 -35
v -14 -22 -35
f 25 26 27
f 26 28 27
f 29 25 30
f 25 27 30
f 31 32 33
f 33 32 34
f 35 36 37
f 38 35 37
f 39 31 33
f 40 39 33
f 41 35 38
f 42 41 38
f 43 44 45
f 46 43 45
f 25 47 48
f 26 25 48
f 44 49 50
f 45 44 50
f 49 39 40
f 50 49 40
f 47 51 52
f 48 47 52
f 51 41 42
f 52 51 42
f 35 41 53
f 41 54 53
f 51 47 55
f 47 56 55
f 37 36 57
f 36 58 57
f 59 60 61
f 60 62 61
f 63 64 65
f 64 66 65
f 67 68 69
f 68 70 69
f 71 72 73
f 72 74 73
f 75 76 77
f 76 78 77
f 79 80 81
f 80 82 81
f 71 73 83
f 73 84 83
f 85 86 87
f 86 88 87
f 89 90 91
f 90 92 91
f 93 94 95
f 94 96 95
f 90 97 92
f 97 98 92
f 99 100 101
f 99 102 100
f 103 104 105
f 105 104 106
f 107 108 109
f 107 110 108
f 111 109 112
f 111 107 109
f 99 113 114
f 102 99 114
f 115 104 103
f 115 116 104
f 109 117 118
f 109 108 117
f 112 118 119
f 112 109 118
f 120 94 93
f 121 120 93
f 86 122 123
f 86 85 122
f 124 97 90
f 124 125 97
f 126 90 89
f 126 124 90
f 113 127 128
f 114 113 128
f 127 120 121
f 128 127 121
f 129 116 115
f 129 130 116
f 123 130 129
f 123 122 130
f 131 125 124
f 131 132 125
f 118 132 131
f 118 117 132
f 133 124 126
f 133 131 124
f 119 131 133
f 119 118 131
f 134 78 135
f 134 77 78
f 136 135 137
f 136 134 135
f 138 139 140
f 141 138 140
f 141 140 142
f 143 141 142
f 144 145 146
f 147 144 146
f 147 146 148
f 149 147 148
f 150 105 151
f 150 103 105
f 152 151 153
f 152 150 151
f 154 155 156
f 157 154 156
f 146 158 159
f 148 146 159
f 160 103 150
f 160 115 103
f 161 150 152
f 161 160 150
f 162 163 164
f 165 162 164
f 165 164 166
f 167 165 166
f 168 123 169
f 168 86 123
f 170 169 171
f 170 168 169
f 172 173 174
f 158 172 174
f 158 174 175
f 159 158 175
f 176 177 178
f 179 176 178
f 174 165 167
f 175 174 167
f 180 115 160
f 180 129 115
f 181 160 161
f 181 180 160
f 169 129 180
f 169 123 129
f 171 180 181
f 171 169 180
f 182 183 184
f 183 185 184
f 186 187 188
f 187 189 188
f 190 191 192
f 191 193 192
f 194 195 196
f 195 197 196
f 198 199 200
f 199 201 200
f 202 203 204
f 203 205 204
f 206 106 207
f 106 208 207
f 107 111 209
f 111 210 209
f 101 100 211
f 100 212 211
f 213 214 215
f 214 216 215
f 107 209 217
f 209 218 217
f 80 79 219
f 79 220 219
f 215 216 221
f 216 222 221
f 217 218 110
f 218 223 110
f 224 225 226
f 225 227 226
f 228 229 230
f 229 231 230
f 223 218 232
f 218 233 232
f 207 208 234
f 208 235 234
v 7.943799 -10.08 -3.01158
v 9.652006 -10.08 -4.051786
v 7.943799 -8.08 -3.01158
v 9.652006 -8.08 -4.051786
v 9.652006 -10.08 -4.051786
v 7.608002 -10.08 -7.408413
v 9.652006 -8.08 -4.051786
v 7.608002 -8.08 -7.408413
v 7.608002 -10.08 -7.408413
v 5.899794 -10.08 -6.368207
v 7.608002 -8.08 -7.408413
v 5.899794 -8.08 -6.368207
v 5.899794 -10.08 -6.368207
v 7.943799 -10.08 -3.01158
v 5.899794 -8.08 -6.368207
v 7.943799 -8.08 -3.01158
v 7.943799 -8.08 -3.01158
v 9.652006 -8.08 -4.051786
v 5.899794 -8.08 -6.368207
v 7.608002 -8.08 -7.408413
v 5.899794 -10.08 -6.368207
v 7.608002 -10.08 -7.408413
v 7.943799 -10.08 -3.01158
v 9.652006 -10.08 -4.051786
f 236 237 238
f 237 239 238
f 240 241 242
f 241 243 242
f 244 245 246
f 245 247 246
f 248 249 250
f 249 251 250
f 252 253 254
f 253 255 254
f 256 257 258
f 257 259 258
v 9.125 -14 -29
v 14.875 -14 -29
v 9.125 -9.125 -29
v 14.875 -9.125 -29
v 14.875 -14 -29
v 15 -14 -42
v 14.875 -9.125 -29
v 14.875 -9.125 -42
v 15 -14 -42
v 9.125 -14 -42
v 14.875 -9.125 -42
v 9.125 -9.125 -42
v 9.125 -14 -42
v 9.125 -14 -29
v 9.125 -9.125 -42
v 9.125 -9.125 -29
v 9.125 -14 -42
v 15 -14 -42
v 9.125 -14 -29
v 14.875 -14 -29
v 9.125 -9.125 -29
v 14.875 -9.125 -29
v 9.125 -9.125 -42
v 14.875 -9.125 -42
f 260 261 262
f 261 263 262
f 264 265 266
f 265 267 266
f 268 269 270
f 269 271 270
f 272 273 274
f 273 275 274
f 276 277 278
f 277 279 278
f 280 281 282
f 281 283 282
v 16 -20 26
v 20.91682 -20 26.90825
v 16 -15 26
v 20.91682 -15 26.90825
v 20.91682 -20 26.90825
v 21.82506 -20 21.99143
v 20.91682 -15 26.90825
v 21.82506 -15 21.99143
v 21.82506 -20 21.99143
v 16.90825 -20 21.08318
v 21.82506 -15 21.99143
v 16.90825 -15 21.08318
v 16.90825 -20 21.08318
v 16 -20 26
v 16.90825 -15 21.08318
v 16 -15 26
v 16 -15 26
v 20.91682 -15 26.90825
v 16.90825 -15 21.08318
v 21.82506 -15 21.99143
v 16.90825 -20 21.08318
v 21.82506 -20 21.99143
v 16 -20 26
v 20.91682 -20 26.90825
f 284 285 286
f 285 287 286
f 288 289 290
f 289 291 290
f 292 293 294
f 293 295 294
f 296 297 298
f 297 299 298
f 300 301 302
f 301 303 302
f 304 305 306
f 305 307 306
v -37 -20 25
v -32 -20 25
v -37 -17 25
v -32 -17 25
v -27 -20 25
v -27 -20 15
v -27 -17 25
v -27 -17 15
v -32 -20 5
v -37 -20 5
v -32 -17 5
v -37 -17 5
v -37 -20 15
v -37 -20 25
v -37 -17 15
v -37 -17 25
v -37 -20 15
v -32 -20 15
v -37 -20 25
v -32 -20 25
v -27 -20 25
v -27 -20 15
v -27 -17 25
v -27 -20 25
v -27 -20 5
v -27 -17 5
v -37 -17 15
v -32 -17 15
v -37 -14 15
v -32 -14 15
v -32 -14 5
v -37 -14 5
v -27 -17 15
v -27 -14 15
v -27 -14 5
v -37 -17 10
v -37 -20 10
v -37 -17 5
v -37 -20 5
v -25 -20 10
v -32 -20 10
v -27 -20 5
v -32 -20 5
v -27 -20 15
v -25 -20 10
v -25 -17 10
v -27 -17 15
v -25 -20 10
v -27 -20 5
v -27 -17 5
v -25 -17 10
v -37 -20 10
v -37 -20 5
v -37 -14 5
v -37 -14 10
v -37 -14 15
v -25 -14 10
v -27 -14 15
v -27 -14 5
v -25 -14 10
v -37 -17 25
v -32 -17 25
v -37 -17 15
v -32 -17 15
v -27 -17 15
v -27 -17 25
v -25 -14 10
v -32 -14 10
v -32 -14 15
v -27 -14 15
v -27 -14 5
v -32 -14 5
v -37 -14 10
v -37 -14 15
v -37 -14 5
f 308 309 310
f 309 311 310
f 312 313 314
f 313 315 314
f 316 317 318
f 317 319 318
f 320 321 322
f 321 323 322
f 324 325 326
f 325 327 326
f 327 325 328
f 325 329 328
f 311 309 330
f 309 331 330
f 316 318 332
f 318 333 332
f 334 335 336
f 335 337 336
f 318 319 338
f 319 339 338
f 335 340 337
f 340 341 337
f 333 318 342
f 318 338 342
f 343 320 322
f 343 344 320
f 345 344 343
f 345 346 344
f 325 347 329
f 325 348 347
f 348 349 347
f 348 350 349
f 351 352 353
f 354 351 353
f 355 356 357
f 358 355 357
f 324 348 325
f 324 359 348
f 359 350 348
f 359 360 350
f 361 343 362
f 361 345 343
f 362 322 363
f 362 343 322
f 354 353 364
f 365 354 364
f 358 357 366
f 367 358 366
f 368 369 370
f 369 371 370
f 371 369 372
f 369 373 372
f 374 375 376
f 377 374 376
f 378 379 375
f 374 378 375
f 375 380 381
f 376 375 381
f 379 382 380
f 375 379 380
v -22 -15 26.26
v -17.07827 -14.95696 27.14016
v -21.86865 -14.36984 25.49472
v -16.94692 -14.3268 26.37489
v -17.07827 -14.95696 27.14016
v -16.25566 -20.39188 22.80599
v -16.94692 -14.3268 26.37489
v -16.12431 -19.76172 22.04072
v -16.25566 -20.39188 22.80599
v -21.17739 -20.43491 21.92583
v -16.12431 -19.76172 22.04072
v -21.04605 -19.80475 21.16055
v -21.17739 -20.43491 21.92583
v -22 -15 26.26
v -21.04605 -19.80475 21.16055
v -21.86865 -14.36984 25.49472
v -21.86865 -14.36984 25.49472
v -16.94692 -14.3268 26.37489
v -21.04605 -19.80475 21.16055
v -16.12431 -19.76172 22.04072
v -21.17739 -20.43491 21.92583
v -16.25566 -20.39188 22.80599
v -22 -15 26.26
v -17.07827 -14.95696 27.14016
f 383 384 385
f 384 386 385
f 387 388 389
f 388 390 389
f 391 392 393
f 392 394 393
f 395 396 397
f 396 398 397
f 399 400 401
f 400 402 401
f 403 404 405
f 404 406 405
v 0 -6 -31
v 2.264347 -6 -29.03207
v 1.87676E-06 -3 -31
v 2.264349 -3 -29.03208
v 2.264347 -6 -29.03207
v 4.232273 -6 -31.29642
v 2.264349 -3 -29.03208
v 4.232273 -3 -31.29642
v 4.232273 -6 -31.29642
v 1.967926 -6 -33.26435
v 4.232273 -3 -31.29642
v 1.967926 -3 -33.26435
v 1.967926 -6 -33.26435
v 0 -6 -31
v 1.967926 -3 -33.26435
v 1.87676E-06 -3 -31
v 1.87676E-06 -3 -31
v 2.264349 -3 -29.03208
v 1.967926 -3 -33.26435
v 4.232273 -3 -31.29642
v 1.967926 -6 -33.26435
v 4.232273 -6 -31.29642
v 0 -6 -31
v 2.264347 -6 -29.03207
f 407 408 409
f 408 410 409
f 411 412 413
f 412 414 413
f 415 416 417
f 416 418 417
f 419 420 421
f 420 422 421
f 423 424 425
f 424 426 425
f 427 428 429
f 428 430 429
v 2 -22 10
v 6 -22 10
v 2 -22 14
v 6 -22 14
v 10 -22 14
v 10 -22 10
v 6 -16 10
v 6 -16 14
v 10 -20 10
v 10 -20 14
v -2 -22 10
v -2 -22 14
v -6 -22 10
v -6 -22 14
v -6 -22 20
v -2 -22 20
v 10 -20 14
v 6 -16 14
v 8 -20 16
v 6 -20 18
v 6 -16 14
v 2 -16 14
v 6 -20 18
v 2 -20 18
v 10 -22 14
v 6 -22 18
v 10 -22 14
v 8 -22 16
v 6 -22 18
v 2 -22 18
v 6 -22 18
v 6 -20 18
v 2 -20 18
v 10 -22 14
v 10 -22 10
v 10 -20 10
v 10 -20 14
v 6 -18 10
v 2 -22 10
v 2 -18 10
v 6 -22 10
v 6 -16 10
v 2 -16 10
v -6 -18 10
v -6 -22 14
v -6 -18 14
v -6 -22 10
v -6 -16 10
v -6 -16 14
v 6 -22 18
v 8 -22 16
v 8 -20 16
v 6 -20 18
v 10 -20 10
v 10 -22 10
v -2 -18 10
v -2 -16 10
v -2 -22 10
v -2 -20 14
v 2 -20 14
v 2 -16 14
v -2 -16 14
v -6 -18 10
v -6 -16 10
v -6 -22 10
v -6 -22 20
v -2 -22 20
v -2 -20 20
v -6 -20 20
v -2 -20 20
v -2 -20 14
v -2 -16 14
v -6 -20 20
v -6 -22 20
v 2 -16 14
v 2 -20 14
v 2 -20 18
v 10 -22 14
v 10 -20 14
v 2 -16 14
v 6 -16 14
v 2 -16 10
v 6 -16 10
v -2 -16 14
v -2 -16 10
v -6 -16 14
v -6 -16 10
v -2 -16 14
v -6 -16 14
v -2 -20 20
v -6 -20 20
f 431 432 433
f 432 434 433
f 434 432 435
f 432 436 435
f 437 438 439
f 438 440 439
f 431 433 441
f 433 442 441
f 441 442 443
f 442 444 443
f 444 442 445
f 442 446 445
f 447 448 449
f 448 450 449
f 451 452 453
f 452 454 453
f 434 455 456
f 457 458 459
f 460 461 462
f 463 460 462
f 464 465 466
f 467 464 466
f 468 469 470
f 468 471 469
f 472 470 473
f 472 468 470
f 474 475 476
f 474 477 475
f 478 476 479
f 478 474 476
f 480 481 482
f 483 480 482
f 484 471 468
f 484 485 471
f 484 468 472
f 473 486 487
f 473 470 486
f 470 488 486
f 470 469 488
f 489 490 491
f 492 489 491
f 487 493 494
f 487 486 493
f 486 495 493
f 486 488 495
f 496 497 498
f 499 496 498
f 500 501 502
f 479 476 503
f 476 475 503
f 475 504 503
f 505 506 507
f 481 508 509
f 482 481 509
f 510 511 512
f 511 513 512
f 510 512 514
f 512 515 514
f 514 515 516
f 515 517 516
f 518 519 520
f 519 521 520
v 29 -41 37
v 35 -41 37
v 29 -22 37
v 35 -22 37
v 35 -41 37
v 35 -41 31
v 35 -22 37
v 35 -22 31
v 35 -41 31
v 29 -41 31
v 35 -22 31
v 29 -22 31
v 29 -41 31
v 29 -41 37
v 29 -22 31
v 29 -22 37
v 29 -22 37
v 35 -22 37
v 29 -22 31
v 35 -22 31
v 29 -41 31
v 35 -41 31
v 29 -41 37
v 35 -41 37
f 522 523 524
f 523 525 524
f 526 527 528
f 527 529 528
f 530 531 532
f 531 533 532
f 534 535 536
f 535 537 536
f 538 539 540
f 539 541 540
f 542 543 544
f 543 545 544
v -20 -18 13
v -16.25 -18 13
v -20 -8.682405 7.153426
v -16.25 -8.682403 7.153428
v -16.25 -18 13
v -16.25 -19.99315 9.823547
v -16.25 -8.682403 7.153428
v -16.25 -10.67555 3.976972
v -16.25 -19.99315 9.823547
v -20 -19.99315 9.823547
v -16.25 -10.67555 3.976972
v -20 -10.67555 3.976972
v -20 -19.99315 9.823547
v -20 -18 13
v -20 -10.67555 3.976972
v -20 -8.682405 7.153426
v -20 -8.682405 7.153426
v -16.25 -8.682403 7.153428
v -20 -10.67555 3.976972
v -16.25 -10.67555 3.976972
v -20 -19.99315 9.823547
v -16.25 -19.99315 9.823547
v -20 -18 13
v -16.25 -18 13
f 546 547 548
f 547 549 548
f 550 551 552
f 551 553 552
f 554 555 556
f 555 557 556
f 558 559 560
f 559 561 560
f 562 563 564
f 563 565 564
f 566 567 568
f 567 569 568
v 22 -14 -27
v 23.87643 -14 -26.30789
v 22 -10 -27.00001
v 23.87643 -10 -26.3079
v 23.87643 -14 -26.30789
v 24.56854 -14 -28.18432
v 23.87643 -10 -26.3079
v 24.56854 -10 -28.18432
v 24.56854 -14 -28.18432
v 22.69211 -14 -28.87643
v 24.56854 -10 -28.18432
v 22.69211 -10 -28.87643
v 22.69211 -14 -28.87643
v 22 -14 -27
v 22.69211 -10 -28.87643
v 22 -10 -27.00001
v 22 -10 -27.00001
v 23.87643 -10 -26.3079
v 22.69211 -10 -28.87643
v 24.56854 -10 -28.18432
v 22.69211 -14 -28.87643
v 24.56854 -14 -28.18432
v 22 -14 -27
v 23.87643 -14 -26.30789
f 570 571 572
f 571 573 572
f 574 575 576
f 575 577 576
f 578 579 580
f 579 581 580
f 582 583 584
f 583 585 584
f 586 587 588
f 587 589 588
f 590 591 592
f 591 593 592
v 28 -20 -23
v 31.58782 -20 -21.9091
v 28 -16.25 -23
v 31.58782 -16.25 -21.9091
v 31.58782 -20 -21.9091
v 32.67872 -20 -25.49692
v 31.58782 -16.25 -21.9091
v 32.67872 -16.25 -25.49692
v 32.67872 -20 -25.49692
v 29.0909 -20 -26.58782
v 32.67872 -16.25 -25.49692
v 29.0909 -16.25 -26.58782
v 29.0909 -20 -26.58782
v 28 -20 -23
v 29.0909 -16.25 -26.58782
v 28 -16.25 -23
v 28 -16.25 -23
v 31.58782 -16.25 -21.9091
v 29.0909 -16.25 -26.58782
v 32.67872 -16.25 -25.49692
v 29.0909 -20 -26.58782
v 32.67872 -20 -25.49692
v 28 -20 -23
v 31.58782 -20 -21.9091
f 594 595 596
f 595 597 596
f 598 599 600
f 599 601 600
f 602 603 604
f 603 605 604
f 606 607 608
f 607 609 608
f 610 611 612
f 611 613 612
f 614 615 616
f 615 617 616
v 16 -14.83 21
v 20.91682 -14.83 21.90825
v 16.09577 -13.98025 20.48158
v 21.01258 -13.98025 21.38982
v 20.91682 -14.83 21.90825
v 22.46037 -20.10192 13.55215
v 21.01258 -13.98025 21.38982
v 22.55614 -19.25217 13.03373
v 22.46037 -20.10192 13.55215
v 17.54355 -20.10192 12.6439
v 22.55614 -19.25217 13.03373
v 17.63932 -19.25217 12.12548
v 17.54355 -20.10192 12.6439
v 16 -14.83 21
v 17.63932 -19.25217 12.12548
v 16.09577 -13.98025 20.48158
v 16.09577 -13.98025 20.48158
v 21.01258 -13.98025 21.38982
v 17.63932 -19.25217 12.12548
v 22.55614 -19.25217 13.03373
v 17.54355 -20.10192 12.6439
v 22.46037 -20.10192 13.55215
v 16 -14.83 21
v 20.91682 -14.83 21.90825
f 618 619 620
f 619 621 620
f 622 623 624
f 623 625 624
f 626 627 628
f 627 629 628
f 630 631 632
f 631 633 632
f 634 635 636
f 635 637 636
f 638 639 640
f 639 641 640
v 15 -20 37
v 15 -20 33
v 15 -14 37
v 15 -14 33
v 2 -20 33
v 2 -20 37
v 2 -12 33
v 2 -12 37
v 10 -12 33
v 10 -20 33
v 10 -12 31
v 10 -20 31
v -8 -20 33
v -8 -12 33
v -8 -20 31
v -8 -12 31
v 2 -20 33
v 2 -12 33
v -2 -20 33
v -2 -12 33
v 2 -20 31
v 2 -20 33
v -2 -20 31
v -2 -20 33
v 2 -12 33
v 2 -12 31
v -2 -12 33
v -2 -12 31
v 2 -12 27
v 2 -14 27
v -2 -12 27
v -2 -14 27
v -2 -20 37
v -2 -12 37
v -8 -20 37
v -8 -12 37
v -8 -20 31
v -8 -20 33
v -8 -12 33
v -8 -12 31
v -8 -12 27
v -8 -13 27
v -2 -20 33
v -2 -12 33
v -2 -20 37
v -2 -12 37
v -8 -20 37
v -2 -20 37
v -2 -12 37
v -8 -12 37
v -8 -12 37
v -8 -20 37
v 2 -12 29
v -2 -12 29
v 2 -12 27
v -2 -12 27
v 2 -16 30
v -2 -20 31
v -2 -16 30
v 2 -20 31
v 2 -14 27
v -2 -16 30
v -2 -14 27
v 2 -16 30
v -8 -12 29
v -8 -12 27
v 10 -16 30
v 10 -12 29
v 10 -13 27
v 10 -12 27
v -2 -16 30
v -8 -20 31
v -8 -16 30
v -2 -20 31
v -2 -14 27
v -8 -16 30
v -8 -13 27
v -2 -16 30
v -8 -12 29
v -8 -16 30
v -8 -12 27
v -8 -13 27
v 8 -16 30
v 8 -13 27
v 10 -16 30
v 10 -13 27
v 8 -12 29
v 8 -12 31
v 10 -12 29
v 10 -12 31
v 8 -13 27
v 8 -12 27
v 10 -13 27
v 10 -12 27
v 8 -12 27
v 10 -12 27
v 8 -20 31
v 8 -16 30
v 10 -20 31
v 10 -16 30
v 8 -20 37
v 8 -20 33
v 10 -20 37
v 10 -20 33
v 8 -12 33
v 8 -12 37
v 10 -12 33
v 10 -12 37
v 8 -20 31
v 10 -20 31
v 8 -12 37
v 8 -20 37
v 10 -12 37
v 10 -20 37
v 2 -20 37
v 5 -20 37
v 5 -12 37
v 2 -12 37
v 5 -12 27
v 5 -13.5 27
v 5 -12 33
v 2 -12 37
v 5 -12 37
v 2 -20 37
v 5 -20 33
v 5 -20 37
v 5 -20 31
v 5 -12 31
v 5 -12 29
v 5 -12 27
v 2 -16 30
v 5 -16 30
v 5 -20 31
v 2 -20 31
v 8 -16 30
v 8 -20 31
v 2 -16 30
v 2 -14 27
v 5 -16 30
v 5 -13.5 27
v 5 -16 30
v 5 -13.5 27
v 8 -16 30
v 8 -13 27
v 13 -20 37
v 13 -20 33
v 12 -12 37
v 13 -20 37
v 10 -20 33
v 10 -12 33
v 13 -20 33
v 12 -12 33
v 12 -12 33
v 12 -12 37
v 15 -20 37
v 15 -20 33
v 15 -14 37
v 15 -20 37
v 15 -20 33
v 15 -14 33
v 12 -12 33
v 12 -12 37
v 15 -14 33
v 15 -14 37
f 642 643 644
f 643 645 644
f 646 647 648
f 647 649 648
f 650 651 652
f 651 653 652
f 654 655 656
f 655 657 656
f 658 659 660
f 659 661 660
f 662 663 664
f 663 665 664
f 666 667 668
f 667 669 668
f 670 671 672
f 671 673 672
f 674 675 676
f 675 677 676
f 664 665 678
f 665 679 678
f 668 669 680
f 669 681 680
f 672 673 682
f 673 683 682
f 684 685 686
f 685 687 686
f 679 665 688
f 665 689 688
f 668 680 690
f 680 691 690
f 655 654 692
f 654 693 692
f 694 695 669
f 667 694 669
f 696 697 695
f 694 696 695
f 698 699 700
f 698 701 699
f 702 703 704
f 702 705 703
f 695 706 681
f 669 695 681
f 697 707 706
f 695 697 706
f 653 708 652
f 708 709 652
f 708 710 709
f 710 711 709
f 712 713 714
f 712 715 713
f 716 717 718
f 716 719 717
f 657 720 721
f 657 721 656
f 720 722 723
f 720 723 721
f 724 725 726
f 725 727 726
f 728 729 730
f 729 731 730
f 732 733 734
f 733 735 734
f 736 728 737
f 728 730 737
f 738 739 740
f 739 741 740
f 742 743 744
f 743 745 744
f 746 747 748
f 747 749 748
f 729 746 731
f 746 748 731
f 743 750 745
f 750 751 745
f 752 753 754
f 753 755 754
f 756 757 758
f 759 756 758
f 757 753 752
f 758 757 752
f 760 733 732
f 760 732 761
f 670 760 761
f 670 761 671
f 762 666 763
f 764 762 763
f 746 762 764
f 747 746 764
f 765 766 767
f 765 663 766
f 767 743 742
f 767 766 743
f 766 750 743
f 766 768 750
f 663 768 766
f 663 662 768
f 769 667 666
f 762 769 666
f 729 769 762
f 746 729 762
f 728 770 769
f 729 728 769
f 770 694 667
f 769 770 667
f 736 771 770
f 728 736 770
f 771 696 694
f 770 771 694
f 772 773 774
f 772 774 775
f 773 776 777
f 773 777 774
f 778 779 780
f 780 779 781
f 782 783 784
f 784 783 785
f 744 745 786
f 745 787 786
f 754 755 788
f 755 789 788
f 790 791 792
f 791 793 792
f 748 749 794
f 749 795 794
f 786 787 796
f 787 797 796
f 788 789 798
f 789 799 798
f 792 793 800
f 793 801 800
f 802 803 804
f 803 805 804
v -20 -20 2
v -17.00112 -20 4.251491
v -20 -8.999999 1.999999
v -17.00112 -8.999999 4.251493
v -17.00112 -20 4.251491
v -14.74963 -20 1.25261
v -17.00112 -8.999999 4.251493
v -14.74962 -8.999999 1.252611
v -14.74963 -20 1.25261
v -17.74851 -20 -0.998881
v -14.74962 -8.999999 1.252611
v -17.74851 -8.999999 -0.9988825
v -17.74851 -20 -0.998881
v -20 -20 2
v -17.74851 -8.999999 -0.9988825
v -20 -8.999999 1.999999
v -20 -8.999999 1.999999
v -17.00112 -8.999999 4.251493
v -17.74851 -8.999999 -0.9988825
v -14.74962 -8.999999 1.252611
v -17.74851 -20 -0.998881
v -14.74963 -20 1.25261
v -20 -20 2
v -17.00112 -20 4.251491
f 806 807 808
f 807 809 808
f 810 811 812
f 811 813 812
f 814 815 816
f 815 817 816
f 818 819 820
f 819 821 820
f 822 823 824
f 823 825 824
f 826 827 828
f 827 829 828
v 16 -12 -4
v 15 -12 -4
v 15 -12 -3
v 16 -12 -3
v 15 -20 -3
v 16 -20 -4
v 16 -20 -3
v 15 -20 -4
v 18 -20 -4
v 18 -20 -3
v 18 -12 -4
v 18 -12 -3
v 19 -20 -4
v 19 -20 -3
v 19 -12 -4
v 19 -12 -3
v 25 -20 -4
v 25 -20 -3
v 25 -12 -4
v 25 -12 -3
v 26 -20 -4
v 26 -20 -3
v 26 -12 -4
v 26 -12 -3
v 28 -20 -4
v 28 -20 -3
v 28 -12 -4
v 28 -12 -3
v 29 -20 -4
v 29 -20 -3
v 29 -12 -4
v 29 -12 -3
v 29 -20 -3
v 29 -20 -4
v 29 -15 -4
v 29 -15 -3
v 35 -15 -3
v 35 -15 -4
v 35 -13 -4
v 35 -13 -3
v 25 -15 -4
v 26 -17 -3
v 25 -15 -3
v 26 -17 -4
v 26 -17 -4
v 26 -20 -3
v 26 -17 -3
v 26 -20 -4
v 19 -15 -3
v 25 -15 -4
v 25 -15 -3
v 19 -15 -4
v 18 -20 -3
v 18 -20 -4
v 18 -17 -4
v 18 -17 -3
v 18 -17 -3
v 18 -17 -4
v 19 -15 -4
v 19 -15 -3
v 15 -12 5
v 16 -12 5
v 15 -12 6
v 16 -12 6
v 15 -20 5
v 16 -20 5
v 15 -20 6
v 16 -20 6
v 18 -20 5
v 18 -20 6
v 18 -13 -3
v 16 -13 -3
v 16 -13 5
v 18 -13 5
v 18 -12 5
v 18 -12 6
v 19 -20 5
v 19 -20 6
v 19 -13 -3
v 19 -13 5
v 19 -12 5
v 19 -12 6
v 25 -20 5
v 25 -20 6
v 25 -13 -3
v 25 -13 5
v 25 -12 5
v 25 -12 6
v 26 -20 5
v 26 -20 6
v 26 -13 -3
v 26 -13 5
v 26 -12 5
v 26 -12 6
v 28 -20 5
v 28 -20 6
v 28 -13 -3
v 28 -13 5
v 28 -12 5
v 28 -12 6
v 29 -20 5
v 29 -20 6
v 29 -12 5
v 29 -12 6
v 29 -20 6
v 29 -20 5
v 29 -15 5
v 29 -15 6
v 35 -15 6
v 35 -15 5
v 35 -13 5
v 35 -13 6
v 25 -15 5
v 26 -17 6
v 25 -15 6
v 26 -17 5
v 26 -17 5
v 26 -20 6
v 26 -17 6
v 26 -20 5
v 19 -15 5
v 25 -15 5
v 19 -15 6
v 25 -15 6
v 18 -20 6
v 18 -20 5
v 18 -17 5
v 18 -17 6
v 18 -17 6
v 18 -17 5
v 19 -15 5
v 19 -15 6
v 35 -12 5
v 35 -12 -3
v 35 -12 -4
v 35 -12 6
v 35 -20 5
v 35 -20 -3
v 29 -11 -3
v 29 -8 5
v 35 -11 -3
v 35 -8 5
v 29 -8 5
v 29 -8 6
v 35 -8 5
v 35 -8 6
v 35 -20 -4
v 29 -11 -4
v 29 -11 -3
v 35 -11 -4
v 35 -11 -3
v 35 -20 6
v 35 -8 5
v 35 -11 -3
v 35 -8 6
v 35 -11 -4
v 29 -15 5
v 29 -15 -3
v 29 -20 5
v 29 -20 -3
v 35 -20 5
v 35 -20 6
v 35 -20 -3
v 29 -15 -4
v 29 -20 -4
v 35 -20 -4
v 29 -15 6
v 29 -20 6
v 15 -20 6
v 16 -20 6
v 16 -15 6
v 15 -15 6
v 16 -13 6
v 15 -13 6
v 16 -15 -4
v 15 -20 -4
v 15 -15 -4
v 16 -20 -4
v 16 -13 -4
v 15 -13 -4
v 18 -17 6
v 18 -13 6
v 18 -20 6
v 18 -17 -4
v 18 -20 -4
v 18 -13 -4
v 19 -15 6
v 19 -13 6
v 19 -13 -4
v 19 -15 -4
v 25 -15 6
v 25 -13 6
v 25 -13 -4
v 25 -15 -4
v 26 -17 6
v 26 -13 6
v 26 -13 -4
v 26 -17 -4
v 28 -15 6
v 28 -13 6
v 26 -20 6
v 28 -20 6
v 28 -15 -4
v 26 -20 -4
v 28 -20 -4
v 28 -13 -4
v 29 -15 6
v 29 -13 6
v 29 -20 6
v 29 -15 -4
v 29 -20 -4
v 29 -13 -4
v 15 -15 -4
v 15 -20 -3
v 15 -15 -3
v 15 -20 -4
v 15 -13 -4
v 15 -13 -3
v 15 -15 5
v 15 -20 6
v 15 -15 6
v 15 -20 5
v 15 -13 5
v 15 -13 6
v 28 -12 -4
v 26 -12 -4
v 28 -13 -3
v 28 -13 5
v 28 -12 -3
v 28 -12 5
v 28 -12 6
v 29 -12 6
v 29 -12 -4
v 26 -13 -3
v 28 -13 -3
v 26 -12 -3
v 28 -12 -3
v 25 -13 -3
v 25 -12 -3
v 25 -12 -4
v 19 -13 -3
v 19 -12 -3
v 19 -12 -4
v 18 -13 -3
v 18 -12 -3
v 18 -12 -4
v 16 -13 -3
v 16 -12 -3
v 16 -12 -4
v 15 -12 -3
v 15 -12 5
v 15 -12 -4
v 15 -12 -4
v 16 -13 5
v 16 -13 -3
v 16 -12 5
v 16 -12 -3
v 15 -12 6
v 15 -12 6
v 16 -12 6
v 18 -13 5
v 16 -13 5
v 18 -12 5
v 16 -12 5
v 18 -12 6
v 19 -13 5
v 19 -12 5
v 19 -12 6
v 25 -13 5
v 25 -12 5
v 25 -12 6
v 26 -13 5
v 26 -12 5
v 26 -12 6
v 28 -13 5
v 28 -12 5
v 35 -13 6
v 35 -15 6
v 35 -15 -4
v 35 -13 -4
v 35 -12 -4
v 35 -12 6
v 29 -12 5
v 29 -12 6
v 29 -8 5
v 29 -8 6
v 29 -8 6
v 35 -8 6
v 29 -12 -3
v 29 -11 -3
v 29 -12 -4
v 29 -11 -4
v 35 -11 -4
v 29 -11 -4
v 35 -20 -4
v 35 -20 6
f 830 831 832
f 833 830 832
f 834 835 836
f 834 837 835
f 836 838 839
f 836 835 838
f 840 830 833
f 841 840 833
f 839 842 843
f 839 838 842
f 844 840 841
f 845 844 841
f 843 846 847
f 843 842 846
f 848 844 845
f 849 848 845
f 847 850 851
f 847 846 850
f 852 848 849
f 853 852 849
f 851 854 855
f 851 850 854
f 856 852 853
f 857 856 853
f 855 858 859
f 855 854 858
f 860 856 857
f 861 860 857
f 862 863 864
f 865 862 864
f 866 867 868
f 869 866 868
f 870 871 872
f 870 873 871
f 874 875 876
f 874 877 875
f 878 879 880
f 878 881 879
f 882 883 884
f 885 882 884
f 886 887 888
f 889 886 888
f 833 832 890
f 891 833 890
f 891 890 892
f 893 891 892
f 894 836 895
f 894 834 836
f 896 895 897
f 896 894 895
f 895 839 898
f 895 836 839
f 897 898 899
f 897 895 898
f 900 901 902
f 903 900 902
f 904 891 893
f 905 904 893
f 898 843 906
f 898 839 843
f 899 906 907
f 899 898 906
f 908 900 903
f 909 908 903
f 910 904 905
f 911 910 905
f 906 847 912
f 906 843 847
f 907 912 913
f 907 906 912
f 914 908 909
f 915 914 909
f 916 910 911
f 917 916 911
f 912 851 918
f 912 847 851
f 913 918 919
f 913 912 918
f 920 914 915
f 921 920 915
f 922 916 917
f 923 922 917
f 918 855 924
f 918 851 855
f 919 924 925
f 919 918 924
f 926 920 921
f 927 926 921
f 928 922 923
f 929 928 923
f 924 859 930
f 924 855 859
f 925 930 931
f 925 924 930
f 861 857 928
f 932 861 928
f 932 928 929
f 933 932 929
f 934 935 936
f 937 934 936
f 935 862 865
f 936 935 865
f 938 939 940
f 941 938 940
f 939 866 869
f 940 939 869
f 942 943 944
f 942 945 943
f 872 945 942
f 872 871 945
f 946 947 948
f 946 949 947
f 876 949 946
f 876 875 949
f 950 880 951
f 950 878 880
f 952 951 953
f 952 950 951
f 954 955 956
f 957 954 956
f 955 882 885
f 956 955 885
f 958 959 960
f 961 958 960
f 959 886 889
f 960 959 889
f 940 869 962
f 869 963 962
f 869 868 963
f 868 964 963
f 941 940 965
f 940 962 965
f 930 859 966
f 859 967 966
f 968 969 970
f 969 971 970
f 972 973 974
f 973 975 974
f 859 858 967
f 858 976 967
f 977 978 979
f 978 980 979
f 931 930 981
f 930 966 981
f 962 963 982
f 963 983 982
f 965 962 984
f 962 982 984
f 963 964 983
f 964 985 983
f 986 987 988
f 987 989 988
f 939 938 990
f 938 991 990
f 866 939 992
f 939 990 992
f 987 993 989
f 993 994 989
f 867 866 995
f 866 992 995
f 996 986 997
f 986 988 997
f 998 999 1000
f 1001 998 1000
f 1001 1000 1002
f 1003 1001 1002
f 1004 1005 1006
f 1004 1007 1005
f 1008 1006 1009
f 1008 1004 1006
f 1000 1010 1011
f 1002 1000 1011
f 999 1012 1010
f 1000 999 1010
f 1013 1007 1004
f 1013 1014 1007
f 1015 1004 1008
f 1015 1013 1004
f 1010 1016 1017
f 1011 1010 1017
f 1018 1013 1015
f 1018 1019 1013
f 1016 1020 1021
f 1017 1016 1021
f 1022 1019 1018
f 1022 1023 1019
f 1020 1024 1025
f 1021 1020 1025
f 1026 1023 1022
f 1026 1027 1023
f 1024 1028 1029
f 1025 1024 1029
f 1030 1031 1028
f 1024 1030 1028
f 1032 1033 1027
f 1032 1034 1033
f 1035 1027 1026
f 1035 1032 1027
f 1028 1036 1037
f 1029 1028 1037
f 1031 1038 1036
f 1028 1031 1036
f 1039 1034 1032
f 1039 1040 1034
f 1041 1032 1035
f 1041 1039 1032
f 1042 1043 1044
f 1042 1045 1043
f 1046 1044 1047
f 1046 1042 1044
f 1048 1049 1050
f 1048 1051 1049
f 1044 1051 1048
f 1044 1043 1051
f 1052 1050 1053
f 1052 1048 1050
f 1047 1048 1052
f 1047 1044 1048
f 1035 1026 1054
f 1026 1055 1054
f 1056 1057 1058
f 1057 1059 1058
f 1029 1037 1060
f 1037 1061 1060
f 1041 1035 1062
f 1035 1054 1062
f 1063 1064 1065
f 1064 1066 1065
f 1067 1063 1068
f 1063 1065 1068
f 1026 1022 1055
f 1022 1069 1055
f 1070 1067 1071
f 1067 1068 1071
f 1022 1018 1069
f 1018 1072 1069
f 1073 1070 1074
f 1070 1071 1074
f 1018 1015 1072
f 1015 1075 1072
f 1076 1073 1077
f 1073 1074 1077
f 1015 1008 1075
f 1008 1078 1075
f 1047 1052 1079
f 1052 1080 1079
f 1008 1009 1078
f 1009 1081 1078
f 1046 1047 1082
f 1047 1079 1082
f 1083 1084 1085
f 1084 1086 1085
f 1052 1053 1080
f 1053 1087 1080
f 1003 1002 1088
f 1002 1089 1088
f 1090 1091 1092
f 1091 1093 1092
f 1002 1011 1089
f 1011 1094 1089
f 1095 1090 1096
f 1090 1092 1096
f 1011 1017 1094
f 1017 1097 1094
f 1098 1095 1099
f 1095 1096 1099
f 1017 1021 1097
f 1021 1100 1097
f 1101 1098 1102
f 1098 1099 1102
f 1021 1025 1100
f 1025 1103 1100
f 1104 1101 1105
f 1101 1102 1105
f 1025 1029 1103
f 1029 1060 1103
f 1037 1036 1106
f 1036 1107 1106
f 1039 1041 1108
f 1041 1109 1108
f 1041 1062 1109
f 1062 1110 1109
f 1061 1037 1111
f 1037 1106 1111
f 1112 1113 1114
f 1113 1115 1114
f 1061 1111 1116
f 1111 1117 1116
f 1118 1112 1119
f 1112 1114 1119
f 1120 1118 1121
f 1118 1119 1121
f 1110 1062 1122
f 1062 1123 1122
f 1039 1108 1040
f 1108 1124 1040
f 1107 1036 1125
f 1036 1038 1125
v -1.41 -6 -30.6
v 0.9988796 -6 -32.3881
v -1.410002 -3 -30.6
v 0.9988778 -3 -32.3881
v 0.9988796 -6 -32.3881
v -0.7892197 -6 -34.79698
v 0.9988778 -3 -32.3881
v -0.7892197 -3 -34.79698
v -0.7892197 -6 -34.79698
v -3.198099 -6 -33.00888
v -0.7892197 -3 -34.79698
v -3.198099 -3 -33.00888
v -3.198099 -6 -33.00888
v -1.41 -6 -30.6
v -3.198099 -3 -33.00888
v -1.410002 -3 -30.6
v -1.410002 -3 -30.6
v 0.9988778 -3 -32.3881
v -3.198099 -3 -33.00888
v -0.7892197 -3 -34.79698
v -3.198099 -6 -33.00888
v -0.7892197 -6 -34.79698
v -1.41 -6 -30.6
v 0.9988796 -6 -32.3881
f 1126 1127 1128
f 1127 1129 1128
f 1130 1131 1132
f 1131 1133 1132
f 1134 1135 1136
f 1135 1137 1136
f 1138 1139 1140
f 1139 1141 1140
f 1142 1143 1144
f 1143 1145 1144
f 1146 1147 1148
f 1147 1149 1148
v -30 -14 13
v -27.36886 -14 11.55878
v -30 -11 13
v -27.36887 -11 11.55877
v -27.36886 -14 11.55878
v -28.81009 -14 8.927641
v -27.36887 -11 11.55877
v -28.81009 -11 8.927641
v -28.81009 -14 8.927641
v -31.44122 -14 10.36886
v -28.81009 -11 8.927641
v -31.44122 -11 10.36886
v -31.44122 -14 10.36886
v -30 -14 13
v -31.44122 -11 10.36886
v -30 -11 13
v -30 -11 13
v -27.36887 -11 11.55877
v -31.44122 -11 10.36886
v -28.81009 -11 8.927641
v -31.44122 -14 10.36886
v -28.81009 -14 8.927641
v -30 -14 13
v -27.36886 -14 11.55878
f 1150 1151 1152
f 1151 1153 1152
f 1154 1155 1156
f 1155 1157 1156
f 1158 1159 1160
f 1159 1161 1160
f 1162 1163 1164
f 1163 1165 1164
f 1166 1167 1168
f 1167 1169 1168
f 1170 1171 1172
f 1171 1173 1172
v 29 -6 31
v 35.00058 -6 30.99971
v 29 -4 31
v 35.00058 -4 30.99971
v 35 -6 17
v 29 -6 17
v 35 -4 17
v 29 -4 17
v 29 -6 17
v 29 -6 27
v 29 -4 27
v 29 -4 17
v 25 -6 27
v 25 -6 31
v 25 -4 31
v 25 -4 27
v 35.00029 -4 26.99971
v 35.00058 -4 30.99971
v 35.00058 -6 30.99971
v 35.00029 -6 26.99971
v 35 -4 17
v 35 -6 17
v 29 -6 27
v 29 -6 17
v 35.00029 -6 26.99971
v 35 -6 17
v 29 -6 31
v 35.00058 -6 30.99971
v 29 -6 27
v 29 -6 31
v 29 -6 27
v 29 -6 31
v 29 -6 31
v 29 -6 27
v 29 -6 31
v 29 -4 31
v 29 -6 31
v 29 -4 31
v 29 -4 31
v 29 -6 31
v 29 -4 27
v 29 -6 27
v 29 -4 27
v 29 -6 27
v 29 -6 27
v 29 -4 27
v 25 -6 27
v 25 -6 31
v 29 -6 37
v 29 -4 37
v 25 -6 37
v 25 -4 37
v 29 -4 27
v 29 -6 27
v 25 -4 27
v 25 -6 27
v 29 -6 31
v 29 -4 31
v 29 -6 37
v 29 -4 37
v 25 -6 37
v 29 -6 37
v 25 -4 37
v 25 -6 37
v 35 -4 17
v 29 -4 17
v 35.00029 -4 26.99971
v 29 -4 27
v 35.00058 -4 30.99971
v 29 -4 31
v 29 -4 31
v 29 -4 27
v 29 -4 31
v 29 -4 27
v 29 -4 27
v 29 -4 31
v 25 -4 31
v 25 -4 27
v 29 -4 37
v 25 -4 37
f 1174 1175 1176
f 1175 1177 1176
f 1178 1179 1180
f 1179 1181 1180
f 1182 1183 1184
f 1185 1182 1184
f 1186 1187 1188
f 1189 1186 1188
f 1190 1191 1192
f 1193 1190 1192
f 1190 1193 1194
f 1194 1193 1195
f 1196 1197 1198
f 1198 1197 1199
f 1200 1196 1201
f 1201 1196 1198
f 1202 1203 1204
f 1205 1206 1207
f 1208 1209 1210
f 1211 1212 1213
f 1214 1215 1216
f 1217 1218 1219
f 1196 1200 1220
f 1200 1221 1220
f 1222 1223 1224
f 1223 1225 1224
f 1226 1227 1228
f 1227 1229 1228
f 1230 1231 1232
f 1231 1233 1232
f 1221 1200 1234
f 1200 1235 1234
f 1188 1187 1236
f 1187 1237 1236
f 1238 1239 1240
f 1240 1239 1241
f 1240 1241 1242
f 1242 1241 1243
f 1244 1245 1246
f 1247 1248 1249
f 1243 1241 1250
f 1241 1251 1250
f 1243 1250 1252
f 1250 1253 1252
v 13 -20 30
v 17.0822 -20 32.88716
v 13 -17 30
v 17.0822 -17 32.88716
v 17.0822 -20 32.88716
v 19.96935 -20 28.80496
v 17.0822 -17 32.88716
v 19.96935 -17 28.80496
v 19.96935 -20 28.80496
v 15.88716 -20 25.9178
v 19.96935 -17 28.80496
v 15.88716 -17 25.9178
v 15.88716 -20 25.9178
v 13 -20 30
v 15.88716 -17 25.9178
v 13 -17 30
v 13 -17 30
v 17.0822 -17 32.88716
v 15.88716 -17 25.9178
v 19.96935 -17 28.80496
v 15.88716 -20 25.9178
v 19.96935 -20 28.80496
v 13 -20 30
v 17.0822 -20 32.88716
f 1254 1255 1256
f 1255 1257 1256
f 1258 1259 1260
f 1259 1261 1260
f 1262 1263 1264
f 1263 1265 1264
f 1266 1267 1268
f 1267 1269 1268
f 1270 1271 1272
f 1271 1273 1272
f 1274 1275 1276
f 1275 1277 1276
v 0.125 -14 -29
v 5.875 -14 -29
v 0.125 -9.125 -29
v 5.875 -9.125 -29
v 5.875 -14 -29
v 6 -14 -42
v 5.875 -9.125 -29
v 5.875 -9.125 -42
v 6 -14 -42
v 0.125 -14 -42
v 5.875 -9.125 -42
v 0.125 -9.125 -42
v 0.125 -14 -42
v 0.125 -14 -29
v 0.125 -9.125 -42
v 0.125 -9.125 -29
v 0.125 -14 -42
v 6 -14 -42
v 0.125 -14 -29
v 5.875 -14 -29
v 0.125 -9.125 -29
v 5.875 -9.125 -29
v 0.125 -9.125 -42
v 5.875 -9.125 -42
f 1278 1279 1280
f 1279 1281 1280
f 1282 1283 1284
f 1283 1285 1284
f 1286 1287 1288
f 1287 1289 1288
f 1290 1291 1292
f 1291 1293 1292
f 1294 1295 1296
f 1295 1297 1296
f 1298 1299 1300
f 1299 1301 1300
v 10 -13 3.5
v 10 -13 -1.5
v 10 -10 3.5
v 10 -10 -1.5
v 2 -14 -1
v 2 -14 3
v 2 -10 -1
v 2 -10 3
v 2 -14 -1
v 2 -10 -1
v -2 -14 -1
v -2 -10 -1
v 2 -10 -8
v 2 -20 -8
v -2 -10 -8
v -2 -20 -8
v -2 -14 -1
v -2 -10 -1
v -2 -14 3
v -2 -10 3
v -10 -10 -1
v -10 -13 -1
v -10 -10 3
v -10 -13 3
v -2 -14 3
v -2 -10 3
v 2 -14 3
v 2 -10 3
v -2 -10 10
v -2 -20 10
v 2 -10 10
v 2 -20 10
v -4 -20 10
v -4 -10 10
v -4 -20 -8
v -4 -10 -8
v 2 -14 3
v 4 -14 3
v 4 -10 3
v 2 -10 3
v 4 -10 -8
v 4 -20 -8
v 4 -10 3
v 2 -14 3
v 2 -10 3
v 4 -14 3
v 4 -20 10
v 4 -10 10
v 10 -20 -2.5
v 10 -10 -2.5
v 10 -20 -8
v 10 -10 -8
v -10 -10 -2
v -10 -20 -3
v -10 -10 -8
v -10 -20 -8
v -2 -24 -1
v 2 -24 -8
v 2 -24 -1
v -2 -24 -8
v -4 -24 -2
v -4 -24 -8
v 4 -24 -8
v 4 -24 -2
v 10 -20 4.5
v 10 -10 4.5
v 10 -20 10
v 10 -10 10
v -10 -20 4
v -10 -10 4
v -10 -20 10
v -10 -10 10
v -2 -24 10
v 2 -24 6
v 2 -24 10
v -2 -24 6
v -4 -24 10
v -4 -24 5
v 4 -24 5
v 4 -24 10
v 4 -14 3
v 9 -13 3.5
v 9 -10 3.5
v 4 -10 3
v 9 -13 3.5
v 10 -13 3.5
v 10 -10 3.5
v 9 -10 3.5
v 9 -10 -8
v 9 -20 -8
v 10 -10 -8
v 10 -20 -8
v 9 -10 3.5
v 4 -14 3
v 4 -10 3
v 9 -13 3.5
v 10 -10 3.5
v 9 -13 3.5
v 9 -10 3.5
v 10 -13 3.5
v 9 -20 10
v 9 -10 10
v 10 -20 10
v 10 -10 10
v 9 -24 -2.5
v 10 -24 -8
v 10 -24 -2.5
v 9 -24 -8
v 10 -24 10
v 9 -24 10
v 9 -24 5
v 10 -24 4.5
v 2 -20 6
v 4 -20 5
v 2 -24 6
v 4 -24 5
v 2 -24 10
v -2 -24 10
v -4 -24 10
v -2 -20 6
v 2 -20 6
v -2 -24 6
v 2 -24 6
v 4 -20 5
v 9 -20 4.5
v 4 -24 5
v 9 -24 5
v 4 -24 10
v 9 -24 10
v 9 -20 4.5
v 10 -20 4.5
v 9 -24 5
v 10 -24 4.5
v 10 -24 10
v 10 -24 4.5
v 10 -24 10
v -4 -20 5
v -2 -20 6
v -4 -24 5
v -2 -24 6
v -10 -24 10
v -10 -24 4.5
v 9 -24 -8
v 10 -24 -8
v 9 -20 -2.5
v 4 -20 -2
v 9 -24 -2.5
v 4 -24 -2
v 4 -20 -2
v 2 -20 -1
v 4 -24 -2
v 2 -24 -1
v 4 -24 -8
v 10 -24 -8
v 10 -24 -2.5
v 10 -20 -2.5
v 9 -20 -2.5
v 10 -24 -2.5
v 9 -24 -2.5
v 2 -20 -1
v -2 -20 -1
v 2 -24 -1
v -2 -24 -1
v 2 -24 -8
v -2 -20 -1
v -4 -20 -2
v -2 -24 -1
v -4 -24 -2
v -2 -24 -8
v -4 -24 -8
v -10 -24 -2
v -10 -24 -8
v -10 -20 10
v -9 -20 10
v -9 -10 10
v -10 -10 10
v -9 -10 -8
v -10 -20 -8
v -10 -10 -8
v -9 -20 -8
v -10 -13.25 2.75
v -9 -13.25 -0.8307419
v -9 -13.25 2.75
v -10 -13.25 -0.8307419
v -9 -24 -2
v -9 -24 -8
v -10 -24 -2
v -10 -24 -8
v -10 -20.09285 -2.767881
v -9 -20.09285 -2.767881
v -9 -13.25 -0.8307419
v -10 -13.25 -0.8307419
v -9 -13.25 2.75
v -9 -20.09285 4
v -10 -20.09285 4
v -10 -13.25 2.75
v -9 -24 10
v -9 -24 4.5
v -10 -24 10
v -10 -24 4.5
v -9 -24 10
v -10 -24 10
v -10 -20 4
v -9 -20 4
v -9 -24 4.5
v -10 -24 4.5
v -4 -20 5
v -9 -24 4.5
v -9 -20 4
v -4 -24 5
v -9 -24 -2
v -4 -24 -2
v -4 -20 -2
v -9 -20 -3
v -10 -24 -2
v -9 -24 -2
v -9 -20 -3
v -10 -20 -3
v -10 -24 -8
v -9 -24 -8
v -9 -13 -1
v -9 -13 3
v -9 -13.25 -0.8307419
v -9 -13.25 2.75
v -10 -20 -3
v -9 -20 -3
v -10 -20.09285 -2.767881
v -9 -20.09285 -2.767881
v -10 -13.25 2.75
v -10 -13.25 -0.8307419
v -9 -20 4
v -9 -20.09285 4
v -9 -20 4
v -10 -20 4
v -9 -20.09285 4
v -10 -20.09285 4
v -10 -20.09285 4
v -9 -20 -3
v -9 -20.09285 -2.767881
v -10 -20.09285 -2.767881
v -2 -10 -1
v -4 -10 -1
v -4 -10 3
v -2 -10 3
v 4 -10 -1
v 2 -10 -1
v 2 -10 3
v 4 -10 3
v 2 -10 -2
v -2 -10 -2
v 2 -10 -8
v -2 -10 -8
v -4 -10 -8
v -4 -10 -2
v 4 -10 -8
v 4 -10 -2
v -2 -10 4
v 2 -10 4
v -2 -10 10
v 2 -10 10
v -4 -10 4
v -4 -10 10
v 4 -10 4
v 4 -10 10
v 10 -10 -1.5
v 9 -10 -1.5
v 9 -10 3.5
v 10 -10 3.5
v 10 -10 -8
v 9 -10 -8
v 9 -10 -2.5
v 10 -10 -2.5
v 9 -10 4.5
v 10 -10 4.5
v 9 -10 10
v 10 -10 10
v -9 -10 -1
v -9 -10 3
v -10 -10 -1
v -10 -10 3
v -9 -10 -8
v -9 -10 -2
v -10 -10 -8
v -10 -10 -2
v -9 -10 4
v -10 -10 4
v -9 -10 10
v -10 -10 10
v -4 -14 3
v -2 -14 -1
v -2 -14 3
v -4 -14 -1
v 2 -14 3
v 4 -14 -1
v 4 -14 3
v 2 -14 -1
v -2 -14 -1
v 2 -20 -1
v 2 -14 -1
v -2 -20 -1
v -4 -14 -1
v -2 -20 -1
v -2 -14 -1
v -4 -20 -2
v 2 -14 -1
v 4 -20 -2
v 4 -14 -1
v 2 -20 -1
v -2 -20 6
v 2 -14 3
v 2 -20 6
v -2 -14 3
v -4 -20 5
v -2 -14 3
v -2 -20 6
v -4 -14 3
v 2 -20 6
v 4 -14 3
v 4 -20 5
v 2 -14 3
v 4 -14 3
v 9 -13 -1.5
v 9 -13 3.5
v 4 -14 -1
v 4 -20 -2
v 9 -20 -2.5
v 9 -13 -1.5
v 4 -14 -1
v 9 -13 3.5
v 9 -20 4.5
v 4 -14 3
v 4 -20 5
v -9 -13 3
v -4 -14 -1
v -4 -14 3
v -9 -13 -1
v -9 -20 -3
v -4 -20 -2
v -4 -14 -1
v -9 -13 -1
v -4 -14 3
v -4 -20 5
v -9 -20 4
v -9 -13 3
v 9 -13.25 3.25
v 10 -13.25 -1.295049
v 10 -13.25 3.25
v 9 -13.25 -1.295049
v 9 -20.04903 -2.254855
v 10 -20.04903 -2.254855
v 10 -13.25 -1.295049
v 9 -13.25 -1.295049
v 10 -13.25 3.25
v 10 -20.04903 4.25
v 9 -13.25 3.25
v 9 -20.04903 4.25
v 10 -13 -1.5
v 10 -13 3.5
v 10 -13.25 -1.295049
v 10 -13.25 3.25
v 10 -20 4.5
v 9 -20 4.5
v 10 -20.04903 4.25
v 9 -20.04903 4.25
v 9 -13 3.5
v 9 -13 -1.5
v 9 -13.25 3.25
v 9 -13.25 -1.295049
v 10 -20 4.5
v 10 -20.04903 4.25
v 9 -20 4.5
v 9 -20.04903 4.25
v 9 -20 -2.5
v 10 -20 -2.5
v 9 -20.04903 -2.254855
v 10 -20.04903 -2.254855
v 10 -20 -2.5
v 10 -20.04903 -2.254855
v 9 -20 -2.5
v 9 -20.04903 -2.254855
f 1302 1303 1304
f 1303 1305 1304
f 1306 1307 1308
f 1307 1309 1308
f 1310 1311 1312
f 1311 1313 1312
f 1314 1315 1316
f 1315 1317 1316
f 1318 1319 1320
f 1319 1321 1320
f 1322 1323 1324
f 1323 1325 1324
f 1326 1327 1328
f 1327 1329 1328
f 1330 1331 1332
f 1331 1333 1332
f 1334 1331 1330
f 1335 1334 1330
f 1316 1336 1337
f 1316 1317 1336
f 1338 1339 1340
f 1341 1338 1340
f 1342 1315 1314
f 1342 1343 1315
f 1344 1345 1346
f 1344 1347 1345
f 1333 1348 1349
f 1332 1333 1349
f 1303 1350 1351
f 1305 1303 1351
f 1350 1352 1353
f 1351 1350 1353
f 1354 1323 1322
f 1354 1355 1323
f 1356 1355 1354
f 1356 1357 1355
f 1358 1359 1360
f 1358 1361 1359
f 1362 1361 1358
f 1362 1363 1361
f 1360 1364 1365
f 1360 1359 1364
f 1366 1302 1304
f 1367 1366 1304
f 1368 1366 1367
f 1369 1368 1367
f 1324 1370 1371
f 1324 1325 1370
f 1371 1372 1373
f 1371 1370 1372
f 1374 1375 1376
f 1374 1377 1375
f 1378 1377 1374
f 1378 1379 1377
f 1376 1380 1381
f 1376 1375 1380
f 1382 1383 1384
f 1385 1382 1384
f 1386 1387 1388
f 1389 1386 1388
f 1390 1343 1342
f 1390 1391 1343
f 1392 1391 1390
f 1392 1393 1391
f 1394 1395 1396
f 1394 1397 1395
f 1398 1399 1400
f 1398 1401 1399
f 1348 1402 1403
f 1349 1348 1403
f 1402 1404 1405
f 1403 1402 1405
f 1406 1407 1408
f 1406 1409 1407
f 1365 1409 1406
f 1365 1364 1409
f 1410 1411 1412
f 1410 1412 1413
f 1411 1381 1380
f 1411 1380 1412
f 1414 1415 1416
f 1415 1417 1416
f 1333 1331 1418
f 1331 1419 1418
f 1331 1334 1419
f 1334 1420 1419
f 1421 1422 1423
f 1422 1424 1423
f 1425 1426 1427
f 1426 1428 1427
f 1348 1333 1429
f 1333 1418 1429
f 1402 1348 1430
f 1348 1429 1430
f 1431 1432 1433
f 1432 1434 1433
f 1404 1402 1435
f 1402 1430 1435
f 1366 1368 1436
f 1368 1437 1436
f 1438 1439 1440
f 1439 1441 1440
f 1372 1370 1442
f 1370 1443 1442
f 1391 1393 1444
f 1393 1445 1444
f 1446 1447 1448
f 1447 1449 1448
f 1450 1451 1452
f 1451 1453 1452
f 1343 1391 1454
f 1391 1444 1454
f 1352 1350 1455
f 1350 1456 1455
f 1457 1458 1459
f 1458 1460 1459
f 1461 1462 1463
f 1462 1464 1463
f 1315 1343 1465
f 1343 1454 1465
f 1466 1467 1468
f 1467 1469 1468
f 1317 1315 1470
f 1315 1465 1470
f 1336 1317 1471
f 1317 1470 1471
f 1355 1357 1472
f 1357 1473 1472
f 1474 1475 1476
f 1477 1474 1476
f 1475 1334 1335
f 1476 1475 1335
f 1478 1479 1480
f 1478 1481 1479
f 1337 1481 1478
f 1337 1336 1481
f 1482 1483 1484
f 1482 1485 1483
f 1486 1363 1362
f 1486 1487 1363
f 1488 1487 1486
f 1488 1489 1487
f 1490 1491 1492
f 1493 1490 1492
f 1494 1495 1496
f 1494 1496 1497
f 1498 1379 1378
f 1498 1499 1379
f 1500 1499 1498
f 1500 1501 1499
f 1502 1420 1334
f 1475 1502 1334
f 1503 1502 1475
f 1474 1503 1475
f 1504 1505 1506
f 1504 1506 1507
f 1508 1509 1510
f 1508 1511 1509
f 1512 1513 1514
f 1515 1512 1514
f 1516 1517 1518
f 1519 1516 1518
f 1481 1520 1479
f 1481 1521 1520
f 1336 1521 1481
f 1336 1471 1521
f 1522 1523 1524
f 1523 1525 1524
f 1526 1527 1528
f 1527 1529 1528
f 1325 1323 1530
f 1323 1531 1530
f 1523 1532 1525
f 1532 1533 1525
f 1534 1535 1536
f 1535 1537 1536
f 1370 1325 1538
f 1325 1530 1538
f 1539 1522 1540
f 1522 1524 1540
f 1323 1355 1531
f 1355 1541 1531
f 1542 1543 1544
f 1545 1542 1544
f 1546 1547 1548
f 1549 1546 1548
f 1550 1551 1542
f 1547 1550 1542
f 1552 1553 1551
f 1550 1552 1551
f 1553 1554 1555
f 1551 1553 1555
f 1551 1555 1543
f 1542 1551 1543
f 1556 1552 1550
f 1557 1556 1550
f 1557 1550 1547
f 1546 1557 1547
f 1548 1545 1558
f 1559 1548 1558
f 1559 1558 1560
f 1561 1559 1560
f 1545 1544 1562
f 1558 1545 1562
f 1558 1562 1563
f 1560 1558 1563
f 1549 1548 1559
f 1564 1549 1559
f 1564 1559 1561
f 1565 1564 1561
f 1566 1567 1568
f 1569 1566 1568
f 1567 1546 1549
f 1568 1567 1549
f 1570 1571 1572
f 1573 1570 1572
f 1571 1556 1557
f 1572 1571 1557
f 1573 1572 1567
f 1566 1573 1567
f 1572 1557 1546
f 1567 1572 1546
f 1569 1568 1574
f 1575 1569 1574
f 1568 1549 1564
f 1574 1568 1564
f 1575 1574 1576
f 1577 1575 1576
f 1574 1564 1565
f 1576 1574 1565
f 1543 1578 1579
f 1544 1543 1579
f 1578 1580 1581
f 1579 1578 1581
f 1554 1582 1583
f 1555 1554 1583
f 1582 1584 1585
f 1583 1582 1585
f 1555 1583 1578
f 1543 1555 1578
f 1583 1585 1580
f 1578 1583 1580
f 1544 1579 1586
f 1562 1544 1586
f 1579 1581 1587
f 1586 1579 1587
f 1562 1586 1588
f 1563 1562 1588
f 1586 1587 1589
f 1588 1586 1589
f 1590 1591 1592
f 1590 1593 1591
f 1594 1595 1596
f 1594 1597 1595
f 1598 1599 1600
f 1598 1601 1599
f 1602 1603 1604
f 1602 1605 1603
f 1606 1607 1608
f 1606 1609 1607
f 1610 1611 1612
f 1610 1613 1611
f 1614 1615 1616
f 1614 1617 1615
f 1618 1619 1620
f 1618 1621 1619
f 1622 1623 1624
f 1622 1625 1623
f 1626 1627 1628
f 1629 1626 1628
f 1630 1631 1632
f 1632 1631 1633
f 1634 1635 1636
f 1634 1637 1635
f 1638 1639 1640
f 1641 1638 1640
f 1642 1643 1644
f 1642 1644 1645
f 1646 1647 1648
f 1646 1649 1647
f 1650 1651 1652
f 1653 1650 1652
f 1654 1655 1656
f 1656 1655 1657
f 1658 1659 1660
f 1659 1661 1660
f 1662 1663 1664
f 1663 1665 1664
f 1666 1667 1668
f 1667 1669 1668
f 1659 1670 1661
f 1670 1671 1661
f 1672 1666 1673
f 1666 1668 1673
f 1674 1675 1676
f 1675 1677 1676
f 1678 1658 1679
f 1658 1660 1679
f 1667 1680 1669
f 1680 1681 1669
v -4 -20 -12
v 4 -20 -12
v -4 -20 -8
v 4 -20 -8
v 4 -20 -8
v -4 -16 -8
v -4 -20 -8
v 4 -16 -8
v -3.999999 -14 -8
v 4 -14 -7.999999
v 4 -20 -8
v 4 -20 -12
v 4 -16 -12
v 4 -16 -8
v 4 -14 -12
v 4 -14 -7.999999
v -3.999999 -16 -12
v 4 -16 -12
v 4 -20 -12
v -4 -20 -12
v -3.999999 -14 -12
v 4 -14 -12
v -6 -19 -8
v -6 -19 -12
v -6 -20 -8
v -6 -20 -12
v -3.999999 -14 -8
v -3.999999 -14 -12
v -3.999999 -16 -12
v -4 -16 -8
v -6 -20 -8
v -6 -19 -8
v -6 -19 -12
v -6 -20 -12
v -6 -20 -12
v -6 -20 -8
v -3.999999 -14 -8
v 4 -14 -7.999999
v -3.999999 -14 -12
v 4 -14 -12
v -4 -16 -8
v -3.999999 -16 -12
v -6 -19 -8
v -6 -19 -12
f 1682 1683 1684
f 1683 1685 1684
f 1686 1687 1688
f 1686 1689 1687
f 1689 1690 1687
f 1689 1691 1690
f 1692 1693 1694
f 1695 1692 1694
f 1695 1694 1696
f 1697 1695 1696
f 1698 1699 1700
f 1701 1698 1700
f 1702 1703 1699
f 1698 1702 1699
f 1704 1705 1706
f 1705 1707 1706
f 1708 1709 1710
f 1711 1708 1710
f 1688 1687 1712
f 1687 1713 1712
f 1698 1701 1714
f 1701 1715 1714
f 1682 1684 1716
f 1684 1717 1716
f 1718 1719 1720
f 1719 1721 1720
f 1722 1723 1724
f 1723 1725 1724
v -7 -10 8
v -3.491819 -10 6.07837
v -7.000002 -6 7.999997
v -3.491821 -6 6.078366
v -3.491819 -10 6.07837
v -5.413449 -10 2.570188
v -3.491821 -6 6.078366
v -5.413449 -6 2.570188
v -5.413449 -10 2.570188
v -8.921631 -10 4.491818
v -5.413449 -6 2.570188
v -8.921631 -6 4.491818
v -8.921631 -10 4.491818
v -7 -10 8
v -8.921631 -6 4.491818
v -7.000002 -6 7.999997
v -7.000002 -6 7.999997
v -3.491821 -6 6.078366
v -8.921631 -6 4.491818
v -5.413449 -6 2.570188
v -8.921631 -10 4.491818
v -5.413449 -10 2.570188
v -7 -10 8
v -3.491819 -10 6.07837
f 1726 1727 1728
f 1727 1729 1728
f 1730 1731 1732
f 1731 1733 1732
f 1734 1735 1736
f 1735 1737 1736
f 1738 1739 1740
f 1739 1741 1740
f 1742 1743 1744
f 1743 1745 1744
f 1746 1747 1748
f 1747 1749 1748
v -23 -20 -22.99993
v -23 -20 -14.99993
v -23 -14 -22.99993
v -23 -14 -14.99993
v -20.99942 -22 -15
v -18 -22 -15.00029
v -20.99942 -16 -15
v -18 -19 -15.00029
v -18 -22 -15.00029
v -18 -22 -23.00029
v -18 -19 -15.00029
v -18 -19 -23.00029
v -18 -22 -23.00029
v -21 -22 -23
v -18 -19 -23.00029
v -21 -16 -23
v -18 -22 -23.00029
v -18 -22 -15.00029
v -21 -22 -23
v -20.99942 -22 -15
v -21 -22 -23
v -20.99942 -22 -15
v -23 -20 -22.99993
v -23 -20 -14.99993
v -23 -14 -22.99993
v -23 -20 -22.99993
v -20.99942 -22 -15
v -20.99942 -16 -15
v -23 -20 -14.99993
v -23 -14 -14.99993
v -20.99942 -16 -15
v -21 -16 -23
v -23 -14 -14.99993
v -23 -14 -22.99993
v -21 -16 -23
v -20.99942 -16 -15
v -18 -19 -23.00029
v -18 -19 -15.00029
f 1750 1751 1752
f 1751 1753 1752
f 1754 1755 1756
f 1755 1757 1756
f 1758 1759 1760
f 1759 1761 1760
f 1762 1763 1764
f 1763 1765 1764
f 1766 1767 1768
f 1767 1769 1768
f 1770 1771 1772
f 1771 1773 1772
f 1765 1763 1774
f 1763 1775 1774
f 1776 1777 1778
f 1777 1779 1778
f 1780 1781 1782
f 1781 1783 1782
f 1784 1785 1786
f 1785 1787 1786
v -7 -10 -4
v -5.252065 -10 -3.028031
v -6.999999 -8 -4.000001
v -5.252064 -8 -3.028033
v -5.252065 -10 -3.028031
v -4.280096 -10 -4.775966
v -5.252064 -8 -3.028033
v -4.280096 -8 -4.775966
v -4.280096 -10 -4.775966
v -6.028031 -10 -5.747935
v -4.280096 -8 -4.775966
v -6.028031 -8 -5.747935
v -6.028031 -10 -5.747935
v -7 -10 -4
v -6.028031 -8 -5.747935
v -6.999999 -8 -4.000001
v -6.999999 -8 -4.000001
v -5.252064 -8 -3.028033
v -6.028031 -8 -5.747935
v -4.280096 -8 -4.775966
v -6.028031 -10 -5.747935
v -4.280096 -10 -4.775966
v -7 -10 -4
v -5.252065 -10 -3.028031
f 1788 1789 1790
f 1789 1791 1790
f 1792 1793 1794
f 1793 1795 1794
f 1796 1797 1798
f 1797 1799 1798
f 1800 1801 1802
f 1801 1803 1802
f 1804 1805 1806
f 1805 1807 1806
f 1808 1809 1810
f 1809 1811 1810
v -1 -10 7
v 2.256161 -10 9.323235
v -0.9999978 -8 6.999997
v 2.256163 -8 9.323231
v 2.256161 -10 9.323235
v 4.579395 -10 6.067074
v 2.256163 -8 9.323231
v 4.579395 -8 6.067074
v 4.579395 -10 6.067074
v 1.323234 -10 3.743839
v 4.579395 -8 6.067074
v 1.323234 -8 3.743839
v 1.323234 -10 3.743839
v -1 -10 7
v 1.323234 -8 3.743839
v -0.9999978 -8 6.999997
v -0.9999978 -8 6.999997
v 2.256163 -8 9.323231
v 1.323234 -8 3.743839
v 4.579395 -8 6.067074
v 1.323234 -10 3.743839
v 4.579395 -10 6.067074
v -1 -10 7
v 2.256161 -10 9.323235
f 1812 1813 1814
f 1813 1815 1814
f 1816 1817 1818
f 1817 1819 1818
f 1820 1821 1822
f 1821 1823 1822
f 1824 1825 1826
f 1825 1827 1826
f 1828 1829 1830
f 1829 1831 1830
f 1832 1833 1834
f 1833 1835 1834
v 22.4262 -14 -30.11765
v 24.37682 -14 -30.5593
v 22.4262 -11 -30.11765
v 24.37682 -11 -30.5593
v 24.37682 -14 -30.5593
v 23.50897 -14 -34.39228
v 24.37682 -11 -30.5593
v 23.50897 -11 -34.39228
v 23.50897 -14 -34.39228
v 21.55835 -14 -33.95063
v 23.50897 -11 -34.39228
v 21.55835 -11 -33.95063
v 21.55835 -14 -33.95063
v 22.4262 -14 -30.11765
v 21.55835 -11 -33.95063
v 22.4262 -11 -30.11765
v 22.4262 -11 -30.11765
v 24.37682 -11 -30.5593
v 21.55835 -11 -33.95063
v 23.50897 -11 -34.39228
v 21.55835 -14 -33.95063
v 23.50897 -14 -34.39228
v 22.4262 -14 -30.11765
v 24.37682 -14 -30.5593
f 1836 1837 1838
f 1837 1839 1838
f 1840 1841 1842
f 1841 1843 1842
f 1844 1845 1846
f 1845 1847 1846
f 1848 1849 1850
f 1849 1851 1850
f 1852 1853 1854
f 1853 1855 1854
f 1856 1857 1858
f 1857 1859 1858
v -35 -20 -30
v -32.00112 -20 -27.74851
v -35 -16 -30
v -32.00112 -16 -27.74851
v -32.00112 -20 -27.74851
v -29.74963 -20 -30.74739
v -32.00112 -16 -27.74851
v -29.74963 -16 -30.74739
v -29.74963 -20 -30.74739
v -32.74851 -20 -32.99888
v -29.74963 -16 -30.74739
v -32.7485 -16 -32.99888
v -32.74851 -20 -32.99888
v -35 -20 -30
v -32.7485 -16 -32.99888
v -35 -16 -30
v -35 -16 -30
v -32.00112 -16 -27.74851
v -32.7485 -16 -32.99888
v -29.74963 -16 -30.74739
v -32.74851 -20 -32.99888
v -29.74963 -20 -30.74739
v -35 -20 -30
v -32.00112 -20 -27.74851
f 1860 1861 1862
f 1861 1863 1862
f 1864 1865 1866
f 1865 1867 1866
f 1868 1869 1870
f 1869 1871 1870
f 1872 1873 1874
f 1873 1875 1874
f 1876 1877 1878
f 1877 1879 1878
f 1880 1881 1882
f 1881 1883 1882
v -37 -20 -11
v -27 -20 -17
v -25 -20 -9
v -37 -20 -17
v -21 -20 -11
v -21 -20 -17
v -21 -20 -25
v -27 -20 -25
v -27 -20 -27
v -21 -20 -31
v -21 -20 -27
v -27 -20 -31
v -27 -20 -32
v -21 -20 -35
v -21 -20 -32
v -27 -20 -35
v -27 -20 -26
v -21 -20 -26
v -37 -20 -3
v -27 -20 -3
v -27 -15 -3
v -37 -15 -3
v -27 -12 -3
v -37 -12 -3
v -27 -15 -17
v -37 -20 -17
v -37 -15 -17
v -27 -20 -17
v -27 -12 -17
v -37 -12 -17
v -21 -20 -11
v -21 -20 -17
v -21 -15 -17
v -21 -15 -11
v -21 -12 -17
v -21 -12 -11
v -37 -15 -17
v -37 -20 -11
v -37 -15 -11
v -37 -20 -17
v -37 -12 -17
v -37 -12 -11
v -21 -14 -35
v -27 -20 -35
v -27 -14 -35
v -21 -20 -35
v -21 -10 -35
v -27 -10 -35
v -25 -15 -9
v -21 -15 -11
v -21 -12 -11
v -25 -12 -9
v -25 -20 -9
v -21 -20 -11
v -27 -14 -25
v -27 -20 -25
v -27 -15 -17
v -27 -20 -17
v -27 -10 -25
v -27 -12 -17
v -21 -14 -25
v -21 -10 -25
v -21 -20 -25
v -27 -10 -31
v -27 -14 -27
v -27 -10 -27
v -27 -14 -31
v -21 -14 -27
v -21 -14 -31
v -21 -10 -31
v -21 -10 -27
v -27 -10 -32
v -27 -16 -32
v -27 -14 -35
v -27 -20 -32
v -27 -20 -35
v -27 -10 -35
v -21 -16 -32
v -21 -10 -32
v -21 -20 -32
v -21 -20 -35
v -21 -14 -35
v -21 -10 -35
v -27 -16 -26
v -27 -20 -26
v -27 -10 -26
v -21 -20 -26
v -21 -16 -26
v -21 -10 -26
v -21 -16 -32
v -21 -14 -31
v -27 -16 -32
v -27 -14 -31
v -21 -16 -26
v -21 -20 -26
v -27 -16 -26
v -27 -20 -26
v -21 -14 -31
v -21 -14 -27
v -27 -14 -31
v -27 -14 -27
v -21 -20 -32
v -21 -16 -32
v -27 -20 -32
v -27 -16 -32
v -21 -14 -27
v -21 -16 -26
v -27 -14 -27
v -27 -16 -26
v -37 -20 -7
v -27 -20 -7
v -37 -20 -3
v -27 -20 -3
v -27 -20 -3
v -27 -20 -7
v -27 -15 -7
v -27 -15 -3
v -27 -20 -7
v -25 -20 -9
v -25 -15 -9
v -27 -15 -7
v -27 -12 -7
v -27 -12 -3
v -25 -12 -9
v -27 -12 -7
v -37 -15 -7
v -37 -20 -3
v -37 -15 -3
v -37 -20 -7
v -37 -12 -7
v -37 -12 -3
v -27 -12 -17
v -37 -12 -17
v -37 -12 -11
v -25 -12 -9
v -21 -12 -17
v -21 -12 -11
v -27 -12 -17
v -21 -12 -17
v -27 -10 -25
v -21 -10 -25
v -21 -10 -31
v -27 -10 -31
v -27 -10 -27
v -21 -10 -27
v -21 -10 -35
v -27 -10 -35
v -27 -10 -32
v -21 -10 -32
v -27 -10 -26
v -21 -10 -26
v -27 -10 -25
v -21 -10 -25
v -37 -12 -7
v -27 -12 -7
v -37 -12 -3
v -27 -12 -3
f 1884 1885 1886
f 1884 1887 1885
f 1886 1885 1888
f 1885 1889 1888
f 1889 1885 1890
f 1885 1891 1890
f 1892 1893 1894
f 1892 1895 1893
f 1896 1897 1898
f 1896 1899 1897
f 1895 1898 1893
f 1895 1896 1898
f 1900 1894 1901
f 1900 1892 1894
f 1891 1901 1890
f 1891 1900 1901
f 1902 1903 1904
f 1905 1902 1904
f 1905 1904 1906
f 1907 1905 1906
f 1908 1909 1910
f 1908 1911 1909
f 1912 1910 1913
f 1912 1908 1910
f 1914 1915 1916
f 1917 1914 1916
f 1917 1916 1918
f 1919 1917 1918
f 1920 1921 1922
f 1920 1923 1921
f 1924 1922 1925
f 1924 1920 1922
f 1926 1927 1928
f 1926 1929 1927
f 1930 1928 1931
f 1930 1926 1928
f 1932 1933 1934
f 1935 1932 1934
f 1936 1937 1933
f 1932 1936 1933
f 1938 1939 1940
f 1939 1941 1940
f 1942 1938 1943
f 1938 1940 1943
f 1918 1916 1944
f 1918 1944 1945
f 1916 1915 1946
f 1916 1946 1944
f 1947 1948 1949
f 1947 1950 1948
f 1951 1952 1953
f 1954 1951 1953
f 1955 1950 1947
f 1955 1956 1950
f 1957 1958 1956
f 1957 1959 1958
f 1960 1956 1955
f 1960 1957 1956
f 1952 1961 1962
f 1953 1952 1962
f 1963 1964 1965
f 1961 1963 1965
f 1961 1965 1966
f 1962 1961 1966
f 1967 1939 1938
f 1967 1968 1939
f 1969 1938 1942
f 1969 1967 1938
f 1949 1967 1969
f 1949 1948 1967
f 1946 1970 1971
f 1944 1946 1971
f 1944 1971 1972
f 1945 1944 1972
f 1971 1951 1954
f 1972 1971 1954
f 1973 1974 1975
f 1974 1976 1975
f 1977 1978 1979
f 1978 1980 1979
f 1981 1982 1983
f 1982 1984 1983
f 1985 1986 1987
f 1986 1988 1987
f 1989 1990 1991
f 1990 1992 1991
f 1993 1886 1994
f 1993 1884 1886
f 1995 1994 1996
f 1995 1993 1994
f 1997 1998 1999
f 2000 1997 1999
f 2001 2002 2003
f 2004 2001 2003
f 2000 1999 2005
f 2006 2000 2005
f 2004 2003 2007
f 2008 2004 2007
f 2009 2010 2011
f 2009 2012 2010
f 1922 2012 2009
f 1922 1921 2012
f 2013 2011 2014
f 2013 2009 2011
f 1925 2009 2013
f 1925 1922 2009
f 2015 2016 2017
f 2018 2015 2017
f 2015 2018 2019
f 2018 2020 2019
f 2021 2022 2023
f 2022 2024 2023
f 2025 2026 2027
f 2028 2025 2027
f 2029 2030 2031
f 2032 2029 2031
f 2032 2031 2026
f 2025 2032 2026
f 2028 2027 2033
f 2034 2028 2033
f 2034 2033 2035
f 2036 2034 2035
f 2018 2017 2037
f 2038 2018 2037
f 2038 2037 2039
f 2040 2038 2039
v 29 -16 37
v 29 -20 35
v 29 -16 35
v 29 -20 37
v 29 -14 37
v 29 -14 35
v 25 -20 35
v 25 -20 37
v 25 -16 37
v 25 -16 35
v 25 -14 37
v 25 -14 35
v 29 -16 33
v 29 -20 31
v 29 -16 31
v 29 -20 33
v 29 -14 33
v 29 -14 31
v 25 -20 31
v 25 -20 33
v 25 -16 33
v 25 -16 31
v 25 -14 33
v 25 -14 31
v 29 -16 31
v 31 -16 30.99986
v 31 -14 30.99986
v 29 -14 31
v 29 -20 31
v 31 -20 30.99986
v 31 -16 27
v 29 -20 27
v 29 -16 27
v 31 -20 27
v 31 -14 27
v 29 -14 27
v 33.00029 -16 30.99979
v 33.00029 -14 30.99979
v 35.00058 -16 30.99972
v 35.00058 -14 30.99972
v 33.00029 -20 30.99978
v 35.00058 -20 30.99971
v 33 -14 27
v 33 -16 27
v 35 -16 27
v 33 -20 27
v 35 -20 27
v 35 -14 27
v 31 -20 27
v 31 -16 27
v 31 -20 31
v 31 -16 31
v 31 -16 27
v 33 -16 27
v 31 -16 31
v 33 -16 31
v 33 -16 27
v 33 -20 27
v 33 -16 31
v 33 -20 31
v 25 -16 35
v 25 -16 33
v 29 -16 35
v 29 -16 33
v 29 -20 29
v 29 -20 27
v 31 -20 28.99993
v 31 -20 27
v 33 -20 27
v 33.00014 -20 28.99989
v 35 -20 27
v 35.00029 -20 28.99986
v 25 -20 27
v 25 -20 29
v 25 -16 29
v 25 -16 27
v 25 -14 29
v 25 -14 27
v 35.00029 -16 28.99986
v 35.00029 -20 28.99986
v 35 -16 27
v 35 -20 27
v 35 -14 27
v 35.00029 -14 28.99986
v 29 -20 31
v 29 -20 30.5
v 31 -20 30.99986
v 31 -20 30.5
v 33.00022 -20 30.5
v 33.00029 -20 30.99978
v 35.00043 -20 30.5
v 35.00058 -20 30.99971
v 25 -20 30.5
v 25 -16 30.5
v 25 -14 30.5
v 35.00058 -16 30.99972
v 35.00058 -20 30.99971
v 35.00043 -16 30.5
v 35.00043 -20 30.5
v 35.00043 -16 30.5
v 35.00043 -20 30.5
v 35.00043 -14 30.5
v 35.00058 -14 30.99972
v 35.00043 -14 30.5
v 25 -20 37
v 25 -20 35
v 28.5 -20 37
v 28.5 -20 35
v 29 -20 37
v 29 -20 35
v 25 -20 33
v 28.5 -20 33
v 29 -20 33
v 25 -20 31
v 28.5 -20 31
v 28.5 -14 27
v 25 -16 27
v 25 -14 27
v 28.5 -16 27
v 25 -20 27
v 28.5 -20 27
v 25 -20 37
v 28.5 -20 37
v 28.5 -16 37
v 25 -16 37
v 29 -20 37
v 29 -16 37
v 28.5 -14 37
v 25 -14 37
v 29 -14 37
v 29 -16 35
v 28.5 -20 35
v 25 -16 35
v 25 -20 35
v 29 -20 35
v 28.5 -20 33
v 29 -20 33
v 29 -16 33
v 25 -16 33
v 25 -20 33
v 25 -20 29
v 25 -20 27
v 28.5 -20 29
v 28.5 -20 27
v 25 -20 30.5
v 28.5 -20 30.5
v 31 -14 27
v 29 -14 27
v 31 -14 28.99993
v 29 -14 29
v 35.00029 -14 28.99986
v 35 -14 27
v 33.00014 -14 28.99989
v 33 -14 27
v 31 -14 30.5
v 29 -14 30.5
v 35.00043 -14 30.5
v 33.00021 -14 30.5
v 28.5 -14 37
v 28.5 -14 35
v 25 -14 35
v 25 -14 37
v 28.5 -14 33
v 25 -14 33
v 28.5 -14 31
v 25 -14 31
v 28.5 -14 27
v 28.5 -14 29
v 25 -14 27
v 25 -14 29
v 28.5 -14 30.5
v 25 -14 30.5
v 31 -6 30.99986
v 31 -6 30.5
v 29 -6 30.5
v 29 -6 31
v 35.00058 -6 30.99972
v 35.00043 -6 30.5
v 33.00029 -6 30.99979
v 33.00021 -6 30.5
v 29 -6 37
v 29 -6 35
v 28.5 -6 35
v 28.5 -6 37
v 29 -6 33
v 28.5 -6 33
v 28.5 -6 31
v 28.5 -6 30.5
v 35.00058 -14 30.99972
v 35.00043 -14 30.5
v 35.00058 -6 30.99972
v 35.00043 -6 30.5
v 31 -14 30.5
v 29 -14 30.5
v 31 -6 30.5
v 29 -6 30.5
v 28.5 -14 30.5
v 28.5 -6 30.5
v 29 -14 31
v 31 -14 30.99986
v 29 -6 31
v 31 -6 30.99986
v 28.5 -14 31
v 28.5 -14 33
v 28.5 -6 31
v 28.5 -6 33
v 31 -14 30.99986
v 33.00029 -14 30.99979
v 31 -6 30.99986
v 33.00029 -6 30.99979
v 33.00021 -14 30.5
v 33.00021 -6 30.5
v 35.00058 -14 30.99972
v 33.00029 -6 30.99979
v 35.00058 -6 30.99972
v 35.00043 -14 30.5
v 35.00043 -6 30.5
v 28.5 -14 30.5
v 28.5 -6 30.5
v 29 -14 33
v 29 -14 31
v 29 -6 33
v 29 -6 31
v 28.5 -14 35
v 28.5 -6 35
v 29 -14 35
v 29 -6 35
v 28.5 -14 37
v 28.5 -6 37
v 29 -14 37
v 29 -6 37
v 28.5 -14 37
v 29 -14 37
v 28.5 -6 37
v 29 -6 37
f 2041 2042 2043
f 2041 2044 2042
f 2045 2043 2046
f 2045 2041 2043
f 2047 2048 2049
f 2050 2047 2049
f 2050 2049 2051
f 2052 2050 2051
f 2053 2054 2055
f 2053 2056 2054
f 2057 2055 2058
f 2057 2053 2055
f 2046 2053 2057
f 2046 2043 2053
f 2059 2060 2061
f 2062 2059 2061
f 2062 2061 2063
f 2064 2062 2063
f 2061 2050 2052
f 2063 2061 2052
f 2065 2066 2067
f 2068 2065 2067
f 2069 2070 2066
f 2065 2069 2066
f 2071 2072 2073
f 2071 2074 2072
f 2075 2073 2076
f 2075 2071 2073
f 2066 2077 2067
f 2077 2078 2067
f 2077 2079 2080
f 2078 2077 2080
f 2077 2081 2079
f 2081 2082 2079
f 2083 2071 2075
f 2083 2084 2071
f 2085 2086 2084
f 2085 2087 2086
f 2088 2084 2083
f 2088 2085 2084
f 2089 2090 2091
f 2090 2092 2091
f 2093 2094 2095
f 2094 2096 2095
f 2097 2098 2099
f 2098 2100 2099
f 2101 2102 2103
f 2102 2104 2103
f 2105 2106 2107
f 2107 2106 2108
f 2108 2109 2107
f 2107 2109 2110
f 2109 2111 2110
f 2110 2111 2112
f 2113 2114 2115
f 2116 2113 2115
f 2116 2115 2117
f 2118 2116 2117
f 2119 2120 2121
f 2120 2122 2121
f 2123 2124 2119
f 2123 2119 2121
f 2125 2126 2127
f 2126 2128 2127
f 2126 2105 2128
f 2105 2107 2128
f 2107 2110 2128
f 2128 2110 2129
f 2128 2129 2127
f 2127 2129 2130
f 2110 2112 2129
f 2129 2112 2131
f 2129 2131 2130
f 2130 2131 2132
f 2114 2133 2134
f 2115 2114 2134
f 2133 2059 2062
f 2134 2133 2062
f 2115 2134 2135
f 2117 2115 2135
f 2134 2062 2064
f 2135 2134 2064
f 2136 2137 2138
f 2138 2137 2139
f 2140 2141 2119
f 2119 2141 2120
f 2142 2119 2124
f 2142 2140 2119
f 2143 2138 2144
f 2143 2136 2138
f 2145 2146 2147
f 2146 2148 2147
f 2147 2148 2149
f 2148 2150 2149
f 2146 2151 2148
f 2151 2152 2148
f 2148 2152 2150
f 2152 2153 2150
f 2154 2155 2151
f 2151 2155 2152
f 2155 2125 2152
f 2152 2125 2153
f 2156 2157 2158
f 2156 2159 2157
f 2076 2159 2156
f 2076 2073 2159
f 2159 2160 2157
f 2159 2161 2160
f 2073 2161 2159
f 2073 2072 2161
f 2162 2163 2164
f 2165 2162 2164
f 2163 2166 2167
f 2164 2163 2167
f 2165 2164 2168
f 2169 2165 2168
f 2164 2167 2170
f 2168 2164 2170
f 2171 2172 2173
f 2172 2174 2173
f 2171 2175 2172
f 2176 2177 2178
f 2179 2180 2176
f 2179 2176 2178
f 2181 2182 2183
f 2182 2184 2183
f 2183 2184 2105
f 2184 2106 2105
f 2154 2185 2186
f 2155 2154 2186
f 2155 2186 2126
f 2125 2155 2126
f 2185 2181 2186
f 2181 2183 2186
f 2186 2183 2126
f 2183 2105 2126
f 2187 2188 2189
f 2189 2188 2190
f 2191 2192 2193
f 2193 2192 2194
f 2193 2194 2189
f 2189 2194 2187
f 2195 2189 2190
f 2195 2190 2196
f 2197 2191 2198
f 2198 2191 2193
f 2198 2193 2195
f 2195 2193 2189
f 2199 2200 2201
f 2199 2201 2202
f 2200 2203 2204
f 2200 2204 2201
f 2203 2205 2204
f 2204 2205 2206
f 2190 2188 2207
f 2190 2207 2208
f 2208 2207 2209
f 2208 2209 2210
f 2211 2206 2205
f 2211 2212 2206
f 2196 2190 2208
f 2196 2208 2211
f 2211 2208 2210
f 2211 2210 2212
f 2213 2214 2215
f 2213 2215 2216
f 2217 2218 2219
f 2219 2218 2220
f 2219 2220 2213
f 2213 2220 2214
f 2221 2222 2223
f 2221 2223 2224
f 2222 2225 2226
f 2222 2226 2223
f 2225 2216 2226
f 2226 2216 2227
f 2215 2227 2216
f 2215 2228 2227
f 2229 2230 2231
f 2230 2232 2231
f 2233 2234 2235
f 2234 2236 2235
f 2234 2237 2236
f 2237 2238 2236
f 2239 2240 2241
f 2240 2242 2241
f 2243 2244 2245
f 2244 2246 2245
f 2247 2248 2249
f 2248 2250 2249
f 2251 2233 2252
f 2233 2235 2252
f 2248 2253 2254
f 2253 2255 2254
f 2256 2251 2257
f 2251 2252 2257
f 2258 2243 2259
f 2243 2245 2259
f 2260 2261 2262
f 2261 2263 2262
f 2244 2264 2246
f 2264 2265 2246
f 2266 2260 2267
f 2260 2262 2267
f 2264 2268 2265
f 2268 2269 2265
f 2270 2266 2271
f 2266 2267 2271
f 2272 2273 2274
f 2273 2275 2274
v -6 -8 -5
v -5.849148 -8 -4.011444
v -5.999999 -7 -5
v -5.849147 -7 -4.011444
v -5.849148 -8 -4.011444
v -4.860591 -8 -4.162296
v -5.849147 -7 -4.011444
v -4.860591 -7 -4.162296
v -4.860591 -8 -4.162296
v -5.011444 -8 -5.150852
v -4.860591 -7 -4.162296
v -5.011444 -7 -5.150852
v -5.011444 -8 -5.150852
v -6 -8 -5
v -5.011444 -7 -5.150852
v -5.999999 -7 -5
v -5.999999 -7 -5
v -5.849147 -7 -4.011444
v -5.011444 -7 -5.150852
v -4.860591 -7 -4.162296
v -5.011444 -8 -5.150852
v -4.860591 -8 -4.162296
v -6 -8 -5
v -5.849148 -8 -4.011444
f 2276 2277 2278
f 2277 2279 2278
f 2280 2281 2282
f 2281 2283 2282
f 2284 2285 2286
f 2285 2287 2286
f 2288 2289 2290
f 2289 2291 2290
f 2292 2293 2294
f 2293 2295 2294
f 2296 2297 2298
f 2297 2299 2298
v 35 30 -35
v 35 -20 14
v 35 30 14
v 35 -20 -35
v -37 -20 14
v -37 -20 -35
v -37 30 -35
v -37 30 14
v 35 -20 18
v 35 30 18
v -37 -20 18
v -37 30 18
v -2 30 37
v -37 -20 37
v -37 30 37
v -2 -20 37
v -37 -20 -35
v -2 -20 -35
v -2 30 -35
v -37 30 -35
v -37 30 14
v -2 30 -35
v -2 30 14
v -37 30 -35
v -37 30 18
v -2 30 18
v 2 30 37
v 2 -20 37
v 2 -20 -35
v 2 30 -35
v 2 30 -35
v 2 30 14
v 2 30 18
v 35 30 33
v 35 -20 37
v 35 30 37
v 35 -20 31
v -37 -20 37
v -37 -20 33
v -37 30 33
v -37 30 37
v -37 30 33
v -2 30 33
v -37 30 37
v -2 30 37
v 2 30 33
v 2 30 37
v 29 30 37
v 29 -20 37
v 35 30 37
v 35 -20 37
v 29 -20 -35
v 29 30 -35
v 35 -20 -35
v 35 30 -35
v 29 30 14
v 35 30 -35
v 35 30 14
v 29 30 -35
v 29 30 18
v 35 30 18
v 29 30 33
v 35 30 33
v 29 30 37
v 35 30 37
v -2 -20 -35
v -37 -20 -35
v -37 -20 14
v -2 -20 14
v -37 -20 18
v -2 -20 18
v 2 -20 -35
v 2 -20 14
v 2 -29 14
v -2 -29 14
v -2 -29 18
v 2 -29 18
v -2 -23 14
v 2 -23 14
v 2 -20 14
v -2 -20 14
v -2 -29 14
v 2 -29 14
v -2 -23 18
v -2 -23 14
v -2 -20 14
v -2 -20 18
v -4 -29 18
v -4 -29 14
v -4 -23 14
v -4 -23 18
v 2 -20 14
v 2 -23 18
v 2 -20 18
v 2 -23 14
v 4 -23 14
v 4 -29 18
v 4 -23 18
v 4 -29 14
v 2 -20 18
v -2 -23 18
v -2 -20 18
v 2 -23 18
v 2 -23 18
v 2 -23 14
v 4 -23 18
v 4 -23 14
v 4 -23 14
v 4 -29 14
v 4 -29 14
v 4 -29 18
v -4 -29 18
v -4 -29 14
v -4 -29 14
v -4 -23 14
v -2 -23 14
v -2 -23 18
v -4 -23 14
v -4 -23 18
v -2 -23 22
v 2 -23 22
v -4 -23 22
v -2 -29 22
v -4 -29 22
v -4 -29 22
v -4 -23 22
v 4 -29 22
v 2 -29 22
v 4 -23 22
v 4 -23 22
v 4 -29 22
v -37 -20 33
v -2 -20 33
v -37 -20 37
v -2 -20 37
v 2 -20 18
v 2 -20 33
v 2 -29 33
v -2 -29 33
v -2 -29 37
v 2 -29 37
v 2 -20 33
v -2 -20 33
v 2 -23 33
v -2 -23 33
v -2 -20 33
v -2 -20 37
v -2 -23 33
v -2 -23 37
v 2 -20 37
v 2 -20 33
v 2 -23 37
v 2 -23 33
v -2 -20 37
v 2 -20 37
v -2 -23 37
v 2 -23 37
v -4 -23 33
v -4 -23 37
v -4 -29 33
v -4 -29 37
v 4 -23 37
v 4 -23 33
v 4 -29 37
v 4 -29 33
v -2 -29 37
v 2 -29 37
v -2 -23 33
v -2 -23 37
v -4 -23 33
v -4 -23 37
v -4 -23 37
v -4 -29 37
v -4 -29 37
v -4 -29 33
v 2 -23 37
v 2 -23 33
v 4 -23 37
v 4 -23 33
v 4 -29 37
v 4 -23 37
v 4 -29 33
v 4 -29 37
v 35 -20 -35
v 29 -20 -35
v 29 -20 14
v 35 -20 14
v 29 -20 18
v 35 -20 18
v 29 -20 31
v 35 -20 31
v 35 -25 31
v 29 -25 31
v 29 -25 37
v 35 -25 37
v 2 -20 37
v 29 -20 37
v 35 -20 31
v 29 -20 31
v 35 -25 31
v 29 -25 31
v 29 -20 31
v 29 -20 37
v 29 -25 31
v 29 -25 37
v 35 -20 37
v 35 -20 31
v 35 -25 37
v 35 -25 31
v 29 -20 37
v 35 -20 37
v 29 -25 37
v 35 -25 37
f 2300 2301 2302
f 2300 2303 2301
f 2304 2305 2306
f 2307 2304 2306
f 2302 2308 2309
f 2302 2301 2308
f 2310 2304 2307
f 2311 2310 2307
f 2312 2313 2314
f 2312 2315 2313
f 2316 2317 2318
f 2319 2316 2318
f 2320 2321 2322
f 2320 2323 2321
f 2324 2322 2325
f 2324 2320 2322
f 2326 2315 2312
f 2326 2327 2315
f 2317 2328 2329
f 2318 2317 2329
f 2322 2330 2331
f 2322 2321 2330
f 2325 2331 2332
f 2325 2322 2331
f 2333 2334 2335
f 2333 2336 2334
f 2309 2336 2333
f 2309 2308 2336
f 2337 2338 2339
f 2340 2337 2339
f 2338 2310 2311
f 2339 2338 2311
f 2341 2325 2342
f 2341 2324 2325
f 2343 2342 2344
f 2343 2341 2342
f 2342 2332 2345
f 2342 2325 2332
f 2344 2345 2346
f 2344 2342 2345
f 2347 2327 2326
f 2347 2348 2327
f 2349 2348 2347
f 2349 2350 2348
f 2328 2351 2352
f 2329 2328 2352
f 2351 2353 2354
f 2352 2351 2354
f 2355 2356 2357
f 2355 2358 2356
f 2331 2358 2355
f 2331 2330 2358
f 2359 2357 2360
f 2359 2355 2357
f 2332 2355 2359
f 2332 2331 2355
f 2361 2360 2362
f 2361 2359 2360
f 2345 2359 2361
f 2345 2332 2359
f 2363 2362 2364
f 2363 2361 2362
f 2346 2361 2363
f 2346 2345 2361
f 2365 2366 2367
f 2368 2365 2367
f 2368 2367 2369
f 2370 2368 2369
f 2371 2365 2368
f 2372 2371 2368
f 2373 2374 2375
f 2376 2373 2375
f 2377 2378 2379
f 2380 2377 2379
f 2381 2382 2378
f 2377 2381 2378
f 2383 2384 2385
f 2386 2383 2385
f 2387 2388 2389
f 2390 2387 2389
f 2391 2392 2393
f 2391 2394 2392
f 2395 2396 2397
f 2395 2398 2396
f 2399 2400 2401
f 2399 2402 2400
f 2403 2404 2405
f 2404 2406 2405
f 2378 2382 2407
f 2382 2408 2407
f 2373 2376 2409
f 2376 2410 2409
f 2375 2374 2411
f 2374 2412 2411
f 2381 2377 2413
f 2377 2414 2413
f 2415 2416 2417
f 2416 2418 2417
f 2416 2403 2419
f 2403 2420 2419
f 2418 2416 2421
f 2416 2419 2421
f 2375 2411 2422
f 2411 2423 2422
f 2387 2390 2424
f 2390 2425 2424
f 2410 2376 2426
f 2376 2427 2426
f 2376 2375 2427
f 2375 2422 2427
f 2403 2405 2420
f 2405 2428 2420
f 2397 2396 2429
f 2396 2430 2429
f 2370 2369 2431
f 2432 2370 2431
f 2432 2431 2433
f 2434 2432 2433
f 2435 2370 2432
f 2436 2435 2432
f 2437 2438 2439
f 2440 2437 2439
f 2441 2442 2443
f 2442 2444 2443
f 2445 2446 2447
f 2446 2448 2447
f 2449 2450 2451
f 2450 2452 2451
f 2453 2454 2455
f 2454 2456 2455
f 2457 2458 2459
f 2458 2460 2459
f 2461 2462 2463
f 2462 2464 2463
f 2455 2456 2465
f 2456 2466 2465
f 2467 2468 2469
f 2468 2470 2469
f 2455 2465 2471
f 2465 2472 2471
f 2439 2438 2473
f 2438 2474 2473
f 2475 2476 2477
f 2476 2478 2477
f 2466 2456 2479
f 2456 2480 2479
f 2437 2440 2481
f 2440 2482 2481
f 2474 2438 2423
f 2438 2422 2423
f 2478 2476 2428
f 2476 2420 2428
f 2437 2481 2427
f 2481 2426 2427
f 2464 2462 2430
f 2462 2429 2430
f 2476 2467 2420
f 2467 2419 2420
f 2438 2437 2422
f 2437 2427 2422
f 2467 2469 2419
f 2469 2421 2419
f 2457 2459 2425
f 2459 2424 2425
f 2483 2484 2485
f 2486 2483 2485
f 2484 2371 2372
f 2485 2484 2372
f 2486 2485 2487
f 2488 2486 2487
f 2485 2372 2435
f 2487 2485 2435
f 2488 2487 2489
f 2490 2488 2489
f 2487 2435 2436
f 2489 2487 2436
f 2491 2492 2493
f 2494 2491 2493
f 2489 2436 2495
f 2496 2489 2495
f 2497 2498 2499
f 2498 2500 2499
f 2501 2502 2503
f 2502 2504 2503
f 2505 2506 2507
f 2506 2508 2507
f 2509 2510 2511
f 2510 2512 2511
v -34.55049 15.93245 -7.844178
v -34.56634 15.93245 11.29203
v -36.46572 15.93245 -7.845764
v -36.48158 15.93245 11.29044
v -36.46573 4.667546 -7.845764
v -36.48158 4.667546 11.29044
v -34.5505 4.667545 -7.844178
v -34.56635 4.667545 11.29203
v -36.46572 15.93245 -7.845764
v -36.48158 15.93245 11.29044
v -36.46573 4.667546 -7.845764
v -36.48158 4.667546 11.29044
v -34.5505 4.667545 -7.844178
v -34.55049 15.93245 -7.844178
v -34.56634 15.93245 11.29203
v -34.56635 4.667545 11.29203
v -34.56634 15.93245 11.29203
v -36.48158 15.93245 11.29044
v -36.48158 4.667546 11.29044
v -34.56635 4.667545 11.29203
v -34.5505 4.667545 -7.844178
v -36.46573 4.667546 -7.845764
v -36.46572 15.93245 -7.845764
v -34.55049 15.93245 -7.844178
f 2513 2515 2516
f 2513 2516 2514
f 2521 2517 2518
f 2521 2518 2522
f 2523 2519 2520
f 2523 2520 2524
f 2525 2526 2527
f 2525 2527 2528
f 2529 2530 2531
f 2529 2531 2532
f 2533 2534 2535
f 2533 2535 2536
v 33.47592 23.92048 -4.745168
v 33.47591 5.353793 -4.745161
v 35.33415 23.92048 -4.743682
v 35.33414 5.353792 -4.743675
v 35.32541 23.92049 6.185965
v 35.32541 5.353796 6.185972
v 33.46718 23.92049 6.184479
v 33.46717 5.353797 6.184486
v 35.33415 23.92048 -4.743682
v 35.33414 5.353792 -4.743675
v 35.32541 23.92049 6.185965
v 35.32541 5.353796 6.185972
v 33.46718 23.92049 6.184479
v 33.47592 23.92048 -4.745168
v 33.47591 5.353793 -4.745161
v 33.46717 5.353797 6.184486
v 33.47591 5.353793 -4.745161
v 35.33414 5.353792 -4.743675
v 35.32541 5.353796 6.185972
v 33.46717 5.353797 6.184486
v 33.46718 23.92049 6.184479
v 35.32541 23.92049 6.185965
v 35.33415 23.92048 -4.743682
v 33.47592 23.92048 -4.745168
f 2537 2539 2540
f 2537 2540 2538
f 2545 2541 2542
f 2545 2542 2546
f 2547 2543 2544
f 2547 2544 2548
f 2549 2550 2551
f 2549 2551 2552
f 2553 2554 2555
f 2553 2555 2556
f 2557 2558 2559
f 2557 2559 2560
v -5.265182 23.92048 -33.67611
v -5.265174 5.353793 -33.6761
v -5.263632 23.92048 -35.53434
v -5.263623 5.353792 -35.53434
v 5.666013 23.92049 -35.52522
v 5.666021 5.353797 -35.52522
v 5.664462 23.92049 -33.66698
v 5.664471 5.353797 -33.66698
v -5.263632 23.92048 -35.53434
v -5.263623 5.353792 -35.53434
v 5.666013 23.92049 -35.52522
v 5.666021 5.353797 -35.52522
v 5.664462 23.92049 -33.66698
v -5.265182 23.92048 -33.67611
v -5.265174 5.353793 -33.6761
v 5.664471 5.353797 -33.66698
v -5.265174 5.353793 -33.6761
v -5.263623 5.353792 -35.53434
v 5.666021 5.353797 -35.52522
v 5.664471 5.353797 -33.66698
v 5.664462 23.92049 -33.66698
v 5.666013 23.92049 -35.52522
v -5.263632 23.92048 -35.53434
v -5.265182 23.92048 -33.67611
f 2561 2563 2564
f 2561 2564 2562
f 2569 2565 2566
f 2569 2566 2570
f 2571 2567 2568
f 2571 2568 2572
f 2573 2574 2575
f 2573 2575 2576
f 2577 2578 2579
f 2577 2579 2580
f 2581 2582 2583
f 2581 2583 2584
v 5.664689 23.92048 35.57607
v 5.66468 5.353793 35.57607
v 5.663148 23.92048 37.43431
v 5.66314 5.353793 37.43431
v -5.266495 23.92049 37.42525
v -5.266504 5.353798 37.42525
v -5.264955 23.92049 35.56701
v -5.264964 5.353798 35.56701
v 5.663148 23.92048 37.43431
v 5.66314 5.353793 37.43431
v -5.266495 23.92049 37.42525
v -5.266504 5.353798 37.42525
v -5.264955 23.92049 35.56701
v 5.664689 23.92048 35.57607
v 5.66468 5.353793 35.57607
v -5.264964 5.353798 35.56701
v 5.66468 5.353793 35.57607
v 5.66314 5.353793 37.43431
v -5.266504 5.353798 37.42525
v -5.264964 5.353798 35.56701
v -5.264955 23.92049 35.56701
v -5.266495 23.92049 37.42525
v 5.663148 23.92048 37.43431
v 5.664689 23.92048 35.57607
f 2585 2587 2588
f 2585 2588 2586
f 2593 2589 2590
f 2593 2590 2594
f 2595 2591 2592
f 2595 2592 2596
f 2597 2598 2599
f 2597 2599 2600
f 2601 2602 2603
f 2601 2603 2604
f 2605 2606 2607
f 2605 2607 2608
v -2.976298 -5.166111 -33.73508
v -2.262017 -5.166111 -34.70616
v -2.647857 -5.166112 -33.4935
v -1.933577 -5.166112 -34.46458
v -2.647858 -5.996093 -33.4935
v -1.933577 -5.996093 -34.46458
v -2.976298 -5.996093 -33.73508
v -2.262017 -5.996093 -34.70616
v -2.647857 -5.166112 -33.4935
v -1.933577 -5.166112 -34.46458
v -2.647858 -5.996093 -33.4935
v -1.933577 -5.996093 -34.46458
v -2.976298 -5.996093 -33.73508
v -2.976298 -5.166111 -33.73508
v -2.262017 -5.166111 -34.70616
v -2.262017 -5.996093 -34.70616
v -2.262017 -5.166111 -34.70616
v -1.933577 -5.166112 -34.46458
v -1.933577 -5.996093 -34.46458
v -2.262017 -5.996093 -34.70616
v -2.976298 -5.996093 -33.73508
v -2.647858 -5.996093 -33.4935
v -2.647857 -5.166112 -33.4935
v -2.976298 -5.166111 -33.73508
f 2609 2611 2612
f 2609 2612 2610
f 2617 2613 2614
f 2617 2614 2618
f 2619 2615 2616
f 2619 2616 2620
f 2621 2622 2623
f 2621 2623 2624
f 2625 2626 2627
f 2625 2627 2628
f 2629 2630 2631
f 2629 2631 2632
