v 48 -21 -4
v 32 -21 -4
v 32 -21 4
v 48 -21 4
v 48 -21 -48
v 32 -21 -48
v 32 -21 -32
v 48 -21 -32
v 32 -21 32
v 48 -21 32
v 32 -21 48
v 48 -21 48
v -32 -21 -4
v -32 -21 4
v -48 -21 -4
v -48 -21 4
v -32 -21 -48
v -32 -21 -32
v -48 -21 -48
v -48 -21 -32
v -32 -21 32
v -48 -21 32
v -32 -21 48
v -48 -21 48
v -26 -62 -39
v -34.8488 -146 -34.8488
v -39 -62 -39
v -23.23253 -146 -34.8488
v -39 -62 -39
v -34.8488 -146 -23.23253
v -39 -62 -26
v -34.8488 -146 -34.8488
v -34.8488 -146 -2.904066
v -39 -62 -3
v -34.8488 -146 2.904066
v -39 -62 3
v -34.8488 -146 23.23253
v -39 -62 26
v -34.8488 -146 34.8488
v -39 -62 39
v 34.8488 -146 34.8488
v 34.8488 -146 23.23253
v 39 -62 26
v 39 -62 39
v -34.8488 -146 34.8488
v -23.23253 -146 34.8488
v -26 -62 39
v -39 -62 39
v 23.23253 -146 34.8488
v 26 -62 39
v 39 -62 -39
v 23.23253 -146 -34.8488
v 26 -62 -39
v 34.8488 -146 -34.8488
v 34.8488 -146 34.8488
v 39 -62 39
v 34.8488 -146 2.904066
v 39 -62 3
v 34.8488 -146 -2.904066
v 39 -62 -3
v 34.8488 -146 -23.23253
v 39 -62 -26
v 34.8488 -146 -34.8488
v 39 -62 -39
v -31.32 -33 -46.98
v -26 -62 -39
v -39 -62 -39
v -46.98 -33 -46.98
v -32 -21 -48
v -31.32 -33 -46.98
v -46.98 -33 -46.98
v -48 -21 -48
v -46.98 -33 -46.98
v -39 -62 -39
v -46.98 -33 -31.32
v -39 -62 -26
v -48 -21 -48
v -46.98 -33 -46.98
v -48 -21 -32
v -46.98 -33 -31.32
v -46.98 -33 -3.78
v -39 -62 -3
v -48 -21 -4
v -46.98 -33 -3.78
v -46.98 -33 3.78
v -39 -62 3
v -48 -21 4
v -46.98 -33 3.78
v -39 -62 26
v -46.98 -33 31.32
v -46.98 -33 31.32
v -48 -21 32
v -39 -62 39
v -46.98 -33 46.98
v -46.98 -33 46.98
v -48 -21 48
v 46.98 -33 46.98
v 39 -62 39
v 46.98 -33 31.32
v 39 -62 26
v 48 -21 48
v 46.98 -33 46.98
v 48 -21 32
v 46.98 -33 31.32
v -46.98 -33 46.98
v -39 -62 39
v -31.32 -33 46.98
v -26 -62 39
v -48 -21 48
v -46.98 -33 46.98
v -32 -21 48
v -31.32 -33 46.98
v 26 -62 39
v 31.32 -33 46.98
v 31.32 -33 46.98
v 32 -21 48
v 46.98 -33 -46.98
v 39 -62 -39
v 31.32 -33 -46.98
v 26 -62 -39
v 48 -21 -48
v 46.98 -33 -46.98
v 32 -21 -48
v 31.32 -33 -46.98
v 39 -62 39
v 46.98 -33 46.98
v 46.98 -33 46.98
v 48 -21 48
v 46.98 -33 3.78
v 39 -62 3
v 48 -21 4
v 46.98 -33 3.78
v 39 -62 -3
v 46.98 -33 -3.78
v 46.98 -33 -3.78
v 48 -21 -4
v 39 -62 -26
v 46.98 -33 -31.32
v 46.98 -33 -31.32
v 48 -21 -32
v 39 -62 -39
v 46.98 -33 -46.98
v 46.98 -33 -46.98
v 48 -21 -48
f 1 2 3
f 4 1 3
f 5 6 7
f 8 5 7
f 8 7 2
f 1 8 2
f 4 3 9
f 10 4 9
f 10 9 11
f 12 10 11
f 2 13 14
f 3 2 14
f 13 15 16
f 14 13 16
f 6 17 18
f 7 6 18
f 17 19 20
f 18 17 20
f 7 18 13
f 2 7 13
f 18 20 15
f 13 18 15
f 3 14 21
f 9 3 21
f 14 16 22
f 21 14 22
f 9 21 23
f 11 9 23
f 21 22 24
f 23 21 24
f 25 26 27
f 25 28 26
f 29 30 31
f 29 32 30
f 31 33 34
f 31 30 33
f 34 35 36
f 34 33 35
f 36 37 38
f 36 35 37
f 38 39 40
f 38 37 39
f 41 42 43
f 44 41 43
f 45 46 47
f 48 45 47
f 46 49 50
f 47 46 50
f 51 52 53
f 51 54 52
f 49 55 56
f 50 49 56
f 53 28 25
f 53 52 28
f 42 57 58
f 43 42 58
f 57 59 60
f 58 57 60
f 59 61 62
f 60 59 62
f 61 63 64
f 62 61 64
f 65 66 67
f 65 67 68
f 69 70 71
f 69 71 72
f 73 74 75
f 75 74 76
f 77 78 79
f 79 78 80
f 75 76 81
f 81 76 82
f 79 80 83
f 83 80 84
f 81 82 85
f 82 86 85
f 83 84 87
f 84 88 87
f 85 86 89
f 85 89 90
f 87 88 91
f 87 91 92
f 90 89 93
f 90 93 94
f 92 91 95
f 92 95 96
f 97 98 99
f 98 100 99
f 101 102 103
f 102 104 103
f 105 106 107
f 106 108 107
f 109 110 111
f 110 112 111
f 108 113 114
f 108 114 107
f 111 112 115
f 111 115 116
f 117 118 119
f 119 118 120
f 121 122 123
f 123 122 124
f 113 125 114
f 114 125 126
f 115 127 116
f 116 127 128
f 65 119 66
f 119 120 66
f 123 124 69
f 124 70 69
f 99 100 129
f 100 130 129
f 103 104 131
f 104 132 131
f 129 130 133
f 129 133 134
f 131 132 135
f 131 135 136
f 133 137 134
f 134 137 138
f 135 139 136
f 136 139 140
f 137 141 138
f 138 141 142
f 139 143 140
f 140 143 144
v -1937.269 -98.80133 1734.752
v -1937.269 -81.66177 1856.269
v -1815.752 -96.46325 1856.269
v -1815.752 -101.5383 1734.752
v -1937.269 -104.8199 1613.236
v -1694.236 -80.47839 1856.269
v -1815.752 -83.61967 1613.236
v -1937.269 -82.14539 1491.719
v -1694.236 -90.86096 1734.752
v -1572.719 -108.8752 1856.269
v -1815.752 -72.35874 1491.719
v -1937.269 -111.1036 1370.202
v -1694.236 -72.49962 1613.236
v -1572.719 -92.53896 1734.752
v -1451.202 -76.47796 1856.269
v -1815.752 -80.19415 1370.202
v -1937.269 -82.90736 1248.685
v -1694.236 -93.61649 1491.719
v -1451.202 -97.74456 1734.752
v -1329.685 -99.63666 1856.269
v -1572.719 -94.98164 1613.236
v -1815.752 -100.9845 1248.685
v -1937.269 -97.5489 1127.168
v -1329.685 -96.9812 1734.752
v -1208.168 -85.53934 1856.269
v -1694.236 -101.0877 1370.202
v -1572.719 -78.62097 1491.719
v -1451.202 -108.0062 1613.236
v -1815.752 -79.5614 1127.168
v -1937.269 -75.96787 1005.651
v -1208.168 -90.1738 1734.752
v -1086.651 -86.80716 1856.269
v -1694.236 -86.78621 1248.685
v -1572.719 -89.51936 1370.202
v -1451.202 -105.4704 1491.719
v -1329.685 -73.69094 1613.236
v -1815.752 -80.99171 1005.651
v -1937.269 -73.67728 884.1346
v -1086.651 -88.18608 1734.752
v -965.1346 -99.85255 1856.269
v -1694.236 -75.66133 1127.168
v -1572.719 -105.7528 1248.685
v -1451.202 -88.15425 1370.202
v -1329.685 -91.45047 1491.719
v -1208.168 -92.26949 1613.236
v -965.1346 -95.91142 1734.752
v -843.6179 -78.04338 1856.269
v -1086.651 -99.77724 1613.236
v -1208.168 -101.8461 1491.719
v -1329.685 -81.00253 1370.202
v -1451.202 -89.60768 1248.685
v -843.6179 -89.84169 1734.752
v -722.101 -82.38254 1856.269
v -965.1346 -91.81896 1613.236
v -1086.651 -94.57124 1491.719
v -1208.168 -94.88473 1370.202
v -722.101 -83.44167 1734.752
v -600.5842 -99.15575 1856.269
v -843.6179 -80.57182 1613.236
v -965.1346 -72.61351 1491.719
v -600.5842 -76.58723 1734.752
v -479.0673 -85.74277 1856.269
v -722.101 -93.96621 1613.236
v -479.0673 -85.22813 1734.752
v -357.5505 -82.97047 1856.269
v -1329.685 -89.20141 1248.685
v -1086.651 -94.12722 1370.202
v -843.6182 -90.4093 1491.719
v -600.5854 -78.52584 1613.237
v -357.5505 -81.91782 1734.752
v -236.0337 -91.05464 1856.269
v -1208.168 -89.21792 1248.685
v -965.1378 -74.54001 1370.205
v -722.1038 -95.88739 1491.722
v -479.0717 -89.04294 1613.242
v -236.0337 -80.62901 1734.752
v -114.5168 -72.43148 1856.269
v -1086.652 -74.49937 1248.686
v -843.6173 -100.4051 1370.201
v -600.6323 -74.12735 1491.801
v -357.5646 -76.88966 1613.272
v -114.5168 -94.8802 1734.752
v 6.999997 -69.53191 1856.269
v -965.1665 -78.69366 1248.714
v -722.1204 -95.4084 1370.227
v -479.0554 -104.0587 1491.69
v -236.0414 -80.50388 1613.287
v 6.999997 -97.92726 1734.752
v 128.5168 -84.14456 1856.269
v -843.674 -90.49287 1248.741
v -600.6216 -94.11534 1370.265
v -357.662 -62.71711 1492.118
v -114.5168 -77.72626 1613.303
v 128.5168 -90.70182 1734.752
v 250.0337 -84.32793 1856.269
v -721.7319 -130.5328 1248.245
v -479.1794 -84.81293 1370.461
v -236.1242 -49.90544 1492.393
v 6.992706 -118.375 1613.187
v 250.0337 -102.4361 1734.752
v 371.5505 -100.6622 1856.269
v -601.4534 -38.95918 1249.985
v -357.7197 -73.60506 1370.791
v -114.5168 -106.2444 1491.615
v 128.5275 -82.4314 1613.263
v 371.5505 -84.63525 1734.752
v 493.0673 -71.7579 1856.269
v -479.4471 -69.64651 1249.442
v -236.0869 -83.5541 1370.572
v 6.987046 -106.388 1491.622
v 250.039 -86.59428 1613.243
v 493.0673 -87.87082 1734.752
v 614.5842 -91.21273 1856.269
v -357.5479 -93.63759 1248.677
v -114.5182 -73.91936 1370.867
v 128.5132 -100.859 1491.705
v 371.5509 -92.81608 1613.236
v 614.5842 -64.31999 1734.752
v 736.101 -84.64997 1856.269
v -236.2278 -63.22147 1249.818
v 7.003433 -95.41498 1370.236
v 250.0728 -82.59481 1491.854
v 493.0673 -85.12104 1613.236
v 736.101 -98.39133 1734.752
v 857.6179 -74.29908 1856.269
v -114.5836 -59.23592 1250.065
v 128.6613 -63.48073 1371.21
v 371.5554 -94.68592 1491.749
v 614.5842 -106.0313 1613.236
v 857.6179 -100.4049 1734.752
v 979.1346 -100.2231 1856.269
v 7.00006 -92.69046 1248.661
v 250.0699 -88.7493 1370.484
v 493.0677 -86.26643 1491.785
v 736.101 -101.5118 1613.236
v 979.1346 -92.9613 1734.752
v 1100.651 -93.63306 1856.269
v 128.5213 -85.35342 1249.065
v 371.6286 -68.23814 1371.083
v 614.5851 -67.44491 1491.873
v 857.6179 -88.79468 1613.236
v 1100.651 -100.1845 1734.752
v 1222.168 -99.64304 1856.269
v 250.017 -100.5373 1248.209
v 493.0759 -92.75828 1370.366
v 736.1088 -87.88989 1491.767
v 979.1346 -72.43621 1613.236
v 1222.168 -92.56203 1734.752
v 1343.685 -108.9312 1856.269
v 371.6131 -76.87576 1249.659
v 614.5844 -98.61817 1370.205
v 857.6323 -84.67004 1491.756
v 1100.651 -77.21789 1613.236
v 1343.685 -91.89777 1734.752
v 1465.202 -71.76653 1856.269
v 493.0654 -93.8569 1248.664
v 736.1217 -92.01446 1370.349
v 979.1304 -106.9517 1491.713
v 1222.168 -111.7852 1613.236
v 1465.202 -69.05373 1734.752
v 1586.719 -68.53106 1856.269
v 614.7003 -74.78139 1249.688
v 857.6533 -91.75604 1370.329
v 1100.653 -86.04225 1491.72
v 1343.685 -63.27667 1613.235
v 1586.719 -72.92751 1734.752
v 1708.236 -68.91913 1856.269
v 736.2206 -79.39627 1249.377
v 979.1738 -91.00557 1370.297
v 1222.168 -81.24578 1491.719
v 1465.202 -76.65746 1613.236
v 1708.236 -94.49722 1734.752
v 1829.752 -89.25176 1856.269
v 857.6613 -91.90558 1248.836
v 1100.711 -79.31821 1370.303
v 1343.685 -89.23875 1491.719
v 1586.719 -111.1186 1613.236
v 1829.752 -84.51909 1734.752
v 1951.269 -107.178 1856.269
v 1951.269 -110.4717 1734.752
v 1708.236 -79.27205 1613.236
v 1829.752 -72.97481 1613.236
v 1951.269 -98.37687 1613.236
v 1465.202 -71.11714 1491.719
v 1222.164 -104.1669 1370.197
v 1586.719 -84.85891 1491.719
v 1829.752 -81.43433 1491.719
v 1951.269 -100.5163 1491.719
v 1708.236 -73.93994 1491.719
v 1343.686 -82.24197 1370.203
v 1829.752 -94.55469 1370.202
v 1951.269 -86.53276 1370.202
v 1465.202 -89.85124 1370.202
v 1708.236 -94.86194 1370.202
v 1586.719 -82.84451 1370.202
v 1829.752 -77.51482 1248.685
v 1951.269 -86.56879 1248.685
v 1708.236 -86.73196 1248.685
v 1586.719 -92.25116 1248.685
v 1465.205 -83.51783 1248.688
v 1343.714 -86.22205 1248.717
v 1829.752 -101.0388 1127.168
v 1951.269 -90.65341 1127.168
v 1708.236 -72.02216 1127.168
v 1586.72 -80.68826 1127.169
v 1465.197 -102.1891 1127.164
v 1829.752 -84.66731 1005.651
v 1951.269 -83.97739 1005.651
v 1708.236 -86.61971 1005.651
v 1586.754 -70.94102 1005.682
v 1829.752 -83.16966 884.1346
v 1951.269 -66.76942 884.1346
v 1708.235 -104.1369 884.134
v 1829.752 -92.46033 762.6178
v 1951.269 -63.96951 762.6177
v 1343.667 -101.8363 1127.149
v 1465.518 -63.49533 1005.893
v 1586.753 -93.02231 884.1546
v 1708.254 -79.03481 762.6306
v 1829.752 -109.4697 641.101
v 1951.269 -70.70771 641.1009
v 1344.096 -78.95747 1005.996
v 1464.896 -115.2162 883.9533
v 1586.951 -78.27475 762.7133
v 1708.296 -75.3699 641.1242
v 1829.752 -87.48448 519.5841
v 1951.269 -99.991 519.5841
v 1344.262 -78.75942 884.5204
v 1464.794 -111.1425 762.4418
v 1586.977 -83.92463 641.1727
v 1708.313 -80.9167 519.5964
v 1829.752 -87.29514 398.0673
v 1951.269 -92.86373 398.0673
v 1344.144 -82.48749 762.8479
v 1466.632 -58.61745 641.5112
v 1587.778 -48.66479 519.7284
v 1708.234 -100.4706 398.0673
v 1829.752 -88.66993 276.5504
v 1951.269 -89.30512 276.5504
v 1344.587 -73.29351 641.4025
v 1465.09 -97.23962 519.5681
v 1587.249 -75.34624 398.0673
v 1708.294 -85.39655 276.5411
v 1829.752 -105.6072 155.0336
v 1951.269 -92.23248 155.0336
v 1344.987 -66.3146 519.8021
v 1464.916 -100.5364 398.0673
v 1586.381 -114.955 276.5964
v 1708.278 -82.71111 155.0173
v 1829.752 -88.38796 33.51681
v 1951.269 -88.31807 33.51681
v 1344.429 -75.35942 398.0673
v 1465.813 -80.78845 276.4629
v 1586.936 -86.4593 154.9752
v 1708.262 -77.67471 33.50999
v 1829.753 -95.36884 -87.99959
v 1951.269 -83.895 -88.00002
v 1344.422 -75.8099 276.4318
v 1466.806 -55.7353 154.6638
v 1586.608 -107.9464 33.52594
v 1708.268 -90.51705 -87.97339
v 1829.793 -77.33216 -209.4822
v 1951.269 -92.2774 -209.5168
v 1344.232 -80.73239 154.9433
v 1465.833 -81.43441 33.5197
v 1586.611 -105.6245 -88.06116
v 1708.196 -103.1375 -209.5474
v 1829.839 -87.64549 -330.9835
v 1951.276 -82.79913 -331.0274
v 1348.782 -15.03016 34.11125
v 1465.723 -85.31532 -87.76849
v 1586.841 -93.5772 -209.423
v 1708.839 -75.92528 -330.6766
v 1830.368 -59.37623 -452.295
v 1951.271 -99.14592 -452.549
v 1344.228 -81.51384 -87.77388
v 1464.643 -101.604 -209.8966
v 1587.117 -85.69858 -330.7719
v 1709.752 -60.2694 -451.8956
v 1830.243 -78.47014 -573.931
v 1951.411 -79.7452 -574.0129
v 1345.255 -65.47159 -208.6007
v 1465.405 -83.30977 -330.8962
v 1588.222 -67.1253 -451.8157
v 1708.423 -90.63842 -574.0134
v 1830.244 -82.07429 -695.5175
v 1951.507 -79.33533 -695.5463
v 1339.951 -112.9369 -333.4225
v 1465.669 -74.43738 -452.3029
v 1587.328 -77.99621 -573.8708
v 1711.055 -47.2551 -695.179
v 1829.697 -99.98538 -817.101
v 1951.573 -77.21861 -817.101
v 1347.297 -33.96372 -450.5222
v 1465.63 -70.08463 -573.9191
v 1587.655 -72.34653 -695.4365
v 1707.347 -105.5691 -817.101
v 1830.267 -81.29812 -938.6877
v 1951.561 -74.6263 -938.6642
v 1344.069 -56.78028 -573.922
v 1464.852 -73.99747 -695.6401
v 1584.152 -110.888 -817.0842
v 1709.327 -74.96076 -938.7747
v 1829.884 -93.59209 -1060.171
v 1951.314 -93.53058 -1060.152
v 1346.47 -33.68089 -695.1288
v 1471.904 -9.021796 -817.2803
v 1586.805 -82.01691 -938.6326
v 1708.885 -82.17721 -1060.321
v 1829.922 -88.6671 -1181.722
v 1951.307 -85.08085 -1181.677
v 1348.892 -13.29688 -817.3918
v 1465.548 -68.06818 -938.6921
v 1585.362 -103.1033 -1059.68
v 1708.54 -89.05515 -1181.783
v 1829.734 -102.5875 -1303.158
v 1951.269 -101.1888 -1303.168
v 1342.282 -69.5162 -938.225
v 1469.856 -24.69395 -1062.031
v 1587.657 -74.92393 -1182.122
v 1708.594 -85.11168 -1303.38
v 1829.759 -96.13195 -1424.691
v 1951.269 -73.91663 -1424.685
v 1345.523 -45.04198 -1061.075
v 1462.361 -116.4541 -1179.936
v 1586.421 -99.63306 -1302.969
v 1708.486 -79.61597 -1424.876
v 1829.751 -113.9373 -1546.201
v 1951.269 -108.6998 -1546.202
v 1342.392 -85.38363 -1180.679
v 1466.604 -63.95759 -1304.291
v 1587.526 -70.80898 -1425.362
v 1708.303 -79.61477 -1546.262
v 1829.752 -109.9739 -1667.719
v 1951.269 -90.63344 -1667.719
v 1342.325 -98.43028 -1301.811
v 1465.728 -80.69128 -1425.211
v 1586.993 -78.87049 -1546.476
v 1708.239 -89.03912 -1667.722
v 1829.752 -96.12388 -1789.236
v 1951.269 -89.71679 -1789.236
v 1344.099 -78.1408 -1425.201
v 1464.68 -117.8556 -1545.579
v 1586.722 -98.8223 -1667.723
v 1708.236 -81.45047 -1789.236
v 1829.752 -72.75038 -1910.752
v 1951.269 -83.29261 -1910.752
v 1829.752 -98.07085 -2032.269
v 1951.269 -120.0731 -2032.269
v 1708.236 -97.2895 -2032.269
v 1708.236 -72.07841 -1910.752
v 1586.719 -97.68562 -2032.269
v 1586.719 -90.15041 -1910.752
v 1465.202 -89.79026 -2032.269
v 1586.722 -59.86233 -1789.239
v 1465.202 -85.69354 -1910.752
v 1343.685 -98.92474 -2032.269
v 1465.214 -92.31816 -1789.249
v 1343.691 -70.72755 -1910.758
v 1222.168 -94.18732 -2032.269
v 1465.4 -78.85357 -1667.978
v 1222.161 -108.8868 -1910.741
v 1100.651 -95.68153 -2032.269
v 1343.807 -70.12886 -1789.444
v 1343.659 -100.1813 -1667.674
v 1100.696 -66.67828 -1910.868
v 979.1346 -76.30966 -2032.269
v 1222.265 -84.53284 -1789.468
v 1344.568 -66.64485 -1547.522
v 979.1456 -88.02525 -1910.821
v 857.6179 -81.76697 -2032.269
v 1100.974 -50.30101 -1790.394
v 1222.009 -105.0505 -1667.35
v 1221.648 -105.2513 -1545.164
v 857.6179 -110.081 -1910.685
v 736.101 -81.25112 -2032.269
v 979.1927 -84.20953 -1789.663
v 1100.874 -79.90341 -1668.492
v 1224.382 -34.10744 -1428.334
v 736.0908 -88.79522 -1910.817
v 614.5842 -115.9495 -2032.269
v 857.6179 -89.92643 -1789.503
v 1100.354 -96.77406 -1545.328
v 979.4833 -53.95698 -1670.122
v 1223.269 -53.38987 -1304.602
v 614.5653 -85.95062 -1910.801
v 493.0673 -89.4037 -2032.269
v 736.0651 -89.66676 -1789.5
v 857.6102 -112.8563 -1666.344
v 1100.436 -80.33138 -1424.174
v 979.5514 -57.07422 -1548.49
v 1220.525 -78.7548 -1180.05
v 493.0565 -87.29113 -1910.768
v 371.5505 -91.05178 -2032.269
v 614.5234 -89.91973 -1789.454
v 735.814 -58.08993 -1669.915
v 857.5794 -95.80846 -1544.901
v 1101.328 -50.5327 -1304.409
v 979.2436 -66.71548 -1425.132
v 371.5496 -94.89956 -1910.753
v 250.0337 -99.38562 -2032.269
v 493.0325 -94.30708 -1789.319
v 614.5011 -88.63748 -1668.029
v 736.0574 -78.78893 -1546.571
v 857.5259 -79.93343 -1423.345
v 979.8747 -37.43443 -1305.43
v 250.0337 -86.88934 -1910.752
v 128.5168 -94.88396 -2032.269
v 371.5371 -96.70679 -1789.259
v 492.7637 -79.59057 -1668.471
v 614.0627 -63.28045 -1548.164
v 736.1583 -73.45162 -1424.127
v 128.5168 -91.72874 -1910.752
v 6.999997 -91.81348 -2032.269
v 250.0273 -95.81181 -1789.243
v 371.746 -110.5376 -1667.367
v 492.0301 -56.82991 -1548.721
v 6.999997 -65.00365 -1910.752
v -114.5168 -99.05605 -2032.269
v 128.5164 -95.6917 -1789.236
v 250.0492 -101.4382 -1667.697
v -114.5168 -89.5472 -1910.752
v -236.0337 -91.58665 -2032.269
v 6.999997 -93.05642 -1789.236
v -236.0337 -94.94735 -1910.752
v -357.5505 -101.56 -2032.269
v 612.7497 -14.09998 -1431.432
v 371.3081 -85.90133 -1546.638
v 128.5108 -98.20076 -1667.726
v -114.5168 -94.22994 -1789.236
v -357.5505 -85.88206 -1910.752
v -479.0673 -85.5775 -2032.269
v 492.5602 -65.77032 -1425.843
v 250.2815 -105.714 -1545.845
v 6.997468 -93.09622 -1667.721
v -236.0337 -79.94279 -1789.236
v -479.0673 -77.5659 -1910.752
v -600.5842 -92.76246 -2032.269
v 368.9822 -35.54673 -1428.972
v 128.6181 -105.9917 -1546.076
v -114.5168 -89.37469 -1667.719
v -357.5505 -99.15546 -1789.236
v -600.5842 -87.06728 -1910.752
v -722.101 -104.2728 -2032.269
v 249.5877 -81.2179 -1425.28
v 7.024672 -104.8705 -1546.173
v -236.0337 -88.94657 -1667.719
v -479.0673 -89.99767 -1789.236
v -722.101 -102.0183 -1910.752
v -843.6179 -95.78065 -2032.269
v 126.1553 -34.37886 -1427.394
v -114.5366 -74.07944 -1546.225
v -357.5505 -78.94467 -1667.719
v -600.5842 -85.36743 -1789.236
v -843.6179 -77.60165 -1910.752
v -965.1346 -78.54752 -2032.269
v 6.904362 -94.28464 -1424.79
v -236.034 -87.53956 -1546.202
v -479.0673 -88.58358 -1667.719
v -722.101 -85.34589 -1789.236
v -965.1346 -104.7644 -1910.752
v -1086.651 -82.97967 -2032.269
v -114.5726 -90.48988 -1424.751
v -357.5505 -91.1745 -1546.202
v -600.5842 -104.0462 -1667.719
v -843.6179 -83.44869 -1789.236
v -1086.651 -86.58934 -1910.752
v -1208.168 -99.15835 -2032.269
v -236.0514 -86.12691 -1424.705
v -479.0673 -94.56034 -1546.202
v -722.101 -67.90022 -1667.719
v -965.1346 -81.37101 -1789.236
v -1208.168 -94.04697 -1910.752
v -1329.685 -92.39168 -2032.269
v -357.5517 -90.10913 -1424.686
v -600.5842 -103.7472 -1546.202
v -843.6179 -76.23852 -1667.719
v -1086.651 -86.38723 -1789.236
v -1329.685 -85.39816 -1910.752
v -1451.202 -97.2643 -2032.269
v -479.0673 -104.6986 -1424.685
v -722.101 -92.86509 -1546.202
v -965.1346 -83.49101 -1667.719
v -1208.168 -79.74787 -1789.236
v -1451.202 -98.75569 -1910.752
v -1572.719 -82.31771 -2032.269
v -600.5842 -71.40382 -1424.685
v -843.6179 -88.63705 -1546.202
v -1086.651 -75.32007 -1667.719
v -1329.685 -116.7916 -1789.236
v -1572.719 -102.3608 -1910.752
v -1694.236 -80.40812 -2032.269
v -722.101 -92.03634 -1424.685
v -965.1346 -86.44022 -1546.202
v -1208.168 -100.4682 -1667.719
v -1451.202 -79.36263 -1789.236
v -1694.236 -92.31921 -1910.752
v -1815.752 -83.94772 -2032.269
v -843.6179 -100.3827 -1424.685
v -1086.651 -81.60359 -1546.202
v -1329.685 -81.46002 -1667.719
v -1572.719 -101.0492 -1789.236
v -1815.752 -101.9693 -1910.752
v -1937.269 -60.28545 -2032.269
v -1937.269 -89.55128 -1910.752
v -1694.236 -77.29112 -1789.236
v -1815.752 -93.98869 -1789.236
v -1937.269 -92.54374 -1789.236
v -1451.202 -93.26836 -1667.719
v -1208.168 -105.7723 -1546.202
v -1572.719 -77.38941 -1667.719
v -1815.752 -75.37037 -1667.719
v -1937.269 -102.8033 -1667.719
v -1694.236 -92.08849 -1667.719
v -1329.685 -92.79638 -1546.202
v -1815.752 -85.93504 -1546.202
v -1937.269 -106.553 -1546.202
v -1451.202 -103.3761 -1546.202
v -1694.236 -101.4772 -1546.202
v -1572.719 -101.4315 -1546.202
v -1815.752 -70.9606 -1424.685
v -1937.269 -88.54458 -1424.685
v -1694.236 -79.88911 -1424.685
v -1572.719 -101.7437 -1424.685
v -1451.202 -70.27488 -1424.685
v -1329.685 -92.06062 -1424.685
v -1815.752 -81.98154 -1303.168
v -1937.269 -80.40346 -1303.168
v -1694.236 -95.41886 -1303.168
v -1572.719 -98.52715 -1303.168
v -1451.202 -81.89073 -1303.168
v -1815.752 -89.77089 -1181.651
v -1937.269 -85.13467 -1181.651
v -1694.236 -73.51421 -1181.651
v -1572.72 -88.18233 -1181.652
v -1815.752 -79.34686 -1060.135
v -1937.269 -71.9604 -1060.135
v -1694.235 -102.4603 -1060.134
v -1815.753 -92.85077 -938.6185
v -1937.269 -88.74792 -938.6178
v -1329.686 -95.43177 -1303.169
v -1451.219 -86.83226 -1181.671
v -1572.731 -95.13354 -1060.148
v -1694.281 -83.68578 -938.6586
v -1815.774 -85.77335 -817.1191
v -1937.269 -72.81643 -817.101
v -1329.744 -82.86366 -1181.753
v -1451.138 -107.9024 -1060.051
v -1572.815 -91.17262 -938.7137
v -1694.5 -74.68269 -817.3026
v -1815.807 -90.88879 -695.6156
v -1937.27 -98.17511 -695.5847
v -1329.427 -117.9401 -1059.698
v -1451.536 -82.34849 -939.0164
v -1573.174 -80.16134 -817.4819
v -1694.178 -101.2743 -695.5498
v -1815.913 -87.43594 -574.1339
v -1937.318 -77.53922 -574.1009
v -1330.214 -75.54557 -939.4094
v -1452.272 -65.41791 -818.1715
v -1573.595 -73.51253 -696.1697
v -1693.671 -112.6113 -573.8237
v -1816.893 -42.72766 -452.8681
v -1937.358 -85.0295 -452.5843
v -1331.052 -56.28244 -818.8078
v -1452.993 -54.70395 -697.0179
v -1572.652 -92.14293 -574.0336
v -1693.605 -108.5626 -452.3693
v -1815.794 -97.07153 -331.0394
v -1937.333 -93.51498 -331.0438
v -1331.016 -57.71197 -696.9151
v -1450.723 -90.45049 -573.7789
v -1574.21 -65.07706 -453.0491
v -1695.837 -63.37755 -331.2636
v -1815.744 -98.81089 -209.5168
v -1937.47 -82.2882 -209.5168
v -1328.862 -86.84535 -573.4495
v -1453.771 -44.95179 -453.5809
v -1573.757 -71.21555 -331.2072
v -1694.549 -87.44139 -209.5168
v -1816.863 -55.05226 -87.84935
v -1937.459 -80.59935 -87.96982
v -1332.218 -36.23097 -453.82
v -1454.642 -34.02308 -331.7239
v -1573.037 -80.52455 -209.5168
v -1694.486 -88.87482 -87.96407
v -1815.838 -95.05945 33.54045
v -1937.348 -86.80615 33.54661
v -1329.482 -67.71194 -330.9828
v -1449.605 -93.57536 -209.5168
v -1572.317 -91.1267 -88.06719
v -1694.908 -80.45532 33.71002
v -1816.147 -69.44469 155.1969
v -1937.254 -107.1245 155.023
v -1329.523 -65.84838 -209.5168
v -1454.208 -39.28978 -87.39691
v -1572.535 -90.53971 33.45531
v -1693.768 -109.9053 154.8318
v -1815.796 -92.72749 276.5755
v -1937.269 -99.87175 276.5505
v -1329.24 -70.61225 -88.1115
v -1452.338 -63.79577 33.97245
v -1572.607 -92.94543 154.9777
v -1694.936 -67.91116 276.9653
v -1815.756 -97.42589 398.0706
v -1937.269 -86.97288 398.0673
v -1329.873 -66.68481 33.60201
v -1452.469 -63.98693 155.7959
v -1574.24 -58.05941 277.5667
v -1694.289 -94.77071 398.1083
v -1815.752 -102.1266 519.5839
v -1937.269 -72.59573 519.5841
v -1329.546 -76.45514 154.9572
v -1453.504 -45.08304 278.3933
v -1573.952 -50.07092 399.0998
v -1694.318 -70.23087 519.6586
v -1815.752 -82.52651 641.1009
v -1937.269 -108.0239 641.101
v -1330.134 -75.50758 276.8859
v -1450.51 -111.8049 397.3756
v -1573.096 -65.94983 519.9618
v -1694.243 -71.81769 641.1078
v -1815.752 -93.76684 762.6178
v -1937.269 -84.43322 762.6178
v -1330.523 -73.044 398.9927
v -1451.646 -77.24501 520.1147
v -1572.74 -91.33858 641.125
v -1694.236 -103.4629 762.6178
v -1815.752 -84.97662 884.1346
v -1694.236 -95.87486 884.1346
v -1694.236 -96.26829 1005.651
v -1572.72 -82.41976 762.6194
v -1451.171 -103.766 641.0605
v -1572.719 -106.3749 884.1346
v -1572.719 -84.06561 1127.168
v -1572.719 -98.26681 1005.651
v -1451.202 -87.02386 1127.168
v -1451.211 -93.16994 762.628
v -1451.202 -71.77766 884.1346
v -1451.202 -85.01151 1005.651
v -1329.685 -72.8161 1127.168
v -1329.685 -106.1448 1005.651
v -1208.168 -71.05746 1127.168
v -1329.687 -86.81865 884.1365
v -1329.734 -85.79438 762.7023
v -1208.169 -81.25991 1005.653
v -1086.674 -71.23724 1127.188
v -1208.184 -88.10944 884.152
v -1330.058 -71.03221 641.73
v -1086.729 -75.48025 1005.697
v -965.2864 -72.92493 1127.284
v -1208.257 -87.11181 762.7906
v -1330.393 -71.17605 520.6146
v -1086.792 -82.52235 884.2365
v -965.355 -81.21439 1005.782
v -843.9584 -74.22205 1127.454
v -1208.314 -92.26866 641.3295
v -1209.254 -80.79688 520.6981
v -1087.176 -70.94997 763.3307
v -965.349 -87.58851 884.2759
v -843.9984 -80.05581 1005.906
v -722.4469 -79.60089 1127.514
v -1090.561 -46.12947 647.083
v -1212.062 -63.16587 400.4484
v -964.678 -108.9764 762.0463
v -844.0012 -82.23101 884.4001
v -722.4011 -83.25495 1005.892
v -601.0808 -72.01517 1127.789
v -1086.611 -73.65258 519.539
v -1214.891 -44.49048 278.1453
v -967.7053 -63.28677 646.8553
v -843.672 -90.40405 762.7061
v -723.6435 -49.04224 885.3222
v -602.1218 -42.30668 1007.189
v -478.4685 -119.1037 1126.172
v -357.7097 -78.89761 1127.564
v -478.7395 -96.19931 1005.193
v -602.7834 -50.46364 886.1555
v -720.3267 -130.6833 760.0234
v -843.3407 -85.60091 639.0473
v -236.3055 -62.67992 1128.293
v -358.0352 -61.39818 1006.954
v -479.5679 -73.42837 884.8746
v -605.4001 -37.78078 766.3771
v -114.7239 -63.87242 1128.391
v -236.0344 -81.22261 1005.655
v -358.322 -46.47055 888.076
v 6.944033 -78.94986 1127.574
v -114.3035 -89.88419 1004.919
v 128.4711 -77.26791 1127.679
v -722.2293 -87.10199 638.9474
v -481.3416 -41.84519 764.9788
v -236.1361 -81.18771 883.0346
v 6.526922 -52.68121 1007.433
v 250.0754 -107.7924 1125.19
v -601.784 -56.61676 642.9771
v -357.4382 -43.75102 762.0035
v -114.7608 -41.5294 886.7696
v 127.9247 -32.84744 1009.149
v 371.4559 -104.2157 1125.46
v -473.4533 -72.50725 638.9778
v -235.4847 -40.05063 763.8322
v 6.968846 -65.29331 884.22
v 250.0213 -70.26257 1005.855
v 493.2442 -67.51081 1128.541
v -359.5685 41.52956 643.616
v -114.3411 -55.66488 763.1312
v 128.4229 -58.71301 884.4991
v 371.671 -47.24294 1007.996
v 614.6032 -84.83302 1127.269
v -232.11 5.411237 642.4622
v 6.595394 -43.33039 763.6128
v 249.9236 -49.44541 885.1709
v 493.4298 -49.21029 1007.883
v 736.2466 -78.6913 1127.766
v -111.6609 -3.992218 642.8821
v 127.5071 -16.84654 765.1918
v 371.5482 -61.30083 884.0869
v 615.1579 -50.49164 1007.831
v 6.771649 -42.77412 641.4295
v 249.5139 -11.77004 765.5538
v 493.2745 -50.74874 885.17
v 127.17 -5.310097 642.9911
v 371.6559 -14.5444 765.3977
v 249.0463 13.81012 644.0145
v 736.0424 -81.49435 1005.481
v 615.0974 -48.00095 885.6155
v 493.2855 -40.55658 763.4788
v 371.562 -24.43685 642.048
v 857.8618 -77.03757 1127.875
v 979.001 -107.8313 1248.376
v 1101.156 -53.69122 1249.536
v 979.2971 -85.42828 1127.492
v 857.0207 -103.3736 1004.291
v 736.8405 -49.30371 885.7004
v 614.9327 -45.14566 763.3661
v 1222.225 -91.29552 1248.76
v 1101.087 -76.62331 1127.819
v 1222.212 -95.71021 1127.22
v 978.9594 -91.39145 1005.36
v 858.1638 -60.28046 885.0698
v 1100.414 -97.14323 1005.355
v 1221.839 -105.172 1005.322
v 980.0086 -58.60316 885.2913
v 735.1843 -80.24878 761.2261
v 1222.236 -88.86896 884.1889
v 1101.537 -65.56702 885.0204
v 858.3907 -50.59152 763.5679
v 1221.584 -96.75439 762.2667
v 1102.901 -38.99289 764.3065
v 979.9168 -57.31016 763.3853
v 1222.218 -81.59676 641.1208
v 1101.385 -62.89001 641.4683
v 977.0231 -101.7611 639.7386
v 856.9509 -71.12301 640.5706
v 735.9857 -54.65207 640.9865
v 1224.893 -40.00901 520.1311
v 1103.064 -36.29922 520.1891
v 977.2045 -92.41859 518.9678
v 858.954 -33.93566 520.1053
v 1220.813 -98.36785 398.0667
v 1101.783 -54.32481 398.0794
v 977.648 -83.32389 398.0101
v 1224.087 -52.67369 276.2512
v 1102.534 -45.93763 276.3387
v 1223.009 -70.88029 154.9867
v 736.9091 -33.1845 519.9839
v 859.7651 -21.72759 398.2642
v 979.5381 -56.75228 276.5364
v 1100.18 -78.09323 155.0038
v 1222.988 -71.72222 33.71151
v 734.5609 -69.98785 397.7523
v 858.1052 -48.00437 276.6341
v 980.6411 -44.22989 155.3363
v 1104.785 -24.71134 34.97079
v 1223.637 -61.979 -87.33672
v 736.6017 -38.57564 276.8169
v 861.0518 -22.41765 156.2806
v 979.0243 -59.92709 33.46949
v 1100.242 -68.29093 -88.21783
v 1220.978 -81.30052 -210.1919
v 737.7402 -19.86309 156.1003
v 857.7189 -45.30253 33.54775
v 979.6509 -46.80142 -87.69579
v 1107.161 5.024301 -205.4373
v 1222.626 -57.91225 -330.7488
v 737.3286 -13.93127 33.80864
v 860.2367 -17.88203 -87.25378
v 983.6331 6.164794 -206.1074
v 1105.546 -2.743694 -327.7679
v 1224.716 -31.12696 -451.0275
v 739.9385 13.69796 -88.7699
v 856.4999 -50.4384 -210.3131
v 977.2709 -56.69183 -332.571
v 1100.65 -38.95312 -452.5516
v 1224.261 -27.53764 -573.1516
v 738.1214 14.33818 -208.8837
v 858.4896 -10.81729 -329.9545
v 981.5007 0.9777088 -450.6229
v 1097.765 -56.61857 -575.5845
v 1227.367 1.354793 -694.6296
v 736.2292 -14.53657 -330.5801
v 857.5304 -19.66755 -452.6651
v 981.4264 9.162564 -572.4807
v 1101.75 -14.82278 -695.3345
v 1224.651 -19.25396 -817.3293
v 736.2302 3.96721 -451.4577
v 857.306 -17.26382 -574.4414
v 979.2788 -10.591 -695.5385
v 1103.018 -2.568424 -817.4445
v 1224.725 -20.83785 -939.5784
v 736.102 8.460142 -573.3083
v 858.4986 17.25402 -695.0646
v 981.4676 17.42638 -817.6943
v 1099.738 -37.45813 -938.1294
v 1221.878 -52.62187 -1059.94
v 1102.695 -14.84171 -1062.053
v 1103.421 -12.14925 -1185.43
v 977.9131 -33.94907 -937.5439
v 858.7278 26.19182 -817.8419
v 980.1641 -21.44992 -1183.958
v 980.5533 -5.349744 -1062.312
v 857.6 -11.10028 -938.578
v 857.7697 -42.43923 -1304.518
v 857.8696 -24.56756 -1183.169
v 858.0696 -5.020832 -1061.925
v 735.9986 -44.86998 -1304.21
v 736.0035 -28.99912 -1182.575
v 612.9649 -14.68226 -1308.493
v 735.9368 -9.263401 -1061.426
v 492.1599 -47.14823 -1304.968
v 614.1464 -30.41365 -1182.844
v 736.0175 -3.248438 -939.0784
v 369.9361 -48.33125 -1305.488
v 613.3677 -1.664174 -1062.646
v 493.9601 -59.83226 -1180.207
v 736.1176 -4.360985 -817.0604
v 247.8124 -49.99369 -1305.704
v 371.5444 -57.47204 -1181.658
v 493.2371 -35.84269 -1059.928
v 613.3221 9.085134 -940.309
v 735.9551 19.17929 -695.1752
v 127.7547 -76.85793 -1303.908
v 247.6899 -44.0888 -1183.817
v 368.7668 -18.04547 -1062.575
v 615.4173 -22.42303 -816.6404
v 492.1625 -12.78915 -939.3352
v 614.0148 4.71954 -695.4417
v 7.787589 -114.7333 -1302.451
v 126.2888 -54.6469 -1183.394
v 248.4849 -44.66432 -1061.212
v 369.3529 -15.92637 -939.883
v 493.9962 -26.79155 -816.7797
v 612.2522 41.41549 -571.9661
v -114.5065 -99.4107 -1303.158
v 5.853319 -72.45924 -1182.47
v 126.9513 -57.28725 -1061.064
v 249.284 -44.20073 -938.9654
v 370.9908 -24.83059 -817.2479
v 492.2583 -6.196691 -695.5067
v -236.1635 -78.16949 -1303.298
v -115.33 -73.23971 -1182.261
v 5.704352 -67.98196 -1060.967
v 129.4556 -74.44313 -938.0972
v 248.5988 -33.3633 -817.4803
v 370.4779 -19.04667 -695.5124
v 493.4061 -22.25762 -574.2108
v -357.557 -94.80292 -1303.176
v -235.8759 -110.6227 -1181.491
v -114.9804 -81.96938 -1060.684
v 5.527126 -53.88107 -940.8359
v 127.8071 -51.05019 -817.6989
v 248.8022 -32.72416 -695.5565
v -479.0572 -85.56667 -1303.185
v -357.5786 -85.32243 -1181.799
v -236.2596 -83.97703 -1060.807
v -114.7118 -72.40696 -940.2962
v 7.096392 -55.45258 -818.3066
v -600.5659 -83.81385 -1303.216
v -478.9615 -76.88306 -1181.965
v -357.7556 -62.37257 -1061.822
v -236.2746 -67.18503 -941.6229
v -722.095 -92.1662 -1303.207
v -600.7316 -125.5279 -1181.121
v -479.0747 -97.82544 -1060.093
v -114.8232 -65.42932 -815.6043
v -357.6619 -84.29479 -939.2015
v -236.0443 -49.90007 -818.0964
v -843.6179 -78.16256 -1303.292
v -721.9746 -62.09944 -1182.583
v -600.3298 -75.36796 -1061.05
v -478.9436 -98.70901 -937.7425
v -356.2062 -78.15533 -812.6277
v -965.1346 -99.76574 -1424.685
v -1086.651 -81.55728 -1424.685
v -965.1388 -94.54159 -1303.195
v -843.6179 -62.32051 -1182.64
v -721.9733 -76.81981 -1061.024
v -600.4305 -71.71039 -939.8689
v -1208.168 -85.35861 -1424.685
v -1086.648 -103.2626 -1303.159
v -1208.18 -84.32085 -1303.185
v -965.2488 -65.63657 -1182.493
v -843.6179 -81.22215 -1060.791
v -1208.178 -98.01529 -1181.675
v -1086.646 -100.2932 -1181.631
v -1208.087 -102.1293 -1059.946
v -965.391 -59.91593 -1061.92
v -1086.637 -96.04518 -1060.084
v -721.6237 -45.26397 -941.5422
v -1208.617 -74.78277 -939.512
v -1087.31 -57.80478 -940.587
v -964.8837 -106.3338 -937.1163
v -843.6179 -82.9672 -938.7543
v -1207.707 -94.79816 -816.3347
v -1088.264 -25.8548 -821.1216
v -965.2421 -69.25953 -817.6364
v -843.6179 -105.3237 -814.5102
v -722.0154 -68.0907 -817.7698
v -1208.575 -66.71874 -696.126
v -1087.87 -37.54533 -698.0156
v -965.2318 -60.62357 -695.972
v -843.6179 -44.34455 -697.261
v -1209.693 -41.58192 -575.5925
v -1088.264 -24.99449 -576.4828
v -965.4098 -44.29166 -574.8905
v -1208.763 -51.20443 -452.9477
v -1087.541 -35.24252 -453.4404
v -1209.015 -43.98673 -331.3165
v -722.0593 -52.4326 -696.7503
v -843.6179 -25.88415 -576.2121
v -965.0474 -49.76748 -452.3763
v -1087.106 -38.92642 -331.2614
v -1210.056 -29.21048 -209.5168
v -722.0999 -45.79609 -574.7766
v -843.6191 -1.76724 -455.1339
v -965.3333 -34.79877 -331.2323
v -1087.916 -24.63824 -209.5689
v -1208.487 -51.6825 -87.96153
v -721.9422 -32.25183 -453.2952
v -843.6233 -34.80477 -331.1745
v -965.7699 -23.71048 -209.7201
v -1090.234 -15.58476 -89.57764
v -1211.975 -34.15211 33.26068
v -721.3156 -6.659198 -332.1568
v -843.713 -20.45299 -209.9189
v -966.4879 -25.84237 -89.95255
v -1091.704 -19.54345 30.44926
v -1212.733 -45.3548 154.8743
v -1093.185 4.565599 152.9208
v -970.4645 24.81379 25.79897
v -843.8028 -17.21216 -90.93916
v -1099.249 22.10147 278.2069
v -972.6337 81.6489 149.41
v -843.972 42.99519 25.7073
v -1083.622 -34.19199 396.1566
v -983.0441 123.9991 279.32
v -843.5204 96.2761 156.3297
v -969.5337 -15.16753 527.9117
v -966.0108 46.65991 399.0121
v -843.5067 -10.68499 517.9686
v -842.9912 110.3811 275.2379
v -844.1849 96.67292 405.7096
v -720.5827 -12.94049 523.8204
v -712.8829 80.79776 409.8633
v -602.9446 -74.57395 514.3902
v -717.4825 106.1728 277.2649
v -480.6794 -14.87085 519.446
v -595.0138 4.977159 401.7953
v -708.1801 108.8799 142.6393
v -357.3906 -38.1364 520.4456
v -477.9619 -46.40363 398.3679
v -603.1237 11.83142 276.2962
v -720.2442 18.17449 30.22786
v -234.2568 -16.22223 517.5467
v -597.3922 11.51474 153.7156
v -465.7111 6.341127 277.7306
v -357.7093 -68.50619 399.2888
v -720.6309 -17.36736 -91.02937
v -114.1443 -40.92194 519.2021
v -596.8317 -13.55861 30.57976
v -466.8459 4.81612 152.1231
v -235.9149 -52.09663 397.76
v -356.9403 -44.89129 276.3571
v -721.0897 -3.427068 -210.3819
v 6.427012 -32.08995 519.5408
v -114.5314 -44.67723 397.4654
v -235.239 -32.38094 275.2131
v -355.894 -37.85262 154.4873
v -597.4164 -10.41524 -90.37114
v -472.6006 -7.242846 31.20421
v -600.9905 -51.00171 -209.4271
v 127.959 -27.92321 519.6804
v 5.456326 -14.0519 396.2962
v -114.5069 -48.82681 275.573
v -235.4082 -56.91813 154.4338
v -476.1256 -20.23665 -88.51192
v -359.1177 -76.57565 33.91506
v 249.0874 0.4810858 520.1855
v 129.0765 -55.50911 398.5419
v 6.511892 -47.0982 275.3925
v -114.2179 -61.01482 153.9552
v -238.17 -98.51787 34.7043
v -355.9641 -49.78341 -87.97203
v -478.6241 -43.1699 -209.2538
v -600.6143 -50.77952 -331.0277
v -602.6368 -5.0521 -453.2347
v -480.2578 1.804185 -327.5295
v -358.0314 -66.57023 -210.0925
v -232.9434 -51.43209 -87.97466
v -115.1285 -97.68153 34.48904
v -602.6894 -25.67791 -575.9006
v -479.5894 -28.42921 -452.3314
v -357.6489 -57.9381 -334.1781
v -231.5222 -32.10192 -204.3222
v -602.1582 -39.58797 -698.4399
v -479.8768 -27.21913 -574.3651
v -359.5518 12.29455 -449.1533
v -601.4318 -38.07857 -821.6705
v -479.4274 -44.97313 -695.9943
v -482.4723 -27.21292 -824.8848
v -353.7803 -44.10767 -572.6862
v -358.2567 -20.77179 -696.8588
v -234.8255 -31.91984 -328.1369
v -235.6846 8.01294 -700.9652
v -234.8224 32.62357 -574.6597
v -236.0243 -14.40572 -452.5266
v -114.3083 -27.87969 -695.8869
v -111.5639 1.159382 -573.8663
v -113.4012 -25.81864 -451.3618
v -116.2674 -75.1338 -333.7088
v -112.4828 -67.82403 -207.3064
v 8.154237 -34.65915 -696.7161
v 8.360832 -32.43108 -573.7198
v 6.712311 -58.8383 -452.8794
v 11.63698 -20.41584 -321.4105
v 128.3689 -48.14634 -695.7894
v 128.2694 -93.50092 -575.8918
v 128.1344 -40.35766 -449.4607
v 254.9527 -91.83899 -576.1686
v 7.245928 -83.38922 -208.6488
v 130.8766 -121.3934 -334.9282
v 248.3656 -42.28535 -451.5578
v 372.3796 -38.10904 -574.3412
v 366.2771 3.14039 -450.1404
v 245.7833 -35.50765 -329.0441
v 129.8503 -103.4713 -210.0352
v 494.0147 -34.47109 -453.1268
v 371.1298 -42.19509 -330.8549
v 251.136 -78.52664 -209.7373
v 614.1685 -5.689861 -451.9808
v 613.4943 7.469958 -329.4776
v 494.2551 -43.89191 -331.6945
v 612.5209 47.35669 -210.5576
v 491.6028 -23.14924 -209.5706
v 614.2895 5.124998 -89.23211
v 367.8468 -27.24323 -208.9897
v 492.8526 -27.11575 -88.0783
v 614.6849 15.34536 33.90689
v 371.1822 -50.9295 -88.05859
v 615.6413 26.52471 159.2751
v 489.8456 0.6836749 33.33987
v 248.8927 -64.32853 -88.18974
v 614.1378 -48.27882 275.8068
v 369.6355 -36.46027 33.05964
v 491.2242 -6.906723 155.9389
v 126.959 -72.10514 -88.57545
v 614.4 -43.62584 397.991
v 246.0334 -34.0603 31.3202
v 371.0234 -38.80691 154.896
v 492.3489 -6.964232 277.3266
v 7.248744 -120.5888 -87.13748
v 612.7501 -86.56503 518.212
v 126.7502 -58.86228 31.72459
v 251.6717 -72.08813 156.4503
v 493.1205 -29.85538 398.116
v 371.0218 -27.93649 276.2941
v -115.095 -100.1082 -87.8598
v 6.924316 -82.63403 33.18315
v 129.4917 -79.34708 156.3731
v 6.626897 -60.2678 153.6664
v 129.2217 -64.17748 277.4901
v 248.6273 -22.11303 275.1291
v 249.9515 -36.76063 398.0117
v 371.7318 -46.17857 398.1517
v 371.5205 -29.63914 519.7507
v 493.2203 -29.14284 519.8279
v 493.3738 -27.64628 641.9678
v 614.9359 -37.5347 641.6093
f 145 146 147
f 145 147 148
f 149 145 148
f 148 147 150
f 149 148 151
f 152 149 151
f 148 150 153
f 151 148 153
f 153 150 154
f 152 151 155
f 156 152 155
f 151 153 157
f 155 151 157
f 153 154 158
f 157 153 158
f 158 154 159
f 156 155 160
f 161 156 160
f 155 157 162
f 160 155 162
f 158 159 163
f 163 159 164
f 157 158 165
f 162 157 165
f 165 158 163
f 161 160 166
f 167 161 166
f 163 164 168
f 168 164 169
f 160 162 170
f 166 160 170
f 162 165 171
f 170 162 171
f 165 163 172
f 172 163 168
f 171 165 172
f 167 166 173
f 174 167 173
f 168 169 175
f 175 169 176
f 166 170 177
f 173 166 177
f 170 171 178
f 177 170 178
f 171 172 179
f 178 171 179
f 172 168 180
f 180 168 175
f 179 172 180
f 174 173 181
f 182 174 181
f 175 176 183
f 183 176 184
f 173 177 185
f 181 173 185
f 177 178 186
f 185 177 186
f 178 179 187
f 186 178 187
f 179 180 188
f 187 179 188
f 180 175 189
f 189 175 183
f 188 180 189
f 183 184 190
f 190 184 191
f 189 183 192
f 192 183 190
f 188 189 193
f 193 189 192
f 187 188 194
f 194 188 193
f 186 187 195
f 195 187 194
f 190 191 196
f 196 191 197
f 192 190 198
f 198 190 196
f 193 192 199
f 199 192 198
f 194 193 200
f 200 193 199
f 196 197 201
f 201 197 202
f 198 196 203
f 203 196 201
f 199 198 204
f 204 198 203
f 201 202 205
f 205 202 206
f 203 201 207
f 207 201 205
f 205 206 208
f 208 206 209
f 210 194 200
f 195 194 210
f 200 199 211
f 211 199 204
f 204 203 212
f 212 203 207
f 207 205 213
f 213 205 208
f 208 209 214
f 214 209 215
f 210 200 216
f 216 200 211
f 211 204 217
f 217 204 212
f 212 207 218
f 218 207 213
f 213 208 219
f 219 208 214
f 214 215 220
f 220 215 221
f 216 211 222
f 222 211 217
f 217 212 223
f 223 212 218
f 218 213 224
f 224 213 219
f 219 214 225
f 225 214 220
f 220 221 226
f 226 221 227
f 222 217 228
f 228 217 223
f 223 218 229
f 229 218 224
f 224 219 230
f 230 219 225
f 225 220 231
f 231 220 226
f 226 227 232
f 232 227 233
f 228 223 234
f 234 223 229
f 229 224 235
f 235 224 230
f 230 225 236
f 236 225 231
f 231 226 237
f 237 226 232
f 232 233 238
f 238 233 239
f 234 229 240
f 240 229 235
f 235 230 241
f 241 230 236
f 236 231 242
f 242 231 237
f 237 232 243
f 243 232 238
f 238 239 244
f 244 239 245
f 240 235 246
f 246 235 241
f 241 236 247
f 247 236 242
f 242 237 248
f 248 237 243
f 243 238 249
f 249 238 244
f 244 245 250
f 250 245 251
f 246 241 252
f 252 241 247
f 247 242 253
f 253 242 248
f 248 243 254
f 254 243 249
f 249 244 255
f 255 244 250
f 250 251 256
f 256 251 257
f 252 247 258
f 258 247 253
f 253 248 259
f 259 248 254
f 254 249 260
f 260 249 255
f 255 250 261
f 261 250 256
f 256 257 262
f 262 257 263
f 258 253 264
f 264 253 259
f 259 254 265
f 265 254 260
f 260 255 266
f 266 255 261
f 261 256 267
f 267 256 262
f 262 263 268
f 268 263 269
f 264 259 270
f 270 259 265
f 265 260 271
f 271 260 266
f 266 261 272
f 272 261 267
f 267 262 273
f 273 262 268
f 268 269 274
f 274 269 275
f 270 265 276
f 276 265 271
f 271 266 277
f 277 266 272
f 272 267 278
f 278 267 273
f 273 268 279
f 279 268 274
f 274 275 280
f 280 275 281
f 276 271 282
f 282 271 277
f 277 272 283
f 283 272 278
f 278 273 284
f 284 273 279
f 279 274 285
f 285 274 280
f 280 281 286
f 286 281 287
f 282 277 288
f 288 277 283
f 283 278 289
f 289 278 284
f 284 279 290
f 290 279 285
f 285 280 291
f 291 280 286
f 286 287 292
f 292 287 293
f 288 283 294
f 294 283 289
f 289 284 295
f 295 284 290
f 290 285 296
f 296 285 291
f 291 286 297
f 297 286 292
f 292 293 298
f 298 293 299
f 294 289 300
f 300 289 295
f 295 290 301
f 301 290 296
f 296 291 302
f 302 291 297
f 297 292 303
f 303 292 298
f 298 299 304
f 304 299 305
f 300 295 306
f 306 295 301
f 301 296 307
f 307 296 302
f 302 297 308
f 308 297 303
f 303 298 309
f 309 298 304
f 304 305 310
f 310 305 311
f 306 301 312
f 312 301 307
f 307 302 313
f 313 302 308
f 308 303 314
f 314 303 309
f 309 304 315
f 315 304 310
f 310 311 316
f 316 311 317
f 312 307 318
f 318 307 313
f 313 308 319
f 319 308 314
f 314 309 320
f 320 309 315
f 315 310 321
f 321 310 316
f 316 317 322
f 322 317 323
f 322 323 324
f 325 316 322
f 321 316 325
f 326 322 324
f 325 322 326
f 326 324 327
f 328 315 321
f 320 315 328
f 329 314 320
f 319 314 329
f 330 321 325
f 328 321 330
f 331 326 327
f 331 327 332
f 333 325 326
f 330 325 333
f 333 326 331
f 334 320 328
f 329 320 334
f 335 331 332
f 335 332 336
f 337 328 330
f 334 328 337
f 338 333 331
f 338 331 335
f 339 330 333
f 337 330 339
f 339 333 338
f 340 335 336
f 340 336 341
f 342 338 335
f 342 335 340
f 343 339 338
f 343 338 342
f 344 337 339
f 344 339 343
f 345 334 337
f 345 337 344
f 346 340 341
f 346 341 347
f 348 342 340
f 348 340 346
f 349 343 342
f 349 342 348
f 350 344 343
f 350 343 349
f 351 346 347
f 351 347 352
f 353 348 346
f 353 346 351
f 354 349 348
f 354 348 353
f 355 351 352
f 355 352 356
f 357 353 351
f 357 351 355
f 358 355 356
f 358 356 359
f 360 344 350
f 360 345 344
f 361 350 349
f 361 349 354
f 362 354 353
f 362 353 357
f 363 357 355
f 363 355 358
f 364 358 359
f 364 359 365
f 366 360 350
f 366 350 361
f 367 361 354
f 367 354 362
f 368 362 357
f 368 357 363
f 369 363 358
f 369 358 364
f 370 364 365
f 370 365 371
f 372 366 361
f 372 361 367
f 373 367 362
f 373 362 368
f 374 368 363
f 374 363 369
f 375 369 364
f 375 364 370
f 376 370 371
f 376 371 377
f 378 372 367
f 378 367 373
f 379 373 368
f 379 368 374
f 380 374 369
f 380 369 375
f 381 375 370
f 381 370 376
f 382 376 377
f 382 377 383
f 384 378 373
f 384 373 379
f 385 379 374
f 385 374 380
f 386 380 375
f 386 375 381
f 387 381 376
f 387 376 382
f 388 382 383
f 388 383 389
f 390 384 379
f 390 379 385
f 391 385 380
f 391 380 386
f 392 386 381
f 392 381 387
f 393 387 382
f 393 382 388
f 394 388 389
f 394 389 395
f 396 390 385
f 396 385 391
f 397 391 386
f 397 386 392
f 398 392 387
f 398 387 393
f 399 393 388
f 399 388 394
f 400 394 395
f 400 395 401
f 402 396 391
f 402 391 397
f 403 397 392
f 403 392 398
f 404 398 393
f 404 393 399
f 405 399 394
f 405 394 400
f 406 400 401
f 406 401 407
f 408 402 397
f 408 397 403
f 409 403 398
f 409 398 404
f 410 404 399
f 410 399 405
f 411 405 400
f 411 400 406
f 412 406 407
f 412 407 413
f 414 408 403
f 414 403 409
f 415 409 404
f 415 404 410
f 416 410 405
f 416 405 411
f 417 411 406
f 417 406 412
f 418 412 413
f 418 413 419
f 420 414 409
f 420 409 415
f 421 415 410
f 421 410 416
f 422 416 411
f 422 411 417
f 423 417 412
f 423 412 418
f 424 418 419
f 424 419 425
f 426 420 415
f 426 415 421
f 427 421 416
f 427 416 422
f 428 422 417
f 428 417 423
f 429 423 418
f 429 418 424
f 430 424 425
f 430 425 431
f 432 426 421
f 432 421 427
f 433 427 422
f 433 422 428
f 434 428 423
f 434 423 429
f 435 429 424
f 435 424 430
f 436 430 431
f 436 431 437
f 438 432 427
f 438 427 433
f 439 433 428
f 439 428 434
f 440 434 429
f 440 429 435
f 441 435 430
f 441 430 436
f 442 436 437
f 442 437 443
f 444 438 433
f 444 433 439
f 445 439 434
f 445 434 440
f 446 440 435
f 446 435 441
f 447 441 436
f 447 436 442
f 448 442 443
f 448 443 449
f 450 444 439
f 450 439 445
f 451 445 440
f 451 440 446
f 452 446 441
f 452 441 447
f 453 447 442
f 453 442 448
f 454 448 449
f 454 449 455
f 456 450 445
f 456 445 451
f 457 451 446
f 457 446 452
f 458 452 447
f 458 447 453
f 459 453 448
f 459 448 454
f 460 454 455
f 460 455 461
f 462 456 451
f 462 451 457
f 463 457 452
f 463 452 458
f 464 458 453
f 464 453 459
f 465 459 454
f 465 454 460
f 466 460 461
f 466 461 467
f 468 462 457
f 468 457 463
f 469 463 458
f 469 458 464
f 470 464 459
f 470 459 465
f 471 465 460
f 471 460 466
f 472 466 467
f 472 467 473
f 474 468 463
f 474 463 469
f 475 469 464
f 475 464 470
f 476 470 465
f 476 465 471
f 477 471 466
f 477 466 472
f 478 472 473
f 478 473 479
f 480 474 469
f 480 469 475
f 481 475 470
f 481 470 476
f 482 476 471
f 482 471 477
f 483 477 472
f 483 472 478
f 484 478 479
f 484 479 485
f 486 480 475
f 486 475 481
f 487 481 476
f 487 476 482
f 488 482 477
f 488 477 483
f 489 483 478
f 489 478 484
f 490 484 485
f 490 485 491
f 492 490 491
f 492 491 493
f 494 490 492
f 495 484 490
f 494 495 490
f 495 489 484
f 496 495 494
f 496 497 495
f 497 489 495
f 498 497 496
f 499 483 489
f 497 499 489
f 499 488 483
f 498 500 497
f 500 499 497
f 501 500 498
f 502 488 499
f 500 502 499
f 501 503 500
f 503 502 500
f 504 503 501
f 502 505 488
f 505 482 488
f 505 487 482
f 504 506 503
f 507 506 504
f 503 508 502
f 508 505 502
f 506 508 503
f 509 487 505
f 508 509 505
f 507 510 506
f 511 510 507
f 506 512 508
f 512 509 508
f 510 512 506
f 509 513 487
f 513 481 487
f 513 486 481
f 511 514 510
f 515 514 511
f 510 516 512
f 514 516 510
f 512 517 509
f 517 513 509
f 516 517 512
f 518 486 513
f 517 518 513
f 515 519 514
f 520 519 515
f 514 521 516
f 519 521 514
f 516 522 517
f 522 518 517
f 521 522 516
f 518 523 486
f 523 480 486
f 520 524 519
f 525 524 520
f 519 526 521
f 524 526 519
f 522 527 518
f 527 523 518
f 521 528 522
f 526 528 521
f 528 527 522
f 523 529 480
f 529 474 480
f 525 530 524
f 531 530 525
f 524 532 526
f 530 532 524
f 526 533 528
f 532 533 526
f 527 534 523
f 534 529 523
f 528 535 527
f 533 535 528
f 535 534 527
f 529 536 474
f 536 468 474
f 531 537 530
f 538 537 531
f 530 539 532
f 537 539 530
f 532 540 533
f 539 540 532
f 533 541 535
f 540 541 533
f 534 542 529
f 542 536 529
f 535 543 534
f 541 543 535
f 543 542 534
f 538 544 537
f 545 544 538
f 537 546 539
f 544 546 537
f 539 547 540
f 546 547 539
f 540 548 541
f 547 548 540
f 541 549 543
f 548 549 541
f 543 550 542
f 549 550 543
f 545 551 544
f 552 551 545
f 544 553 546
f 551 553 544
f 546 554 547
f 553 554 546
f 547 555 548
f 554 555 547
f 548 556 549
f 555 556 548
f 552 557 551
f 558 557 552
f 551 559 553
f 557 559 551
f 553 560 554
f 559 560 553
f 554 561 555
f 560 561 554
f 558 562 557
f 563 562 558
f 557 564 559
f 562 564 557
f 559 565 560
f 564 565 559
f 563 566 562
f 567 566 563
f 562 568 564
f 566 568 562
f 567 569 566
f 570 569 567
f 561 571 555
f 555 571 556
f 560 572 561
f 565 572 560
f 564 573 565
f 568 573 564
f 566 574 568
f 569 574 566
f 570 575 569
f 576 575 570
f 561 577 571
f 572 577 561
f 565 578 572
f 573 578 565
f 568 579 573
f 574 579 568
f 569 580 574
f 575 580 569
f 576 581 575
f 582 581 576
f 572 583 577
f 578 583 572
f 573 584 578
f 579 584 573
f 574 585 579
f 580 585 574
f 575 586 580
f 581 586 575
f 582 587 581
f 588 587 582
f 578 589 583
f 584 589 578
f 579 590 584
f 585 590 579
f 580 591 585
f 586 591 580
f 581 592 586
f 587 592 581
f 588 593 587
f 594 593 588
f 584 595 589
f 590 595 584
f 585 596 590
f 591 596 585
f 586 597 591
f 592 597 586
f 587 598 592
f 593 598 587
f 594 599 593
f 600 599 594
f 590 601 595
f 596 601 590
f 591 602 596
f 597 602 591
f 592 603 597
f 598 603 592
f 593 604 598
f 599 604 593
f 600 605 599
f 606 605 600
f 596 607 601
f 602 607 596
f 597 608 602
f 603 608 597
f 598 609 603
f 604 609 598
f 599 610 604
f 605 610 599
f 606 611 605
f 612 611 606
f 602 613 607
f 608 613 602
f 603 614 608
f 609 614 603
f 604 615 609
f 610 615 604
f 605 616 610
f 611 616 605
f 612 617 611
f 618 617 612
f 608 619 613
f 614 619 608
f 609 620 614
f 615 620 609
f 610 621 615
f 616 621 610
f 611 622 616
f 617 622 611
f 618 623 617
f 624 623 618
f 614 625 619
f 620 625 614
f 615 626 620
f 621 626 615
f 616 627 621
f 622 627 616
f 617 628 622
f 623 628 617
f 624 629 623
f 630 629 624
f 620 631 625
f 626 631 620
f 621 632 626
f 627 632 621
f 622 633 627
f 628 633 622
f 623 634 628
f 629 634 623
f 630 635 629
f 636 635 630
f 626 637 631
f 632 637 626
f 627 638 632
f 633 638 627
f 628 639 633
f 634 639 628
f 629 640 634
f 635 640 629
f 636 641 635
f 642 641 636
f 632 643 637
f 638 643 632
f 633 644 638
f 639 644 633
f 634 645 639
f 640 645 634
f 635 646 640
f 641 646 635
f 642 647 641
f 648 647 642
f 648 649 647
f 647 650 641
f 641 650 646
f 649 651 647
f 647 651 650
f 649 652 651
f 646 653 640
f 640 653 645
f 645 654 639
f 639 654 644
f 650 655 646
f 646 655 653
f 652 656 651
f 652 657 656
f 651 658 650
f 650 658 655
f 651 656 658
f 653 659 645
f 645 659 654
f 657 660 656
f 657 661 660
f 655 662 653
f 653 662 659
f 656 663 658
f 656 660 663
f 658 664 655
f 655 664 662
f 658 663 664
f 661 665 660
f 661 666 665
f 660 667 663
f 660 665 667
f 663 668 664
f 663 667 668
f 664 669 662
f 664 668 669
f 662 670 659
f 662 669 670
f 666 671 665
f 666 672 671
f 665 673 667
f 665 671 673
f 667 674 668
f 667 673 674
f 668 675 669
f 668 674 675
f 672 676 671
f 672 677 676
f 671 678 673
f 671 676 678
f 673 679 674
f 673 678 679
f 677 680 676
f 677 681 680
f 676 682 678
f 676 680 682
f 681 683 680
f 681 684 683
f 669 675 685
f 669 685 670
f 674 686 675
f 674 679 686
f 678 687 679
f 678 682 687
f 680 688 682
f 680 683 688
f 684 689 683
f 684 690 689
f 675 691 685
f 675 686 691
f 679 692 686
f 679 687 692
f 682 693 687
f 682 688 693
f 683 694 688
f 683 689 694
f 690 695 689
f 690 696 695
f 686 697 691
f 686 692 697
f 687 698 692
f 687 693 698
f 688 699 693
f 688 694 699
f 689 700 694
f 689 695 700
f 696 701 695
f 696 702 701
f 692 703 697
f 692 698 703
f 693 704 698
f 693 699 704
f 694 705 699
f 694 700 705
f 695 706 700
f 695 701 706
f 702 707 701
f 702 708 707
f 698 709 703
f 698 704 709
f 699 710 704
f 699 705 710
f 700 711 705
f 700 706 711
f 701 712 706
f 701 707 712
f 708 713 707
f 708 714 713
f 704 715 709
f 704 710 715
f 705 716 710
f 705 711 716
f 706 717 711
f 706 712 717
f 707 718 712
f 707 713 718
f 714 719 713
f 714 720 719
f 710 721 715
f 710 716 721
f 711 722 716
f 711 717 722
f 712 723 717
f 712 718 723
f 713 724 718
f 713 719 724
f 720 725 719
f 720 726 725
f 716 727 721
f 716 722 727
f 717 728 722
f 717 723 728
f 718 729 723
f 718 724 729
f 719 730 724
f 719 725 730
f 726 731 725
f 726 732 731
f 722 733 727
f 722 728 733
f 723 734 728
f 723 729 734
f 724 735 729
f 724 730 735
f 725 736 730
f 725 731 736
f 732 737 731
f 732 738 737
f 728 739 733
f 728 734 739
f 729 740 734
f 729 735 740
f 730 741 735
f 730 736 741
f 731 742 736
f 731 737 742
f 738 743 737
f 738 744 743
f 734 745 739
f 734 740 745
f 735 746 740
f 735 741 746
f 736 747 741
f 736 742 747
f 737 748 742
f 737 743 748
f 744 749 743
f 744 750 749
f 740 751 745
f 740 746 751
f 741 752 746
f 741 747 752
f 742 753 747
f 742 748 753
f 743 754 748
f 743 749 754
f 750 755 749
f 750 756 755
f 746 757 751
f 746 752 757
f 747 758 752
f 747 753 758
f 748 759 753
f 748 754 759
f 749 760 754
f 749 755 760
f 756 761 755
f 756 762 761
f 752 763 757
f 752 758 763
f 753 764 758
f 753 759 764
f 754 765 759
f 754 760 765
f 755 766 760
f 755 761 766
f 762 767 761
f 762 768 767
f 758 769 763
f 758 764 769
f 759 770 764
f 759 765 770
f 760 771 765
f 760 766 771
f 761 772 766
f 761 767 772
f 768 773 767
f 768 182 773
f 182 181 773
f 767 773 774
f 767 774 772
f 773 181 775
f 773 775 774
f 181 185 775
f 766 772 776
f 766 776 771
f 765 771 777
f 765 777 770
f 772 774 778
f 772 778 776
f 775 185 779
f 185 186 779
f 779 186 195
f 774 775 780
f 775 779 780
f 774 780 778
f 779 195 781
f 780 779 781
f 781 195 210
f 771 776 782
f 771 782 777
f 776 778 783
f 776 783 782
f 778 780 784
f 780 781 784
f 778 784 783
f 781 210 785
f 784 781 785
f 785 210 216
f 783 784 786
f 784 785 786
f 785 216 787
f 786 785 787
f 787 216 222
f 782 783 788
f 783 786 788
f 777 782 789
f 782 788 789
f 786 787 790
f 788 786 790
f 787 222 791
f 790 787 791
f 791 222 228
f 788 790 792
f 789 788 792
f 777 789 793
f 770 777 793
f 790 791 794
f 792 790 794
f 791 228 795
f 794 791 795
f 795 228 234
f 789 792 796
f 793 789 796
f 770 793 797
f 764 770 797
f 764 797 769
f 792 794 798
f 796 792 798
f 794 795 799
f 798 794 799
f 795 234 800
f 799 795 800
f 800 234 240
f 797 793 801
f 793 796 801
f 769 797 802
f 797 801 802
f 796 798 803
f 801 796 803
f 798 799 804
f 803 798 804
f 799 800 805
f 804 799 805
f 800 240 806
f 805 800 806
f 806 240 246
f 801 803 807
f 802 801 807
f 769 802 808
f 763 769 808
f 803 804 809
f 807 803 809
f 804 805 810
f 809 804 810
f 805 806 811
f 810 805 811
f 806 246 812
f 811 806 812
f 812 246 252
f 802 807 813
f 808 802 813
f 763 808 814
f 757 763 814
f 807 809 815
f 813 807 815
f 809 810 816
f 815 809 816
f 810 811 817
f 816 810 817
f 811 812 818
f 817 811 818
f 812 252 819
f 818 812 819
f 819 252 258
f 819 258 820
f 820 258 264
f 818 819 821
f 821 819 820
f 817 818 822
f 822 818 821
f 816 817 823
f 823 817 822
f 815 816 824
f 824 816 823
f 820 264 825
f 825 264 270
f 821 820 826
f 826 820 825
f 822 821 827
f 827 821 826
f 823 822 828
f 828 822 827
f 825 270 829
f 829 270 276
f 826 825 830
f 830 825 829
f 827 826 831
f 831 826 830
f 829 276 832
f 832 276 282
f 830 829 833
f 833 829 832
f 832 282 834
f 834 282 288
f 835 823 828
f 824 823 835
f 828 827 836
f 836 827 831
f 831 830 837
f 837 830 833
f 833 832 838
f 838 832 834
f 834 288 839
f 839 288 294
f 835 828 840
f 840 828 836
f 836 831 841
f 841 831 837
f 837 833 842
f 842 833 838
f 838 834 843
f 843 834 839
f 839 294 844
f 844 294 300
f 840 836 845
f 845 836 841
f 841 837 846
f 846 837 842
f 842 838 847
f 847 838 843
f 843 839 848
f 848 839 844
f 844 300 849
f 849 300 306
f 845 841 850
f 850 841 846
f 846 842 851
f 851 842 847
f 847 843 852
f 852 843 848
f 848 844 853
f 853 844 849
f 849 306 854
f 854 306 312
f 850 846 855
f 855 846 851
f 851 847 856
f 856 847 852
f 852 848 857
f 857 848 853
f 853 849 858
f 858 849 854
f 854 312 859
f 859 312 318
f 855 851 860
f 860 851 856
f 856 852 861
f 861 852 857
f 857 853 862
f 862 853 858
f 858 854 863
f 863 854 859
f 860 856 864
f 864 856 861
f 861 857 865
f 865 857 862
f 862 858 866
f 866 858 863
f 864 861 867
f 867 861 865
f 865 862 868
f 868 862 866
f 867 865 869
f 869 865 868
f 863 859 870
f 866 863 871
f 871 863 870
f 868 866 872
f 872 866 871
f 869 868 873
f 873 868 872
f 870 859 874
f 859 318 874
f 874 318 875
f 318 313 875
f 875 313 319
f 875 319 876
f 876 319 329
f 874 875 877
f 877 875 876
f 870 874 878
f 878 874 877
f 871 870 879
f 879 870 878
f 872 871 880
f 880 871 879
f 876 329 881
f 881 329 334
f 881 334 345
f 877 876 882
f 882 876 881
f 883 881 345
f 882 881 883
f 883 345 360
f 878 877 884
f 884 877 882
f 879 878 885
f 885 878 884
f 886 882 883
f 884 882 886
f 887 883 360
f 886 883 887
f 887 360 366
f 888 884 886
f 885 884 888
f 889 879 885
f 880 879 889
f 890 887 366
f 890 366 372
f 891 886 887
f 888 886 891
f 891 887 890
f 892 885 888
f 889 885 892
f 893 890 372
f 893 372 378
f 894 891 890
f 894 890 893
f 895 888 891
f 892 888 895
f 895 891 894
f 896 893 378
f 896 378 384
f 897 894 893
f 897 893 896
f 898 895 894
f 898 894 897
f 899 892 895
f 899 895 898
f 900 889 892
f 900 892 899
f 901 896 384
f 901 384 390
f 902 897 896
f 902 896 901
f 903 898 897
f 903 897 902
f 904 899 898
f 904 898 903
f 905 901 390
f 905 390 396
f 906 902 901
f 906 901 905
f 907 903 902
f 907 902 906
f 908 905 396
f 908 396 402
f 909 906 905
f 909 905 908
f 910 908 402
f 910 402 408
f 911 899 904
f 911 900 899
f 912 904 903
f 912 903 907
f 913 907 906
f 913 906 909
f 914 909 908
f 914 908 910
f 915 910 408
f 915 408 414
f 916 911 904
f 916 904 912
f 917 912 907
f 917 907 913
f 918 913 909
f 918 909 914
f 919 914 910
f 919 910 915
f 920 915 414
f 920 414 420
f 921 916 912
f 921 912 917
f 922 917 913
f 922 913 918
f 923 918 914
f 923 914 919
f 924 919 915
f 924 915 920
f 925 920 420
f 925 420 426
f 926 921 917
f 926 917 922
f 927 922 918
f 927 918 923
f 928 923 919
f 928 919 924
f 929 924 920
f 929 920 925
f 930 925 426
f 930 426 432
f 931 926 922
f 931 922 927
f 932 927 923
f 932 923 928
f 933 928 924
f 933 924 929
f 934 929 925
f 934 925 930
f 935 930 432
f 935 432 438
f 936 931 927
f 936 927 932
f 937 932 928
f 937 928 933
f 938 933 929
f 938 929 934
f 939 934 930
f 939 930 935
f 940 935 438
f 940 438 444
f 941 936 932
f 941 932 937
f 942 937 933
f 942 933 938
f 943 938 934
f 943 934 939
f 944 939 935
f 944 935 940
f 945 940 444
f 945 444 450
f 946 941 937
f 946 937 942
f 947 942 938
f 947 938 943
f 948 943 939
f 948 939 944
f 949 944 940
f 949 940 945
f 950 945 450
f 950 450 456
f 951 946 942
f 951 942 947
f 952 947 943
f 952 943 948
f 953 948 944
f 953 944 949
f 954 949 945
f 954 945 950
f 955 950 456
f 955 456 462
f 956 951 947
f 956 947 952
f 957 952 948
f 957 948 953
f 958 953 949
f 958 949 954
f 959 954 950
f 959 950 955
f 960 955 462
f 960 462 468
f 536 960 468
f 961 955 960
f 961 959 955
f 962 960 536
f 962 961 960
f 542 962 536
f 550 962 542
f 963 954 959
f 963 958 954
f 964 953 958
f 964 957 953
f 965 961 962
f 550 965 962
f 966 959 961
f 966 963 959
f 965 966 961
f 967 958 963
f 967 964 958
f 968 965 550
f 549 968 550
f 556 968 549
f 969 966 965
f 968 969 965
f 970 963 966
f 970 967 963
f 969 970 966
f 556 971 968
f 971 969 968
f 571 971 556
f 972 970 969
f 971 972 969
f 571 973 971
f 973 972 971
f 577 973 571
f 974 967 970
f 972 974 970
f 577 975 973
f 583 975 577
f 973 976 972
f 976 974 972
f 975 976 973
f 974 977 967
f 977 964 967
f 583 978 975
f 589 978 583
f 976 979 974
f 979 977 974
f 975 980 976
f 978 980 975
f 980 979 976
f 977 981 964
f 981 957 964
f 589 982 978
f 595 982 589
f 978 983 980
f 982 983 978
f 980 984 979
f 983 984 980
f 979 985 977
f 985 981 977
f 984 985 979
f 981 986 957
f 986 952 957
f 986 956 952
f 595 987 982
f 601 987 595
f 982 988 983
f 987 988 982
f 983 989 984
f 988 989 983
f 985 990 981
f 990 986 981
f 984 991 985
f 989 991 984
f 991 990 985
f 992 956 986
f 990 992 986
f 601 993 987
f 607 993 601
f 987 994 988
f 993 994 987
f 988 995 989
f 994 995 988
f 989 996 991
f 995 996 989
f 991 997 990
f 997 992 990
f 996 997 991
f 992 998 956
f 998 951 956
f 607 999 993
f 613 999 607
f 993 1000 994
f 999 1000 993
f 994 1001 995
f 1000 1001 994
f 995 1002 996
f 1001 1002 995
f 996 1003 997
f 1002 1003 996
f 997 1004 992
f 1003 1004 997
f 1004 998 992
f 613 1005 999
f 619 1005 613
f 999 1006 1000
f 1005 1006 999
f 1000 1007 1001
f 1006 1007 1000
f 1001 1008 1002
f 1007 1008 1001
f 1002 1009 1003
f 1008 1009 1002
f 1003 1010 1004
f 1009 1010 1003
f 1004 1011 998
f 1010 1011 1004
f 619 1012 1005
f 625 1012 619
f 1005 1013 1006
f 1012 1013 1005
f 1006 1014 1007
f 1013 1014 1006
f 1007 1015 1008
f 1014 1015 1007
f 1008 1016 1009
f 1015 1016 1008
f 1009 1017 1010
f 1016 1017 1009
f 625 1018 1012
f 631 1018 625
f 1012 1019 1013
f 1018 1019 1012
f 1013 1020 1014
f 1019 1020 1013
f 1014 1021 1015
f 1020 1021 1014
f 1015 1022 1016
f 1021 1022 1015
f 631 1023 1018
f 637 1023 631
f 1018 1024 1019
f 1023 1024 1018
f 1019 1025 1020
f 1024 1025 1019
f 1020 1026 1021
f 1025 1026 1020
f 637 1027 1023
f 643 1027 637
f 1023 1028 1024
f 1027 1028 1023
f 1024 1029 1025
f 1028 1029 1024
f 1021 1030 1022
f 1026 1030 1021
f 1025 1031 1026
f 1029 1031 1025
f 1026 1032 1030
f 1031 1032 1026
f 643 1033 1027
f 1027 1034 1028
f 1033 1034 1027
f 1028 1035 1029
f 1034 1035 1028
f 1029 1036 1031
f 1035 1036 1029
f 1031 1037 1032
f 1036 1037 1031
f 1038 1033 643
f 638 1038 643
f 644 1038 638
f 644 1039 1038
f 654 1039 644
f 1038 1040 1033
f 1039 1040 1038
f 1033 1041 1034
f 1040 1041 1033
f 1034 1042 1035
f 1041 1042 1034
f 1035 1043 1036
f 1042 1043 1035
f 654 1044 1039
f 659 1044 654
f 659 670 1044
f 1039 1045 1040
f 1044 1045 1039
f 670 1046 1044
f 1044 1046 1045
f 670 685 1046
f 1040 1047 1041
f 1045 1047 1040
f 1041 1048 1042
f 1047 1048 1041
f 685 1049 1046
f 685 691 1049
f 1046 1050 1045
f 1045 1050 1047
f 1046 1049 1050
f 691 1051 1049
f 691 697 1051
f 1050 1052 1047
f 1047 1052 1048
f 1049 1053 1050
f 1049 1051 1053
f 1050 1053 1052
f 1048 1054 1042
f 1042 1054 1043
f 697 1055 1051
f 697 703 1055
f 1051 1056 1053
f 1051 1055 1056
f 1053 1057 1052
f 1053 1056 1057
f 1052 1058 1048
f 1048 1058 1054
f 1052 1057 1058
f 703 1059 1055
f 703 709 1059
f 1055 1060 1056
f 1055 1059 1060
f 1056 1061 1057
f 1056 1060 1061
f 1057 1062 1058
f 1057 1061 1062
f 1058 1063 1054
f 1058 1062 1063
f 709 1064 1059
f 709 715 1064
f 1059 1065 1060
f 1059 1064 1065
f 1060 1066 1061
f 1060 1065 1066
f 1061 1067 1062
f 1061 1066 1067
f 715 1068 1064
f 715 721 1068
f 1064 1069 1065
f 1064 1068 1069
f 1065 1070 1066
f 1065 1069 1070
f 721 1071 1068
f 721 727 1071
f 1068 1072 1069
f 1068 1071 1072
f 727 1073 1071
f 727 733 1073
f 1062 1067 1074
f 1062 1074 1063
f 1066 1075 1067
f 1066 1070 1075
f 1069 1076 1070
f 1069 1072 1076
f 1071 1077 1072
f 1071 1073 1077
f 733 1078 1073
f 733 739 1078
f 1067 1079 1074
f 1067 1075 1079
f 1070 1080 1075
f 1070 1076 1080
f 1072 1081 1076
f 1072 1077 1081
f 1073 1082 1077
f 1073 1078 1082
f 739 1083 1078
f 739 745 1083
f 1075 1084 1079
f 1075 1080 1084
f 1076 1085 1080
f 1076 1081 1085
f 1077 1086 1081
f 1077 1082 1086
f 1078 1087 1082
f 1078 1083 1087
f 745 1088 1083
f 745 751 1088
f 1080 1089 1084
f 1080 1085 1089
f 1081 1090 1085
f 1081 1086 1090
f 1082 1091 1086
f 1082 1087 1091
f 1083 1092 1087
f 1083 1088 1092
f 751 1093 1088
f 751 757 1093
f 757 814 1093
f 1088 1093 1094
f 1088 1094 1092
f 1087 1092 1095
f 1087 1095 1091
f 1086 1091 1096
f 1086 1096 1090
f 1093 814 1097
f 1093 1097 1094
f 1092 1094 1098
f 1092 1098 1095
f 1091 1095 1099
f 1091 1099 1096
f 814 1100 1097
f 814 808 1100
f 808 813 1100
f 1094 1097 1101
f 1094 1101 1098
f 1095 1098 1102
f 1095 1102 1099
f 1100 813 1103
f 813 815 1103
f 1103 815 824
f 1097 1100 1104
f 1100 1103 1104
f 1097 1104 1101
f 1103 824 1105
f 1104 1103 1105
f 1105 824 835
f 1098 1101 1106
f 1098 1106 1102
f 1101 1104 1107
f 1104 1105 1107
f 1101 1107 1106
f 1105 835 1108
f 1107 1105 1108
f 1108 835 840
f 1106 1107 1109
f 1107 1108 1109
f 1108 840 1110
f 1109 1108 1110
f 1110 840 845
f 1102 1106 1111
f 1106 1109 1111
f 1110 845 1112
f 1112 845 850
f 1109 1110 1113
f 1111 1109 1113
f 1113 1110 1112
f 1102 1111 1114
f 1099 1102 1114
f 1112 850 1115
f 1115 850 855
f 1113 1112 1116
f 1116 1112 1115
f 1111 1113 1117
f 1114 1111 1117
f 1117 1113 1116
f 1099 1114 1118
f 1096 1099 1118
f 1115 855 1119
f 1119 855 860
f 1114 1117 1120
f 1118 1114 1120
f 1117 1116 1121
f 1120 1117 1121
f 1116 1115 1122
f 1122 1115 1119
f 1121 1116 1122
f 1096 1118 1123
f 1090 1096 1123
f 1119 860 1124
f 1124 860 864
f 1118 1120 1125
f 1123 1118 1125
f 1120 1121 1126
f 1125 1120 1126
f 1122 1119 1127
f 1127 1119 1124
f 1121 1122 1128
f 1126 1121 1128
f 1128 1122 1127
f 1090 1123 1129
f 1085 1090 1129
f 1085 1129 1089
f 1124 864 1130
f 1130 864 867
f 1127 1124 1131
f 1131 1124 1130
f 1128 1127 1132
f 1132 1127 1131
f 1126 1128 1133
f 1133 1128 1132
f 1129 1123 1134
f 1123 1125 1134
f 1125 1126 1135
f 1135 1126 1133
f 1134 1125 1135
f 1089 1129 1136
f 1129 1134 1136
f 1130 867 1137
f 1137 867 869
f 1131 1130 1138
f 1138 1130 1137
f 1132 1131 1139
f 1139 1131 1138
f 1133 1132 1140
f 1140 1132 1139
f 1134 1135 1141
f 1136 1134 1141
f 1135 1133 1142
f 1142 1133 1140
f 1141 1135 1142
f 1137 869 1143
f 1143 869 873
f 1138 1137 1144
f 1144 1137 1143
f 1139 1138 1145
f 1145 1138 1144
f 1140 1139 1146
f 1146 1139 1145
f 1142 1140 1147
f 1147 1140 1146
f 1141 1142 1148
f 1148 1142 1147
f 1149 1141 1148
f 1136 1141 1149
f 1150 1136 1149
f 1089 1136 1150
f 1084 1089 1150
f 1084 1150 1151
f 1079 1084 1151
f 1150 1149 1152
f 1151 1150 1152
f 1149 1148 1153
f 1152 1149 1153
f 1148 1147 1154
f 1153 1148 1154
f 1147 1146 1155
f 1154 1147 1155
f 1079 1151 1156
f 1074 1079 1156
f 1151 1152 1157
f 1156 1151 1157
f 1152 1153 1158
f 1157 1152 1158
f 1153 1154 1159
f 1158 1153 1159
f 1074 1156 1160
f 1063 1074 1160
f 1156 1157 1161
f 1160 1156 1161
f 1157 1158 1162
f 1161 1157 1162
f 1063 1160 1163
f 1054 1063 1163
f 1054 1163 1043
f 1160 1161 1164
f 1163 1160 1164
f 1043 1163 1165
f 1163 1164 1165
f 1043 1165 1036
f 1036 1165 1037
f 1164 1161 1166
f 1161 1162 1166
f 1165 1164 1167
f 1165 1167 1037
f 1164 1166 1167
f 1162 1158 1168
f 1158 1159 1168
f 1037 1167 1169
f 1037 1169 1032
f 1167 1166 1170
f 1167 1170 1169
f 1166 1162 1171
f 1162 1168 1171
f 1166 1171 1170
f 1032 1169 1172
f 1032 1172 1030
f 1169 1170 1173
f 1169 1173 1172
f 1170 1171 1174
f 1170 1174 1173
f 1171 1168 1175
f 1171 1175 1174
f 1168 1159 1176
f 1168 1176 1175
f 1030 1172 1177
f 1030 1177 1022
f 1172 1173 1178
f 1172 1178 1177
f 1173 1174 1179
f 1173 1179 1178
f 1174 1175 1180
f 1174 1180 1179
f 1022 1177 1181
f 1022 1181 1016
f 1016 1181 1017
f 1177 1178 1182
f 1177 1182 1181
f 1178 1179 1183
f 1178 1183 1182
f 1181 1184 1017
f 1181 1182 1184
f 1175 1185 1180
f 1175 1176 1185
f 1179 1180 1186
f 1179 1186 1183
f 1182 1183 1187
f 1182 1187 1184
f 1017 1184 1188
f 1017 1188 1010
f 1010 1188 1011
f 1184 1189 1188
f 1184 1187 1189
f 1183 1190 1187
f 1183 1186 1190
f 1180 1191 1186
f 1180 1185 1191
f 1188 1192 1011
f 1188 1189 1192
f 1187 1193 1189
f 1187 1190 1193
f 1186 1194 1190
f 1186 1191 1194
f 1011 1192 1195
f 1011 1195 998
f 998 1195 951
f 1195 946 951
f 1195 1196 946
f 1192 1196 1195
f 1196 941 946
f 1189 1197 1192
f 1192 1197 1196
f 1189 1193 1197
f 1196 1198 941
f 1197 1198 1196
f 1198 936 941
f 1193 1199 1197
f 1197 1199 1198
f 1198 1200 936
f 1199 1200 1198
f 1200 931 936
f 1193 1201 1199
f 1190 1201 1193
f 1190 1194 1201
f 1199 1202 1200
f 1201 1202 1199
f 1200 1203 931
f 1202 1203 1200
f 1203 926 931
f 1194 1204 1201
f 1201 1204 1202
f 1203 1205 926
f 1205 921 926
f 1202 1206 1203
f 1204 1206 1202
f 1206 1205 1203
f 1194 1207 1204
f 1191 1207 1194
f 1205 1208 921
f 1208 916 921
f 1204 1209 1206
f 1207 1209 1204
f 1206 1210 1205
f 1210 1208 1205
f 1209 1210 1206
f 1191 1211 1207
f 1185 1211 1191
f 1208 1212 916
f 1212 911 916
f 1207 1213 1209
f 1211 1213 1207
f 1209 1214 1210
f 1213 1214 1209
f 1210 1215 1208
f 1215 1212 1208
f 1214 1215 1210
f 1185 1216 1211
f 1176 1216 1185
f 1212 1217 911
f 1217 900 911
f 1211 1218 1213
f 1216 1218 1211
f 1213 1219 1214
f 1218 1219 1213
f 1215 1220 1212
f 1220 1217 1212
f 1214 1221 1215
f 1219 1221 1214
f 1221 1220 1215
f 1176 1222 1216
f 1159 1222 1176
f 1159 1154 1222
f 1154 1155 1222
f 1222 1223 1216
f 1216 1223 1218
f 1222 1155 1223
f 1218 1224 1219
f 1223 1224 1218
f 1155 1225 1223
f 1223 1225 1224
f 1155 1146 1225
f 1146 1145 1225
f 1225 1145 1226
f 1225 1226 1224
f 1145 1144 1226
f 1224 1227 1219
f 1224 1226 1227
f 1219 1227 1221
f 1226 1144 1228
f 1226 1228 1227
f 1144 1143 1228
f 1227 1229 1221
f 1227 1228 1229
f 1221 1229 1220
f 1228 1143 1230
f 1228 1230 1229
f 1143 873 1230
f 1229 1231 1220
f 1229 1230 1231
f 1220 1231 1217
f 1230 873 1232
f 1230 1232 1231
f 873 872 1232
f 1232 872 880
f 1231 1233 1217
f 1231 1232 1233
f 1232 880 1233
f 1217 1233 900
f 1233 880 889
f 1233 889 900
v -13.43359 0.03991847 139.3376
v 13.88197 0.03991761 139.3618
v -13.43602 0.03991994 142.0714
v 13.87954 0.03991908 142.0957
v -13.43602 -16.03992 142.0714
v 13.87954 -16.03992 142.0957
v -13.43359 -16.03992 139.3376
v 13.88197 -16.03992 139.3618
v -13.43602 0.03991994 142.0714
v 13.87954 0.03991908 142.0957
v -13.43602 -16.03992 142.0714
v 13.87954 -16.03992 142.0957
v -13.43359 -16.03992 139.3376
v -13.43359 0.03991847 139.3376
v 13.88197 0.03991761 139.3618
v 13.88197 -16.03992 139.3618
v 13.88197 0.03991761 139.3618
v 13.87954 0.03991908 142.0957
v 13.87954 -16.03992 142.0957
v 13.88197 -16.03992 139.3618
v -13.43359 -16.03992 139.3376
v -13.43602 -16.03992 142.0714
v -13.43602 0.03991994 142.0714
v -13.43359 0.03991847 139.3376
f 1234 1236 1237
f 1234 1237 1235
f 1242 1238 1239
f 1242 1239 1243
f 1244 1240 1241
f 1244 1241 1245
f 1246 1247 1248
f 1246 1248 1249
f 1250 1251 1252
f 1250 1252 1253
f 1254 1255 1256
f 1254 1256 1257
