v -1948.369 -77.40133 1771.752
v -1948.369 -60.26177 1893.269
v -1826.852 -75.06325 1893.269
v -1826.852 -80.13828 1771.752
v -1948.369 -83.41991 1650.236
v -1705.336 -59.07838 1893.269
v -1826.852 -62.21967 1650.236
v -1948.369 -60.74539 1528.719
v -1705.336 -69.46096 1771.752
v -1583.819 -87.47517 1893.269
v -1826.852 -50.95874 1528.719
v -1948.369 -89.70356 1407.202
v -1705.336 -51.09961 1650.236
v -1583.819 -71.13896 1771.752
v -1462.302 -55.07796 1893.269
v -1826.852 -58.79414 1407.202
v -1948.369 -61.50735 1285.685
v -1705.336 -72.21648 1528.719
v -1462.302 -76.34456 1771.752
v -1340.785 -78.23666 1893.269
v -1583.819 -73.58164 1650.236
v -1826.852 -79.58449 1285.685
v -1948.369 -76.1489 1164.168
v -1340.785 -75.5812 1771.752
v -1219.268 -64.13934 1893.269
v -1705.336 -79.68772 1407.202
v -1583.819 -57.22097 1528.719
v -1462.302 -86.60616 1650.236
v -1826.852 -58.1614 1164.168
v -1948.369 -54.56787 1042.651
v -1219.268 -68.7738 1771.752
v -1097.751 -65.40716 1893.269
v -1705.336 -65.38621 1285.685
v -1583.819 -68.11935 1407.202
v -1462.302 -84.07036 1528.719
v -1340.785 -52.29094 1650.236
v -1826.852 -59.59171 1042.651
v -1948.369 -52.27728 921.1346
v -1097.751 -66.78608 1771.752
v -976.2346 -78.45255 1893.269
v -1705.336 -54.26133 1164.168
v -1583.819 -84.35283 1285.685
v -1462.302 -66.75425 1407.202
v -1340.785 -70.05047 1528.719
v -1219.268 -70.86948 1650.236
v -976.2346 -74.51142 1771.752
v -854.7178 -56.64338 1893.269
v -1097.751 -78.37724 1650.236
v -1219.268 -80.44614 1528.719
v -1340.785 -59.60252 1407.202
v -1462.302 -68.20768 1285.685
v -854.7178 -68.44169 1771.752
v -733.201 -60.98253 1893.269
v -976.2346 -70.41896 1650.236
v -1097.751 -73.17123 1528.719
v -1219.268 -73.48473 1407.202
v -733.201 -62.04167 1771.752
v -611.6841 -77.75574 1893.269
v -854.7178 -59.17182 1650.236
v -976.2346 -51.21351 1528.719
v -611.6841 -55.18723 1771.752
v -490.1673 -64.34277 1893.269
v -733.201 -72.56621 1650.236
v -490.1673 -63.82813 1771.752
v -368.6505 -61.57047 1893.269
v -1340.785 -67.80141 1285.685
v -1097.751 -72.72722 1407.202
v -854.7181 -69.0093 1528.719
v -611.6855 -57.12584 1650.237
v -368.6505 -60.51782 1771.752
v -247.1337 -69.65464 1893.269
v -1219.268 -67.81792 1285.685
v -976.2378 -53.14001 1407.205
v -733.2039 -74.48739 1528.722
v -490.1717 -67.64294 1650.242
v -247.1337 -59.229 1771.752
v -125.6168 -51.03148 1893.269
v -1097.752 -53.09937 1285.686
v -854.7173 -79.00507 1407.201
v -611.7324 -52.72734 1528.801
v -368.6646 -55.48965 1650.272
v -125.6168 -73.48019 1771.752
v -4.100003 -48.13192 1893.269
v -976.2665 -57.29366 1285.714
v -733.2203 -74.0084 1407.227
v -490.1554 -82.65869 1528.69
v -247.1414 -59.10389 1650.287
v -4.100003 -76.52726 1771.752
v 117.4168 -62.74456 1893.269
v -854.7739 -69.09287 1285.741
v -611.7216 -72.71534 1407.265
v -368.762 -41.31711 1529.118
v -125.6168 -56.32625 1650.303
v 117.4168 -69.30182 1771.752
v 238.9337 -62.92793 1893.269
v -732.8318 -109.1328 1285.245
v -490.2794 -63.41293 1407.461
v -247.2242 -28.50544 1529.393
v -4.107294 -96.97504 1650.187
v 238.9337 -81.03606 1771.752
v 360.4505 -79.26221 1893.269
v -612.5533 -17.55918 1286.985
v -368.8197 -52.20506 1407.791
v -125.6168 -84.84444 1528.615
v 117.4275 -61.03139 1650.263
v 360.4505 -63.23524 1771.752
v 481.9673 -50.3579 1893.269
v -490.5471 -48.24651 1286.442
v -247.1869 -62.15409 1407.572
v -4.112954 -84.98799 1528.622
v 238.939 -65.19427 1650.243
v 481.9673 -66.47082 1771.752
v 603.4842 -69.81273 1893.269
v -368.6479 -72.23759 1285.677
v -125.6182 -52.51937 1407.867
v 117.4132 -79.45901 1528.705
v 360.4509 -71.41608 1650.236
v 603.4842 -42.91999 1771.752
v 725.001 -63.24997 1893.269
v -247.3279 -41.82147 1286.818
v -4.096567 -74.01498 1407.236
v 238.9728 -61.19481 1528.854
v 481.9673 -63.72104 1650.236
v 725.001 -76.99133 1771.752
v 846.5178 -52.89908 1893.269
v -125.6836 -37.83592 1287.065
v 117.5613 -42.08073 1408.21
v 360.4554 -73.28592 1528.749
v 603.4842 -84.63135 1650.236
v 846.5178 -79.00492 1771.752
v 968.0346 -78.8231 1893.269
v -4.09994 -71.29046 1285.661
v 238.9699 -67.3493 1407.484
v 481.9677 -64.86642 1528.785
v 725.001 -80.11181 1650.236
v 968.0346 -71.5613 1771.752
v 1089.551 -72.23306 1893.269
v 117.4213 -63.95342 1286.065
v 360.5286 -46.83815 1408.083
v 603.4852 -46.04491 1528.873
v 846.5178 -67.39468 1650.236
v 1089.551 -78.78455 1771.752
v 1211.068 -78.24304 1893.269
v 238.917 -79.1373 1285.209
v 481.9759 -71.35828 1407.366
v 725.0087 -66.48989 1528.767
v 968.0346 -51.03621 1650.236
v 1211.068 -71.16203 1771.752
v 1332.585 -87.53115 1893.269
v 360.5132 -55.47577 1286.659
v 603.4844 -77.21817 1407.205
v 846.5323 -63.27004 1528.756
v 1089.551 -55.81789 1650.236
v 1332.585 -70.49777 1771.752
v 1454.102 -50.36654 1893.269
v 481.9654 -72.4569 1285.664
v 725.0217 -70.61446 1407.349
v 968.0303 -85.55168 1528.713
v 1211.068 -90.38517 1650.236
v 1454.102 -47.65372 1771.752
v 1575.619 -47.13106 1893.269
v 603.6002 -53.38139 1286.688
v 846.5533 -70.35604 1407.329
v 1089.553 -64.64225 1528.72
v 1332.585 -41.87667 1650.235
v 1575.619 -51.52751 1771.752
v 1697.136 -47.51913 1893.269
v 725.1207 -57.99627 1286.377
v 968.0738 -69.60557 1407.297
v 1211.068 -59.84578 1528.719
v 1454.102 -55.25745 1650.236
v 1697.136 -73.09722 1771.752
v 1818.652 -67.85176 1893.269
v 846.5613 -70.50558 1285.836
v 1089.611 -57.91821 1407.303
v 1332.585 -67.83875 1528.719
v 1575.619 -89.71861 1650.236
v 1818.652 -63.11909 1771.752
v 1940.169 -85.77798 1893.269
v 1940.169 -89.07173 1771.752
v 1697.136 -57.87205 1650.236
v 1818.652 -51.57481 1650.236
v 1940.169 -76.97687 1650.236
v 1454.102 -49.71714 1528.719
v 1211.064 -82.76685 1407.197
v 1575.619 -63.45891 1528.719
v 1818.652 -60.03432 1528.719
v 1940.169 -79.11632 1528.719
v 1697.136 -52.53994 1528.719
v 1332.586 -60.84198 1407.203
v 1818.652 -73.15469 1407.202
v 1940.169 -65.13276 1407.202
v 1454.102 -68.45124 1407.202
v 1697.136 -73.46194 1407.202
v 1575.619 -61.4445 1407.202
v 1818.652 -56.11481 1285.685
v 1940.169 -65.16879 1285.685
v 1697.136 -65.33195 1285.685
v 1575.619 -70.85116 1285.685
v 1454.105 -62.11783 1285.688
v 1332.613 -64.82204 1285.717
v 1818.652 -79.63884 1164.168
v 1940.169 -69.25341 1164.168
v 1697.136 -50.62216 1164.168
v 1575.62 -59.28826 1164.169
v 1454.097 -80.78911 1164.164
v 1818.652 -63.26731 1042.651
v 1940.169 -62.57738 1042.651
v 1697.136 -65.2197 1042.651
v 1575.654 -49.54102 1042.682
v 1818.652 -61.76966 921.1346
v 1940.169 -45.36942 921.1346
v 1697.135 -82.73692 921.134
v 1818.652 -71.06033 799.6178
v 1940.169 -42.56951 799.6177
v 1332.566 -80.43626 1164.149
v 1454.418 -42.09533 1042.893
v 1575.653 -71.62231 921.1546
v 1697.154 -57.63482 799.6306
v 1818.652 -88.06971 678.101
v 1940.169 -49.30771 678.1009
v 1332.996 -57.55747 1042.996
v 1453.796 -93.81618 920.9533
v 1575.851 -56.87475 799.7133
v 1697.196 -53.9699 678.1242
v 1818.652 -66.08448 556.5841
v 1940.169 -78.591 556.5841
v 1333.162 -57.35942 921.5204
v 1453.694 -89.74249 799.4418
v 1575.877 -62.52463 678.1727
v 1697.213 -59.5167 556.5964
v 1818.652 -65.89513 435.0673
v 1940.169 -71.46373 435.0673
v 1333.044 -61.08749 799.8479
v 1455.532 -37.21745 678.5112
v 1576.678 -27.26479 556.7284
v 1697.133 -79.07059 435.0673
v 1818.652 -67.26993 313.5504
v 1940.169 -67.90512 313.5504
v 1333.487 -51.89351 678.4025
v 1453.99 -75.83961 556.5681
v 1576.149 -53.94624 435.0673
v 1697.194 -63.99654 313.5411
v 1818.652 -84.20722 192.0336
v 1940.169 -70.83247 192.0336
v 1333.887 -44.9146 556.8021
v 1453.816 -79.13641 435.0673
v 1575.281 -93.55503 313.5964
v 1697.178 -61.31111 192.0173
v 1818.652 -66.98796 70.51681
v 1940.169 -66.91807 70.51681
v 1333.329 -53.95942 435.0673
v 1454.713 -59.38845 313.4629
v 1575.836 -65.0593 191.9752
v 1697.162 -56.27471 70.50999
v 1818.653 -73.96884 -50.99959
v 1940.169 -62.49499 -51.00001
v 1333.322 -54.4099 313.4318
v 1455.706 -34.3353 191.6638
v 1575.508 -86.54637 70.52594
v 1697.168 -69.11705 -50.97338
v 1818.693 -55.93216 -172.4822
v 1940.169 -70.8774 -172.5168
v 1333.132 -59.33239 191.9433
v 1454.733 -60.03441 70.51971
v 1575.511 -84.2245 -51.06116
v 1697.096 -81.73747 -172.5474
v 1818.739 -66.24549 -293.9835
v 1940.176 -61.39913 -294.0274
v 1337.682 6.369837 71.11125
v 1454.623 -63.91531 -50.76849
v 1575.741 -72.1772 -172.423
v 1697.739 -54.52527 -293.6766
v 1819.268 -37.97623 -415.295
v 1940.171 -77.74592 -415.549
v 1333.128 -60.11384 -50.77388
v 1453.543 -80.20399 -172.8966
v 1576.017 -64.29858 -293.7719
v 1698.652 -38.8694 -414.8956
v 1819.143 -57.07014 -536.931
v 1940.311 -58.3452 -537.0129
v 1334.156 -44.07159 -171.6007
v 1454.305 -61.90976 -293.8962
v 1577.122 -45.7253 -414.8157
v 1697.323 -69.23842 -537.0134
v 1819.143 -60.67428 -658.5175
v 1940.407 -57.93533 -658.5463
v 1328.851 -91.53689 -296.4225
v 1454.569 -53.03738 -415.3029
v 1576.228 -56.59621 -536.8708
v 1699.955 -25.8551 -658.179
v 1818.597 -78.58538 -780.101
v 1940.473 -55.81861 -780.101
v 1336.197 -12.56372 -413.5222
v 1454.53 -48.68463 -536.9191
v 1576.554 -50.94653 -658.4365
v 1696.247 -84.16906 -780.101
v 1819.167 -59.89812 -901.6877
v 1940.461 -53.22629 -901.6642
v 1332.969 -35.38028 -536.922
v 1453.752 -52.59747 -658.6401
v 1573.052 -89.48797 -780.0842
v 1698.227 -53.56076 -901.7747
v 1818.784 -72.19209 -1023.171
v 1940.214 -72.13058 -1023.152
v 1335.37 -12.28089 -658.1288
v 1460.804 12.37821 -780.2803
v 1575.705 -60.61691 -901.6326
v 1697.785 -60.77721 -1023.321
v 1818.822 -67.2671 -1144.722
v 1940.207 -63.68085 -1144.677
v 1337.792 8.10312 -780.3918
v 1454.448 -46.66817 -901.6921
v 1574.262 -81.70328 -1022.68
v 1697.44 -67.65515 -1144.783
v 1818.634 -81.18746 -1266.158
v 1940.169 -79.78882 -1266.168
v 1331.182 -48.1162 -901.225
v 1458.756 -3.293947 -1025.031
v 1576.557 -53.52393 -1145.122
v 1697.494 -63.71168 -1266.38
v 1818.659 -74.73195 -1387.691
v 1940.169 -52.51662 -1387.685
v 1334.423 -23.64198 -1024.075
v 1451.261 -95.05407 -1142.936
v 1575.321 -78.23306 -1265.969
v 1697.385 -58.21597 -1387.876
v 1818.651 -92.53732 -1509.201
v 1940.169 -87.29979 -1509.202
v 1331.292 -63.98363 -1143.679
v 1455.504 -42.55759 -1267.291
v 1576.426 -49.40898 -1388.362
v 1697.203 -58.21477 -1509.262
v 1818.652 -88.5739 -1630.719
v 1940.169 -69.23344 -1630.719
v 1331.225 -77.03028 -1264.811
v 1454.628 -59.29127 -1388.211
v 1575.893 -57.47049 -1509.476
v 1697.139 -67.63912 -1630.722
v 1818.652 -74.72388 -1752.236
v 1940.169 -68.31679 -1752.236
v 1332.999 -56.7408 -1388.201
v 1453.58 -96.45563 -1508.579
v 1575.622 -77.42229 -1630.723
v 1697.136 -60.05047 -1752.236
v 1818.652 -51.35038 -1873.752
v 1940.169 -61.89261 -1873.752
v 1818.652 -76.67085 -1995.269
v 1940.169 -98.67306 -1995.269
v 1697.136 -75.8895 -1995.269
v 1697.136 -50.67841 -1873.752
v 1575.619 -76.28561 -1995.269
v 1575.619 -68.75041 -1873.752
v 1454.102 -68.39026 -1995.269
v 1575.622 -38.46233 -1752.239
v 1454.102 -64.29354 -1873.752
v 1332.585 -77.52473 -1995.269
v 1454.114 -70.91816 -1752.249
v 1332.591 -49.32756 -1873.758
v 1211.068 -72.78732 -1995.269
v 1454.3 -57.45356 -1630.978
v 1211.061 -87.48677 -1873.741
v 1089.551 -74.28153 -1995.269
v 1332.707 -48.72886 -1752.444
v 1332.559 -78.78131 -1630.674
v 1089.596 -45.27828 -1873.868
v 968.0346 -54.90966 -1995.269
v 1211.165 -63.13284 -1752.468
v 1333.468 -45.24485 -1510.522
v 968.0456 -66.62524 -1873.821
v 846.5178 -60.36697 -1995.269
v 1089.874 -28.90101 -1753.394
v 1210.909 -83.65046 -1630.35
v 1210.548 -83.85133 -1508.164
v 846.5178 -88.68098 -1873.685
v 725.001 -59.85112 -1995.269
v 968.0927 -62.80953 -1752.663
v 1089.774 -58.50341 -1631.492
v 1213.282 -12.70744 -1391.334
v 724.9907 -67.39522 -1873.817
v 603.4842 -94.54952 -1995.269
v 846.5178 -68.52643 -1752.503
v 1089.254 -75.37405 -1508.328
v 968.3832 -32.55698 -1633.122
v 1212.169 -31.98986 -1267.602
v 603.4653 -64.55062 -1873.801
v 481.9673 -68.0037 -1995.269
v 724.9651 -68.26676 -1752.5
v 846.5101 -91.45633 -1629.344
v 1089.335 -58.93138 -1387.174
v 968.4514 -35.67422 -1511.49
v 1209.425 -57.3548 -1143.05
v 481.9565 -65.89113 -1873.768
v 360.4505 -69.65178 -1995.269
v 603.4233 -68.51973 -1752.454
v 724.7139 -36.68993 -1632.915
v 846.4794 -74.40845 -1507.901
v 1090.228 -29.1327 -1267.409
v 968.1436 -45.31548 -1388.132
v 360.4496 -73.49956 -1873.753
v 238.9337 -77.98562 -1995.269
v 481.9325 -72.90707 -1752.319
v 603.4011 -67.23748 -1631.029
v 724.9574 -57.38893 -1509.571
v 846.426 -58.53342 -1386.345
v 968.7747 -16.03443 -1268.43
v 238.9337 -65.48934 -1873.752
v 117.4168 -73.48396 -1995.269
v 360.4371 -75.30679 -1752.259
v 481.6637 -58.19057 -1631.471
v 602.9626 -41.88045 -1511.164
v 725.0583 -52.05162 -1387.127
v 117.4168 -70.32874 -1873.752
v -4.100003 -70.41348 -1995.269
v 238.9273 -74.41181 -1752.243
v 360.646 -89.13763 -1630.367
v 480.9301 -35.42991 -1511.721
v -4.100003 -43.60365 -1873.752
v -125.6168 -77.65605 -1995.269
v 117.4164 -74.2917 -1752.236
v 238.9492 -80.03825 -1630.697
v -125.6168 -68.14719 -1873.752
v -247.1337 -70.18665 -1995.269
v -4.100003 -71.65642 -1752.236
v -247.1337 -73.54735 -1873.752
v -368.6505 -80.16 -1995.269
v 601.6497 7.300019 -1394.432
v 360.2081 -64.50133 -1509.638
v 117.4108 -76.80076 -1630.726
v -125.6168 -72.82994 -1752.236
v -368.6505 -64.48206 -1873.752
v -490.1673 -64.1775 -1995.269
v 481.4602 -44.37031 -1388.843
v 239.1815 -84.31403 -1508.845
v -4.102532 -71.69622 -1630.721
v -247.1337 -58.54279 -1752.236
v -490.1673 -56.16589 -1873.752
v -611.6841 -71.36246 -1995.269
v 357.8822 -14.14672 -1391.972
v 117.5181 -84.59167 -1509.076
v -125.6168 -67.97469 -1630.719
v -368.6505 -77.75546 -1752.236
v -611.6841 -65.66727 -1873.752
v -733.201 -82.87282 -1995.269
v 238.4877 -59.8179 -1388.28
v -4.075328 -83.47054 -1509.173
v -247.1337 -67.54657 -1630.719
v -490.1673 -68.59766 -1752.236
v -733.201 -80.61826 -1873.752
v -854.7178 -74.38065 -1995.269
v 115.0553 -12.97886 -1390.394
v -125.6366 -52.67944 -1509.225
v -368.6505 -57.54467 -1630.719
v -611.6841 -63.96743 -1752.236
v -854.7178 -56.20165 -1873.752
v -976.2346 -57.14752 -1995.269
v -4.195638 -72.88464 -1387.79
v -247.134 -66.13956 -1509.202
v -490.1673 -67.18358 -1630.719
v -733.201 -63.94589 -1752.236
v -976.2346 -83.3644 -1873.752
v -1097.751 -61.57966 -1995.269
v -125.6726 -69.08988 -1387.751
v -368.6505 -69.7745 -1509.202
v -611.6841 -82.64622 -1630.719
v -854.7178 -62.04869 -1752.236
v -1097.751 -65.18934 -1873.752
v -1219.268 -77.75835 -1995.269
v -247.1514 -64.72691 -1387.705
v -490.1673 -73.16034 -1509.202
v -733.201 -46.50022 -1630.719
v -976.2346 -59.97101 -1752.236
v -1219.268 -72.64697 -1873.752
v -1340.785 -70.99168 -1995.269
v -368.6517 -68.70913 -1387.686
v -611.6841 -82.34724 -1509.202
v -854.7178 -54.83852 -1630.719
v -1097.751 -64.98723 -1752.236
v -1340.785 -63.99816 -1873.752
v -1462.302 -75.8643 -1995.269
v -490.1673 -83.29855 -1387.685
v -733.201 -71.46509 -1509.202
v -976.2346 -62.09101 -1630.719
v -1219.268 -58.34787 -1752.236
v -1462.302 -77.35569 -1873.752
v -1583.819 -60.91771 -1995.269
v -611.6841 -50.00381 -1387.685
v -854.7178 -67.23705 -1509.202
v -1097.751 -53.92006 -1630.719
v -1340.785 -95.39157 -1752.236
v -1583.819 -80.96084 -1873.752
v -1705.336 -59.00812 -1995.269
v -733.201 -70.63634 -1387.685
v -976.2346 -65.04022 -1509.202
v -1219.268 -79.06821 -1630.719
v -1462.302 -57.96262 -1752.236
v -1705.336 -70.91921 -1873.752
v -1826.852 -62.54773 -1995.269
v -854.7178 -78.98271 -1387.685
v -1097.751 -60.20359 -1509.202
v -1340.785 -60.06002 -1630.719
v -1583.819 -79.64924 -1752.236
v -1826.852 -80.56927 -1873.752
v -1948.369 -38.88544 -1995.269
v -1948.369 -68.15128 -1873.752
v -1705.336 -55.89112 -1752.236
v -1826.852 -72.58869 -1752.236
v -1948.369 -71.14374 -1752.236
v -1462.302 -71.86836 -1630.719
v -1219.268 -84.3723 -1509.202
v -1583.819 -55.98941 -1630.719
v -1826.852 -53.97036 -1630.719
v -1948.369 -81.40328 -1630.719
v -1705.336 -70.68849 -1630.719
v -1340.785 -71.39638 -1509.202
v -1826.852 -64.53503 -1509.202
v -1948.369 -85.15296 -1509.202
v -1462.302 -81.97608 -1509.202
v -1705.336 -80.07724 -1509.202
v -1583.819 -80.03154 -1509.202
v -1826.852 -49.5606 -1387.685
v -1948.369 -67.14458 -1387.685
v -1705.336 -58.48911 -1387.685
v -1583.819 -80.34367 -1387.685
v -1462.302 -48.87488 -1387.685
v -1340.785 -70.66061 -1387.685
v -1826.852 -60.58154 -1266.168
v -1948.369 -59.00346 -1266.168
v -1705.336 -74.01886 -1266.168
v -1583.819 -77.12714 -1266.168
v -1462.302 -60.49073 -1266.168
v -1826.852 -68.37089 -1144.651
v -1948.369 -63.73467 -1144.651
v -1705.336 -52.11421 -1144.651
v -1583.82 -66.78233 -1144.652
v -1826.852 -57.94686 -1023.135
v -1948.369 -50.5604 -1023.135
v -1705.335 -81.06032 -1023.134
v -1826.853 -71.45077 -901.6185
v -1948.369 -67.34792 -901.6178
v -1340.786 -74.03177 -1266.169
v -1462.319 -65.43226 -1144.671
v -1583.831 -73.73354 -1023.148
v -1705.381 -62.28578 -901.6586
v -1826.874 -64.37335 -780.1191
v -1948.369 -51.41643 -780.101
v -1340.844 -61.46365 -1144.753
v -1462.238 -86.50244 -1023.051
v -1583.915 -69.77262 -901.7137
v -1705.6 -53.28268 -780.3026
v -1826.907 -69.48879 -658.6156
v -1948.37 -76.77511 -658.5847
v -1340.527 -96.54013 -1022.698
v -1462.636 -60.94849 -902.0164
v -1584.274 -58.76134 -780.4819
v -1705.278 -79.87434 -658.5498
v -1827.013 -66.03594 -537.1339
v -1948.418 -56.13921 -537.1009
v -1341.314 -54.14557 -902.4094
v -1463.372 -44.01791 -781.1715
v -1584.695 -52.11253 -659.1697
v -1704.771 -91.21131 -536.8237
v -1827.993 -21.32766 -415.8681
v -1948.458 -63.62949 -415.5843
v -1342.152 -34.88244 -781.8078
v -1464.093 -33.30395 -660.0179
v -1583.752 -70.74293 -537.0336
v -1704.705 -87.16257 -415.3693
v -1826.894 -75.67152 -294.0394
v -1948.433 -72.11497 -294.0438
v -1342.116 -36.31197 -659.9151
v -1461.823 -69.05048 -536.7789
v -1585.31 -43.67706 -416.0491
v -1706.937 -41.97755 -294.2636
v -1826.844 -77.41089 -172.5168
v -1948.57 -60.8882 -172.5168
v -1339.962 -65.44535 -536.4495
v -1464.871 -23.55179 -416.5809
v -1584.857 -49.81556 -294.2072
v -1705.649 -66.04139 -172.5168
v -1827.963 -33.65226 -50.84935
v -1948.559 -59.19934 -50.96981
v -1343.318 -14.83097 -416.82
v -1465.742 -12.62308 -294.7239
v -1584.137 -59.12455 -172.5168
v -1705.586 -67.47482 -50.96407
v -1826.938 -73.65945 70.54046
v -1948.448 -65.40615 70.54661
v -1340.582 -46.31194 -293.9828
v -1460.705 -72.17536 -172.5168
v -1583.417 -69.7267 -51.06719
v -1706.008 -59.05532 70.71002
v -1827.247 -48.04469 192.1969
v -1948.354 -85.72445 192.023
v -1340.623 -44.44838 -172.5168
v -1465.307 -17.88978 -50.39691
v -1583.635 -69.13971 70.45531
v -1704.868 -88.50525 191.8318
v -1826.896 -71.32748 313.5755
v -1948.369 -78.47175 313.5505
v -1340.34 -49.21225 -51.1115
v -1463.438 -42.39577 70.97245
v -1583.707 -71.54543 191.9777
v -1706.036 -46.51115 313.9653
v -1826.856 -76.02589 435.0706
v -1948.369 -65.57288 435.0673
v -1340.973 -45.28481 70.60201
v -1463.569 -42.58693 192.7959
v -1585.34 -36.6594 314.5667
v -1705.389 -73.3707 435.1083
v -1826.852 -80.7266 556.5839
v -1948.369 -51.19572 556.5841
v -1340.646 -55.05514 191.9572
v -1464.604 -23.68304 315.3933
v -1585.052 -28.67092 436.0998
v -1705.418 -48.83087 556.6586
v -1826.852 -61.12651 678.1009
v -1948.369 -86.62395 678.101
v -1341.234 -54.10758 313.8859
v -1461.61 -90.4049 434.3756
v -1584.196 -44.54982 556.9618
v -1705.343 -50.41769 678.1078
v -1826.852 -72.36684 799.6178
v -1948.369 -63.03322 799.6178
v -1341.623 -51.644 435.9927
v -1462.746 -55.84501 557.1147
v -1583.84 -69.93858 678.125
v -1705.336 -82.06288 799.6178
v -1826.852 -63.57662 921.1346
v -1705.336 -74.47485 921.1346
v -1705.336 -74.86829 1042.651
v -1583.82 -61.01976 799.6194
v -1462.271 -82.36597 678.0605
v -1583.819 -84.97486 921.1346
v -1583.819 -62.66561 1164.168
v -1583.819 -76.86681 1042.651
v -1462.302 -65.62386 1164.168
v -1462.311 -71.76994 799.628
v -1462.302 -50.37766 921.1346
v -1462.302 -63.6115 1042.651
v -1340.785 -51.4161 1164.168
v -1340.785 -84.74476 1042.651
v -1219.268 -49.65746 1164.168
v -1340.787 -65.41865 921.1365
v -1340.834 -64.39438 799.7023
v -1219.27 -59.85991 1042.652
v -1097.774 -49.83723 1164.188
v -1219.284 -66.70943 921.152
v -1341.158 -49.63221 678.73
v -1097.829 -54.08025 1042.697
v -976.3864 -51.52494 1164.284
v -1219.357 -65.71181 799.7906
v -1341.493 -49.77605 557.6146
v -1097.892 -61.12235 921.2365
v -976.4551 -59.81439 1042.782
v -855.0584 -52.82205 1164.454
v -1219.414 -70.86866 678.3295
v -1220.354 -59.39688 557.6981
v -1098.276 -49.54997 800.3307
v -976.449 -66.18851 921.2759
v -855.0984 -58.65581 1042.906
v -733.5469 -58.20089 1164.514
v -1101.661 -24.72947 684.083
v -1223.162 -41.76587 437.4484
v -975.778 -87.57635 799.0463
v -855.1012 -60.83101 921.4001
v -733.501 -61.85495 1042.892
v -612.1808 -50.61518 1164.789
v -1097.711 -52.25258 556.539
v -1225.99 -23.09048 315.1453
v -978.8054 -41.88677 683.8553
v -854.772 -69.00404 799.7061
v -734.7435 -27.64224 922.3222
v -613.2218 -20.90668 1044.189
v -489.5685 -97.70367 1163.172
v -368.8097 -57.49761 1164.564
v -489.8395 -74.79931 1042.193
v -613.8834 -29.06364 923.1555
v -731.4268 -109.2833 797.0234
v -854.4407 -64.2009 676.0473
v -247.4055 -41.27992 1165.293
v -369.1352 -39.99818 1043.954
v -490.6679 -52.02837 921.8746
v -616.5001 -16.38078 803.3771
v -125.8239 -42.47242 1165.391
v -247.1344 -59.82261 1042.655
v -369.422 -25.07055 925.076
v -4.155967 -57.54986 1164.574
v -125.4035 -68.48418 1041.919
v 117.3711 -55.86792 1164.679
v -733.3293 -65.70199 675.9474
v -492.4416 -20.44519 801.9788
v -247.2361 -59.78771 920.0346
v -4.573078 -31.2812 1044.433
v 238.9754 -86.3924 1162.19
v -612.884 -35.21676 679.9771
v -368.5382 -22.35102 799.0035
v -125.8608 -20.12939 923.7696
v 116.8247 -11.44744 1046.149
v 360.3559 -82.81567 1162.46
v -484.5533 -51.10724 675.9778
v -246.5847 -18.65063 800.8322
v -4.131154 -43.89331 921.22
v 238.9212 -48.86257 1042.855
v 482.1442 -46.11081 1165.541
v -370.6685 62.92956 680.616
v -125.4411 -34.26488 800.1312
v 117.323 -37.31301 921.4991
v 360.571 -25.84294 1044.996
v 603.5032 -63.43302 1164.269
v -243.21 26.81124 679.4622
v -4.504606 -21.93039 800.6128
v 238.8236 -28.04541 922.1709
v 482.3298 -27.81028 1044.883
v 725.1467 -57.2913 1164.766
v -122.7609 17.40778 679.8821
v 116.4071 4.553459 802.1918
v 360.4482 -39.90083 921.0869
v 604.0579 -29.09163 1044.831
v -4.328351 -21.37412 678.4295
v 238.4139 9.629959 802.5538
v 482.1745 -29.34874 922.17
v 116.07 16.0899 679.9911
v 360.5559 6.855602 802.3977
v 237.9463 35.21012 681.0145
v 724.9424 -60.09434 1042.481
v 603.9974 -26.60095 922.6155
v 482.1855 -19.15658 800.4788
v 360.462 -3.03685 679.048
v 846.7618 -55.63757 1164.875
v 967.901 -86.43133 1285.376
v 1090.056 -32.29121 1286.536
v 968.1971 -64.02828 1164.492
v 845.9207 -81.97359 1041.291
v 725.7405 -27.90371 922.7004
v 603.8327 -23.74566 800.3661
v 1211.125 -69.89552 1285.76
v 1089.987 -55.22331 1164.819
v 1211.112 -74.3102 1164.22
v 967.8593 -69.99145 1042.36
v 847.0638 -38.88046 922.0698
v 1089.314 -75.74323 1042.355
v 1210.739 -83.772 1042.322
v 968.9086 -37.20316 922.2913
v 724.0843 -58.84877 798.2261
v 1211.136 -67.46896 921.1889
v 1090.437 -44.16702 922.0204
v 847.2907 -29.19152 800.5679
v 1210.484 -75.35439 799.2667
v 1091.802 -17.59289 801.3065
v 968.8168 -35.91016 800.3853
v 1211.118 -60.19676 678.1208
v 1090.285 -41.49001 678.4683
v 965.9231 -80.36113 676.7386
v 845.8509 -49.72301 677.5706
v 724.8857 -33.25207 677.9865
v 1213.793 -18.60901 557.1311
v 1091.964 -14.89922 557.1891
v 966.1046 -71.01859 555.9678
v 847.8541 -12.53566 557.1053
v 1209.713 -76.96785 435.0667
v 1090.683 -32.9248 435.0794
v 966.548 -61.92389 435.0101
v 1212.987 -31.27369 313.2512
v 1091.434 -24.53762 313.3387
v 1211.909 -49.4803 191.9867
v 725.8091 -11.7845 556.9839
v 848.665 -0.3275879 435.2642
v 968.4381 -35.35228 313.5364
v 1089.08 -56.69323 192.0038
v 1211.888 -50.32222 70.71151
v 723.4609 -48.58784 434.7523
v 847.0052 -26.60437 313.6341
v 969.5411 -22.82989 192.3363
v 1093.685 -3.311341 71.97079
v 1212.537 -40.579 -50.33673
v 725.5017 -17.17563 313.8169
v 849.9518 -1.017646 193.2806
v 967.9243 -38.52709 70.46949
v 1089.142 -46.89093 -51.21783
v 1209.878 -59.90052 -173.1919
v 726.6402 1.536911 193.1003
v 846.6188 -23.90253 70.54775
v 968.5509 -25.40142 -50.6958
v 1096.061 26.4243 -168.4373
v 1211.526 -36.51225 -293.7488
v 726.2286 7.468731 70.80864
v 849.1367 3.517974 -50.25378
v 972.533 27.5648 -169.1074
v 1094.446 18.65631 -290.7679
v 1213.616 -9.726959 -414.0275
v 728.8385 35.09796 -51.7699
v 845.4 -29.0384 -173.3131
v 966.1709 -35.29183 -295.571
v 1089.55 -17.55312 -415.5516
v 1213.161 -6.137634 -536.1516
v 727.0214 35.73818 -171.8837
v 847.3896 10.58271 -292.9545
v 970.4007 22.37771 -413.6229
v 1086.665 -35.21857 -538.5845
v 1216.267 22.7548 -657.6296
v 725.1293 6.863431 -293.5801
v 846.4304 1.732447 -415.6651
v 970.3264 30.56256 -535.4807
v 1090.65 6.577222 -658.3345
v 1213.55 2.146043 -780.3293
v 725.1302 25.36721 -414.4577
v 846.2061 4.13618 -537.4414
v 968.1788 10.809 -658.5385
v 1091.918 18.83158 -780.4445
v 1213.625 0.5621473 -902.5784
v 725.002 29.86014 -536.3083
v 847.3986 38.65402 -658.0646
v 970.3676 38.82638 -780.6943
v 1088.638 -16.05813 -901.1294
v 1210.778 -31.22187 -1022.94
v 1091.595 6.558289 -1025.053
v 1092.321 9.250752 -1148.43
v 966.8132 -12.54907 -900.5439
v 847.6278 47.59183 -780.8419
v 969.0641 -0.04992361 -1146.958
v 969.4534 16.05026 -1025.312
v 846.4999 10.29973 -901.578
v 846.6697 -21.03923 -1267.518
v 846.7697 -3.167558 -1146.169
v 846.9695 16.37917 -1024.925
v 724.8986 -23.46998 -1267.21
v 724.9035 -7.599122 -1145.575
v 601.8649 6.717741 -1271.493
v 724.8367 12.1366 -1024.426
v 481.0599 -25.74823 -1267.968
v 603.0464 -9.013649 -1145.844
v 724.9175 18.15156 -902.0784
v 358.8361 -26.93125 -1268.488
v 602.2676 19.73583 -1025.646
v 482.8601 -38.43226 -1143.207
v 725.0175 17.03902 -780.0604
v 236.7124 -28.59368 -1268.704
v 360.4444 -36.07204 -1144.658
v 482.1371 -14.44268 -1022.928
v 602.2222 30.48514 -903.309
v 724.8551 40.5793 -658.1752
v 116.6547 -55.45793 -1266.908
v 236.5899 -22.6888 -1146.817
v 357.6667 3.354531 -1025.575
v 604.3173 -1.023025 -779.6404
v 481.0625 8.610852 -902.3352
v 602.9149 26.11954 -658.4417
v -3.312411 -93.33331 -1265.451
v 115.1888 -33.2469 -1146.394
v 237.3849 -23.26432 -1024.212
v 358.253 5.473636 -902.883
v 482.8962 -5.391546 -779.7797
v 601.1522 62.81549 -534.9661
v -125.6065 -78.0107 -1266.158
v -5.246681 -51.05924 -1145.47
v 115.8513 -35.88725 -1024.064
v 238.184 -22.80073 -901.9654
v 359.8907 -3.430592 -780.2479
v 481.1583 15.20331 -658.5067
v -247.2635 -56.76949 -1266.298
v -126.43 -51.83971 -1145.261
v -5.395648 -46.58195 -1023.967
v 118.3556 -53.04313 -901.0972
v 237.4988 -11.9633 -780.4803
v 359.3779 2.353327 -658.5124
v 482.3061 -0.8576186 -537.2108
v -368.657 -73.40292 -1266.176
v -246.9759 -89.22273 -1144.491
v -126.0804 -60.56939 -1023.684
v -5.572874 -32.48107 -903.8359
v 116.7071 -29.65019 -780.6989
v 237.7022 -11.32416 -658.5565
v -490.1572 -64.16667 -1266.185
v -368.6786 -63.92242 -1144.799
v -247.3596 -62.57703 -1023.807
v -125.8118 -51.00696 -903.2962
v -4.003608 -34.05258 -781.3066
v -611.6659 -62.41385 -1266.216
v -490.0616 -55.48306 -1144.965
v -368.8556 -40.97256 -1024.822
v -247.3746 -45.78502 -904.6229
v -733.195 -70.7662 -1266.207
v -611.8316 -104.1279 -1144.121
v -490.1747 -76.42544 -1023.093
v -125.9232 -44.02932 -778.6043
v -368.7619 -62.89479 -902.2015
v -247.1443 -28.50007 -781.0964
v -854.7178 -56.76255 -1266.292
v -733.0746 -40.69944 -1145.583
v -611.4298 -53.96796 -1024.05
v -490.0436 -77.30901 -900.7425
v -367.3062 -56.75534 -775.6277
v -976.2346 -78.36574 -1387.685
v -1097.751 -60.15728 -1387.685
v -976.2388 -73.14159 -1266.195
v -854.7178 -40.92051 -1145.64
v -733.0733 -55.41981 -1024.024
v -611.5305 -50.31038 -902.8689
v -1219.268 -63.95861 -1387.685
v -1097.748 -81.86258 -1266.159
v -1219.28 -62.92085 -1266.185
v -976.3488 -44.23657 -1145.493
v -854.7178 -59.82214 -1023.791
v -1219.278 -76.61529 -1144.675
v -1097.746 -78.89322 -1144.631
v -1219.187 -80.72926 -1022.946
v -976.491 -38.51593 -1024.92
v -1097.737 -74.64518 -1023.084
v -732.7236 -23.86397 -904.5422
v -1219.717 -53.38277 -902.512
v -1098.41 -36.40478 -903.587
v -975.9837 -84.93375 -900.1163
v -854.7178 -61.5672 -901.7543
v -1218.807 -73.39816 -779.3347
v -1099.364 -4.454797 -784.1216
v -976.3421 -47.85953 -780.6364
v -854.7178 -83.92368 -777.5102
v -733.1155 -46.6907 -780.7698
v -1219.675 -45.31874 -659.126
v -1098.97 -16.14533 -661.0156
v -976.3318 -39.22357 -658.972
v -854.7178 -22.94455 -660.261
v -1220.793 -20.18192 -538.5925
v -1099.364 -3.594484 -539.4828
v -976.5098 -22.89166 -537.8905
v -1219.863 -29.80443 -415.9477
v -1098.641 -13.84252 -416.4404
v -1220.115 -22.58673 -294.3165
v -733.1592 -31.0326 -659.7503
v -854.7178 -4.48415 -539.2121
v -976.1474 -28.36748 -415.3763
v -1098.206 -17.52642 -294.2614
v -1221.156 -7.810481 -172.5168
v -733.1998 -24.39609 -537.7766
v -854.7191 19.63276 -418.1339
v -976.4333 -13.39877 -294.2323
v -1099.016 -3.238234 -172.5689
v -1219.587 -30.2825 -50.96153
v -733.0422 -10.85184 -416.2952
v -854.7233 -13.40477 -294.1745
v -976.8699 -2.310482 -172.7201
v -1101.334 5.815246 -52.57764
v -1223.075 -12.75211 70.26067
v -732.4156 14.7408 -295.1568
v -854.8129 0.947013 -172.9189
v -977.5878 -4.442369 -52.95255
v -1102.804 1.856551 67.44926
v -1223.833 -23.9548 191.8743
v -1104.285 25.9656 189.9208
v -981.5645 46.21379 62.79897
v -854.9028 4.187846 -53.93916
v -1110.349 43.50147 315.2069
v -983.7336 103.0489 186.41
v -855.072 64.3952 62.7073
v -1094.722 -12.79198 433.1566
v -994.144 145.3991 316.32
v -854.6204 117.6761 193.3297
v -980.6337 6.232471 564.9117
v -977.1108 68.05991 436.0121
v -854.6067 10.71501 554.9686
v -854.0912 131.7811 312.2379
v -855.2849 118.0729 442.7096
v -731.6827 8.459512 560.8204
v -723.983 102.1978 446.8633
v -614.0446 -53.17395 551.3902
v -728.5825 127.5728 314.2649
v -491.7794 6.529147 556.446
v -606.1138 26.37716 438.7953
v -719.2802 130.2799 179.6393
v -368.4906 -16.7364 557.4456
v -489.0619 -25.00363 435.3679
v -614.2236 33.23142 313.2962
v -731.3442 39.57449 67.22786
v -245.3568 5.177772 554.5467
v -608.4922 32.91475 190.7156
v -476.8111 27.74113 314.7306
v -368.8093 -47.10618 436.2888
v -731.7309 4.032642 -54.02936
v -125.2443 -19.52193 556.2021
v -607.9317 7.841391 67.57976
v -477.9459 26.21612 189.1231
v -247.015 -30.69663 434.76
v -368.0403 -23.49129 313.3571
v -732.1897 17.97293 -173.3819
v -4.672987 -10.68995 556.5408
v -125.6314 -23.27723 434.4654
v -246.339 -10.98094 312.2131
v -366.994 -16.45262 191.4873
v -608.5164 10.98476 -53.37114
v -483.7006 14.15716 68.20421
v -612.0906 -29.6017 -172.4271
v 116.859 -6.52321 556.6804
v -5.643673 7.348098 433.2962
v -125.6069 -27.42681 312.573
v -246.5082 -35.51812 191.4338
v -487.2256 1.163347 -51.51193
v -370.2177 -55.17564 70.91506
v 237.9874 21.88109 557.1855
v 117.9765 -34.10911 435.5419
v -4.588108 -25.6982 312.3925
v -125.3179 -39.61481 190.9552
v -249.27 -77.11787 71.7043
v -367.0641 -28.38341 -50.97203
v -489.7241 -21.7699 -172.2538
v -611.7143 -29.37952 -294.0277
v -613.7368 16.3479 -416.2347
v -491.3578 23.20419 -290.5295
v -369.1314 -45.17022 -173.0925
v -244.0434 -30.03209 -50.97467
v -126.2285 -76.28152 71.48904
v -613.7894 -4.277912 -538.9006
v -490.6894 -7.029212 -415.3314
v -368.7489 -36.5381 -297.1781
v -242.6222 -10.70192 -167.3222
v -613.2582 -18.18797 -661.4399
v -490.9768 -5.819129 -537.3651
v -370.6519 33.69455 -412.1533
v -612.5318 -16.67857 -784.6705
v -490.5274 -23.57313 -658.9943
v -493.5723 -5.812923 -787.8848
v -364.8803 -22.70767 -535.6862
v -369.3567 0.6282082 -659.8588
v -245.9255 -10.51984 -291.1369
v -246.7846 29.41294 -663.9652
v -245.9224 54.02357 -537.6597
v -247.1243 6.994278 -415.5266
v -125.4083 -6.479692 -658.8869
v -122.6639 22.55938 -536.8663
v -124.5012 -4.418639 -414.3618
v -127.3674 -53.73381 -296.7088
v -123.5828 -46.42403 -170.3064
v -2.945763 -13.25914 -659.7161
v -2.739168 -11.03108 -536.7198
v -4.387689 -37.4383 -415.8794
v 0.5369833 0.9841586 -284.4105
v 117.2689 -26.74634 -658.7894
v 117.1694 -72.10091 -538.8918
v 117.0343 -18.95766 -412.4607
v 243.8527 -70.43899 -539.1686
v -3.854072 -61.98922 -171.6488
v 119.7766 -99.99337 -297.9282
v 237.2656 -20.88535 -414.5578
v 361.2796 -16.70903 -537.3412
v 355.1771 24.54039 -413.1404
v 234.6833 -14.10765 -292.0441
v 118.7503 -82.07128 -173.0352
v 482.9147 -13.07109 -416.1268
v 360.0298 -20.79509 -293.8549
v 240.036 -57.12664 -172.7373
v 603.0684 15.71014 -414.9808
v 602.3943 28.86996 -292.4776
v 483.1551 -22.49191 -294.6945
v 601.4209 68.75669 -173.5576
v 480.5027 -1.749239 -172.5706
v 603.1895 26.525 -52.23211
v 356.7469 -5.843231 -171.9897
v 481.7526 -5.71575 -51.0783
v 603.5849 36.74536 70.90689
v 360.0822 -29.5295 -51.05859
v 604.5413 47.92471 196.2751
v 478.7456 22.08368 70.33987
v 237.7926 -42.92852 -51.18973
v 603.0378 -26.87882 312.8068
v 358.5356 -15.06027 70.05964
v 480.1242 14.49328 192.9389
v 115.859 -50.70514 -51.57545
v 603.3 -22.22584 434.991
v 234.9334 -12.6603 68.3202
v 359.9234 -17.40691 191.896
v 481.2489 14.43577 314.3266
v -3.851257 -99.18882 -50.13748
v 601.6501 -65.16502 555.212
v 115.6502 -37.46228 68.72459
v 240.5717 -50.68813 193.4503
v 482.0205 -8.455378 435.116
v 359.9218 -6.536487 313.2941
v -126.195 -78.7082 -50.8598
v -4.175684 -61.23403 70.18315
v 118.3917 -57.94708 193.3731
v -4.473103 -38.8678 190.6664
v 118.1217 -42.77748 314.4901
v 237.5273 -0.7130278 312.1291
v 238.8515 -15.36063 435.0117
v 360.6318 -24.77857 435.1517
v 360.4205 -8.239135 556.7507
v 482.1203 -7.742834 556.8279
v 482.2738 -6.246276 678.9678
v 603.8359 -16.1347 678.6093
f 1 2 3
f 1 3 4
f 5 1 4
f 4 3 6
f 5 4 7
f 8 5 7
f 4 6 9
f 7 4 9
f 9 6 10
f 8 7 11
f 12 8 11
f 7 9 13
f 11 7 13
f 9 10 14
f 13 9 14
f 14 10 15
f 12 11 16
f 17 12 16
f 11 13 18
f 16 11 18
f 14 15 19
f 19 15 20
f 13 14 21
f 18 13 21
f 21 14 19
f 17 16 22
f 23 17 22
f 19 20 24
f 24 20 25
f 16 18 26
f 22 16 26
f 18 21 27
f 26 18 27
f 21 19 28
f 28 19 24
f 27 21 28
f 23 22 29
f 30 23 29
f 24 25 31
f 31 25 32
f 22 26 33
f 29 22 33
f 26 27 34
f 33 26 34
f 27 28 35
f 34 27 35
f 28 24 36
f 36 24 31
f 35 28 36
f 30 29 37
f 38 30 37
f 31 32 39
f 39 32 40
f 29 33 41
f 37 29 41
f 33 34 42
f 41 33 42
f 34 35 43
f 42 34 43
f 35 36 44
f 43 35 44
f 36 31 45
f 45 31 39
f 44 36 45
f 39 40 46
f 46 40 47
f 45 39 48
f 48 39 46
f 44 45 49
f 49 45 48
f 43 44 50
f 50 44 49
f 42 43 51
f 51 43 50
f 46 47 52
f 52 47 53
f 48 46 54
f 54 46 52
f 49 48 55
f 55 48 54
f 50 49 56
f 56 49 55
f 52 53 57
f 57 53 58
f 54 52 59
f 59 52 57
f 55 54 60
f 60 54 59
f 57 58 61
f 61 58 62
f 59 57 63
f 63 57 61
f 61 62 64
f 64 62 65
f 66 50 56
f 51 50 66
f 56 55 67
f 67 55 60
f 60 59 68
f 68 59 63
f 63 61 69
f 69 61 64
f 64 65 70
f 70 65 71
f 66 56 72
f 72 56 67
f 67 60 73
f 73 60 68
f 68 63 74
f 74 63 69
f 69 64 75
f 75 64 70
f 70 71 76
f 76 71 77
f 72 67 78
f 78 67 73
f 73 68 79
f 79 68 74
f 74 69 80
f 80 69 75
f 75 70 81
f 81 70 76
f 76 77 82
f 82 77 83
f 78 73 84
f 84 73 79
f 79 74 85
f 85 74 80
f 80 75 86
f 86 75 81
f 81 76 87
f 87 76 82
f 82 83 88
f 88 83 89
f 84 79 90
f 90 79 85
f 85 80 91
f 91 80 86
f 86 81 92
f 92 81 87
f 87 82 93
f 93 82 88
f 88 89 94
f 94 89 95
f 90 85 96
f 96 85 91
f 91 86 97
f 97 86 92
f 92 87 98
f 98 87 93
f 93 88 99
f 99 88 94
f 94 95 100
f 100 95 101
f 96 91 102
f 102 91 97
f 97 92 103
f 103 92 98
f 98 93 104
f 104 93 99
f 99 94 105
f 105 94 100
f 100 101 106
f 106 101 107
f 102 97 108
f 108 97 103
f 103 98 109
f 109 98 104
f 104 99 110
f 110 99 105
f 105 100 111
f 111 100 106
f 106 107 112
f 112 107 113
f 108 103 114
f 114 103 109
f 109 104 115
f 115 104 110
f 110 105 116
f 116 105 111
f 111 106 117
f 117 106 112
f 112 113 118
f 118 113 119
f 114 109 120
f 120 109 115
f 115 110 121
f 121 110 116
f 116 111 122
f 122 111 117
f 117 112 123
f 123 112 118
f 118 119 124
f 124 119 125
f 120 115 126
f 126 115 121
f 121 116 127
f 127 116 122
f 122 117 128
f 128 117 123
f 123 118 129
f 129 118 124
f 124 125 130
f 130 125 131
f 126 121 132
f 132 121 127
f 127 122 133
f 133 122 128
f 128 123 134
f 134 123 129
f 129 124 135
f 135 124 130
f 130 131 136
f 136 131 137
f 132 127 138
f 138 127 133
f 133 128 139
f 139 128 134
f 134 129 140
f 140 129 135
f 135 130 141
f 141 130 136
f 136 137 142
f 142 137 143
f 138 133 144
f 144 133 139
f 139 134 145
f 145 134 140
f 140 135 146
f 146 135 141
f 141 136 147
f 147 136 142
f 142 143 148
f 148 143 149
f 144 139 150
f 150 139 145
f 145 140 151
f 151 140 146
f 146 141 152
f 152 141 147
f 147 142 153
f 153 142 148
f 148 149 154
f 154 149 155
f 150 145 156
f 156 145 151
f 151 146 157
f 157 146 152
f 152 147 158
f 158 147 153
f 153 148 159
f 159 148 154
f 154 155 160
f 160 155 161
f 156 151 162
f 162 151 157
f 157 152 163
f 163 152 158
f 158 153 164
f 164 153 159
f 159 154 165
f 165 154 160
f 160 161 166
f 166 161 167
f 162 157 168
f 168 157 163
f 163 158 169
f 169 158 164
f 164 159 170
f 170 159 165
f 165 160 171
f 171 160 166
f 166 167 172
f 172 167 173
f 168 163 174
f 174 163 169
f 169 164 175
f 175 164 170
f 170 165 176
f 176 165 171
f 171 166 177
f 177 166 172
f 172 173 178
f 178 173 179
f 178 179 180
f 181 172 178
f 177 172 181
f 182 178 180
f 181 178 182
f 182 180 183
f 184 171 177
f 176 171 184
f 185 170 176
f 175 170 185
f 186 177 181
f 184 177 186
f 187 182 183
f 187 183 188
f 189 181 182
f 186 181 189
f 189 182 187
f 190 176 184
f 185 176 190
f 191 187 188
f 191 188 192
f 193 184 186
f 190 184 193
f 194 189 187
f 194 187 191
f 195 186 189
f 193 186 195
f 195 189 194
f 196 191 192
f 196 192 197
f 198 194 191
f 198 191 196
f 199 195 194
f 199 194 198
f 200 193 195
f 200 195 199
f 201 190 193
f 201 193 200
f 202 196 197
f 202 197 203
f 204 198 196
f 204 196 202
f 205 199 198
f 205 198 204
f 206 200 199
f 206 199 205
f 207 202 203
f 207 203 208
f 209 204 202
f 209 202 207
f 210 205 204
f 210 204 209
f 211 207 208
f 211 208 212
f 213 209 207
f 213 207 211
f 214 211 212
f 214 212 215
f 216 200 206
f 216 201 200
f 217 206 205
f 217 205 210
f 218 210 209
f 218 209 213
f 219 213 211
f 219 211 214
f 220 214 215
f 220 215 221
f 222 216 206
f 222 206 217
f 223 217 210
f 223 210 218
f 224 218 213
f 224 213 219
f 225 219 214
f 225 214 220
f 226 220 221
f 226 221 227
f 228 222 217
f 228 217 223
f 229 223 218
f 229 218 224
f 230 224 219
f 230 219 225
f 231 225 220
f 231 220 226
f 232 226 227
f 232 227 233
f 234 228 223
f 234 223 229
f 235 229 224
f 235 224 230
f 236 230 225
f 236 225 231
f 237 231 226
f 237 226 232
f 238 232 233
f 238 233 239
f 240 234 229
f 240 229 235
f 241 235 230
f 241 230 236
f 242 236 231
f 242 231 237
f 243 237 232
f 243 232 238
f 244 238 239
f 244 239 245
f 246 240 235
f 246 235 241
f 247 241 236
f 247 236 242
f 248 242 237
f 248 237 243
f 249 243 238
f 249 238 244
f 250 244 245
f 250 245 251
f 252 246 241
f 252 241 247
f 253 247 242
f 253 242 248
f 254 248 243
f 254 243 249
f 255 249 244
f 255 244 250
f 256 250 251
f 256 251 257
f 258 252 247
f 258 247 253
f 259 253 248
f 259 248 254
f 260 254 249
f 260 249 255
f 261 255 250
f 261 250 256
f 262 256 257
f 262 257 263
f 264 258 253
f 264 253 259
f 265 259 254
f 265 254 260
f 266 260 255
f 266 255 261
f 267 261 256
f 267 256 262
f 268 262 263
f 268 263 269
f 270 264 259
f 270 259 265
f 271 265 260
f 271 260 266
f 272 266 261
f 272 261 267
f 273 267 262
f 273 262 268
f 274 268 269
f 274 269 275
f 276 270 265
f 276 265 271
f 277 271 266
f 277 266 272
f 278 272 267
f 278 267 273
f 279 273 268
f 279 268 274
f 280 274 275
f 280 275 281
f 282 276 271
f 282 271 277
f 283 277 272
f 283 272 278
f 284 278 273
f 284 273 279
f 285 279 274
f 285 274 280
f 286 280 281
f 286 281 287
f 288 282 277
f 288 277 283
f 289 283 278
f 289 278 284
f 290 284 279
f 290 279 285
f 291 285 280
f 291 280 286
f 292 286 287
f 292 287 293
f 294 288 283
f 294 283 289
f 295 289 284
f 295 284 290
f 296 290 285
f 296 285 291
f 297 291 286
f 297 286 292
f 298 292 293
f 298 293 299
f 300 294 289
f 300 289 295
f 301 295 290
f 301 290 296
f 302 296 291
f 302 291 297
f 303 297 292
f 303 292 298
f 304 298 299
f 304 299 305
f 306 300 295
f 306 295 301
f 307 301 296
f 307 296 302
f 308 302 297
f 308 297 303
f 309 303 298
f 309 298 304
f 310 304 305
f 310 305 311
f 312 306 301
f 312 301 307
f 313 307 302
f 313 302 308
f 314 308 303
f 314 303 309
f 315 309 304
f 315 304 310
f 316 310 311
f 316 311 317
f 318 312 307
f 318 307 313
f 319 313 308
f 319 308 314
f 320 314 309
f 320 309 315
f 321 315 310
f 321 310 316
f 322 316 317
f 322 317 323
f 324 318 313
f 324 313 319
f 325 319 314
f 325 314 320
f 326 320 315
f 326 315 321
f 327 321 316
f 327 316 322
f 328 322 323
f 328 323 329
f 330 324 319
f 330 319 325
f 331 325 320
f 331 320 326
f 332 326 321
f 332 321 327
f 333 327 322
f 333 322 328
f 334 328 329
f 334 329 335
f 336 330 325
f 336 325 331
f 337 331 326
f 337 326 332
f 338 332 327
f 338 327 333
f 339 333 328
f 339 328 334
f 340 334 335
f 340 335 341
f 342 336 331
f 342 331 337
f 343 337 332
f 343 332 338
f 344 338 333
f 344 333 339
f 345 339 334
f 345 334 340
f 346 340 341
f 346 341 347
f 348 346 347
f 348 347 349
f 350 346 348
f 351 340 346
f 350 351 346
f 351 345 340
f 352 351 350
f 352 353 351
f 353 345 351
f 354 353 352
f 355 339 345
f 353 355 345
f 355 344 339
f 354 356 353
f 356 355 353
f 357 356 354
f 358 344 355
f 356 358 355
f 357 359 356
f 359 358 356
f 360 359 357
f 358 361 344
f 361 338 344
f 361 343 338
f 360 362 359
f 363 362 360
f 359 364 358
f 364 361 358
f 362 364 359
f 365 343 361
f 364 365 361
f 363 366 362
f 367 366 363
f 362 368 364
f 368 365 364
f 366 368 362
f 365 369 343
f 369 337 343
f 369 342 337
f 367 370 366
f 371 370 367
f 366 372 368
f 370 372 366
f 368 373 365
f 373 369 365
f 372 373 368
f 374 342 369
f 373 374 369
f 371 375 370
f 376 375 371
f 370 377 372
f 375 377 370
f 372 378 373
f 378 374 373
f 377 378 372
f 374 379 342
f 379 336 342
f 376 380 375
f 381 380 376
f 375 382 377
f 380 382 375
f 378 383 374
f 383 379 374
f 377 384 378
f 382 384 377
f 384 383 378
f 379 385 336
f 385 330 336
f 381 386 380
f 387 386 381
f 380 388 382
f 386 388 380
f 382 389 384
f 388 389 382
f 383 390 379
f 390 385 379
f 384 391 383
f 389 391 384
f 391 390 383
f 385 392 330
f 392 324 330
f 387 393 386
f 394 393 387
f 386 395 388
f 393 395 386
f 388 396 389
f 395 396 388
f 389 397 391
f 396 397 389
f 390 398 385
f 398 392 385
f 391 399 390
f 397 399 391
f 399 398 390
f 394 400 393
f 401 400 394
f 393 402 395
f 400 402 393
f 395 403 396
f 402 403 395
f 396 404 397
f 403 404 396
f 397 405 399
f 404 405 397
f 399 406 398
f 405 406 399
f 401 407 400
f 408 407 401
f 400 409 402
f 407 409 400
f 402 410 403
f 409 410 402
f 403 411 404
f 410 411 403
f 404 412 405
f 411 412 404
f 408 413 407
f 414 413 408
f 407 415 409
f 413 415 407
f 409 416 410
f 415 416 409
f 410 417 411
f 416 417 410
f 414 418 413
f 419 418 414
f 413 420 415
f 418 420 413
f 415 421 416
f 420 421 415
f 419 422 418
f 423 422 419
f 418 424 420
f 422 424 418
f 423 425 422
f 426 425 423
f 417 427 411
f 411 427 412
f 416 428 417
f 421 428 416
f 420 429 421
f 424 429 420
f 422 430 424
f 425 430 422
f 426 431 425
f 432 431 426
f 417 433 427
f 428 433 417
f 421 434 428
f 429 434 421
f 424 435 429
f 430 435 424
f 425 436 430
f 431 436 425
f 432 437 431
f 438 437 432
f 428 439 433
f 434 439 428
f 429 440 434
f 435 440 429
f 430 441 435
f 436 441 430
f 431 442 436
f 437 442 431
f 438 443 437
f 444 443 438
f 434 445 439
f 440 445 434
f 435 446 440
f 441 446 435
f 436 447 441
f 442 447 436
f 437 448 442
f 443 448 437
f 444 449 443
f 450 449 444
f 440 451 445
f 446 451 440
f 441 452 446
f 447 452 441
f 442 453 447
f 448 453 442
f 443 454 448
f 449 454 443
f 450 455 449
f 456 455 450
f 446 457 451
f 452 457 446
f 447 458 452
f 453 458 447
f 448 459 453
f 454 459 448
f 449 460 454
f 455 460 449
f 456 461 455
f 462 461 456
f 452 463 457
f 458 463 452
f 453 464 458
f 459 464 453
f 454 465 459
f 460 465 454
f 455 466 460
f 461 466 455
f 462 467 461
f 468 467 462
f 458 469 463
f 464 469 458
f 459 470 464
f 465 470 459
f 460 471 465
f 466 471 460
f 461 472 466
f 467 472 461
f 468 473 467
f 474 473 468
f 464 475 469
f 470 475 464
f 465 476 470
f 471 476 465
f 466 477 471
f 472 477 466
f 467 478 472
f 473 478 467
f 474 479 473
f 480 479 474
f 470 481 475
f 476 481 470
f 471 482 476
f 477 482 471
f 472 483 477
f 478 483 472
f 473 484 478
f 479 484 473
f 480 485 479
f 486 485 480
f 476 487 481
f 482 487 476
f 477 488 482
f 483 488 477
f 478 489 483
f 484 489 478
f 479 490 484
f 485 490 479
f 486 491 485
f 492 491 486
f 482 493 487
f 488 493 482
f 483 494 488
f 489 494 483
f 484 495 489
f 490 495 484
f 485 496 490
f 491 496 485
f 492 497 491
f 498 497 492
f 488 499 493
f 494 499 488
f 489 500 494
f 495 500 489
f 490 501 495
f 496 501 490
f 491 502 496
f 497 502 491
f 498 503 497
f 504 503 498
f 504 505 503
f 503 506 497
f 497 506 502
f 505 507 503
f 503 507 506
f 505 508 507
f 502 509 496
f 496 509 501
f 501 510 495
f 495 510 500
f 506 511 502
f 502 511 509
f 508 512 507
f 508 513 512
f 507 514 506
f 506 514 511
f 507 512 514
f 509 515 501
f 501 515 510
f 513 516 512
f 513 517 516
f 511 518 509
f 509 518 515
f 512 519 514
f 512 516 519
f 514 520 511
f 511 520 518
f 514 519 520
f 517 521 516
f 517 522 521
f 516 523 519
f 516 521 523
f 519 524 520
f 519 523 524
f 520 525 518
f 520 524 525
f 518 526 515
f 518 525 526
f 522 527 521
f 522 528 527
f 521 529 523
f 521 527 529
f 523 530 524
f 523 529 530
f 524 531 525
f 524 530 531
f 528 532 527
f 528 533 532
f 527 534 529
f 527 532 534
f 529 535 530
f 529 534 535
f 533 536 532
f 533 537 536
f 532 538 534
f 532 536 538
f 537 539 536
f 537 540 539
f 525 531 541
f 525 541 526
f 530 542 531
f 530 535 542
f 534 543 535
f 534 538 543
f 536 544 538
f 536 539 544
f 540 545 539
f 540 546 545
f 531 547 541
f 531 542 547
f 535 548 542
f 535 543 548
f 538 549 543
f 538 544 549
f 539 550 544
f 539 545 550
f 546 551 545
f 546 552 551
f 542 553 547
f 542 548 553
f 543 554 548
f 543 549 554
f 544 555 549
f 544 550 555
f 545 556 550
f 545 551 556
f 552 557 551
f 552 558 557
f 548 559 553
f 548 554 559
f 549 560 554
f 549 555 560
f 550 561 555
f 550 556 561
f 551 562 556
f 551 557 562
f 558 563 557
f 558 564 563
f 554 565 559
f 554 560 565
f 555 566 560
f 555 561 566
f 556 567 561
f 556 562 567
f 557 568 562
f 557 563 568
f 564 569 563
f 564 570 569
f 560 571 565
f 560 566 571
f 561 572 566
f 561 567 572
f 562 573 567
f 562 568 573
f 563 574 568
f 563 569 574
f 570 575 569
f 570 576 575
f 566 577 571
f 566 572 577
f 567 578 572
f 567 573 578
f 568 579 573
f 568 574 579
f 569 580 574
f 569 575 580
f 576 581 575
f 576 582 581
f 572 583 577
f 572 578 583
f 573 584 578
f 573 579 584
f 574 585 579
f 574 580 585
f 575 586 580
f 575 581 586
f 582 587 581
f 582 588 587
f 578 589 583
f 578 584 589
f 579 590 584
f 579 585 590
f 580 591 585
f 580 586 591
f 581 592 586
f 581 587 592
f 588 593 587
f 588 594 593
f 584 595 589
f 584 590 595
f 585 596 590
f 585 591 596
f 586 597 591
f 586 592 597
f 587 598 592
f 587 593 598
f 594 599 593
f 594 600 599
f 590 601 595
f 590 596 601
f 591 602 596
f 591 597 602
f 592 603 597
f 592 598 603
f 593 604 598
f 593 599 604
f 600 605 599
f 600 606 605
f 596 607 601
f 596 602 607
f 597 608 602
f 597 603 608
f 598 609 603
f 598 604 609
f 599 610 604
f 599 605 610
f 606 611 605
f 606 612 611
f 602 613 607
f 602 608 613
f 603 614 608
f 603 609 614
f 604 615 609
f 604 610 615
f 605 616 610
f 605 611 616
f 612 617 611
f 612 618 617
f 608 619 613
f 608 614 619
f 609 620 614
f 609 615 620
f 610 621 615
f 610 616 621
f 611 622 616
f 611 617 622
f 618 623 617
f 618 624 623
f 614 625 619
f 614 620 625
f 615 626 620
f 615 621 626
f 616 627 621
f 616 622 627
f 617 628 622
f 617 623 628
f 624 629 623
f 624 38 629
f 38 37 629
f 623 629 630
f 623 630 628
f 629 37 631
f 629 631 630
f 37 41 631
f 622 628 632
f 622 632 627
f 621 627 633
f 621 633 626
f 628 630 634
f 628 634 632
f 631 41 635
f 41 42 635
f 635 42 51
f 630 631 636
f 631 635 636
f 630 636 634
f 635 51 637
f 636 635 637
f 637 51 66
f 627 632 638
f 627 638 633
f 632 634 639
f 632 639 638
f 634 636 640
f 636 637 640
f 634 640 639
f 637 66 641
f 640 637 641
f 641 66 72
f 639 640 642
f 640 641 642
f 641 72 643
f 642 641 643
f 643 72 78
f 638 639 644
f 639 642 644
f 633 638 645
f 638 644 645
f 642 643 646
f 644 642 646
f 643 78 647
f 646 643 647
f 647 78 84
f 644 646 648
f 645 644 648
f 633 645 649
f 626 633 649
f 646 647 650
f 648 646 650
f 647 84 651
f 650 647 651
f 651 84 90
f 645 648 652
f 649 645 652
f 626 649 653
f 620 626 653
f 620 653 625
f 648 650 654
f 652 648 654
f 650 651 655
f 654 650 655
f 651 90 656
f 655 651 656
f 656 90 96
f 653 649 657
f 649 652 657
f 625 653 658
f 653 657 658
f 652 654 659
f 657 652 659
f 654 655 660
f 659 654 660
f 655 656 661
f 660 655 661
f 656 96 662
f 661 656 662
f 662 96 102
f 657 659 663
f 658 657 663
f 625 658 664
f 619 625 664
f 659 660 665
f 663 659 665
f 660 661 666
f 665 660 666
f 661 662 667
f 666 661 667
f 662 102 668
f 667 662 668
f 668 102 108
f 658 663 669
f 664 658 669
f 619 664 670
f 613 619 670
f 663 665 671
f 669 663 671
f 665 666 672
f 671 665 672
f 666 667 673
f 672 666 673
f 667 668 674
f 673 667 674
f 668 108 675
f 674 668 675
f 675 108 114
f 675 114 676
f 676 114 120
f 674 675 677
f 677 675 676
f 673 674 678
f 678 674 677
f 672 673 679
f 679 673 678
f 671 672 680
f 680 672 679
f 676 120 681
f 681 120 126
f 677 676 682
f 682 676 681
f 678 677 683
f 683 677 682
f 679 678 684
f 684 678 683
f 681 126 685
f 685 126 132
f 682 681 686
f 686 681 685
f 683 682 687
f 687 682 686
f 685 132 688
f 688 132 138
f 686 685 689
f 689 685 688
f 688 138 690
f 690 138 144
f 691 679 684
f 680 679 691
f 684 683 692
f 692 683 687
f 687 686 693
f 693 686 689
f 689 688 694
f 694 688 690
f 690 144 695
f 695 144 150
f 691 684 696
f 696 684 692
f 692 687 697
f 697 687 693
f 693 689 698
f 698 689 694
f 694 690 699
f 699 690 695
f 695 150 700
f 700 150 156
f 696 692 701
f 701 692 697
f 697 693 702
f 702 693 698
f 698 694 703
f 703 694 699
f 699 695 704
f 704 695 700
f 700 156 705
f 705 156 162
f 701 697 706
f 706 697 702
f 702 698 707
f 707 698 703
f 703 699 708
f 708 699 704
f 704 700 709
f 709 700 705
f 705 162 710
f 710 162 168
f 706 702 711
f 711 702 707
f 707 703 712
f 712 703 708
f 708 704 713
f 713 704 709
f 709 705 714
f 714 705 710
f 710 168 715
f 715 168 174
f 711 707 716
f 716 707 712
f 712 708 717
f 717 708 713
f 713 709 718
f 718 709 714
f 714 710 719
f 719 710 715
f 716 712 720
f 720 712 717
f 717 713 721
f 721 713 718
f 718 714 722
f 722 714 719
f 720 717 723
f 723 717 721
f 721 718 724
f 724 718 722
f 723 721 725
f 725 721 724
f 719 715 726
f 722 719 727
f 727 719 726
f 724 722 728
f 728 722 727
f 725 724 729
f 729 724 728
f 726 715 730
f 715 174 730
f 730 174 731
f 174 169 731
f 731 169 175
f 731 175 732
f 732 175 185
f 730 731 733
f 733 731 732
f 726 730 734
f 734 730 733
f 727 726 735
f 735 726 734
f 728 727 736
f 736 727 735
f 732 185 737
f 737 185 190
f 737 190 201
f 733 732 738
f 738 732 737
f 739 737 201
f 738 737 739
f 739 201 216
f 734 733 740
f 740 733 738
f 735 734 741
f 741 734 740
f 742 738 739
f 740 738 742
f 743 739 216
f 742 739 743
f 743 216 222
f 744 740 742
f 741 740 744
f 745 735 741
f 736 735 745
f 746 743 222
f 746 222 228
f 747 742 743
f 744 742 747
f 747 743 746
f 748 741 744
f 745 741 748
f 749 746 228
f 749 228 234
f 750 747 746
f 750 746 749
f 751 744 747
f 748 744 751
f 751 747 750
f 752 749 234
f 752 234 240
f 753 750 749
f 753 749 752
f 754 751 750
f 754 750 753
f 755 748 751
f 755 751 754
f 756 745 748
f 756 748 755
f 757 752 240
f 757 240 246
f 758 753 752
f 758 752 757
f 759 754 753
f 759 753 758
f 760 755 754
f 760 754 759
f 761 757 246
f 761 246 252
f 762 758 757
f 762 757 761
f 763 759 758
f 763 758 762
f 764 761 252
f 764 252 258
f 765 762 761
f 765 761 764
f 766 764 258
f 766 258 264
f 767 755 760
f 767 756 755
f 768 760 759
f 768 759 763
f 769 763 762
f 769 762 765
f 770 765 764
f 770 764 766
f 771 766 264
f 771 264 270
f 772 767 760
f 772 760 768
f 773 768 763
f 773 763 769
f 774 769 765
f 774 765 770
f 775 770 766
f 775 766 771
f 776 771 270
f 776 270 276
f 777 772 768
f 777 768 773
f 778 773 769
f 778 769 774
f 779 774 770
f 779 770 775
f 780 775 771
f 780 771 776
f 781 776 276
f 781 276 282
f 782 777 773
f 782 773 778
f 783 778 774
f 783 774 779
f 784 779 775
f 784 775 780
f 785 780 776
f 785 776 781
f 786 781 282
f 786 282 288
f 787 782 778
f 787 778 783
f 788 783 779
f 788 779 784
f 789 784 780
f 789 780 785
f 790 785 781
f 790 781 786
f 791 786 288
f 791 288 294
f 792 787 783
f 792 783 788
f 793 788 784
f 793 784 789
f 794 789 785
f 794 785 790
f 795 790 786
f 795 786 791
f 796 791 294
f 796 294 300
f 797 792 788
f 797 788 793
f 798 793 789
f 798 789 794
f 799 794 790
f 799 790 795
f 800 795 791
f 800 791 796
f 801 796 300
f 801 300 306
f 802 797 793
f 802 793 798
f 803 798 794
f 803 794 799
f 804 799 795
f 804 795 800
f 805 800 796
f 805 796 801
f 806 801 306
f 806 306 312
f 807 802 798
f 807 798 803
f 808 803 799
f 808 799 804
f 809 804 800
f 809 800 805
f 810 805 801
f 810 801 806
f 811 806 312
f 811 312 318
f 812 807 803
f 812 803 808
f 813 808 804
f 813 804 809
f 814 809 805
f 814 805 810
f 815 810 806
f 815 806 811
f 816 811 318
f 816 318 324
f 392 816 324
f 817 811 816
f 817 815 811
f 818 816 392
f 818 817 816
f 398 818 392
f 406 818 398
f 819 810 815
f 819 814 810
f 820 809 814
f 820 813 809
f 821 817 818
f 406 821 818
f 822 815 817
f 822 819 815
f 821 822 817
f 823 814 819
f 823 820 814
f 824 821 406
f 405 824 406
f 412 824 405
f 825 822 821
f 824 825 821
f 826 819 822
f 826 823 819
f 825 826 822
f 412 827 824
f 827 825 824
f 427 827 412
f 828 826 825
f 827 828 825
f 427 829 827
f 829 828 827
f 433 829 427
f 830 823 826
f 828 830 826
f 433 831 829
f 439 831 433
f 829 832 828
f 832 830 828
f 831 832 829
f 830 833 823
f 833 820 823
f 439 834 831
f 445 834 439
f 832 835 830
f 835 833 830
f 831 836 832
f 834 836 831
f 836 835 832
f 833 837 820
f 837 813 820
f 445 838 834
f 451 838 445
f 834 839 836
f 838 839 834
f 836 840 835
f 839 840 836
f 835 841 833
f 841 837 833
f 840 841 835
f 837 842 813
f 842 808 813
f 842 812 808
f 451 843 838
f 457 843 451
f 838 844 839
f 843 844 838
f 839 845 840
f 844 845 839
f 841 846 837
f 846 842 837
f 840 847 841
f 845 847 840
f 847 846 841
f 848 812 842
f 846 848 842
f 457 849 843
f 463 849 457
f 843 850 844
f 849 850 843
f 844 851 845
f 850 851 844
f 845 852 847
f 851 852 845
f 847 853 846
f 853 848 846
f 852 853 847
f 848 854 812
f 854 807 812
f 463 855 849
f 469 855 463
f 849 856 850
f 855 856 849
f 850 857 851
f 856 857 850
f 851 858 852
f 857 858 851
f 852 859 853
f 858 859 852
f 853 860 848
f 859 860 853
f 860 854 848
f 469 861 855
f 475 861 469
f 855 862 856
f 861 862 855
f 856 863 857
f 862 863 856
f 857 864 858
f 863 864 857
f 858 865 859
f 864 865 858
f 859 866 860
f 865 866 859
f 860 867 854
f 866 867 860
f 475 868 861
f 481 868 475
f 861 869 862
f 868 869 861
f 862 870 863
f 869 870 862
f 863 871 864
f 870 871 863
f 864 872 865
f 871 872 864
f 865 873 866
f 872 873 865
f 481 874 868
f 487 874 481
f 868 875 869
f 874 875 868
f 869 876 870
f 875 876 869
f 870 877 871
f 876 877 870
f 871 878 872
f 877 878 871
f 487 879 874
f 493 879 487
f 874 880 875
f 879 880 874
f 875 881 876
f 880 881 875
f 876 882 877
f 881 882 876
f 493 883 879
f 499 883 493
f 879 884 880
f 883 884 879
f 880 885 881
f 884 885 880
f 877 886 878
f 882 886 877
f 881 887 882
f 885 887 881
f 882 888 886
f 887 888 882
f 499 889 883
f 883 890 884
f 889 890 883
f 884 891 885
f 890 891 884
f 885 892 887
f 891 892 885
f 887 893 888
f 892 893 887
f 894 889 499
f 494 894 499
f 500 894 494
f 500 895 894
f 510 895 500
f 894 896 889
f 895 896 894
f 889 897 890
f 896 897 889
f 890 898 891
f 897 898 890
f 891 899 892
f 898 899 891
f 510 900 895
f 515 900 510
f 515 526 900
f 895 901 896
f 900 901 895
f 526 902 900
f 900 902 901
f 526 541 902
f 896 903 897
f 901 903 896
f 897 904 898
f 903 904 897
f 541 905 902
f 541 547 905
f 902 906 901
f 901 906 903
f 902 905 906
f 547 907 905
f 547 553 907
f 906 908 903
f 903 908 904
f 905 909 906
f 905 907 909
f 906 909 908
f 904 910 898
f 898 910 899
f 553 911 907
f 553 559 911
f 907 912 909
f 907 911 912
f 909 913 908
f 909 912 913
f 908 914 904
f 904 914 910
f 908 913 914
f 559 915 911
f 559 565 915
f 911 916 912
f 911 915 916
f 912 917 913
f 912 916 917
f 913 918 914
f 913 917 918
f 914 919 910
f 914 918 919
f 565 920 915
f 565 571 920
f 915 921 916
f 915 920 921
f 916 922 917
f 916 921 922
f 917 923 918
f 917 922 923
f 571 924 920
f 571 577 924
f 920 925 921
f 920 924 925
f 921 926 922
f 921 925 926
f 577 927 924
f 577 583 927
f 924 928 925
f 924 927 928
f 583 929 927
f 583 589 929
f 918 923 930
f 918 930 919
f 922 931 923
f 922 926 931
f 925 932 926
f 925 928 932
f 927 933 928
f 927 929 933
f 589 934 929
f 589 595 934
f 923 935 930
f 923 931 935
f 926 936 931
f 926 932 936
f 928 937 932
f 928 933 937
f 929 938 933
f 929 934 938
f 595 939 934
f 595 601 939
f 931 940 935
f 931 936 940
f 932 941 936
f 932 937 941
f 933 942 937
f 933 938 942
f 934 943 938
f 934 939 943
f 601 944 939
f 601 607 944
f 936 945 940
f 936 941 945
f 937 946 941
f 937 942 946
f 938 947 942
f 938 943 947
f 939 948 943
f 939 944 948
f 607 949 944
f 607 613 949
f 613 670 949
f 944 949 950
f 944 950 948
f 943 948 951
f 943 951 947
f 942 947 952
f 942 952 946
f 949 670 953
f 949 953 950
f 948 950 954
f 948 954 951
f 947 951 955
f 947 955 952
f 670 956 953
f 670 664 956
f 664 669 956
f 950 953 957
f 950 957 954
f 951 954 958
f 951 958 955
f 956 669 959
f 669 671 959
f 959 671 680
f 953 956 960
f 956 959 960
f 953 960 957
f 959 680 961
f 960 959 961
f 961 680 691
f 954 957 962
f 954 962 958
f 957 960 963
f 960 961 963
f 957 963 962
f 961 691 964
f 963 961 964
f 964 691 696
f 962 963 965
f 963 964 965
f 964 696 966
f 965 964 966
f 966 696 701
f 958 962 967
f 962 965 967
f 966 701 968
f 968 701 706
f 965 966 969
f 967 965 969
f 969 966 968
f 958 967 970
f 955 958 970
f 968 706 971
f 971 706 711
f 969 968 972
f 972 968 971
f 967 969 973
f 970 967 973
f 973 969 972
f 955 970 974
f 952 955 974
f 971 711 975
f 975 711 716
f 970 973 976
f 974 970 976
f 973 972 977
f 976 973 977
f 972 971 978
f 978 971 975
f 977 972 978
f 952 974 979
f 946 952 979
f 975 716 980
f 980 716 720
f 974 976 981
f 979 974 981
f 976 977 982
f 981 976 982
f 978 975 983
f 983 975 980
f 977 978 984
f 982 977 984
f 984 978 983
f 946 979 985
f 941 946 985
f 941 985 945
f 980 720 986
f 986 720 723
f 983 980 987
f 987 980 986
f 984 983 988
f 988 983 987
f 982 984 989
f 989 984 988
f 985 979 990
f 979 981 990
f 981 982 991
f 991 982 989
f 990 981 991
f 945 985 992
f 985 990 992
f 986 723 993
f 993 723 725
f 987 986 994
f 994 986 993
f 988 987 995
f 995 987 994
f 989 988 996
f 996 988 995
f 990 991 997
f 992 990 997
f 991 989 998
f 998 989 996
f 997 991 998
f 993 725 999
f 999 725 729
f 994 993 1000
f 1000 993 999
f 995 994 1001
f 1001 994 1000
f 996 995 1002
f 1002 995 1001
f 998 996 1003
f 1003 996 1002
f 997 998 1004
f 1004 998 1003
f 1005 997 1004
f 992 997 1005
f 1006 992 1005
f 945 992 1006
f 940 945 1006
f 940 1006 1007
f 935 940 1007
f 1006 1005 1008
f 1007 1006 1008
f 1005 1004 1009
f 1008 1005 1009
f 1004 1003 1010
f 1009 1004 1010
f 1003 1002 1011
f 1010 1003 1011
f 935 1007 1012
f 930 935 1012
f 1007 1008 1013
f 1012 1007 1013
f 1008 1009 1014
f 1013 1008 1014
f 1009 1010 1015
f 1014 1009 1015
f 930 1012 1016
f 919 930 1016
f 1012 1013 1017
f 1016 1012 1017
f 1013 1014 1018
f 1017 1013 1018
f 919 1016 1019
f 910 919 1019
f 910 1019 899
f 1016 1017 1020
f 1019 1016 1020
f 899 1019 1021
f 1019 1020 1021
f 899 1021 892
f 892 1021 893
f 1020 1017 1022
f 1017 1018 1022
f 1021 1020 1023
f 1021 1023 893
f 1020 1022 1023
f 1018 1014 1024
f 1014 1015 1024
f 893 1023 1025
f 893 1025 888
f 1023 1022 1026
f 1023 1026 1025
f 1022 1018 1027
f 1018 1024 1027
f 1022 1027 1026
f 888 1025 1028
f 888 1028 886
f 1025 1026 1029
f 1025 1029 1028
f 1026 1027 1030
f 1026 1030 1029
f 1027 1024 1031
f 1027 1031 1030
f 1024 1015 1032
f 1024 1032 1031
f 886 1028 1033
f 886 1033 878
f 1028 1029 1034
f 1028 1034 1033
f 1029 1030 1035
f 1029 1035 1034
f 1030 1031 1036
f 1030 1036 1035
f 878 1033 1037
f 878 1037 872
f 872 1037 873
f 1033 1034 1038
f 1033 1038 1037
f 1034 1035 1039
f 1034 1039 1038
f 1037 1040 873
f 1037 1038 1040
f 1031 1041 1036
f 1031 1032 1041
f 1035 1036 1042
f 1035 1042 1039
f 1038 1039 1043
f 1038 1043 1040
f 873 1040 1044
f 873 1044 866
f 866 1044 867
f 1040 1045 1044
f 1040 1043 1045
f 1039 1046 1043
f 1039 1042 1046
f 1036 1047 1042
f 1036 1041 1047
f 1044 1048 867
f 1044 1045 1048
f 1043 1049 1045
f 1043 1046 1049
f 1042 1050 1046
f 1042 1047 1050
f 867 1048 1051
f 867 1051 854
f 854 1051 807
f 1051 802 807
f 1051 1052 802
f 1048 1052 1051
f 1052 797 802
f 1045 1053 1048
f 1048 1053 1052
f 1045 1049 1053
f 1052 1054 797
f 1053 1054 1052
f 1054 792 797
f 1049 1055 1053
f 1053 1055 1054
f 1054 1056 792
f 1055 1056 1054
f 1056 787 792
f 1049 1057 1055
f 1046 1057 1049
f 1046 1050 1057
f 1055 1058 1056
f 1057 1058 1055
f 1056 1059 787
f 1058 1059 1056
f 1059 782 787
f 1050 1060 1057
f 1057 1060 1058
f 1059 1061 782
f 1061 777 782
f 1058 1062 1059
f 1060 1062 1058
f 1062 1061 1059
f 1050 1063 1060
f 1047 1063 1050
f 1061 1064 777
f 1064 772 777
f 1060 1065 1062
f 1063 1065 1060
f 1062 1066 1061
f 1066 1064 1061
f 1065 1066 1062
f 1047 1067 1063
f 1041 1067 1047
f 1064 1068 772
f 1068 767 772
f 1063 1069 1065
f 1067 1069 1063
f 1065 1070 1066
f 1069 1070 1065
f 1066 1071 1064
f 1071 1068 1064
f 1070 1071 1066
f 1041 1072 1067
f 1032 1072 1041
f 1068 1073 767
f 1073 756 767
f 1067 1074 1069
f 1072 1074 1067
f 1069 1075 1070
f 1074 1075 1069
f 1071 1076 1068
f 1076 1073 1068
f 1070 1077 1071
f 1075 1077 1070
f 1077 1076 1071
f 1032 1078 1072
f 1015 1078 1032
f 1015 1010 1078
f 1010 1011 1078
f 1078 1079 1072
f 1072 1079 1074
f 1078 1011 1079
f 1074 1080 1075
f 1079 1080 1074
f 1011 1081 1079
f 1079 1081 1080
f 1011 1002 1081
f 1002 1001 1081
f 1081 1001 1082
f 1081 1082 1080
f 1001 1000 1082
f 1080 1083 1075
f 1080 1082 1083
f 1075 1083 1077
f 1082 1000 1084
f 1082 1084 1083
f 1000 999 1084
f 1083 1085 1077
f 1083 1084 1085
f 1077 1085 1076
f 1084 999 1086
f 1084 1086 1085
f 999 729 1086
f 1085 1087 1076
f 1085 1086 1087
f 1076 1087 1073
f 1086 729 1088
f 1086 1088 1087
f 729 728 1088
f 1088 728 736
f 1087 1089 1073
f 1087 1088 1089
f 1088 736 1089
f 1073 1089 756
f 1089 736 745
f 1089 745 756
v 1.227047 -10.42091 2.990101
v 1.926643 -10.17029 2.359318
v 1.185281 -10.17029 2.912642
v 1.988468 -10.42091 2.421807
v 3.27012 -10.17029 2.109959
v 3.368291 -10.42091 2.165702
v -3.672437 -10.42091 2.053366
v -3.419286 -10.42091 3.404717
v -3.338661 -10.17029 3.316337
v -3.585144 -10.17029 2.000583
v -4.110631 -10.42091 0.9558604
v -4.011795 -10.17029 0.9319879
v -4.485151 -10.42091 0.05494065
v -4.376449 -10.17029 0.0547996
v -2.460883 -10.42091 -3.291748
v -3.180574 -10.42091 -2.676666
v -3.106237 -10.17029 -2.604852
v -2.405504 -10.17029 -3.203732
v -1.644214 -10.42091 -3.625761
v -1.610347 -10.17029 -3.528946
v -0.4484152 -10.42091 -3.855418
v -0.4460477 -10.17029 -3.752553
v -3.180574 -10.42091 -2.676666
v -3.30735 -10.42091 -1.718816
v -3.229673 -10.17029 -1.672233
v -3.106237 -10.17029 -2.604852
v -3.30735 -10.42091 -1.718816
v -4.110631 -10.42091 -0.8459796
v -4.011795 -10.17029 -0.8223885
v -3.229673 -10.17029 -1.672233
v -4.110631 -10.42091 -0.8459796
v -4.485151 -10.42091 0.05494065
v -4.376449 -10.17029 0.0547996
v -4.011795 -10.17029 -0.8223885
v 3.368291 -10.42091 2.165702
v 3.860453 -10.42091 0.9839445
v 3.749317 -10.17029 0.9593319
v 3.27012 -10.17029 2.109959
v 3.860453 -10.42091 0.9839445
v 3.662088 -10.17029 -0.04090411
v 3.749317 -10.17029 0.9593319
v 3.770864 -10.42091 -0.04335228
v 3.366503 -10.17029 -1.1095
v 3.467282 -10.42091 -1.140858
v 2.996681 -10.17029 -2.082392
v 3.087454 -10.42091 -2.140071
v 2.254771 -10.17029 -3.069711
v 2.325473 -10.42091 -3.154101
v 1.431375 -10.17029 -3.559202
v 1.4798 -10.42091 -3.656836
v 1.431375 -10.17029 -3.559202
v 2.996681 -10.17029 -2.082392
v 2.254771 -10.17029 -3.069711
v 1.63719 -10.17029 -1.798348
v 0.4995 -10.17029 -3.091442
v 3.366503 -10.17029 -1.1095
v 0.5971128 -10.17029 -2.187314
v -0.4460477 -10.17029 -3.752553
v 2.02023 -10.17029 -0.8223888
v 3.662088 -10.17029 -0.04090411
v -0.2956562 -10.17029 -2.364647
v -1.610347 -10.17029 -3.528946
v 2.215876 -10.17029 0.0547996
v 3.749317 -10.17029 0.9593319
v 0.7600025 -10.17029 -0.9469189
v -1.195163 -10.17029 -2.184927
v -2.405504 -10.17029 -3.203732
v 2.02023 -10.17029 0.9319875
v 3.27012 -10.17029 2.109959
v 0.8594896 -10.17029 0.0547996
v -0.2956562 -10.17029 -1.066541
v -2.305679 -10.17029 -1.776388
v -3.106237 -10.17029 -2.604852
v -3.229673 -10.17029 -1.672233
v 1.637191 -10.17029 1.950494
v 1.926643 -10.17029 2.359318
v 1.185281 -10.17029 2.912642
v -1.428491 -10.17029 -0.932618
v -2.854358 -10.17029 -0.8223888
v -4.011795 -10.17029 -0.8223885
v 0.7600025 -10.17029 1.110162
v 0.5971128 -10.17029 2.507015
v 0.8002833 -10.17029 3.897693
v -0.2959942 -10.17029 0.05510039
v -3.134607 -10.17029 0.0547996
v -4.376449 -10.17029 0.0547996
v -1.571001 -10.17029 0.0547996
v -0.2956562 -10.17029 1.281313
v -0.2956562 -10.17029 2.760737
v -0.2546403 -10.17029 3.998873
v -1.428491 -10.17029 1.0897
v -2.854358 -10.17029 0.9319879
v -4.011795 -10.17029 0.9319879
v -1.195163 -10.17029 2.5036
v -1.241204 -10.17029 3.774645
v -2.305679 -10.17029 1.919074
v -3.585144 -10.17029 2.000583
v -2.132064 -10.17029 3.404833
v -3.338661 -10.17029 3.316337
v 3.467282 -10.42091 -1.140858
v 2.765505 -11.33283 -1.93483
v 3.087454 -10.42091 -2.140071
v 3.109829 -11.33283 -1.029017
v 3.770864 -10.42091 -0.04335228
v 3.385034 -11.33283 -0.03409851
v 3.860453 -10.42091 0.9839445
v 3.46625 -11.33283 0.897173
v 3.368291 -10.42091 2.165702
v 3.020092 -11.33283 1.968467
v -3.672437 -10.42091 2.053366
v -3.133026 -11.33283 3.091669
v -3.419286 -10.42091 3.404717
v -3.362515 -11.33283 1.866633
v -4.110631 -10.42091 0.9558604
v -3.75975 -11.33283 0.8717147
v -4.485151 -10.42091 0.05494065
v -4.099262 -11.33283 0.05500672
v -0.2518293 -10.42091 4.105718
v 0.7205449 -11.33283 3.63294
v 0.8316349 -10.42091 4.001801
v -0.261644 -11.33283 3.727144
v -1.265084 -10.42091 3.875424
v -1.180186 -11.33283 3.518376
v -2.180045 -10.42091 3.495608
v -2.009623 -11.33283 3.174063
v -3.419286 -10.42091 3.404717
v -3.133026 -11.33283 3.091669
v 3.087454 -10.42091 -2.140071
v 2.765505 -11.33283 -1.93483
v 2.074748 -11.33283 -2.854076
v 2.325473 -10.42091 -3.154101
v 1.308125 -11.33283 -3.309818
v 1.4798 -10.42091 -3.656836
v 1.4798 -10.42091 -3.656836
v 1.308125 -11.33283 -3.309818
v 0.4405002 -11.33283 -2.874308
v 0.5227139 -10.42091 -3.176421
v 0.4995 -10.17029 -3.091442
v 1.431375 -10.17029 -3.559202
v 0.8316349 -10.42091 4.001801
v 0.7205449 -11.33283 3.63294
v 1.078997 -11.33283 2.715808
v 1.227047 -10.42091 2.990101
v 1.185281 -10.17029 2.912642
v 0.8002833 -10.17029 3.897693
v -3.180574 -10.42091 -2.676666
v -2.916629 -11.33283 -2.421267
v -3.031554 -11.33283 -1.55295
v -3.30735 -10.42091 -1.718816
v 0.5227139 -10.42091 -3.176421
v 0.4405002 -11.33283 -2.874308
v -0.4398543 -11.33283 -3.489837
v -0.4484152 -10.42091 -3.855418
v 1.227047 -10.42091 2.990101
v 1.078997 -11.33283 2.715808
v 1.769245 -11.33283 2.200634
v 1.988468 -10.42091 2.421807
v -0.4484152 -10.42091 -3.855418
v -0.4398543 -11.33283 -3.489837
v -1.523878 -11.33283 -3.281646
v -1.644214 -10.42091 -3.625761
v -2.264209 -11.33283 -2.978856
v -2.460883 -10.42091 -3.291748
v -2.916629 -11.33283 -2.421267
v -3.180574 -10.42091 -2.676666
v -3.30735 -10.42091 -1.718816
v -3.031554 -11.33283 -1.55295
v -3.75975 -11.33283 -0.7617012
v -4.110631 -10.42091 -0.8459796
v -4.099262 -11.33283 0.05500672
v -4.485151 -10.42091 0.05494065
v 0.5227139 -10.42091 -3.176421
v -0.4484152 -10.42091 -3.855418
v -0.4460477 -10.17029 -3.752553
v 0.4995 -10.17029 -3.091442
v 1.988468 -10.42091 2.421807
v 1.769245 -11.33283 2.200634
v 3.020092 -11.33283 1.968467
v 3.368291 -10.42091 2.165702
v -3.419286 -10.42091 3.404717
v -2.132064 -10.17029 3.404833
v -3.338661 -10.17029 3.316337
v -2.180045 -10.42091 3.495608
v -1.241204 -10.17029 3.774645
v -1.265084 -10.42091 3.875424
v -0.2546403 -10.17029 3.998873
v -0.2518293 -10.42091 4.105718
v 0.8002833 -10.17029 3.897693
v 0.8316349 -10.42091 4.001801
v 0.7205449 -11.33283 3.63294
v 0.2962589 -12.13085 2.224011
v 0.5137607 -12.13085 1.667513
v 1.078997 -11.33283 2.715808
v -0.261644 -11.33283 3.727144
v 0.2962589 -12.13085 2.224011
v 0.7205449 -11.33283 3.63294
v -0.2997135 -12.13085 2.281172
v -1.180186 -11.33283 3.518376
v -0.8570663 -12.13085 2.154496
v -2.009623 -11.33283 3.174063
v -1.360352 -12.13085 1.945573
v -3.133026 -11.33283 3.091669
v -2.04201 -12.13085 1.895578
v -0.7148328 -12.29122 0.7241819
v -0.5358137 -12.29122 0.7984959
v -0.3375629 -12.29122 0.8435547
v -0.1255752 -12.29122 0.8232225
v -0.0482097 -12.29122 0.6252759
v 0.5137607 -12.13085 1.667513
v -0.3760265 -12.29122 -0.7141007
v -0.1860178 -12.29122 -0.58125
v 0.001243323 -12.29122 -0.6752469
v 0.1007678 -12.29122 0.514085
v -0.6099935 -12.29122 -0.6691665
v 0.9325892 -12.13085 1.354916
v 1.078997 -11.33283 2.715808
v 1.769245 -11.33283 2.200634
v 1.691578 -12.13085 1.214042
v 3.020092 -11.33283 1.968467
v 0.3707406 -12.29122 0.4639759
v 0.1667052 -12.29122 -0.5768832
v -0.4078479 -12.13085 -2.097947
v 0.1263335 -12.13085 -1.724457
v 0.4405002 -11.33283 -2.874308
v 0.6527907 -12.13085 -1.988715
v -0.4398543 -11.33283 -3.489837
v -1.065611 -12.13085 -1.971621
v -1.523878 -11.33283 -3.281646
v 1.117962 -12.13085 -1.71218
v -0.7697806 -12.29122 -0.6038146
v -1.51483 -12.13085 -1.787894
v -2.264209 -11.33283 -2.978856
v 2.074748 -11.33283 -2.854076
v 1.308125 -11.33283 -3.309818
v 2.765505 -11.33283 -1.93483
v 1.537099 -12.13085 -1.1544
v 3.109829 -11.33283 -1.029017
v -0.9105935 -12.29122 -0.4834692
v -1.910705 -12.13085 -1.449561
v -2.916629 -11.33283 -2.421267
v 0.3157926 -12.29122 -0.3784805
v 1.746029 -12.13085 -0.6047711
v 3.385034 -11.33283 -0.03409851
v -0.9353982 -12.29122 -0.2960586
v -1.980439 -12.13085 -0.9226834
v -3.031554 -11.33283 -1.55295
v 0.390109 -12.29122 -0.182977
v 1.913017 -12.13085 -0.001074729
v 3.46625 -11.33283 0.897173
v -2.422294 -12.13085 -0.4425695
v -3.75975 -11.33283 -0.7617012
v 0.467036 -12.29122 0.2327564
v 1.962297 -12.13085 0.5640022
v 3.020092 -11.33283 1.968467
v 0.4495068 -12.29122 0.03175818
v -1.092566 -12.29122 -0.1252818
v -2.628303 -12.13085 0.05299253
v -4.099262 -11.33283 0.05500672
v -1.165844 -12.29122 0.05098994
v -2.422294 -12.13085 0.5485545
v -3.75975 -11.33283 0.8717147
v -1.092566 -12.29122 0.2272616
v -1.00683 -12.29122 0.4419968
v -2.18126 -12.13085 1.152251
v -3.362515 -11.33283 1.866633
v -0.957299 -12.29122 0.7063986
v -3.133026 -11.33283 3.091669
v 1.308125 -11.33283 -3.309818
v 0.6527907 -12.13085 -1.988715
v 0.1263335 -12.13085 -1.724457
v 0.4405002 -11.33283 -2.874308
f 1090 1091 1092
f 1090 1093 1091
f 1093 1094 1091
f 1093 1095 1094
f 1096 1097 1098
f 1096 1098 1099
f 1100 1096 1099
f 1100 1099 1101
f 1102 1100 1101
f 1102 1101 1103
f 1104 1105 1106
f 1104 1106 1107
f 1108 1104 1107
f 1108 1107 1109
f 1110 1108 1109
f 1110 1109 1111
f 1112 1113 1114
f 1112 1114 1115
f 1116 1117 1118
f 1116 1118 1119
f 1120 1121 1122
f 1120 1122 1123
f 1124 1125 1126
f 1124 1126 1127
f 1128 1129 1130
f 1128 1131 1129
f 1131 1132 1129
f 1131 1133 1132
f 1133 1134 1132
f 1133 1135 1134
f 1135 1136 1134
f 1135 1137 1136
f 1137 1138 1136
f 1137 1139 1138
f 1140 1141 1142
f 1140 1143 1141
f 1144 1143 1140
f 1143 1145 1141
f 1144 1146 1143
f 1147 1146 1144
f 1143 1148 1145
f 1146 1148 1143
f 1148 1149 1145
f 1147 1150 1146
f 1151 1150 1147
f 1148 1152 1149
f 1152 1153 1149
f 1146 1154 1148
f 1150 1154 1146
f 1154 1152 1148
f 1151 1155 1150
f 1156 1155 1151
f 1152 1157 1153
f 1157 1158 1153
f 1154 1159 1152
f 1159 1157 1152
f 1150 1160 1154
f 1155 1160 1150
f 1160 1159 1154
f 1156 1161 1155
f 1162 1161 1156
f 1162 1163 1161
f 1157 1164 1158
f 1164 1165 1158
f 1164 1166 1165
f 1155 1167 1160
f 1161 1167 1155
f 1163 1168 1161
f 1161 1168 1167
f 1163 1169 1168
f 1159 1170 1157
f 1170 1164 1157
f 1171 1166 1164
f 1170 1171 1164
f 1171 1172 1166
f 1160 1173 1159
f 1167 1173 1160
f 1173 1170 1159
f 1169 1174 1168
f 1169 1175 1174
f 1168 1176 1167
f 1167 1176 1173
f 1168 1174 1176
f 1173 1177 1170
f 1177 1171 1170
f 1176 1177 1173
f 1178 1172 1171
f 1177 1178 1171
f 1178 1179 1172
f 1176 1180 1177
f 1174 1180 1176
f 1180 1178 1177
f 1175 1181 1174
f 1174 1181 1180
f 1175 1182 1181
f 1183 1179 1178
f 1180 1183 1178
f 1181 1183 1180
f 1183 1184 1179
f 1182 1185 1181
f 1181 1185 1183
f 1185 1184 1183
f 1182 1186 1185
f 1185 1187 1184
f 1186 1187 1185
f 1186 1188 1187
f 1189 1190 1191
f 1189 1192 1190
f 1193 1192 1189
f 1193 1194 1192
f 1195 1194 1193
f 1195 1196 1194
f 1197 1196 1195
f 1197 1198 1196
f 1199 1200 1201
f 1199 1202 1200
f 1203 1202 1199
f 1203 1204 1202
f 1205 1204 1203
f 1205 1206 1204
f 1207 1208 1209
f 1207 1210 1208
f 1211 1210 1207
f 1211 1212 1210
f 1213 1212 1211
f 1213 1214 1212
f 1215 1214 1213
f 1215 1216 1214
f 1217 1218 1219
f 1217 1219 1220
f 1220 1219 1221
f 1220 1221 1222
f 1223 1224 1225
f 1223 1225 1226
f 1223 1226 1227
f 1223 1227 1228
f 1229 1230 1231
f 1229 1231 1232
f 1229 1232 1233
f 1229 1233 1234
f 1235 1236 1237
f 1235 1237 1238
f 1239 1240 1241
f 1239 1241 1242
f 1243 1244 1245
f 1243 1245 1246
f 1247 1248 1249
f 1247 1249 1250
f 1250 1249 1251
f 1250 1251 1252
f 1252 1251 1253
f 1252 1253 1254
f 1255 1256 1257
f 1255 1257 1258
f 1258 1257 1259
f 1258 1259 1260
f 1261 1262 1263
f 1261 1263 1264
f 1265 1266 1267
f 1265 1267 1268
f 1269 1270 1271
f 1269 1272 1270
f 1272 1273 1270
f 1272 1274 1273
f 1274 1275 1273
f 1274 1276 1275
f 1276 1277 1275
f 1276 1278 1277
f 1279 1280 1281
f 1279 1281 1282
f 1283 1284 1285
f 1283 1286 1284
f 1287 1286 1283
f 1287 1288 1286
f 1289 1288 1287
f 1289 1290 1288
f 1291 1290 1289
f 1291 1292 1290
f 1292 1293 1290
f 1290 1294 1288
f 1290 1293 1294
f 1288 1295 1286
f 1288 1294 1295
f 1286 1296 1284
f 1286 1295 1296
f 1284 1296 1297
f 1284 1297 1298
f 1299 1295 1294
f 1300 1296 1295
f 1299 1300 1295
f 1301 1297 1296
f 1300 1301 1296
f 1298 1297 1302
f 1301 1302 1297
f 1303 1294 1293
f 1303 1299 1294
f 1298 1302 1304
f 1305 1298 1304
f 1305 1304 1306
f 1306 1304 1307
f 1306 1307 1308
f 1304 1302 1309
f 1304 1309 1307
f 1301 1310 1302
f 1310 1309 1302
f 1311 1299 1303
f 1312 1299 1311
f 1312 1300 1299
f 1313 1312 1311
f 1314 1300 1312
f 1314 1301 1300
f 1313 1311 1315
f 1315 1311 1316
f 1311 1303 1316
f 1315 1316 1317
f 1318 1301 1314
f 1318 1310 1301
f 1316 1303 1319
f 1319 1303 1293
f 1317 1316 1320
f 1316 1319 1320
f 1317 1320 1321
f 1322 1318 1314
f 1322 1314 1323
f 1324 1318 1322
f 1324 1325 1318
f 1325 1310 1318
f 1326 1325 1324
f 1320 1319 1327
f 1327 1319 1293
f 1321 1320 1328
f 1320 1327 1328
f 1321 1328 1329
f 1325 1330 1310
f 1310 1330 1309
f 1326 1331 1325
f 1331 1330 1325
f 1332 1331 1326
f 1333 1327 1293
f 1328 1327 1333
f 1329 1328 1334
f 1328 1333 1334
f 1329 1334 1335
f 1330 1336 1309
f 1331 1336 1330
f 1332 1337 1331
f 1337 1336 1331
f 1338 1337 1332
f 1335 1334 1339
f 1335 1339 1340
f 1336 1341 1309
f 1307 1309 1341
f 1338 1342 1337
f 1307 1341 1342
f 1343 1342 1338
f 1343 1307 1342
f 1336 1344 1341
f 1337 1344 1336
f 1342 1341 1344
f 1342 1344 1337
f 1334 1345 1339
f 1334 1333 1345
f 1340 1339 1346
f 1340 1346 1347
f 1339 1345 1348
f 1339 1348 1346
f 1347 1346 1349
f 1347 1349 1350
f 1346 1348 1351
f 1351 1348 1345
f 1346 1351 1349
f 1345 1352 1351
f 1345 1333 1352
f 1349 1351 1352
f 1350 1349 1353
f 1349 1352 1353
f 1350 1353 1354
f 1333 1355 1352
f 1353 1352 1355
f 1333 1293 1355
f 1292 1355 1293
f 1353 1355 1292
f 1354 1353 1292
f 1354 1292 1356
f 1357 1358 1359
f 1357 1359 1360
v -13.43359 21.33992 139.3376
v 13.88197 21.33992 139.3618
v -13.43602 21.33992 142.0714
v 13.87954 21.33992 142.0957
v -13.43602 5.260078 142.0714
v 13.87954 5.260077 142.0957
v -13.43359 5.260077 139.3376
v 13.88197 5.260076 139.3618
v -13.43602 21.33992 142.0714
v 13.87954 21.33992 142.0957
v -13.43602 5.260078 142.0714
v 13.87954 5.260077 142.0957
v -13.43359 5.260077 139.3376
v -13.43359 21.33992 139.3376
v 13.88197 21.33992 139.3618
v 13.88197 5.260076 139.3618
v 13.88197 21.33992 139.3618
v 13.87954 21.33992 142.0957
v 13.87954 5.260077 142.0957
v 13.88197 5.260076 139.3618
v -13.43359 5.260077 139.3376
v -13.43602 5.260078 142.0714
v -13.43602 21.33992 142.0714
v -13.43359 21.33992 139.3376
f 1361 1363 1364
f 1361 1364 1362
f 1369 1365 1366
f 1369 1366 1370
f 1371 1367 1368
f 1371 1368 1372
f 1373 1374 1375
f 1373 1375 1376
f 1377 1378 1379
f 1377 1379 1380
f 1381 1382 1383
f 1381 1383 1384
