v 7 6.5 17
v 6 6.5 17
v 7 6.5 18
v 6 6.5 18
v 7 4 18
v 6 4 18
v 7 4 17
v 6 4 17
v 7 4 17
v 6 4 17
v 6 5 17
v 7 5 17
v 6 6.5 17
v 7 6.5 17
v 6 4 17
v 6 4 18
v 6 5 18
v 6 5 17
v 6 6.5 18
v 6 6.5 17
v 6 5 18
v 7 4 18
v 7 5 18
v 6 4 18
v 6 6.5 18
v 7 6.5 18
v 7 5 18
v 7 4 17
v 7 5 17
v 7 4 18
v 7 6.5 18
v 7 6.5 17
f 1 2 3
f 2 4 3
f 5 6 7
f 6 8 7
f 9 10 11
f 12 9 11
f 12 11 13
f 14 12 13
f 15 16 17
f 18 15 17
f 18 17 19
f 20 18 19
f 21 22 23
f 21 24 22
f 25 23 26
f 25 21 23
f 27 28 29
f 27 30 28
f 31 29 32
f 31 27 29
v 4 6.5 17
v 3 6.5 17
v 4 6.5 18
v 3 6.5 18
v 4 4 18
v 3 4 18
v 4 4 17
v 3 4 17
v 4 4 17
v 3 4 17
v 3 5 17
v 4 5 17
v 3 6.5 17
v 4 6.5 17
v 3 4 17
v 3 4 18
v 3 5 18
v 3 5 17
v 3 6.5 18
v 3 6.5 17
v 3 5 18
v 4 4 18
v 4 5 18
v 3 4 18
v 3 6.5 18
v 4 6.5 18
v 4 5 18
v 4 4 17
v 4 5 17
v 4 4 18
v 4 6.5 18
v 4 6.5 17
f 33 34 35
f 34 36 35
f 37 38 39
f 38 40 39
f 41 42 43
f 44 41 43
f 44 43 45
f 46 44 45
f 47 48 49
f 50 47 49
f 50 49 51
f 52 50 51
f 53 54 55
f 53 56 54
f 57 55 58
f 57 53 55
f 59 60 61
f 59 62 60
f 63 61 64
f 63 59 61
v -37 -4 38
v 37 -4 38
v -37 26 38
v 37 26 38
v 37 -4 38
v 37 -4 10
v 37 26 38
v 37 26 10
v 37 -4 10
v -37 -4 10
v 37 26 10
v -37 26 10
v -37 -4 10
v -37 -4 38
v -37 26 10
v -37 26 38
v -37 26 38
v 37 26 38
v -37 26 10
v 37 26 10
v -37 -4 10
v 37 -4 10
v -37 -4 38
v 37 -4 38
f 65 66 67
f 66 68 67
f 69 70 71
f 70 72 71
f 73 74 75
f 74 76 75
f 77 78 79
f 78 80 79
f 81 82 83
f 82 84 83
f 85 86 87
f 86 88 87
v -5 6.5 17
v -6 6.5 17
v -5 6.5 18
v -6 6.5 18
v -5 4 18
v -6 4 18
v -5 4 17
v -6 4 17
v -5 4 17
v -6 4 17
v -6 5 17
v -5 5 17
v -6 6.5 17
v -5 6.5 17
v -6 4 17
v -6 4 18
v -6 5 18
v -6 5 17
v -6 6.5 18
v -6 6.5 17
v -6 5 18
v -5 4 18
v -5 5 18
v -6 4 18
v -6 6.5 18
v -5 6.5 18
v -5 5 18
v -5 4 17
v -5 5 17
v -5 4 18
v -5 6.5 18
v -5 6.5 17
f 89 90 91
f 90 92 91
f 93 94 95
f 94 96 95
f 97 98 99
f 100 97 99
f 100 99 101
f 102 100 101
f 103 104 105
f 106 103 105
f 106 105 107
f 108 106 107
f 109 110 111
f 109 112 110
f 113 111 114
f 113 109 111
f 115 116 117
f 115 118 116
f 119 117 120
f 119 115 117
v 1 6.5 17
v 0 6.5 17
v 1 6.5 18
v 0 6.5 18
v 1 4 18
v 0 4 18
v 1 4 17
v 0 4 17
v 1 4 17
v 0 4 17
v 0 5 17
v 1 5 17
v 0 6.5 17
v 1 6.5 17
v 0 4 17
v 0 4 18
v 0 5 18
v 0 5 17
v 0 6.5 18
v 0 6.5 17
v 0 5 18
v 1 4 18
v 1 5 18
v 0 4 18
v 0 6.5 18
v 1 6.5 18
v 1 5 18
v 1 4 17
v 1 5 17
v 1 4 18
v 1 6.5 18
v 1 6.5 17
f 121 122 123
f 122 124 123
f 125 126 127
f 126 128 127
f 129 130 131
f 132 129 131
f 132 131 133
f 134 132 133
f 135 136 137
f 138 135 137
f 138 137 139
f 140 138 139
f 141 142 143
f 141 144 142
f 145 143 146
f 145 141 143
f 147 148 149
f 147 150 148
f 151 149 152
f 151 147 149
v -2 6.5 17
v -3 6.5 17
v -2 6.5 18
v -3 6.5 18
v -2 4 18
v -3 4 18
v -2 4 17
v -3 4 17
v -2 4 17
v -3 4 17
v -3 5 17
v -2 5 17
v -3 6.5 17
v -2 6.5 17
v -3 4 17
v -3 4 18
v -3 5 18
v -3 5 17
v -3 6.5 18
v -3 6.5 17
v -3 5 18
v -2 4 18
v -2 5 18
v -3 4 18
v -3 6.5 18
v -2 6.5 18
v -2 5 18
v -2 4 17
v -2 5 17
v -2 4 18
v -2 6.5 18
v -2 6.5 17
f 153 154 155
f 154 156 155
f 157 158 159
f 158 160 159
f 161 162 163
f 164 161 163
f 164 163 165
f 166 164 165
f 167 168 169
f 170 167 169
f 170 169 171
f 172 170 171
f 173 174 175
f 173 176 174
f 177 175 178
f 177 173 175
f 179 180 181
f 179 182 180
f 183 181 184
f 183 179 181
v 41 2 -30
v 33 2 -30
v 37 2 10
v 41 2 10
v 21 2 -30
v 21 2 10
v -21 2 -30
v -21 2 10
v -33 2 -30
v -37 2 10
v -41 2 -30
v -41 2 10
v 37 2 18
v 41 2 18
v 37 2 30
v 41 2 30
v 21 2 18
v -37 2 18
v -21 2 18
v -41 2 18
v -41 2 30
v -37 2 30
v -37 2 30
v -21 2 30
v -37 6 30
v -21 6 30
v 21 2 30
v 21 6 30
v 37 2 30
v 37 6 30
v 37 2 18
v 21 2 18
v 37 2 10
v 21 2 10
v 21 2 18
v 21 6 18
v 21 2 10
v -21 2 18
v -37 2 18
v -21 2 10
v -37 2 10
v -21 6 18
v -21 2 18
v -21 2 10
v 37 6 18
v 21 6 18
v 21 6 30
v 37 6 30
v 21 6 10
v -21 6 10
v -21 6 18
v -21 6 30
v -37 6 18
v -37 6 30
v 21 6 35
v -21 6 35
v 21 6 18
v 37 6 18
v 21 2 10
v 37 2 10
v -37 6 18
v -21 6 18
v -37 2 10
v -21 2 10
v 37 6 30
v 21 2 30
v 21 6 30
v 37 2 30
v 41 6 30
v 41 2 30
v 21 2 -30
v 33 2 -30
v 33 6 -30
v 21 6 -30
v 41 2 -30
v 41 6 -30
v -21 2 30
v -21 6 30
v -21 2 -30
v -21 6 -30
v -37 6 30
v -41 2 30
v -41 6 30
v -37 2 30
v -41 2 -30
v -33 2 -30
v -33 6 -30
v -41 6 -30
v 41 6 -30
v 41 2 10
v 41 6 10
v 41 2 -30
v -41 2 10
v -41 2 -30
v -41 6 -30
v -41 6 10
v 33 42 10
v 41 42 -30
v 41 42 10
v 33 42 -30
v 21 42 10
v 21 42 -30
v -21 42 10
v -21 42 -30
v -33 42 10
v -33 42 -30
v -41 42 10
v -41 42 -30
v 41 6 18
v 41 2 30
v 41 6 30
v 41 2 18
v -41 2 30
v -41 2 18
v -41 6 18
v -41 6 30
v 33 42 18
v 41 42 18
v 33 42 30
v 41 42 30
v 21 42 18
v 21 42 30
v -21 42 18
v -21 42 30
v -33 42 18
v -33 42 30
v -41 42 18
v -41 42 30
v 33 30 30
v 21 30 30
v 33 42 30
v 21 42 30
v 41 30 30
v 41 42 30
v 33 30 -30
v 21 30 -30
v 33 42 -30
v 21 42 -30
v 41 30 -30
v 41 42 -30
v 21 30 35
v -21 6 35
v -21 30 35
v 21 6 35
v -21 30 30
v -21 42 30
v -21 30 -30
v -21 42 -30
v -33 30 30
v -41 30 30
v -33 42 30
v -41 42 30
v -33 30 -30
v -41 30 -30
v -33 42 -30
v -41 42 -30
v 41 30 -30
v 41 30 10
v 41 42 -30
v 41 42 10
v -41 30 -30
v -41 30 10
v -41 42 -30
v -41 42 10
v 41 30 18
v 41 30 30
v 41 42 18
v 41 42 30
v -41 30 18
v -41 30 30
v -41 42 18
v -41 42 30
v -21 6 30
v -21 30 30
v -21 6 35
v -21 30 35
v -21 30 30
v 21 30 30
v -21 30 35
v 21 30 35
v 21 30 30
v 21 6 30
v 21 30 35
v 21 6 35
v 21 2 10
v -21 2 10
v 21 6 10
v -21 6 10
v -21 2 10
v -21 2 18
v -21 6 10
v -21 6 18
v 21 2 18
v 21 2 10
v 21 6 18
v 21 6 10
v 37 2 30
v 37 2 18
v 37 6 30
v 37 6 18
v -37 2 18
v -37 2 30
v -37 6 18
v -37 6 30
v 37 2 10
v -37 2 10
f 185 186 187
f 188 185 187
f 186 189 190
f 187 186 190
f 189 191 192
f 190 189 192
f 191 193 194
f 192 191 194
f 193 195 196
f 194 193 196
f 188 187 197
f 198 188 197
f 198 197 199
f 200 198 199
f 187 190 201
f 197 187 201
f 192 194 202
f 203 192 202
f 194 196 204
f 202 194 204
f 202 204 205
f 206 202 205
f 207 208 209
f 208 210 209
f 208 211 210
f 211 212 210
f 211 213 212
f 213 214 212
f 215 216 217
f 216 218 217
f 219 220 221
f 222 223 224
f 223 225 224
f 226 227 228
f 229 230 231
f 232 229 231
f 233 234 235
f 230 233 235
f 230 235 236
f 231 230 236
f 235 237 238
f 236 235 238
f 231 236 239
f 236 240 239
f 241 242 243
f 242 244 243
f 245 246 247
f 246 248 247
f 249 250 251
f 249 252 250
f 253 252 249
f 253 254 252
f 255 256 257
f 258 255 257
f 256 259 260
f 257 256 260
f 251 261 262
f 251 250 261
f 263 255 258
f 264 263 258
f 265 266 267
f 265 268 266
f 262 268 265
f 262 261 268
f 269 270 271
f 272 269 271
f 270 263 264
f 271 270 264
f 273 274 275
f 273 276 274
f 277 278 279
f 280 277 279
f 281 282 283
f 281 284 282
f 285 284 281
f 285 286 284
f 287 286 285
f 287 288 286
f 289 288 287
f 289 290 288
f 291 290 289
f 291 292 290
f 293 294 295
f 293 296 294
f 275 296 293
f 275 274 296
f 297 298 299
f 300 297 299
f 298 277 280
f 299 298 280
f 301 283 302
f 301 281 283
f 303 302 304
f 303 301 302
f 305 281 301
f 305 285 281
f 306 301 303
f 306 305 301
f 307 285 305
f 307 287 285
f 308 305 306
f 308 307 305
f 309 287 307
f 309 289 287
f 310 307 308
f 310 309 307
f 311 289 309
f 311 291 289
f 312 309 310
f 312 311 309
f 313 251 314
f 313 249 251
f 315 314 316
f 315 313 314
f 317 249 313
f 317 253 249
f 318 313 315
f 318 317 313
f 258 257 319
f 320 258 319
f 320 319 321
f 322 320 321
f 257 260 323
f 319 257 323
f 319 323 324
f 321 319 324
f 325 326 327
f 325 328 326
f 316 329 330
f 316 314 329
f 264 258 320
f 331 264 320
f 331 320 322
f 332 331 322
f 333 267 334
f 333 265 267
f 335 334 336
f 335 333 334
f 329 265 333
f 329 262 265
f 330 333 335
f 330 329 333
f 272 271 337
f 338 272 337
f 338 337 339
f 340 338 339
f 271 264 331
f 337 271 331
f 337 331 332
f 339 337 332
f 341 275 342
f 341 273 275
f 343 342 344
f 343 341 342
f 280 279 345
f 346 280 345
f 346 345 347
f 348 346 347
f 349 295 350
f 349 293 295
f 351 350 352
f 351 349 350
f 342 293 349
f 342 275 293
f 344 349 351
f 344 342 349
f 300 299 353
f 354 300 353
f 354 353 355
f 356 354 355
f 299 280 346
f 353 299 346
f 353 346 348
f 355 353 348
f 357 358 359
f 358 360 359
f 361 362 363
f 362 364 363
f 365 366 367
f 366 368 367
f 369 370 371
f 370 372 371
f 373 374 375
f 374 376 375
f 377 378 379
f 378 380 379
f 381 382 383
f 382 384 383
f 385 386 387
f 386 388 387
f 384 382 389
f 385 387 390
v -1.571042 4.26562 -17.53403
v -1.571077 4.26562 -16.8105
v -1.571042 6.018875 -17.53403
v -1.571077 6.018875 -16.8105
v -4.428808 6.018875 -17.53417
v -4.428843 6.018875 -16.81064
v -4.428808 4.26562 -17.53417
v -4.428843 4.26562 -16.81064
v -1.571042 6.018875 -17.53403
v -1.571077 6.018875 -16.8105
v -4.428808 6.018875 -17.53417
v -4.428843 6.018875 -16.81064
v -4.428808 4.26562 -17.53417
v -1.571042 4.26562 -17.53403
v -1.571077 4.26562 -16.8105
v -4.428843 4.26562 -16.81064
v -1.571077 4.26562 -16.8105
v -1.571077 6.018875 -16.8105
v -4.428843 6.018875 -16.81064
v -4.428843 4.26562 -16.81064
v -4.428808 4.26562 -17.53417
v -4.428808 6.018875 -17.53417
v -1.571042 6.018875 -17.53403
v -1.571042 4.26562 -17.53403
f 391 393 394
f 391 394 392
f 399 395 396
f 399 396 400
f 401 397 398
f 401 398 402
f 403 404 405
f 403 405 406
f 407 408 409
f 407 409 410
f 411 412 413
f 411 413 414
v -1.571042 2.022817 -17.53403
v -1.571165 2.022817 -15.00485
v -1.571042 4.420119 -17.53403
v -1.571165 4.420119 -15.00485
v -4.428808 4.420119 -17.53417
v -4.428932 4.420119 -15.00499
v -4.428808 2.022817 -17.53417
v -4.428932 2.022817 -15.00499
v -1.571042 4.420119 -17.53403
v -1.571165 4.420119 -15.00485
v -4.428808 4.420119 -17.53417
v -4.428932 4.420119 -15.00499
v -4.428808 2.022817 -17.53417
v -1.571042 2.022817 -17.53403
v -1.571165 2.022817 -15.00485
v -4.428932 2.022817 -15.00499
v -1.571165 2.022817 -15.00485
v -1.571165 4.420119 -15.00485
v -4.428932 4.420119 -15.00499
v -4.428932 2.022817 -15.00499
v -4.428808 2.022817 -17.53417
v -4.428808 4.420119 -17.53417
v -1.571042 4.420119 -17.53403
v -1.571042 2.022817 -17.53403
f 415 417 418
f 415 418 416
f 423 419 420
f 423 420 424
f 425 421 422
f 425 422 426
f 427 428 429
f 427 429 430
f 431 432 433
f 431 433 434
f 435 436 437
f 435 437 438
v -6.571042 4.26562 -27.53403
v -6.571077 4.26562 -26.8105
v -6.571042 6.018875 -27.53403
v -6.571077 6.018875 -26.8105
v -9.428808 6.018875 -27.53417
v -9.428843 6.018875 -26.81064
v -9.428808 4.26562 -27.53417
v -9.428843 4.26562 -26.81064
v -6.571042 6.018875 -27.53403
v -6.571077 6.018875 -26.8105
v -9.428808 6.018875 -27.53417
v -9.428843 6.018875 -26.81064
v -9.428808 4.26562 -27.53417
v -6.571042 4.26562 -27.53403
v -6.571077 4.26562 -26.8105
v -9.428843 4.26562 -26.81064
v -6.571077 4.26562 -26.8105
v -6.571077 6.018875 -26.8105
v -9.428843 6.018875 -26.81064
v -9.428843 4.26562 -26.81064
v -9.428808 4.26562 -27.53417
v -9.428808 6.018875 -27.53417
v -6.571042 6.018875 -27.53403
v -6.571042 4.26562 -27.53403
f 439 441 442
f 439 442 440
f 447 443 444
f 447 444 448
f 449 445 446
f 449 446 450
f 451 452 453
f 451 453 454
f 455 456 457
f 455 457 458
f 459 460 461
f 459 461 462
v -6.571042 2.022817 -27.53403
v -6.571166 2.022817 -25.00485
v -6.571042 4.420119 -27.53403
v -6.571166 4.420119 -25.00485
v -9.428808 4.420119 -27.53417
v -9.428931 4.420119 -25.00499
v -9.428808 2.022817 -27.53417
v -9.428931 2.022817 -25.00499
v -6.571042 4.420119 -27.53403
v -6.571166 4.420119 -25.00485
v -9.428808 4.420119 -27.53417
v -9.428931 4.420119 -25.00499
v -9.428808 2.022817 -27.53417
v -6.571042 2.022817 -27.53403
v -6.571166 2.022817 -25.00485
v -9.428931 2.022817 -25.00499
v -6.571166 2.022817 -25.00485
v -6.571166 4.420119 -25.00485
v -9.428931 4.420119 -25.00499
v -9.428931 2.022817 -25.00499
v -9.428808 2.022817 -27.53417
v -9.428808 4.420119 -27.53417
v -6.571042 4.420119 -27.53403
v -6.571042 2.022817 -27.53403
f 463 465 466
f 463 466 464
f 471 467 468
f 471 468 472
f 473 469 470
f 473 470 474
f 475 476 477
f 475 477 478
f 479 480 481
f 479 481 482
f 483 484 485
f 483 485 486
v -16.57104 4.26562 -12.53403
v -16.57108 4.26562 -11.8105
v -16.57104 6.018875 -12.53403
v -16.57108 6.018875 -11.8105
v -19.42881 6.018875 -12.53417
v -19.42884 6.018875 -11.81064
v -19.42881 4.26562 -12.53417
v -19.42884 4.26562 -11.81064
v -16.57104 6.018875 -12.53403
v -16.57108 6.018875 -11.8105
v -19.42881 6.018875 -12.53417
v -19.42884 6.018875 -11.81064
v -19.42881 4.26562 -12.53417
v -16.57104 4.26562 -12.53403
v -16.57108 4.26562 -11.8105
v -19.42884 4.26562 -11.81064
v -16.57108 4.26562 -11.8105
v -16.57108 6.018875 -11.8105
v -19.42884 6.018875 -11.81064
v -19.42884 4.26562 -11.81064
v -19.42881 4.26562 -12.53417
v -19.42881 6.018875 -12.53417
v -16.57104 6.018875 -12.53403
v -16.57104 4.26562 -12.53403
f 487 489 490
f 487 490 488
f 495 491 492
f 495 492 496
f 497 493 494
f 497 494 498
f 499 500 501
f 499 501 502
f 503 504 505
f 503 505 506
f 507 508 509
f 507 509 510
v -16.57104 2.022817 -12.53403
v -16.57117 2.022817 -10.00485
v -16.57104 4.420119 -12.53403
v -16.57117 4.420119 -10.00485
v -19.42881 4.420119 -12.53417
v -19.42893 4.420119 -10.00499
v -19.42881 2.022817 -12.53417
v -19.42893 2.022817 -10.00499
v -16.57104 4.420119 -12.53403
v -16.57117 4.420119 -10.00485
v -19.42881 4.420119 -12.53417
v -19.42893 4.420119 -10.00499
v -19.42881 2.022817 -12.53417
v -16.57104 2.022817 -12.53403
v -16.57117 2.022817 -10.00485
v -19.42893 2.022817 -10.00499
v -16.57117 2.022817 -10.00485
v -16.57117 4.420119 -10.00485
v -19.42893 4.420119 -10.00499
v -19.42893 2.022817 -10.00499
v -19.42881 2.022817 -12.53417
v -19.42881 4.420119 -12.53417
v -16.57104 4.420119 -12.53403
v -16.57104 2.022817 -12.53403
f 511 513 514
f 511 514 512
f 519 515 516
f 519 516 520
f 521 517 518
f 521 518 522
f 523 524 525
f 523 525 526
f 527 528 529
f 527 529 530
f 531 532 533
f 531 533 534
v 23.42896 4.26562 -22.53403
v 23.42892 4.26562 -21.8105
v 23.42896 6.018875 -22.53403
v 23.42892 6.018875 -21.8105
v 20.57119 6.018875 -22.53417
v 20.57116 6.018875 -21.81064
v 20.57119 4.26562 -22.53417
v 20.57116 4.26562 -21.81064
v 23.42896 6.018875 -22.53403
v 23.42892 6.018875 -21.8105
v 20.57119 6.018875 -22.53417
v 20.57116 6.018875 -21.81064
v 20.57119 4.26562 -22.53417
v 23.42896 4.26562 -22.53403
v 23.42892 4.26562 -21.8105
v 20.57116 4.26562 -21.81064
v 23.42892 4.26562 -21.8105
v 23.42892 6.018875 -21.8105
v 20.57116 6.018875 -21.81064
v 20.57116 4.26562 -21.81064
v 20.57119 4.26562 -22.53417
v 20.57119 6.018875 -22.53417
v 23.42896 6.018875 -22.53403
v 23.42896 4.26562 -22.53403
f 535 537 538
f 535 538 536
f 543 539 540
f 543 540 544
f 545 541 542
f 545 542 546
f 547 548 549
f 547 549 550
f 551 552 553
f 551 553 554
f 555 556 557
f 555 557 558
v 23.42896 2.022817 -22.53403
v 23.42883 2.022817 -20.00485
v 23.42896 4.420119 -22.53403
v 23.42883 4.420119 -20.00485
v 20.57119 4.420119 -22.53417
v 20.57107 4.420119 -20.00499
v 20.57119 2.022817 -22.53417
v 20.57107 2.022817 -20.00499
v 23.42896 4.420119 -22.53403
v 23.42883 4.420119 -20.00485
v 20.57119 4.420119 -22.53417
v 20.57107 4.420119 -20.00499
v 20.57119 2.022817 -22.53417
v 23.42896 2.022817 -22.53403
v 23.42883 2.022817 -20.00485
v 20.57107 2.022817 -20.00499
v 23.42883 2.022817 -20.00485
v 23.42883 4.420119 -20.00485
v 20.57107 4.420119 -20.00499
v 20.57107 2.022817 -20.00499
v 20.57119 2.022817 -22.53417
v 20.57119 4.420119 -22.53417
v 23.42896 4.420119 -22.53403
v 23.42896 2.022817 -22.53403
f 559 561 562
f 559 562 560
f 567 563 564
f 567 564 568
f 569 565 566
f 569 566 570
f 571 572 573
f 571 573 574
f 575 576 577
f 575 577 578
f 579 580 581
f 579 581 582
v -11.57104 4.26562 -27.53403
v -11.57108 4.26562 -26.8105
v -11.57104 6.018875 -27.53403
v -11.57108 6.018875 -26.8105
v -14.42881 6.018875 -27.53417
v -14.42884 6.018875 -26.81064
v -14.42881 4.26562 -27.53417
v -14.42884 4.26562 -26.81064
v -11.57104 6.018875 -27.53403
v -11.57108 6.018875 -26.8105
v -14.42881 6.018875 -27.53417
v -14.42884 6.018875 -26.81064
v -14.42881 4.26562 -27.53417
v -11.57104 4.26562 -27.53403
v -11.57108 4.26562 -26.8105
v -14.42884 4.26562 -26.81064
v -11.57108 4.26562 -26.8105
v -11.57108 6.018875 -26.8105
v -14.42884 6.018875 -26.81064
v -14.42884 4.26562 -26.81064
v -14.42881 4.26562 -27.53417
v -14.42881 6.018875 -27.53417
v -11.57104 6.018875 -27.53403
v -11.57104 4.26562 -27.53403
f 583 585 586
f 583 586 584
f 591 587 588
f 591 588 592
f 593 589 590
f 593 590 594
f 595 596 597
f 595 597 598
f 599 600 601
f 599 601 602
f 603 604 605
f 603 605 606
v -11.57104 2.022817 -27.53403
v -11.57117 2.022817 -25.00485
v -11.57104 4.420119 -27.53403
v -11.57117 4.420119 -25.00485
v -14.42881 4.420119 -27.53417
v -14.42893 4.420119 -25.00499
v -14.42881 2.022817 -27.53417
v -14.42893 2.022817 -25.00499
v -11.57104 4.420119 -27.53403
v -11.57117 4.420119 -25.00485
v -14.42881 4.420119 -27.53417
v -14.42893 4.420119 -25.00499
v -14.42881 2.022817 -27.53417
v -11.57104 2.022817 -27.53403
v -11.57117 2.022817 -25.00485
v -14.42893 2.022817 -25.00499
v -11.57117 2.022817 -25.00485
v -11.57117 4.420119 -25.00485
v -14.42893 4.420119 -25.00499
v -14.42893 2.022817 -25.00499
v -14.42881 2.022817 -27.53417
v -14.42881 4.420119 -27.53417
v -11.57104 4.420119 -27.53403
v -11.57104 2.022817 -27.53403
f 607 609 610
f 607 610 608
f 615 611 612
f 615 612 616
f 617 613 614
f 617 614 618
f 619 620 621
f 619 621 622
f 623 624 625
f 623 625 626
f 627 628 629
f 627 629 630
v -16.57104 4.26562 -17.53403
v -16.57108 4.26562 -16.8105
v -16.57104 6.018875 -17.53403
v -16.57108 6.018875 -16.8105
v -19.42881 6.018875 -17.53417
v -19.42884 6.018875 -16.81064
v -19.42881 4.26562 -17.53417
v -19.42884 4.26562 -16.81064
v -16.57104 6.018875 -17.53403
v -16.57108 6.018875 -16.8105
v -19.42881 6.018875 -17.53417
v -19.42884 6.018875 -16.81064
v -19.42881 4.26562 -17.53417
v -16.57104 4.26562 -17.53403
v -16.57108 4.26562 -16.8105
v -19.42884 4.26562 -16.81064
v -16.57108 4.26562 -16.8105
v -16.57108 6.018875 -16.8105
v -19.42884 6.018875 -16.81064
v -19.42884 4.26562 -16.81064
v -19.42881 4.26562 -17.53417
v -19.42881 6.018875 -17.53417
v -16.57104 6.018875 -17.53403
v -16.57104 4.26562 -17.53403
f 631 633 634
f 631 634 632
f 639 635 636
f 639 636 640
f 641 637 638
f 641 638 642
f 643 644 645
f 643 645 646
f 647 648 649
f 647 649 650
f 651 652 653
f 651 653 654
v -16.57104 2.022817 -17.53403
v -16.57117 2.022817 -15.00485
v -16.57104 4.420119 -17.53403
v -16.57117 4.420119 -15.00485
v -19.42881 4.420119 -17.53417
v -19.42893 4.420119 -15.00499
v -19.42881 2.022817 -17.53417
v -19.42893 2.022817 -15.00499
v -16.57104 4.420119 -17.53403
v -16.57117 4.420119 -15.00485
v -19.42881 4.420119 -17.53417
v -19.42893 4.420119 -15.00499
v -19.42881 2.022817 -17.53417
v -16.57104 2.022817 -17.53403
v -16.57117 2.022817 -15.00485
v -19.42893 2.022817 -15.00499
v -16.57117 2.022817 -15.00485
v -16.57117 4.420119 -15.00485
v -19.42893 4.420119 -15.00499
v -19.42893 2.022817 -15.00499
v -19.42881 2.022817 -17.53417
v -19.42881 4.420119 -17.53417
v -16.57104 4.420119 -17.53403
v -16.57104 2.022817 -17.53403
f 655 657 658
f 655 658 656
f 663 659 660
f 663 660 664
f 665 661 662
f 665 662 666
f 667 668 669
f 667 669 670
f 671 672 673
f 671 673 674
f 675 676 677
f 675 677 678
v -11.57104 4.26562 -17.53403
v -11.57108 4.26562 -16.8105
v -11.57104 6.018875 -17.53403
v -11.57108 6.018875 -16.8105
v -14.42881 6.018875 -17.53417
v -14.42884 6.018875 -16.81064
v -14.42881 4.26562 -17.53417
v -14.42884 4.26562 -16.81064
v -11.57104 6.018875 -17.53403
v -11.57108 6.018875 -16.8105
v -14.42881 6.018875 -17.53417
v -14.42884 6.018875 -16.81064
v -14.42881 4.26562 -17.53417
v -11.57104 4.26562 -17.53403
v -11.57108 4.26562 -16.8105
v -14.42884 4.26562 -16.81064
v -11.57108 4.26562 -16.8105
v -11.57108 6.018875 -16.8105
v -14.42884 6.018875 -16.81064
v -14.42884 4.26562 -16.81064
v -14.42881 4.26562 -17.53417
v -14.42881 6.018875 -17.53417
v -11.57104 6.018875 -17.53403
v -11.57104 4.26562 -17.53403
f 679 681 682
f 679 682 680
f 687 683 684
f 687 684 688
f 689 685 686
f 689 686 690
f 691 692 693
f 691 693 694
f 695 696 697
f 695 697 698
f 699 700 701
f 699 701 702
v -11.57104 2.022817 -17.53403
v -11.57117 2.022817 -15.00485
v -11.57104 4.420119 -17.53403
v -11.57117 4.420119 -15.00485
v -14.42881 4.420119 -17.53417
v -14.42893 4.420119 -15.00499
v -14.42881 2.022817 -17.53417
v -14.42893 2.022817 -15.00499
v -11.57104 4.420119 -17.53403
v -11.57117 4.420119 -15.00485
v -14.42881 4.420119 -17.53417
v -14.42893 4.420119 -15.00499
v -14.42881 2.022817 -17.53417
v -11.57104 2.022817 -17.53403
v -11.57117 2.022817 -15.00485
v -14.42893 2.022817 -15.00499
v -11.57117 2.022817 -15.00485
v -11.57117 4.420119 -15.00485
v -14.42893 4.420119 -15.00499
v -14.42893 2.022817 -15.00499
v -14.42881 2.022817 -17.53417
v -14.42881 4.420119 -17.53417
v -11.57104 4.420119 -17.53403
v -11.57104 2.022817 -17.53403
f 703 705 706
f 703 706 704
f 711 707 708
f 711 708 712
f 713 709 710
f 713 710 714
f 715 716 717
f 715 717 718
f 719 720 721
f 719 721 722
f 723 724 725
f 723 725 726
v 18.42896 4.26562 -22.53403
v 18.42892 4.26562 -21.8105
v 18.42896 6.018875 -22.53403
v 18.42892 6.018875 -21.8105
v 15.57119 6.018875 -22.53417
v 15.57116 6.018875 -21.81064
v 15.57119 4.26562 -22.53417
v 15.57116 4.26562 -21.81064
v 18.42896 6.018875 -22.53403
v 18.42892 6.018875 -21.8105
v 15.57119 6.018875 -22.53417
v 15.57116 6.018875 -21.81064
v 15.57119 4.26562 -22.53417
v 18.42896 4.26562 -22.53403
v 18.42892 4.26562 -21.8105
v 15.57116 4.26562 -21.81064
v 18.42892 4.26562 -21.8105
v 18.42892 6.018875 -21.8105
v 15.57116 6.018875 -21.81064
v 15.57116 4.26562 -21.81064
v 15.57119 4.26562 -22.53417
v 15.57119 6.018875 -22.53417
v 18.42896 6.018875 -22.53403
v 18.42896 4.26562 -22.53403
f 727 729 730
f 727 730 728
f 735 731 732
f 735 732 736
f 737 733 734
f 737 734 738
f 739 740 741
f 739 741 742
f 743 744 745
f 743 745 746
f 747 748 749
f 747 749 750
v 18.42896 2.022817 -22.53403
v 18.42883 2.022817 -20.00485
v 18.42896 4.420119 -22.53403
v 18.42883 4.420119 -20.00485
v 15.57119 4.420119 -22.53417
v 15.57107 4.420119 -20.00499
v 15.57119 2.022817 -22.53417
v 15.57107 2.022817 -20.00499
v 18.42896 4.420119 -22.53403
v 18.42883 4.420119 -20.00485
v 15.57119 4.420119 -22.53417
v 15.57107 4.420119 -20.00499
v 15.57119 2.022817 -22.53417
v 18.42896 2.022817 -22.53403
v 18.42883 2.022817 -20.00485
v 15.57107 2.022817 -20.00499
v 18.42883 2.022817 -20.00485
v 18.42883 4.420119 -20.00485
v 15.57107 4.420119 -20.00499
v 15.57107 2.022817 -20.00499
v 15.57119 2.022817 -22.53417
v 15.57119 4.420119 -22.53417
v 18.42896 4.420119 -22.53403
v 18.42896 2.022817 -22.53403
f 751 753 754
f 751 754 752
f 759 755 756
f 759 756 760
f 761 757 758
f 761 758 762
f 763 764 765
f 763 765 766
f 767 768 769
f 767 769 770
f 771 772 773
f 771 773 774
v 18.42896 4.26562 -27.53403
v 18.42892 4.26562 -26.8105
v 18.42896 6.018875 -27.53403
v 18.42892 6.018875 -26.8105
v 15.57119 6.018875 -27.53417
v 15.57116 6.018875 -26.81064
v 15.57119 4.26562 -27.53417
v 15.57116 4.26562 -26.81064
v 18.42896 6.018875 -27.53403
v 18.42892 6.018875 -26.8105
v 15.57119 6.018875 -27.53417
v 15.57116 6.018875 -26.81064
v 15.57119 4.26562 -27.53417
v 18.42896 4.26562 -27.53403
v 18.42892 4.26562 -26.8105
v 15.57116 4.26562 -26.81064
v 18.42892 4.26562 -26.8105
v 18.42892 6.018875 -26.8105
v 15.57116 6.018875 -26.81064
v 15.57116 4.26562 -26.81064
v 15.57119 4.26562 -27.53417
v 15.57119 6.018875 -27.53417
v 18.42896 6.018875 -27.53403
v 18.42896 4.26562 -27.53403
f 775 777 778
f 775 778 776
f 783 779 780
f 783 780 784
f 785 781 782
f 785 782 786
f 787 788 789
f 787 789 790
f 791 792 793
f 791 793 794
f 795 796 797
f 795 797 798
v 18.42896 2.022817 -27.53403
v 18.42883 2.022817 -25.00485
v 18.42896 4.420119 -27.53403
v 18.42883 4.420119 -25.00485
v 15.57119 4.420119 -27.53417
v 15.57107 4.420119 -25.00499
v 15.57119 2.022817 -27.53417
v 15.57107 2.022817 -25.00499
v 18.42896 4.420119 -27.53403
v 18.42883 4.420119 -25.00485
v 15.57119 4.420119 -27.53417
v 15.57107 4.420119 -25.00499
v 15.57119 2.022817 -27.53417
v 18.42896 2.022817 -27.53403
v 18.42883 2.022817 -25.00485
v 15.57107 2.022817 -25.00499
v 18.42883 2.022817 -25.00485
v 18.42883 4.420119 -25.00485
v 15.57107 4.420119 -25.00499
v 15.57107 2.022817 -25.00499
v 15.57119 2.022817 -27.53417
v 15.57119 4.420119 -27.53417
v 18.42896 4.420119 -27.53403
v 18.42896 2.022817 -27.53403
f 799 801 802
f 799 802 800
f 807 803 804
f 807 804 808
f 809 805 806
f 809 806 810
f 811 812 813
f 811 813 814
f 815 816 817
f 815 817 818
f 819 820 821
f 819 821 822
v -1.571042 4.26562 -22.53403
v -1.571077 4.26562 -21.8105
v -1.571042 6.018875 -22.53403
v -1.571077 6.018875 -21.8105
v -4.428808 6.018875 -22.53417
v -4.428843 6.018875 -21.81064
v -4.428808 4.26562 -22.53417
v -4.428843 4.26562 -21.81064
v -1.571042 6.018875 -22.53403
v -1.571077 6.018875 -21.8105
v -4.428808 6.018875 -22.53417
v -4.428843 6.018875 -21.81064
v -4.428808 4.26562 -22.53417
v -1.571042 4.26562 -22.53403
v -1.571077 4.26562 -21.8105
v -4.428843 4.26562 -21.81064
v -1.571077 4.26562 -21.8105
v -1.571077 6.018875 -21.8105
v -4.428843 6.018875 -21.81064
v -4.428843 4.26562 -21.81064
v -4.428808 4.26562 -22.53417
v -4.428808 6.018875 -22.53417
v -1.571042 6.018875 -22.53403
v -1.571042 4.26562 -22.53403
f 823 825 826
f 823 826 824
f 831 827 828
f 831 828 832
f 833 829 830
f 833 830 834
f 835 836 837
f 835 837 838
f 839 840 841
f 839 841 842
f 843 844 845
f 843 845 846
v -1.571042 2.022817 -22.53403
v -1.571165 2.022817 -20.00485
v -1.571042 4.420119 -22.53403
v -1.571165 4.420119 -20.00485
v -4.428808 4.420119 -22.53417
v -4.428932 4.420119 -20.00499
v -4.428808 2.022817 -22.53417
v -4.428932 2.022817 -20.00499
v -1.571042 4.420119 -22.53403
v -1.571165 4.420119 -20.00485
v -4.428808 4.420119 -22.53417
v -4.428932 4.420119 -20.00499
v -4.428808 2.022817 -22.53417
v -1.571042 2.022817 -22.53403
v -1.571165 2.022817 -20.00485
v -4.428932 2.022817 -20.00499
v -1.571165 2.022817 -20.00485
v -1.571165 4.420119 -20.00485
v -4.428932 4.420119 -20.00499
v -4.428932 2.022817 -20.00499
v -4.428808 2.022817 -22.53417
v -4.428808 4.420119 -22.53417
v -1.571042 4.420119 -22.53403
v -1.571042 2.022817 -22.53403
f 847 849 850
f 847 850 848
f 855 851 852
f 855 852 856
f 857 853 854
f 857 854 858
f 859 860 861
f 859 861 862
f 863 864 865
f 863 865 866
f 867 868 869
f 867 869 870
v -21.57104 4.26562 -27.53403
v -21.57108 4.26562 -26.8105
v -21.57104 6.018875 -27.53403
v -21.57108 6.018875 -26.8105
v -24.42881 6.018875 -27.53417
v -24.42884 6.018875 -26.81064
v -24.42881 4.26562 -27.53417
v -24.42884 4.26562 -26.81064
v -21.57104 6.018875 -27.53403
v -21.57108 6.018875 -26.8105
v -24.42881 6.018875 -27.53417
v -24.42884 6.018875 -26.81064
v -24.42881 4.26562 -27.53417
v -21.57104 4.26562 -27.53403
v -21.57108 4.26562 -26.8105
v -24.42884 4.26562 -26.81064
v -21.57108 4.26562 -26.8105
v -21.57108 6.018875 -26.8105
v -24.42884 6.018875 -26.81064
v -24.42884 4.26562 -26.81064
v -24.42881 4.26562 -27.53417
v -24.42881 6.018875 -27.53417
v -21.57104 6.018875 -27.53403
v -21.57104 4.26562 -27.53403
f 871 873 874
f 871 874 872
f 879 875 876
f 879 876 880
f 881 877 878
f 881 878 882
f 883 884 885
f 883 885 886
f 887 888 889
f 887 889 890
f 891 892 893
f 891 893 894
v -21.57104 2.022817 -27.53403
v -21.57117 2.022817 -25.00485
v -21.57104 4.420119 -27.53403
v -21.57117 4.420119 -25.00485
v -24.42881 4.420119 -27.53417
v -24.42893 4.420119 -25.00499
v -24.42881 2.022817 -27.53417
v -24.42893 2.022817 -25.00499
v -21.57104 4.420119 -27.53403
v -21.57117 4.420119 -25.00485
v -24.42881 4.420119 -27.53417
v -24.42893 4.420119 -25.00499
v -24.42881 2.022817 -27.53417
v -21.57104 2.022817 -27.53403
v -21.57117 2.022817 -25.00485
v -24.42893 2.022817 -25.00499
v -21.57117 2.022817 -25.00485
v -21.57117 4.420119 -25.00485
v -24.42893 4.420119 -25.00499
v -24.42893 2.022817 -25.00499
v -24.42881 2.022817 -27.53417
v -24.42881 4.420119 -27.53417
v -21.57104 4.420119 -27.53403
v -21.57104 2.022817 -27.53403
f 895 897 898
f 895 898 896
f 903 899 900
f 903 900 904
f 905 901 902
f 905 902 906
f 907 908 909
f 907 909 910
f 911 912 913
f 911 913 914
f 915 916 917
f 915 917 918
v 23.42896 4.26562 -27.53403
v 23.42892 4.26562 -26.8105
v 23.42896 6.018875 -27.53403
v 23.42892 6.018875 -26.8105
v 20.57119 6.018875 -27.53417
v 20.57116 6.018875 -26.81064
v 20.57119 4.26562 -27.53417
v 20.57116 4.26562 -26.81064
v 23.42896 6.018875 -27.53403
v 23.42892 6.018875 -26.8105
v 20.57119 6.018875 -27.53417
v 20.57116 6.018875 -26.81064
v 20.57119 4.26562 -27.53417
v 23.42896 4.26562 -27.53403
v 23.42892 4.26562 -26.8105
v 20.57116 4.26562 -26.81064
v 23.42892 4.26562 -26.8105
v 23.42892 6.018875 -26.8105
v 20.57116 6.018875 -26.81064
v 20.57116 4.26562 -26.81064
v 20.57119 4.26562 -27.53417
v 20.57119 6.018875 -27.53417
v 23.42896 6.018875 -27.53403
v 23.42896 4.26562 -27.53403
f 919 921 922
f 919 922 920
f 927 923 924
f 927 924 928
f 929 925 926
f 929 926 930
f 931 932 933
f 931 933 934
f 935 936 937
f 935 937 938
f 939 940 941
f 939 941 942
v 23.42896 2.022817 -27.53403
v 23.42883 2.022817 -25.00485
v 23.42896 4.420119 -27.53403
v 23.42883 4.420119 -25.00485
v 20.57119 4.420119 -27.53417
v 20.57107 4.420119 -25.00499
v 20.57119 2.022817 -27.53417
v 20.57107 2.022817 -25.00499
v 23.42896 4.420119 -27.53403
v 23.42883 4.420119 -25.00485
v 20.57119 4.420119 -27.53417
v 20.57107 4.420119 -25.00499
v 20.57119 2.022817 -27.53417
v 23.42896 2.022817 -27.53403
v 23.42883 2.022817 -25.00485
v 20.57107 2.022817 -25.00499
v 23.42883 2.022817 -25.00485
v 23.42883 4.420119 -25.00485
v 20.57107 4.420119 -25.00499
v 20.57107 2.022817 -25.00499
v 20.57119 2.022817 -27.53417
v 20.57119 4.420119 -27.53417
v 23.42896 4.420119 -27.53403
v 23.42896 2.022817 -27.53403
f 943 945 946
f 943 946 944
f 951 947 948
f 951 948 952
f 953 949 950
f 953 950 954
f 955 956 957
f 955 957 958
f 959 960 961
f 959 961 962
f 963 964 965
f 963 965 966
v -16.57104 4.26562 -22.53403
v -16.57108 4.26562 -21.8105
v -16.57104 6.018875 -22.53403
v -16.57108 6.018875 -21.8105
v -19.42881 6.018875 -22.53417
v -19.42884 6.018875 -21.81064
v -19.42881 4.26562 -22.53417
v -19.42884 4.26562 -21.81064
v -16.57104 6.018875 -22.53403
v -16.57108 6.018875 -21.8105
v -19.42881 6.018875 -22.53417
v -19.42884 6.018875 -21.81064
v -19.42881 4.26562 -22.53417
v -16.57104 4.26562 -22.53403
v -16.57108 4.26562 -21.8105
v -19.42884 4.26562 -21.81064
v -16.57108 4.26562 -21.8105
v -16.57108 6.018875 -21.8105
v -19.42884 6.018875 -21.81064
v -19.42884 4.26562 -21.81064
v -19.42881 4.26562 -22.53417
v -19.42881 6.018875 -22.53417
v -16.57104 6.018875 -22.53403
v -16.57104 4.26562 -22.53403
f 967 969 970
f 967 970 968
f 975 971 972
f 975 972 976
f 977 973 974
f 977 974 978
f 979 980 981
f 979 981 982
f 983 984 985
f 983 985 986
f 987 988 989
f 987 989 990
v -16.57104 2.022817 -22.53403
v -16.57117 2.022817 -20.00485
v -16.57104 4.420119 -22.53403
v -16.57117 4.420119 -20.00485
v -19.42881 4.420119 -22.53417
v -19.42893 4.420119 -20.00499
v -19.42881 2.022817 -22.53417
v -19.42893 2.022817 -20.00499
v -16.57104 4.420119 -22.53403
v -16.57117 4.420119 -20.00485
v -19.42881 4.420119 -22.53417
v -19.42893 4.420119 -20.00499
v -19.42881 2.022817 -22.53417
v -16.57104 2.022817 -22.53403
v -16.57117 2.022817 -20.00485
v -19.42893 2.022817 -20.00499
v -16.57117 2.022817 -20.00485
v -16.57117 4.420119 -20.00485
v -19.42893 4.420119 -20.00499
v -19.42893 2.022817 -20.00499
v -19.42881 2.022817 -22.53417
v -19.42881 4.420119 -22.53417
v -16.57104 4.420119 -22.53403
v -16.57104 2.022817 -22.53403
f 991 993 994
f 991 994 992
f 999 995 996
f 999 996 1000
f 1001 997 998
f 1001 998 1002
f 1003 1004 1005
f 1003 1005 1006
f 1007 1008 1009
f 1007 1009 1010
f 1011 1012 1013
f 1011 1013 1014
v 8.428958 4.26562 -17.53403
v 8.428923 4.26562 -16.8105
v 8.428958 6.018875 -17.53403
v 8.428923 6.018875 -16.8105
v 5.571192 6.018875 -17.53417
v 5.571157 6.018875 -16.81064
v 5.571192 4.26562 -17.53417
v 5.571157 4.26562 -16.81064
v 8.428958 6.018875 -17.53403
v 8.428923 6.018875 -16.8105
v 5.571192 6.018875 -17.53417
v 5.571157 6.018875 -16.81064
v 5.571192 4.26562 -17.53417
v 8.428958 4.26562 -17.53403
v 8.428923 4.26562 -16.8105
v 5.571157 4.26562 -16.81064
v 8.428923 4.26562 -16.8105
v 8.428923 6.018875 -16.8105
v 5.571157 6.018875 -16.81064
v 5.571157 4.26562 -16.81064
v 5.571192 4.26562 -17.53417
v 5.571192 6.018875 -17.53417
v 8.428958 6.018875 -17.53403
v 8.428958 4.26562 -17.53403
f 1015 1017 1018
f 1015 1018 1016
f 1023 1019 1020
f 1023 1020 1024
f 1025 1021 1022
f 1025 1022 1026
f 1027 1028 1029
f 1027 1029 1030
f 1031 1032 1033
f 1031 1033 1034
f 1035 1036 1037
f 1035 1037 1038
v 8.428958 2.022817 -17.53403
v 8.428835 2.022817 -15.00485
v 8.428958 4.420119 -17.53403
v 8.428835 4.420119 -15.00485
v 5.571192 4.420119 -17.53417
v 5.571068 4.420119 -15.00499
v 5.571192 2.022817 -17.53417
v 5.571068 2.022817 -15.00499
v 8.428958 4.420119 -17.53403
v 8.428835 4.420119 -15.00485
v 5.571192 4.420119 -17.53417
v 5.571068 4.420119 -15.00499
v 5.571192 2.022817 -17.53417
v 8.428958 2.022817 -17.53403
v 8.428835 2.022817 -15.00485
v 5.571068 2.022817 -15.00499
v 8.428835 2.022817 -15.00485
v 8.428835 4.420119 -15.00485
v 5.571068 4.420119 -15.00499
v 5.571068 2.022817 -15.00499
v 5.571192 2.022817 -17.53417
v 5.571192 4.420119 -17.53417
v 8.428958 4.420119 -17.53403
v 8.428958 2.022817 -17.53403
f 1039 1041 1042
f 1039 1042 1040
f 1047 1043 1044
f 1047 1044 1048
f 1049 1045 1046
f 1049 1046 1050
f 1051 1052 1053
f 1051 1053 1054
f 1055 1056 1057
f 1055 1057 1058
f 1059 1060 1061
f 1059 1061 1062
v 8.428958 4.26562 -27.53403
v 8.428923 4.26562 -26.8105
v 8.428958 6.018875 -27.53403
v 8.428923 6.018875 -26.8105
v 5.571192 6.018875 -27.53417
v 5.571157 6.018875 -26.81064
v 5.571192 4.26562 -27.53417
v 5.571157 4.26562 -26.81064
v 8.428958 6.018875 -27.53403
v 8.428923 6.018875 -26.8105
v 5.571192 6.018875 -27.53417
v 5.571157 6.018875 -26.81064
v 5.571192 4.26562 -27.53417
v 8.428958 4.26562 -27.53403
v 8.428923 4.26562 -26.8105
v 5.571157 4.26562 -26.81064
v 8.428923 4.26562 -26.8105
v 8.428923 6.018875 -26.8105
v 5.571157 6.018875 -26.81064
v 5.571157 4.26562 -26.81064
v 5.571192 4.26562 -27.53417
v 5.571192 6.018875 -27.53417
v 8.428958 6.018875 -27.53403
v 8.428958 4.26562 -27.53403
f 1063 1065 1066
f 1063 1066 1064
f 1071 1067 1068
f 1071 1068 1072
f 1073 1069 1070
f 1073 1070 1074
f 1075 1076 1077
f 1075 1077 1078
f 1079 1080 1081
f 1079 1081 1082
f 1083 1084 1085
f 1083 1085 1086
v 8.428958 2.022817 -27.53403
v 8.428835 2.022817 -25.00485
v 8.428958 4.420119 -27.53403
v 8.428835 4.420119 -25.00485
v 5.571192 4.420119 -27.53417
v 5.571068 4.420119 -25.00499
v 5.571192 2.022817 -27.53417
v 5.571068 2.022817 -25.00499
v 8.428958 4.420119 -27.53403
v 8.428835 4.420119 -25.00485
v 5.571192 4.420119 -27.53417
v 5.571068 4.420119 -25.00499
v 5.571192 2.022817 -27.53417
v 8.428958 2.022817 -27.53403
v 8.428835 2.022817 -25.00485
v 5.571068 2.022817 -25.00499
v 8.428835 2.022817 -25.00485
v 8.428835 4.420119 -25.00485
v 5.571068 4.420119 -25.00499
v 5.571068 2.022817 -25.00499
v 5.571192 2.022817 -27.53417
v 5.571192 4.420119 -27.53417
v 8.428958 4.420119 -27.53403
v 8.428958 2.022817 -27.53403
f 1087 1089 1090
f 1087 1090 1088
f 1095 1091 1092
f 1095 1092 1096
f 1097 1093 1094
f 1097 1094 1098
f 1099 1100 1101
f 1099 1101 1102
f 1103 1104 1105
f 1103 1105 1106
f 1107 1108 1109
f 1107 1109 1110
v -21.57104 4.26562 -22.53403
v -21.57108 4.26562 -21.8105
v -21.57104 6.018875 -22.53403
v -21.57108 6.018875 -21.8105
v -24.42881 6.018875 -22.53417
v -24.42884 6.018875 -21.81064
v -24.42881 4.26562 -22.53417
v -24.42884 4.26562 -21.81064
v -21.57104 6.018875 -22.53403
v -21.57108 6.018875 -21.8105
v -24.42881 6.018875 -22.53417
v -24.42884 6.018875 -21.81064
v -24.42881 4.26562 -22.53417
v -21.57104 4.26562 -22.53403
v -21.57108 4.26562 -21.8105
v -24.42884 4.26562 -21.81064
v -21.57108 4.26562 -21.8105
v -21.57108 6.018875 -21.8105
v -24.42884 6.018875 -21.81064
v -24.42884 4.26562 -21.81064
v -24.42881 4.26562 -22.53417
v -24.42881 6.018875 -22.53417
v -21.57104 6.018875 -22.53403
v -21.57104 4.26562 -22.53403
f 1111 1113 1114
f 1111 1114 1112
f 1119 1115 1116
f 1119 1116 1120
f 1121 1117 1118
f 1121 1118 1122
f 1123 1124 1125
f 1123 1125 1126
f 1127 1128 1129
f 1127 1129 1130
f 1131 1132 1133
f 1131 1133 1134
v -21.57104 2.022817 -22.53403
v -21.57117 2.022817 -20.00485
v -21.57104 4.420119 -22.53403
v -21.57117 4.420119 -20.00485
v -24.42881 4.420119 -22.53417
v -24.42893 4.420119 -20.00499
v -24.42881 2.022817 -22.53417
v -24.42893 2.022817 -20.00499
v -21.57104 4.420119 -22.53403
v -21.57117 4.420119 -20.00485
v -24.42881 4.420119 -22.53417
v -24.42893 4.420119 -20.00499
v -24.42881 2.022817 -22.53417
v -21.57104 2.022817 -22.53403
v -21.57117 2.022817 -20.00485
v -24.42893 2.022817 -20.00499
v -21.57117 2.022817 -20.00485
v -21.57117 4.420119 -20.00485
v -24.42893 4.420119 -20.00499
v -24.42893 2.022817 -20.00499
v -24.42881 2.022817 -22.53417
v -24.42881 4.420119 -22.53417
v -21.57104 4.420119 -22.53403
v -21.57104 2.022817 -22.53403
f 1135 1137 1138
f 1135 1138 1136
f 1143 1139 1140
f 1143 1140 1144
f 1145 1141 1142
f 1145 1142 1146
f 1147 1148 1149
f 1147 1149 1150
f 1151 1152 1153
f 1151 1153 1154
f 1155 1156 1157
f 1155 1157 1158
v 3.428958 4.26562 -22.53403
v 3.428923 4.26562 -21.8105
v 3.428958 6.018875 -22.53403
v 3.428923 6.018875 -21.8105
v 0.5711917 6.018875 -22.53417
v 0.5711564 6.018875 -21.81064
v 0.5711917 4.26562 -22.53417
v 0.5711564 4.26562 -21.81064
v 3.428958 6.018875 -22.53403
v 3.428923 6.018875 -21.8105
v 0.5711917 6.018875 -22.53417
v 0.5711564 6.018875 -21.81064
v 0.5711917 4.26562 -22.53417
v 3.428958 4.26562 -22.53403
v 3.428923 4.26562 -21.8105
v 0.5711564 4.26562 -21.81064
v 3.428923 4.26562 -21.8105
v 3.428923 6.018875 -21.8105
v 0.5711564 6.018875 -21.81064
v 0.5711564 4.26562 -21.81064
v 0.5711917 4.26562 -22.53417
v 0.5711917 6.018875 -22.53417
v 3.428958 6.018875 -22.53403
v 3.428958 4.26562 -22.53403
f 1159 1161 1162
f 1159 1162 1160
f 1167 1163 1164
f 1167 1164 1168
f 1169 1165 1166
f 1169 1166 1170
f 1171 1172 1173
f 1171 1173 1174
f 1175 1176 1177
f 1175 1177 1178
f 1179 1180 1181
f 1179 1181 1182
v 3.428958 2.022817 -22.53403
v 3.428835 2.022817 -20.00485
v 3.428958 4.420119 -22.53403
v 3.428835 4.420119 -20.00485
v 0.5711917 4.420119 -22.53417
v 0.5710683 4.420119 -20.00499
v 0.5711917 2.022817 -22.53417
v 0.5710683 2.022817 -20.00499
v 3.428958 4.420119 -22.53403
v 3.428835 4.420119 -20.00485
v 0.5711917 4.420119 -22.53417
v 0.5710683 4.420119 -20.00499
v 0.5711917 2.022817 -22.53417
v 3.428958 2.022817 -22.53403
v 3.428835 2.022817 -20.00485
v 0.5710683 2.022817 -20.00499
v 3.428835 2.022817 -20.00485
v 3.428835 4.420119 -20.00485
v 0.5710683 4.420119 -20.00499
v 0.5710683 2.022817 -20.00499
v 0.5711917 2.022817 -22.53417
v 0.5711917 4.420119 -22.53417
v 3.428958 4.420119 -22.53403
v 3.428958 2.022817 -22.53403
f 1183 1185 1186
f 1183 1186 1184
f 1191 1187 1188
f 1191 1188 1192
f 1193 1189 1190
f 1193 1190 1194
f 1195 1196 1197
f 1195 1197 1198
f 1199 1200 1201
f 1199 1201 1202
f 1203 1204 1205
f 1203 1205 1206
v 13.42896 4.26562 -17.53403
v 13.42892 4.26562 -16.8105
v 13.42896 6.018875 -17.53403
v 13.42892 6.018875 -16.8105
v 10.57119 6.018875 -17.53417
v 10.57116 6.018875 -16.81064
v 10.57119 4.26562 -17.53417
v 10.57116 4.26562 -16.81064
v 13.42896 6.018875 -17.53403
v 13.42892 6.018875 -16.8105
v 10.57119 6.018875 -17.53417
v 10.57116 6.018875 -16.81064
v 10.57119 4.26562 -17.53417
v 13.42896 4.26562 -17.53403
v 13.42892 4.26562 -16.8105
v 10.57116 4.26562 -16.81064
v 13.42892 4.26562 -16.8105
v 13.42892 6.018875 -16.8105
v 10.57116 6.018875 -16.81064
v 10.57116 4.26562 -16.81064
v 10.57119 4.26562 -17.53417
v 10.57119 6.018875 -17.53417
v 13.42896 6.018875 -17.53403
v 13.42896 4.26562 -17.53403
f 1207 1209 1210
f 1207 1210 1208
f 1215 1211 1212
f 1215 1212 1216
f 1217 1213 1214
f 1217 1214 1218
f 1219 1220 1221
f 1219 1221 1222
f 1223 1224 1225
f 1223 1225 1226
f 1227 1228 1229
f 1227 1229 1230
v 13.42896 2.022817 -17.53403
v 13.42883 2.022817 -15.00485
v 13.42896 4.420119 -17.53403
v 13.42883 4.420119 -15.00485
v 10.57119 4.420119 -17.53417
v 10.57107 4.420119 -15.00499
v 10.57119 2.022817 -17.53417
v 10.57107 2.022817 -15.00499
v 13.42896 4.420119 -17.53403
v 13.42883 4.420119 -15.00485
v 10.57119 4.420119 -17.53417
v 10.57107 4.420119 -15.00499
v 10.57119 2.022817 -17.53417
v 13.42896 2.022817 -17.53403
v 13.42883 2.022817 -15.00485
v 10.57107 2.022817 -15.00499
v 13.42883 2.022817 -15.00485
v 13.42883 4.420119 -15.00485
v 10.57107 4.420119 -15.00499
v 10.57107 2.022817 -15.00499
v 10.57119 2.022817 -17.53417
v 10.57119 4.420119 -17.53417
v 13.42896 4.420119 -17.53403
v 13.42896 2.022817 -17.53403
f 1231 1233 1234
f 1231 1234 1232
f 1239 1235 1236
f 1239 1236 1240
f 1241 1237 1238
f 1241 1238 1242
f 1243 1244 1245
f 1243 1245 1246
f 1247 1248 1249
f 1247 1249 1250
f 1251 1252 1253
f 1251 1253 1254
v 23.42896 4.26562 -17.53403
v 23.42892 4.26562 -16.8105
v 23.42896 6.018875 -17.53403
v 23.42892 6.018875 -16.8105
v 20.57119 6.018875 -17.53417
v 20.57116 6.018875 -16.81064
v 20.57119 4.26562 -17.53417
v 20.57116 4.26562 -16.81064
v 23.42896 6.018875 -17.53403
v 23.42892 6.018875 -16.8105
v 20.57119 6.018875 -17.53417
v 20.57116 6.018875 -16.81064
v 20.57119 4.26562 -17.53417
v 23.42896 4.26562 -17.53403
v 23.42892 4.26562 -16.8105
v 20.57116 4.26562 -16.81064
v 23.42892 4.26562 -16.8105
v 23.42892 6.018875 -16.8105
v 20.57116 6.018875 -16.81064
v 20.57116 4.26562 -16.81064
v 20.57119 4.26562 -17.53417
v 20.57119 6.018875 -17.53417
v 23.42896 6.018875 -17.53403
v 23.42896 4.26562 -17.53403
f 1255 1257 1258
f 1255 1258 1256
f 1263 1259 1260
f 1263 1260 1264
f 1265 1261 1262
f 1265 1262 1266
f 1267 1268 1269
f 1267 1269 1270
f 1271 1272 1273
f 1271 1273 1274
f 1275 1276 1277
f 1275 1277 1278
v 23.42896 2.022817 -17.53403
v 23.42883 2.022817 -15.00485
v 23.42896 4.420119 -17.53403
v 23.42883 4.420119 -15.00485
v 20.57119 4.420119 -17.53417
v 20.57107 4.420119 -15.00499
v 20.57119 2.022817 -17.53417
v 20.57107 2.022817 -15.00499
v 23.42896 4.420119 -17.53403
v 23.42883 4.420119 -15.00485
v 20.57119 4.420119 -17.53417
v 20.57107 4.420119 -15.00499
v 20.57119 2.022817 -17.53417
v 23.42896 2.022817 -17.53403
v 23.42883 2.022817 -15.00485
v 20.57107 2.022817 -15.00499
v 23.42883 2.022817 -15.00485
v 23.42883 4.420119 -15.00485
v 20.57107 4.420119 -15.00499
v 20.57107 2.022817 -15.00499
v 20.57119 2.022817 -17.53417
v 20.57119 4.420119 -17.53417
v 23.42896 4.420119 -17.53403
v 23.42896 2.022817 -17.53403
f 1279 1281 1282
f 1279 1282 1280
f 1287 1283 1284
f 1287 1284 1288
f 1289 1285 1286
f 1289 1286 1290
f 1291 1292 1293
f 1291 1293 1294
f 1295 1296 1297
f 1295 1297 1298
f 1299 1300 1301
f 1299 1301 1302
v -21.57104 4.26562 -12.53403
v -21.57108 4.26562 -11.8105
v -21.57104 6.018875 -12.53403
v -21.57108 6.018875 -11.8105
v -24.42881 6.018875 -12.53417
v -24.42884 6.018875 -11.81064
v -24.42881 4.26562 -12.53417
v -24.42884 4.26562 -11.81064
v -21.57104 6.018875 -12.53403
v -21.57108 6.018875 -11.8105
v -24.42881 6.018875 -12.53417
v -24.42884 6.018875 -11.81064
v -24.42881 4.26562 -12.53417
v -21.57104 4.26562 -12.53403
v -21.57108 4.26562 -11.8105
v -24.42884 4.26562 -11.81064
v -21.57108 4.26562 -11.8105
v -21.57108 6.018875 -11.8105
v -24.42884 6.018875 -11.81064
v -24.42884 4.26562 -11.81064
v -24.42881 4.26562 -12.53417
v -24.42881 6.018875 -12.53417
v -21.57104 6.018875 -12.53403
v -21.57104 4.26562 -12.53403
f 1303 1305 1306
f 1303 1306 1304
f 1311 1307 1308
f 1311 1308 1312
f 1313 1309 1310
f 1313 1310 1314
f 1315 1316 1317
f 1315 1317 1318
f 1319 1320 1321
f 1319 1321 1322
f 1323 1324 1325
f 1323 1325 1326
v -21.57104 2.022817 -12.53403
v -21.57117 2.022817 -10.00485
v -21.57104 4.420119 -12.53403
v -21.57117 4.420119 -10.00485
v -24.42881 4.420119 -12.53417
v -24.42893 4.420119 -10.00499
v -24.42881 2.022817 -12.53417
v -24.42893 2.022817 -10.00499
v -21.57104 4.420119 -12.53403
v -21.57117 4.420119 -10.00485
v -24.42881 4.420119 -12.53417
v -24.42893 4.420119 -10.00499
v -24.42881 2.022817 -12.53417
v -21.57104 2.022817 -12.53403
v -21.57117 2.022817 -10.00485
v -24.42893 2.022817 -10.00499
v -21.57117 2.022817 -10.00485
v -21.57117 4.420119 -10.00485
v -24.42893 4.420119 -10.00499
v -24.42893 2.022817 -10.00499
v -24.42881 2.022817 -12.53417
v -24.42881 4.420119 -12.53417
v -21.57104 4.420119 -12.53403
v -21.57104 2.022817 -12.53403
f 1327 1329 1330
f 1327 1330 1328
f 1335 1331 1332
f 1335 1332 1336
f 1337 1333 1334
f 1337 1334 1338
f 1339 1340 1341
f 1339 1341 1342
f 1343 1344 1345
f 1343 1345 1346
f 1347 1348 1349
f 1347 1349 1350
v 13.42896 4.26562 -22.53403
v 13.42892 4.26562 -21.8105
v 13.42896 6.018875 -22.53403
v 13.42892 6.018875 -21.8105
v 10.57119 6.018875 -22.53417
v 10.57116 6.018875 -21.81064
v 10.57119 4.26562 -22.53417
v 10.57116 4.26562 -21.81064
v 13.42896 6.018875 -22.53403
v 13.42892 6.018875 -21.8105
v 10.57119 6.018875 -22.53417
v 10.57116 6.018875 -21.81064
v 10.57119 4.26562 -22.53417
v 13.42896 4.26562 -22.53403
v 13.42892 4.26562 -21.8105
v 10.57116 4.26562 -21.81064
v 13.42892 4.26562 -21.8105
v 13.42892 6.018875 -21.8105
v 10.57116 6.018875 -21.81064
v 10.57116 4.26562 -21.81064
v 10.57119 4.26562 -22.53417
v 10.57119 6.018875 -22.53417
v 13.42896 6.018875 -22.53403
v 13.42896 4.26562 -22.53403
f 1351 1353 1354
f 1351 1354 1352
f 1359 1355 1356
f 1359 1356 1360
f 1361 1357 1358
f 1361 1358 1362
f 1363 1364 1365
f 1363 1365 1366
f 1367 1368 1369
f 1367 1369 1370
f 1371 1372 1373
f 1371 1373 1374
v 13.42896 2.022817 -22.53403
v 13.42883 2.022817 -20.00485
v 13.42896 4.420119 -22.53403
v 13.42883 4.420119 -20.00485
v 10.57119 4.420119 -22.53417
v 10.57107 4.420119 -20.00499
v 10.57119 2.022817 -22.53417
v 10.57107 2.022817 -20.00499
v 13.42896 4.420119 -22.53403
v 13.42883 4.420119 -20.00485
v 10.57119 4.420119 -22.53417
v 10.57107 4.420119 -20.00499
v 10.57119 2.022817 -22.53417
v 13.42896 2.022817 -22.53403
v 13.42883 2.022817 -20.00485
v 10.57107 2.022817 -20.00499
v 13.42883 2.022817 -20.00485
v 13.42883 4.420119 -20.00485
v 10.57107 4.420119 -20.00499
v 10.57107 2.022817 -20.00499
v 10.57119 2.022817 -22.53417
v 10.57119 4.420119 -22.53417
v 13.42896 4.420119 -22.53403
v 13.42896 2.022817 -22.53403
f 1375 1377 1378
f 1375 1378 1376
f 1383 1379 1380
f 1383 1380 1384
f 1385 1381 1382
f 1385 1382 1386
f 1387 1388 1389
f 1387 1389 1390
f 1391 1392 1393
f 1391 1393 1394
f 1395 1396 1397
f 1395 1397 1398
v -11.57104 4.26562 -22.53403
v -11.57108 4.26562 -21.8105
v -11.57104 6.018875 -22.53403
v -11.57108 6.018875 -21.8105
v -14.42881 6.018875 -22.53417
v -14.42884 6.018875 -21.81064
v -14.42881 4.26562 -22.53417
v -14.42884 4.26562 -21.81064
v -11.57104 6.018875 -22.53403
v -11.57108 6.018875 -21.8105
v -14.42881 6.018875 -22.53417
v -14.42884 6.018875 -21.81064
v -14.42881 4.26562 -22.53417
v -11.57104 4.26562 -22.53403
v -11.57108 4.26562 -21.8105
v -14.42884 4.26562 -21.81064
v -11.57108 4.26562 -21.8105
v -11.57108 6.018875 -21.8105
v -14.42884 6.018875 -21.81064
v -14.42884 4.26562 -21.81064
v -14.42881 4.26562 -22.53417
v -14.42881 6.018875 -22.53417
v -11.57104 6.018875 -22.53403
v -11.57104 4.26562 -22.53403
f 1399 1401 1402
f 1399 1402 1400
f 1407 1403 1404
f 1407 1404 1408
f 1409 1405 1406
f 1409 1406 1410
f 1411 1412 1413
f 1411 1413 1414
f 1415 1416 1417
f 1415 1417 1418
f 1419 1420 1421
f 1419 1421 1422
v -11.57104 2.022817 -22.53403
v -11.57117 2.022817 -20.00485
v -11.57104 4.420119 -22.53403
v -11.57117 4.420119 -20.00485
v -14.42881 4.420119 -22.53417
v -14.42893 4.420119 -20.00499
v -14.42881 2.022817 -22.53417
v -14.42893 2.022817 -20.00499
v -11.57104 4.420119 -22.53403
v -11.57117 4.420119 -20.00485
v -14.42881 4.420119 -22.53417
v -14.42893 4.420119 -20.00499
v -14.42881 2.022817 -22.53417
v -11.57104 2.022817 -22.53403
v -11.57117 2.022817 -20.00485
v -14.42893 2.022817 -20.00499
v -11.57117 2.022817 -20.00485
v -11.57117 4.420119 -20.00485
v -14.42893 4.420119 -20.00499
v -14.42893 2.022817 -20.00499
v -14.42881 2.022817 -22.53417
v -14.42881 4.420119 -22.53417
v -11.57104 4.420119 -22.53403
v -11.57104 2.022817 -22.53403
f 1423 1425 1426
f 1423 1426 1424
f 1431 1427 1428
f 1431 1428 1432
f 1433 1429 1430
f 1433 1430 1434
f 1435 1436 1437
f 1435 1437 1438
f 1439 1440 1441
f 1439 1441 1442
f 1443 1444 1445
f 1443 1445 1446
v 13.42896 4.26562 -12.53403
v 13.42892 4.26562 -11.8105
v 13.42896 6.018875 -12.53403
v 13.42892 6.018875 -11.8105
v 10.57119 6.018875 -12.53417
v 10.57116 6.018875 -11.81064
v 10.57119 4.26562 -12.53417
v 10.57116 4.26562 -11.81064
v 13.42896 6.018875 -12.53403
v 13.42892 6.018875 -11.8105
v 10.57119 6.018875 -12.53417
v 10.57116 6.018875 -11.81064
v 10.57119 4.26562 -12.53417
v 13.42896 4.26562 -12.53403
v 13.42892 4.26562 -11.8105
v 10.57116 4.26562 -11.81064
v 13.42892 4.26562 -11.8105
v 13.42892 6.018875 -11.8105
v 10.57116 6.018875 -11.81064
v 10.57116 4.26562 -11.81064
v 10.57119 4.26562 -12.53417
v 10.57119 6.018875 -12.53417
v 13.42896 6.018875 -12.53403
v 13.42896 4.26562 -12.53403
f 1447 1449 1450
f 1447 1450 1448
f 1455 1451 1452
f 1455 1452 1456
f 1457 1453 1454
f 1457 1454 1458
f 1459 1460 1461
f 1459 1461 1462
f 1463 1464 1465
f 1463 1465 1466
f 1467 1468 1469
f 1467 1469 1470
v 13.42896 2.022817 -12.53403
v 13.42883 2.022817 -10.00485
v 13.42896 4.420119 -12.53403
v 13.42883 4.420119 -10.00485
v 10.57119 4.420119 -12.53417
v 10.57107 4.420119 -10.00499
v 10.57119 2.022817 -12.53417
v 10.57107 2.022817 -10.00499
v 13.42896 4.420119 -12.53403
v 13.42883 4.420119 -10.00485
v 10.57119 4.420119 -12.53417
v 10.57107 4.420119 -10.00499
v 10.57119 2.022817 -12.53417
v 13.42896 2.022817 -12.53403
v 13.42883 2.022817 -10.00485
v 10.57107 2.022817 -10.00499
v 13.42883 2.022817 -10.00485
v 13.42883 4.420119 -10.00485
v 10.57107 4.420119 -10.00499
v 10.57107 2.022817 -10.00499
v 10.57119 2.022817 -12.53417
v 10.57119 4.420119 -12.53417
v 13.42896 4.420119 -12.53403
v 13.42896 2.022817 -12.53403
f 1471 1473 1474
f 1471 1474 1472
f 1479 1475 1476
f 1479 1476 1480
f 1481 1477 1478
f 1481 1478 1482
f 1483 1484 1485
f 1483 1485 1486
f 1487 1488 1489
f 1487 1489 1490
f 1491 1492 1493
f 1491 1493 1494
v 18.42896 4.26562 -12.53403
v 18.42892 4.26562 -11.8105
v 18.42896 6.018875 -12.53403
v 18.42892 6.018875 -11.8105
v 15.57119 6.018875 -12.53417
v 15.57116 6.018875 -11.81064
v 15.57119 4.26562 -12.53417
v 15.57116 4.26562 -11.81064
v 18.42896 6.018875 -12.53403
v 18.42892 6.018875 -11.8105
v 15.57119 6.018875 -12.53417
v 15.57116 6.018875 -11.81064
v 15.57119 4.26562 -12.53417
v 18.42896 4.26562 -12.53403
v 18.42892 4.26562 -11.8105
v 15.57116 4.26562 -11.81064
v 18.42892 4.26562 -11.8105
v 18.42892 6.018875 -11.8105
v 15.57116 6.018875 -11.81064
v 15.57116 4.26562 -11.81064
v 15.57119 4.26562 -12.53417
v 15.57119 6.018875 -12.53417
v 18.42896 6.018875 -12.53403
v 18.42896 4.26562 -12.53403
f 1495 1497 1498
f 1495 1498 1496
f 1503 1499 1500
f 1503 1500 1504
f 1505 1501 1502
f 1505 1502 1506
f 1507 1508 1509
f 1507 1509 1510
f 1511 1512 1513
f 1511 1513 1514
f 1515 1516 1517
f 1515 1517 1518
v 18.42896 2.022817 -12.53403
v 18.42883 2.022817 -10.00485
v 18.42896 4.420119 -12.53403
v 18.42883 4.420119 -10.00485
v 15.57119 4.420119 -12.53417
v 15.57107 4.420119 -10.00499
v 15.57119 2.022817 -12.53417
v 15.57107 2.022817 -10.00499
v 18.42896 4.420119 -12.53403
v 18.42883 4.420119 -10.00485
v 15.57119 4.420119 -12.53417
v 15.57107 4.420119 -10.00499
v 15.57119 2.022817 -12.53417
v 18.42896 2.022817 -12.53403
v 18.42883 2.022817 -10.00485
v 15.57107 2.022817 -10.00499
v 18.42883 2.022817 -10.00485
v 18.42883 4.420119 -10.00485
v 15.57107 4.420119 -10.00499
v 15.57107 2.022817 -10.00499
v 15.57119 2.022817 -12.53417
v 15.57119 4.420119 -12.53417
v 18.42896 4.420119 -12.53403
v 18.42896 2.022817 -12.53403
f 1519 1521 1522
f 1519 1522 1520
f 1527 1523 1524
f 1527 1524 1528
f 1529 1525 1526
f 1529 1526 1530
f 1531 1532 1533
f 1531 1533 1534
f 1535 1536 1537
f 1535 1537 1538
f 1539 1540 1541
f 1539 1541 1542
v 8.428958 4.26562 -12.53403
v 8.428923 4.26562 -11.8105
v 8.428958 6.018875 -12.53403
v 8.428923 6.018875 -11.8105
v 5.571192 6.018875 -12.53417
v 5.571157 6.018875 -11.81064
v 5.571192 4.26562 -12.53417
v 5.571157 4.26562 -11.81064
v 8.428958 6.018875 -12.53403
v 8.428923 6.018875 -11.8105
v 5.571192 6.018875 -12.53417
v 5.571157 6.018875 -11.81064
v 5.571192 4.26562 -12.53417
v 8.428958 4.26562 -12.53403
v 8.428923 4.26562 -11.8105
v 5.571157 4.26562 -11.81064
v 8.428923 4.26562 -11.8105
v 8.428923 6.018875 -11.8105
v 5.571157 6.018875 -11.81064
v 5.571157 4.26562 -11.81064
v 5.571192 4.26562 -12.53417
v 5.571192 6.018875 -12.53417
v 8.428958 6.018875 -12.53403
v 8.428958 4.26562 -12.53403
f 1543 1545 1546
f 1543 1546 1544
f 1551 1547 1548
f 1551 1548 1552
f 1553 1549 1550
f 1553 1550 1554
f 1555 1556 1557
f 1555 1557 1558
f 1559 1560 1561
f 1559 1561 1562
f 1563 1564 1565
f 1563 1565 1566
v 8.428958 2.022817 -12.53403
v 8.428835 2.022817 -10.00485
v 8.428958 4.420119 -12.53403
v 8.428835 4.420119 -10.00485
v 5.571192 4.420119 -12.53417
v 5.571068 4.420119 -10.00499
v 5.571192 2.022817 -12.53417
v 5.571068 2.022817 -10.00499
v 8.428958 4.420119 -12.53403
v 8.428835 4.420119 -10.00485
v 5.571192 4.420119 -12.53417
v 5.571068 4.420119 -10.00499
v 5.571192 2.022817 -12.53417
v 8.428958 2.022817 -12.53403
v 8.428835 2.022817 -10.00485
v 5.571068 2.022817 -10.00499
v 8.428835 2.022817 -10.00485
v 8.428835 4.420119 -10.00485
v 5.571068 4.420119 -10.00499
v 5.571068 2.022817 -10.00499
v 5.571192 2.022817 -12.53417
v 5.571192 4.420119 -12.53417
v 8.428958 4.420119 -12.53403
v 8.428958 2.022817 -12.53403
f 1567 1569 1570
f 1567 1570 1568
f 1575 1571 1572
f 1575 1572 1576
f 1577 1573 1574
f 1577 1574 1578
f 1579 1580 1581
f 1579 1581 1582
f 1583 1584 1585
f 1583 1585 1586
f 1587 1588 1589
f 1587 1589 1590
v -6.571042 4.26562 -17.53403
v -6.571077 4.26562 -16.8105
v -6.571042 6.018875 -17.53403
v -6.571077 6.018875 -16.8105
v -9.428808 6.018875 -17.53417
v -9.428843 6.018875 -16.81064
v -9.428808 4.26562 -17.53417
v -9.428843 4.26562 -16.81064
v -6.571042 6.018875 -17.53403
v -6.571077 6.018875 -16.8105
v -9.428808 6.018875 -17.53417
v -9.428843 6.018875 -16.81064
v -9.428808 4.26562 -17.53417
v -6.571042 4.26562 -17.53403
v -6.571077 4.26562 -16.8105
v -9.428843 4.26562 -16.81064
v -6.571077 4.26562 -16.8105
v -6.571077 6.018875 -16.8105
v -9.428843 6.018875 -16.81064
v -9.428843 4.26562 -16.81064
v -9.428808 4.26562 -17.53417
v -9.428808 6.018875 -17.53417
v -6.571042 6.018875 -17.53403
v -6.571042 4.26562 -17.53403
f 1591 1593 1594
f 1591 1594 1592
f 1599 1595 1596
f 1599 1596 1600
f 1601 1597 1598
f 1601 1598 1602
f 1603 1604 1605
f 1603 1605 1606
f 1607 1608 1609
f 1607 1609 1610
f 1611 1612 1613
f 1611 1613 1614
v -6.571042 2.022817 -17.53403
v -6.571166 2.022817 -15.00485
v -6.571042 4.420119 -17.53403
v -6.571166 4.420119 -15.00485
v -9.428808 4.420119 -17.53417
v -9.428931 4.420119 -15.00499
v -9.428808 2.022817 -17.53417
v -9.428931 2.022817 -15.00499
v -6.571042 4.420119 -17.53403
v -6.571166 4.420119 -15.00485
v -9.428808 4.420119 -17.53417
v -9.428931 4.420119 -15.00499
v -9.428808 2.022817 -17.53417
v -6.571042 2.022817 -17.53403
v -6.571166 2.022817 -15.00485
v -9.428931 2.022817 -15.00499
v -6.571166 2.022817 -15.00485
v -6.571166 4.420119 -15.00485
v -9.428931 4.420119 -15.00499
v -9.428931 2.022817 -15.00499
v -9.428808 2.022817 -17.53417
v -9.428808 4.420119 -17.53417
v -6.571042 4.420119 -17.53403
v -6.571042 2.022817 -17.53403
f 1615 1617 1618
f 1615 1618 1616
f 1623 1619 1620
f 1623 1620 1624
f 1625 1621 1622
f 1625 1622 1626
f 1627 1628 1629
f 1627 1629 1630
f 1631 1632 1633
f 1631 1633 1634
f 1635 1636 1637
f 1635 1637 1638
v -6.571042 4.26562 -22.53403
v -6.571077 4.26562 -21.8105
v -6.571042 6.018875 -22.53403
v -6.571077 6.018875 -21.8105
v -9.428808 6.018875 -22.53417
v -9.428843 6.018875 -21.81064
v -9.428808 4.26562 -22.53417
v -9.428843 4.26562 -21.81064
v -6.571042 6.018875 -22.53403
v -6.571077 6.018875 -21.8105
v -9.428808 6.018875 -22.53417
v -9.428843 6.018875 -21.81064
v -9.428808 4.26562 -22.53417
v -6.571042 4.26562 -22.53403
v -6.571077 4.26562 -21.8105
v -9.428843 4.26562 -21.81064
v -6.571077 4.26562 -21.8105
v -6.571077 6.018875 -21.8105
v -9.428843 6.018875 -21.81064
v -9.428843 4.26562 -21.81064
v -9.428808 4.26562 -22.53417
v -9.428808 6.018875 -22.53417
v -6.571042 6.018875 -22.53403
v -6.571042 4.26562 -22.53403
f 1639 1641 1642
f 1639 1642 1640
f 1647 1643 1644
f 1647 1644 1648
f 1649 1645 1646
f 1649 1646 1650
f 1651 1652 1653
f 1651 1653 1654
f 1655 1656 1657
f 1655 1657 1658
f 1659 1660 1661
f 1659 1661 1662
v -6.571042 2.022817 -22.53403
v -6.571166 2.022817 -20.00485
v -6.571042 4.420119 -22.53403
v -6.571166 4.420119 -20.00485
v -9.428808 4.420119 -22.53417
v -9.428931 4.420119 -20.00499
v -9.428808 2.022817 -22.53417
v -9.428931 2.022817 -20.00499
v -6.571042 4.420119 -22.53403
v -6.571166 4.420119 -20.00485
v -9.428808 4.420119 -22.53417
v -9.428931 4.420119 -20.00499
v -9.428808 2.022817 -22.53417
v -6.571042 2.022817 -22.53403
v -6.571166 2.022817 -20.00485
v -9.428931 2.022817 -20.00499
v -6.571166 2.022817 -20.00485
v -6.571166 4.420119 -20.00485
v -9.428931 4.420119 -20.00499
v -9.428931 2.022817 -20.00499
v -9.428808 2.022817 -22.53417
v -9.428808 4.420119 -22.53417
v -6.571042 4.420119 -22.53403
v -6.571042 2.022817 -22.53403
f 1663 1665 1666
f 1663 1666 1664
f 1671 1667 1668
f 1671 1668 1672
f 1673 1669 1670
f 1673 1670 1674
f 1675 1676 1677
f 1675 1677 1678
f 1679 1680 1681
f 1679 1681 1682
f 1683 1684 1685
f 1683 1685 1686
v 3.428958 4.26562 -27.53403
v 3.428923 4.26562 -26.8105
v 3.428958 6.018875 -27.53403
v 3.428923 6.018875 -26.8105
v 0.5711917 6.018875 -27.53417
v 0.5711564 6.018875 -26.81064
v 0.5711917 4.26562 -27.53417
v 0.5711564 4.26562 -26.81064
v 3.428958 6.018875 -27.53403
v 3.428923 6.018875 -26.8105
v 0.5711917 6.018875 -27.53417
v 0.5711564 6.018875 -26.81064
v 0.5711917 4.26562 -27.53417
v 3.428958 4.26562 -27.53403
v 3.428923 4.26562 -26.8105
v 0.5711564 4.26562 -26.81064
v 3.428923 4.26562 -26.8105
v 3.428923 6.018875 -26.8105
v 0.5711564 6.018875 -26.81064
v 0.5711564 4.26562 -26.81064
v 0.5711917 4.26562 -27.53417
v 0.5711917 6.018875 -27.53417
v 3.428958 6.018875 -27.53403
v 3.428958 4.26562 -27.53403
f 1687 1689 1690
f 1687 1690 1688
f 1695 1691 1692
f 1695 1692 1696
f 1697 1693 1694
f 1697 1694 1698
f 1699 1700 1701
f 1699 1701 1702
f 1703 1704 1705
f 1703 1705 1706
f 1707 1708 1709
f 1707 1709 1710
v 3.428958 2.022817 -27.53403
v 3.428835 2.022817 -25.00485
v 3.428958 4.420119 -27.53403
v 3.428835 4.420119 -25.00485
v 0.5711917 4.420119 -27.53417
v 0.5710683 4.420119 -25.00499
v 0.5711917 2.022817 -27.53417
v 0.5710683 2.022817 -25.00499
v 3.428958 4.420119 -27.53403
v 3.428835 4.420119 -25.00485
v 0.5711917 4.420119 -27.53417
v 0.5710683 4.420119 -25.00499
v 0.5711917 2.022817 -27.53417
v 3.428958 2.022817 -27.53403
v 3.428835 2.022817 -25.00485
v 0.5710683 2.022817 -25.00499
v 3.428835 2.022817 -25.00485
v 3.428835 4.420119 -25.00485
v 0.5710683 4.420119 -25.00499
v 0.5710683 2.022817 -25.00499
v 0.5711917 2.022817 -27.53417
v 0.5711917 4.420119 -27.53417
v 3.428958 4.420119 -27.53403
v 3.428958 2.022817 -27.53403
f 1711 1713 1714
f 1711 1714 1712
f 1719 1715 1716
f 1719 1716 1720
f 1721 1717 1718
f 1721 1718 1722
f 1723 1724 1725
f 1723 1725 1726
f 1727 1728 1729
f 1727 1729 1730
f 1731 1732 1733
f 1731 1733 1734
v -1.571042 4.26562 -27.53403
v -1.571077 4.26562 -26.8105
v -1.571042 6.018875 -27.53403
v -1.571077 6.018875 -26.8105
v -4.428808 6.018875 -27.53417
v -4.428843 6.018875 -26.81064
v -4.428808 4.26562 -27.53417
v -4.428843 4.26562 -26.81064
v -1.571042 6.018875 -27.53403
v -1.571077 6.018875 -26.8105
v -4.428808 6.018875 -27.53417
v -4.428843 6.018875 -26.81064
v -4.428808 4.26562 -27.53417
v -1.571042 4.26562 -27.53403
v -1.571077 4.26562 -26.8105
v -4.428843 4.26562 -26.81064
v -1.571077 4.26562 -26.8105
v -1.571077 6.018875 -26.8105
v -4.428843 6.018875 -26.81064
v -4.428843 4.26562 -26.81064
v -4.428808 4.26562 -27.53417
v -4.428808 6.018875 -27.53417
v -1.571042 6.018875 -27.53403
v -1.571042 4.26562 -27.53403
f 1735 1737 1738
f 1735 1738 1736
f 1743 1739 1740
f 1743 1740 1744
f 1745 1741 1742
f 1745 1742 1746
f 1747 1748 1749
f 1747 1749 1750
f 1751 1752 1753
f 1751 1753 1754
f 1755 1756 1757
f 1755 1757 1758
v -1.571042 2.022817 -27.53403
v -1.571165 2.022817 -25.00485
v -1.571042 4.420119 -27.53403
v -1.571165 4.420119 -25.00485
v -4.428808 4.420119 -27.53417
v -4.428932 4.420119 -25.00499
v -4.428808 2.022817 -27.53417
v -4.428932 2.022817 -25.00499
v -1.571042 4.420119 -27.53403
v -1.571165 4.420119 -25.00485
v -4.428808 4.420119 -27.53417
v -4.428932 4.420119 -25.00499
v -4.428808 2.022817 -27.53417
v -1.571042 2.022817 -27.53403
v -1.571165 2.022817 -25.00485
v -4.428932 2.022817 -25.00499
v -1.571165 2.022817 -25.00485
v -1.571165 4.420119 -25.00485
v -4.428932 4.420119 -25.00499
v -4.428932 2.022817 -25.00499
v -4.428808 2.022817 -27.53417
v -4.428808 4.420119 -27.53417
v -1.571042 4.420119 -27.53403
v -1.571042 2.022817 -27.53403
f 1759 1761 1762
f 1759 1762 1760
f 1767 1763 1764
f 1767 1764 1768
f 1769 1765 1766
f 1769 1766 1770
f 1771 1772 1773
f 1771 1773 1774
f 1775 1776 1777
f 1775 1777 1778
f 1779 1780 1781
f 1779 1781 1782
v -1.571042 4.26562 -12.53403
v -1.571077 4.26562 -11.8105
v -1.571042 6.018875 -12.53403
v -1.571077 6.018875 -11.8105
v -4.428808 6.018875 -12.53417
v -4.428843 6.018875 -11.81064
v -4.428808 4.26562 -12.53417
v -4.428843 4.26562 -11.81064
v -1.571042 6.018875 -12.53403
v -1.571077 6.018875 -11.8105
v -4.428808 6.018875 -12.53417
v -4.428843 6.018875 -11.81064
v -4.428808 4.26562 -12.53417
v -1.571042 4.26562 -12.53403
v -1.571077 4.26562 -11.8105
v -4.428843 4.26562 -11.81064
v -1.571077 4.26562 -11.8105
v -1.571077 6.018875 -11.8105
v -4.428843 6.018875 -11.81064
v -4.428843 4.26562 -11.81064
v -4.428808 4.26562 -12.53417
v -4.428808 6.018875 -12.53417
v -1.571042 6.018875 -12.53403
v -1.571042 4.26562 -12.53403
f 1783 1785 1786
f 1783 1786 1784
f 1791 1787 1788
f 1791 1788 1792
f 1793 1789 1790
f 1793 1790 1794
f 1795 1796 1797
f 1795 1797 1798
f 1799 1800 1801
f 1799 1801 1802
f 1803 1804 1805
f 1803 1805 1806
v -1.571042 2.022817 -12.53403
v -1.571165 2.022817 -10.00485
v -1.571042 4.420119 -12.53403
v -1.571165 4.420119 -10.00485
v -4.428808 4.420119 -12.53417
v -4.428932 4.420119 -10.00499
v -4.428808 2.022817 -12.53417
v -4.428932 2.022817 -10.00499
v -1.571042 4.420119 -12.53403
v -1.571165 4.420119 -10.00485
v -4.428808 4.420119 -12.53417
v -4.428932 4.420119 -10.00499
v -4.428808 2.022817 -12.53417
v -1.571042 2.022817 -12.53403
v -1.571165 2.022817 -10.00485
v -4.428932 2.022817 -10.00499
v -1.571165 2.022817 -10.00485
v -1.571165 4.420119 -10.00485
v -4.428932 4.420119 -10.00499
v -4.428932 2.022817 -10.00499
v -4.428808 2.022817 -12.53417
v -4.428808 4.420119 -12.53417
v -1.571042 4.420119 -12.53403
v -1.571042 2.022817 -12.53403
f 1807 1809 1810
f 1807 1810 1808
f 1815 1811 1812
f 1815 1812 1816
f 1817 1813 1814
f 1817 1814 1818
f 1819 1820 1821
f 1819 1821 1822
f 1823 1824 1825
f 1823 1825 1826
f 1827 1828 1829
f 1827 1829 1830
v -11.57104 4.26562 -12.53403
v -11.57108 4.26562 -11.8105
v -11.57104 6.018875 -12.53403
v -11.57108 6.018875 -11.8105
v -14.42881 6.018875 -12.53417
v -14.42884 6.018875 -11.81064
v -14.42881 4.26562 -12.53417
v -14.42884 4.26562 -11.81064
v -11.57104 6.018875 -12.53403
v -11.57108 6.018875 -11.8105
v -14.42881 6.018875 -12.53417
v -14.42884 6.018875 -11.81064
v -14.42881 4.26562 -12.53417
v -11.57104 4.26562 -12.53403
v -11.57108 4.26562 -11.8105
v -14.42884 4.26562 -11.81064
v -11.57108 4.26562 -11.8105
v -11.57108 6.018875 -11.8105
v -14.42884 6.018875 -11.81064
v -14.42884 4.26562 -11.81064
v -14.42881 4.26562 -12.53417
v -14.42881 6.018875 -12.53417
v -11.57104 6.018875 -12.53403
v -11.57104 4.26562 -12.53403
f 1831 1833 1834
f 1831 1834 1832
f 1839 1835 1836
f 1839 1836 1840
f 1841 1837 1838
f 1841 1838 1842
f 1843 1844 1845
f 1843 1845 1846
f 1847 1848 1849
f 1847 1849 1850
f 1851 1852 1853
f 1851 1853 1854
v -11.57104 2.022817 -12.53403
v -11.57117 2.022817 -10.00485
v -11.57104 4.420119 -12.53403
v -11.57117 4.420119 -10.00485
v -14.42881 4.420119 -12.53417
v -14.42893 4.420119 -10.00499
v -14.42881 2.022817 -12.53417
v -14.42893 2.022817 -10.00499
v -11.57104 4.420119 -12.53403
v -11.57117 4.420119 -10.00485
v -14.42881 4.420119 -12.53417
v -14.42893 4.420119 -10.00499
v -14.42881 2.022817 -12.53417
v -11.57104 2.022817 -12.53403
v -11.57117 2.022817 -10.00485
v -14.42893 2.022817 -10.00499
v -11.57117 2.022817 -10.00485
v -11.57117 4.420119 -10.00485
v -14.42893 4.420119 -10.00499
v -14.42893 2.022817 -10.00499
v -14.42881 2.022817 -12.53417
v -14.42881 4.420119 -12.53417
v -11.57104 4.420119 -12.53403
v -11.57104 2.022817 -12.53403
f 1855 1857 1858
f 1855 1858 1856
f 1863 1859 1860
f 1863 1860 1864
f 1865 1861 1862
f 1865 1862 1866
f 1867 1868 1869
f 1867 1869 1870
f 1871 1872 1873
f 1871 1873 1874
f 1875 1876 1877
f 1875 1877 1878
v 8.428958 4.26562 -22.53403
v 8.428923 4.26562 -21.8105
v 8.428958 6.018875 -22.53403
v 8.428923 6.018875 -21.8105
v 5.571192 6.018875 -22.53417
v 5.571157 6.018875 -21.81064
v 5.571192 4.26562 -22.53417
v 5.571157 4.26562 -21.81064
v 8.428958 6.018875 -22.53403
v 8.428923 6.018875 -21.8105
v 5.571192 6.018875 -22.53417
v 5.571157 6.018875 -21.81064
v 5.571192 4.26562 -22.53417
v 8.428958 4.26562 -22.53403
v 8.428923 4.26562 -21.8105
v 5.571157 4.26562 -21.81064
v 8.428923 4.26562 -21.8105
v 8.428923 6.018875 -21.8105
v 5.571157 6.018875 -21.81064
v 5.571157 4.26562 -21.81064
v 5.571192 4.26562 -22.53417
v 5.571192 6.018875 -22.53417
v 8.428958 6.018875 -22.53403
v 8.428958 4.26562 -22.53403
f 1879 1881 1882
f 1879 1882 1880
f 1887 1883 1884
f 1887 1884 1888
f 1889 1885 1886
f 1889 1886 1890
f 1891 1892 1893
f 1891 1893 1894
f 1895 1896 1897
f 1895 1897 1898
f 1899 1900 1901
f 1899 1901 1902
v 8.428958 2.022817 -22.53403
v 8.428835 2.022817 -20.00485
v 8.428958 4.420119 -22.53403
v 8.428835 4.420119 -20.00485
v 5.571192 4.420119 -22.53417
v 5.571068 4.420119 -20.00499
v 5.571192 2.022817 -22.53417
v 5.571068 2.022817 -20.00499
v 8.428958 4.420119 -22.53403
v 8.428835 4.420119 -20.00485
v 5.571192 4.420119 -22.53417
v 5.571068 4.420119 -20.00499
v 5.571192 2.022817 -22.53417
v 8.428958 2.022817 -22.53403
v 8.428835 2.022817 -20.00485
v 5.571068 2.022817 -20.00499
v 8.428835 2.022817 -20.00485
v 8.428835 4.420119 -20.00485
v 5.571068 4.420119 -20.00499
v 5.571068 2.022817 -20.00499
v 5.571192 2.022817 -22.53417
v 5.571192 4.420119 -22.53417
v 8.428958 4.420119 -22.53403
v 8.428958 2.022817 -22.53403
f 1903 1905 1906
f 1903 1906 1904
f 1911 1907 1908
f 1911 1908 1912
f 1913 1909 1910
f 1913 1910 1914
f 1915 1916 1917
f 1915 1917 1918
f 1919 1920 1921
f 1919 1921 1922
f 1923 1924 1925
f 1923 1925 1926
v 9.444229 25.16337 -28.51678
v -11.49579 25.16337 -28.51678
v 9.444229 25.16337 -30.61254
v -11.49579 25.16337 -30.61254
v 9.444229 12.83662 -30.61254
v -11.49579 12.83662 -30.61254
v 9.444229 12.83663 -28.51678
v -11.49579 12.83663 -28.51678
v 9.444229 25.16337 -30.61254
v -11.49579 25.16337 -30.61254
v 9.444229 12.83662 -30.61254
v -11.49579 12.83662 -30.61254
v 9.444229 12.83663 -28.51678
v 9.444229 25.16337 -28.51678
v -11.49579 25.16337 -28.51678
v -11.49579 12.83663 -28.51678
v -11.49579 25.16337 -28.51678
v -11.49579 25.16337 -30.61254
v -11.49579 12.83662 -30.61254
v -11.49579 12.83663 -28.51678
v 9.444229 12.83663 -28.51678
v 9.444229 12.83662 -30.61254
v 9.444229 25.16337 -30.61254
v 9.444229 25.16337 -28.51678
f 1927 1929 1930
f 1927 1930 1928
f 1935 1931 1932
f 1935 1932 1936
f 1937 1933 1934
f 1937 1934 1938
f 1939 1940 1941
f 1939 1941 1942
f 1943 1944 1945
f 1943 1945 1946
f 1947 1948 1949
f 1947 1949 1950
v 3.428958 4.26562 -12.53403
v 3.428923 4.26562 -11.8105
v 3.428958 6.018875 -12.53403
v 3.428923 6.018875 -11.8105
v 0.5711917 6.018875 -12.53417
v 0.5711564 6.018875 -11.81064
v 0.5711917 4.26562 -12.53417
v 0.5711564 4.26562 -11.81064
v 3.428958 6.018875 -12.53403
v 3.428923 6.018875 -11.8105
v 0.5711917 6.018875 -12.53417
v 0.5711564 6.018875 -11.81064
v 0.5711917 4.26562 -12.53417
v 3.428958 4.26562 -12.53403
v 3.428923 4.26562 -11.8105
v 0.5711564 4.26562 -11.81064
v 3.428923 4.26562 -11.8105
v 3.428923 6.018875 -11.8105
v 0.5711564 6.018875 -11.81064
v 0.5711564 4.26562 -11.81064
v 0.5711917 4.26562 -12.53417
v 0.5711917 6.018875 -12.53417
v 3.428958 6.018875 -12.53403
v 3.428958 4.26562 -12.53403
f 1951 1953 1954
f 1951 1954 1952
f 1959 1955 1956
f 1959 1956 1960
f 1961 1957 1958
f 1961 1958 1962
f 1963 1964 1965
f 1963 1965 1966
f 1967 1968 1969
f 1967 1969 1970
f 1971 1972 1973
f 1971 1973 1974
v 3.428958 2.022817 -12.53403
v 3.428835 2.022817 -10.00485
v 3.428958 4.420119 -12.53403
v 3.428835 4.420119 -10.00485
v 0.5711917 4.420119 -12.53417
v 0.5710683 4.420119 -10.00499
v 0.5711917 2.022817 -12.53417
v 0.5710683 2.022817 -10.00499
v 3.428958 4.420119 -12.53403
v 3.428835 4.420119 -10.00485
v 0.5711917 4.420119 -12.53417
v 0.5710683 4.420119 -10.00499
v 0.5711917 2.022817 -12.53417
v 3.428958 2.022817 -12.53403
v 3.428835 2.022817 -10.00485
v 0.5710683 2.022817 -10.00499
v 3.428835 2.022817 -10.00485
v 3.428835 4.420119 -10.00485
v 0.5710683 4.420119 -10.00499
v 0.5710683 2.022817 -10.00499
v 0.5711917 2.022817 -12.53417
v 0.5711917 4.420119 -12.53417
v 3.428958 4.420119 -12.53403
v 3.428958 2.022817 -12.53403
f 1975 1977 1978
f 1975 1978 1976
f 1983 1979 1980
f 1983 1980 1984
f 1985 1981 1982
f 1985 1982 1986
f 1987 1988 1989
f 1987 1989 1990
f 1991 1992 1993
f 1991 1993 1994
f 1995 1996 1997
f 1995 1997 1998
v -6.571042 4.26562 -12.53403
v -6.571077 4.26562 -11.8105
v -6.571042 6.018875 -12.53403
v -6.571077 6.018875 -11.8105
v -9.428808 6.018875 -12.53417
v -9.428843 6.018875 -11.81064
v -9.428808 4.26562 -12.53417
v -9.428843 4.26562 -11.81064
v -6.571042 6.018875 -12.53403
v -6.571077 6.018875 -11.8105
v -9.428808 6.018875 -12.53417
v -9.428843 6.018875 -11.81064
v -9.428808 4.26562 -12.53417
v -6.571042 4.26562 -12.53403
v -6.571077 4.26562 -11.8105
v -9.428843 4.26562 -11.81064
v -6.571077 4.26562 -11.8105
v -6.571077 6.018875 -11.8105
v -9.428843 6.018875 -11.81064
v -9.428843 4.26562 -11.81064
v -9.428808 4.26562 -12.53417
v -9.428808 6.018875 -12.53417
v -6.571042 6.018875 -12.53403
v -6.571042 4.26562 -12.53403
f 1999 2001 2002
f 1999 2002 2000
f 2007 2003 2004
f 2007 2004 2008
f 2009 2005 2006
f 2009 2006 2010
f 2011 2012 2013
f 2011 2013 2014
f 2015 2016 2017
f 2015 2017 2018
f 2019 2020 2021
f 2019 2021 2022
v -6.571042 2.022817 -12.53403
v -6.571166 2.022817 -10.00485
v -6.571042 4.420119 -12.53403
v -6.571166 4.420119 -10.00485
v -9.428808 4.420119 -12.53417
v -9.428931 4.420119 -10.00499
v -9.428808 2.022817 -12.53417
v -9.428931 2.022817 -10.00499
v -6.571042 4.420119 -12.53403
v -6.571166 4.420119 -10.00485
v -9.428808 4.420119 -12.53417
v -9.428931 4.420119 -10.00499
v -9.428808 2.022817 -12.53417
v -6.571042 2.022817 -12.53403
v -6.571166 2.022817 -10.00485
v -9.428931 2.022817 -10.00499
v -6.571166 2.022817 -10.00485
v -6.571166 4.420119 -10.00485
v -9.428931 4.420119 -10.00499
v -9.428931 2.022817 -10.00499
v -9.428808 2.022817 -12.53417
v -9.428808 4.420119 -12.53417
v -6.571042 4.420119 -12.53403
v -6.571042 2.022817 -12.53403
f 2023 2025 2026
f 2023 2026 2024
f 2031 2027 2028
f 2031 2028 2032
f 2033 2029 2030
f 2033 2030 2034
f 2035 2036 2037
f 2035 2037 2038
f 2039 2040 2041
f 2039 2041 2042
f 2043 2044 2045
f 2043 2045 2046
v -16.57104 4.26562 -27.53403
v -16.57108 4.26562 -26.8105
v -16.57104 6.018875 -27.53403
v -16.57108 6.018875 -26.8105
v -19.42881 6.018875 -27.53417
v -19.42884 6.018875 -26.81064
v -19.42881 4.26562 -27.53417
v -19.42884 4.26562 -26.81064
v -16.57104 6.018875 -27.53403
v -16.57108 6.018875 -26.8105
v -19.42881 6.018875 -27.53417
v -19.42884 6.018875 -26.81064
v -19.42881 4.26562 -27.53417
v -16.57104 4.26562 -27.53403
v -16.57108 4.26562 -26.8105
v -19.42884 4.26562 -26.81064
v -16.57108 4.26562 -26.8105
v -16.57108 6.018875 -26.8105
v -19.42884 6.018875 -26.81064
v -19.42884 4.26562 -26.81064
v -19.42881 4.26562 -27.53417
v -19.42881 6.018875 -27.53417
v -16.57104 6.018875 -27.53403
v -16.57104 4.26562 -27.53403
f 2047 2049 2050
f 2047 2050 2048
f 2055 2051 2052
f 2055 2052 2056
f 2057 2053 2054
f 2057 2054 2058
f 2059 2060 2061
f 2059 2061 2062
f 2063 2064 2065
f 2063 2065 2066
f 2067 2068 2069
f 2067 2069 2070
v -16.57104 2.022817 -27.53403
v -16.57117 2.022817 -25.00485
v -16.57104 4.420119 -27.53403
v -16.57117 4.420119 -25.00485
v -19.42881 4.420119 -27.53417
v -19.42893 4.420119 -25.00499
v -19.42881 2.022817 -27.53417
v -19.42893 2.022817 -25.00499
v -16.57104 4.420119 -27.53403
v -16.57117 4.420119 -25.00485
v -19.42881 4.420119 -27.53417
v -19.42893 4.420119 -25.00499
v -19.42881 2.022817 -27.53417
v -16.57104 2.022817 -27.53403
v -16.57117 2.022817 -25.00485
v -19.42893 2.022817 -25.00499
v -16.57117 2.022817 -25.00485
v -16.57117 4.420119 -25.00485
v -19.42893 4.420119 -25.00499
v -19.42893 2.022817 -25.00499
v -19.42881 2.022817 -27.53417
v -19.42881 4.420119 -27.53417
v -16.57104 4.420119 -27.53403
v -16.57104 2.022817 -27.53403
f 2071 2073 2074
f 2071 2074 2072
f 2079 2075 2076
f 2079 2076 2080
f 2081 2077 2078
f 2081 2078 2082
f 2083 2084 2085
f 2083 2085 2086
f 2087 2088 2089
f 2087 2089 2090
f 2091 2092 2093
f 2091 2093 2094
v 18.42896 4.26562 -17.53403
v 18.42892 4.26562 -16.8105
v 18.42896 6.018875 -17.53403
v 18.42892 6.018875 -16.8105
v 15.57119 6.018875 -17.53417
v 15.57116 6.018875 -16.81064
v 15.57119 4.26562 -17.53417
v 15.57116 4.26562 -16.81064
v 18.42896 6.018875 -17.53403
v 18.42892 6.018875 -16.8105
v 15.57119 6.018875 -17.53417
v 15.57116 6.018875 -16.81064
v 15.57119 4.26562 -17.53417
v 18.42896 4.26562 -17.53403
v 18.42892 4.26562 -16.8105
v 15.57116 4.26562 -16.81064
v 18.42892 4.26562 -16.8105
v 18.42892 6.018875 -16.8105
v 15.57116 6.018875 -16.81064
v 15.57116 4.26562 -16.81064
v 15.57119 4.26562 -17.53417
v 15.57119 6.018875 -17.53417
v 18.42896 6.018875 -17.53403
v 18.42896 4.26562 -17.53403
f 2095 2097 2098
f 2095 2098 2096
f 2103 2099 2100
f 2103 2100 2104
f 2105 2101 2102
f 2105 2102 2106
f 2107 2108 2109
f 2107 2109 2110
f 2111 2112 2113
f 2111 2113 2114
f 2115 2116 2117
f 2115 2117 2118
v 18.42896 2.022817 -17.53403
v 18.42883 2.022817 -15.00485
v 18.42896 4.420119 -17.53403
v 18.42883 4.420119 -15.00485
v 15.57119 4.420119 -17.53417
v 15.57107 4.420119 -15.00499
v 15.57119 2.022817 -17.53417
v 15.57107 2.022817 -15.00499
v 18.42896 4.420119 -17.53403
v 18.42883 4.420119 -15.00485
v 15.57119 4.420119 -17.53417
v 15.57107 4.420119 -15.00499
v 15.57119 2.022817 -17.53417
v 18.42896 2.022817 -17.53403
v 18.42883 2.022817 -15.00485
v 15.57107 2.022817 -15.00499
v 18.42883 2.022817 -15.00485
v 18.42883 4.420119 -15.00485
v 15.57107 4.420119 -15.00499
v 15.57107 2.022817 -15.00499
v 15.57119 2.022817 -17.53417
v 15.57119 4.420119 -17.53417
v 18.42896 4.420119 -17.53403
v 18.42896 2.022817 -17.53403
f 2119 2121 2122
f 2119 2122 2120
f 2127 2123 2124
f 2127 2124 2128
f 2129 2125 2126
f 2129 2126 2130
f 2131 2132 2133
f 2131 2133 2134
f 2135 2136 2137
f 2135 2137 2138
f 2139 2140 2141
f 2139 2141 2142
v 23.42896 4.26562 -12.53403
v 23.42892 4.26562 -11.8105
v 23.42896 6.018875 -12.53403
v 23.42892 6.018875 -11.8105
v 20.57119 6.018875 -12.53417
v 20.57116 6.018875 -11.81064
v 20.57119 4.26562 -12.53417
v 20.57116 4.26562 -11.81064
v 23.42896 6.018875 -12.53403
v 23.42892 6.018875 -11.8105
v 20.57119 6.018875 -12.53417
v 20.57116 6.018875 -11.81064
v 20.57119 4.26562 -12.53417
v 23.42896 4.26562 -12.53403
v 23.42892 4.26562 -11.8105
v 20.57116 4.26562 -11.81064
v 23.42892 4.26562 -11.8105
v 23.42892 6.018875 -11.8105
v 20.57116 6.018875 -11.81064
v 20.57116 4.26562 -11.81064
v 20.57119 4.26562 -12.53417
v 20.57119 6.018875 -12.53417
v 23.42896 6.018875 -12.53403
v 23.42896 4.26562 -12.53403
f 2143 2145 2146
f 2143 2146 2144
f 2151 2147 2148
f 2151 2148 2152
f 2153 2149 2150
f 2153 2150 2154
f 2155 2156 2157
f 2155 2157 2158
f 2159 2160 2161
f 2159 2161 2162
f 2163 2164 2165
f 2163 2165 2166
v 23.42896 2.022817 -12.53403
v 23.42883 2.022817 -10.00485
v 23.42896 4.420119 -12.53403
v 23.42883 4.420119 -10.00485
v 20.57119 4.420119 -12.53417
v 20.57107 4.420119 -10.00499
v 20.57119 2.022817 -12.53417
v 20.57107 2.022817 -10.00499
v 23.42896 4.420119 -12.53403
v 23.42883 4.420119 -10.00485
v 20.57119 4.420119 -12.53417
v 20.57107 4.420119 -10.00499
v 20.57119 2.022817 -12.53417
v 23.42896 2.022817 -12.53403
v 23.42883 2.022817 -10.00485
v 20.57107 2.022817 -10.00499
v 23.42883 2.022817 -10.00485
v 23.42883 4.420119 -10.00485
v 20.57107 4.420119 -10.00499
v 20.57107 2.022817 -10.00499
v 20.57119 2.022817 -12.53417
v 20.57119 4.420119 -12.53417
v 23.42896 4.420119 -12.53403
v 23.42896 2.022817 -12.53403
f 2167 2169 2170
f 2167 2170 2168
f 2175 2171 2172
f 2175 2172 2176
f 2177 2173 2174
f 2177 2174 2178
f 2179 2180 2181
f 2179 2181 2182
f 2183 2184 2185
f 2183 2185 2186
f 2187 2188 2189
f 2187 2189 2190
v 3.428958 4.26562 -17.53403
v 3.428923 4.26562 -16.8105
v 3.428958 6.018875 -17.53403
v 3.428923 6.018875 -16.8105
v 0.5711917 6.018875 -17.53417
v 0.5711564 6.018875 -16.81064
v 0.5711917 4.26562 -17.53417
v 0.5711564 4.26562 -16.81064
v 3.428958 6.018875 -17.53403
v 3.428923 6.018875 -16.8105
v 0.5711917 6.018875 -17.53417
v 0.5711564 6.018875 -16.81064
v 0.5711917 4.26562 -17.53417
v 3.428958 4.26562 -17.53403
v 3.428923 4.26562 -16.8105
v 0.5711564 4.26562 -16.81064
v 3.428923 4.26562 -16.8105
v 3.428923 6.018875 -16.8105
v 0.5711564 6.018875 -16.81064
v 0.5711564 4.26562 -16.81064
v 0.5711917 4.26562 -17.53417
v 0.5711917 6.018875 -17.53417
v 3.428958 6.018875 -17.53403
v 3.428958 4.26562 -17.53403
f 2191 2193 2194
f 2191 2194 2192
f 2199 2195 2196
f 2199 2196 2200
f 2201 2197 2198
f 2201 2198 2202
f 2203 2204 2205
f 2203 2205 2206
f 2207 2208 2209
f 2207 2209 2210
f 2211 2212 2213
f 2211 2213 2214
v 3.428958 2.022817 -17.53403
v 3.428835 2.022817 -15.00485
v 3.428958 4.420119 -17.53403
v 3.428835 4.420119 -15.00485
v 0.5711917 4.420119 -17.53417
v 0.5710683 4.420119 -15.00499
v 0.5711917 2.022817 -17.53417
v 0.5710683 2.022817 -15.00499
v 3.428958 4.420119 -17.53403
v 3.428835 4.420119 -15.00485
v 0.5711917 4.420119 -17.53417
v 0.5710683 4.420119 -15.00499
v 0.5711917 2.022817 -17.53417
v 3.428958 2.022817 -17.53403
v 3.428835 2.022817 -15.00485
v 0.5710683 2.022817 -15.00499
v 3.428835 2.022817 -15.00485
v 3.428835 4.420119 -15.00485
v 0.5710683 4.420119 -15.00499
v 0.5710683 2.022817 -15.00499
v 0.5711917 2.022817 -17.53417
v 0.5711917 4.420119 -17.53417
v 3.428958 4.420119 -17.53403
v 3.428958 2.022817 -17.53403
f 2215 2217 2218
f 2215 2218 2216
f 2223 2219 2220
f 2223 2220 2224
f 2225 2221 2222
f 2225 2222 2226
f 2227 2228 2229
f 2227 2229 2230
f 2231 2232 2233
f 2231 2233 2234
f 2235 2236 2237
f 2235 2237 2238
v 13.42896 4.26562 -27.53403
v 13.42892 4.26562 -26.8105
v 13.42896 6.018875 -27.53403
v 13.42892 6.018875 -26.8105
v 10.57119 6.018875 -27.53417
v 10.57116 6.018875 -26.81064
v 10.57119 4.26562 -27.53417
v 10.57116 4.26562 -26.81064
v 13.42896 6.018875 -27.53403
v 13.42892 6.018875 -26.8105
v 10.57119 6.018875 -27.53417
v 10.57116 6.018875 -26.81064
v 10.57119 4.26562 -27.53417
v 13.42896 4.26562 -27.53403
v 13.42892 4.26562 -26.8105
v 10.57116 4.26562 -26.81064
v 13.42892 4.26562 -26.8105
v 13.42892 6.018875 -26.8105
v 10.57116 6.018875 -26.81064
v 10.57116 4.26562 -26.81064
v 10.57119 4.26562 -27.53417
v 10.57119 6.018875 -27.53417
v 13.42896 6.018875 -27.53403
v 13.42896 4.26562 -27.53403
f 2239 2241 2242
f 2239 2242 2240
f 2247 2243 2244
f 2247 2244 2248
f 2249 2245 2246
f 2249 2246 2250
f 2251 2252 2253
f 2251 2253 2254
f 2255 2256 2257
f 2255 2257 2258
f 2259 2260 2261
f 2259 2261 2262
v 13.42896 2.022817 -27.53403
v 13.42883 2.022817 -25.00485
v 13.42896 4.420119 -27.53403
v 13.42883 4.420119 -25.00485
v 10.57119 4.420119 -27.53417
v 10.57107 4.420119 -25.00499
v 10.57119 2.022817 -27.53417
v 10.57107 2.022817 -25.00499
v 13.42896 4.420119 -27.53403
v 13.42883 4.420119 -25.00485
v 10.57119 4.420119 -27.53417
v 10.57107 4.420119 -25.00499
v 10.57119 2.022817 -27.53417
v 13.42896 2.022817 -27.53403
v 13.42883 2.022817 -25.00485
v 10.57107 2.022817 -25.00499
v 13.42883 2.022817 -25.00485
v 13.42883 4.420119 -25.00485
v 10.57107 4.420119 -25.00499
v 10.57107 2.022817 -25.00499
v 10.57119 2.022817 -27.53417
v 10.57119 4.420119 -27.53417
v 13.42896 4.420119 -27.53403
v 13.42896 2.022817 -27.53403
f 2263 2265 2266
f 2263 2266 2264
f 2271 2267 2268
f 2271 2268 2272
f 2273 2269 2270
f 2273 2270 2274
f 2275 2276 2277
f 2275 2277 2278
f 2279 2280 2281
f 2279 2281 2282
f 2283 2284 2285
f 2283 2285 2286
v -10.94395 25.16337 33.26612
v 9.996073 25.16337 33.28346
v -10.94568 25.16337 35.36189
v 9.994337 25.16337 35.37923
v -10.94569 12.83663 35.3619
v 9.994337 12.83663 35.37923
v -10.94395 12.83663 33.26613
v 9.996072 12.83662 33.28347
v -10.94568 25.16337 35.36189
v 9.994337 25.16337 35.37923
v -10.94569 12.83663 35.3619
v 9.994337 12.83663 35.37923
v -10.94395 12.83663 33.26613
v -10.94395 25.16337 33.26612
v 9.996073 25.16337 33.28346
v 9.996072 12.83662 33.28347
v 9.996073 25.16337 33.28346
v 9.994337 25.16337 35.37923
v 9.994337 12.83663 35.37923
v 9.996072 12.83662 33.28347
v -10.94395 12.83663 33.26613
v -10.94569 12.83663 35.3619
v -10.94568 25.16337 35.36189
v -10.94395 25.16337 33.26612
f 2287 2289 2290
f 2287 2290 2288
f 2295 2291 2292
f 2295 2292 2296
f 2297 2293 2294
f 2297 2294 2298
f 2299 2300 2301
f 2299 2301 2302
f 2303 2304 2305
f 2303 2305 2306
f 2307 2308 2309
f 2307 2309 2310
v -21.78255 -19.16611 -46.63596
v -22.98803 -19.16611 -46.63596
v -21.78255 -19.16611 -47.04369
v -22.98803 -19.16611 -47.04369
v -21.78255 -19.99609 -47.04369
v -22.98803 -19.99609 -47.04369
v -21.78255 -19.99609 -46.63596
v -22.98803 -19.99609 -46.63596
v -21.78255 -19.16611 -47.04369
v -22.98803 -19.16611 -47.04369
v -21.78255 -19.99609 -47.04369
v -22.98803 -19.99609 -47.04369
v -21.78255 -19.99609 -46.63596
v -21.78255 -19.16611 -46.63596
v -22.98803 -19.16611 -46.63596
v -22.98803 -19.99609 -46.63596
v -22.98803 -19.16611 -46.63596
v -22.98803 -19.16611 -47.04369
v -22.98803 -19.99609 -47.04369
v -22.98803 -19.99609 -46.63596
v -21.78255 -19.99609 -46.63596
v -21.78255 -19.99609 -47.04369
v -21.78255 -19.16611 -47.04369
v -21.78255 -19.16611 -46.63596
f 2311 2313 2314
f 2311 2314 2312
f 2319 2315 2316
f 2319 2316 2320
f 2321 2317 2318
f 2321 2318 2322
f 2323 2324 2325
f 2323 2325 2326
f 2327 2328 2329
f 2327 2329 2330
f 2331 2332 2333
f 2331 2333 2334
v -21.57104 4.26562 -17.53403
v -21.57108 4.26562 -16.8105
v -21.57104 6.018875 -17.53403
v -21.57108 6.018875 -16.8105
v -24.42881 6.018875 -17.53417
v -24.42884 6.018875 -16.81064
v -24.42881 4.26562 -17.53417
v -24.42884 4.26562 -16.81064
v -21.57104 6.018875 -17.53403
v -21.57108 6.018875 -16.8105
v -24.42881 6.018875 -17.53417
v -24.42884 6.018875 -16.81064
v -24.42881 4.26562 -17.53417
v -21.57104 4.26562 -17.53403
v -21.57108 4.26562 -16.8105
v -24.42884 4.26562 -16.81064
v -21.57108 4.26562 -16.8105
v -21.57108 6.018875 -16.8105
v -24.42884 6.018875 -16.81064
v -24.42884 4.26562 -16.81064
v -24.42881 4.26562 -17.53417
v -24.42881 6.018875 -17.53417
v -21.57104 6.018875 -17.53403
v -21.57104 4.26562 -17.53403
f 2335 2337 2338
f 2335 2338 2336
f 2343 2339 2340
f 2343 2340 2344
f 2345 2341 2342
f 2345 2342 2346
f 2347 2348 2349
f 2347 2349 2350
f 2351 2352 2353
f 2351 2353 2354
f 2355 2356 2357
f 2355 2357 2358
v -21.57104 2.022817 -17.53403
v -21.57117 2.022817 -15.00485
v -21.57104 4.420119 -17.53403
v -21.57117 4.420119 -15.00485
v -24.42881 4.420119 -17.53417
v -24.42893 4.420119 -15.00499
v -24.42881 2.022817 -17.53417
v -24.42893 2.022817 -15.00499
v -21.57104 4.420119 -17.53403
v -21.57117 4.420119 -15.00485
v -24.42881 4.420119 -17.53417
v -24.42893 4.420119 -15.00499
v -24.42881 2.022817 -17.53417
v -21.57104 2.022817 -17.53403
v -21.57117 2.022817 -15.00485
v -24.42893 2.022817 -15.00499
v -21.57117 2.022817 -15.00485
v -21.57117 4.420119 -15.00485
v -24.42893 4.420119 -15.00499
v -24.42893 2.022817 -15.00499
v -24.42881 2.022817 -17.53417
v -24.42881 4.420119 -17.53417
v -21.57104 4.420119 -17.53403
v -21.57104 2.022817 -17.53403
f 2359 2361 2362
f 2359 2362 2360
f 2367 2363 2364
f 2367 2364 2368
f 2369 2365 2366
f 2369 2366 2370
f 2371 2372 2373
f 2371 2373 2374
f 2375 2376 2377
f 2375 2377 2378
f 2379 2380 2381
f 2379 2381 2382
