v 48 73 -4
v 48 63 4
v 48 73 4
v 48 63 -4
v -48 63 4
v -48 63 -4
v -48 73 -4
v -48 73 4
v -48 47 4
v -48 47 -4
v 48 47 4
v 48 47 -4
v 48 8 4
v 48 8 -4
v -48 8 4
v -48 8 -4
v 48 73 -32
v 48 63 -32
v 48 73 -48
v 48 63 -48
v -48 63 -32
v -48 73 -32
v -48 63 -48
v -48 73 -48
v -48 47 -32
v -48 47 -48
v 48 47 -32
v 48 47 -48
v 48 8 -48
v 48 -2 -32
v 48 8 -32
v 48 -2 -48
v -48 -2 -32
v -48 -2 -48
v -48 8 -48
v -48 8 -32
v 48 73 32
v 48 63 48
v 48 73 48
v 48 63 32
v -48 63 48
v -48 63 32
v -48 73 32
v -48 73 48
v -48 47 48
v -48 47 32
v 48 47 48
v 48 47 32
v 48 8 32
v 48 -2 48
v 48 8 48
v 48 -2 32
v -48 -2 48
v -48 -2 32
v -48 8 32
v -48 8 48
v 48 63 48
v 32 47 48
v 32 63 48
v 48 47 48
v 48 73 48
v 32 73 48
v 32 47 -48
v 48 47 -48
v 48 63 -48
v 32 63 -48
v 48 73 -48
v 32 73 -48
v 32 73 4
v 48 73 -4
v 48 73 4
v 32 73 -4
v 48 8 48
v 32 -2 48
v 32 8 48
v 48 -2 48
v 32 -2 -48
v 48 -2 -48
v 48 8 -48
v 32 8 -48
v 32 73 -32
v 48 73 -48
v 48 73 -32
v 32 73 -48
v 32 73 32
v 48 73 32
v 32 73 48
v 48 73 48
v -32 63 48
v -48 47 48
v -48 63 48
v -32 47 48
v -32 73 48
v -48 73 48
v -48 47 -48
v -32 47 -48
v -32 63 -48
v -48 63 -48
v -32 73 -48
v -48 73 -48
v -32 73 4
v -32 73 -4
v -48 73 4
v -48 73 -4
v -32 8 48
v -48 -2 48
v -48 8 48
v -32 -2 48
v -48 -2 -48
v -32 -2 -48
v -32 8 -48
v -48 8 -48
v -32 73 -32
v -32 73 -48
v -48 73 -32
v -48 73 -48
v -32 73 32
v -48 73 32
v -32 73 48
v -48 73 48
v 48 -2 -4
v 48 -11 4
v 48 -2 4
v 48 -11 -4
v -48 -11 4
v -48 -11 -4
v -48 -2 -4
v -48 -2 4
v 48 -11 -32
v 48 -21 -4
v 48 -21 -32
v 48 -11 -48
v 48 -21 -48
v -48 -21 -4
v -48 -21 -32
v -48 -11 -32
v -48 -21 -48
v -48 -11 -48
v 48 -11 32
v 48 -21 48
v 48 -11 48
v 48 -21 32
v 48 -21 4
v -48 -21 48
v -48 -21 32
v -48 -11 32
v -48 -11 48
v -48 -21 4
v 48 -11 48
v 32 -21 48
v 32 -11 48
v 48 -21 48
v 32 -21 -48
v 48 -21 -48
v 48 -11 -48
v 32 -11 -48
v -32 -11 48
v -48 -21 48
v -48 -11 48
v -32 -21 48
v -48 -21 -48
v -32 -21 -48
v -32 -11 -48
v -48 -11 -48
v -48 -21 4
v -48 -21 -4
v -49 -21 4
v -49 -21 -4
v -48 -21 -4
v -48 -11 -4
v -49 -21 -4
v -49 -11 -4
v -48 -11 4
v -48 -21 4
v -49 -11 4
v -49 -21 4
v -48 -11 -4
v -48 -11 4
v -49 -11 -4
v -49 -11 4
v 48 -21 4
v 48 -11 4
v 49 -21 4
v 49 -11 4
v 48 -11 4
v 48 -11 -4
v 49 -11 4
v 49 -11 -4
v 48 -11 -4
v 48 -21 -4
v 49 -11 -4
v 49 -21 -4
v 48 -21 -4
v 48 -21 4
v 49 -21 -4
v 49 -21 4
v 48 -21 -4
v 32 -21 -4
v 32 -21 4
v 48 -21 4
v 48 -21 -48
v 32 -21 -48
v 32 -21 -32
v 48 -21 -32
v 32 -21 32
v 48 -21 32
v 32 -21 48
v 48 -21 48
v -32 -21 -4
v -32 -21 4
v -48 -21 -4
v -48 -21 4
v -32 -21 -48
v -32 -21 -32
v -48 -21 -48
v -48 -21 -32
v -32 -21 32
v -48 -21 32
v -32 -21 48
v -48 -21 48
v 49 8 -4
v 49 -2 4
v 49 8 4
v 49 -2 -4
v -49 -2 4
v -49 -2 -4
v -49 8 -4
v -49 8 4
v 49 8 -32
v 49 -2 -32
v -49 -2 -32
v -49 8 -32
v 49 -2 32
v 49 8 32
v -49 -2 32
v -49 8 32
v 32 8 49
v -32 -2 49
v -32 8 49
v 32 -2 49
v -32 -2 -49
v 32 -2 -49
v 32 8 -49
v -32 8 -49
v -32 -2 48
v -32 8 48
v -32 -2 49
v -32 8 49
v -32 8 48
v 32 8 48
v -32 8 49
v 32 8 49
v 32 8 48
v 32 -2 48
v 32 8 49
v 32 -2 49
v 32 -2 48
v -32 -2 48
v 32 -2 49
v -32 -2 49
v -48 -2 32
v -48 -2 4
v -49 -2 32
v -49 -2 4
v -48 8 -4
v -48 8 4
v -49 8 -4
v -49 8 4
v -48 8 32
v -48 -2 32
v -49 8 32
v -49 -2 32
v -48 8 32
v -49 8 32
v -48 -2 -4
v -49 -2 -4
v -48 8 -32
v -49 8 -32
v -48 -2 -32
v -49 -2 -32
v -48 -2 -32
v -48 8 -32
v -49 -2 -32
v -49 8 -32
v -32 -2 -48
v 32 -2 -48
v -32 -2 -49
v 32 -2 -49
v 32 -2 -48
v 32 8 -48
v 32 -2 -49
v 32 8 -49
v -32 8 -48
v -32 -2 -48
v -32 8 -49
v -32 -2 -49
v 32 8 -48
v -32 8 -48
v 32 8 -49
v -32 8 -49
v 48 -2 -4
v 48 -2 4
v 49 -2 -4
v 49 -2 4
v 48 8 -4
v 48 8 -32
v 49 8 -4
v 49 8 -32
v 48 8 -32
v 48 -2 -32
v 49 8 -32
v 49 -2 -32
v 48 -2 -32
v 49 -2 -32
v 48 -2 32
v 49 -2 32
v 48 8 4
v 49 8 4
v 48 -2 32
v 48 8 32
v 49 -2 32
v 49 8 32
v 48 8 32
v 49 8 32
v 49 -11 -4
v 49 -21 4
v 49 -11 4
v 49 -21 -4
v -49 -21 4
v -49 -21 -4
v -49 -11 -4
v -49 -11 4
f 1 2 3
f 1 4 2
f 5 6 7
f 8 5 7
f 9 10 6
f 5 9 6
f 4 11 2
f 4 12 11
f 12 13 11
f 12 14 13
f 15 16 10
f 9 15 10
f 17 4 1
f 17 18 4
f 19 18 17
f 19 20 18
f 6 21 22
f 7 6 22
f 21 23 24
f 22 21 24
f 10 25 21
f 6 10 21
f 25 26 23
f 21 25 23
f 18 12 4
f 18 27 12
f 20 27 18
f 20 28 27
f 29 30 31
f 29 32 30
f 27 14 12
f 27 31 14
f 28 31 27
f 28 29 31
f 33 34 35
f 36 33 35
f 16 36 25
f 10 16 25
f 36 35 26
f 25 36 26
f 37 38 39
f 37 40 38
f 3 40 37
f 3 2 40
f 41 42 43
f 44 41 43
f 42 5 8
f 43 42 8
f 45 46 42
f 41 45 42
f 46 9 5
f 42 46 5
f 40 47 38
f 40 48 47
f 2 48 40
f 2 11 48
f 49 50 51
f 49 52 50
f 48 51 47
f 48 49 51
f 11 49 48
f 11 13 49
f 53 54 55
f 56 53 55
f 56 55 46
f 45 56 46
f 55 15 9
f 46 55 9
f 57 58 59
f 57 60 58
f 61 59 62
f 61 57 59
f 63 64 65
f 66 63 65
f 66 65 67
f 68 66 67
f 69 70 71
f 69 72 70
f 73 74 75
f 73 76 74
f 60 75 58
f 60 73 75
f 77 78 79
f 80 77 79
f 80 79 64
f 63 80 64
f 81 82 83
f 81 84 82
f 72 83 70
f 72 81 83
f 85 71 86
f 85 69 71
f 87 86 88
f 87 85 86
f 89 90 91
f 89 92 90
f 59 92 89
f 59 58 92
f 93 91 94
f 93 89 91
f 62 89 93
f 62 59 89
f 95 96 97
f 98 95 97
f 96 63 66
f 97 96 66
f 98 97 99
f 100 98 99
f 97 66 68
f 99 97 68
f 101 72 69
f 101 102 72
f 103 102 101
f 103 104 102
f 105 106 107
f 105 108 106
f 92 107 90
f 92 105 107
f 58 105 92
f 58 75 105
f 109 110 111
f 112 109 111
f 112 111 96
f 95 112 96
f 111 80 63
f 96 111 63
f 113 84 81
f 113 114 84
f 115 114 113
f 115 116 114
f 102 81 72
f 102 113 81
f 104 113 102
f 104 115 113
f 117 69 85
f 117 101 69
f 118 101 117
f 118 103 101
f 119 85 87
f 119 117 85
f 120 117 119
f 120 118 117
f 121 122 123
f 121 124 122
f 125 126 127
f 128 125 127
f 129 130 124
f 129 131 130
f 30 124 121
f 30 129 124
f 132 131 129
f 132 133 131
f 32 129 30
f 32 132 129
f 134 135 136
f 126 134 136
f 126 136 33
f 127 126 33
f 135 137 138
f 136 135 138
f 136 138 34
f 33 136 34
f 139 140 141
f 139 142 140
f 52 141 50
f 52 139 141
f 122 142 139
f 122 143 142
f 123 139 52
f 123 122 139
f 144 145 146
f 147 144 146
f 147 146 54
f 53 147 54
f 145 148 125
f 146 145 125
f 146 125 128
f 54 146 128
f 149 150 151
f 149 152 150
f 76 151 74
f 76 149 151
f 153 154 155
f 156 153 155
f 156 155 78
f 77 156 78
f 157 158 159
f 157 160 158
f 108 159 106
f 108 157 159
f 151 160 157
f 151 150 160
f 74 157 108
f 74 151 157
f 161 162 163
f 164 161 163
f 164 163 110
f 109 164 110
f 162 153 156
f 163 162 156
f 163 156 77
f 110 163 77
f 165 166 167
f 166 168 167
f 169 170 171
f 170 172 171
f 173 174 175
f 174 176 175
f 177 178 179
f 178 180 179
f 181 182 183
f 182 184 183
f 185 186 187
f 186 188 187
f 189 190 191
f 190 192 191
f 193 194 195
f 194 196 195
f 197 198 199
f 200 197 199
f 201 202 203
f 204 201 203
f 204 203 198
f 197 204 198
f 200 199 205
f 206 200 205
f 206 205 207
f 208 206 207
f 198 209 210
f 199 198 210
f 209 211 212
f 210 209 212
f 202 213 214
f 203 202 214
f 213 215 216
f 214 213 216
f 203 214 209
f 198 203 209
f 214 216 211
f 209 214 211
f 199 210 217
f 205 199 217
f 210 212 218
f 217 210 218
f 205 217 219
f 207 205 219
f 217 218 220
f 219 217 220
f 221 222 223
f 221 224 222
f 225 226 227
f 228 225 227
f 229 224 221
f 229 230 224
f 226 231 232
f 227 226 232
f 223 233 234
f 223 222 233
f 235 225 228
f 236 235 228
f 237 238 239
f 237 240 238
f 241 242 243
f 244 241 243
f 245 246 247
f 246 248 247
f 249 250 251
f 250 252 251
f 253 254 255
f 254 256 255
f 257 258 259
f 258 260 259
f 261 262 263
f 262 264 263
f 265 266 267
f 266 268 267
f 269 270 271
f 270 272 271
f 266 273 268
f 273 274 268
f 262 275 264
f 275 276 264
f 277 265 278
f 265 267 278
f 275 279 276
f 279 280 276
f 281 282 283
f 282 284 283
f 285 286 287
f 286 288 287
f 289 290 291
f 290 292 291
f 293 294 295
f 294 296 295
f 297 298 299
f 298 300 299
f 301 302 303
f 302 304 303
f 305 306 307
f 306 308 307
f 309 310 311
f 310 312 311
f 313 301 314
f 301 303 314
f 302 315 304
f 315 316 304
f 317 305 318
f 305 307 318
f 319 320 321
f 320 322 321
f 323 317 324
f 317 318 324
f 325 326 327
f 325 328 326
f 329 330 331
f 332 329 331
v -13.43359 21.33992 139.3376
v 13.88197 21.33992 139.3618
v -13.43602 21.33992 142.0714
v 13.87954 21.33992 142.0957
v -13.43602 5.260078 142.0714
v 13.87954 5.260077 142.0957
v -13.43359 5.260077 139.3376
v 13.88197 5.260076 139.3618
v -13.43602 21.33992 142.0714
v 13.87954 21.33992 142.0957
v -13.43602 5.260078 142.0714
v 13.87954 5.260077 142.0957
v -13.43359 5.260077 139.3376
v -13.43359 21.33992 139.3376
v 13.88197 21.33992 139.3618
v 13.88197 5.260076 139.3618
v 13.88197 21.33992 139.3618
v 13.87954 21.33992 142.0957
v 13.87954 5.260077 142.0957
v 13.88197 5.260076 139.3618
v -13.43359 5.260077 139.3376
v -13.43602 5.260078 142.0714
v -13.43602 21.33992 142.0714
v -13.43359 21.33992 139.3376
f 333 335 336
f 333 336 334
f 341 337 338
f 341 338 342
f 343 339 340
f 343 340 344
f 345 346 347
f 345 347 348
f 349 350 351
f 349 351 352
f 353 354 355
f 353 355 356
