v -22 -23 -10
v -14 -23 -10
v -22 -20 -10
v -14 -20 -10
v -14 -23 -22
v -22 -23 -22
v -14 -16 -22
v -22 -16 -22
v -22 -23 -22
v -22 -23 -16
v -22 -16 -22
v -22 -16 -16
v -22 -23 -22
v -14 -23 -22
v -22 -23 -16
v -14 -23 -16
v -22 -23 -10
v -14 -23 -10
v -22 -20 -10
v -22 -23 -10
v -4 -23 -16
v -4 -23 -22
v -4 -23 -22
v -4 -16 -22
v -22 -16 -16
v -14 -16 -16
v -22 -16 -22
v -14 -16 -22
v -14 -16 -16
v -22 -16 -16
v -14 -20 -10
v -22 -20 -10
v -4 -16 -22
v -4 -16 -16
v -4 -23 -16
v -4 -23 -22
v -4 -16 -16
v -4 -16 -22
v -14 -23 -16
v -14 -16 -16
v -14 -23 -10
v -14 -20 -10
v -14 -16 -16
v -14 -23 -16
v -4 -16 -16
v -4 -23 -16
f 1 2 3
f 2 4 3
f 5 6 7
f 6 8 7
f 9 10 11
f 10 12 11
f 13 14 15
f 14 16 15
f 15 16 17
f 16 18 17
f 12 10 19
f 10 20 19
f 16 14 21
f 14 22 21
f 5 7 23
f 7 24 23
f 25 26 27
f 26 28 27
f 29 30 31
f 30 32 31
f 28 26 33
f 26 34 33
f 35 36 37
f 36 38 37
f 39 40 41
f 40 42 41
f 43 44 45
f 44 46 45
v 8.877663 -15.0391 17.94821
v 9.943824 -12.09206 21.84414
v 8.644864 -13.82734 17.09529
v 9.711025 -10.8803 20.99122
v 9.943824 -12.09206 21.84414
v 12.35531 -12.09285 21.1848
v 9.711025 -10.8803 20.99122
v 12.12221 -10.88071 20.33168
v 12.35531 -12.09285 21.1848
v 11.28915 -15.03989 17.28888
v 12.12221 -10.88071 20.33168
v 11.05605 -13.82775 16.43575
v 11.28915 -15.03989 17.28888
v 8.877663 -15.0391 17.94821
v 11.05605 -13.82775 16.43575
v 8.644864 -13.82734 17.09529
v 8.644864 -13.82734 17.09529
v 9.711025 -10.8803 20.99122
v 11.05605 -13.82775 16.43575
v 12.12221 -10.88071 20.33168
v 11.28915 -15.03989 17.28888
v 12.35531 -12.09285 21.1848
v 8.877663 -15.0391 17.94821
v 9.943824 -12.09206 21.84414
f 47 48 49
f 48 50 49
f 51 52 53
f 52 54 53
f 55 56 57
f 56 58 57
f 59 60 61
f 60 62 61
f 63 64 65
f 64 66 65
f 67 68 69
f 68 70 69
v -22 -20 22
v -18 -20 22
v -22 -14 22
v -18 -14 22
v -18 -20 22
v -18 -20 18
v -18 -14 22
v -18 -14 18
v -18 -20 18
v -22 -20 18
v -18 -14 18
v -22 -14 18
v -22 -20 18
v -22 -20 22
v -22 -14 18
v -22 -14 22
v -22 -14 22
v -18 -14 22
v -22 -14 18
v -18 -14 18
v -22 -20 18
v -18 -20 18
v -22 -20 22
v -18 -20 22
f 71 72 73
f 72 74 73
f 75 76 77
f 76 78 77
f 79 80 81
f 80 82 81
f 83 84 85
f 84 86 85
f 87 88 89
f 88 90 89
f 91 92 93
f 92 94 93
v 0.7071068 -20.1 0.7071068
v 0 -20.1 0
v 1 -20.1 0
v 0 -20.1 1
v -0.7071068 -20.1 0.7071068
v -1 -20.1 -8.742278E-08
v -0.7071068 -20.1 -0.7071067
v 0 -20.1 -1
v 0.7071066 -20.1 -0.7071069
v 1 -15.6 0
v 0 -15.6 0
v 0.7071068 -15.6 0.7071068
v 0 -15.6 1
v -0.7071068 -15.6 0.7071068
v -1 -15.6 -8.940697E-08
v -0.7071068 -15.6 -0.7071067
v 0 -15.6 -1
v 0.7071066 -15.6 -0.7071069
v 0.7071068 -17.6 0.7071068
v 1 -17.6 0
v 0.7071068 -15.6 0.7071068
v 1 -15.6 0
v 0 -17.6 1
v 0.7071068 -17.6 0.7071068
v 0 -15.6 1
v 0.7071068 -15.6 0.7071068
v -0.7071068 -17.6 0.7071068
v 0 -17.6 1
v -0.7071068 -15.6 0.7071068
v 0 -15.6 1
v -1 -15.6 -8.940697E-08
v -0.7071068 -17.6 0.7071068
v -0.7071068 -15.6 0.7071068
v -1 -17.6 -8.940697E-08
v -0.7071068 -15.6 -0.7071067
v -1 -17.6 -8.940697E-08
v -1 -15.6 -8.940697E-08
v -0.7071068 -17.6 -0.7071067
v -0.7071068 -15.6 -0.7071067
v 0 -15.6 -1
v 0 -17.6 -1
v -0.7071068 -17.6 -0.7071067
v 0.7071066 -15.6 -0.7071069
v 0 -17.6 -1
v 0 -15.6 -1
v 0.7071066 -17.6 -0.7071069
v 1 -17.6 0
v 0.7071066 -17.6 -0.7071069
v 0.7071066 -15.6 -0.7071069
v 1 -15.6 0
v 0.7071068 -20.1 0.7071068
v 1 -20.1 0
v 1 -19.6 0
v 0.7071068 -19.6 0.7071068
v 0.1330816 -19.6 0.1330817
v 0.1882058 -19.6 5.960464E-08
v 0.1882058 -17.6 5.960464E-08
v 0.1330816 -17.6 0.1330817
v 0 -20.1 1
v 0.7071068 -20.1 0.7071068
v 0 -19.6 1
v 0.7071068 -19.6 0.7071068
v -1.490116E-08 -19.6 0.1882058
v 0.1330816 -19.6 0.1330817
v 0.1330816 -17.6 0.1330817
v -1.490116E-08 -17.6 0.1882058
v -0.7071068 -20.1 0.7071068
v 0 -20.1 1
v -0.7071068 -19.6 0.7071068
v 0 -19.6 1
v -0.1330817 -19.6 0.1330817
v -1.490116E-08 -19.6 0.1882058
v -1.490116E-08 -17.6 0.1882058
v -0.1330817 -17.6 0.1330817
v -1 -19.6 -8.940697E-08
v -0.7071068 -20.1 0.7071068
v -0.7071068 -19.6 0.7071068
v -1 -20.1 -8.742278E-08
v -0.188206 -17.6 -2.980232E-08
v -0.1330817 -19.6 0.1330817
v -0.1330817 -17.6 0.1330817
v -0.188206 -19.6 -2.980232E-08
v -1 -19.6 -8.940697E-08
v -0.7071068 -19.6 -0.7071067
v -0.7071068 -20.1 -0.7071067
v -1 -20.1 -8.742278E-08
v -0.188206 -17.6 -2.980232E-08
v -0.1330817 -17.6 -0.1330816
v -0.1330817 -19.6 -0.1330816
v -0.188206 -19.6 -2.980232E-08
v 5.960464E-08 -17.6 -0.1882058
v -0.1330817 -19.6 -0.1330816
v -0.1330817 -17.6 -0.1330816
v 5.960464E-08 -19.6 -0.1882058
v 0 -19.6 -1
v -0.7071068 -20.1 -0.7071067
v -0.7071068 -19.6 -0.7071067
v 0 -20.1 -1
v 0.7071066 -19.6 -0.7071069
v 0 -20.1 -1
v 0 -19.6 -1
v 0.7071066 -20.1 -0.7071069
v 0.1330816 -17.6 -0.1330817
v 5.960464E-08 -19.6 -0.1882058
v 5.960464E-08 -17.6 -0.1882058
v 0.1330816 -19.6 -0.1330817
v 1 -20.1 0
v 0.7071066 -20.1 -0.7071069
v 0.7071066 -19.6 -0.7071069
v 1 -19.6 0
v 0.1882058 -19.6 5.960464E-08
v 0.1330816 -19.6 -0.1330817
v 0.1330816 -17.6 -0.1330817
v 0.1882058 -17.6 5.960464E-08
v 1 -19.6 0
v 0.7071066 -19.6 -0.7071069
v 0.1882058 -19.6 5.960464E-08
v 0.1330816 -19.6 -0.1330817
v 0 -19.6 -1
v 5.960464E-08 -19.6 -0.1882058
v 0.7071066 -17.6 -0.7071069
v 1 -17.6 0
v 0.1330816 -17.6 -0.1330817
v 0.1882058 -17.6 5.960464E-08
v -0.7071068 -19.6 -0.7071067
v -0.1330817 -19.6 -0.1330816
v 0 -17.6 -1
v 5.960464E-08 -17.6 -0.1882058
v -1 -19.6 -8.940697E-08
v -0.188206 -19.6 -2.980232E-08
v -0.7071068 -17.6 -0.7071067
v -0.1330817 -17.6 -0.1330816
v -1 -17.6 -8.940697E-08
v -0.188206 -17.6 -2.980232E-08
v -0.7071068 -19.6 0.7071068
v -0.1330817 -19.6 0.1330817
v 0 -17.6 1
v -0.7071068 -17.6 0.7071068
v -1.490116E-08 -17.6 0.1882058
v -0.1330817 -17.6 0.1330817
v 0 -19.6 1
v -1.490116E-08 -19.6 0.1882058
v 0.7071068 -17.6 0.7071068
v 0.1330816 -17.6 0.1330817
v 0.7071068 -19.6 0.7071068
v 0.1330816 -19.6 0.1330817
f 95 96 97
f 98 96 95
f 99 96 98
f 100 96 99
f 101 96 100
f 102 96 101
f 103 96 102
f 97 96 103
f 104 105 106
f 106 105 107
f 107 105 108
f 108 105 109
f 109 105 110
f 110 105 111
f 111 105 112
f 112 105 104
f 113 114 115
f 114 116 115
f 117 118 119
f 118 120 119
f 121 122 123
f 122 124 123
f 125 126 127
f 125 128 126
f 129 130 131
f 129 132 130
f 133 134 135
f 133 135 136
f 137 138 139
f 137 140 138
f 141 142 143
f 144 141 143
f 145 146 147
f 148 145 147
f 149 150 151
f 152 149 151
f 153 154 155
f 154 156 155
f 157 158 159
f 160 157 159
f 161 162 163
f 162 164 163
f 165 166 167
f 168 165 167
f 169 170 171
f 169 172 170
f 173 174 175
f 173 176 174
f 177 178 179
f 177 179 180
f 181 182 183
f 181 183 184
f 185 186 187
f 185 188 186
f 189 190 191
f 189 192 190
f 193 194 195
f 193 196 194
f 197 198 199
f 197 200 198
f 201 202 203
f 204 201 203
f 205 206 207
f 208 205 207
f 209 210 211
f 210 212 211
f 210 213 212
f 213 214 212
f 215 216 217
f 216 218 217
f 213 219 214
f 219 220 214
f 221 215 222
f 215 217 222
f 219 223 220
f 223 224 220
f 225 221 226
f 221 222 226
f 227 225 228
f 225 226 228
f 223 229 224
f 229 230 224
f 231 232 233
f 232 234 233
f 232 227 234
f 227 228 234
f 229 235 230
f 235 236 230
f 237 231 238
f 231 233 238
f 235 239 236
f 239 240 236
f 216 237 218
f 237 238 218
f 239 209 240
f 209 211 240
v 9.16 -17.49993 16.25
v 16.66 -17.49993 16.25
v 9.16 -17.50007 14.75
v 16.66 -17.50007 14.75
v 16.66 -17.49993 16.25
v 16.66 -19.99993 16.25024
v 16.66 -17.50007 14.75
v 16.66 -19.99983 14.74976
v 16.66 -19.99993 16.25024
v 9.16 -19.99993 16.25024
v 16.66 -19.99983 14.74976
v 9.16 -19.99983 14.74976
v 9.16 -19.99993 16.25024
v 9.16 -17.49993 16.25
v 9.16 -19.99983 14.74976
v 9.16 -17.50007 14.75
v 9.16 -17.50007 14.75
v 16.66 -17.50007 14.75
v 9.16 -19.99983 14.74976
v 16.66 -19.99983 14.74976
v 9.16 -19.99993 16.25024
v 16.66 -19.99993 16.25024
v 9.16 -17.49993 16.25
v 16.66 -17.49993 16.25
f 241 242 243
f 242 244 243
f 245 246 247
f 246 248 247
f 249 250 251
f 250 252 251
f 253 254 255
f 254 256 255
f 257 258 259
f 258 260 259
f 261 262 263
f 262 264 263
v 8.468315 -17.5 21.7605
v 13.4658 -17.5 21.60208
v 8.420788 -17.5 20.26125
v 13.41828 -17.5 20.10283
v 13.4658 -17.5 21.60208
v 13.4658 -20 21.60207
v 13.41828 -17.5 20.10283
v 13.41826 -19.99976 20.10235
v 13.4658 -20 21.60207
v 8.468315 -20 21.7605
v 13.41826 -19.99976 20.10235
v 8.420773 -19.99976 20.26077
v 8.468315 -20 21.7605
v 8.468315 -17.5 21.7605
v 8.420773 -19.99976 20.26077
v 8.420788 -17.5 20.26125
v 8.420788 -17.5 20.26125
v 13.41828 -17.5 20.10283
v 8.420773 -19.99976 20.26077
v 13.41826 -19.99976 20.10235
v 8.468315 -20 21.7605
v 13.4658 -20 21.60207
v 8.468315 -17.5 21.7605
v 13.4658 -17.5 21.60208
f 265 266 267
f 266 268 267
f 269 270 271
f 270 272 271
f 273 274 275
f 274 276 275
f 277 278 279
f 278 280 279
f 281 282 283
f 282 284 283
f 285 286 287
f 286 288 287
v 0.55 -18.60077 -7.000002
v 0.55 -18.59923 7.000002
v 0.3889088 -18.98968 -7.000002
v 0.3889088 -18.98814 7.000002
v 0.3889088 -18.98968 -7.000002
v 0.3889088 -18.98814 7.000002
v 0 -19.15077 -7.000001
v 0 -19.14923 7.000001
v 0 -19.15077 -7.000001
v 0 -19.14923 7.000001
v -0.3889088 -18.98968 -7.000002
v -0.3889088 -18.98814 7.000002
v -0.3889088 -18.98968 -7.000002
v -0.3889088 -18.98814 7.000002
v -0.55 -18.60077 -7.000002
v -0.55 -18.59923 7.000002
v -0.55 -18.60077 -7.000002
v -0.55 -18.59923 7.000002
v -0.3889088 -18.21186 -7.000002
v -0.3889088 -18.21032 7.000002
v -0.3889088 -18.21186 -7.000002
v -0.3889088 -18.21032 7.000002
v 0 -18.05077 -7.000001
v 0 -18.04923 7.000001
v 0 -18.05077 -7.000001
v 0 -18.04923 7.000001
v 0.3889087 -18.21186 -7.000002
v 0.3889087 -18.21032 7.000002
v 0.3889087 -18.21186 -7.000002
v 0.3889087 -18.21032 7.000002
v 0.55 -18.60077 -7.000002
v 0.55 -18.59923 7.000002
v 0.3889088 -18.98968 -7.000002
v 0 -18.60077 -7.000002
v 0.55 -18.60077 -7.000002
v 0 -19.15077 -7.000001
v -0.3889088 -18.98968 -7.000002
v -0.55 -18.60077 -7.000002
v -0.3889088 -18.21186 -7.000002
v 0 -18.05077 -7.000001
v 0.3889087 -18.21186 -7.000002
v 0.55 -18.59923 7.000002
v 0 -18.59923 7.000002
v 0.3889088 -18.98814 7.000002
v 0 -19.14923 7.000001
v -0.3889088 -18.98814 7.000002
v -0.55 -18.59923 7.000002
v -0.3889088 -18.21032 7.000002
v 0 -18.04923 7.000001
v 0.3889087 -18.21032 7.000002
f 289 290 291
f 290 292 291
f 293 294 295
f 294 296 295
f 297 298 299
f 298 300 299
f 301 302 303
f 302 304 303
f 305 306 307
f 306 308 307
f 309 310 311
f 310 312 311
f 313 314 315
f 314 316 315
f 317 318 319
f 318 320 319
f 321 322 323
f 324 322 321
f 325 322 324
f 326 322 325
f 327 322 326
f 328 322 327
f 329 322 328
f 323 322 329
f 330 331 332
f 332 331 333
f 333 331 334
f 334 331 335
f 335 331 336
f 336 331 337
f 337 331 338
f 338 331 330
v 13.5 -20 9.5
v 14 -20 8
v 14 -16 8
v 13.5 -16 9.5
v 14 -20 8
v 13.5 -20 6.5
v 13.5 -16 6.5
v 14 -16 8
v 10.5 -16 6.5
v 10 -20 8
v 10 -16 8
v 10.5 -20 6.5
v 10 -16 8
v 10.5 -20 9.5
v 10.5 -16 9.5
v 10 -20 8
v 10.5 -20 9.5
v 12 -20 10
v 12 -16 10
v 10.5 -16 9.5
v 12 -20 10
v 13.5 -20 9.5
v 13.5 -16 9.5
v 12 -16 10
v 13.5 -16 6.5
v 12 -20 6
v 12 -16 6
v 13.5 -20 6.5
v 12 -16 6
v 10.5 -20 6.5
v 10.5 -16 6.5
v 12 -20 6
v 14 -16 8
v 12 -16 8
v 12 -16 10
v 13.5 -16 9.5
v 10 -16 8
v 10.5 -16 9.5
v 13.5 -16 6.5
v 12 -16 6
v 10.5 -16 6.5
v 12 -20 8
v 13.5 -20 6.5
v 14 -20 8
v 12 -20 6
v 10 -20 8
v 10.5 -20 6.5
v 12 -20 10
v 13.5 -20 9.5
v 10.5 -20 9.5
f 339 340 341
f 342 339 341
f 343 344 345
f 346 343 345
f 347 348 349
f 347 350 348
f 351 352 353
f 351 354 352
f 355 356 357
f 358 355 357
f 359 360 361
f 362 359 361
f 363 364 365
f 363 366 364
f 367 368 369
f 367 370 368
f 371 372 373
f 374 371 373
f 372 375 376
f 373 372 376
f 377 378 372
f 371 377 372
f 378 379 375
f 372 378 375
f 380 381 382
f 380 383 381
f 384 383 380
f 384 385 383
f 386 382 387
f 386 380 382
f 388 380 386
f 388 384 380
v 9 -17.5 21.76
v 14 -17.5 21.76
v 9 -15 21.76
v 14 -15 21.76
v 14 -17.5 21.76
v 14 -17.5 14.26
v 14 -15 21.76
v 14 -15 14.26
v 14 -17.5 14.26
v 9 -17.5 14.26
v 14 -15 14.26
v 9 -15 14.26
v 9 -17.5 14.26
v 9 -17.5 21.76
v 9 -15 14.26
v 9 -15 21.76
v 9 -15 21.76
v 14 -15 21.76
v 9 -15 14.26
v 14 -15 14.26
v 9 -17.5 14.26
v 14 -17.5 14.26
v 9 -17.5 21.76
v 14 -17.5 21.76
f 389 390 391
f 390 392 391
f 393 394 395
f 394 396 395
f 397 398 399
f 398 400 399
f 401 402 403
f 402 404 403
f 405 406 407
f 406 408 407
f 409 410 411
f 410 412 411
v -16 -20 4
v -11 -20 4
v -16 -17.5 4
v -11 -17.5 4
v -11 -20 4
v -11 -20 -1
v -11 -17.5 4
v -11 -17.5 -1
v -11 -20 -1
v -16 -20 -1
v -11 -17.5 -1
v -16 -17.5 -1
v -16 -20 -1
v -16 -20 4
v -16 -17.5 -1
v -16 -17.5 4
v -16 -17.5 4
v -11 -17.5 4
v -16 -17.5 -1
v -11 -17.5 -1
v -16 -20 -1
v -11 -20 -1
v -16 -20 4
v -11 -20 4
f 413 414 415
f 414 416 415
f 417 418 419
f 418 420 419
f 421 422 423
f 422 424 423
f 425 426 427
f 426 428 427
f 429 430 431
f 430 432 431
f 433 434 435
f 434 436 435
v -22 -20 18
v -18 -20 18
v -22 -17 18
v -18 -17 18
v -18 -20 18
v -18 -20 14
v -18 -17 18
v -18 -17 14
v -18 -20 14
v -22 -20 14
v -18 -17 14
v -22 -17 14
v -22 -20 14
v -22 -20 18
v -22 -17 14
v -22 -17 18
v -22 -17 18
v -18 -17 18
v -22 -17 14
v -18 -17 14
v -22 -20 14
v -18 -20 14
v -22 -20 18
v -18 -20 18
f 437 438 439
f 438 440 439
f 441 442 443
f 442 444 443
f 445 446 447
f 446 448 447
f 449 450 451
f 450 452 451
f 453 454 455
f 454 456 455
f 457 458 459
f 458 460 459
v 13.5 -20 -0.5
v 14 -20 -2
v 14 -16 -2
v 13.5 -16 -0.5
v 14 -20 -2
v 13.5 -20 -3.5
v 13.5 -16 -3.5
v 14 -16 -2
v 10.5 -16 -3.5
v 10 -20 -2
v 10 -16 -2
v 10.5 -20 -3.5
v 10 -16 -2
v 10.5 -20 -0.5
v 10.5 -16 -0.5
v 10 -20 -2
v 10.5 -20 -0.5
v 12 -20 0
v 12 -16 0
v 10.5 -16 -0.5
v 12 -20 0
v 13.5 -20 -0.5
v 13.5 -16 -0.5
v 12 -16 0
v 13.5 -16 -3.5
v 12 -20 -4
v 12 -16 -4
v 13.5 -20 -3.5
v 12 -16 -4
v 10.5 -20 -3.5
v 10.5 -16 -3.5
v 12 -20 -4
v 14 -16 -2
v 12 -16 -2
v 12 -16 0
v 13.5 -16 -0.5
v 10 -16 -2
v 10.5 -16 -0.5
v 13.5 -16 -3.5
v 12 -16 -4
v 10.5 -16 -3.5
v 12 -20 -2
v 13.5 -20 -3.5
v 14 -20 -2
v 12 -20 -4
v 10 -20 -2
v 10.5 -20 -3.5
v 12 -20 0
v 13.5 -20 -0.5
v 10.5 -20 -0.5
f 461 462 463
f 464 461 463
f 465 466 467
f 468 465 467
f 469 470 471
f 469 472 470
f 473 474 475
f 473 476 474
f 477 478 479
f 480 477 479
f 481 482 483
f 484 481 483
f 485 486 487
f 485 488 486
f 489 490 491
f 489 492 490
f 493 494 495
f 496 493 495
f 494 497 498
f 495 494 498
f 499 500 494
f 493 499 494
f 500 501 497
f 494 500 497
f 502 503 504
f 502 505 503
f 506 505 502
f 506 507 505
f 508 504 509
f 508 502 504
f 510 502 508
f 510 506 502
v 22 -16 22
v 22 -16 -22
v 22 -20 22
v 22 -20 -22
v -22 -20 22
v -22 -20 -22
v -22 -16 -22
v -22 -16 22
v 22 19 -22
v 22 -12 -22
v 22 19 22
v 22 -12 22
v -22 19 22
v -22 -12 22
v -22 -12 -22
v -22 19 -22
v 2 19 22
v 22 19 -22
v 22 19 22
v 2 19 -22
v 22 -16 22
v 22 -20 22
v 2 -16 22
v 2 -20 22
v 2.5 -16 -22
v 2 -20 -22
v 22 -20 -22
v 22 -16 -22
v 22 19 22
v 22 -12 22
v 2 19 22
v 2 -12 22
v 2 19 -22
v 2.5 -11 -22
v 22 -12 -22
v 22 19 -22
v 0 19 22
v 0 19 -22
v -22 19 22
v -22 19 -22
v 0 -16 22
v 0 -20 22
v -22 -20 22
v -22 -16 22
v -22 -16 -22
v -22 -20 -22
v -0.5 -16 -22
v 0 -20 -22
v 0 19 22
v 0 -12 22
v -22 -12 22
v -22 19 22
v -22 19 -22
v -22 -12 -22
v 0 19 -22
v -0.5 -11 -22
v -0.5 -15.96877 -30
v 2.5 -15.96877 -30
v 2.5 -11 -30
v -0.5 -11 -30
v -0.5 -16 -22
v 2.5 -16 -22
v -0.5 -15.96877 -30
v 2.5 -15.96877 -30
v 2.5 -16 -22
v 2.5 -11 -22
v 2.5 -15.96877 -30
v 2.5 -11 -30
v -0.5 -11 -22
v -0.5 -16 -22
v -0.5 -11 -30
v -0.5 -15.96877 -30
v 2.5 -11 -22
v -0.5 -11 -22
v 2.5 -11 -30
v -0.5 -11 -30
v 22 -20 -22
v 2 -20 -22
v 2 -20 22
v 22 -20 22
v 0 -20 -22
v 0 -20 22
v -22 -20 -22
v -22 -20 22
f 511 512 513
f 512 514 513
f 515 516 517
f 515 517 518
f 519 520 521
f 520 522 521
f 522 520 511
f 520 512 511
f 523 524 525
f 523 525 526
f 518 517 525
f 518 525 524
f 527 528 529
f 527 530 528
f 531 532 533
f 532 534 533
f 535 536 537
f 535 537 538
f 539 540 541
f 540 542 541
f 540 531 542
f 531 533 542
f 543 544 545
f 543 545 546
f 544 535 538
f 544 538 545
f 547 530 527
f 547 548 530
f 549 548 547
f 549 550 548
f 551 552 553
f 551 553 554
f 533 552 551
f 533 534 552
f 555 556 557
f 556 558 557
f 558 536 535
f 557 558 535
f 559 560 561
f 559 561 562
f 541 560 559
f 541 542 560
f 560 551 554
f 560 554 561
f 542 551 560
f 542 533 551
f 563 564 565
f 564 566 565
f 566 544 543
f 565 566 543
f 564 555 566
f 555 557 566
f 567 568 569
f 570 567 569
f 571 572 573
f 572 574 573
f 575 576 577
f 576 578 577
f 579 580 581
f 580 582 581
f 583 584 585
f 584 586 585
f 587 588 589
f 590 587 589
f 588 591 592
f 589 588 592
f 591 593 594
f 592 591 594
v -18 -20 22
v -14 -20 22
v -18 -11 22
v -14 -11 22
v -14 -20 22
v -14 -20 18
v -14 -11 22
v -14 -11 18
v -14 -20 18
v -18 -20 18
v -14 -11 18
v -18 -11 18
v -18 -20 18
v -18 -20 22
v -18 -11 18
v -18 -11 22
v -18 -11 22
v -14 -11 22
v -18 -11 18
v -14 -11 18
v -18 -20 18
v -14 -20 18
v -18 -20 22
v -14 -20 22
f 595 596 597
f 596 598 597
f 599 600 601
f 600 602 601
f 603 604 605
f 604 606 605
f 607 608 609
f 608 610 609
f 611 612 613
f 612 614 613
f 615 616 617
f 616 618 617
v 6 -22 -16
v 10 -22 -16
v 6 -16 -16
v 10 -16 -16
v 22 -22 -16
v 22 -22 -22
v 22 -16 -16
v 22 -16 -22
v 10 -22 -22
v 6 -22 -22
v 10 -16 -22
v 6 -16 -22
v 6 -22 -22
v 6 -22 -16
v 6 -16 -22
v 6 -16 -16
v 6 -22 -22
v 10 -22 -22
v 6 -22 -16
v 10 -22 -16
v 14 -22 -16
v 14 -22 -22
v 10 -16 -10
v 10 -22 -10
v 14 -16 -10
v 14 -22 -10
v 14 -22 -22
v 14 -16 -22
v 6 -20 -16
v 6 -20 -10
v 6 -22 -10
v 10 -22 -10
v 14 -22 -10
v 14 -22 -16
v 14 -16 -16
v 14 -22 -10
v 14 -16 -10
v 18 -22 -16
v 18 -22 -22
v 14 -16 -16
v 14 -22 -16
v 18 -16 -16
v 18 -22 -16
v 18 -22 -22
v 18 -16 -22
v 22 -22 -16
v 22 -22 -22
v 18 -20 -10
v 18 -22 -10
v 22 -20 -10
v 22 -22 -10
v 22 -22 -22
v 22 -16 -22
v 18 -16 -16
v 18 -22 -16
v 18 -20 -10
v 18 -22 -10
v 18 -22 -10
v 22 -22 -10
v 22 -22 -10
v 22 -20 -10
v 10 -16 -16
v 10 -22 -16
v 6 -20 -16
v 6 -22 -16
v 6 -22 -10
v 6 -22 -10
v 6 -20 -10
v 6 -16 -16
v 10 -16 -16
v 6 -16 -22
v 10 -16 -22
v 14 -16 -22
v 14 -16 -16
v 14 -16 -10
v 10 -16 -10
v 18 -16 -22
v 18 -16 -16
v 22 -16 -22
v 22 -16 -16
v 22 -16 -16
v 18 -16 -16
v 22 -20 -10
v 18 -20 -10
v 10 -16 -10
v 10 -16 -16
v 6 -20 -10
v 6 -20 -16
f 619 620 621
f 620 622 621
f 623 624 625
f 624 626 625
f 627 628 629
f 628 630 629
f 631 632 633
f 632 634 633
f 635 636 637
f 636 638 637
f 638 636 639
f 636 640 639
f 641 642 643
f 642 644 643
f 627 629 645
f 629 646 645
f 647 632 648
f 632 649 648
f 638 639 650
f 639 651 650
f 652 653 654
f 653 655 654
f 639 640 656
f 640 657 656
f 658 659 660
f 659 661 660
f 645 646 662
f 646 663 662
f 656 657 664
f 657 665 664
f 666 667 668
f 667 669 668
f 662 663 670
f 663 671 670
f 672 673 674
f 673 675 674
f 656 664 676
f 664 677 676
f 623 625 678
f 625 679 678
f 680 681 682
f 681 683 682
f 638 650 637
f 650 684 637
f 642 641 685
f 641 686 685
f 687 688 689
f 688 690 689
f 690 688 691
f 688 692 691
f 692 688 693
f 688 694 693
f 691 692 695
f 692 696 695
f 695 696 697
f 696 698 697
f 699 700 701
f 700 702 701
f 703 704 705
f 704 706 705
v -10 -11 18
v -14 -11 18
v -14 -11 22
v -10 -11 22
v -6 -11 18
v -6 -11 22
v -14 -22 22
v -10 -22 18
v -10 -22 22
v -14 -22 18
v -6 -22 18
v -6 -22 22
v -3 -22 22
v -3 -22 15
v -3 -20 15
v -3 -20 22
v -6 -17 22
v -6 -17 18
v -6 -11 18
v -6 -11 22
v -14 -17 18
v -14 -22 22
v -14 -17 22
v -14 -22 18
v -14 -11 18
v -14 -11 22
v -14 -22 22
v -10 -22 22
v -10 -17 22
v -14 -17 22
v -10 -11 22
v -14 -11 22
v -6 -22 22
v -6 -17 22
v -6 -11 22
v -3 -20 15
v -10 -22 15
v -10 -20 15
v -3 -22 15
v -6 -11 18
v -10 -17 18
v -10 -11 18
v -6 -17 18
v -14 -22 18
v -14 -17 18
v -10 -22 18
v -14 -11 18
v -3 -22 22
v -3 -22 15
v -10 -22 15
v -3 -20 22
v -3 -22 22
v -6 -17 18
v -6 -17 22
v -3 -20 15
v -3 -20 22
v -10 -22 18
v -10 -17 18
v -10 -22 15
v -10 -20 15
v -10 -17 18
v -6 -17 18
v -10 -20 15
v -3 -20 15
f 707 708 709
f 710 707 709
f 711 707 710
f 712 711 710
f 713 714 715
f 713 716 714
f 715 717 718
f 715 714 717
f 719 720 721
f 722 719 721
f 723 724 725
f 726 723 725
f 727 728 729
f 727 730 728
f 731 729 732
f 731 727 729
f 733 734 735
f 736 733 735
f 736 735 737
f 738 736 737
f 734 739 740
f 735 734 740
f 735 740 741
f 737 735 741
f 742 743 744
f 742 745 743
f 746 747 748
f 746 749 747
f 747 750 751
f 747 752 750
f 748 751 753
f 748 747 751
f 718 717 754
f 717 755 754
f 717 714 755
f 714 756 755
f 740 739 757
f 739 758 757
f 759 760 761
f 760 762 761
f 763 764 765
f 764 766 765
f 767 768 769
f 768 770 769
v 6.624689 14.39048 20.22607
v 6.62468 -4.176207 20.22607
v 6.623148 14.39048 22.08431
v 6.62314 -4.176207 22.08431
v -4.306495 14.39049 22.07525
v -4.306504 -4.176201 22.07525
v -4.304955 14.39049 20.21701
v -4.304964 -4.176201 20.21701
v 6.623148 14.39048 22.08431
v 6.62314 -4.176207 22.08431
v -4.306495 14.39049 22.07525
v -4.306504 -4.176201 22.07525
v -4.304955 14.39049 20.21701
v 6.624689 14.39048 20.22607
v 6.62468 -4.176207 20.22607
v -4.304964 -4.176201 20.21701
v 6.62468 -4.176207 20.22607
v 6.62314 -4.176207 22.08431
v -4.306504 -4.176201 22.07525
v -4.304964 -4.176201 20.21701
v -4.304955 14.39049 20.21701
v -4.306495 14.39049 22.07525
v 6.623148 14.39048 22.08431
v 6.624689 14.39048 20.22607
f 771 773 774
f 771 774 772
f 779 775 776
f 779 776 780
f 781 777 778
f 781 778 782
f 783 784 785
f 783 785 786
f 787 788 789
f 787 789 790
f 791 792 793
f 791 793 794
v 2.5 -15.875 -23
v -0.375 -15.875 -23
v 2.5 -11 -23
v -0.375 -11 -23
v 2.5 -11 -36
v -0.375 -11 -36
v 2.5 -15.875 -36
v -0.375 -15.875 -36
v 2.5 -11 -23
v -0.375 -11 -23
v 2.5 -11 -36
v -0.375 -11 -36
v 2.5 -15.875 -36
v 2.5 -15.875 -23
v -0.375 -15.875 -23
v -0.375 -15.875 -36
v -0.375 -15.875 -23
v -0.375 -11 -23
v -0.375 -11 -36
v -0.375 -15.875 -36
v 2.5 -15.875 -36
v 2.5 -11 -36
v 2.5 -11 -23
v 2.5 -15.875 -23
f 795 797 798
f 795 798 796
f 803 799 800
f 803 800 804
f 805 801 802
f 805 802 806
f 807 808 809
f 807 809 810
f 811 812 813
f 811 813 814
f 815 816 817
f 815 817 818
v -20.55049 12.63245 -7.844178
v -20.56634 12.63245 11.29203
v -22.46573 12.63245 -7.845764
v -22.48158 12.63245 11.29044
v -22.46573 1.367546 -7.845764
v -22.48158 1.367546 11.29044
v -20.5505 1.367545 -7.844178
v -20.56635 1.367545 11.29203
v -22.46573 12.63245 -7.845764
v -22.48158 12.63245 11.29044
v -22.46573 1.367546 -7.845764
v -22.48158 1.367546 11.29044
v -20.5505 1.367545 -7.844178
v -20.55049 12.63245 -7.844178
v -20.56634 12.63245 11.29203
v -20.56635 1.367545 11.29203
v -20.56634 12.63245 11.29203
v -22.48158 12.63245 11.29044
v -22.48158 1.367546 11.29044
v -20.56635 1.367545 11.29203
v -20.5505 1.367545 -7.844178
v -22.46573 1.367546 -7.845764
v -22.46573 12.63245 -7.845764
v -20.55049 12.63245 -7.844178
f 819 821 822
f 819 822 820
f 827 823 824
f 827 824 828
f 829 825 826
f 829 826 830
f 831 832 833
f 831 833 834
f 835 836 837
f 835 837 838
f 839 840 841
f 839 841 842
v -4.305182 14.39048 -20.34611
v -4.305174 -4.176207 -20.3461
v -4.303632 14.39048 -22.20434
v -4.303623 -4.176208 -22.20434
v 6.626013 14.39049 -22.19522
v 6.626021 -4.176203 -22.19522
v 6.624462 14.39049 -20.33698
v 6.624471 -4.176202 -20.33698
v -4.303632 14.39048 -22.20434
v -4.303623 -4.176208 -22.20434
v 6.626013 14.39049 -22.19522
v 6.626021 -4.176203 -22.19522
v 6.624462 14.39049 -20.33698
v -4.305182 14.39048 -20.34611
v -4.305174 -4.176207 -20.3461
v 6.624471 -4.176202 -20.33698
v -4.305174 -4.176207 -20.3461
v -4.303623 -4.176208 -22.20434
v 6.626021 -4.176203 -22.19522
v 6.624471 -4.176202 -20.33698
v 6.624462 14.39049 -20.33698
v 6.626013 14.39049 -22.19522
v -4.303632 14.39048 -22.20434
v -4.305182 14.39048 -20.34611
f 843 845 846
f 843 846 844
f 851 847 848
f 851 848 852
f 853 849 850
f 853 850 854
f 855 856 857
f 855 857 858
f 859 860 861
f 859 861 862
f 863 864 865
f 863 865 866
v 20.36592 14.39048 -4.745168
v 20.36591 -4.176207 -4.745161
v 22.22415 14.39048 -4.743682
v 22.22414 -4.176208 -4.743675
v 22.21541 14.39049 6.185965
v 22.21541 -4.176204 6.185972
v 20.35718 14.39049 6.184479
v 20.35717 -4.176202 6.184486
v 22.22415 14.39048 -4.743682
v 22.22414 -4.176208 -4.743675
v 22.21541 14.39049 6.185965
v 22.21541 -4.176204 6.185972
v 20.35718 14.39049 6.184479
v 20.36592 14.39048 -4.745168
v 20.36591 -4.176207 -4.745161
v 20.35717 -4.176202 6.184486
v 20.36591 -4.176207 -4.745161
v 22.22414 -4.176208 -4.743675
v 22.21541 -4.176204 6.185972
v 20.35717 -4.176202 6.184486
v 20.35718 14.39049 6.184479
v 22.21541 14.39049 6.185965
v 22.22415 14.39048 -4.743682
v 20.36592 14.39048 -4.745168
f 867 869 870
f 867 870 868
f 875 871 872
f 875 872 876
f 877 873 874
f 877 874 878
f 879 880 881
f 879 881 882
f 883 884 885
f 883 885 886
f 887 888 889
f 887 889 890
