v 6 -25 -10
v 8 -25 -10
v 6 -22 -10
v 8 -22 -10
v 8 -25 -10
v 8 -25 -14
v 8 -22 -10
v 6 -25 -10
v 6 -22 -10
v 6 -25 -14
v 6 -25 -14
v 8 -25 -14
v 6 -25 -10
v 8 -25 -10
v 6 -22 -10
v 8 -22 -10
v 6 -25 -14
v 8 -25 -14
f 1 2 3
f 2 4 3
f 5 6 7
f 8 9 10
f 11 12 13
f 12 14 13
f 15 16 17
f 16 18 17
v 8 -42 10
v 10 -42 6
v 10 -42 10
v 8 -42 6
v 4 -42 10
v 4 -42 6
v -2 -42 10
v -2 -42 6
v -6 -42 10
v -6 -42 6
v -10 -42 10
v -10 -42 6
v 8 -42 -6
v 10 -42 -10
v 10 -42 -6
v 8 -42 -10
v 4 -42 -6
v 4 -42 -10
v -2 -42 -6
v -2 -42 -10
v -6 -42 -6
v -6 -42 -10
v -10 -42 -6
v -10 -42 -10
v 10 -18 6
v 6 -19 6
v 8 -18 10
v 10 -18 10
v 6 -19 6
v 4 -19 6
v 4 -18 10
v 8 -18 10
v -2 -19 6
v -2 -18 10
v -6 -19 6
v -6 -18 10
v -6 -19 6
v -10 -18 6
v -10 -18 10
v 10 -18 -10
v 8 -18 -10
v 6 -19 -6
v 10 -18 -6
v 6 -19 -6
v 6 -19 6
v 10 -18 6
v 4 -18 -10
v 4 -19 -6
v 6 -19 -6
v 6 -19 -6
v 4 -19 -6
v 4 -19 6
v 6 -19 6
v -2 -18 -10
v -2 -19 -6
v -2 -19 -6
v -2 -19 6
v -6 -18 -10
v -6 -19 -6
v -6 -19 -6
v -6 -19 6
v -6 -18 -10
v -10 -18 -10
v -10 -18 -6
v -6 -19 -6
v -6 -19 -6
v -10 -18 -6
v -6 -19 6
v 8 -42 10
v 10 -42 10
v 10 -30 10
v 8 -29 10
v 10 -30 -10
v 8 -42 -10
v 8 -29 -10
v 10 -42 -10
v 4 -42 10
v 4 -28 10
v 4 -42 -10
v 4 -28 -10
v 10 -26 10
v 8 -25 10
v 10 -18 10
v 8 -18 10
v 10 -26 -10
v 8 -25 -10
v 10 -18 -10
v 8 -18 -10
v 4 -28 5
v 8 -29 5
v 8 -25 5
v 4 -24 5
v 4 -24 10
v 4 -18 10
v 4 -24 -10
v 4 -18 -10
v 4 -28 10
v 8 -29 10
v 4 -28 5
v 8 -29 5
v 8 -29 10
v 8 -25 10
v 8 -29 5
v 8 -25 5
v 4 -24 10
v 4 -28 10
v 4 -24 5
v 4 -28 5
v 8 -25 10
v 4 -24 10
v 8 -25 5
v 4 -24 5
v -2 -42 10
v -2 -27 10
v -2 -42 -10
v -2 -27 -10
v -2 -23 10
v -2 -18 10
v -2 -23 -10
v -2 -18 -10
v -10 -42 10
v -6 -42 10
v -6 -26 10
v -10 -26 10
v -6 -26 -10
v -10 -42 -10
v -10 -26 -10
v -6 -42 -10
v -6 -22 10
v -10 -20 10
v -6 -26 4
v -2 -27 4
v -2 -23 4
v -6 -22 4
v -6 -18 10
v -10 -18 10
v -6 -22 -10
v -10 -20 -10
v -6 -18 -10
v -10 -18 -10
v -6 -26 10
v -2 -27 10
v -6 -26 4
v -2 -27 4
v -2 -27 10
v -2 -23 10
v -2 -27 4
v -2 -23 4
v -6 -22 10
v -6 -26 10
v -6 -22 4
v -6 -26 4
v -2 -23 10
v -6 -22 10
v -2 -23 4
v -6 -22 4
v 10 -42 10
v 10 -42 6
v 10 -30 6
v 10 -30 10
v -10 -26 6
v -10 -42 10
v -10 -26 10
v -10 -42 6
v 10 -26 6
v 10 -26 10
v 10 -18 6
v 10 -18 10
v -10 -20 6
v -10 -20 10
v -10 -18 6
v -10 -18 10
v 10 -42 -6
v 10 -30 -6
v 10 -42 -10
v 10 -30 -10
v -10 -26 -6
v -10 -42 -6
v -10 -26 -10
v -10 -42 -10
v 10 -26 -6
v 10 -26 -10
v 10 -18 -6
v 10 -18 -10
v -10 -20 -6
v -10 -20 -10
v -10 -18 -6
v -10 -18 -10
f 19 20 21
f 19 22 20
f 23 22 19
f 23 24 22
f 25 24 23
f 25 26 24
f 27 26 25
f 27 28 26
f 29 28 27
f 29 30 28
f 31 32 33
f 31 34 32
f 22 33 20
f 22 31 33
f 35 34 31
f 35 36 34
f 24 31 22
f 24 35 31
f 37 36 35
f 37 38 36
f 26 35 24
f 26 37 35
f 39 38 37
f 39 40 38
f 28 37 26
f 28 39 37
f 41 40 39
f 41 42 40
f 30 39 28
f 30 41 39
f 43 44 45
f 46 43 45
f 47 48 49
f 50 47 49
f 48 51 52
f 49 48 52
f 51 53 54
f 52 51 54
f 55 56 57
f 54 55 57
f 58 59 60
f 61 58 60
f 61 62 63
f 64 61 63
f 59 65 66
f 67 59 66
f 68 69 70
f 71 68 70
f 65 72 73
f 66 65 73
f 69 74 75
f 70 69 75
f 72 76 77
f 73 72 77
f 74 78 79
f 75 74 79
f 80 81 82
f 83 80 82
f 84 85 56
f 86 84 56
f 87 88 89
f 90 87 89
f 91 92 93
f 91 94 92
f 95 87 90
f 96 95 90
f 93 97 98
f 93 92 97
f 90 89 99
f 100 90 99
f 100 99 101
f 102 100 101
f 103 93 104
f 103 91 93
f 105 104 106
f 105 103 104
f 107 108 109
f 110 107 109
f 111 100 102
f 112 111 102
f 104 98 113
f 104 93 98
f 106 113 114
f 106 104 113
f 115 116 117
f 116 118 117
f 119 120 121
f 120 122 121
f 123 124 125
f 124 126 125
f 127 128 129
f 128 130 129
f 131 95 96
f 132 131 96
f 98 133 134
f 98 97 133
f 132 96 111
f 135 132 111
f 135 111 112
f 136 135 112
f 113 134 137
f 113 98 134
f 114 137 138
f 114 113 137
f 139 140 141
f 142 139 141
f 140 131 132
f 141 140 132
f 143 144 145
f 143 146 144
f 134 146 143
f 134 133 146
f 142 141 147
f 148 142 147
f 149 150 151
f 152 149 151
f 148 147 153
f 154 148 153
f 147 135 136
f 153 147 136
f 155 145 156
f 155 143 145
f 137 143 155
f 137 134 143
f 157 156 158
f 157 155 156
f 138 155 157
f 138 137 155
f 159 160 161
f 160 162 161
f 163 164 165
f 164 166 165
f 167 168 169
f 168 170 169
f 171 172 173
f 172 174 173
f 175 176 177
f 178 175 177
f 179 180 181
f 179 182 180
f 178 177 183
f 184 178 183
f 184 183 185
f 186 184 185
f 187 181 188
f 187 179 181
f 189 188 190
f 189 187 188
f 176 191 192
f 177 176 192
f 191 193 194
f 192 191 194
f 195 182 179
f 195 196 182
f 197 196 195
f 197 198 196
f 177 192 199
f 183 177 199
f 192 194 200
f 199 192 200
f 183 199 201
f 185 183 201
f 199 200 202
f 201 199 202
f 203 179 187
f 203 195 179
f 204 195 203
f 204 197 195
f 205 187 189
f 205 203 187
f 206 203 205
f 206 204 203
v -30 30 30
v 30 30 30
v 30 -30 30
v -30 -30 30
v 30 30 30
v 30 30 -30
v 30 -30 -30
v 30 -30 30
v 30 30 -30
v -30 30 -30
v -30 -30 -30
v 30 -30 -30
v -30 30 -30
v -30 30 30
v -30 -30 30
v -30 -30 -30
v -30 30 -30
v 30 30 -30
v 30 30 30
v -30 30 30
v -30 -30 30
v 30 -30 30
v 30 -30 -30
v -30 -30 -30
f 207 208 209
f 207 209 210
f 211 212 213
f 211 213 214
f 215 216 217
f 215 217 218
f 219 220 221
f 219 221 222
f 223 224 225
f 223 225 226
f 227 228 229
f 227 229 230
v 10 -31 6
v 14 -31 6
v 10 -27 6
v 14 -27 6
v 14 -31 6
v 14 -31 4
v 14 -27 6
v 14 -27 4
v 14 -31 4
v 10 -31 2
v 14 -27 4
v 10 -27 2
v 10 -31 2
v 10 -31 6
v 10 -27 2
v 10 -27 6
v 10 -31 2
v 14 -31 4
v 10 -31 6
v 14 -31 6
v 10 -27 6
v 14 -27 6
v 10 -27 2
v 14 -27 4
f 231 232 233
f 232 234 233
f 235 236 237
f 236 238 237
f 239 240 241
f 240 242 241
f 243 244 245
f 244 246 245
f 247 248 249
f 248 250 249
f 251 252 253
f 252 254 253
v 9 -31 -16
v 13 -31 -16
v 9 -27 -16
v 13 -27 -16
v 13 -31 -16
v 13 -31 -18
v 13 -27 -16
v 13 -27 -18
v 13 -31 -18
v 9 -31 -18
v 13 -27 -18
v 9 -27 -18
v 9 -31 -18
v 9 -31 -16
v 9 -27 -18
v 9 -27 -16
v 9 -31 -18
v 13 -31 -18
v 9 -31 -16
v 13 -31 -16
v 9 -27 -16
v 13 -27 -16
v 9 -27 -18
v 13 -27 -18
f 255 256 257
f 256 258 257
f 259 260 261
f 260 262 261
f 263 264 265
f 264 266 265
f 267 268 269
f 268 270 269
f 271 272 273
f 272 274 273
f 275 276 277
f 276 278 277
v -10 -26 6
v -12 -26 9.000001
v -12 -26 6.000001
v -9.999999 -26 9
v -10 -26 3
v -12 -26 3.000001
v -12 -23 6.000001
v -10 -23 6
v -10 -23 3
v -12 -23 3.000001
v -12 -20 9.000001
v -9.999999 -20 9
v -10 -20 6
v -12 -20 6.000001
v -9.999998 -20 10
v -12 -20 10
v -9.999998 -20 12
v -12 -20 12
v -7 -20 12
v -9.999998 -20 10
v -7 -20 9.999998
v -5 -20 11
v -5 -20 9.999999
v -10 -26 3
v -12 -26 3.000001
v -10 -23 3
v -12 -23 3.000001
v -12 -26 9.000001
v -9.999999 -26 9
v -12 -23 9.000001
v -9.999999 -23 9
v -12 -26 3.000001
v -12 -26 6.000001
v -12 -23 6.000001
v -12 -23 3.000001
v -12 -26 9.000001
v -12 -23 9.000001
v -9.999999 -23 9
v -10 -26 6
v -10 -23 6
v -9.999999 -26 9
v -10 -26 3
v -10 -23 3
v -12 -21 12
v -9.999997 -21 12
v -12 -20 12
v -9.999998 -20 12
v -9.999999 -20 9
v -10 -20 6
v -12 -20 6.000001
v -12 -20 9.000001
v -10 -23 6
v -12 -23 6.000001
v -10 -20 6
v -12 -20 6.000001
v -12 -23 9.000001
v -9.999999 -23 9
v -12 -21 10
v -9.999998 -22 10
v -12 -20 10
v -12 -21 10
v -9.999999 -23 9
v -9.999999 -20 9
v -9.999998 -22 10
v -9.999998 -20 10
v -12 -21 10
v -9.999998 -22 10
v -12 -21 12
v -9.999997 -21 12
v -12 -20 12
v -12 -21 12
v -5 -22 9.999998
v -5 -20 9.999999
v -5 -21 11
v -5 -20 11
v -7 -22 9.999998
v -9.999998 -22 10
v -7 -20 9.999998
v -9.999998 -20 10
v -5 -22 9.999998
v -5 -20 9.999999
v -7 -22 9.999998
v -7 -21 12
v -9.999998 -22 10
v -9.999997 -21 12
v -5 -22 9.999998
v -5 -21 11
v -7 -22 9.999998
v -7 -21 12
v -9.999998 -20 12
v -9.999997 -21 12
v -7 -20 12
v -7 -21 12
v -7 -20 12
v -7 -21 12
v -5 -20 11
v -5 -21 11
f 279 280 281
f 279 282 280
f 283 281 284
f 283 279 281
f 285 286 287
f 288 285 287
f 289 290 291
f 292 289 291
f 290 289 293
f 289 294 293
f 293 294 295
f 294 296 295
f 295 297 298
f 298 297 299
f 297 300 299
f 299 300 301
f 302 303 304
f 303 305 304
f 306 307 308
f 307 309 308
f 310 311 312
f 313 310 312
f 311 314 315
f 312 311 315
f 316 317 318
f 316 319 317
f 318 320 321
f 318 317 320
f 322 323 324
f 323 325 324
f 316 318 326
f 318 327 326
f 312 315 328
f 315 329 328
f 330 331 332
f 331 333 332
f 334 335 336
f 335 337 336
f 329 315 338
f 315 339 338
f 340 341 342
f 341 343 342
f 344 345 346
f 345 347 346
f 338 339 348
f 339 349 348
f 350 351 352
f 351 353 352
f 354 355 356
f 356 355 357
f 358 354 356
f 358 356 359
f 360 361 362
f 361 363 362
f 364 365 366
f 366 365 367
f 368 369 370
f 370 369 371
f 372 373 374
f 373 375 374
v 0 -21 -10
v 0 -21 -11
v 0 -20 -10
v 0 -20 -11
v -8 -21 -11
v -8 -21 -10
v -8 -20 -11
v -8 -20 -10
v -8 -21 -10
v -4 -21 -10
v -4 -20 -10
v -8 -20 -10
v 0 -21 -10
v 0 -20 -10
v 0 -20 -12
v -4 -21 -12
v -4 -20 -12
v 0 -21 -12
v -4 -20 -11
v -8 -21 -11
v -8 -20 -11
v -4 -21 -11
v -8 -21 -10
v -4 -21 -11
v -4 -21 -10
v -8 -21 -11
v 0 -21 -11
v 0 -21 -10
v -4 -21 -11
v -4 -20 -11
v -4 -21 -12
v -4 -20 -12
v 0 -20 -12
v 0 -21 -12
v 0 -21 -12
v -4 -21 -12
v -4 -20 -11
v -8 -20 -11
v -8 -20 -10
v -4 -20 -10
v 0 -20 -11
v 0 -20 -10
v -4 -20 -12
v 0 -20 -12
f 376 377 378
f 377 379 378
f 380 381 382
f 381 383 382
f 384 385 386
f 387 384 386
f 385 388 389
f 386 385 389
f 390 391 392
f 390 393 391
f 394 395 396
f 394 397 395
f 398 399 400
f 398 401 399
f 400 402 403
f 400 399 402
f 404 405 406
f 405 407 406
f 379 377 408
f 377 409 408
f 402 399 410
f 399 411 410
f 412 413 414
f 415 412 414
f 416 412 415
f 417 416 415
f 412 416 418
f 416 419 418
v -10 -26 -13
v -6 -26 -13
v -9 -23 -14
v -7 -23 -14
v -6 -26 -13
v -6 -26 -16
v -7 -23 -14
v -7 -23 -15
v -6 -26 -16
v -10 -26 -16
v -7 -23 -15
v -9 -23 -15
v -10 -26 -16
v -10 -26 -13
v -9 -23 -15
v -9 -23 -14
v -10 -26 -16
v -6 -26 -16
v -10 -26 -13
v -6 -26 -13
v -9 -23 -14
v -7 -23 -14
v -9 -23 -15
v -7 -23 -15
f 420 421 422
f 421 423 422
f 424 425 426
f 425 427 426
f 428 429 430
f 429 431 430
f 432 433 434
f 433 435 434
f 436 437 438
f 437 439 438
f 440 441 442
f 441 443 442
v -14 -26 -5
v -10 -26 -10
v -10 -26 -5
v -14 -26 -9
v -12 -26 -2
v -10 -26 -2
v -10 -23 -5
v -13 -23 -5
v -12 -23 -2
v -10 -23 -2
v -10 -20 -8
v -12 -20 -8
v -12 -20 -5
v -10 -20 -5
v -12 -26 -2
v -10 -26 -2
v -12 -23 -2
v -10 -23 -2
v -10 -26 -10
v -14 -26 -9
v -10 -23 -9
v -13 -23 -9
v -10 -26 -2
v -10 -26 -5
v -10 -23 -5
v -10 -23 -2
v -10 -26 -10
v -10 -23 -9
v -13 -23 -9
v -14 -26 -5
v -13 -23 -5
v -14 -26 -9
v -13 -23 -5
v -12 -26 -2
v -12 -23 -2
v -14 -26 -5
v -10 -23 -9
v -13 -23 -9
v -10 -20 -8
v -12 -20 -8
v -13 -23 -9
v -13 -23 -5
v -12 -20 -8
v -12 -20 -5
v -10 -20 -5
v -10 -20 -8
v -13 -23 -5
v -10 -23 -5
v -12 -20 -5
v -10 -20 -5
f 444 445 446
f 444 447 445
f 448 446 449
f 448 444 446
f 450 451 452
f 453 450 452
f 454 455 456
f 457 454 456
f 458 459 460
f 459 461 460
f 462 463 464
f 463 465 464
f 466 467 468
f 469 466 468
f 467 470 471
f 468 467 471
f 472 473 474
f 472 475 473
f 476 477 478
f 476 479 477
f 480 481 482
f 481 483 482
f 484 485 486
f 485 487 486
f 468 471 488
f 471 489 488
f 490 491 492
f 491 493 492
v 8 -25 -10
v 10 -25 -10
v 8 -22 -10
v 10 -22 -10
v 10 -25 -14
v 8 -25 -14
v 10 -22 -14
v 8 -22 -14
v 10 -22 -10
v 10 -25 -10
v 10 -22 -6
v 10 -25 -6
v 14 -25 -10
v 14 -22 -10
v 14 -25 -6
v 14 -22 -6
v 14 -25 -10
v 14 -25 -12
v 14 -22 -12
v 14 -22 -10
v 14 -25 -12
v 13 -25 -13
v 13 -22 -13
v 14 -22 -12
v 8 -22 -14
v 8 -25 -12
v 8 -22 -12
v 8 -25 -14
v 8 -25 -10
v 8 -22 -10
v 8 -25 -12
v 10 -25 -14
v 10 -25 -12
v 8 -25 -14
v 8 -25 -10
v 10 -25 -10
v 10 -25 -2
v 14 -25 -2
v 14 -22 -2
v 10 -22 -2
v 14 -25 -2
v 15 -25 -3
v 15 -22 -3
v 14 -22 -2
v 12 -22 -14
v 10 -25 -14
v 10 -22 -14
v 12 -25 -14
v 13 -22 -13
v 12 -25 -14
v 12 -22 -14
v 13 -25 -13
v 10 -25 -6
v 12 -25 -10
v 12 -25 -6
v 14 -25 -10
v 14 -25 -6
v 14 -25 -12
v 12 -25 -12
v 13 -25 -13
v 12 -25 -14
v 10 -25 -2
v 14 -25 -2
v 10 -22 -2
v 10 -25 -2
v 15 -25 -3
v 14 -25 -6
v 14 -22 -6
v 15 -25 -3
v 15 -22 -3
v 10 -22 -12
v 8 -22 -12
v 8 -22 -10
v 10 -22 -10
v 10 -22 -14
v 8 -22 -14
v 14 -22 -10
v 12 -22 -10
v 12 -22 -6
v 14 -22 -6
v 10 -22 -6
v 13 -22 -13
v 12 -22 -14
v 12 -22 -12
v 14 -22 -12
v 15 -22 -3
v 14 -22 -2
v 10 -22 -2
f 494 495 496
f 495 497 496
f 498 499 500
f 499 501 500
f 502 503 504
f 503 505 504
f 506 507 508
f 507 509 508
f 510 511 512
f 513 510 512
f 514 515 516
f 517 514 516
f 518 519 520
f 518 521 519
f 520 522 523
f 520 519 522
f 524 525 526
f 524 527 525
f 528 526 529
f 528 524 526
f 530 531 532
f 533 530 532
f 534 535 536
f 537 534 536
f 538 539 540
f 538 541 539
f 542 543 544
f 542 545 543
f 546 547 548
f 546 529 547
f 548 549 550
f 548 547 549
f 547 551 549
f 547 552 551
f 529 552 547
f 529 526 552
f 552 553 551
f 552 554 553
f 526 554 552
f 526 525 554
f 546 548 555
f 548 556 555
f 504 505 557
f 505 558 557
f 548 550 556
f 550 559 556
f 560 561 562
f 561 563 562
f 564 565 566
f 567 564 566
f 568 569 565
f 564 568 565
f 570 571 572
f 573 570 572
f 571 567 574
f 572 571 574
f 575 576 577
f 578 575 577
f 576 568 564
f 577 576 564
f 578 577 571
f 570 578 571
f 577 564 567
f 571 577 567
f 573 572 579
f 572 580 579
f 572 574 580
f 574 581 580
v 10 -28 1.788127E-07
v 10 -28 1
v 10 -26 1.788132E-07
v 10 -26 1
v 10 -28 1
v 11 -28 0.9999997
v 10 -26 1
v 11 -26 0.9999995
v 11 -28 0.9999997
v 11 -28 1.788127E-07
v 11 -26 0.9999995
v 11 -26 1.788133E-07
v 11 -28 1.788127E-07
v 10 -28 1.788127E-07
v 11 -26 1.788133E-07
v 10 -26 1.788132E-07
v 11 -28 1.788127E-07
v 11 -28 0.9999997
v 10 -28 1.788127E-07
v 10 -28 1
v 10 -26 1.788132E-07
v 10 -26 1
v 11 -26 1.788133E-07
v 11 -26 0.9999995
f 582 583 584
f 583 585 584
f 586 587 588
f 587 589 588
f 590 591 592
f 591 593 592
f 594 595 596
f 595 597 596
f 598 599 600
f 599 601 600
f 602 603 604
f 603 605 604
v 10 -42 10
v 10 -45 -10
v 10 -48 10
v 10 -51 -10
v 30 -45 -10
v 30 -45 10
v 30 -51 -10
v 30 -51 10
v 10 -48 10
v 20 -51 -10
v 20 -51 10
v 10 -51 -10
v 20 -51 10
v 30 -51 -10
v 30 -51 10
v 20 -51 -10
v 20 -45 -10
v 10 -51 -10
v 10 -45 -10
v 20 -51 -10
v 30 -45 -10
v 30 -51 -10
v 20 -51 10
v 30 -51 10
v 30 -45 10
v 20 -45 10
v 10 -48 10
v 10 -42 10
v 20 -45 -10
v 10 -45 -10
v 10 -30 10
v 20 -33 10
v 30 -45 -10
v 20 -45 -10
v 20 -33 10
v 22 -33 10
v 20 -33 10
v 10 -30 10
v 20 -33 18
v 10 -30 18
v 22 -33 10
v 20 -33 10
v 20 -33 18
v 10 -30 18
v 10 -30 10
v -10 -26 18
v -10 -26 10
v -10 -26 18
v -10 -26 10
v -15 -26 18
v -15 -26 10
v -10 -26 -2
v -15 -26 -2
v -10 -26 -10
v -15 -26 -10
v 30 -45 10
v 30 -45 -10
v 22 -33 10
v 10 -42 10
v 10 -30 10
v 10 -45 -10
v 10 -42 18
v 20 -45 18
v 20 -33 18
v 10 -30 18
v 30 -45 18
v 10 -42 10
v 20 -45 10
v 10 -42 18
v 20 -45 18
v 20 -45 10
v 20 -33 10
v 20 -45 18
v 20 -33 18
v -15 -26 10
v -15 -28 10
v -15 -26 18
v -15 -27 18
v 20 -45 10
v 30 -45 10
v 20 -45 18
v 30 -45 18
v 22 -33 10
v 30 -45 18
v 20 -33 18
v 20 -33 10
v 20 -45 10
v 20 -33 18
v 20 -45 18
v 10 -30 10
v 10 -42 10
v -10 -26 10
v -7 -42 10
v 10 -42 10
v 10 -42 18
v -7 -42 10
v -5 -42 16
v 10 -42 18
v 10 -30 18
v -5 -42 16
v -10 -26 18
v -10 -29 10
v -7 -42 10
v -5 -42 16
v -10 -29 10
v -10 -29 18
v -5 -42 16
v -10 -26 18
v -10 -29 18
v -10 -26 -10
v -10 -27 -10
v -15 -26 -10
v -15 -27 -10
v -10 -29 10
v -10 -29 18
v -15 -28 10
v -15 -27 18
v -10 -29 18
v -10 -26 18
v -15 -27 18
v -15 -26 18
v -10 -29 10
v -10 -29 -2
v -10 -26 -2
v -10 -26 10
v -10 -27 -10
v -10 -26 -10
v -15 -28 10
v -10 -29 -2
v -10 -29 10
v -15 -28 -2
v -15 -28 -2
v -10 -27 -10
v -10 -29 -2
v -15 -27 -10
v -15 -26 -2
v -15 -28 -2
v -15 -26 -10
v -15 -27 -10
f 606 607 608
f 607 609 608
f 610 611 612
f 611 613 612
f 614 615 616
f 614 617 615
f 618 619 620
f 618 621 619
f 622 623 624
f 622 625 623
f 626 625 622
f 626 627 625
f 628 629 630
f 631 628 630
f 632 628 631
f 633 632 631
f 634 635 636
f 637 634 636
f 638 639 640
f 641 638 640
f 642 643 644
f 643 645 644
f 646 647 648
f 649 650 651
f 650 652 651
f 653 654 655
f 654 656 655
f 657 658 656
f 654 657 656
f 659 660 658
f 657 659 658
f 661 662 663
f 664 665 666
f 667 668 669
f 670 667 669
f 668 671 669
f 672 673 674
f 673 675 674
f 676 677 678
f 677 679 678
f 680 681 682
f 681 683 682
f 684 685 686
f 685 687 686
f 661 688 689
f 688 690 689
f 691 692 693
f 692 694 693
f 695 696 697
f 696 698 697
f 699 700 701
f 700 702 701
f 703 704 705
f 704 706 705
f 698 707 697
f 708 709 710
f 709 711 710
f 712 713 714
f 715 716 717
f 716 718 717
f 719 720 721
f 720 722 721
f 723 724 725
f 724 726 725
f 727 728 729
f 730 727 729
f 728 731 732
f 729 728 732
f 733 734 735
f 733 736 734
f 737 738 739
f 737 740 738
f 741 681 680
f 741 742 681
f 743 742 741
f 743 744 742
v -10 -28 -10
v -6 -28 -10
v -6 -27 -10
v -10 -27 -10
v -6 -26 -10
v -10 -26 -10
v -6 -27 -10
v -6 -28 -10
v -6 -27 -15
v -6 -26 -16
v -6 -26 -10
v -6 -27 -15
v -10 -28 -10
v -10 -27 -15
v -6 -28 -10
v -6 -26 -16
v -10 -27 -15
v -10 -26 -16
v -6 -27 -15
v -10 -27 -15
v -10 -28 -10
v -10 -27 -10
v -15 -26 -11
v -15 -27 -10
v -15 -26 -10
v -15 -27 -10
v -15 -26 -10
v -10 -26 -16
v -10 -27 -15
v -15 -26 -11
v -15 -27 -10
v -10 -27 -15
v -10 -27 -10
v -15 -27 -10
v -10 -26 -10
v -6 -26 -10
v -10 -26 -16
v -6 -26 -16
v -15 -26 -10
v -15 -26 -11
f 745 746 747
f 748 745 747
f 748 747 749
f 750 748 749
f 751 752 753
f 751 753 754
f 755 751 754
f 756 757 758
f 756 759 757
f 760 761 762
f 760 763 761
f 764 765 766
f 767 768 769
f 748 750 770
f 750 771 770
f 772 773 774
f 773 775 774
f 776 777 778
f 779 780 781
f 780 782 781
f 779 781 783
f 781 784 783
v -6 -26 9
v -2 -27 9
v -6 -22 9
v -2 -23 9
v -2 -27 9
v -2 -27 -4
v -2 -23 9
v -2 -23 -4
v -2 -27 -4
v -6 -26 -4
v -2 -23 -4
v -6 -22 -4
v -6 -26 -4
v -6 -26 9
v -6 -22 -4
v -6 -22 9
v -6 -22 9
v -2 -23 9
v -6 -22 -4
v -2 -23 -4
v -6 -26 -4
v -2 -27 -4
v -6 -26 9
v -2 -27 9
f 785 786 787
f 786 788 787
f 789 790 791
f 790 792 791
f 793 794 795
f 794 796 795
f 797 798 799
f 798 800 799
f 801 802 803
f 802 804 803
f 805 806 807
f 806 808 807
v 9.999999 -24 8
v 10 -24 9
v 9.999999 -23 8
v 10 -23 9
v 10 -24 9
v 11 -24 9
v 10 -23 9
v 11 -23 9
v 11 -24 9
v 11 -24 8
v 11 -23 9
v 11 -23 8
v 11 -24 8
v 9.999999 -24 8
v 11 -23 8
v 9.999999 -23 8
v 11 -24 8
v 11 -24 9
v 9.999999 -24 8
v 10 -24 9
v 9.999999 -23 8
v 10 -23 9
v 11 -23 8
v 11 -23 9
f 809 810 811
f 810 812 811
f 813 814 815
f 814 816 815
f 817 818 819
f 818 820 819
f 821 822 823
f 822 824 823
f 825 826 827
f 826 828 827
f 829 830 831
f 830 832 831
v 5.86261 -32 -18.27152
v 2.13739 -32 -19.72848
v 5.418457 -28 -19.41851
v 1.486292 -28 -18.68497
v 2.13739 -32 -19.72848
v 1.40891 -32 -17.86587
v 1.486292 -28 -18.68497
v 1.853062 -28 -16.71888
v 1.40891 -32 -17.86587
v 5.13413 -32 -16.40891
v 1.853062 -28 -16.71888
v 5.785228 -28 -17.45242
v 5.13413 -32 -16.40891
v 5.86261 -32 -18.27152
v 5.785228 -28 -17.45242
v 5.418457 -28 -19.41851
v 5.13413 -32 -16.40891
v 1.40891 -32 -17.86587
v 5.86261 -32 -18.27152
v 2.13739 -32 -19.72848
v 5.418457 -28 -19.41851
v 1.486292 -28 -18.68497
v 5.785228 -28 -17.45242
v 1.853062 -28 -16.71888
f 833 834 835
f 834 836 835
f 837 838 839
f 838 840 839
f 841 842 843
f 842 844 843
f 845 846 847
f 846 848 847
f 849 850 851
f 850 852 851
f 853 854 855
f 854 856 855
v 10 -31 -18
v 14 -31 -18
v 10 -29 -18
v 14 -29 -18
v 14 -31 -18
v 14 -31 -20
v 14 -29 -18
v 14 -29 -20
v 14 -31 -20
v 10 -31 -20
v 14 -29 -20
v 10 -29 -20
v 10 -31 -20
v 10 -31 -18
v 10 -29 -20
v 10 -29 -18
v 10 -31 -20
v 14 -31 -20
v 10 -31 -18
v 14 -31 -18
v 10 -29 -18
v 14 -29 -18
v 10 -29 -20
v 14 -29 -20
f 857 858 859
f 858 860 859
f 861 862 863
f 862 864 863
f 865 866 867
f 866 868 867
f 869 870 871
f 870 872 871
f 873 874 875
f 874 876 875
f 877 878 879
f 878 880 879
v -4 -35 -10
v 0 -35 -10
v -4 -29 -10
v 0 -29 -10
v 0 -35 -10
v 0 -35 -12
v 0 -29 -10
v 0 -29 -14
v 0 -35 -12
v -4 -35 -12
v 0 -29 -14
v -4 -29 -14
v -4 -35 -12
v -4 -35 -10
v -4 -29 -14
v -4 -29 -10
v -4 -35 -12
v 0 -35 -12
v -4 -35 -10
v 0 -35 -10
v -4 -29 -10
v 0 -29 -10
v -4 -29 -14
v 0 -29 -14
f 881 882 883
f 882 884 883
f 885 886 887
f 886 888 887
f 889 890 891
f 890 892 891
f 893 894 895
f 894 896 895
f 897 898 899
f 898 900 899
f 901 902 903
f 902 904 903
v -2 -29 -10
v 0 -29 -10
v -2 -26 -10
v 0 -26 -10
v 0 -29 -10
v 0 -29 -11
v 0 -26 -10
v 0 -26 -11
v 0 -29 -11
v -2 -29 -11
v 0 -26 -11
v -2 -26 -11
v -2 -29 -11
v -2 -29 -10
v -2 -26 -11
v -2 -26 -10
v -2 -29 -11
v 0 -29 -11
v -2 -29 -10
v 0 -29 -10
v -2 -26 -10
v 0 -26 -10
v -2 -26 -11
v 0 -26 -11
f 905 906 907
f 906 908 907
f 909 910 911
f 910 912 911
f 913 914 915
f 914 916 915
f 917 918 919
f 918 920 919
f 921 922 923
f 922 924 923
f 925 926 927
f 926 928 927
v 4 -28 9
v 8 -29 9
v 4 -24 9
v 8 -25 9
v 8 -29 9
v 8 -29 -4
v 8 -25 9
v 8 -25 -4
v 8 -29 -4
v 4 -28 -4
v 8 -25 -4
v 4 -24 -4
v 4 -28 -4
v 4 -28 9
v 4 -24 -4
v 4 -24 9
v 4 -24 9
v 8 -25 9
v 4 -24 -4
v 8 -25 -4
v 4 -28 -4
v 8 -29 -4
v 4 -28 9
v 8 -29 9
f 929 930 931
f 930 932 931
f 933 934 935
f 934 936 935
f 937 938 939
f 938 940 939
f 941 942 943
f 942 944 943
f 945 946 947
f 946 948 947
f 949 950 951
f 950 952 951
v 10 -22 -6
v 10 -22 -1.999999
v 10 -19 -6
v 10 -19 -1.999999
v 10 -22 -1.999999
v 11 -22 -1.999999
v 10 -19 -1.999999
v 11 -19 -1.999999
v 12 -22 -4
v 14 -22 -6.000001
v 12 -19 -2.999999
v 13 -19 -6.000002
v 12 -22 -6.000001
v 10 -22 -6
v 12 -19 -6.000001
v 10 -19 -6
v 12 -22 -6.000001
v 11 -22 -1.999999
v 10 -22 -6
v 10 -22 -1.999999
v 12 -22 -4
v 14 -22 -6.000001
v 11 -19 -1.999999
v 11 -22 -1.999999
v 12 -19 -2.999999
v 12 -22 -4
v 14 -22 -6.000001
v 13 -19 -6.000002
v 10 -19 -6
v 10 -19 -1.999999
v 12 -19 -6.000001
v 11 -19 -1.999999
v 13 -19 -6.000002
v 12 -19 -2.999999
f 953 954 955
f 954 956 955
f 957 958 959
f 958 960 959
f 961 962 963
f 962 964 963
f 965 966 967
f 966 968 967
f 969 970 971
f 970 972 971
f 970 969 973
f 969 974 973
f 975 976 977
f 976 978 977
f 965 967 979
f 967 980 979
f 981 982 983
f 982 984 983
f 983 984 985
f 984 986 985
v 4 -30 -9
v 8 -30 -9
v 8 -26 -9
v 4 -26 -9
v 8 -25 -9
v 4 -25 -9
v 8 -26 -9
v 8 -30 -9
v 8 -26 -15
v 8 -25 -16
v 8 -25 -9
v 8 -26 -15
v 4 -30 -9
v 4 -26 -15
v 8 -30 -9
v 8 -25 -16
v 4 -26 -15
v 4 -25 -16
v 8 -26 -15
v 4 -26 -15
v 4 -30 -9
v 4 -26 -9
v 4 -25 -16
v 4 -25 -9
v 4 -25 -9
v 8 -25 -9
v 4 -25 -16
v 8 -25 -16
f 987 988 989
f 990 987 989
f 990 989 991
f 992 990 991
f 993 994 995
f 993 995 996
f 997 993 996
f 998 999 1000
f 998 1001 999
f 1002 1003 1004
f 1002 1005 1003
f 1006 1007 1008
f 1009 1008 1010
f 1009 1006 1008
f 1011 1012 1013
f 1012 1014 1013
v -28.55049 3.632451 -7.544178
v -28.56634 3.632452 11.59203
v -30.46573 3.632452 -7.545764
v -30.48158 3.632453 11.59044
v -30.46573 -7.632454 -7.545764
v -30.48158 -7.632454 11.59044
v -28.5505 -7.632455 -7.544178
v -28.56635 -7.632455 11.59203
v -30.46573 3.632452 -7.545764
v -30.48158 3.632453 11.59044
v -30.46573 -7.632454 -7.545764
v -30.48158 -7.632454 11.59044
v -28.5505 -7.632455 -7.544178
v -28.55049 3.632451 -7.544178
v -28.56634 3.632452 11.59203
v -28.56635 -7.632455 11.59203
v -28.56634 3.632452 11.59203
v -30.48158 3.632453 11.59044
v -30.48158 -7.632454 11.59044
v -28.56635 -7.632455 11.59203
v -28.5505 -7.632455 -7.544178
v -30.46573 -7.632454 -7.545764
v -30.46573 3.632452 -7.545764
v -28.55049 3.632451 -7.544178
f 1015 1017 1018
f 1015 1018 1016
f 1023 1019 1020
f 1023 1020 1024
f 1025 1021 1022
f 1025 1022 1026
f 1027 1028 1029
f 1027 1029 1030
f 1031 1032 1033
f 1031 1033 1034
f 1035 1036 1037
f 1035 1037 1038
