v -14.07581 48 18.60163
v -1.55 48 -16.1
v -1.55 48 18.60163
v -14.07581 48 -16.1
v 10.97581 48 -16.1
v 10.97581 48 18.60163
v -1.55 -50 -48.1
v -29.55 -50 -48.1
v -29.55 -50 50.9
v -1.55 -50 50.9
v 26.45 -50 -48.1
v 26.45 -50 50.9
v 26.45 34 -48.1
v 26.45 34 50.9
v 10.97581 48 -16.1
v 10.97581 48 18.60163
v 26.45 34 50.9
v -1.55 34 50.9
v 10.97581 48 18.60163
v -1.55 48 18.60163
v -29.55 34 50.9
v -14.07581 48 18.60163
v -1.55 34 -48.1
v 26.45 34 -48.1
v -1.55 48 -16.1
v 10.97581 48 -16.1
v -29.55 34 50.9
v -29.55 34 -48.1
v -14.07581 48 18.60163
v -14.07581 48 -16.1
v -29.55 34 -48.1
v -14.07581 48 -16.1
v -1.55 11 -48.1
v 5.45 11 -48.1
v 5.45 22 -48.1
v -1.55 22 -48.1
v -8.55 11 -48.1
v -8.55 22 -48.1
v -8.55 11 -48.1
v -1.55 11 -48.1
v -8.55 11 -48.1
v -1.55 11 -48.1
v -1.55 11 -48.1
v -8.55 11 -48.1
v 5.45 22 -48.1
v -1.55 22 -48.1
v 5.45 22 -48.1
v -1.55 22 -48.1
v -1.55 22 -48.1
v 5.45 22 -48.1
v -8.55 22 -48.1
v -8.55 11 -48.1
v -8.55 22 -48.1
v -8.55 11 -48.1
v -8.55 11 -48.1
v -8.55 22 -48.1
v -1.55 22 -48.1
v -8.55 22 -48.1
v -1.55 22 -48.1
v -8.55 22 -48.1
v -8.55 22 -48.1
v -1.55 22 -48.1
v -1.55 11 -48.1
v 5.45 11 -48.1
v -1.55 11 -48.1
v 5.45 11 -48.1
v 5.45 11 -48.1
v -1.55 11 -48.1
v 5.45 11 -48.1
v 5.45 22 -48.1
v 5.45 11 -48.1
v 5.45 22 -48.1
v 5.45 22 -48.1
v 5.45 11 -48.1
v -1.55 34 50.9
v -29.55 -50 50.9
v -29.55 34 50.9
v -1.55 -50 50.9
v 26.45 34 50.9
v 26.45 -50 50.9
v 26.45 34 50.9
v 26.45 34 -48.1
v 26.45 -50 -48.1
v 26.45 -50 50.9
v -29.55 34 -48.1
v -29.55 34 50.9
v -29.55 -50 50.9
v -29.55 -50 -48.1
v -1.55 -50 -48.1
v 26.45 -50 -48.1
v -1.55 11 -48.1
v 5.45 11 -48.1
v 26.45 34 -48.1
v 5.45 22 -48.1
v -29.55 34 -48.1
v -29.55 -50 -48.1
v -8.55 22 -48.1
v -8.55 11 -48.1
v -1.55 34 -48.1
v -1.55 22 -48.1
f 1 2 3
f 1 4 2
f 3 5 6
f 3 2 5
f 7 8 9
f 10 7 9
f 11 7 10
f 12 11 10
f 13 14 15
f 14 16 15
f 17 18 19
f 18 20 19
f 18 21 20
f 21 22 20
f 23 24 25
f 24 26 25
f 27 28 29
f 28 30 29
f 31 23 32
f 23 25 32
f 33 34 35
f 36 33 35
f 37 33 36
f 38 37 36
f 39 40 41
f 42 43 44
f 45 46 47
f 48 49 50
f 51 52 53
f 54 55 56
f 57 58 59
f 60 61 62
f 63 64 65
f 66 67 68
f 69 70 71
f 72 73 74
f 75 76 77
f 75 78 76
f 79 78 75
f 79 80 78
f 81 82 83
f 81 83 84
f 85 86 87
f 85 87 88
f 89 90 91
f 90 92 91
f 90 93 92
f 93 94 92
f 95 96 97
f 96 98 97
f 93 99 94
f 99 100 94
f 96 89 98
f 89 91 98
f 99 95 100
f 95 97 100
v -15.05 11 -48.1
v -15.05 11 -47.6
v -15.05 11.75 -48.1
v -15.05 11.75 -47.6
v 11.95 11 -47.6
v 11.95 11 -48.1
v 11.95 11.75 -47.6
v 11.95 11.75 -48.1
v -1.55 11 -16.6
v 5.95 11 -16.1
v 7.95 11 -16.6
v -1.55 11 -16.1
v -9.05 11 -16.1
v -11.05 11 -16.6
v -1.55 11 -17.6
v 9.95 11 -17.6
v -13.05 11 -17.6
v -1.55 11 -19.1
v 11.2 11 -19.1
v -14.3 11 -19.1
v -1.55 11 -22.1
v 11.95 11 -22.1
v -15.05 11 -22.1
v 11.95 11 -47.6
v -1.55 11 -47.6
v -15.05 11 -47.6
v -13.36715 10 -17.19956
v -11.22451 10 -16.12824
v -11.22451 11 -16.12824
v -13.36715 11 -17.19956
v -11.22451 10 -16.12824
v -9.111553 10 -15.6
v -9.111553 11 -15.6
v -11.22451 11 -16.12824
v 5.95 10 -15.6
v 8.2 10 -16.12824
v 8.2 11 -16.12824
v 5.95 11 -15.6
v 8.2 10 -16.12824
v 10.2 10 -17.19956
v 10.2 11 -17.19956
v 8.2 11 -16.12824
v -15.55 11 -22.03844
v -14.75733 10 -18.86777
v -14.75733 11 -18.86777
v -15.55 10 -22.03844
v -14.75733 11 -18.86777
v -13.36715 10 -17.19956
v -13.36715 11 -17.19956
v -14.75733 10 -18.86777
v 10.2 10 -17.19956
v 11.7 10 -18.86777
v 11.7 11 -18.86777
v 10.2 11 -17.19956
v 10.2 10 -17.19956
v 11.7 11 -18.86777
v 11.7 10 -18.86777
v 12.45 10 -22.03844
v 12.45 11 -22.03844
v 11.7 11 -18.86777
v 11.95 10 -48.1
v 11.95 11 -48.1
v 12.45 10 -48.1
v 12.45 11 -48.1
v 11.2 10 -19.1
v 11.95 10 -22.1
v 11.7 10 -18.86777
v 12.45 10 -22.03844
v 9.95 10 -17.6
v 10.2 10 -17.19956
v 7.95 10 -16.6
v 8.2 10 -16.12824
v 5.95 10 -16.1
v 5.95 10 -15.6
v -11.05 10 -16.6
v -9.05 10 -16.1
v -11.22451 10 -16.12824
v -9.111553 10 -15.6
v -13.05 10 -17.6
v -13.36715 10 -17.19956
v -14.3 10 -19.1
v -14.75733 10 -18.86777
v -15.05 10 -22.1
v -15.55 10 -22.03844
v -15.05 11 -48.1
v -15.05 10 -48.1
v -15.55 11 -48.1
v -15.55 10 -48.1
v -15.55 11.75 -22.03844
v -14.75733 11.75 -18.86777
v -15.05 11.75 -48.1
v -15.55 11.75 -48.1
v -14.3 11 -19.1
v -15.05 11 -22.1
v -14.3 11.75 -19.1
v -15.05 11.75 -22.1
v -14.75733 11.75 -18.86777
v -13.36715 11.75 -17.19956
v -13.05 11 -17.6
v -14.3 11 -19.1
v -13.05 11.75 -17.6
v -14.3 11.75 -19.1
v -13.36715 11.75 -17.19956
v -11.22451 11.75 -16.12824
v -11.05 11 -16.6
v -13.05 11 -17.6
v -11.05 11.75 -16.6
v -13.05 11.75 -17.6
v -11.22451 11.75 -16.12824
v -9.111553 11.75 -15.6
v -9.05 11 -16.1
v -11.05 11 -16.6
v -9.05 11.75 -16.1
v -11.05 11.75 -16.6
v 5.95 11.75 -15.6
v 8.2 11.75 -16.12824
v 7.95 11 -16.6
v 5.95 11 -16.1
v 7.95 11.75 -16.6
v 5.95 11.75 -16.1
v 8.2 11.75 -16.12824
v 10.2 11.75 -17.19956
v 9.95 11 -17.6
v 7.95 11 -16.6
v 9.95 11.75 -17.6
v 7.95 11.75 -16.6
v 10.2 11.75 -17.19956
v 11.7 11.75 -18.86777
v 11.2 11 -19.1
v 9.95 11 -17.6
v 11.2 11.75 -19.1
v 9.95 11.75 -17.6
v 11.7 11.75 -18.86777
v 12.45 11.75 -22.03844
v 11.95 11 -22.1
v 11.2 11 -19.1
v 11.95 11.75 -22.1
v 11.2 11.75 -19.1
v 12.45 11.75 -48.1
v 11.95 11.75 -48.1
v 5.95 11.75 -15.6
v 5.95 11.75 -16.1
v 5.95 11 -15.6
v 5.95 11 -16.1
v -9.05 11.75 -16.1
v -9.111553 11.75 -15.6
v -9.05 11 -16.1
v -9.111553 11 -15.6
v 12.45 10 -22.03844
v 12.45 10 -47.6
v 12.45 11 -47.6
v 12.45 11 -22.03844
v 12.45 10 -48.1
v 12.45 11 -48.1
v -15.55 11 -48.1
v -15.55 10 -47.6
v -15.55 11 -47.6
v -15.55 10 -48.1
v -15.55 10 -22.03844
v -15.55 11 -22.03844
v 12.45 10 -47.6
v 11.95 10 -47.6
v 12.45 10 -48.1
v 11.95 10 -48.1
v -15.55 10 -47.6
v -15.55 10 -48.1
v -15.05 10 -47.6
v -15.05 10 -48.1
v -15.05 11 -22.1
v -15.05 11 -47.6
v -15.05 11.75 -47.6
v -15.05 11.75 -22.1
v -15.05 11 -47.6
v -15.05 11 -48.1
v -15.05 11.75 -48.1
v -15.05 11.75 -47.6
v -15.55 11.75 -48.1
v -15.55 11.75 -47.6
v -15.55 11.75 -22.03844
v 12.45 11.75 -47.6
v 12.45 11.75 -22.03844
v 12.45 11.75 -48.1
v 11.95 11.75 -48.1
v 11.95 11 -47.6
v 11.95 11.75 -47.6
v 11.95 11 -48.1
v 11.95 11.75 -47.6
v 11.95 11 -22.1
v 11.95 11.75 -22.1
v 11.95 11 -47.6
v -9.111553 10 -15.6
v -1.580776 10 -15.6
v -1.580776 11 -15.6
v -9.111553 11 -15.6
v 5.95 10 -15.6
v 5.95 11 -15.6
v 11.95 11 -48.1
v -1.55 10 -48.1
v -1.55 11 -48.1
v 11.95 10 -48.1
v -15.05 10 -48.1
v -15.05 11 -48.1
v -1.55 10 -16.1
v -1.55 10 -16.6
v -1.55 10 -17.6
v -1.55 10 -19.1
v -1.55 10 -22.1
v 5.95 11 -15.6
v 5.95 11 -16.1
v -1.55 11 -16.1
v -1.580776 11 -15.6
v -9.05 11 -16.1
v -9.111553 11 -15.6
v -1.580776 10 -15.6
v 11.95 11.75 -48.1
v -1.55 11.75 -48.1
v -1.55 11.75 -47.6
v 11.95 11.75 -47.6
v -15.05 11.75 -48.1
v -15.05 11.75 -47.6
v -1.55 10 -47.6
v -1.55 10 -48.1
v 11.95 11.75 -48.1
v -1.55 11.75 -48.1
v -15.05 11.75 -48.1
v -15.05 11 -47.6
v -1.55 11 -47.6
v -1.55 11.75 -47.6
v -15.05 11.75 -47.6
v 11.95 11 -47.6
v 11.95 11.75 -47.6
v 11.95 22 -22.1
v 11.2 22 -19.1
v 12.45 22 -22.03844
v 11.7 22 -18.86777
v 9.95 22 -17.6
v 10.2 22 -17.19956
v 7.95 22 -16.6
v 8.2 22 -16.12824
v 5.95 22 -16.1
v 5.95 22 -15.6
v -13.05 22 -17.6
v -14.3 22 -19.1
v -13.36715 22 -17.19956
v -14.75733 22 -18.86777
v -9.05 22 -16.1
v -11.05 22 -16.6
v -9.111553 22 -15.6
v -11.22451 22 -16.12824
v -15.05 22 -22.1
v -15.55 22 -22.03844
v 12.45 22 -48.1
v 11.95 22 -48.1
v 11.95 22 -47.6
v 12.45 22 -47.6
v -15.05 22 -47.6
v -15.55 22 -47.6
v -15.05 22 -48.1
v -15.55 22 -48.1
v 11.95 11.75 -22.1
v 11.2 11.75 -19.1
v 11.95 22 -22.1
v 11.2 22 -19.1
v 11.95 11.75 -47.6
v 11.95 11.75 -22.1
v 11.95 22 -47.6
v 11.95 22 -22.1
v 12.45 11.75 -22.03844
v 12.45 11.75 -47.6
v 12.45 22 -22.03844
v 12.45 22 -47.6
v 5.95 11.75 -16.1
v 5.95 11.75 -15.6
v 5.95 22 -16.1
v 5.95 22 -15.6
v 12.45 11.75 -48.1
v 11.95 11.75 -48.1
v 12.45 22 -48.1
v 11.95 22 -48.1
v 11.95 11.75 -48.1
v 11.95 22 -48.1
v 12.45 11.75 -48.1
v 12.45 22 -48.1
v 11.7 11.75 -18.86777
v 12.45 11.75 -22.03844
v 11.7 22 -18.86777
v 12.45 22 -22.03844
v 11.2 11.75 -19.1
v 9.95 11.75 -17.6
v 11.2 22 -19.1
v 9.95 22 -17.6
v 10.2 11.75 -17.19956
v 11.7 11.75 -18.86777
v 10.2 22 -17.19956
v 11.7 22 -18.86777
v 9.95 11.75 -17.6
v 7.95 11.75 -16.6
v 9.95 22 -17.6
v 7.95 22 -16.6
v 8.2 11.75 -16.12824
v 10.2 11.75 -17.19956
v 8.2 22 -16.12824
v 10.2 22 -17.19956
v 7.95 11.75 -16.6
v 5.95 11.75 -16.1
v 7.95 22 -16.6
v 5.95 22 -16.1
v 5.95 11.75 -15.6
v 8.2 11.75 -16.12824
v 5.95 22 -15.6
v 8.2 22 -16.12824
v -9.05 11.75 -16.1
v -11.05 11.75 -16.6
v -9.05 22 -16.1
v -11.05 22 -16.6
v -9.111553 11.75 -15.6
v -9.05 11.75 -16.1
v -9.111553 22 -15.6
v -9.05 22 -16.1
v -15.05 11.75 -47.6
v -15.05 11.75 -48.1
v -15.05 22 -47.6
v -15.05 22 -48.1
v -11.22451 11.75 -16.12824
v -9.111553 11.75 -15.6
v -11.22451 22 -16.12824
v -9.111553 22 -15.6
v -11.05 11.75 -16.6
v -13.05 11.75 -17.6
v -11.05 22 -16.6
v -13.05 22 -17.6
v -13.36715 11.75 -17.19956
v -11.22451 11.75 -16.12824
v -13.36715 22 -17.19956
v -11.22451 22 -16.12824
v -13.05 11.75 -17.6
v -14.3 11.75 -19.1
v -13.05 22 -17.6
v -14.3 11.75 -19.1
v -14.3 22 -19.1
v -13.05 22 -17.6
v -14.75733 11.75 -18.86777
v -13.36715 11.75 -17.19956
v -14.75733 22 -18.86777
v -13.36715 22 -17.19956
v -14.3 11.75 -19.1
v -15.05 11.75 -22.1
v -14.3 22 -19.1
v -15.05 22 -22.1
v -15.55 11.75 -22.03844
v -14.75733 11.75 -18.86777
v -15.55 22 -22.03844
v -14.75733 22 -18.86777
v -15.05 11.75 -22.1
v -15.05 22 -22.1
v -15.55 11.75 -47.6
v -15.55 11.75 -22.03844
v -15.55 22 -47.6
v -15.55 22 -22.03844
v -15.05 11.75 -48.1
v -15.55 11.75 -48.1
v -15.05 22 -48.1
v -15.55 22 -48.1
v -15.55 11.75 -48.1
v -15.55 22 -48.1
f 101 102 103
f 102 104 103
f 105 106 107
f 106 108 107
f 109 110 111
f 109 112 110
f 112 109 113
f 109 114 113
f 115 111 116
f 115 109 111
f 109 115 114
f 115 117 114
f 118 116 119
f 118 115 116
f 115 118 117
f 118 120 117
f 121 119 122
f 121 118 119
f 118 121 120
f 121 123 120
f 124 125 121
f 122 124 121
f 125 126 123
f 121 125 123
f 127 128 129
f 130 127 129
f 131 132 133
f 134 131 133
f 135 136 137
f 138 135 137
f 139 140 141
f 142 139 141
f 143 144 145
f 143 146 144
f 147 148 149
f 147 150 148
f 151 152 153
f 154 155 156
f 157 158 159
f 160 157 159
f 161 162 163
f 162 164 163
f 165 166 167
f 166 168 167
f 169 165 170
f 165 167 170
f 171 169 172
f 169 170 172
f 173 171 174
f 171 172 174
f 175 176 177
f 176 178 177
f 179 175 180
f 175 177 180
f 181 179 182
f 179 180 182
f 183 181 184
f 181 182 184
f 185 186 187
f 186 188 187
f 143 145 189
f 145 190 189
f 185 187 191
f 187 192 191
f 193 194 195
f 194 196 195
f 147 149 197
f 149 198 197
f 199 200 201
f 200 202 201
f 130 129 203
f 129 204 203
f 205 206 207
f 206 208 207
f 134 133 209
f 133 210 209
f 211 212 213
f 212 214 213
f 138 137 215
f 137 216 215
f 217 218 219
f 218 220 219
f 142 141 221
f 141 222 221
f 223 224 225
f 224 226 225
f 154 156 227
f 156 228 227
f 229 230 231
f 230 232 231
f 160 159 233
f 159 234 233
f 235 236 237
f 236 238 237
f 164 162 239
f 162 240 239
f 241 242 243
f 242 244 243
f 245 246 247
f 246 248 247
f 249 250 251
f 252 249 251
f 250 253 254
f 251 250 254
f 255 256 257
f 255 258 256
f 257 259 260
f 257 256 259
f 166 261 168
f 166 262 261
f 262 263 261
f 262 264 263
f 265 266 267
f 266 268 267
f 184 265 183
f 265 267 183
f 269 270 271
f 272 269 271
f 273 274 275
f 276 273 275
f 277 257 278
f 277 255 257
f 278 260 279
f 278 257 260
f 252 251 280
f 281 252 280
f 251 254 282
f 280 251 282
f 283 284 285
f 283 286 284
f 287 288 289
f 287 290 288
f 291 292 293
f 294 291 293
f 292 295 296
f 293 292 296
f 297 298 299
f 297 300 298
f 299 301 302
f 299 298 301
f 173 303 304
f 171 173 304
f 176 175 304
f 176 304 303
f 171 304 305
f 169 171 305
f 175 179 305
f 175 305 304
f 169 305 306
f 165 169 306
f 179 181 306
f 179 306 305
f 165 306 307
f 166 165 307
f 181 183 307
f 181 307 306
f 308 309 310
f 308 310 311
f 310 312 311
f 311 312 313
f 178 176 314
f 314 176 303
f 314 303 174
f 303 173 174
f 315 316 317
f 318 315 317
f 316 319 320
f 317 316 320
f 321 264 262
f 321 322 264
f 267 322 321
f 267 268 322
f 307 262 166
f 307 321 262
f 183 321 307
f 183 267 321
f 323 299 324
f 323 297 299
f 324 302 325
f 324 299 302
f 326 327 328
f 329 326 328
f 327 330 331
f 328 327 331
f 332 333 334
f 333 335 334
f 333 336 335
f 336 337 335
f 336 338 337
f 338 339 337
f 338 340 339
f 340 341 339
f 342 343 344
f 343 345 344
f 346 347 348
f 347 349 348
f 347 342 349
f 342 344 349
f 343 350 345
f 350 351 345
f 352 353 354
f 355 352 354
f 355 354 332
f 334 355 332
f 350 356 357
f 350 357 351
f 356 358 359
f 356 359 357
f 360 361 362
f 361 363 362
f 364 365 366
f 365 367 366
f 368 369 370
f 369 371 370
f 372 373 374
f 373 375 374
f 376 377 378
f 377 379 378
f 380 364 381
f 364 366 381
f 369 382 371
f 382 383 371
f 384 385 386
f 385 387 386
f 388 389 390
f 389 391 390
f 392 393 394
f 393 395 394
f 396 397 398
f 397 399 398
f 400 401 402
f 401 403 402
f 404 405 406
f 405 407 406
f 408 409 410
f 409 411 410
f 412 413 414
f 413 415 414
f 416 417 418
f 417 419 418
f 420 421 422
f 421 423 422
f 424 425 426
f 425 427 426
f 428 429 430
f 429 431 430
f 432 433 434
f 433 435 434
f 436 437 438
f 439 440 441
f 442 443 444
f 443 445 444
f 446 447 448
f 447 449 448
f 450 451 452
f 451 453 452
f 454 420 455
f 420 422 455
f 456 457 458
f 457 459 458
f 460 461 462
f 461 463 462
f 464 456 465
f 456 458 465
v 11.95109 11 50.8988
v 11.95106 11 50.3988
v 11.95109 11.75 50.8988
v 11.95106 11.75 50.3988
v -15.04894 11 50.4006
v -15.04891 11 50.9006
v -15.04894 11.75 50.4006
v -15.04891 11.75 50.9006
v -1.551019 11 19.3997
v -9.051053 11 18.9002
v -11.05102 11 19.40034
v -1.551053 11 18.8997
v 5.948947 11 18.8992
v 7.94898 11 19.39906
v -1.550952 11 20.3997
v -13.05095 11 20.40047
v 9.949047 11 20.39893
v -1.550852 11 21.8997
v -14.30085 11 21.90055
v 11.19915 11 21.89885
v -1.550651 11 24.8997
v -15.05065 11 24.9006
v 11.94935 11 24.89879
v -15.04894 11 50.4006
v -1.548942 11 50.3997
v 11.95106 11 50.3988
v 10.26617 10 19.99847
v 8.123464 10 18.92729
v 8.123464 11 18.92729
v 10.26617 11 19.99847
v 8.123464 10 18.92729
v 6.010467 10 18.39919
v 6.010467 11 18.39919
v 8.123464 11 18.92729
v -9.051086 10 18.4002
v -11.30105 10 18.92859
v -11.30105 11 18.92859
v -9.051086 11 18.4002
v -11.30105 10 18.92859
v -13.30098 10 20.00005
v -13.30098 11 20.00005
v -11.30105 11 18.92859
v 12.44934 11 24.83721
v 11.65646 10 21.66659
v 11.65646 11 21.66659
v 12.44934 10 24.83721
v 11.65646 11 21.66659
v 10.26617 10 19.99847
v 10.26617 11 19.99847
v 11.65646 10 21.66659
v -13.30098 10 20.00005
v -14.80087 10 21.66836
v -14.80087 11 21.66836
v -13.30098 11 20.00005
v -14.80087 10 21.66836
v -15.55066 10 24.83908
v -15.55066 11 24.83908
v -14.80087 11 21.66836
v -15.04891 10 50.9006
v -15.04891 11 50.9006
v -15.54891 10 50.90064
v -15.54891 11 50.90064
v -14.30085 10 21.90055
v -15.05065 10 24.9006
v -14.80087 10 21.66836
v -15.55066 10 24.83908
v -15.05065 11.75 24.9006
v -14.30085 11.75 21.90055
v -15.55066 11.75 24.83908
v -14.80087 11.75 21.66836
v -13.05095 10 20.40047
v -13.30098 10 20.00005
v -13.05095 11.75 20.40047
v -13.30098 11.75 20.00005
v -11.05102 10 19.40034
v -11.30105 10 18.92859
v -11.05102 11.75 19.40034
v -11.30105 11.75 18.92859
v -9.051053 10 18.9002
v -9.051086 10 18.4002
v -9.051053 11.75 18.9002
v -9.051086 11.75 18.4002
v 9.949047 11.75 20.39893
v 11.19915 11.75 21.89885
v 10.26617 11.75 19.99847
v 11.65646 11.75 21.66659
v 7.94898 10 19.39906
v 5.948947 10 18.8992
v 8.123464 10 18.92729
v 6.010467 10 18.39919
v 5.948947 11.75 18.8992
v 7.94898 11.75 19.39906
v 6.010467 11.75 18.39919
v 8.123464 11.75 18.92729
v 9.949047 10 20.39893
v 10.26617 10 19.99847
v 11.94935 11.75 24.89879
v 12.44934 11.75 24.83721
v 11.19915 10 21.89885
v 11.65646 10 21.66659
v 11.94935 10 24.89879
v 12.44934 10 24.83721
v 11.95109 11 50.8988
v 11.95109 10 50.8988
v 12.45109 11 50.89876
v 12.45109 10 50.89876
v 12.44934 11.75 24.83721
v 11.65646 11.75 21.66659
v 11.95109 11.75 50.8988
v 12.45109 11.75 50.89876
v 11.19915 11 21.89885
v 11.94935 11 24.89879
v 11.19915 11.75 21.89885
v 11.94935 11.75 24.89879
v 11.65646 11.75 21.66659
v 10.26617 11.75 19.99847
v 9.949047 11 20.39893
v 11.19915 11 21.89885
v 9.949047 11.75 20.39893
v 11.19915 11.75 21.89885
v 10.26617 11.75 19.99847
v 8.123464 11.75 18.92729
v 7.94898 11 19.39906
v 9.949047 11 20.39893
v 7.94898 11.75 19.39906
v 9.949047 11.75 20.39893
v 8.123464 11.75 18.92729
v 6.010467 11.75 18.39919
v 5.948947 11 18.8992
v 7.94898 11 19.39906
v 5.948947 11.75 18.8992
v 7.94898 11.75 19.39906
v -9.051086 11.75 18.4002
v -11.30105 11.75 18.92859
v -11.05102 11 19.40034
v -9.051053 11 18.9002
v -11.05102 11.75 19.40034
v -9.051053 11.75 18.9002
v -11.30105 11.75 18.92859
v -13.30098 11.75 20.00005
v -13.05095 11 20.40047
v -11.05102 11 19.40034
v -13.05095 11.75 20.40047
v -11.05102 11.75 19.40034
v -13.30098 11 20.00005
v -14.80087 11 21.66836
v -13.30098 11.75 20.00005
v -14.80087 11.75 21.66836
v -14.30085 11 21.90055
v -13.05095 11 20.40047
v -14.30085 11.75 21.90055
v -13.05095 11.75 20.40047
v -14.80087 11.75 21.66836
v -15.55066 11.75 24.83908
v -15.05065 11 24.9006
v -14.30085 11 21.90055
v -15.05065 11.75 24.9006
v -14.30085 11.75 21.90055
v -15.54891 11.75 50.90064
v -15.04891 11.75 50.9006
v -9.051086 11.75 18.4002
v -9.051053 11.75 18.9002
v -9.051086 11 18.4002
v -9.051053 11 18.9002
v 5.948947 11.75 18.8992
v 6.010467 11.75 18.39919
v 5.948947 11 18.8992
v 6.010467 11 18.39919
v -15.55066 10 24.83908
v -15.54894 10 50.40064
v -15.54894 11 50.40064
v -15.55066 11 24.83908
v -15.54891 10 50.90064
v -15.54891 11 50.90064
v 12.45109 11 50.89876
v 12.45106 10 50.39876
v 12.45106 11 50.39876
v 12.45109 10 50.89876
v 12.44934 10 24.83721
v 12.44934 11 24.83721
v -15.54894 10 50.40064
v -15.04894 10 50.4006
v -15.54891 10 50.90064
v -15.04891 10 50.9006
v -15.54891 11.75 50.90064
v -15.04891 11.75 50.9006
v -15.04894 11.75 50.4006
v -15.54894 11.75 50.40064
v 11.95106 11.75 50.3988
v 12.45106 11.75 50.39876
v 11.95109 11.75 50.8988
v 12.45109 11.75 50.89876
v 12.45106 10 50.39876
v 12.45109 10 50.89876
v 11.95106 10 50.3988
v 11.95109 10 50.8988
v 11.94935 11 24.89879
v 11.95106 11 50.3988
v 11.95106 11.75 50.3988
v 11.94935 11.75 24.89879
v 11.95106 11 50.3988
v 11.95109 11 50.8988
v 11.95109 11.75 50.8988
v 11.95106 11.75 50.3988
v 12.45109 11.75 50.89876
v 12.45106 11.75 50.39876
v 12.44934 11.75 24.83721
v -15.54894 11.75 50.40064
v -15.55066 11.75 24.83908
v -15.54891 11.75 50.90064
v -15.04891 11.75 50.9006
v -15.04894 11 50.4006
v -15.04894 11.75 50.4006
v -15.04891 11 50.9006
v -15.04894 11.75 50.4006
v -15.05065 11 24.9006
v -15.05065 11.75 24.9006
v -15.04894 11 50.4006
v 6.010467 10 18.39919
v -1.52031 10 18.3997
v -1.52031 11 18.3997
v 6.010467 11 18.39919
v -9.051086 10 18.4002
v -9.051086 11 18.4002
v -15.04891 11 50.9006
v -1.548908 10 50.8997
v -1.548908 11 50.8997
v -15.04891 10 50.9006
v 11.95109 10 50.8988
v 11.95109 11 50.8988
v -1.551053 10 18.8997
v -1.551019 10 19.3997
v -1.550952 10 20.3997
v -1.550852 10 21.8997
v -1.550651 10 24.8997
v -9.051086 11 18.4002
v -9.051053 11 18.9002
v -1.551053 11 18.8997
v -1.52031 11 18.3997
v 5.948947 11 18.8992
v 6.010467 11 18.39919
v -1.52031 10 18.3997
v -15.04891 11.75 50.9006
v -1.548908 11.75 50.8997
v -1.548942 11.75 50.3997
v -15.04894 11.75 50.4006
v 11.95109 11.75 50.8988
v 11.95106 11.75 50.3988
v -1.548942 10 50.3997
v -1.548908 10 50.8997
v -15.04891 11.75 50.9006
v -1.548908 11.75 50.8997
v 11.95109 11.75 50.8988
v 11.95106 11 50.3988
v -1.548942 11 50.3997
v -1.548942 11.75 50.3997
v 11.95106 11.75 50.3988
v -15.04894 11 50.4006
v -15.04894 11.75 50.4006
f 466 467 468
f 467 469 468
f 470 471 472
f 471 473 472
f 474 475 476
f 474 477 475
f 477 474 478
f 474 479 478
f 480 476 481
f 480 474 476
f 474 480 479
f 480 482 479
f 483 481 484
f 483 480 481
f 480 483 482
f 483 485 482
f 486 484 487
f 486 483 484
f 483 486 485
f 486 488 485
f 489 490 486
f 487 489 486
f 490 491 488
f 486 490 488
f 492 493 494
f 495 492 494
f 496 497 498
f 499 496 498
f 500 501 502
f 503 500 502
f 504 505 506
f 507 504 506
f 508 509 510
f 508 511 509
f 512 513 514
f 512 515 513
f 516 517 518
f 519 516 518
f 520 521 522
f 523 520 522
f 524 525 526
f 525 527 526
f 528 529 530
f 529 531 530
f 532 533 534
f 533 535 534
f 536 528 537
f 528 530 537
f 533 538 535
f 538 539 535
f 540 536 541
f 536 537 541
f 538 542 539
f 542 543 539
f 544 540 545
f 540 541 545
f 542 546 543
f 546 547 543
f 548 549 550
f 549 551 550
f 552 553 554
f 553 555 554
f 556 557 558
f 557 559 558
f 560 552 561
f 552 554 561
f 557 548 559
f 548 550 559
f 549 562 551
f 562 563 551
f 564 560 565
f 560 561 565
f 566 564 567
f 564 565 567
f 568 569 570
f 569 571 570
f 508 510 572
f 510 573 572
f 568 570 574
f 570 575 574
f 576 577 578
f 577 579 578
f 512 514 580
f 514 581 580
f 582 583 584
f 583 585 584
f 495 494 586
f 494 587 586
f 588 589 590
f 589 591 590
f 499 498 592
f 498 593 592
f 594 595 596
f 595 597 596
f 503 502 598
f 502 599 598
f 600 601 602
f 601 603 602
f 507 506 604
f 506 605 604
f 606 607 608
f 607 609 608
f 610 611 612
f 611 613 612
f 614 615 616
f 615 617 616
f 523 522 618
f 522 619 618
f 620 621 622
f 621 623 622
f 527 525 624
f 525 625 624
f 626 627 628
f 627 629 628
f 630 631 632
f 631 633 632
f 634 635 636
f 637 634 636
f 635 638 639
f 636 635 639
f 640 641 642
f 640 643 641
f 642 644 645
f 642 641 644
f 529 646 531
f 529 647 646
f 647 648 646
f 647 649 648
f 650 651 652
f 653 650 652
f 653 652 532
f 534 653 532
f 562 654 655
f 562 655 563
f 654 656 657
f 654 657 655
f 658 659 660
f 659 661 660
f 567 658 566
f 658 660 566
f 662 663 664
f 665 662 664
f 666 667 668
f 669 666 668
f 670 642 671
f 670 640 642
f 671 645 672
f 671 642 645
f 637 636 673
f 674 637 673
f 636 639 675
f 673 636 675
f 676 677 678
f 676 679 677
f 680 681 682
f 680 683 681
f 684 685 686
f 687 684 686
f 685 688 689
f 686 685 689
f 690 691 692
f 690 693 691
f 692 694 695
f 692 691 694
f 544 696 697
f 540 544 697
f 553 552 697
f 553 697 696
f 540 697 698
f 536 540 698
f 552 560 698
f 552 698 697
f 536 698 699
f 528 536 699
f 560 564 699
f 560 699 698
f 528 699 700
f 529 528 700
f 564 566 700
f 564 700 699
f 701 702 703
f 701 703 704
f 703 705 704
f 704 705 706
f 555 553 707
f 707 553 696
f 707 696 545
f 696 544 545
f 708 709 710
f 711 708 710
f 709 712 713
f 710 709 713
f 714 649 647
f 714 715 649
f 660 715 714
f 660 661 715
f 700 647 529
f 700 714 647
f 566 714 700
f 566 660 714
f 716 692 717
f 716 690 692
f 717 695 718
f 717 692 695
f 719 720 721
f 722 719 721
f 720 723 724
f 721 720 724
v -11.67502 27.975 50.43155
v 8.625004 27.975 50.43155
v -11.67502 27.975 52.46326
v 8.625004 27.975 52.46326
v -11.67502 16.025 52.46326
v 8.625004 16.025 52.46326
v -11.67502 16.025 50.43155
v 8.625004 16.025 50.43155
v -11.67502 27.975 52.46326
v 8.625004 27.975 52.46326
v -11.67502 16.025 52.46326
v 8.625004 16.025 52.46326
v -11.67502 16.025 50.43155
v -11.67502 27.975 50.43155
v 8.625004 27.975 50.43155
v 8.625004 16.025 50.43155
v 8.625004 27.975 50.43155
v 8.625004 27.975 52.46326
v 8.625004 16.025 52.46326
v 8.625004 16.025 50.43155
v -11.67502 16.025 50.43155
v -11.67502 16.025 52.46326
v -11.67502 27.975 52.46326
v -11.67502 27.975 50.43155
f 725 727 728
f 725 728 726
f 733 729 730
f 733 730 734
f 735 731 732
f 735 732 736
f 737 738 739
f 737 739 740
f 741 742 743
f 741 743 744
f 745 746 747
f 745 747 748
