v -18 -27 9.999996
v -14 -27 9.999996
v -18 -27 5.99998
v -14 -27 5.99998
v -14 -27 9.999996
v -14 -30 10
v -14 -27 5.99998
v -14 -30 6.000001
v -14 -30 10
v -18 -30 10
v -14 -30 6.000001
v -18 -30 6.000001
v -18 -30 10
v -18 -27 9.999996
v -18 -30 6.000001
v -18 -27 5.99998
v -18 -27 5.99998
v -14 -27 5.99998
v -18 -30 6.000001
v -14 -30 6.000001
v -18 -30 10
v -14 -30 10
v -18 -27 9.999996
v -14 -27 9.999996
f 1 2 3
f 2 4 3
f 5 6 7
f 6 8 7
f 9 10 11
f 10 12 11
f 13 14 15
f 14 16 15
f 17 18 19
f 18 20 19
f 21 22 23
f 22 24 23
v 10 -32 10
v 14 -32 10
v 10 -30 10
v 14 -30 10
v 18 -32 6
v 18 -32 -10
v 18 -30 6
v 18 -30 -10
v 14 -32 -10
v 10 -32 -10
v 14 -27 -10
v 10 -27 -10
v 10 -32 -10
v 10 -32 6
v 10 -27 -10
v 10 -27 6
v 10 -27 6
v 14 -27 6
v 10 -27 -10
v 14 -27 -10
v 10 -32 -10
v 14 -32 -10
v 10 -32 6
v 14 -32 6
v 10 -32 10
v 14 -32 10
v 10 -30 10
v 10 -32 10
v 18 -32 10
v 18 -31 10
v 14 -27 6
v 10 -27 6
v 14 -30 10
v 10 -30 10
v 18 -32 -10
v 18 -30 -10
v 18 -32 10
v 18 -32 6
v 14 -27 6
v 14 -30 10
v 18 -30 6
v 18 -31 10
v 18 -31 10
v 18 -32 10
v 18 -32 -10
v 14 -27 -10
v 14 -27 6
v 18 -30 -10
v 18 -30 6
f 25 26 27
f 26 28 27
f 29 30 31
f 30 32 31
f 33 34 35
f 34 36 35
f 37 38 39
f 38 40 39
f 41 42 43
f 42 44 43
f 45 46 47
f 46 48 47
f 47 48 49
f 48 50 49
f 40 38 51
f 38 52 51
f 29 31 53
f 31 54 53
f 55 56 57
f 56 58 57
f 33 35 59
f 35 60 59
f 50 48 61
f 48 62 61
f 63 64 65
f 64 66 65
f 28 26 67
f 26 68 67
f 48 46 62
f 46 69 62
f 70 71 72
f 71 73 72
v 2 -22 10
v 1.999999 -21 12
v 2 -19 10
v 1.999998 -19 12
v 2.000001 -21 16
v 6.000001 -21 16
v 2.000001 -19 16
v 6.000001 -19 16
v 6 -21 12
v 6 -22 9.999997
v 6 -19 12
v 6 -19 9.999997
v 6 -22 9.999997
v 2 -22 10
v 6 -19 9.999997
v 2 -19 10
v 2 -19 10
v 1.999998 -19 12
v 6 -19 9.999997
v 6 -19 12
v 6 -22 9.999997
v 6 -21 12
v 2 -22 10
v 1.999999 -21 12
v 1.999999 -21 12
v 6 -21 12
v 2.000001 -21 16
v 6.000001 -21 16
v -6 -19 12
v -6 -21 12
v -5.999999 -19 16
v -5.999999 -21 16
v 6.000001 -21 16
v 6.000001 -19 16
v 6.000001 -19 16
v 2.000001 -19 16
v 1.999998 -19 12
v 1.999999 -21 12
v -2.000002 -19 12
v -2.000002 -21 12
v -2.000001 -19 16
v -2.000002 -19 12
v -2.000002 -21 12
v -2.000001 -21 16
v -2.000001 -21 16
v -2.000001 -19 16
v -2 -19 9.999998
v -1.999999 -22 9.999998
v -6 -19 10
v -6 -22 10
v -5.999999 -19 16
v -6 -19 12
v -6 -21 12
v -5.999999 -21 16
v -5.999999 -21 16
v -5.999999 -19 16
v -2.000002 -19 12
v -2.000002 -21 12
v -2 -19 9.999998
v -1.999999 -22 9.999998
v -6 -19 10
v -2 -19 9.999998
v -2.000002 -21 12
v -6 -21 12
v -1.999999 -22 9.999998
v -6 -22 10
v -6 -22 10
v -6 -19 10
f 74 75 76
f 75 77 76
f 78 79 80
f 79 81 80
f 82 83 84
f 83 85 84
f 86 87 88
f 87 89 88
f 90 91 92
f 91 93 92
f 94 95 96
f 95 97 96
f 98 99 100
f 99 101 100
f 102 103 104
f 103 105 104
f 82 84 106
f 84 107 106
f 93 91 108
f 91 109 108
f 110 111 112
f 111 113 112
f 109 91 114
f 91 115 114
f 98 100 116
f 100 117 116
f 78 80 118
f 80 119 118
f 120 121 122
f 121 123 122
f 114 115 124
f 115 125 124
f 116 117 126
f 117 127 126
f 118 119 128
f 119 129 128
f 130 131 132
f 131 133 132
f 125 115 134
f 115 135 134
f 136 137 138
f 137 139 138
f 103 102 140
f 102 141 140
v -10 -30 10
v 10 -30 10
v -10 -16 10
v 10 -16 10
v 10 -30 10
v 10 -30 -10
v 10 -16 10
v 10 -16 -10
v 10 -30 -10
v -10 -30 -10
v 10 -16 -10
v -10 -16 -10
v -10 -30 -10
v -10 -30 10
v -10 -16 -10
v -10 -16 10
v -10 -16 10
v 10 -16 10
v -10 -16 -10
v 10 -16 -10
v -10 -30 -10
v 10 -30 -10
v -10 -30 10
v 10 -30 10
f 142 143 144
f 143 145 144
f 146 147 148
f 147 149 148
f 150 151 152
f 151 153 152
f 154 155 156
f 155 157 156
f 158 159 160
f 159 161 160
f 162 163 164
f 163 165 164
v 10 -27 18
v 14 -27 18
v 10 -27 13.99998
v 14 -27 13.99998
v 14 -27 18
v 14 -30 18
v 14 -27 13.99998
v 14 -30 14
v 14 -30 18
v 10 -30 18
v 14 -30 14
v 10 -30 14
v 10 -30 18
v 10 -27 18
v 10 -30 14
v 10 -27 13.99998
v 10 -27 13.99998
v 14 -27 13.99998
v 10 -30 14
v 14 -30 14
v 10 -30 18
v 14 -30 18
v 10 -27 18
v 14 -27 18
f 166 167 168
f 167 169 168
f 170 171 172
f 171 173 172
f 174 175 176
f 175 177 176
f 178 179 180
f 179 181 180
f 182 183 184
f 183 185 184
f 186 187 188
f 187 189 188
v -14 -24 13.99999
v -10 -24 13.99999
v -14 -24 9.999982
v -10 -24 9.999982
v -10 -24 13.99999
v -10 -30 14
v -10 -24 9.999982
v -10 -30 10
v -10 -30 14
v -14 -30 14
v -10 -30 10
v -14 -30 10
v -14 -30 14
v -14 -24 13.99999
v -14 -30 10
v -14 -24 9.999982
v -14 -24 9.999982
v -10 -24 9.999982
v -14 -30 10
v -10 -30 10
v -14 -30 14
v -10 -30 14
v -14 -24 13.99999
v -10 -24 13.99999
f 190 191 192
f 191 193 192
f 194 195 196
f 195 197 196
f 198 199 200
f 199 201 200
f 202 203 204
f 203 205 204
f 206 207 208
f 207 209 208
f 210 211 212
f 211 213 212
v 6 -21 13.99999
v 10 -21 13.99999
v 6 -21 9.999977
v 10 -21 9.999977
v 10 -21 13.99999
v 10 -30 14
v 10 -21 9.999977
v 10 -30 10
v 10 -30 14
v 6 -30 14
v 10 -30 10
v 6 -30 10
v 6 -30 14
v 6 -21 13.99999
v 6 -30 10
v 6 -21 9.999977
v 6 -21 9.999977
v 10 -21 9.999977
v 6 -30 10
v 10 -30 10
v 6 -30 14
v 10 -30 14
v 6 -21 13.99999
v 10 -21 13.99999
f 214 215 216
f 215 217 216
f 218 219 220
f 219 221 220
f 222 223 224
f 223 225 224
f 226 227 228
f 227 229 228
f 230 231 232
f 231 233 232
f 234 235 236
f 235 237 236
v -22 -24 1.999995
v -18 -24 1.999995
v -22 -24 -2.000019
v -18 -24 -2.000019
v -18 -24 1.999995
v -18 -30 2.000002
v -18 -24 -2.000019
v -18 -30 -1.999999
v -18 -30 2.000002
v -22 -30 2.000002
v -18 -30 -1.999999
v -22 -30 -1.999999
v -22 -30 2.000002
v -22 -24 1.999995
v -22 -30 -1.999999
v -22 -24 -2.000019
v -22 -24 -2.000019
v -18 -24 -2.000019
v -22 -30 -1.999999
v -18 -30 -1.999999
v -22 -30 2.000002
v -18 -30 2.000002
v -22 -24 1.999995
v -18 -24 1.999995
f 238 239 240
f 239 241 240
f 242 243 244
f 243 245 244
f 246 247 248
f 247 249 248
f 250 251 252
f 251 253 252
f 254 255 256
f 255 257 256
f 258 259 260
f 259 261 260
v -10 -21 13.99999
v -6 -21 13.99999
v -10 -21 9.999977
v -6 -21 9.999977
v -6 -21 13.99999
v -6 -30 14
v -6 -21 9.999977
v -6 -30 10
v -6 -30 14
v -10 -30 14
v -6 -30 10
v -10 -30 10
v -10 -30 14
v -10 -21 13.99999
v -10 -30 10
v -10 -21 9.999977
v -10 -21 9.999977
v -6 -21 9.999977
v -10 -30 10
v -6 -30 10
v -10 -30 14
v -6 -30 14
v -10 -21 13.99999
v -6 -21 13.99999
f 262 263 264
f 263 265 264
f 266 267 268
f 267 269 268
f 270 271 272
f 271 273 272
f 274 275 276
f 275 277 276
f 278 279 280
f 279 281 280
f 282 283 284
f 283 285 284
v 20 -30 -10
v 22 -30 -10
v 20 -20 -10
v 22 -20 -10
v 22 -30 -10
v 22 -30 -12
v 22 -20 -10
v 22 -20 -12
v 22 -30 -12
v 20 -30 -12
v 22 -20 -12
v 20 -20 -12
v 20 -30 -12
v 20 -30 -10
v 20 -20 -12
v 20 -20 -10
v 20 -18 -10
v 22 -18 -10
v 20 -18 -12
v 22 -18 -12
v 20 -30 -12
v 22 -30 -12
v 20 -30 -10
v 22 -30 -10
v 18 -20 -8
v 24 -20 -8
v 18 -18 -8
v 24 -18 -8
v 18 -20 -14
v 18 -20 -8
v 18 -18 -14
v 18 -18 -8
v 24 -20 -8
v 24 -20 -14
v 24 -18 -8
v 24 -18 -14
v 24 -20 -14
v 18 -20 -14
v 24 -18 -14
v 18 -18 -14
v 22 -20 -10
v 22 -20 -12
v 24 -20 -8
v 24 -20 -14
v 24 -18 -8
v 18 -18 -8
v 24 -18 -14
v 20 -20 -12
v 18 -20 -14
v 18 -18 -14
v 20 -20 -10
v 18 -20 -8
f 286 287 288
f 287 289 288
f 290 291 292
f 291 293 292
f 294 295 296
f 295 297 296
f 298 299 300
f 299 301 300
f 302 303 304
f 303 305 304
f 306 307 308
f 307 309 308
f 310 311 312
f 311 313 312
f 314 315 316
f 315 317 316
f 318 319 320
f 319 321 320
f 322 323 324
f 323 325 324
f 326 327 328
f 327 329 328
f 303 302 330
f 302 331 330
f 305 303 332
f 303 330 332
f 327 333 329
f 333 334 329
f 304 305 335
f 305 332 335
f 333 336 334
f 336 337 334
f 302 304 331
f 304 335 331
f 336 326 337
f 326 328 337
v -14 -18 10
v -10 -18 10
v -14 -18 -10.00001
v -10 -18 -10.00001
v -10 -18 10
v -10 -29.99999 10
v -10 -18 -10.00001
v -10 -30.00001 -10
v -10 -29.99999 10
v -14 -29.99999 10
v -10 -30.00001 -10
v -14 -30.00001 -10
v -14 -29.99999 10
v -14 -18 10
v -14 -30.00001 -10
v -14 -18 -10.00001
v -14 -18 -10.00001
v -10 -18 -10.00001
v -14 -30.00001 -10
v -10 -30.00001 -10
v -14 -29.99999 10
v -10 -29.99999 10
v -14 -18 10
v -10 -18 10
f 338 339 340
f 339 341 340
f 342 343 344
f 343 345 344
f 346 347 348
f 347 349 348
f 350 351 352
f 351 353 352
f 354 355 356
f 355 357 356
f 358 359 360
f 359 361 360
v -22 -27 5.999996
v -18 -27 5.999996
v -22 -27 1.99998
v -18 -27 1.99998
v -18 -27 5.999996
v -18 -30 6.000002
v -18 -27 1.99998
v -18 -30 2.000001
v -18 -30 6.000002
v -22 -30 6.000002
v -18 -30 2.000001
v -22 -30 2.000001
v -22 -30 6.000002
v -22 -27 5.999996
v -22 -30 2.000001
v -22 -27 1.99998
v -22 -27 1.99998
v -18 -27 1.99998
v -22 -30 2.000001
v -18 -30 2.000001
v -22 -30 6.000002
v -18 -30 6.000002
v -22 -27 5.999996
v -18 -27 5.999996
f 362 363 364
f 363 365 364
f 366 367 368
f 367 369 368
f 370 371 372
f 371 373 372
f 374 375 376
f 375 377 376
f 378 379 380
f 379 381 380
f 382 383 384
f 383 385 384
v 10 -22 4
v 14 -20 4
v 10 -18 4
v 14 -18 4
v 14 -20 4
v 14 -20 -4
v 14 -18 4
v 14 -18 -4
v 14 -20 -4
v 10 -22 -4
v 14 -18 -4
v 10 -18 -4
v 10 -22 -4
v 10 -22 4
v 10 -18 -4
v 10 -18 4
v 10 -18 4
v 14 -18 4
v 10 -18 -4
v 14 -18 -4
v 10 -22 -4
v 14 -20 -4
v 10 -22 4
v 14 -20 4
f 386 387 388
f 387 389 388
f 390 391 392
f 391 393 392
f 394 395 396
f 395 397 396
f 398 399 400
f 399 401 400
f 402 403 404
f 403 405 404
f 406 407 408
f 407 409 408
v 10 -30 -10
v 14 -30 -10
v 14 -24 -10
v 10 -24 -10
v 14 -24 -18
v 10 -30 -18
v 10 -24 -18
v 14 -30 -18
v 14 -30 -10
v 14 -30 -14
v 14 -24 -14
v 14 -24 -10
v 14 -30 -18
v 14 -24 -18
v 0 -24 -18
v 0 -30 -14
v 0 -24 -14
v 0 -30 -18
v 0 -30 -10
v 0 -24 -10
v 14 -24 -18
v 10 -24 -18
v 10 -24 -14
v 14 -24 -14
v 10 -24 -10
v 14 -24 -10
v 10 -30 -14
v 14 -30 -18
v 14 -30 -14
v 10 -30 -18
v 10 -30 -10
v 14 -30 -10
v 0 -30 -10
v 7 -30 -10
v 7 -24 -10
v 0 -24 -10
v 7 -24 -18
v 0 -30 -18
v 0 -24 -18
v 7 -30 -18
v 10 -24 -18
v 4 -20 -18
v 4 -20 -14
v 10 -24 -14
v 4 -20 -18
v 0 -20 -18
v 0 -20 -14
v 4 -20 -14
v 4 -20 -14
v 0 -20 -14
v 0 -20 -10
v 4 -20 -10
v 0 -30 -14
v 7 -30 -18
v 7 -30 -14
v 0 -30 -18
v 0 -30 -10
v 7 -30 -10
v 4 -20 -18
v 0 -20 -18
v 8.5 -30 -10
v 8.5 -24 -10
v 8.5 -24 -18
v 8.5 -30 -18
v 10 -18 -14
v 8 -18 -14
v 8 -18 -10
v 10 -18 -10
v 8 -18 -14
v 4 -20 -14
v 4 -20 -10
v 8 -18 -10
v 8.5 -30 -14
v 8.5 -30 -18
v 8.5 -30 -10
v 0 -21 -14
v 0 -21 -10
v 0 -20 -14
v 0 -20 -10
v 10 -24 -10
v 10 -24 -14
v 10 -20 -14
v 10 -20 -10
v 10 -18 -14
v 10 -18 -10
v 0 -20 -18
v 5.5 -21 -14
v 7 -24 -14
v 0 -24 -14
v 0 -21 -14
v 4 -20 -14
v 0 -20 -14
v 0 -21 -10
v 5.5 -21 -10
v 0 -20 -10
v 4 -20 -10
v 0 -20 -14
v 0 -21 -14
v 4 -20 -14
v 5.5 -21 -14
v 0 -24 -14
v 7 -24 -14
v 8.25 -20 -14
v 8.5 -24 -14
v 8 -18 -14
v 10 -20 -14
v 10 -24 -14
v 10 -18 -14
v 8.25 -20 -10
v 8 -18 -10
v 10 -20 -10
v 10 -18 -10
v 5.5 -21 -14
v 8.5 -24 -14
v 5.5 -21 -14
v 10 -24 -14
v 4 -20 -14
v 5.5 -21 -14
v 10 -24 -14
f 410 411 412
f 413 410 412
f 414 415 416
f 414 417 415
f 418 419 420
f 421 418 420
f 419 422 423
f 420 419 423
f 424 425 426
f 424 427 425
f 426 428 429
f 426 425 428
f 430 431 432
f 433 430 432
f 433 432 434
f 435 433 434
f 436 437 438
f 436 439 437
f 440 438 441
f 440 436 438
f 442 443 444
f 445 442 444
f 446 447 448
f 446 449 447
f 450 451 452
f 453 450 452
f 454 455 456
f 457 454 456
f 458 459 460
f 461 458 460
f 462 463 464
f 462 465 463
f 466 464 467
f 466 462 464
f 468 446 469
f 446 448 469
f 443 470 471
f 444 443 471
f 470 410 413
f 471 470 413
f 472 449 446
f 472 473 449
f 416 473 472
f 416 415 473
f 474 475 476
f 477 474 476
f 478 479 480
f 481 478 480
f 482 439 436
f 482 483 439
f 464 483 482
f 464 463 483
f 484 436 440
f 484 482 436
f 467 482 484
f 467 464 482
f 416 472 468
f 472 446 468
f 485 429 486
f 485 426 429
f 487 486 488
f 487 485 486
f 489 490 491
f 492 489 491
f 492 491 493
f 494 492 493
f 495 485 487
f 495 424 485
f 424 426 485
f 496 497 498
f 496 498 499
f 500 496 499
f 500 499 501
f 502 445 503
f 445 444 503
f 504 502 505
f 502 503 505
f 506 507 508
f 507 509 508
f 507 510 509
f 510 511 509
f 512 513 497
f 512 497 496
f 500 514 512
f 500 512 496
f 515 513 512
f 515 516 513
f 517 512 514
f 517 515 512
f 503 518 505
f 518 519 505
f 503 444 518
f 444 471 518
f 471 413 520
f 518 471 520
f 518 520 521
f 519 518 521
f 522 511 523
f 524 523 525
f 526 527 528
v 22 -30 4
v 24 -30 4
v 22 -20 4
v 24 -20 4
v 24 -30 4
v 24 -30 2
v 24 -20 4
v 24 -20 2
v 24 -30 2
v 22 -30 2
v 24 -20 2
v 22 -20 2
v 22 -30 2
v 22 -30 4
v 22 -20 2
v 22 -20 4
v 22 -18 4
v 24 -18 4
v 22 -18 2
v 24 -18 2
v 22 -30 2
v 24 -30 2
v 22 -30 4
v 24 -30 4
v 20 -20 6
v 26 -20 6
v 20 -18 6
v 26 -18 6
v 20 -20 0
v 20 -20 6
v 20 -18 0
v 20 -18 6
v 26 -20 6
v 26 -20 0
v 26 -18 6
v 26 -18 0
v 26 -20 0
v 20 -20 0
v 26 -18 0
v 20 -18 0
v 24 -20 4
v 24 -20 2
v 26 -20 6
v 26 -20 0
v 26 -18 6
v 20 -18 6
v 26 -18 0
v 22 -20 2
v 20 -20 0
v 20 -18 0
v 22 -20 4
v 20 -20 6
f 529 530 531
f 530 532 531
f 533 534 535
f 534 536 535
f 537 538 539
f 538 540 539
f 541 542 543
f 542 544 543
f 545 546 547
f 546 548 547
f 549 550 551
f 550 552 551
f 553 554 555
f 554 556 555
f 557 558 559
f 558 560 559
f 561 562 563
f 562 564 563
f 565 566 567
f 566 568 567
f 569 570 571
f 570 572 571
f 546 545 573
f 545 574 573
f 548 546 575
f 546 573 575
f 570 576 572
f 576 577 572
f 547 548 578
f 548 575 578
f 576 579 577
f 579 580 577
f 545 547 574
f 547 578 574
f 579 569 580
f 569 571 580
v 17 -30 17
v 19 -30 17
v 17 -20 17
v 19 -20 17
v 19 -30 17
v 19 -30 15
v 19 -20 17
v 19 -20 15
v 19 -30 15
v 17 -30 15
v 19 -20 15
v 17 -20 15
v 17 -30 15
v 17 -30 17
v 17 -20 15
v 17 -20 17
v 17 -18 17
v 19 -18 17
v 17 -18 15
v 19 -18 15
v 17 -30 15
v 19 -30 15
v 17 -30 17
v 19 -30 17
v 15 -20 19
v 21 -20 19
v 15 -18 19
v 21 -18 19
v 15 -20 13
v 15 -20 19
v 15 -18 13
v 15 -18 19
v 21 -20 19
v 21 -20 13
v 21 -18 19
v 21 -18 13
v 21 -20 13
v 15 -20 13
v 21 -18 13
v 15 -18 13
v 19 -20 17
v 19 -20 15
v 21 -20 19
v 21 -20 13
v 21 -18 19
v 15 -18 19
v 21 -18 13
v 17 -20 15
v 15 -20 13
v 15 -18 13
v 17 -20 17
v 15 -20 19
f 581 582 583
f 582 584 583
f 585 586 587
f 586 588 587
f 589 590 591
f 590 592 591
f 593 594 595
f 594 596 595
f 597 598 599
f 598 600 599
f 601 602 603
f 602 604 603
f 605 606 607
f 606 608 607
f 609 610 611
f 610 612 611
f 613 614 615
f 614 616 615
f 617 618 619
f 618 620 619
f 621 622 623
f 622 624 623
f 598 597 625
f 597 626 625
f 600 598 627
f 598 625 627
f 622 628 624
f 628 629 624
f 599 600 630
f 600 627 630
f 628 631 629
f 631 632 629
f 597 599 626
f 599 630 626
f 631 621 632
f 621 623 632
v -26 -27 1.999996
v -22 -27 1.999996
v -26 -27 -2.00002
v -22 -27 -2.00002
v -22 -27 1.999996
v -22 -30 2.000002
v -22 -27 -2.00002
v -22 -30 -1.999999
v -22 -30 2.000002
v -26 -30 2.000002
v -22 -30 -1.999999
v -26 -30 -1.999999
v -26 -30 2.000002
v -26 -27 1.999996
v -26 -30 -1.999999
v -26 -27 -2.00002
v -26 -27 -2.00002
v -22 -27 -2.00002
v -26 -30 -1.999999
v -22 -30 -1.999999
v -26 -30 2.000002
v -22 -30 2.000002
v -26 -27 1.999996
v -22 -27 1.999996
f 633 634 635
f 634 636 635
f 637 638 639
f 638 640 639
f 641 642 643
f 642 644 643
f 645 646 647
f 646 648 647
f 649 650 651
f 650 652 651
f 653 654 655
f 654 656 655
v -14 -27 18
v -10 -27 18
v -14 -27 13.99998
v -10 -27 13.99998
v -10 -27 18
v -10 -30 18
v -10 -27 13.99998
v -10 -30 14
v -10 -30 18
v -14 -30 18
v -10 -30 14
v -14 -30 14
v -14 -30 18
v -14 -27 18
v -14 -30 14
v -14 -27 13.99998
v -14 -27 13.99998
v -10 -27 13.99998
v -14 -30 14
v -10 -30 14
v -14 -30 18
v -10 -30 18
v -14 -27 18
v -10 -27 18
f 657 658 659
f 658 660 659
f 661 662 663
f 662 664 663
f 665 666 667
f 666 668 667
f 669 670 671
f 670 672 671
f 673 674 675
f 674 676 675
f 677 678 679
f 678 680 679
v 6 -24 18
v 10 -24 18
v 6 -24 13.99998
v 10 -24 13.99998
v 10 -24 18
v 10 -30 18
v 10 -24 13.99998
v 10 -30 14
v 10 -30 18
v 6 -30 18
v 10 -30 14
v 6 -30 14
v 6 -30 18
v 6 -24 18
v 6 -30 14
v 6 -24 13.99998
v 6 -24 13.99998
v 10 -24 13.99998
v 6 -30 14
v 10 -30 14
v 6 -30 18
v 10 -30 18
v 6 -24 18
v 10 -24 18
f 681 682 683
f 682 684 683
f 685 686 687
f 686 688 687
f 689 690 691
f 690 692 691
f 693 694 695
f 694 696 695
f 697 698 699
f 698 700 699
f 701 702 703
f 702 704 703
v -18 -21 1.999993
v -14 -21 1.999993
v -18 -21 -2.000021
v -14 -21 -2.000021
v -14 -21 1.999993
v -14 -30 2.000002
v -14 -21 -2.000021
v -14 -30 -1.999999
v -14 -30 2.000002
v -18 -30 2.000002
v -14 -30 -1.999999
v -18 -30 -1.999999
v -18 -30 2.000002
v -18 -21 1.999993
v -18 -30 -1.999999
v -18 -21 -2.000021
v -18 -21 -2.000021
v -14 -21 -2.000021
v -18 -30 -1.999999
v -14 -30 -1.999999
v -18 -30 2.000002
v -14 -30 2.000002
v -18 -21 1.999993
v -14 -21 1.999993
f 705 706 707
f 706 708 707
f 709 710 711
f 710 712 711
f 713 714 715
f 714 716 715
f 717 718 719
f 718 720 719
f 721 722 723
f 722 724 723
f 725 726 727
f 726 728 727
v -7.152557E-07 -22 -9.999998
v 7.152557E-07 -20 -14
v -7.152557E-07 -18 -9.999998
v 7.152557E-07 -18 -14
v 7.152557E-07 -20 -14
v -7.999999 -20 -14
v 7.152557E-07 -18 -14
v -7.999999 -18 -14
v -7.999999 -20 -14
v -8.000001 -22 -10
v -7.999999 -18 -14
v -8.000001 -18 -10
v -8.000001 -22 -10
v -7.152557E-07 -22 -9.999998
v -8.000001 -18 -10
v -7.152557E-07 -18 -9.999998
v -7.152557E-07 -18 -9.999998
v 7.152557E-07 -18 -14
v -8.000001 -18 -10
v -7.999999 -18 -14
v -8.000001 -22 -10
v -7.999999 -20 -14
v -7.152557E-07 -22 -9.999998
v 7.152557E-07 -20 -14
f 729 730 731
f 730 732 731
f 733 734 735
f 734 736 735
f 737 738 739
f 738 740 739
f 741 742 743
f 742 744 743
f 745 746 747
f 746 748 747
f 749 750 751
f 750 752 751
v -22 -27 -2.000004
v -18 -27 -2.000004
v -22 -27 -6.00002
v -18 -27 -6.00002
v -18 -27 -2.000004
v -18 -30 -1.999998
v -18 -27 -6.00002
v -18 -30 -5.999999
v -18 -30 -1.999998
v -22 -30 -1.999998
v -18 -30 -5.999999
v -22 -30 -5.999999
v -22 -30 -1.999998
v -22 -27 -2.000004
v -22 -30 -5.999999
v -22 -27 -6.00002
v -22 -27 -6.00002
v -18 -27 -6.00002
v -22 -30 -5.999999
v -18 -30 -5.999999
v -22 -30 -1.999998
v -18 -30 -1.999998
v -22 -27 -2.000004
v -18 -27 -2.000004
f 753 754 755
f 754 756 755
f 757 758 759
f 758 760 759
f 761 762 763
f 762 764 763
f 765 766 767
f 766 768 767
f 769 770 771
f 770 772 771
f 773 774 775
f 774 776 775
v -18 -24 5.999994
v -14 -24 5.999994
v -18 -24 1.999982
v -14 -24 1.999982
v -14 -24 5.999994
v -14 -30 6.000002
v -14 -24 1.999982
v -14 -30 2.000001
v -14 -30 6.000002
v -18 -30 6.000002
v -14 -30 2.000001
v -18 -30 2.000001
v -18 -30 6.000002
v -18 -24 5.999994
v -18 -30 2.000001
v -18 -24 1.999982
v -18 -24 1.999982
v -14 -24 1.999982
v -18 -30 2.000001
v -14 -30 2.000001
v -18 -30 6.000002
v -14 -30 6.000002
v -18 -24 5.999994
v -14 -24 5.999994
f 777 778 779
f 778 780 779
f 781 782 783
f 782 784 783
f 785 786 787
f 786 788 787
f 789 790 791
f 790 792 791
f 793 794 795
f 794 796 795
f 797 798 799
f 798 800 799
v -30 -30 30
v 30 -30 30
v -30 30 30
v 30 30 30
v 30 -30 30
v 30 -30 -30
v 30 30 30
v 30 30 -30
v 30 -30 -30
v -30 -30 -30
v 30 30 -30
v -30 30 -30
v -30 -30 -30
v -30 -30 30
v -30 30 -30
v -30 30 30
v -30 30 30
v 30 30 30
v -30 30 -30
v 30 30 -30
v -30 -30 -30
v 30 -30 -30
v -30 -30 30
v 30 -30 30
f 803 804 802
f 803 802 801
f 807 808 806
f 807 806 805
f 811 812 810
f 811 810 809
f 815 816 814
f 815 814 813
f 819 820 818
f 819 818 817
f 823 824 822
f 823 822 821
v -18 -24 -2.000006
v -14 -24 -2.000006
v -18 -24 -6.000018
v -14 -24 -6.000018
v -14 -24 -2.000006
v -14 -30 -1.999998
v -14 -24 -6.000018
v -14 -30 -5.999999
v -14 -30 -1.999998
v -18 -30 -1.999998
v -14 -30 -5.999999
v -18 -30 -5.999999
v -18 -30 -1.999998
v -18 -24 -2.000006
v -18 -30 -5.999999
v -18 -24 -6.000018
v -18 -24 -6.000018
v -14 -24 -6.000018
v -18 -30 -5.999999
v -14 -30 -5.999999
v -18 -30 -1.999998
v -14 -30 -1.999998
v -18 -24 -2.000006
v -14 -24 -2.000006
f 825 826 827
f 826 828 827
f 829 830 831
f 830 832 831
f 833 834 835
f 834 836 835
f 837 838 839
f 838 840 839
f 841 842 843
f 842 844 843
f 845 846 847
f 846 848 847
v -28.55049 3.632451 -7.544178
v -28.56634 3.632452 11.59203
v -30.46573 3.632452 -7.545764
v -30.48158 3.632453 11.59044
v -30.46573 -7.632454 -7.545764
v -30.48158 -7.632454 11.59044
v -28.5505 -7.632455 -7.544178
v -28.56635 -7.632455 11.59203
v -30.46573 3.632452 -7.545764
v -30.48158 3.632453 11.59044
v -30.46573 -7.632454 -7.545764
v -30.48158 -7.632454 11.59044
v -28.5505 -7.632455 -7.544178
v -28.55049 3.632451 -7.544178
v -28.56634 3.632452 11.59203
v -28.56635 -7.632455 11.59203
v -28.56634 3.632452 11.59203
v -30.48158 3.632453 11.59044
v -30.48158 -7.632454 11.59044
v -28.56635 -7.632455 11.59203
v -28.5505 -7.632455 -7.544178
v -30.46573 -7.632454 -7.545764
v -30.46573 3.632452 -7.545764
v -28.55049 3.632451 -7.544178
f 849 851 852
f 849 852 850
f 857 853 854
f 857 854 858
f 859 855 856
f 859 856 860
f 861 862 863
f 861 863 864
f 865 866 867
f 865 867 868
f 869 870 871
f 869 871 872
v -4.305182 14.39048 -28.27611
v -4.305174 -4.176207 -28.2761
v -4.303632 14.39048 -30.13434
v -4.303623 -4.176208 -30.13434
v 6.626013 14.39049 -30.12522
v 6.626021 -4.176203 -30.12522
v 6.624462 14.39049 -28.26698
v 6.624471 -4.176202 -28.26698
v -4.303632 14.39048 -30.13434
v -4.303623 -4.176208 -30.13434
v 6.626013 14.39049 -30.12522
v 6.626021 -4.176203 -30.12522
v 6.624462 14.39049 -28.26698
v -4.305182 14.39048 -28.27611
v -4.305174 -4.176207 -28.2761
v 6.624471 -4.176202 -28.26698
v -4.305174 -4.176207 -28.2761
v -4.303623 -4.176208 -30.13434
v 6.626021 -4.176203 -30.12522
v 6.624471 -4.176202 -28.26698
v 6.624462 14.39049 -28.26698
v 6.626013 14.39049 -30.12522
v -4.303632 14.39048 -30.13434
v -4.305182 14.39048 -28.27611
f 873 875 876
f 873 876 874
f 881 877 878
f 881 878 882
f 883 879 880
f 883 880 884
f 885 886 887
f 885 887 888
f 889 890 891
f 889 891 892
f 893 894 895
f 893 895 896
v 28.57592 14.39048 -4.745168
v 28.57591 -4.176207 -4.745161
v 30.43415 14.39048 -4.743682
v 30.43414 -4.176208 -4.743675
v 30.42541 14.39049 6.185965
v 30.42541 -4.176204 6.185972
v 28.56718 14.39049 6.184479
v 28.56717 -4.176202 6.184486
v 30.43415 14.39048 -4.743682
v 30.43414 -4.176208 -4.743675
v 30.42541 14.39049 6.185965
v 30.42541 -4.176204 6.185972
v 28.56718 14.39049 6.184479
v 28.57592 14.39048 -4.745168
v 28.57591 -4.176207 -4.745161
v 28.56717 -4.176202 6.184486
v 28.57591 -4.176207 -4.745161
v 30.43414 -4.176208 -4.743675
v 30.42541 -4.176204 6.185972
v 28.56717 -4.176202 6.184486
v 28.56718 14.39049 6.184479
v 30.42541 14.39049 6.185965
v 30.43415 14.39048 -4.743682
v 28.57592 14.39048 -4.745168
f 897 899 900
f 897 900 898
f 905 901 902
f 905 902 906
f 907 903 904
f 907 904 908
f 909 910 911
f 909 911 912
f 913 914 915
f 913 915 916
f 917 918 919
f 917 919 920
v 6.624689 14.39048 28.47607
v 6.62468 -4.176207 28.47607
v 6.623148 14.39048 30.33431
v 6.62314 -4.176207 30.33431
v -4.306495 14.39049 30.32525
v -4.306504 -4.176201 30.32525
v -4.304955 14.39049 28.46701
v -4.304964 -4.176201 28.46701
v 6.623148 14.39048 30.33431
v 6.62314 -4.176207 30.33431
v -4.306495 14.39049 30.32525
v -4.306504 -4.176201 30.32525
v -4.304955 14.39049 28.46701
v 6.624689 14.39048 28.47607
v 6.62468 -4.176207 28.47607
v -4.304964 -4.176201 28.46701
v 6.62468 -4.176207 28.47607
v 6.62314 -4.176207 30.33431
v -4.306504 -4.176201 30.32525
v -4.304964 -4.176201 28.46701
v -4.304955 14.39049 28.46701
v -4.306495 14.39049 30.32525
v 6.623148 14.39048 30.33431
v 6.624689 14.39048 28.47607
f 921 923 924
f 921 924 922
f 929 925 926
f 929 926 930
f 931 927 928
f 931 928 932
f 933 934 935
f 933 935 936
f 937 938 939
f 937 939 940
f 941 942 943
f 941 943 944
