v -32 25 31
v 32 25 31
v 32 -25 31
v -32 -25 31
v 32 25 31
v 32 25 -33
v 32 -25 -33
v 32 -25 31
v 32 25 -33
v -32 25 -33
v -32 -25 -33
v 32 -25 -33
v -32 25 -33
v -32 25 31
v -32 -25 31
v -32 -25 -33
v -32 25 -33
v 32 25 -33
v 32 25 31
v -32 25 31
v -32 -25 31
v 32 -25 31
v 32 -25 -33
v -32 -25 -33
f 1 2 3
f 1 3 4
f 5 6 7
f 5 7 8
f 9 10 11
f 9 11 12
f 13 14 15
f 13 15 16
f 17 18 19
f 17 19 20
f 21 22 23
f 21 23 24
v 32 -25 -33
v 24 -25 -33
v 32 -17 -33
v 24 -17 -33
v 24 -25 7
v 32 -25 7
v 24 -17 7
v 32 -17 7
v 32 -25 7
v 32 -25 -25
v 32 -17 7
v 32 -17 -25
v 32 -25 -33
v 32 -17 -33
v 20 -23 -33
v 20 -25 -25
v 20 -23 -25
v 20 -25 -33
v 24 -17 -25
v 24 -25 7
v 24 -17 7
v 24 -25 -25
v 32 -25 7
v 24 -25 7
v 32 -25 -25
v 24 -25 -25
v 32 -25 -33
v 24 -25 -33
v 24 -25 -25
v 24 -17 -25
v 20 -25 -25
v 20 -23 -25
v 24 -17 -25
v 24 -17 -33
v 20 -23 -25
v 20 -23 -33
v 20 -23 -33
v 20 -25 -33
v 20 -25 -33
v 20 -25 -25
v 32 -17 -25
v 24 -17 -25
v 24 -17 7
v 32 -17 7
v 32 -17 -33
v 24 -17 -33
f 25 26 27
f 26 28 27
f 29 30 31
f 30 32 31
f 33 34 35
f 34 36 35
f 34 37 38
f 36 34 38
f 39 40 41
f 39 42 40
f 43 44 45
f 43 46 44
f 47 48 49
f 48 50 49
f 49 50 51
f 50 52 51
f 53 54 55
f 54 56 55
f 57 58 59
f 58 60 59
f 28 26 61
f 26 62 61
f 52 50 63
f 50 64 63
f 65 66 67
f 65 67 68
f 69 70 66
f 69 66 65
v -32 -18 15
v -24 -18 15
v -32 -16 15
v -24 -16 15
v -24 -18 15
v -24 -18 -9
v -24 -16 15
v -24 -16 -9
v -24 -18 -9
v -32 -18 -9
v -24 -16 -9
v -32 -16 -9
v -32 -18 -9
v -32 -18 15
v -32 -16 -9
v -32 -16 15
v -32 -18 -9
v -24 -18 -9
v -32 -18 15
v -24 -18 15
v -32 -16 15
v -24 -16 15
v -32 -16 -9
v -24 -16 -9
f 71 72 73
f 72 74 73
f 75 76 77
f 76 78 77
f 79 80 81
f 80 82 81
f 83 84 85
f 84 86 85
f 87 88 89
f 88 90 89
f 91 92 93
f 92 94 93
v 16 -25 31
v 16 -25 23
v 16 -22 31
v 16 -22 23
v -8 -25 23
v -8 -25 31
v -8 -22 23
v -8 -22 31
v -8 -25 31
v 0 -25 31
v 0 -22 31
v -8 -22 31
v 8 -25 31
v 8 -22 31
v 8 -22 23
v 0 -25 23
v 0 -22 23
v 8 -25 23
v -8 -25 23
v -8 -22 23
v -8 -25 31
v 0 -25 23
v 0 -25 31
v -8 -25 23
v 8 -25 23
v 8 -25 31
v 8 -19 23
v 0 -19 23
v 0 -22 23
v 0 -22 31
v 0 -19 23
v 0 -19 31
v 16 -19 31
v 16 -19 23
v 0 -19 31
v 8 -19 31
v 16 -19 31
v 16 -22 31
v 8 -22 15
v 8 -19 15
v 16 -22 15
v 16 -19 15
v 16 -25 31
v 16 -25 23
v 16 -25 31
v 8 -25 15
v 16 -25 15
v 8 -19 23
v 8 -19 31
v 8 -17 23
v 8 -17 31
v 16 -17 15
v 8 -17 15
v 8 -17 31
v 16 -17 31
v 16 -17 31
v 16 -17 23
v 8 -22 23
v 8 -22 15
v 8 -19 15
v 16 -22 15
v 16 -25 15
v 16 -17 15
v 16 -19 15
v 8 -17 15
v 8 -25 23
v 8 -25 15
v 16 -25 15
v 8 -25 15
v 8 -17 23
v 16 -17 23
v 16 -13 23
v 8 -13 23
v 16 -9 23
v 8 -9 23
v 8 -13 15
v 8 -13 23
v 8 -9 15
v 8 -9 23
v 16 -13 15
v 16 -13 23
v 16 -9 15
v 16 -9 23
v 16 -13 15
v 8 -13 15
v 16 -9 -33
v 8 -13 -33
v 8 -9 -33
v 16 -13 -33
v 8 -9 -17
v 8 -13 -17
v 16 -13 -17
v 16 -9 -17
v 8 -13 15
v 16 -13 -17
v 16 -13 15
v 8 -13 -17
v 8 -9 -25
v 8 -13 -25
v 8 -9 -33
v 8 -13 -33
v 16 -13 -25
v 16 -9 -25
v 16 -13 -33
v 16 -9 -33
v 8 -13 -25
v 16 -13 -33
v 16 -13 -25
v 8 -13 -33
v 8 -25 -17
v 16 -25 -25
v 16 -25 -17
v 8 -25 -25
v 16 -25 -25
v 16 -25 -17
v 16 -13 -17
v 8 -13 -17
v 16 -25 -17
v 8 -25 -17
v 8 -25 -17
v 8 -25 -25
v 8 -13 -25
v 16 -13 -25
v 8 -25 -25
v 16 -25 -25
v 0 -22 23
v -8 -22 23
v -8 -22 31
v 0 -22 31
v 8 -19 23
v 0 -19 23
v 0 -19 31
v 8 -19 31
v 8 -17 23
v 8 -17 31
v 16 -17 23
v 16 -17 31
v 8 -9 23
v 16 -9 23
v 8 -9 15
v 16 -9 15
v 16 -9 -17
v 8 -9 -17
v 16 -9 -33
v 8 -9 -33
v 8 -9 -25
v 16 -9 -25
f 95 96 97
f 96 98 97
f 99 100 101
f 100 102 101
f 103 104 105
f 106 103 105
f 104 107 108
f 105 104 108
f 109 110 111
f 109 112 110
f 111 113 114
f 111 110 113
f 115 116 117
f 115 118 116
f 117 119 120
f 117 116 119
f 109 111 121
f 111 122 121
f 123 124 125
f 124 126 125
f 97 98 127
f 98 128 127
f 105 108 129
f 108 130 129
f 130 108 131
f 108 132 131
f 133 134 135
f 134 136 135
f 120 119 137
f 119 138 137
f 108 107 132
f 107 139 132
f 140 133 141
f 133 135 141
f 142 143 144
f 143 145 144
f 136 134 146
f 134 147 146
f 130 131 148
f 131 149 148
f 127 128 150
f 128 151 150
f 152 142 153
f 142 154 153
f 98 96 155
f 96 156 155
f 151 128 157
f 128 158 157
f 128 98 158
f 98 155 158
f 142 144 154
f 144 159 154
f 160 152 161
f 152 153 161
f 138 119 162
f 119 163 162
f 164 165 166
f 167 164 166
f 167 166 168
f 169 167 168
f 170 144 171
f 170 159 144
f 172 171 173
f 172 170 171
f 151 157 174
f 175 151 174
f 175 174 176
f 177 175 176
f 178 147 179
f 178 146 147
f 180 181 182
f 180 183 181
f 184 170 172
f 184 185 170
f 174 186 187
f 176 174 187
f 188 189 190
f 188 191 189
f 192 185 184
f 192 193 185
f 194 193 192
f 194 195 193
f 186 196 197
f 187 186 197
f 196 198 199
f 197 196 199
f 200 201 202
f 200 203 201
f 204 205 206
f 204 207 205
f 196 186 208
f 186 209 208
f 210 211 212
f 211 213 212
f 185 193 214
f 193 215 214
f 216 217 218
f 217 219 218
f 220 221 222
f 223 220 222
f 224 225 226
f 227 224 226
f 228 229 230
f 229 231 230
f 232 233 234
f 233 235 234
f 236 237 234
f 235 236 234
f 238 239 240
f 241 238 240
f 241 240 237
f 236 241 237
v -32 -25 31
v -8 -25 31
v -32 -19 31
v -8 -19 31
v -8 -25 31
v -8 -25 23
v -8 -19 31
v -8 -19 23
v -8 -25 23
v -32 -25 23
v -8 -19 23
v -32 -19 23
v -32 -25 23
v -32 -25 31
v -32 -19 23
v -32 -19 31
v -32 -25 23
v -8 -25 23
v -32 -25 31
v -8 -25 31
v -32 -19 31
v -8 -19 31
v -32 -19 23
v -8 -19 23
f 242 243 244
f 243 245 244
f 246 247 248
f 247 249 248
f 250 251 252
f 251 253 252
f 254 255 256
f 255 257 256
f 258 259 260
f 259 261 260
f 262 263 264
f 263 265 264
v -32 -27 -25
v -24 -27 -33
v -24 -27 -25
v -32 -27 -33
v -32 -27 -17
v -24 -27 -17
v -32 -27 -17
v -24 -27 -17
v -24 -19 -17
v -32 -19 -17
v -24 -9 -17
v -32 -9 -17
v -24 -19 -33
v -32 -27 -33
v -32 -19 -33
v -24 -27 -33
v -24 -9 -33
v -32 -9 -33
v -24 -27 -17
v -24 -27 -25
v -24 -19 -25
v -24 -19 -17
v -24 -9 -25
v -24 -9 -17
v -17 -27 -25
v -17 -27 -33
v -17 -24 -33
v -17 -24 -25
v -24 -19 -33
v -24 -9 -33
v -32 -19 -33
v -32 -27 -25
v -32 -19 -25
v -32 -27 -33
v -32 -9 -33
v -32 -9 -25
v -32 -27 -17
v -32 -19 -17
v -32 -9 -17
v -17 -27 -25
v -17 -27 -33
v -17 -27 -33
v -17 -24 -33
v -24 -19 -25
v -24 -27 -25
v -17 -24 -25
v -17 -27 -25
v -24 -9 -25
v -32 -9 -25
v -32 -9 -17
v -24 -9 -17
v -24 -9 -33
v -32 -9 -33
v -24 -19 -33
v -24 -19 -25
v -17 -24 -33
v -17 -24 -25
f 266 267 268
f 266 269 267
f 270 268 271
f 270 266 268
f 272 273 274
f 275 272 274
f 275 274 276
f 277 275 276
f 278 279 280
f 278 281 279
f 282 280 283
f 282 278 280
f 284 285 286
f 287 284 286
f 287 286 288
f 289 287 288
f 290 291 292
f 293 290 292
f 286 294 295
f 288 286 295
f 296 297 298
f 296 299 297
f 300 298 301
f 300 296 298
f 298 302 303
f 298 297 302
f 301 303 304
f 301 298 303
f 268 267 305
f 267 306 305
f 281 278 307
f 278 308 307
f 309 310 311
f 310 312 311
f 313 314 315
f 316 313 315
f 317 318 314
f 313 317 314
f 319 320 321
f 320 322 321
v -34.55049 15.93245 -7.844178
v -34.56634 15.93245 11.29203
v -36.46572 15.93245 -7.845764
v -36.48158 15.93245 11.29044
v -36.46573 4.667546 -7.845764
v -36.48158 4.667546 11.29044
v -34.5505 4.667545 -7.844178
v -34.56635 4.667545 11.29203
v -36.46572 15.93245 -7.845764
v -36.48158 15.93245 11.29044
v -36.46573 4.667546 -7.845764
v -36.48158 4.667546 11.29044
v -34.5505 4.667545 -7.844178
v -34.55049 15.93245 -7.844178
v -34.56634 15.93245 11.29203
v -34.56635 4.667545 11.29203
v -34.56634 15.93245 11.29203
v -36.48158 15.93245 11.29044
v -36.48158 4.667546 11.29044
v -34.56635 4.667545 11.29203
v -34.5505 4.667545 -7.844178
v -36.46573 4.667546 -7.845764
v -36.46572 15.93245 -7.845764
v -34.55049 15.93245 -7.844178
f 323 325 326
f 323 326 324
f 331 327 328
f 331 328 332
f 333 329 330
f 333 330 334
f 335 336 337
f 335 337 338
f 339 340 341
f 339 341 342
f 343 344 345
f 343 345 346
