v -32 25 31
v 32 25 31
v 32 -25 31
v -32 -25 31
v 32 25 31
v 32 25 -33
v 32 -25 -33
v 32 -25 31
v 32 25 -33
v -32 25 -33
v -32 -25 -33
v 32 -25 -33
v -32 25 -33
v -32 25 31
v -32 -25 31
v -32 -25 -33
v -32 25 -33
v 32 25 -33
v 32 25 31
v -32 25 31
v -32 -25 31
v 32 -25 31
v 32 -25 -33
v -32 -25 -33
f 1 2 3
f 1 3 4
f 5 6 7
f 5 7 8
f 9 10 11
f 9 11 12
f 13 14 15
f 13 15 16
f 17 18 19
f 17 19 20
f 21 22 23
f 21 23 24
v -23.99998 -27 9.000004
v -31.99998 -27 9
v -23.99998 -25 9.000004
v -31.99998 -25 9
v -31.99999 -27 23
v -32 -27 31
v -31.99999 -17 23
v -32 -17 31
v -32 -27 31
v -24 -27 31.00001
v -32 -17 31
v -24 -17 31.00001
v -10 -27 31.00002
v -9.999996 -27 23.00002
v -10 -25 31.00002
v -9.999996 -25 23.00002
v -23.99999 -17 23.00001
v -31.99999 -17 23
v -24 -17 31.00001
v -32 -17 31
v -24 -27 31.00001
v -32 -27 31
v -23.99999 -27 23.00001
v -31.99999 -27 23
v -10 -27 31.00002
v -9.999996 -27 23.00002
v -10 -25 31.00002
v -10 -27 31.00002
v -23.99999 -17 23.00001
v -24 -17 31.00001
v -9.999996 -25 23.00002
v -10 -25 31.00002
v -23.99998 -27 9.000004
v -31.99998 -27 9
v -31.99998 -27 9
v -31.99998 -25 9
v -31.99999 -17 23
v -23.99999 -17 23.00001
v -31.99998 -25 9
v -23.99998 -25 9.000004
v -23.99999 -27 23.00001
v -23.99999 -17 23.00001
v -9.999996 -27 23.00002
v -9.999996 -25 23.00002
v -23.99999 -17 23.00001
v -23.99999 -27 23.00001
v -23.99998 -25 9.000004
v -23.99998 -27 9.000004
f 25 26 27
f 26 28 27
f 29 30 31
f 30 32 31
f 33 34 35
f 34 36 35
f 37 38 39
f 38 40 39
f 41 42 43
f 42 44 43
f 45 46 47
f 46 48 47
f 45 47 49
f 47 50 49
f 36 34 51
f 34 52 51
f 53 54 55
f 54 56 55
f 47 48 57
f 48 58 57
f 29 31 59
f 31 60 59
f 61 62 63
f 62 64 63
f 65 66 67
f 66 68 67
f 69 70 71
f 70 72 71
v -10 -27 -24.99999
v -10 -27 -32.99999
v -10 -25 -24.99999
v -10 -25 -32.99999
v -24 -27 -33
v -32 -27 -33
v -24 -17 -33
v -32 -17 -33
v -32 -27 -33
v -32 -27 -25
v -32 -17 -33
v -32 -17 -25
v -32.00001 -27 -11
v -24.00001 -27 -11
v -32.00001 -25 -11
v -24.00001 -25 -11
v -24 -17 -25
v -24 -17 -33
v -32 -17 -25
v -32 -17 -33
v -32 -27 -25
v -32 -27 -33
v -24 -27 -25
v -24 -27 -33
v -32.00001 -27 -11
v -24.00001 -27 -11
v -32.00001 -25 -11
v -32.00001 -27 -11
v -24 -17 -25
v -32 -17 -25
v -24.00001 -25 -11
v -32.00001 -25 -11
v -10 -27 -24.99999
v -10 -27 -32.99999
v -10 -27 -32.99999
v -10 -25 -32.99999
v -24 -17 -33
v -24 -17 -25
v -10 -25 -32.99999
v -10 -25 -24.99999
v -24 -27 -25
v -24 -17 -25
v -24.00001 -27 -11
v -24.00001 -25 -11
v -24 -17 -25
v -24 -27 -25
v -10 -25 -24.99999
v -10 -27 -24.99999
f 73 74 75
f 74 76 75
f 77 78 79
f 78 80 79
f 81 82 83
f 82 84 83
f 85 86 87
f 86 88 87
f 89 90 91
f 90 92 91
f 93 94 95
f 94 96 95
f 93 95 97
f 95 98 97
f 84 82 99
f 82 100 99
f 101 102 103
f 102 104 103
f 95 96 105
f 96 106 105
f 77 79 107
f 79 108 107
f 109 110 111
f 110 112 111
f 113 114 115
f 114 116 115
f 117 118 119
f 118 120 119
v 23.99908 -27 -11.00033
v 31.99908 -27 -11
v 23.99908 -25 -11.00033
v 31.99908 -25 -11
v 31.99967 -27 -25
v 32 -27 -33
v 31.99967 -17 -25
v 32 -17 -33
v 32 -27 -33
v 24 -27 -33.00033
v 32 -17 -33
v 24 -17 -33.00033
v 10 -27 -33.00092
v 9.999669 -27 -25.00092
v 10 -25 -33.00092
v 9.999669 -25 -25.00092
v 23.99967 -17 -25.00033
v 31.99967 -17 -25
v 24 -17 -33.00033
v 32 -17 -33
v 24 -27 -33.00033
v 32 -27 -33
v 23.99967 -27 -25.00033
v 31.99967 -27 -25
v 10 -27 -33.00092
v 9.999669 -27 -25.00092
v 10 -25 -33.00092
v 10 -27 -33.00092
v 23.99967 -17 -25.00033
v 24 -17 -33.00033
v 9.999669 -25 -25.00092
v 10 -25 -33.00092
v 23.99908 -27 -11.00033
v 31.99908 -27 -11
v 31.99908 -27 -11
v 31.99908 -25 -11
v 31.99967 -17 -25
v 23.99967 -17 -25.00033
v 31.99908 -25 -11
v 23.99908 -25 -11.00033
v 23.99967 -27 -25.00033
v 23.99967 -17 -25.00033
v 9.999669 -27 -25.00092
v 9.999669 -25 -25.00092
v 23.99967 -17 -25.00033
v 23.99967 -27 -25.00033
v 23.99908 -25 -11.00033
v 23.99908 -27 -11.00033
f 121 122 123
f 122 124 123
f 125 126 127
f 126 128 127
f 129 130 131
f 130 132 131
f 133 134 135
f 134 136 135
f 137 138 139
f 138 140 139
f 141 142 143
f 142 144 143
f 141 143 145
f 143 146 145
f 132 130 147
f 130 148 147
f 149 150 151
f 150 152 151
f 143 144 153
f 144 154 153
f 125 127 155
f 127 156 155
f 157 158 159
f 158 160 159
f 161 162 163
f 162 164 163
f 165 166 167
f 166 168 167
v 7.999996 -17 7
v 8 -17 -8.999996
v -8.000005 -17 7
v -8.000001 -17 -9
v -8.000005 -25 7
v -8.000001 -25 -9
v 7.999996 -25 7
v 8 -25 -8.999996
v 7.999996 -25 7
v 8 -25 -8.999996
v 7.999996 -17 7
v 8 -17 -8.999996
v 8 -25 -8.999996
v -8.000001 -25 -9
v 8 -17 -8.999996
v -8.000001 -17 -9
v -8.000001 -25 -9
v -8.000005 -25 7
v -8.000001 -17 -9
v -8.000005 -17 7
v -8.000005 -25 7
v 7.999996 -25 7
v -8.000005 -17 7
v 7.999996 -17 7
f 169 170 171
f 170 172 171
f 173 174 175
f 174 176 175
f 177 178 179
f 178 180 179
f 181 182 183
f 182 184 183
f 185 186 187
f 186 188 187
f 189 190 191
f 190 192 191
v 10.00026 -27 22.99928
v 9.999997 -27 30.99928
v 10.00026 -25 22.99928
v 9.999997 -25 30.99928
v 24 -27 30.99974
v 32 -27 31
v 24 -17 30.99974
v 32 -17 31
v 32 -27 31
v 32.00026 -27 23
v 32 -17 31
v 32.00026 -17 23
v 32.00072 -27 8.999997
v 24.00072 -27 8.999739
v 32.00072 -25 8.999997
v 24.00072 -25 8.999739
v 24.00026 -17 22.99974
v 24 -17 30.99974
v 32.00026 -17 23
v 32 -17 31
v 32.00026 -27 23
v 32 -27 31
v 24.00026 -27 22.99974
v 24 -27 30.99974
v 32.00072 -27 8.999997
v 24.00072 -27 8.999739
v 32.00072 -25 8.999997
v 32.00072 -27 8.999997
v 24.00026 -17 22.99974
v 32.00026 -17 23
v 24.00072 -25 8.999739
v 32.00072 -25 8.999997
v 10.00026 -27 22.99928
v 9.999997 -27 30.99928
v 9.999997 -27 30.99928
v 9.999997 -25 30.99928
v 24 -17 30.99974
v 24.00026 -17 22.99974
v 9.999997 -25 30.99928
v 10.00026 -25 22.99928
v 24.00026 -27 22.99974
v 24.00026 -17 22.99974
v 24.00072 -27 8.999739
v 24.00072 -25 8.999739
v 24.00026 -17 22.99974
v 24.00026 -27 22.99974
v 10.00026 -25 22.99928
v 10.00026 -27 22.99928
f 193 194 195
f 194 196 195
f 197 198 199
f 198 200 199
f 201 202 203
f 202 204 203
f 205 206 207
f 206 208 207
f 209 210 211
f 210 212 211
f 213 214 215
f 214 216 215
f 213 215 217
f 215 218 217
f 204 202 219
f 202 220 219
f 221 222 223
f 222 224 223
f 215 216 225
f 216 226 225
f 197 199 227
f 199 228 227
f 229 230 231
f 230 232 231
f 233 234 235
f 234 236 235
f 237 238 239
f 238 240 239
v -8 -1 -9
v -16 -1 -9
v -16 -1 7
v -8 -1 7
v 16 -1 -9
v 8 -1 -9
v 8 -1 7
v 16 -1 7
v 8 -1 -17
v -8 -1 -17
v -16 -1 -17
v -16 -25 -9
v -8 -25 -17
v -8 -25 -9
v -16 -25 -17
v 16 -1 -17
v 8 -25 -9
v 16 -25 -17
v 16 -25 -9
v 8 -25 -17
v -8 -1 15
v 8 -1 15
v -16 -1 15
v -16 -25 15
v -8 -25 7
v -8 -25 15
v -16 -25 7
v 16 -1 15
v 8 -25 15
v 16 -25 7
v 16 -25 15
v 8 -25 7
v -8 -9 15
v 8 -9 15
v 8 -1 15
v -8 -1 15
v 8 -1 -17
v -8 -9 -17
v -8 -1 -17
v 8 -9 -17
v 16 -9 7
v 16 -9 -9
v 16 -1 -9
v 16 -1 7
v -16 -1 -9
v -16 -9 7
v -16 -1 7
v -16 -9 -9
v 8 -1 -9
v -8 -1 -9
v 8 -9 -9
v -8 -9 -9
v -8 -1 -9
v -8 -1 7
v -8 -9 -9
v -8 -9 7
v 8 -1 7
v 8 -1 -9
v 8 -9 7
v 8 -9 -9
v -8 -1 7
v 8 -1 7
v -8 -9 7
v 8 -9 7
v -16 -9 15
v -16 -1 15
v -16 -9 -17
v -16 -1 -17
v -16 -9 7
v -8 -9 -9
v -8 -9 7
v -16 -9 -9
v 16 -9 15
v 16 -1 15
v 16 -1 -17
v 16 -9 -17
v 8 -9 7
v 16 -9 -9
v 16 -9 7
v 8 -9 -9
v 16 -9 -17
v 16 -1 -17
v -16 -1 -17
v -16 -9 -17
v 8 -9 -17
v -8 -9 -17
v 16 -9 15
v 16 -1 15
v -16 -9 15
v -16 -1 15
v -8 -9 15
v 8 -9 15
v -8 -9 -17
v -8 -25 -17
v -8 -25 -9
v -16 -9 -9
v -8 -25 -9
v -16 -25 -9
v -16 -25 -9
v -16 -25 -17
v -16 -25 -17
v -8 -25 -17
v 16 -25 -17
v 16 -25 -9
v 16 -9 -9
v 16 -25 -9
v 8 -25 -9
v 8 -9 -17
v 8 -25 -9
v 8 -25 -17
v 8 -25 -17
v 16 -25 -17
v 16 -25 7
v 16 -25 15
v 16 -25 15
v 8 -25 15
v 8 -9 15
v 8 -25 15
v 8 -25 7
v 16 -9 7
v 8 -25 7
v 16 -25 7
v -8 -9 15
v -8 -25 7
v -8 -25 15
v -8 -25 15
v -16 -25 15
v -16 -25 15
v -16 -25 7
v -16 -9 7
v -16 -25 7
v -8 -25 7
f 241 242 243
f 244 241 243
f 245 246 247
f 248 245 247
f 249 250 241
f 246 249 241
f 250 251 242
f 241 250 242
f 252 253 254
f 252 255 253
f 256 249 246
f 245 256 246
f 257 258 259
f 257 260 258
f 247 244 261
f 262 247 261
f 244 243 263
f 261 244 263
f 264 265 266
f 264 267 265
f 248 247 262
f 268 248 262
f 269 270 271
f 269 272 270
f 273 274 275
f 276 273 275
f 277 278 279
f 277 280 278
f 281 282 283
f 284 281 283
f 285 286 287
f 285 288 286
f 289 290 291
f 290 292 291
f 293 294 295
f 294 296 295
f 297 298 299
f 298 300 299
f 301 302 303
f 302 304 303
f 305 273 276
f 306 305 276
f 279 307 308
f 279 278 307
f 309 310 311
f 309 312 310
f 274 313 314
f 275 274 314
f 315 280 277
f 315 316 280
f 317 318 319
f 317 320 318
f 282 321 322
f 283 282 322
f 323 288 285
f 323 324 288
f 310 325 320
f 310 326 325
f 327 281 284
f 328 327 284
f 287 329 330
f 287 286 329
f 331 317 332
f 331 311 317
f 333 295 334
f 295 335 334
f 292 336 337
f 336 338 337
f 288 324 339
f 324 340 339
f 307 278 341
f 278 342 341
f 321 282 343
f 282 344 343
f 345 291 346
f 291 347 346
f 300 348 349
f 348 350 349
f 280 316 351
f 316 352 351
f 281 327 353
f 327 354 353
f 313 274 355
f 274 356 355
f 357 299 358
f 299 359 358
f 304 360 361
f 360 362 361
f 296 363 364
f 363 365 364
f 273 305 366
f 305 367 366
f 329 286 368
f 286 369 368
f 370 303 371
f 303 372 371
v -34.55049 15.93245 -7.844178
v -34.56634 15.93245 11.29203
v -36.46572 15.93245 -7.845764
v -36.48158 15.93245 11.29044
v -36.46573 4.667546 -7.845764
v -36.48158 4.667546 11.29044
v -34.5505 4.667545 -7.844178
v -34.56635 4.667545 11.29203
v -36.46572 15.93245 -7.845764
v -36.48158 15.93245 11.29044
v -36.46573 4.667546 -7.845764
v -36.48158 4.667546 11.29044
v -34.5505 4.667545 -7.844178
v -34.55049 15.93245 -7.844178
v -34.56634 15.93245 11.29203
v -34.56635 4.667545 11.29203
v -34.56634 15.93245 11.29203
v -36.48158 15.93245 11.29044
v -36.48158 4.667546 11.29044
v -34.56635 4.667545 11.29203
v -34.5505 4.667545 -7.844178
v -36.46573 4.667546 -7.845764
v -36.46572 15.93245 -7.845764
v -34.55049 15.93245 -7.844178
f 373 375 376
f 373 376 374
f 381 377 378
f 381 378 382
f 383 379 380
f 383 380 384
f 385 386 387
f 385 387 388
f 389 390 391
f 389 391 392
f 393 394 395
f 393 395 396
