v 22 -16 22
v 22 -20 22
v 2 -16 22
v 2 -20 22
v 2 -16 -22
v 2 -20 -22
v 22 -20 -22
v 22 -16 -22
v 22 19 22
v 22 -12 22
v 2 19 22
v 2 -12 22
v 2 19 -22
v 2 -11 -22
v 22 -12 -22
v 22 19 -22
v 0 -20 22
v 0 -16 22
v 0 -20 -22
v 0 -16 -22
v 0 -12 22
v 0 19 22
v 0 -11 -22
v 0 19 -22
v -14 -16 22
v -22 -20 22
v -22 -16 22
v -14 -20 22
v -22 -20 -22
v -14 -20 -22
v -14 -16 -22
v -22 -16 -22
v -14 19 22
v -22 -12 22
v -22 19 22
v -14 -12 22
v -22 -12 -22
v -14 -11.5 -22
v -22 19 -22
v -14 19 -22
v 22 -16 14
v 22 -20 22
v 22 -16 22
v 22 -20 14
v -22 -20 22
v -22 -20 14
v -22 -16 14
v -22 -16 22
v 22 19 14
v 22 -12 22
v 22 19 22
v 22 -12 14
v -22 -12 22
v -22 -12 14
v -22 19 14
v -22 19 22
v 2 19 22
v 22 19 14
v 22 19 22
v 2 19 14
v 0 19 22
v 0 19 14
v -22 19 22
v -14 19 14
v -14 19 22
v -22 19 14
v -4 -20 22
v -4 -16 22
v -4 -20 -22
v -4 -16 -22
v -4 -12 22
v -4 19 22
v -4 -11.25 -22
v -4 19 -22
v -4 19 22
v -4 19 14
v 22 -16 -22
v 22 -20 6
v 22 -16 6
v 22 -20 -22
v -22 -20 6
v -22 -20 -22
v -22 -16 -22
v -22 -16 6
v 22 19 -22
v 22 -12 6
v 22 19 6
v 22 -12 -22
v -22 -12 6
v -22 -12 -22
v -22 19 -22
v -22 19 6
v 2 19 6
v 22 19 -22
v 22 19 6
v 2 19 -22
v 0 19 6
v 0 19 -22
v -22 19 6
v -14 19 -22
v -14 19 6
v -22 19 -22
v -4 19 6
v -4 19 -22
v -10 -16 22
v -10 -20 22
v -10 -20 -22
v -10 -16 -22
v -10 19 22
v -10 -12 22
v -10 -11.375 -22
v -10 19 -22
v -10 19 22
v -10 19 14
v -10 19 6
v -10 19 -22
v 22 -16 12
v 22 -20 12
v -22 -20 12
v -22 -16 12
v 22 19 12
v 22 -12 12
v -22 -12 12
v -22 19 12
v 2 19 12
v 22 19 12
v 0 19 12
v -22 19 12
v -14 19 12
v -4 19 12
v -10 19 12
v 22 -20 14
v 2 -20 14
v 2 -20 22
v 22 -20 22
v 0 -20 14
v 0 -20 22
v -14 -20 14
v -22 -20 14
v -22 -20 22
v -14 -20 22
v -4 -20 14
v -4 -20 22
v 22 -20 -22
v 2 -20 -22
v 2 -20 6
v 22 -20 6
v 0 -20 -22
v 0 -20 6
v -14 -20 -22
v -22 -20 -22
v -22 -20 6
v -14 -20 6
v -4 -20 -22
v -4 -20 6
v -10 -20 14
v -10 -20 22
v -10 -20 -22
v -10 -20 6
v 2 -20 12
v 22 -20 12
v 0 -20 12
v -22 -20 12
v -14 -20 12
v -4 -20 12
v -10 -20 12
f 1 2 3
f 2 4 3
f 5 6 7
f 5 7 8
f 9 10 11
f 10 12 11
f 10 1 12
f 1 3 12
f 13 14 15
f 13 15 16
f 14 5 8
f 14 8 15
f 3 17 18
f 3 4 17
f 19 6 5
f 20 19 5
f 11 21 22
f 11 12 21
f 12 18 21
f 12 3 18
f 23 14 13
f 24 23 13
f 20 5 14
f 23 20 14
f 25 26 27
f 25 28 26
f 29 30 31
f 32 29 31
f 33 34 35
f 33 36 34
f 36 27 34
f 36 25 27
f 37 38 39
f 38 40 39
f 37 32 31
f 37 31 38
f 41 42 43
f 41 44 42
f 45 46 47
f 48 45 47
f 49 50 51
f 49 52 50
f 52 43 50
f 52 41 43
f 53 54 55
f 56 53 55
f 48 47 54
f 53 48 54
f 57 58 59
f 57 60 58
f 61 60 57
f 61 62 60
f 63 64 65
f 63 66 64
f 18 67 68
f 18 17 67
f 69 19 20
f 70 69 20
f 22 71 72
f 22 21 71
f 21 68 71
f 21 18 68
f 73 23 74
f 23 24 74
f 73 70 20
f 73 20 23
f 75 62 61
f 75 76 62
f 77 78 79
f 77 80 78
f 81 82 83
f 84 81 83
f 85 86 87
f 85 88 86
f 88 79 86
f 88 77 79
f 89 90 91
f 92 89 91
f 84 83 90
f 89 84 90
f 93 94 95
f 93 96 94
f 97 96 93
f 97 98 96
f 99 100 101
f 99 102 100
f 103 98 97
f 103 104 98
f 105 28 25
f 105 106 28
f 68 106 105
f 68 67 106
f 30 107 108
f 31 30 108
f 107 69 70
f 108 107 70
f 109 36 33
f 109 110 36
f 72 110 109
f 72 71 110
f 110 25 36
f 110 105 25
f 71 105 110
f 71 68 105
f 38 111 40
f 111 112 40
f 111 73 112
f 73 74 112
f 38 31 108
f 38 108 111
f 111 108 70
f 111 70 73
f 113 76 75
f 113 114 76
f 65 114 113
f 65 64 114
f 115 104 103
f 115 116 104
f 101 116 115
f 101 100 116
f 117 44 41
f 117 118 44
f 79 118 117
f 79 78 118
f 46 119 120
f 47 46 120
f 119 81 84
f 120 119 84
f 121 52 49
f 121 122 52
f 87 122 121
f 87 86 122
f 122 41 52
f 122 117 41
f 86 117 122
f 86 79 117
f 54 123 124
f 55 54 124
f 123 89 92
f 124 123 92
f 47 120 123
f 54 47 123
f 120 84 89
f 123 120 89
f 125 95 126
f 125 93 95
f 60 126 58
f 60 125 126
f 127 93 125
f 127 97 93
f 62 125 60
f 62 127 125
f 128 101 129
f 128 99 101
f 66 129 64
f 66 128 129
f 130 97 127
f 130 103 97
f 76 127 62
f 76 130 127
f 131 103 130
f 131 115 103
f 114 130 76
f 114 131 130
f 129 115 131
f 129 101 115
f 64 131 114
f 64 129 131
f 132 133 134
f 135 132 134
f 133 136 137
f 134 133 137
f 138 139 140
f 141 138 140
f 136 142 143
f 137 136 143
f 144 145 146
f 147 144 146
f 145 148 149
f 146 145 149
f 150 151 152
f 153 150 152
f 148 154 155
f 149 148 155
f 142 156 157
f 143 142 157
f 156 138 141
f 157 156 141
f 154 158 159
f 155 154 159
f 158 150 153
f 159 158 153
f 147 146 160
f 161 147 160
f 161 160 133
f 132 161 133
f 146 149 162
f 160 146 162
f 160 162 136
f 133 160 136
f 153 152 163
f 164 153 163
f 164 163 139
f 138 164 139
f 149 155 165
f 162 149 165
f 162 165 142
f 136 162 142
f 155 159 166
f 165 155 166
f 165 166 156
f 142 165 156
f 159 153 164
f 166 159 164
f 166 164 138
f 156 166 138
v -22 -17 -12
v -12 -17 -12
v -14 -10 -12
v -22 -10 -12
v -14 -10 -22
v -22 -16 -22
v -22 -10 -22
v -12 -16 -22
v -22 -23 -12
v -12 -23 -12
v -22 -23 -8
v -12 -23 -8
v 3 -21 -22
v 0 -23 -22
v 0 -19 -22
v 3 -23 -22
v 3 -20 -22
v 0 -16 -22
v 3 -21 -12
v 3 -20 -12
v 0 -19 -12
v 0 -16 -12
v 0 -23 -12
v 3 -23 -12
v -22 -23 -8
v -12 -23 -8
v -12 -21 -8
v -22 -21 -8
v -12 -20 -8
v -22 -20 -8
v -12 -19 -22
v -22 -23 -22
v -22 -19 -22
v -12 -23 -22
v -12 -21 -8
v -12 -23 -8
v -12 -23 -12
v -12 -19 -12
v -12 -20 -8
v -12 -17 -12
v -22 -17 -12
v -22 -19 -12
v -22 -20 -8
v -22 -21 -8
v -22 -23 -12
v -22 -23 -8
v 3 -23 -12
v 3 -19 -12
v 3 -23 -8
v 3 -19 -8
v -12 -19 -12
v -12 -23 -12
v -12 -19 -8
v -12 -23 -8
v 0 -23 -12
v 0 -19 -12
v 3 -23 -12
v 3 -19 -12
v 0 -23 -8
v 0 -23 -12
v 3 -23 -8
v 3 -23 -12
v 0 -19 -8
v 0 -23 -8
v 3 -19 -8
v 3 -23 -8
v 0 -16 -12
v 0 -16 -18
v 0 -10 -18
v 0 -10 -12
v 0 -16 -22
v 0 -10 -22
v -22 -10 -18
v -22 -10 -12
v -22 -16 -18
v -22 -10 -22
v -22 -16 -22
v 3 -23 -18
v 0 -23 -18
v 3 -23 -22
v 0 -23 -22
v -22 -23 -18
v -12 -23 -22
v -12 -23 -18
v -22 -23 -22
v 3 -23 -18
v 3 -21 -18
v 3 -21 -12
v 3 -23 -22
v 3 -21 -22
v 3 -20 -18
v 3 -20 -12
v 3 -20 -22
v -22 -19 -18
v -22 -23 -18
v -22 -19 -22
v -22 -23 -22
v -14 -6 -22
v -22 -6 -22
v -14 -2 -22
v -22 -2 -22
v -14 -6 -12
v -22 -6 -12
v -14 -2 -12
v -22 -2 -12
v -22 -6 -22
v -22 -6 -18
v -22 -2 -22
v -22 -2 -18
v -22 -6 -12
v -22 -2 -12
v -14 -10 -12
v -14 -10 -18
v -14 -6 -18
v -14 -6 -12
v -14 -2 -18
v -14 -2 -12
v -14 -6 -22
v -14 -2 -22
v -14 -10 -18
v -14 -10 -22
v -10 -10 -18
v -10 -10 -22
v -10 -10 -22
v -10 -6 -22
v -14 -6 -16
v -14 -10 -16
v -10 -6 -16
v -10 -10 -16
v -4 -10 -18
v -4 -10 -22
v -4 -10 -22
v -10 -6 -18
v -10 -10 -18
v -4 -10 -18
v -14 -6 -18
v -14 -10 -18
v -14 -6 -16
v -14 -10 -16
v -14 -10 -16
v -10 -10 -16
v -10 -10 -18
v -10 -6 -18
v -10 -10 -16
v -10 -6 -16
v -8 -16 -12
v -10 -10 -12
v 0 -10 -12
v -8 -16 -22
v 0 -10 -22
v -8 -23 -8
v -8 -19 -8
v -12 -19 -8
v -12 -19 -12
v -8 -19 -12
v -8 -19 -22
v -8 -23 -22
v -8 -23 -12
v -8 -23 -8
v -8 -23 -18
v -8 -23 -22
v -12 -13 -12
v -12 -13 -8
v -8 -19 -8
v -8 -19 -12
v -8 -13 -8
v -8 -13 -12
v -12 -13 -8
v -8 -13 -8
v -12 -17 -12
v -22 -17 -12
v -12 -20 -8
v -22 -20 -8
v 0 -19 -12
v 0 -19 -8
v 3 -19 -12
v 3 -19 -8
v 3 -20 -18
v 3 -20 -22
v 0 -16 -22
v 0 -16 -18
v 3 -20 -12
v 0 -16 -12
v -14 -2 -22
v -22 -2 -22
v -22 -2 -18
v -14 -2 -18
v -22 -2 -12
v -14 -2 -12
v -14 -6 -22
v -14 -6 -18
v -10 -6 -22
v -10 -6 -18
v -10 -6 -22
v -10 -6 -18
v -4 -10 -22
v -4 -10 -18
v -10 -6 -16
v -14 -6 -16
v -8 -19 -12
v -8 -19 -8
v -8 -13 -12
v -12 -13 -12
v -12 -13 -8
v -8 -13 -8
v 0 -10 -22
v -10 -10 -22
v -10 -10 -18
v 0 -10 -18
v -14 -10 -22
v -14 -10 -18
v -10 -10 -12
v 0 -10 -12
v -14 -10 -12
v -8 -19 -12
v -12 -19 -12
v -8 -13 -12
v -12 -13 -12
f 167 168 169
f 170 167 169
f 171 172 173
f 171 174 172
f 175 176 177
f 176 178 177
f 179 180 181
f 179 182 180
f 183 181 184
f 181 183 179
f 185 186 187
f 188 187 186
f 189 190 185
f 187 189 185
f 191 192 193
f 194 191 193
f 194 193 195
f 196 194 195
f 197 198 199
f 197 200 198
f 174 199 172
f 174 197 199
f 201 202 203
f 201 203 204
f 201 204 205
f 205 204 206
f 207 208 209
f 209 208 210
f 208 211 210
f 211 212 210
f 213 214 215
f 214 216 215
f 217 218 219
f 218 220 219
f 221 222 223
f 222 224 223
f 225 226 227
f 226 228 227
f 229 230 231
f 230 232 231
f 233 234 235
f 236 233 235
f 234 237 238
f 235 234 238
f 239 207 240
f 239 241 207
f 242 241 239
f 242 243 241
f 226 244 228
f 226 245 244
f 245 246 244
f 245 247 246
f 248 249 250
f 248 251 249
f 175 250 176
f 175 248 250
f 213 252 253
f 254 213 253
f 252 255 256
f 253 252 256
f 254 253 257
f 258 254 257
f 253 256 259
f 257 253 259
f 260 211 208
f 260 261 211
f 262 261 260
f 262 263 261
f 241 208 207
f 241 260 208
f 243 260 241
f 243 262 260
f 264 173 265
f 264 171 173
f 266 265 267
f 266 264 265
f 170 169 268
f 269 170 268
f 269 268 270
f 271 269 270
f 272 239 273
f 272 242 239
f 274 273 275
f 274 272 273
f 273 240 276
f 273 239 240
f 275 276 277
f 275 273 276
f 278 279 280
f 281 278 280
f 281 280 282
f 283 281 282
f 280 284 285
f 282 280 285
f 286 287 288
f 287 289 288
f 171 264 290
f 264 291 290
f 292 293 294
f 293 295 294
f 288 289 296
f 289 297 296
f 290 291 298
f 299 300 301
f 302 303 304
f 303 305 304
f 286 288 306
f 288 307 306
f 308 309 310
f 309 311 310
f 168 312 313
f 169 168 313
f 312 188 314
f 313 312 314
f 290 174 171
f 290 315 174
f 316 315 290
f 316 184 315
f 192 317 318
f 319 192 318
f 317 230 229
f 318 317 229
f 320 321 312
f 168 320 312
f 321 187 188
f 312 321 188
f 322 200 197
f 322 323 200
f 181 323 322
f 181 180 323
f 315 197 174
f 315 322 197
f 184 322 315
f 184 181 322
f 178 324 325
f 178 176 324
f 325 226 225
f 325 324 226
f 326 247 245
f 326 327 247
f 250 327 326
f 250 249 327
f 324 245 226
f 324 326 245
f 176 326 324
f 176 250 326
f 217 219 328
f 219 329 328
f 330 331 332
f 331 333 332
f 319 318 334
f 318 335 334
f 336 337 338
f 337 339 338
f 340 341 342
f 341 343 342
f 344 345 346
f 347 344 346
f 348 344 347
f 349 348 347
f 350 351 352
f 353 350 352
f 353 352 354
f 355 353 354
f 356 357 358
f 357 359 358
f 360 361 362
f 361 363 362
f 359 357 364
f 357 365 364
f 340 366 367
f 341 340 367
f 368 369 370
f 371 368 370
f 372 373 374
f 375 372 374
f 373 376 377
f 374 373 377
f 375 374 378
f 379 375 378
f 374 377 380
f 378 374 380
f 381 382 383
f 382 384 383
v 8.644411 -20.90988 -21.88046
v 9.595994 -20.08416 -21.73136
v 8.705059 -20.93481 -22.09402
v 12.14818 -18.94474 -20.42936
v 12.10068 -18.88129 -20.54407
v 11.34693 -19.64701 -20.55107
v 13.16176 -17.85066 -20.16422
v 12.10068 -18.88129 -20.54407
v 12.14818 -18.94474 -20.42936
v 11.23534 -19.38115 -22.05452
v 11.08892 -19.37913 -21.85617
v 11.92256 -18.48676 -21.86629
v 9.894464 -20.36202 -22.10384
v 11.08892 -19.37913 -21.85617
v 11.23534 -19.38115 -22.05452
v 9.595994 -20.08416 -21.73136
v 8.644411 -20.90988 -21.88046
v 8.575303 -20.82674 -21.87097
v 12.04836 -18.85855 -20.44578
v 12.10068 -18.88129 -20.54407
v 13.16176 -17.85066 -20.16422
v 11.34693 -19.64701 -20.55107
v 12.10068 -18.88129 -20.54407
v 12.04836 -18.85855 -20.44578
v 13.61486 -16.5915 -21.28758
v 13.86592 -16.82812 -21.47983
v 12.96702 -17.44086 -21.59851
v 10.57281 -21.15831 -21.56728
v 10.50881 -21.01491 -22.09468
v 11.74392 -19.89479 -21.90743
v 11.80025 -20.02615 -21.40693
v 12.72122 -19.17438 -21.24798
v 12.66235 -19.01243 -21.74547
v 13.68073 -18.22032 -20.9952
v 13.63652 -18.05626 -21.49025
v 14.30429 -17.6266 -20.84775
v 14.34205 -17.38469 -21.33157
v 10.23248 -20.68216 -22.34534
v 9.894464 -20.36202 -22.10384
v 11.23534 -19.38115 -22.05452
v 11.48793 -19.58567 -22.1458
v 9.894464 -20.36202 -22.10384
v 9.595994 -20.08416 -21.73136
v 10.89078 -19.02537 -21.56452
v 11.04514 -19.31566 -21.92985
v 9.595994 -20.08416 -21.73136
v 9.539884 -20.1053 -21.15476
v 10.84024 -19.04821 -21.01824
v 10.89078 -19.02537 -21.56452
v 9.539884 -20.1053 -21.15476
v 9.732258 -20.37689 -20.77952
v 11.19509 -19.07458 -20.65386
v 10.84024 -19.04821 -21.01824
v 9.732258 -20.37689 -20.77952
v 10.0631 -20.73477 -20.68413
v 11.34693 -19.64701 -20.55107
v 11.19509 -19.07458 -20.65386
v 13.16176 -17.85066 -20.16422
v 13.6656 -17.31281 -20.00673
v 13.53216 -16.82506 -20.06001
v 12.84068 -17.48915 -20.21701
v 11.77229 -18.62523 -20.49104
v 12.04836 -18.85855 -20.44578
v 10.0631 -20.73477 -20.68413
v 10.39433 -21.04508 -21.00991
v 11.6454 -19.93399 -20.88032
v 11.34693 -19.64701 -20.55107
v 12.14818 -18.94474 -20.42936
v 12.55124 -19.12009 -20.7235
v 10.39433 -21.04508 -21.00991
v 10.57281 -21.15831 -21.56728
v 11.80025 -20.02615 -21.40693
v 11.6454 -19.93399 -20.88032
v 12.55124 -19.12009 -20.7235
v 12.72122 -19.17438 -21.24798
v 13.46956 -18.20952 -20.46795
v 13.68073 -18.22032 -20.9952
v 14.00224 -17.65075 -20.33921
v 14.30429 -17.6266 -20.84775
v 12.84068 -17.48915 -20.21701
v 13.53216 -16.82506 -20.06001
v 13.37511 -16.55548 -20.44743
v 12.68032 -17.22383 -20.60521
v 11.77229 -18.62523 -20.49104
v 11.73568 -18.18807 -20.85946
v 12.68032 -17.22383 -20.60521
v 13.37511 -16.55548 -20.44743
v 13.45619 -16.50639 -20.98854
v 12.7563 -17.17947 -21.14724
v 11.73568 -18.18807 -20.85946
v 11.78881 -18.14757 -21.40377
v 10.84024 -19.04821 -21.01824
v 10.89078 -19.02537 -21.56452
v 12.7563 -17.17947 -21.14724
v 13.45619 -16.50639 -20.98854
v 13.61486 -16.5915 -21.28758
v 12.96702 -17.44086 -21.59851
v 12.96702 -17.44086 -21.59851
v 13.86592 -16.82812 -21.47983
v 14.08745 -17.04775 -21.56564
v 13.38088 -17.7233 -21.72497
v 11.92256 -18.48676 -21.86629
v 12.40579 -18.68458 -21.98112
v 13.38088 -17.7233 -21.72497
v 14.08745 -17.04775 -21.56564
v 14.34205 -17.38469 -21.33157
v 13.63652 -18.05626 -21.49025
v 12.40579 -18.68458 -21.98112
v 12.66235 -19.01243 -21.74547
v 13.46956 -18.20952 -20.46795
v 14.00224 -17.65075 -20.33921
v 13.6656 -17.31281 -20.00673
v 13.16176 -17.85066 -20.16422
v 12.55124 -19.12009 -20.7235
v 12.14818 -18.94474 -20.42936
v 11.48793 -19.58567 -22.1458
v 12.40579 -18.68458 -21.98112
v 12.66235 -19.01243 -21.74547
v 11.74392 -19.89479 -21.90743
v 10.50881 -21.01491 -22.09468
v 10.23248 -20.68216 -22.34534
v 9.599259 -21.87123 -22.27549
v 9.283213 -21.49204 -22.55248
v 10.89078 -19.02537 -21.56452
v 11.78881 -18.14757 -21.40377
v 11.92256 -18.48676 -21.86629
v 11.04514 -19.31566 -21.92985
v 11.19509 -19.07458 -20.65386
v 11.77229 -18.62523 -20.49104
v 11.73568 -18.18807 -20.85946
v 10.84024 -19.04821 -21.01824
v 9.659917 -21.78269 -21.04951
v 9.785503 -21.96106 -21.69915
v 10.57281 -21.15831 -21.56728
v 10.39433 -21.04508 -21.00991
v 9.30557 -21.39418 -20.57067
v 9.659917 -21.78269 -21.04951
v 10.39433 -21.04508 -21.00991
v 10.0631 -20.73477 -20.68413
v 8.844362 -21.03956 -20.73194
v 9.30557 -21.39418 -20.57067
v 10.0631 -20.73477 -20.68413
v 9.732258 -20.37689 -20.77952
v 8.528486 -20.8391 -21.22953
v 8.844362 -21.03956 -20.73194
v 9.732258 -20.37689 -20.77952
v 9.539884 -20.1053 -21.15476
v 8.575303 -20.82674 -21.87097
v 8.528486 -20.8391 -21.22953
v 9.539884 -20.1053 -21.15476
v 9.595994 -20.08416 -21.73136
v 8.878821 -21.07953 -22.39272
v 8.705059 -20.93481 -22.09402
v 9.595994 -20.08416 -21.73136
v 9.894464 -20.36202 -22.10384
v 9.283213 -21.49204 -22.55248
v 8.878821 -21.07953 -22.39272
v 9.894464 -20.36202 -22.10384
v 10.23248 -20.68216 -22.34534
v 11.92256 -18.48676 -21.86629
v 12.40579 -18.68458 -21.98112
v 11.48793 -19.58567 -22.1458
v 11.23534 -19.38115 -22.05452
v 9.785503 -21.96106 -21.69915
v 9.599259 -21.87123 -22.27549
v 10.50881 -21.01491 -22.09468
v 10.57281 -21.15831 -21.56728
v 11.78881 -18.14757 -21.40377
v 12.7563 -17.17947 -21.14724
v 12.96702 -17.44086 -21.59851
v 11.92256 -18.48676 -21.86629
v 12.04836 -18.85855 -20.44578
v 11.77229 -18.62523 -20.49104
v 11.19509 -19.07458 -20.65386
v 11.34693 -19.64701 -20.55107
v 9.599259 -21.87123 -22.27549
v 9.515312 -21.78157 -22.15376
v 9.24816 -21.46104 -22.38791
v 9.283213 -21.49204 -22.55248
v 8.644411 -20.90988 -21.88046
v 8.708186 -20.96894 -21.81985
v 8.649771 -20.89867 -21.81182
v 8.575303 -20.82674 -21.87097
v 8.844362 -21.03956 -20.73194
v 9.267058 -21.37832 -20.71269
v 9.30557 -21.39418 -20.57067
v 8.877204 -21.07856 -20.84902
v 8.528486 -20.8391 -21.22953
v 8.610195 -20.90912 -21.26962
v 9.283213 -21.49204 -22.55248
v 9.24816 -21.46104 -22.38791
v 8.906332 -21.11235 -22.25286
v 8.878821 -21.07953 -22.39272
v 14.34205 -17.38469 -21.33157
v 14.27411 -17.33307 -21.24722
v 14.22715 -17.55066 -20.83148
v 14.30429 -17.6266 -20.84775
v 14.08745 -17.04775 -21.56564
v 14.27411 -17.33307 -21.24722
v 14.34205 -17.38469 -21.33157
v 14.05802 -17.04461 -21.44806
v 13.86592 -16.82812 -21.47983
v 13.86291 -16.85192 -21.36561
v 13.66822 -16.65673 -21.22382
v 13.61486 -16.5915 -21.28758
v 13.45619 -16.50639 -20.98854
v 13.66822 -16.65673 -21.22382
v 13.61486 -16.5915 -21.28758
v 13.5241 -16.58138 -20.95935
v 13.37511 -16.55548 -20.44743
v 13.45217 -16.62466 -20.49571
v 13.53216 -16.82506 -20.06001
v 13.58999 -16.85925 -20.16201
v 13.6656 -17.31281 -20.00673
v 13.6784 -17.29593 -20.12322
v 13.58999 -16.85925 -20.16201
v 13.53216 -16.82506 -20.06001
v 14.00224 -17.65075 -20.33921
v 13.95314 -17.58539 -20.40668
v 13.6784 -17.29593 -20.12322
v 13.6656 -17.31281 -20.00673
v 14.30429 -17.6266 -20.84775
v 14.22715 -17.55066 -20.83148
v 13.95314 -17.58539 -20.40668
v 14.00224 -17.65075 -20.33921
v 11.92256 -18.48676 -21.86629
v 11.08892 -19.37913 -21.85617
v 11.04514 -19.31566 -21.92985
v 9.894464 -20.36202 -22.10384
v 8.610195 -20.90912 -21.26962
v 8.706472 -20.92151 -21.32109
v 8.938152 -21.06853 -20.95614
v 8.877204 -21.07856 -20.84902
v 9.566586 -21.70673 -21.11746
v 9.536322 -21.61358 -21.18906
v 9.628432 -21.74441 -21.66554
v 9.672742 -21.8575 -21.66659
v 9.672742 -21.8575 -21.66659
v 9.628432 -21.74441 -21.66554
v 9.491832 -21.67852 -22.08825
v 9.515312 -21.78157 -22.15376
v 8.708186 -20.96894 -21.81985
v 8.791497 -20.97341 -21.79852
v 8.74081 -20.91244 -21.79155
v 8.649771 -20.89867 -21.81182
v 8.878821 -21.07953 -22.39272
v 8.906332 -21.11235 -22.25286
v 8.759451 -20.99002 -22.00037
v 8.705059 -20.93481 -22.09402
v 9.785503 -21.96106 -21.69915
v 9.515312 -21.78157 -22.15376
v 9.599259 -21.87123 -22.27549
v 9.672742 -21.8575 -21.66659
v 9.659917 -21.78269 -21.04951
v 9.566586 -21.70673 -21.11746
v 9.30557 -21.39418 -20.57067
v 9.267058 -21.37832 -20.71269
v 8.705059 -20.93481 -22.09402
v 8.759451 -20.99002 -22.00037
v 8.708186 -20.96894 -21.81985
v 8.644411 -20.90988 -21.88046
v 8.575303 -20.82674 -21.87097
v 8.649771 -20.89867 -21.81182
v 8.610195 -20.90912 -21.26962
v 8.528486 -20.8391 -21.22953
v 8.759451 -20.99002 -22.00037
v 8.835979 -20.9917 -21.95515
v 8.791497 -20.97341 -21.79852
v 8.708186 -20.96894 -21.81985
v 9.515312 -21.78157 -22.15376
v 9.491832 -21.67852 -22.08825
v 9.260028 -21.4004 -22.29141
v 9.24816 -21.46104 -22.38791
v 8.906332 -21.11235 -22.25286
v 8.963426 -21.09785 -22.17424
v 8.835979 -20.9917 -21.95515
v 8.759451 -20.99002 -22.00037
v 8.877204 -21.07856 -20.84902
v 8.938152 -21.06853 -20.95614
v 9.276424 -21.32862 -20.83785
v 9.267058 -21.37832 -20.71269
v 9.24816 -21.46104 -22.38791
v 9.260028 -21.4004 -22.29141
v 8.963426 -21.09785 -22.17424
v 8.906332 -21.11235 -22.25286
v 9.267058 -21.37832 -20.71269
v 9.276424 -21.32862 -20.83785
v 9.536322 -21.61358 -21.18906
v 9.566586 -21.70673 -21.11746
v 8.649771 -20.89867 -21.81182
v 8.74081 -20.91244 -21.79155
v 8.706472 -20.92151 -21.32109
v 8.610195 -20.90912 -21.26962
v 13.66822 -16.65673 -21.22382
v 13.62054 -16.786 -21.16984
v 13.78407 -16.94994 -21.28894
v 13.86291 -16.85192 -21.36561
v 13.86291 -16.85192 -21.36561
v 13.78407 -16.94994 -21.28894
v 13.94795 -17.11179 -21.35819
v 14.05802 -17.04461 -21.44806
v 13.6784 -17.29593 -20.12322
v 13.62909 -17.32289 -20.24541
v 13.55483 -16.9561 -20.27799
v 13.58999 -16.85925 -20.16201
v 13.5241 -16.58138 -20.95935
v 13.49949 -16.7227 -20.94771
v 13.62054 -16.786 -21.16984
v 13.66822 -16.65673 -21.22382
v 14.27411 -17.33307 -21.24722
v 14.12945 -17.35407 -21.1895
v 14.09001 -17.53684 -20.8403
v 14.22715 -17.55066 -20.83148
v 13.95314 -17.58539 -20.40668
v 13.85985 -17.56601 -20.4835
v 13.62909 -17.32289 -20.24541
v 13.6784 -17.29593 -20.12322
v 13.45217 -16.62466 -20.49571
v 13.43907 -16.75906 -20.55828
v 13.49949 -16.7227 -20.94771
v 13.5241 -16.58138 -20.95935
v 14.05802 -17.04461 -21.44806
v 13.94795 -17.11179 -21.35819
v 14.12945 -17.35407 -21.1895
v 14.27411 -17.33307 -21.24722
v 14.22715 -17.55066 -20.83148
v 14.09001 -17.53684 -20.8403
v 13.85985 -17.56601 -20.4835
v 13.95314 -17.58539 -20.40668
v 13.58999 -16.85925 -20.16201
v 13.55483 -16.9561 -20.27799
v 13.43907 -16.75906 -20.55828
v 13.45217 -16.62466 -20.49571
v 8.706472 -20.92151 -21.32109
v 8.963426 -21.09785 -22.17424
v 9.260028 -21.4004 -22.29141
v 8.938152 -21.06853 -20.95614
v 9.260028 -21.4004 -22.29141
v 9.491832 -21.67852 -22.08825
v 9.276424 -21.32862 -20.83785
v 8.938152 -21.06853 -20.95614
v 9.491832 -21.67852 -22.08825
v 9.628432 -21.74441 -21.66554
v 9.536322 -21.61358 -21.18906
v 9.276424 -21.32862 -20.83785
v 8.835979 -20.9917 -21.95515
v 8.963426 -21.09785 -22.17424
v 8.706472 -20.92151 -21.32109
v 8.791497 -20.97341 -21.79852
v 8.74081 -20.91244 -21.79155
v 13.78407 -16.94994 -21.28894
v 13.85985 -17.56601 -20.4835
v 14.09001 -17.53684 -20.8403
v 14.12945 -17.35407 -21.1895
v 13.94795 -17.11179 -21.35819
v 13.85985 -17.56601 -20.4835
v 13.78407 -16.94994 -21.28894
v 13.62054 -16.786 -21.16984
v 13.62909 -17.32289 -20.24541
v 13.62909 -17.32289 -20.24541
v 13.62054 -16.786 -21.16984
v 13.49949 -16.7227 -20.94771
v 13.43907 -16.75906 -20.55828
v 13.55483 -16.9561 -20.27799
f 385 386 387
f 388 389 390
f 391 392 393
f 394 395 396
f 397 398 399
f 400 401 402
f 403 404 405
f 406 407 408
f 409 410 411
f 412 413 414
f 412 414 415
f 414 416 415
f 414 417 416
f 417 418 416
f 417 419 418
f 419 420 418
f 419 421 420
f 422 423 424
f 422 424 425
f 426 427 428
f 426 428 429
f 430 431 432
f 430 432 433
f 434 435 436
f 434 436 437
f 438 439 440
f 438 440 441
f 442 443 444
f 442 444 445
f 442 445 446
f 442 446 447
f 448 449 450
f 448 450 451
f 450 452 451
f 450 453 452
f 454 455 456
f 454 456 457
f 456 458 457
f 456 459 458
f 459 460 458
f 459 461 460
f 461 462 460
f 461 463 462
f 464 465 466
f 464 466 467
f 468 464 467
f 468 467 469
f 470 471 472
f 470 472 473
f 474 470 473
f 474 473 475
f 476 474 475
f 476 475 477
f 478 479 480
f 478 480 481
f 482 483 484
f 482 484 485
f 486 482 485
f 486 485 487
f 488 489 490
f 488 490 491
f 492 488 491
f 492 491 493
f 494 495 496
f 494 496 497
f 498 494 497
f 498 497 499
f 500 501 502
f 500 502 503
f 504 500 503
f 504 505 500
f 506 505 504
f 506 507 505
f 508 509 510
f 508 510 511
f 512 513 514
f 512 514 515
f 516 517 518
f 516 518 519
f 520 521 522
f 520 522 523
f 524 525 526
f 524 526 527
f 528 529 530
f 528 530 531
f 532 533 534
f 532 534 535
f 536 537 538
f 536 538 539
f 540 541 542
f 540 542 543
f 544 545 546
f 544 546 547
f 548 549 550
f 548 550 551
f 552 553 554
f 552 554 555
f 556 557 558
f 556 558 559
f 560 561 562
f 560 562 563
f 564 565 566
f 564 566 567
f 568 569 570
f 568 571 569
f 572 571 568
f 572 573 571
f 574 575 576
f 574 576 577
f 578 579 580
f 578 580 581
f 582 583 584
f 582 585 583
f 586 585 582
f 586 587 585
f 588 587 586
f 588 586 589
f 590 591 592
f 590 593 591
f 594 593 590
f 594 595 593
f 596 595 594
f 596 597 595
f 598 599 600
f 598 600 601
f 602 603 604
f 602 604 605
f 606 607 608
f 606 608 609
f 610 611 612
f 612 611 613
f 614 615 616
f 614 616 617
f 618 619 620
f 618 620 621
f 622 623 624
f 622 624 625
f 626 627 628
f 626 628 629
f 630 631 632
f 630 632 633
f 634 635 636
f 634 637 635
f 638 637 634
f 638 639 637
f 640 639 638
f 640 641 639
f 642 643 644
f 642 644 645
f 646 647 648
f 646 648 649
f 650 651 652
f 650 652 653
f 654 655 656
f 654 656 657
f 658 659 660
f 658 660 661
f 662 663 664
f 662 664 665
f 666 667 668
f 666 668 669
f 670 671 672
f 670 672 673
f 674 675 676
f 674 676 677
f 678 679 680
f 678 680 681
f 682 683 684
f 682 684 685
f 686 687 688
f 686 688 689
f 690 691 692
f 690 692 693
f 694 695 696
f 694 696 697
f 698 699 700
f 698 700 701
f 702 703 704
f 702 704 705
f 706 707 708
f 706 708 709
f 710 711 712
f 710 712 713
f 714 715 716
f 714 716 717
f 718 719 720
f 718 720 721
f 722 723 724
f 722 724 725
f 726 727 728
f 726 728 729
f 730 731 732
f 732 733 730
f 732 734 733
f 735 736 737
f 737 738 735
f 738 739 735
f 740 741 742
f 740 742 743
f 744 745 746
f 746 747 744
f 747 748 744
v 22 -22 5
v 22 -22 -10
v 22 -15 -10
v 22 -15 5
v 7 -15 -10
v 7 -22 5
v 7 -15 5
v 7 -22 -10
v 12 -22 9
v 12 -15 9
v 7 -22 9
v 7 -15 9
v 12 -15 -14
v 12 -22 -14
v 7 -15 -14
v 7 -22 -14
v 12 -22 -10
v 12 -22 5
v 7 -22 -10
v 7 -22 5
v 22 -12 -10
v 22 -12 5
v 22 -3 -10
v 22 -3 5
v 12 -3 -10
v 12 -12 5
v 12 -3 5
v 12 -12 -10
v 12 -15 5
v 12 -12 5
v 9 -15 5
v 12 -12 -10
v 12 -15 -10
v 9 -15 -10
v 12 -15 -10
v 12 -15 5
v 9 -15 -10
v 9 -15 5
v 7 -22 9
v 12 -22 9
v 7 -15 9
v 7 -22 9
v 22 -22 9
v 22 -15 9
v 12 -12 -10
v 12 -3 -10
v 12 -12 -10
v 12 -3 -10
v 12 -3 -10
v 12 -12 -10
v 12 -22 -10
v 7 -22 -10
v 12 -22 -10
v 7 -22 -10
v 7 -22 -10
v 12 -22 -10
v 7 -22 -10
v 7 -15 -10
v 7 -22 -10
v 7 -15 -10
v 7 -15 -10
v 7 -22 -10
v 22 -15 -10
v 22 -22 -10
v 22 -15 -10
v 22 -22 -10
v 22 -22 -10
v 22 -15 -10
v 12 -15 -10
v 12 -12 -10
v 12 -15 -10
v 12 -12 -10
v 12 -12 -10
v 12 -15 -10
v 22 -12 -10
v 22 -15 -10
v 22 -12 -10
v 22 -15 -10
v 22 -15 -10
v 22 -12 -10
v 22 -3 -10
v 22 -12 -10
v 22 -3 -10
v 22 -12 -10
v 22 -12 -10
v 22 -3 -10
v 19 -22 -10
v 19 -22 5
v 22 -22 -10
v 22 -22 5
v 19 -22 9
v 19 -15 9
v 19 -22 22
v 22 -22 22
v 22 -15 22
v 19 -15 22
v 19 -15 -14
v 19 -22 -14
v 22 -15 -14
v 22 -22 -14
v 19 -15 5
v 19 -12 5
v 22 -15 5
v 22 -12 5
v 19 -3 5
v 12 -3 5
v 22 -3 5
v 19 -12 -10
v 19 -15 -10
v 22 -12 -10
v 22 -15 -10
v 19 -3 -10
v 12 -3 -10
v 22 -3 -10
v 19 -22 9
v 22 -22 9
v 19 -22 -10
v 22 -22 -10
v 22 -22 -10
v 19 -22 -10
v 19 -22 -10
v 22 -22 -10
v 12 -22 -10
v 19 -22 -10
v 19 -22 -10
v 12 -22 -10
v 12 -22 -10
v 19 -22 -10
v 19 -15 5
v 19 -15 9
v 19 -12 5
v 19 -12 9
v 22 -12 9
v 19 -12 22
v 22 -12 22
v 19 -3 -9
v 13 -3 -9
v 19 -5 -9
v 13 -5 -9
v 13 -3 4
v 19 -3 4
v 13 -5 4
v 19 -5 4
v 21 -3 4
v 21 -3 -9
v 21 -5 4
v 21 -5 -9
v 21 -3 4
v 21 -5 4
v 21 -3 -9
v 21 -5 -9
v 13 -3 -9
v 13 -3 4
v 13 -5 -9
v 13 -5 4
v 21 -3 -9
v 21 -3 -9
v 21 -5 -9
v 21 -3 -9
v 21 -5 -9
v 21 -5 -9
v 13 -3 -9
v 13 -3 -9
v 13 -5 -9
v 13 -3 -9
v 13 -5 -9
v 13 -5 -9
v 12 -15 -10
v 12 -22 -10
v 12 -15 -14
v 12 -22 -14
v 12 -22 -14
v 7 -22 -14
v 7 -22 -14
v 7 -15 -14
v 19 -22 -14
v 22 -15 -14
v 22 -22 -14
v 22 -22 -14
v 12 -22 -10
v 12 -15 -10
v 12 -22 -14
v 12 -15 -14
v 19 -15 9
v 19 -22 9
v 15 -15 9
v 15 -22 9
v 15 -22 22
v 15 -15 22
v 9 -20 9
v 9 -22 9
v 9 -22 22
v 9 -20 22
v 19 -15 19
v 19 -12 19
v 15 -12 19
v 15 -15 22
v 15 -12 22
v 15 -15 19
v 22 -15 19
v 22 -12 19
v 22 -15 22
v 22 -12 22
v 19 -22 19
v 22 -22 19
v 19 -22 22
v 22 -22 22
v 22 -22 19
v 22 -22 22
v 9 -20 9
v 9 -22 19
v 9 -20 19
v 9 -22 9
v 9 -22 22
v 9 -20 22
v 15 -22 19
v 15 -22 9
v 15 -22 22
v 9 -22 19
v 9 -22 9
v 9 -22 22
v 15 -12 22
v 19 -12 19
v 19 -15 19
v 15 -12 19
v 15 -15 19
v 19 -15 19
v 19 -15 22
v 15 -15 19
v 15 -15 22
v 12 -15 5
v 12 -15 -10
v 7 -15 5
v 7 -15 -10
v 12 -15 9
v 7 -15 9
v 7 -15 -10
v 12 -15 -10
v 7 -15 -10
v 12 -15 -10
v 12 -15 -10
v 7 -15 -10
v 19 -5 -9
v 13 -5 -9
v 13 -5 4
v 19 -5 4
v 21 -5 -9
v 21 -5 4
v 22 -12 5
v 19 -12 5
v 19 -12 9
v 22 -12 9
v 19 -15 5
v 19 -15 9
v 19 -5 -9
v 13 -5 -9
v 13 -5 -9
v 19 -5 -9
v 19 -5 -9
v 13 -5 -9
v 21 -5 -9
v 19 -5 -9
v 19 -5 -9
v 21 -5 -9
v 21 -5 -9
v 19 -5 -9
v 22 -15 5
v 19 -15 5
v 22 -12 5
v 19 -12 5
v 22 -3 -10
v 19 -3 -10
v 21 -3 -9
v 19 -3 -9
v 12 -3 -10
v 12 -3 5
v 13 -3 -9
v 13 -3 4
v 22 -3 5
v 21 -3 4
v 19 -3 5
v 19 -3 4
v 12 -3 -10
v 12 -3 -10
v 13 -3 -9
v 12 -3 -10
v 13 -3 -9
v 13 -3 -9
v 22 -3 -10
v 22 -3 -10
v 21 -3 -9
v 22 -3 -10
v 21 -3 -9
v 21 -3 -9
v 7 -15 -14
v 12 -15 -14
v 19 -15 -10
v 22 -15 -10
v 19 -15 -14
v 22 -15 -14
v 19 -12 19
v 22 -12 19
v 19 -12 22
v 22 -12 22
v 19 -15 19
v 15 -15 19
v 15 -15 22
v 19 -15 22
v 15 -15 9
v 15 -15 19
v 9 -20 19
v 9 -20 22
v 15 -15 22
v 15 -15 9
v 9 -20 9
v 15 -12 22
v 15 -12 19
v 12 -12 5
v 12 -12 -10
v 9 -15 5
v 9 -15 -10
f 749 750 751
f 752 749 751
f 753 754 755
f 753 756 754
f 757 758 759
f 758 760 759
f 761 762 763
f 762 764 763
f 765 766 767
f 766 768 767
f 752 751 769
f 770 752 769
f 770 769 771
f 772 770 771
f 773 774 775
f 773 776 774
f 777 778 779
f 780 781 782
f 783 784 785
f 784 786 785
f 768 766 787
f 766 788 787
f 755 754 789
f 754 790 789
f 749 752 791
f 752 792 791
f 793 794 795
f 796 797 798
f 799 800 801
f 802 803 804
f 805 806 807
f 808 809 810
f 811 812 813
f 814 815 816
f 817 818 819
f 820 821 822
f 823 824 825
f 826 827 828
f 829 830 831
f 832 833 834
f 766 835 836
f 766 765 835
f 836 837 838
f 836 835 837
f 757 839 840
f 758 757 840
f 841 842 843
f 844 841 843
f 845 762 761
f 845 846 762
f 847 846 845
f 847 848 846
f 777 849 850
f 778 777 850
f 849 851 852
f 850 849 852
f 778 850 853
f 854 778 853
f 850 852 855
f 853 850 855
f 856 781 780
f 856 857 781
f 858 857 856
f 858 859 857
f 860 780 861
f 860 856 780
f 862 856 860
f 862 858 856
f 788 836 863
f 788 766 836
f 863 838 864
f 863 836 838
f 865 866 867
f 868 869 870
f 871 872 873
f 874 875 876
f 877 878 879
f 878 880 879
f 792 752 881
f 752 770 881
f 844 843 882
f 843 883 882
f 884 885 886
f 885 887 886
f 888 889 890
f 889 891 890
f 892 893 894
f 893 895 894
f 889 896 891
f 896 897 891
f 898 884 899
f 884 886 899
f 900 901 902
f 901 903 902
f 904 905 906
f 907 908 909
f 910 911 912
f 913 914 915
f 916 917 918
f 917 919 918
f 765 767 920
f 767 921 920
f 756 753 922
f 753 923 922
f 835 765 924
f 765 920 924
f 751 750 925
f 750 926 925
f 837 835 927
f 835 924 927
f 928 929 930
f 929 931 930
f 932 933 934
f 933 935 934
f 841 844 936
f 844 937 936
f 934 935 938
f 935 939 938
f 936 937 940
f 937 941 940
f 880 942 943
f 880 878 942
f 944 945 946
f 944 947 945
f 948 792 881
f 949 948 881
f 950 948 949
f 951 950 949
f 952 864 953
f 952 863 864
f 954 953 955
f 954 952 953
f 956 791 792
f 948 956 792
f 957 956 948
f 950 957 948
f 958 959 960
f 958 961 959
f 960 962 963
f 960 959 962
f 964 863 952
f 964 965 863
f 966 952 954
f 966 964 952
f 967 965 964
f 967 968 965
f 969 964 966
f 969 967 964
f 844 882 937
f 882 970 937
f 971 972 973
f 972 974 973
f 975 976 977
f 976 978 977
f 979 980 981
f 980 982 981
f 979 981 983
f 981 984 983
f 985 986 987
f 988 989 990
f 991 992 993
f 994 991 993
f 995 991 994
f 996 995 994
f 997 998 999
f 1000 997 999
f 1001 979 983
f 1002 1001 983
f 1003 1004 1005
f 1006 1007 1008
f 1009 1010 1011
f 1012 1013 1014
f 1015 1016 1017
f 1016 1018 1017
f 1019 1020 1021
f 1020 1022 1021
f 1023 1024 1025
f 1024 1026 1025
f 1027 1019 1028
f 1019 1021 1028
f 1024 1029 1026
f 1029 1030 1026
f 1020 1023 1022
f 1023 1025 1022
f 1031 1032 1033
f 1034 1035 1036
f 1037 1038 1039
f 1040 1041 1042
f 1029 1027 1030
f 1027 1028 1030
f 982 980 1043
f 980 1044 1043
f 1045 1046 1047
f 1046 1048 1047
f 980 1045 1044
f 1045 1047 1044
f 1000 999 1049
f 1050 1000 1049
f 1050 1049 1051
f 1052 1050 1051
f 1053 1054 1055
f 1056 1053 1055
f 1002 1057 1054
f 1053 1002 1054
f 1058 1059 1060
f 1061 1058 1060
f 1062 1063 1059
f 1058 1062 1059
f 1051 1049 1064
f 1049 1065 1064
f 1066 1067 1068
f 1067 1069 1068
v -14 -8 6
v -14 -8 14
v -14 2 6
v -14 2 14
v -8 -8 14
v -8 -8 6
v -8 2 14
v -8 2 6
v -6 -11 16
v -6 -14 4
v -6 -8 4
v -6 -8 16
v -16 -8 4
v -16 -11 16
v -16 -8 16
v -16 -14 4
v -16 -22 16
v -16 -22 22
v -22 -22 16
v -22 -22 22
v -16 -22 4
v -22 -22 4
v -6 -22 16
v -6 -22 4
v -6 -18 4
v -6 -17 16
v -16 -18 4
v -16 -22 16
v -16 -16.5 16
v -16 -22 4
v 5 -22 22
v 5 -22 16
v 5 -20 16
v 5 -20 22
v -6 -17 22
v -6 -11 22
v -22 -11 16
v -22 -16.5 22
v -22 -11 22
v -22 -16.5 16
v -22 -22 22
v -22 -22 16
v -16 -20 4
v -22 -21 4
v -22 -20 4
v -16 -21 4
v -22 -22 4
v -16 -22 4
v -22 -22 22
v -16 -22 22
v -16 -16.5 22
v -22 -16.5 22
v -16 -11 22
v -22 -11 22
v -16 -21 4
v -16 -20 4
v -16 -16.5 16
v -16 -11 16
v -16 -22 16
v -16 -22 4
v -22 -21 4
v -22 -22 4
v -22 -20 4
v -6 -22 22
v -6 -22 16
v 0 -22 22
v 0 -22 16
v -6 -22 -1
v -6 -17 -1
v 0 -22 -1
v 0 -17 -1
v -6 -17 22
v -6 -22 22
v 0 -17 22
v 0 -22 22
v 5 -22 22
v 5 -22 16
v 0 -22 16
v 0 -17 16
v 5 -22 16
v 5 -20 16
v 5 -20 22
v 5 -22 22
v -6 -22 16
v -6 -17 16
v -6 -22 4
v -6 -17 4
v 0 -22 4
v -6 -22 4
v 0 -17 16
v 0 -22 16
v 0 -17 4
v 0 -22 4
v -14 -22 4
v -12.5 -22 16
v -14 -8 14
v -12.5 -8 14
v -12.5 2 14
v -14 2 14
v -8 -8 14
v -8 2 14
v -8 2 6
v -12.5 -8 6
v -12.5 2 6
v -8 -8 6
v -14 -8 6
v -14 2 6
v -16 -11 16
v -12.5 -11 16
v -12.5 -8 16
v -16 -8 16
v -6 -11 16
v -6 -8 16
v -14 -8 4
v -16 -14 4
v -16 -8 4
v -14 -14 4
v -6 -8 4
v -6 -14 4
v -12.5 -22 22
v -12.5 -22 22
v -12.5 -16.75 22
v -12.5 -11 22
v -6 -11 22
v -14 -18 4
v -16 -18 4
v -14 -22 4
v -6 -18 -1
v -14 -22 -1
v -14 -18 -1
v -6 -14 -1
v -14 -14 -1
v -14 -18 4
v -14 -14 4
v -14 -18 -1
v -14 -14 -1
v -2.5 -17 4
v -2.5 -18 4
v -2.5 -17 -1
v -2.5 -18 -1
v -6 -18 -1
v -6 -22 -1
v -14 -22 4
v -14 -22 -1
v -6 -22 -1
v -14 -22 -1
v -6 -22 -1
v -6 -17 -1
v 0 -22 -1
v 0 -17 -1
v 0 -22 -1
v -6 -14 4
v -6 -18 4
v -2.5 -17 4
v -2.5 -18 4
v -6 -18 4
v -6 -18 -1
v -2.5 -18 4
v -2.5 -18 -1
v -2.5 -18 -1
v -2.5 -17 -1
v -16 -8 4
v -16 -8 16
v -14 -8 6
v -14 -8 14
v -6 -8 16
v -6 -8 4
v -8 -8 14
v -8 -8 6
v -16 -11 22
v -16 -11 16
v -22 -11 22
v -22 -11 16
v -22 -11 16
v -16 -11 16
v -22 -20 4
v -16 -20 4
v -6 -17 16
v -6 -17 22
v 0 -17 16
v 0 -17 22
v 0 -17 16
v 0 -17 22
v 5 -20 16
v 5 -20 22
v -6 -17 4
v 0 -17 4
v -12.5 2 6
v -14 2 6
v -14 2 14
v -12.5 2 14
v -8 2 6
v -8 2 14
v -12.5 -8 16
v -12.5 -8 14
v -14 -8 4
v -12.5 -8 6
v -6 -11 16
v -12.5 -11 16
v -12.5 -11 22
v -6 -11 22
v -14 -14 4
v -6 -14 4
v -14 -14 -1
v -6 -14 -1
v -6 -17 -1
v 0 -17 -1
v -6 -14 -1
v -6 -14 4
v -2.5 -17 -1
v -2.5 -17 4
f 1070 1071 1072
f 1071 1073 1072
f 1074 1075 1076
f 1075 1077 1076
f 1078 1079 1080
f 1081 1078 1080
f 1082 1083 1084
f 1082 1085 1083
f 1086 1087 1088
f 1087 1089 1088
f 1086 1088 1090
f 1088 1091 1090
f 1092 1093 1094
f 1095 1092 1094
f 1095 1094 1079
f 1078 1095 1079
f 1096 1097 1098
f 1096 1099 1097
f 1085 1098 1083
f 1085 1096 1098
f 1100 1101 1102
f 1103 1100 1102
f 1104 1095 1078
f 1105 1104 1078
f 1106 1107 1108
f 1106 1109 1107
f 1109 1110 1107
f 1109 1111 1110
f 1112 1113 1114
f 1112 1115 1113
f 1115 1116 1113
f 1115 1117 1116
f 1118 1119 1120
f 1121 1118 1120
f 1121 1120 1122
f 1123 1121 1122
f 1124 1125 1126
f 1127 1126 1125
f 1128 1129 1124
f 1126 1128 1124
f 1130 1111 1109
f 1130 1131 1111
f 1132 1109 1106
f 1109 1132 1130
f 1133 1134 1135
f 1134 1136 1135
f 1137 1138 1139
f 1138 1140 1139
f 1141 1142 1143
f 1142 1144 1143
f 1135 1136 1145
f 1136 1146 1145
f 1147 1148 1149
f 1148 1150 1149
f 1143 1144 1151
f 1144 1152 1151
f 1153 1154 1155
f 1154 1156 1155
f 1136 1134 1157
f 1134 1158 1157
f 1159 1160 1161
f 1160 1162 1161
f 1086 1163 1164
f 1086 1090 1163
f 1164 1158 1134
f 1164 1163 1158
f 1165 1166 1167
f 1168 1165 1167
f 1166 1169 1170
f 1167 1166 1170
f 1171 1172 1173
f 1171 1174 1172
f 1173 1175 1176
f 1173 1172 1175
f 1177 1178 1179
f 1180 1177 1179
f 1178 1181 1182
f 1179 1178 1182
f 1183 1184 1185
f 1183 1186 1184
f 1187 1186 1183
f 1187 1188 1186
f 1087 1164 1189
f 1087 1086 1164
f 1189 1134 1133
f 1189 1164 1134
f 1119 1190 1191
f 1120 1119 1191
f 1190 1142 1141
f 1191 1190 1141
f 1120 1191 1192
f 1122 1120 1192
f 1191 1141 1193
f 1192 1191 1193
f 1194 1117 1195
f 1194 1196 1117
f 1197 1198 1199
f 1197 1137 1198
f 1186 1195 1184
f 1186 1194 1195
f 1200 1199 1201
f 1200 1197 1199
f 1202 1203 1204
f 1203 1205 1204
f 1206 1207 1208
f 1207 1209 1208
f 1094 1093 1210
f 1093 1211 1210
f 1212 1202 1213
f 1202 1204 1213
f 1158 1163 1214
f 1163 1215 1214
f 1155 1156 1216
f 1156 1217 1216
f 1157 1158 1218
f 1158 1214 1218
f 1161 1162 1219
f 1162 1220 1219
f 1221 1222 1223
f 1222 1224 1223
f 1225 1226 1227
f 1226 1228 1227
f 1197 1200 1229
f 1200 1230 1229
f 1231 1232 1233
f 1232 1234 1233
f 1235 1236 1237
f 1236 1238 1237
f 1239 1240 1241
f 1240 1242 1241
f 1243 1244 1245
f 1244 1246 1245
f 1247 1248 1249
f 1248 1250 1249
f 1251 1252 1253
f 1252 1254 1253
f 1247 1249 1255
f 1249 1256 1255
f 1257 1258 1259
f 1260 1257 1259
f 1261 1257 1260
f 1262 1261 1260
f 1263 1264 1234
f 1263 1234 1232
f 1237 1264 1263
f 1235 1237 1263
f 1265 1238 1236
f 1265 1266 1238
f 1266 1265 1233
f 1265 1231 1233
f 1267 1268 1269
f 1270 1267 1269
f 1268 1240 1239
f 1269 1268 1239
f 1271 1272 1273
f 1272 1274 1273
f 1255 1256 1275
f 1256 1276 1275
f 1277 1278 1279
f 1278 1280 1279
v -12.19672 -16.61912 12.28747
v -14.80328 -16.61912 12.28747
v -12.19672 -16.61912 9.70357
v -14.80328 -16.61912 9.70357
v -12.19672 -19.98564 9.70357
v -14.80328 -19.98564 9.70357
v -12.19672 -19.98564 12.28747
v -14.80328 -19.98564 12.28747
v -12.19672 -16.61912 9.70357
v -14.80328 -16.61912 9.70357
v -12.19672 -19.98564 9.70357
v -14.80328 -19.98564 9.70357
v -12.19672 -19.98564 12.28747
v -12.19672 -16.61912 12.28747
v -14.80328 -16.61912 12.28747
v -14.80328 -19.98564 12.28747
v -14.80328 -16.61912 12.28747
v -14.80328 -16.61912 9.70357
v -14.80328 -19.98564 9.70357
v -14.80328 -19.98564 12.28747
v -12.19672 -19.98564 12.28747
v -12.19672 -19.98564 9.70357
v -12.19672 -16.61912 9.70357
v -12.19672 -16.61912 12.28747
f 1281 1283 1284
f 1281 1284 1282
f 1289 1285 1286
f 1289 1286 1290
f 1291 1287 1288
f 1291 1288 1292
f 1293 1294 1295
f 1293 1295 1296
f 1297 1298 1299
f 1297 1299 1300
f 1301 1302 1303
f 1301 1303 1304
v -11.75002 -16.61912 13.94544
v -12.96283 -16.61912 16.25266
v -14.03717 -16.61912 12.74317
v -15.24999 -16.61912 15.05039
v -14.03717 -19.98564 12.74317
v -15.24998 -19.98564 15.05039
v -11.75001 -19.98564 13.94544
v -12.96283 -19.98564 16.25266
v -14.03717 -16.61912 12.74317
v -15.24999 -16.61912 15.05039
v -14.03717 -19.98564 12.74317
v -15.24998 -19.98564 15.05039
v -11.75001 -19.98564 13.94544
v -11.75002 -16.61912 13.94544
v -12.96283 -16.61912 16.25266
v -12.96283 -19.98564 16.25266
v -12.96283 -16.61912 16.25266
v -15.24999 -16.61912 15.05039
v -15.24998 -19.98564 15.05039
v -12.96283 -19.98564 16.25266
v -11.75001 -19.98564 13.94544
v -14.03717 -19.98564 12.74317
v -14.03717 -16.61912 12.74317
v -11.75002 -16.61912 13.94544
f 1305 1307 1308
f 1305 1308 1306
f 1313 1309 1310
f 1313 1310 1314
f 1315 1311 1312
f 1315 1312 1316
f 1317 1318 1319
f 1317 1319 1320
f 1321 1322 1323
f 1321 1323 1324
f 1325 1326 1327
f 1325 1327 1328
v -14.05672 -15.61912 -19.31253
v -16.66328 -15.61912 -19.31253
v -14.05672 -15.61912 -21.89643
v -16.66328 -15.61912 -21.89643
v -14.05672 -18.98565 -21.89643
v -16.66328 -18.98565 -21.89643
v -14.05672 -18.98564 -19.31253
v -16.66328 -18.98564 -19.31253
v -14.05672 -15.61912 -21.89643
v -16.66328 -15.61912 -21.89643
v -14.05672 -18.98565 -21.89643
v -16.66328 -18.98565 -21.89643
v -14.05672 -18.98564 -19.31253
v -14.05672 -15.61912 -19.31253
v -16.66328 -15.61912 -19.31253
v -16.66328 -18.98564 -19.31253
v -16.66328 -15.61912 -19.31253
v -16.66328 -15.61912 -21.89643
v -16.66328 -18.98565 -21.89643
v -16.66328 -18.98564 -19.31253
v -14.05672 -18.98564 -19.31253
v -14.05672 -18.98565 -21.89643
v -14.05672 -15.61912 -21.89643
v -14.05672 -15.61912 -19.31253
f 1329 1331 1332
f 1329 1332 1330
f 1337 1333 1334
f 1337 1334 1338
f 1339 1335 1336
f 1339 1336 1340
f 1341 1342 1343
f 1341 1343 1344
f 1345 1346 1347
f 1345 1347 1348
f 1349 1350 1351
f 1349 1351 1352
v -12.19672 -16.61912 18.78747
v -14.80328 -16.61912 18.78747
v -12.19672 -16.61912 16.20357
v -14.80328 -16.61912 16.20357
v -12.19672 -19.98564 16.20357
v -14.80328 -19.98564 16.20357
v -12.19672 -19.98564 18.78747
v -14.80328 -19.98564 18.78747
v -12.19672 -16.61912 16.20357
v -14.80328 -16.61912 16.20357
v -12.19672 -19.98564 16.20357
v -14.80328 -19.98564 16.20357
v -12.19672 -19.98564 18.78747
v -12.19672 -16.61912 18.78747
v -14.80328 -16.61912 18.78747
v -14.80328 -19.98564 18.78747
v -14.80328 -16.61912 18.78747
v -14.80328 -16.61912 16.20357
v -14.80328 -19.98564 16.20357
v -14.80328 -19.98564 18.78747
v -12.19672 -19.98564 18.78747
v -12.19672 -19.98564 16.20357
v -12.19672 -16.61912 16.20357
v -12.19672 -16.61912 18.78747
f 1353 1355 1356
f 1353 1356 1354
f 1361 1357 1358
f 1361 1358 1362
f 1363 1359 1360
f 1363 1360 1364
f 1365 1366 1367
f 1365 1367 1368
f 1369 1370 1371
f 1369 1371 1372
f 1373 1374 1375
f 1373 1375 1376
v 20.30328 -16.61912 1.28747
v 17.69672 -16.61912 1.28747
v 20.30328 -16.61912 -1.29643
v 17.69672 -16.61912 -1.29643
v 20.30328 -19.98565 -1.29643
v 17.69672 -19.98565 -1.29643
v 20.30328 -19.98564 1.28747
v 17.69672 -19.98564 1.28747
v 20.30328 -16.61912 -1.29643
v 17.69672 -16.61912 -1.29643
v 20.30328 -19.98565 -1.29643
v 17.69672 -19.98565 -1.29643
v 20.30328 -19.98564 1.28747
v 20.30328 -16.61912 1.28747
v 17.69672 -16.61912 1.28747
v 17.69672 -19.98564 1.28747
v 17.69672 -16.61912 1.28747
v 17.69672 -16.61912 -1.29643
v 17.69672 -19.98565 -1.29643
v 17.69672 -19.98564 1.28747
v 20.30328 -19.98564 1.28747
v 20.30328 -19.98565 -1.29643
v 20.30328 -16.61912 -1.29643
v 20.30328 -16.61912 1.28747
f 1377 1379 1380
f 1377 1380 1378
f 1385 1381 1382
f 1385 1382 1386
f 1387 1383 1384
f 1387 1384 1388
f 1389 1390 1391
f 1389 1391 1392
f 1393 1394 1395
f 1393 1395 1396
f 1397 1398 1399
f 1397 1399 1400
v -12.01354 -13.23912 15.57172
v -14.58909 -13.23912 15.97258
v -12.41091 -13.23912 13.01856
v -14.98647 -13.23912 13.41942
v -12.41091 -16.60565 13.01856
v -14.98647 -16.60565 13.41942
v -12.01354 -16.60564 15.57172
v -14.58909 -16.60564 15.97258
v -12.41091 -13.23912 13.01856
v -14.98647 -13.23912 13.41942
v -12.41091 -16.60565 13.01856
v -14.98647 -16.60565 13.41942
v -12.01354 -16.60564 15.57172
v -12.01354 -13.23912 15.57172
v -14.58909 -13.23912 15.97258
v -14.58909 -16.60564 15.97258
v -14.58909 -13.23912 15.97258
v -14.98647 -13.23912 13.41942
v -14.98647 -16.60565 13.41942
v -14.58909 -16.60564 15.97258
v -12.01354 -16.60564 15.57172
v -12.41091 -16.60565 13.01856
v -12.41091 -13.23912 13.01856
v -12.01354 -13.23912 15.57172
f 1401 1403 1404
f 1401 1404 1402
f 1409 1405 1406
f 1409 1406 1410
f 1411 1407 1408
f 1411 1408 1412
f 1413 1414 1415
f 1413 1415 1416
f 1417 1418 1419
f 1417 1419 1420
f 1421 1422 1423
f 1421 1423 1424
v -10.77286 -17.01931 3.524707
v -7.227104 -17.01931 3.524725
v -10.7729 -17.01931 10.47527
v -7.227139 -17.01931 10.47529
v -10.7729 -18.99794 10.47527
v -7.227139 -18.99794 10.47529
v -10.77286 -18.99794 3.524707
v -7.227104 -18.99794 3.524725
v -10.7729 -17.01931 10.47527
v -7.227139 -17.01931 10.47529
v -10.7729 -18.99794 10.47527
v -7.227139 -18.99794 10.47529
v -10.77286 -18.99794 3.524707
v -10.77286 -17.01931 3.524707
v -7.227104 -17.01931 3.524725
v -7.227104 -18.99794 3.524725
v -7.227104 -17.01931 3.524725
v -7.227139 -17.01931 10.47529
v -7.227139 -18.99794 10.47529
v -7.227104 -18.99794 3.524725
v -10.77286 -18.99794 3.524707
v -10.7729 -18.99794 10.47527
v -10.7729 -17.01931 10.47527
v -10.77286 -17.01931 3.524707
f 1425 1427 1428
f 1425 1428 1426
f 1433 1429 1430
f 1433 1430 1434
f 1435 1431 1432
f 1435 1432 1436
f 1437 1438 1439
f 1437 1439 1440
f 1441 1442 1443
f 1441 1443 1444
f 1445 1446 1447
f 1445 1447 1448
v -34.55049 15.93245 -7.844178
v -34.56634 15.93245 11.29203
v -36.46572 15.93245 -7.845764
v -36.48158 15.93245 11.29044
v -36.46573 4.667546 -7.845764
v -36.48158 4.667546 11.29044
v -34.5505 4.667545 -7.844178
v -34.56635 4.667545 11.29203
v -36.46572 15.93245 -7.845764
v -36.48158 15.93245 11.29044
v -36.46573 4.667546 -7.845764
v -36.48158 4.667546 11.29044
v -34.5505 4.667545 -7.844178
v -34.55049 15.93245 -7.844178
v -34.56634 15.93245 11.29203
v -34.56635 4.667545 11.29203
v -34.56634 15.93245 11.29203
v -36.48158 15.93245 11.29044
v -36.48158 4.667546 11.29044
v -34.56635 4.667545 11.29203
v -34.5505 4.667545 -7.844178
v -36.46573 4.667546 -7.845764
v -36.46572 15.93245 -7.845764
v -34.55049 15.93245 -7.844178
f 1449 1451 1452
f 1449 1452 1450
f 1457 1453 1454
f 1457 1454 1458
f 1459 1455 1456
f 1459 1456 1460
f 1461 1462 1463
f 1461 1463 1464
f 1465 1466 1467
f 1465 1467 1468
f 1469 1470 1471
f 1469 1471 1472
v 21.20592 17.46048 -4.745168
v 21.20591 -1.106207 -4.745161
v 23.06415 17.46048 -4.743682
v 23.06414 -1.106208 -4.743675
v 23.05541 17.46049 6.185965
v 23.0554 -1.106204 6.185972
v 21.19718 17.46049 6.184479
v 21.19717 -1.106203 6.184486
v 23.06415 17.46048 -4.743682
v 23.06414 -1.106208 -4.743675
v 23.05541 17.46049 6.185965
v 23.0554 -1.106204 6.185972
v 21.19718 17.46049 6.184479
v 21.20592 17.46048 -4.745168
v 21.20591 -1.106207 -4.745161
v 21.19717 -1.106203 6.184486
v 21.20591 -1.106207 -4.745161
v 23.06414 -1.106208 -4.743675
v 23.0554 -1.106204 6.185972
v 21.19717 -1.106203 6.184486
v 21.19718 17.46049 6.184479
v 23.05541 17.46049 6.185965
v 23.06415 17.46048 -4.743682
v 21.20592 17.46048 -4.745168
f 1473 1475 1476
f 1473 1476 1474
f 1481 1477 1478
f 1481 1478 1482
f 1483 1479 1480
f 1483 1480 1484
f 1485 1486 1487
f 1485 1487 1488
f 1489 1490 1491
f 1489 1491 1492
f 1493 1494 1495
f 1493 1495 1496
v 5.664689 17.26048 20.57607
v 5.66468 -1.306206 20.57607
v 5.663148 17.26048 22.43431
v 5.66314 -1.306206 22.43431
v -5.266495 17.26049 22.42525
v -5.266504 -1.306201 22.42525
v -5.264955 17.26049 20.56701
v -5.264964 -1.306201 20.56701
v 5.663148 17.26048 22.43431
v 5.66314 -1.306206 22.43431
v -5.266495 17.26049 22.42525
v -5.266504 -1.306201 22.42525
v -5.264955 17.26049 20.56701
v 5.664689 17.26048 20.57607
v 5.66468 -1.306206 20.57607
v -5.264964 -1.306201 20.56701
v 5.66468 -1.306206 20.57607
v 5.66314 -1.306206 22.43431
v -5.266504 -1.306201 22.42525
v -5.264964 -1.306201 20.56701
v -5.264955 17.26049 20.56701
v -5.266495 17.26049 22.42525
v 5.663148 17.26048 22.43431
v 5.664689 17.26048 20.57607
f 1497 1499 1500
f 1497 1500 1498
f 1505 1501 1502
f 1505 1502 1506
f 1507 1503 1504
f 1507 1504 1508
f 1509 1510 1511
f 1509 1511 1512
f 1513 1514 1515
f 1513 1515 1516
f 1517 1518 1519
f 1517 1519 1520
v -5.265182 14.39048 -20.43611
v -5.265174 -4.176207 -20.4361
v -5.263632 14.39048 -22.29434
v -5.263623 -4.176208 -22.29434
v 5.666013 14.39049 -22.28522
v 5.666021 -4.176203 -22.28522
v 5.664462 14.39049 -20.42698
v 5.664471 -4.176202 -20.42698
v -5.263632 14.39048 -22.29434
v -5.263623 -4.176208 -22.29434
v 5.666013 14.39049 -22.28522
v 5.666021 -4.176203 -22.28522
v 5.664462 14.39049 -20.42698
v -5.265182 14.39048 -20.43611
v -5.265174 -4.176207 -20.4361
v 5.664471 -4.176202 -20.42698
v -5.265174 -4.176207 -20.4361
v -5.263623 -4.176208 -22.29434
v 5.666021 -4.176203 -22.28522
v 5.664471 -4.176202 -20.42698
v 5.664462 14.39049 -20.42698
v 5.666013 14.39049 -22.28522
v -5.263632 14.39048 -22.29434
v -5.265182 14.39048 -20.43611
f 1521 1523 1524
f 1521 1524 1522
f 1529 1525 1526
f 1529 1526 1530
f 1531 1527 1528
f 1531 1528 1532
f 1533 1534 1535
f 1533 1535 1536
f 1537 1538 1539
f 1537 1539 1540
f 1541 1542 1543
f 1541 1543 1544
v 19.82075 -20 -17.84832
v 17.84832 -20 -18.17925
v 19.82075 -18 -17.84832
v 17.84832 -18 -18.17925
v 20.15168 -18 -19.82075
v 18.17925 -18 -20.15168
v 20.15168 -20 -19.82075
v 18.17925 -20 -20.15168
v 19.82075 -18 -17.84832
v 17.84832 -18 -18.17925
v 20.15168 -18 -19.82075
v 18.17925 -18 -20.15168
v 20.15168 -20 -19.82075
v 19.82075 -20 -17.84832
v 17.84832 -20 -18.17925
v 18.17925 -20 -20.15168
v 17.84832 -20 -18.17925
v 17.84832 -18 -18.17925
v 18.17925 -18 -20.15168
v 18.17925 -20 -20.15168
v 20.15168 -20 -19.82075
v 20.15168 -18 -19.82075
v 19.82075 -18 -17.84832
v 19.82075 -20 -17.84832
f 1545 1547 1548
f 1545 1548 1546
f 1553 1549 1550
f 1553 1550 1554
f 1555 1551 1552
f 1555 1552 1556
f 1557 1558 1559
f 1557 1559 1560
f 1561 1562 1563
f 1561 1563 1564
f 1565 1566 1567
f 1565 1567 1568
v 17.8678 -20 -14.99436
v 14.99436 -20 -14.1322
v 17.8678 -17 -14.99436
v 14.99436 -17 -14.1322
v 17.00564 -17 -17.8678
v 14.1322 -17 -17.00564
v 17.00564 -20 -17.8678
v 14.1322 -20 -17.00564
v 17.8678 -17 -14.99436
v 14.99436 -17 -14.1322
v 17.00564 -17 -17.8678
v 14.1322 -17 -17.00564
v 17.00564 -20 -17.8678
v 17.8678 -20 -14.99436
v 14.99436 -20 -14.1322
v 14.1322 -20 -17.00564
v 14.99436 -20 -14.1322
v 14.99436 -17 -14.1322
v 14.1322 -17 -17.00564
v 14.1322 -20 -17.00564
v 17.00564 -20 -17.8678
v 17.00564 -17 -17.8678
v 17.8678 -17 -14.99436
v 17.8678 -20 -14.99436
f 1569 1571 1572
f 1569 1572 1570
f 1577 1573 1574
f 1577 1574 1578
f 1579 1575 1576
f 1579 1576 1580
f 1581 1582 1583
f 1581 1583 1584
f 1585 1586 1587
f 1585 1587 1588
f 1589 1590 1591
f 1589 1591 1592
v 21.5 -20 -14.5
v 18.5 -20 -14.5
v 21.5 -17 -14.5
v 18.5 -17 -14.5
v 21.5 -17 -17.5
v 18.5 -17 -17.5
v 21.5 -20 -17.5
v 18.5 -20 -17.5
v 21.5 -17 -14.5
v 18.5 -17 -14.5
v 21.5 -17 -17.5
v 18.5 -17 -17.5
v 21.5 -20 -17.5
v 21.5 -20 -14.5
v 18.5 -20 -14.5
v 18.5 -20 -17.5
v 18.5 -20 -14.5
v 18.5 -17 -14.5
v 18.5 -17 -17.5
v 18.5 -20 -17.5
v 21.5 -20 -17.5
v 21.5 -17 -17.5
v 21.5 -17 -14.5
v 21.5 -20 -14.5
f 1593 1595 1596
f 1593 1596 1594
f 1601 1597 1598
f 1601 1598 1602
f 1603 1599 1600
f 1603 1600 1604
f 1605 1606 1607
f 1605 1607 1608
f 1609 1610 1611
f 1609 1611 1612
f 1613 1614 1615
f 1613 1615 1616
