v -18 -10 22
v -10 -10 22
v -18 -6 22
v -10 -6 22
v -22 -6 18
v -22 -10 22
v -22 -6 22
v -22 -10 18
v -10 -6 18
v -18 -6 18
v -18 -6 22
v -10 -6 22
v -18 -10 22
v -10 -10 18
v -10 -10 22
v -18 -10 18
v -22 -10 22
v -22 -6 22
v -22 -6 22
v -22 -6 18
v -22 -10 18
v -22 -10 22
v -18 -6 18
v -18 -10 18
v -18 -10 12
v -22 -6 18
v -18 -6 18
v -22 -10 12
v -18 -10 12
v -18 -10 12
v -22 -10 12
v -22 -10 12
v -12 -6 12
v -18 -6 12
v -18 -6 14
v -10 -6 14
v -18 -10 14
v -12 -10 12
v -10 -10 14
v -12 -10 12
v -18 -10 12
v -12 -6 12
v -18 -6 12
v -10 -10 22
v -10 -10 18
v -10 -6 18
v -10 -6 22
v -10 -10 14
v -10 -6 14
v -10 -10 14
v -12 -10 12
v -12 -6 12
v -10 -6 14
v -18 -6 14
v -18 -10 18
v -18 -6 18
v -18 -10 14
v -18 -6 12
v -18 -10 12
f 1 2 3
f 2 4 3
f 5 6 7
f 5 8 6
f 9 10 11
f 12 9 11
f 13 14 15
f 13 16 14
f 1 3 17
f 3 18 17
f 11 10 19
f 10 20 19
f 16 13 21
f 13 22 21
f 23 24 25
f 26 27 28
f 27 29 28
f 16 21 30
f 21 31 30
f 8 5 32
f 33 34 35
f 36 33 35
f 36 35 10
f 9 36 10
f 37 38 39
f 37 30 38
f 16 39 14
f 16 37 39
f 40 41 42
f 41 43 42
f 44 45 46
f 47 44 46
f 45 48 49
f 46 45 49
f 50 51 52
f 53 50 52
f 54 55 56
f 54 57 55
f 58 57 54
f 58 59 57
v 14 -6 -4
v 14 -12 6
v 14 -6 6
v 14 -12 -4
v 22 -12 6
v 22 -12 -4
v 22 -6 -4
v 22 -6 6
v 14 -6 -16
v 12 -12 -16
v 12 -8 -16
v 14 -12 -16
v 12 -12 -4
v 14 -12 -4
v 14 -6 -4
v 12 -8 -4
v 8 -12 -16
v 8 -8 -16
v 8 -12 -4
v 8 -8 -4
v 14 -20 -4
v 14 -20 6
v 8 -20 -4
v 8 -20 6
v 8 -12 6
v 14 -12 6
v 9 -12 5
v 14 -12 5
v 8 -12 -4
v 9 -12 -4
v 14 -12 5
v 14 -13 5
v 14 -13 -4
v 9 -12 5
v 14 -12 5
v 9 -13 5
v 14 -13 5
v 9 -12 -4
v 14 -13 -4
v 9 -13 -4
v 9 -12 -4
v 9 -12 5
v 9 -13 -4
v 9 -13 5
v 16 -20 -4
v 16 -20 6
v 14 -12 6
v 16 -12 6
v 16 -6 6
v 14 -6 6
v 16 -6 -16
v 16 -12 -16
v 20 -20 6
v 22 -20 -4
v 22 -20 6
v 20 -20 -4
v 20 -12 6
v 22 -12 6
v 22 -6 6
v 20 -6 6
v 22 -6 -16
v 20 -12 -16
v 20 -6 -16
v 22 -13 -16
v 8 -14 -4
v 8 -20 6
v 8 -14 6
v 8 -20 -4
v 8 -12 -4
v 8 -12 6
v 22 -14 6
v 22 -14 -4
v 14 -14 -16
v 12 -20 -16
v 12 -14 -16
v 14 -20 -16
v 12 -20 -4
v 14 -20 -4
v 14 -14 -4
v 12 -14 -4
v 8 -20 -16
v 8 -14 -16
v 8 -20 -4
v 8 -14 -4
v 8 -20 6
v 14 -20 6
v 14 -14 6
v 8 -14 6
v 8 -12 6
v 14 -12 -4
v 8 -14 -4
v 8 -12 -4
v 14 -14 -4
v 8 -20 -4
v 14 -20 -4
v 16 -20 6
v 16 -15 6
v 16 -15 -16
v 16 -20 -16
v 20 -15 6
v 22 -14 6
v 20 -15 -16
v 22 -15 -16
v 17 -12 6
v 17 -6 6
v 17 -6 -16
v 17 -12 -16
v 17 -14 6
v 17 -14 -16
v 19 -12 6
v 19 -6 6
v 19 -6 -16
v 19 -12 -16
v 19 -14 6
v 19 -14 -16
v 12 -20 -4
v 14 -20 -8
v 12 -20 -8
v 8 -20 -8
v 22 -12 -8
v 22 -6 -8
v 8 -8 -8
v 8 -8 -4
v 8 -12 -8
v 14 -20 -4
v 16 -20 -8
v 16 -20 -4
v 14 -20 -8
v 20 -20 -4
v 22 -20 -8
v 22 -20 -4
v 20 -20 -8
v 22 -14 -8
v 8 -15 -8
v 8 -20 -8
v 12 -20 -12
v 14 -20 -16
v 14 -20 -12
v 12 -20 -16
v 8 -20 -12
v 8 -20 -16
v 22 -12 -12
v 22 -13 -16
v 22 -6 -16
v 22 -6 -12
v 8 -8 -16
v 8 -12 -12
v 8 -8 -12
v 8 -12 -16
v 14 -20 -12
v 16 -20 -16
v 16 -20 -12
v 14 -20 -16
v 20 -20 -12
v 22 -21 -16
v 22 -20 -12
v 20 -21 -16
v 22 -14 -12
v 22 -15 -16
v 8 -14 -16
v 8 -20 -12
v 8 -15 -12
v 8 -20 -16
v 12 -20 -11
v 14 -20 -11
v 8 -20 -11
v 22 -12 -11
v 22 -6 -11
v 8 -12 -11
v 8 -8 -11
v 14 -20 -11
v 16 -20 -11
v 20 -20 -11
v 22 -20 -12
v 22 -20 -11
v 20 -20 -12
v 22 -14 -11
v 8 -15 -11
v 12 -20 -9
v 14 -20 -9
v 8 -20 -9
v 22 -12 -9
v 22 -6 -9
v 8 -8 -9
v 8 -12 -9
v 14 -20 -9
v 16 -20 -9
v 20 -20 -9
v 22 -20 -9
v 22 -14 -9
v 8 -15 -9
v 8 -15 -11
v 8 -15 -12
v 16 -15 -11
v 16 -15 -12
v 8 -15 -12
v 8 -20 -12
v 16 -15 -12
v 16 -20 -12
v 8 -15 -9
v 16 -15 -9
v 8 -20 -8
v 8 -15 -8
v 16 -20 -8
v 16 -15 -8
v 8 -15 -8
v 16 -15 -8
v 20 -15 -12
v 19 -14 -12
v 19 -14 -16
v 20 -15 -16
v 17 -14 -12
v 19 -14 -16
v 19 -14 -12
v 17 -14 -16
v 16 -20 -12
v 16 -20 -16
v 16 -15 -16
v 16 -15 -12
v 17 -14 -12
v 16 -15 -12
v 16 -15 -16
v 17 -14 -16
v 20 -15 6
v 19 -14 6
v 19 -14 -8
v 20 -15 -8
v 17 -14 -8
v 19 -14 -8
v 17 -14 6
v 19 -14 6
v 16 -20 6
v 16 -20 -8
v 16 -15 -8
v 16 -15 6
v 16 -15 6
v 17 -14 -8
v 17 -14 6
v 16 -15 -8
v 20 -15 -16
v 22 -15 -16
v 22 -13 -16
v 22 -15 -22
v 20 -15 -22
v 22 -13 -22
v 20 -21 -16
v 22 -21 -21
v 22 -21 -16
v 20 -21 -21
v 22 -21 -22
v 20 -21 -22
v 22 -13 -22
v 20 -15 -22
v 22 -13 -21
v 20 -15 -21
v 22 -13 -16
v 20 -15 -16
v 22 -15 -21
v 22 -13 -21
v 22 -15 -22
v 22 -13 -22
v 20 -15 -21
v 20 -15 -22
v 15 -15 -21
v 15 -15 -22
v 15 -21 -22
v 15 -21 -21
v 22 -20 6
v 22 -20 -4
v 22 -18 -4
v 22 -18 6
v 20 -18 6
v 20 -20 6
v 22 -20 6
v 22 -18 6
v 22 -18 -22
v 20 -21 -22
v 20 -18 -22
v 22 -21 -22
v 22 -20 -8
v 22 -18 -8
v 22 -20 -12
v 22 -21 -16
v 22 -18 -16
v 22 -18 -12
v 22 -20 -11
v 22 -18 -11
v 22 -20 -9
v 22 -18 -9
v 20 -18 -16
v 20 -20 -12
v 20 -18 -12
v 20 -21 -16
v 20 -15 -16
v 20 -15 -12
v 20 -18 -8
v 20 -20 6
v 20 -18 6
v 20 -20 -8
v 20 -15 -8
v 20 -15 6
v 20 -18 -21
v 20 -21 -21
v 20 -15 -21
v 15 -18 -22
v 15 -21 -21
v 15 -18 -21
v 15 -21 -22
v 15 -15 -22
v 15 -15 -21
v 22 -21 -21
v 22 -18 -21
v 22 -21 -22
v 22 -18 -22
v 15 -21 -20
v 20 -21 -20
v 20 -20 -20
v 15 -20 -20
v 15 -18 -21
v 20 -18 -21
v 20 -15 -21
v 15 -15 -21
v 15 -18 -22
v 15 -15 -22
v 15 -21 -22
v 15 -21 -20
v 20 -21 -20
v 20 -21 -21
v 20 -18 -21
v 20 -21 -20
v 20 -20 -20
v 15 -20 -20
v 15 -21 -20
v 20 -18 -21
v 15 -18 -21
v 20 -20 -20
v 15 -20 -20
v 14 -13 5
v 14 -13 -4
v 9 -13 5
v 9 -13 -4
v 16 -6 -4
v 14 -6 -4
v 14 -6 6
v 16 -6 6
v 22 -6 -4
v 20 -6 -4
v 20 -6 6
v 22 -6 6
v 17 -6 -4
v 17 -6 6
v 19 -6 -4
v 19 -6 6
v 14 -6 -8
v 12 -8 -8
v 14 -6 -4
v 12 -8 -4
v 12 -8 -8
v 8 -8 -8
v 8 -8 -4
v 12 -8 -4
v 16 -6 -8
v 14 -6 -8
v 22 -6 -8
v 20 -6 -8
v 17 -6 -8
v 19 -6 -8
v 14 -6 -16
v 12 -8 -16
v 12 -8 -12
v 14 -6 -12
v 12 -8 -16
v 8 -8 -16
v 8 -8 -12
v 12 -8 -12
v 16 -6 -16
v 14 -6 -16
v 14 -6 -12
v 16 -6 -12
v 22 -6 -16
v 20 -6 -16
v 20 -6 -12
v 22 -6 -12
v 17 -6 -16
v 17 -6 -12
v 19 -6 -16
v 19 -6 -12
v 12 -8 -11
v 14 -6 -11
v 8 -8 -11
v 12 -8 -11
v 14 -6 -11
v 16 -6 -11
v 20 -6 -11
v 22 -6 -11
v 17 -6 -11
v 19 -6 -11
v 12 -8 -9
v 14 -6 -9
v 8 -8 -9
v 12 -8 -9
v 14 -6 -9
v 16 -6 -9
v 20 -6 -9
v 22 -6 -9
v 17 -6 -9
v 19 -6 -9
f 60 61 62
f 60 63 61
f 64 65 66
f 67 64 66
f 68 69 70
f 68 71 69
f 72 73 74
f 75 72 74
f 70 76 77
f 70 69 76
f 78 72 75
f 79 78 75
f 80 81 82
f 81 83 82
f 84 85 86
f 85 87 86
f 88 84 89
f 84 86 89
f 90 63 91
f 63 92 91
f 93 94 95
f 94 96 95
f 73 97 98
f 97 99 98
f 100 101 102
f 101 103 102
f 81 104 105
f 81 80 104
f 106 107 108
f 109 106 108
f 110 71 68
f 110 111 71
f 112 113 114
f 112 115 113
f 116 117 118
f 119 116 118
f 120 121 122
f 120 123 121
f 124 125 126
f 124 127 125
f 128 126 129
f 128 124 126
f 130 131 65
f 64 130 65
f 132 133 134
f 132 135 133
f 71 134 69
f 71 132 134
f 136 137 138
f 139 136 138
f 139 138 73
f 72 139 73
f 134 140 141
f 134 133 140
f 69 141 76
f 69 134 141
f 142 136 139
f 143 142 139
f 143 139 72
f 78 143 72
f 144 145 146
f 147 144 146
f 147 146 106
f 148 147 106
f 149 150 151
f 149 152 150
f 152 153 150
f 152 154 153
f 145 155 156
f 146 145 156
f 146 156 107
f 106 146 107
f 157 135 132
f 157 158 135
f 111 132 71
f 111 157 132
f 159 160 117
f 116 159 117
f 123 161 121
f 123 162 161
f 107 163 164
f 108 107 164
f 165 111 110
f 165 166 111
f 156 167 163
f 107 156 163
f 166 157 111
f 166 168 157
f 163 169 170
f 164 163 170
f 169 116 119
f 170 169 119
f 171 166 165
f 171 172 166
f 122 172 171
f 122 121 172
f 167 173 169
f 163 167 169
f 173 159 116
f 169 173 116
f 172 168 166
f 172 174 168
f 121 174 172
f 121 161 174
f 175 176 80
f 175 177 176
f 82 177 175
f 82 178 177
f 65 179 180
f 66 65 180
f 181 128 182
f 181 183 128
f 184 185 186
f 184 187 185
f 188 189 190
f 188 191 189
f 131 192 179
f 65 131 179
f 193 127 124
f 193 194 127
f 183 124 128
f 183 193 124
f 195 196 197
f 195 198 196
f 199 198 195
f 199 200 198
f 201 202 203
f 204 201 203
f 205 206 207
f 205 208 206
f 209 210 211
f 209 212 210
f 213 214 215
f 213 216 214
f 217 218 202
f 201 217 202
f 219 220 221
f 219 222 220
f 208 221 206
f 208 219 221
f 223 197 224
f 223 195 197
f 225 195 223
f 225 199 195
f 226 201 204
f 227 226 204
f 207 228 229
f 207 206 228
f 230 211 231
f 230 209 211
f 232 233 234
f 232 235 233
f 236 217 201
f 226 236 201
f 206 237 228
f 206 221 237
f 238 224 239
f 238 223 224
f 177 239 176
f 177 238 239
f 240 223 238
f 240 225 223
f 178 238 177
f 178 240 238
f 179 241 242
f 180 179 242
f 241 226 227
f 242 241 227
f 243 183 181
f 243 244 183
f 229 244 243
f 229 228 244
f 245 231 246
f 245 230 231
f 187 246 185
f 187 245 246
f 247 234 248
f 247 232 234
f 191 248 189
f 191 247 248
f 192 249 241
f 179 192 241
f 249 236 226
f 241 249 226
f 244 193 183
f 244 250 193
f 228 250 244
f 228 237 250
f 251 252 253
f 252 254 253
f 255 256 257
f 256 258 257
f 259 251 260
f 251 253 260
f 261 262 263
f 262 264 263
f 265 259 266
f 259 260 266
f 267 268 269
f 267 269 270
f 271 272 273
f 271 274 272
f 275 276 277
f 278 275 277
f 279 280 281
f 279 281 282
f 283 284 285
f 283 285 286
f 286 285 268
f 286 268 267
f 287 273 288
f 287 271 273
f 289 288 290
f 289 287 288
f 291 292 293
f 294 291 293
f 295 296 297
f 295 298 296
f 298 279 296
f 298 280 279
f 299 300 301
f 302 303 304
f 305 306 307
f 305 308 306
f 308 309 306
f 308 310 309
f 311 312 313
f 312 314 313
f 313 314 315
f 314 316 315
f 218 317 318
f 202 218 318
f 317 319 320
f 318 317 320
f 321 322 323
f 322 324 323
f 310 308 325
f 308 326 325
f 327 328 329
f 330 327 329
f 330 329 131
f 130 330 131
f 331 332 333
f 331 333 334
f 159 331 334
f 159 334 160
f 335 336 337
f 335 338 336
f 302 337 303
f 302 335 337
f 328 339 340
f 329 328 340
f 329 340 192
f 131 329 192
f 341 342 343
f 344 341 343
f 344 343 218
f 217 344 218
f 345 341 344
f 346 345 344
f 346 344 217
f 236 346 217
f 339 347 348
f 340 339 348
f 340 348 249
f 192 340 249
f 347 345 346
f 348 347 346
f 348 346 236
f 249 348 236
f 349 350 351
f 349 352 350
f 353 351 354
f 353 349 351
f 355 356 357
f 355 358 356
f 359 357 360
f 359 355 357
f 351 358 355
f 351 350 358
f 354 355 359
f 354 351 355
f 361 352 349
f 361 362 352
f 363 349 353
f 363 361 349
f 364 365 366
f 364 367 365
f 368 366 369
f 368 364 366
f 342 370 371
f 343 342 371
f 343 371 317
f 218 343 317
f 370 372 373
f 371 370 373
f 371 373 319
f 317 371 319
f 374 375 376
f 377 374 376
f 378 379 380
f 381 378 380
f 303 382 383
f 303 337 382
f 337 384 382
f 337 336 384
f 326 308 385
f 308 386 385
f 387 388 389
f 388 390 389
f 366 365 391
f 365 392 391
f 393 394 395
f 394 396 395
f 397 398 399
f 398 400 399
f 401 402 403
f 404 401 403
f 405 406 407
f 408 405 407
f 409 401 404
f 410 409 404
f 406 411 412
f 407 406 412
f 411 409 410
f 412 411 410
f 413 414 415
f 414 416 415
f 417 418 419
f 420 417 419
f 421 422 402
f 401 421 402
f 423 424 406
f 405 423 406
f 425 421 401
f 409 425 401
f 424 426 411
f 406 424 411
f 426 425 409
f 411 426 409
f 427 428 429
f 430 427 429
f 431 432 433
f 434 431 433
f 435 436 437
f 438 435 437
f 439 440 441
f 442 439 441
f 443 435 438
f 444 443 438
f 440 445 446
f 441 440 446
f 445 443 444
f 446 445 444
f 430 429 447
f 448 430 447
f 434 433 449
f 450 434 449
f 438 437 451
f 452 438 451
f 442 441 453
f 454 442 453
f 444 438 452
f 455 444 452
f 441 446 456
f 453 441 456
f 446 444 455
f 456 446 455
f 448 447 457
f 458 448 457
f 458 457 414
f 413 458 414
f 450 449 459
f 460 450 459
f 460 459 418
f 417 460 418
f 452 451 461
f 462 452 461
f 462 461 422
f 421 462 422
f 454 453 463
f 464 454 463
f 464 463 424
f 423 464 424
f 455 452 462
f 465 455 462
f 465 462 421
f 425 465 421
f 453 456 466
f 463 453 466
f 463 466 426
f 424 463 426
f 456 455 465
f 466 456 465
f 466 465 425
f 426 466 425
v -16 -20 -22
v -6 -20 -22
v -16 -20 -16
v -6 -20 -16
v -22 -20 -22
v -22 -20 -16
v -22 -20 -8
v -16 -20 -8
v -16 -20 -16
v -6 -20 -16
v -6 -14 -16
v -16 -14 -16
v -6 -8 -16
v -16 -8 -16
v 0 -20 -16
v 0 -20 -22
v 0 -14 -22
v 0 -14 -16
v -6 -14 -16
v -6 -14 -22
v -6 -8 -22
v -6 -8 -16
v -6 -14 -22
v -16 -20 -22
v -16 -14 -22
v -6 -20 -22
v -6 -8 -22
v -16 -8 -22
v -22 -14 -22
v -22 -20 -16
v -22 -14 -16
v -22 -20 -22
v -22 -8 -22
v -22 -8 -16
v -22 -14 -22
v -22 -8 -22
v -22 -20 -22
v -22 -20 -8
v -16 -20 -8
v -16 -14 -8
v -22 -14 -8
v -16 -8 -8
v -22 -8 -8
v -10 -20 -8
v -10 -20 -16
v -10 -14 -16
v -10 -14 -8
v -16 -14 -8
v -16 -14 -16
v -16 -8 -16
v -16 -8 -8
v -22 -14 -8
v -22 -8 -8
v -22 -20 -8
v 0 -20 -16
v 0 -20 -22
v 0 -20 -22
v 0 -14 -22
v 0 -14 -16
v 0 -20 -16
v -10 -20 -8
v -10 -20 -16
v -16 -20 -16
v -16 -14 -16
v -10 -20 -16
v -10 -14 -16
v -10 -14 -8
v -10 -20 -8
v -15 -14 -15
v -15 -14 -9
v -15 -16 -15
v -15 -16 -9
v -11 -14 -15
v -15 -14 -15
v -11 -16 -15
v -15 -16 -15
v -15 -14 -9
v -11 -14 -9
v -15 -16 -9
v -11 -16 -9
v -11 -14 -9
v -11 -14 -15
v -11 -16 -9
v -11 -16 -15
v -16 -8 -16
v -6 -8 -16
v -16 -8 -22
v -6 -8 -22
v -22 -8 -16
v -22 -8 -22
v -16 -8 -8
v -22 -8 -8
v -6 -14 -22
v -6 -14 -16
v 0 -14 -22
v 0 -14 -16
v -15 -16 -15
v -15 -16 -9
v -11 -16 -15
v -11 -16 -9
v -16 -14 -16
v -16 -14 -8
v -15 -14 -15
v -15 -14 -9
v -10 -14 -16
v -11 -14 -15
v -10 -14 -8
v -11 -14 -9
f 467 468 469
f 468 470 469
f 467 469 471
f 469 472 471
f 472 469 473
f 469 474 473
f 475 476 477
f 478 475 477
f 478 477 479
f 480 478 479
f 481 482 483
f 484 481 483
f 485 486 487
f 488 485 487
f 489 490 491
f 489 492 490
f 493 491 494
f 493 489 491
f 495 496 497
f 495 498 496
f 499 497 500
f 499 495 497
f 494 501 502
f 494 491 501
f 491 503 501
f 491 490 503
f 504 505 506
f 507 504 506
f 507 506 508
f 509 507 508
f 510 511 512
f 513 510 512
f 514 515 516
f 517 514 516
f 500 518 519
f 500 497 518
f 497 520 518
f 497 496 520
f 470 468 521
f 468 522 521
f 492 489 523
f 489 524 523
f 477 476 525
f 476 526 525
f 474 469 527
f 469 528 527
f 529 530 531
f 530 532 531
f 506 505 533
f 505 534 533
f 535 536 537
f 536 538 537
f 539 540 541
f 540 542 541
f 543 544 545
f 544 546 545
f 547 548 549
f 548 550 549
f 551 552 553
f 552 554 553
f 551 553 555
f 553 556 555
f 551 555 557
f 555 558 557
f 559 560 561
f 560 562 561
f 563 564 565
f 564 566 565
f 567 568 569
f 568 570 569
f 571 567 572
f 567 569 572
f 568 573 570
f 573 574 570
f 573 571 574
f 571 572 574
v 8 -12.25 6
v 7.999699 -12.25 4
v 8 -12 6
v 7.999699 -12 4
v 7.999699 -12.25 4
v -4.000003 -10.25 5.999999
v 7.999699 -12 4
v -4.000003 -10 5.999999
v -4.000003 -10.25 5.999999
v -4.000003 -10.25 8
v -4.000003 -10 5.999999
v -4.000003 -10 8
v -4.000003 -10.25 8
v 8 -12.25 6
v -4.000003 -10 8
v 8 -12 6
v 8 -12 6
v 7.999699 -12 4
v -4.000003 -10 8
v -4.000003 -10 5.999999
v -4.000003 -10.25 8
v -4.000003 -10.25 5.999999
v 8 -12.25 6
v 7.999699 -12.25 4
f 575 576 577
f 576 578 577
f 579 580 581
f 580 582 581
f 583 584 585
f 584 586 585
f 587 588 589
f 588 590 589
f 591 592 593
f 592 594 593
f 595 596 597
f 596 598 597
v 21.25 -6.25 6
v 19.25 -6.25 5.999989
v 21.25 -6 6
v 19.25 -6 5.999989
v 19.25 -6.25 5.999989
v 19.24997 -4.25 15.99999
v 19.25 -6 5.999989
v 19.24997 -4 15.99999
v 19.24997 -4.25 15.99999
v 21.24997 -4.25 16
v 19.24997 -4 15.99999
v 21.24997 -4 16
v 21.24997 -4.25 16
v 21.25 -6.25 6
v 21.24997 -4 16
v 21.25 -6 6
v 21.25 -6 6
v 19.25 -6 5.999989
v 21.24997 -4 16
v 19.24997 -4 15.99999
v 21.24997 -4.25 16
v 19.24997 -4.25 15.99999
v 21.25 -6.25 6
v 19.25 -6.25 5.999989
f 599 600 601
f 600 602 601
f 603 604 605
f 604 606 605
f 607 608 609
f 608 610 609
f 611 612 613
f 612 614 613
f 615 616 617
f 616 618 617
f 619 620 621
f 620 622 621
v 22 -20 14
v 2 -20 13.99964
v 22 -19 14
v 2 -19 13.99964
v 2 -20 13.99964
v 3.999999 -20 15.99964
v 2 -19 13.99964
v 3.999999 -17 15.99964
v 6 -20 18
v 21.99976 -20 18
v 6 -15 18
v 21.99976 -15 18
v 21.99988 -20 16
v 22 -20 14
v 21.99988 -17 16
v 22 -19 14
v 21.99988 -20 16
v 3.999999 -20 15.99964
v 22 -20 14
v 2 -20 13.99964
v 6 -20 18
v 21.99976 -20 18
v 3.999999 -17 15.99964
v 3.999999 -20 15.99964
v 6 -15 18
v 6 -20 18
v 21.99976 -20 18
v 21.99976 -15 18
v 21.99988 -17 16
v 3.999999 -17 15.99964
v 21.99976 -15 18
v 6 -15 18
v 22 -19 14
v 2 -19 13.99964
v 21.99988 -17 16
v 3.999999 -17 15.99964
f 623 624 625
f 624 626 625
f 627 628 629
f 628 630 629
f 631 632 633
f 632 634 633
f 635 636 637
f 636 638 637
f 639 640 641
f 640 642 641
f 640 639 643
f 639 644 643
f 645 646 647
f 646 648 647
f 635 637 649
f 637 650 649
f 651 652 653
f 652 654 653
f 655 656 657
f 656 658 657
v 2 -20 14
v 2.000124 -20 22
v 2 -19 14
v 2.000124 -19 22
v 2.000124 -20 22
v 4.000005 -20 22
v 2.000124 -19 22
v 4.000005 -17 22
v 6.000244 -20 22
v 6 -20 16.00047
v 6.000244 -15 22
v 6 -15 16.00047
v 4 -20 16.00024
v 2 -20 14
v 4 -17 16.00024
v 2 -19 14
v 4 -20 16.00024
v 4.000005 -20 22
v 2 -20 14
v 2.000124 -20 22
v 6.000244 -20 22
v 6 -20 16.00047
v 6.000244 -15 22
v 6.000244 -20 22
v 4 -20 16.00024
v 4 -17 16.00024
v 6 -20 16.00047
v 6 -15 16.00047
v 4 -17 16.00024
v 4.000005 -17 22
v 6 -15 16.00047
v 6.000244 -15 22
v 2 -19 14
v 2.000124 -19 22
v 4 -17 16.00024
v 4.000005 -17 22
f 659 660 661
f 660 662 661
f 663 664 665
f 664 666 665
f 667 668 669
f 668 670 669
f 671 672 673
f 672 674 673
f 675 676 677
f 676 678 677
f 676 675 679
f 675 680 679
f 666 664 681
f 664 682 681
f 683 684 685
f 684 686 685
f 687 688 689
f 688 690 689
f 691 692 693
f 692 694 693
v -22 -20 -6
v -16 -20 -6
v -22 -19 -6
v -16 -19 -6
v -16 -20 -6
v -16 -20 -8
v -16 -19 -6
v -16 -17 -8
v -16 -20 -10
v -22 -20 -10
v -16 -15 -10
v -22 -15 -10
v -22 -20 -8
v -22 -20 -6
v -22 -17 -8
v -22 -19 -6
v -22 -20 -8
v -16 -20 -8
v -22 -20 -6
v -16 -20 -6
v -16 -20 -10
v -22 -20 -10
v -16 -15 -10
v -16 -20 -10
v -22 -20 -10
v -22 -15 -10
v -22 -17 -8
v -16 -17 -8
v -22 -15 -10
v -16 -15 -10
v -22 -19 -6
v -16 -19 -6
v -22 -17 -8
v -16 -17 -8
f 695 696 697
f 696 698 697
f 699 700 701
f 700 702 701
f 703 704 705
f 704 706 705
f 707 708 709
f 708 710 709
f 711 712 713
f 712 714 713
f 712 711 715
f 711 716 715
f 702 700 717
f 700 718 717
f 707 709 719
f 709 720 719
f 721 722 723
f 722 724 723
f 725 726 727
f 726 728 727
v 10 -20 16
v 22 -20 16
v 10 -20 22
v 22 -20 22
v 10 -20 22
v 22 -20 22
v 22 -12 22
v 10 -6 22
v 22 -4 22
v 10 -4 22
v 22 -20 22
v 22 -20 16
v 22 -12 16
v 22 -12 22
v 22 -4 16
v 22 -4 22
v 22 -12 16
v 10 -20 16
v 10 -6 16
v 22 -20 16
v 22 -4 16
v 10 -4 16
v 4 -12 16
v 4 -20 22
v 4 -12 22
v 4 -20 16
v 10 -4 16
v 10 -6 22
v 10 -4 22
v 10 -6 16
v 4 -20 22
v 4 -12 22
v 4 -12 16
v 4 -20 16
v 4 -20 16
v 4 -20 22
v 10 -4 22
v 22 -4 22
v 10 -4 16
v 22 -4 16
v 10 -6 22
v 10 -6 16
v 4 -12 22
v 4 -12 16
f 729 730 731
f 730 732 731
f 733 734 735
f 736 733 735
f 736 735 737
f 738 736 737
f 739 740 741
f 742 739 741
f 742 741 743
f 744 742 743
f 745 746 747
f 745 748 746
f 749 747 750
f 749 745 747
f 751 752 753
f 751 754 752
f 755 756 757
f 755 758 756
f 733 736 759
f 736 760 759
f 747 746 761
f 746 762 761
f 729 731 763
f 731 764 763
f 765 766 767
f 766 768 767
f 769 770 771
f 770 772 771
v -8 -20 -14
v -2 -20 -14
v -8 -19 -14
v -2 -19 -14
v -2 -20 -14
v -2 -20 -16
v -2 -19 -14
v -2 -17 -16
v -2 -20 -18
v -10 -20 -18
v -2 -15 -18
v -10 -15 -18
v -10 -20 -16
v -8 -20 -14
v -10 -17 -16
v -8 -19 -14
v -10 -20 -16
v -2 -20 -16
v -8 -20 -14
v -2 -20 -14
v -2 -20 -18
v -10 -20 -18
v -2 -15 -18
v -2 -20 -18
v -10 -20 -16
v -10 -17 -16
v -10 -20 -18
v -10 -15 -18
v -10 -17 -16
v -2 -17 -16
v -10 -15 -18
v -2 -15 -18
v -8 -19 -14
v -2 -19 -14
v -10 -17 -16
v -2 -17 -16
f 773 774 775
f 774 776 775
f 777 778 779
f 778 780 779
f 781 782 783
f 782 784 783
f 785 786 787
f 786 788 787
f 789 790 791
f 790 792 791
f 790 789 793
f 789 794 793
f 780 778 795
f 778 796 795
f 797 798 799
f 798 800 799
f 801 802 803
f 802 804 803
f 805 806 807
f 806 808 807
v -7.999998 -20 -8
v -8.000004 -20 -16
v -7.999998 -19 -8
v -8.000004 -19 -16
v -8.000004 -20 -16
v -10 -20 -16
v -8.000004 -19 -16
v -10 -17 -16
v -12 -20 -16
v -12 -20 -8
v -11 -16 -16.00001
v -11 -16 -7.999998
v -9.999999 -20 -8
v -7.999998 -20 -8
v -9.999999 -17 -8
v -7.999998 -19 -8
v -9.999999 -20 -8
v -10 -20 -16
v -7.999998 -20 -8
v -8.000004 -20 -16
v -12 -20 -16
v -12 -20 -8
v -11 -16 -16.00001
v -12 -20 -16
v -9.999999 -17 -8
v -10 -17 -16
v -11 -16 -7.999998
v -11 -16 -16.00001
v -7.999998 -19 -8
v -8.000004 -19 -16
v -9.999999 -17 -8
v -10 -17 -16
f 809 810 811
f 810 812 811
f 813 814 815
f 814 816 815
f 817 818 819
f 818 820 819
f 821 822 823
f 822 824 823
f 825 826 827
f 826 828 827
f 826 825 829
f 825 830 829
f 816 814 831
f 814 832 831
f 833 834 835
f 834 836 835
f 837 838 839
f 838 840 839
v -14 -23 14
v -4 -23 6
v -4 -23 14
v -14 -23 6
v -14 -23 22
v -4 -23 22
v -4 -13 22
v -14 -13 22
v -4 -10 22
v -14 -10 22
v -22 -10 6
v -22 -13 14
v -22 -10 14
v -22 -13 6
v -15 -23 14
v -15 -23 6
v -22 -23 14
v -22 -23 6
v -22 -23 22
v -15 -23 22
v -15 -13 22
v -22 -13 22
v -15 -10 22
v -22 -10 22
v -14 -23 15
v -4 -23 15
v -14 -23 22
v -4 -23 22
v -22 -13 15
v -22 -23 22
v -22 -13 22
v -22 -23 15
v -22 -23 14
v -22 -10 15
v -22 -10 22
v -15 -23 15
v -15 -23 22
v -22 -23 15
v -22 -23 22
v -14 -14 6
v -14 -23 14
v -14 -14 14
v -14 -23 6
v -14 -14 14
v -14 -23 14
v -4 -14 14
v -4 -23 14
v -15 -13 14
v -14 -14 6
v -14 -14 14
v -15 -13 6
v -22 -13 14
v -15 -13 6
v -15 -13 14
v -22 -13 6
v -4 -13 22
v -14 -13 22
v -14 -13 15
v -4 -13 15
v -4 -13 15
v -14 -13 15
v -14 -14 14
v -4 -14 14
v -15 -13 15
v -14 -14 14
v -14 -13 15
v -15 -13 22
v -14 -13 15
v -14 -13 22
v -15 -13 15
v -22 -13 15
v -22 -13 22
v -4 -13 6
v -14 -23 6
v -14 -14 6
v -4 -23 6
v -4 -10 6
v -14 -10 6
v -4 -23 14
v -4 -23 6
v -4 -13 6
v -4 -14 14
v -4 -10 6
v -4 -10 14
v -15 -10 6
v -22 -13 6
v -22 -10 6
v -15 -13 6
v -4 -13 22
v -4 -13 15
v -4 -10 15
v -4 -10 22
v -4 -10 6
v -14 -10 6
v -14 -10 14
v -4 -10 14
v -15 -10 6
v -15 -10 14
v -22 -10 6
v -22 -10 14
v -14 -10 15
v -4 -10 15
v -14 -10 22
v -4 -10 22
v -15 -10 15
v -15 -10 22
v -22 -10 15
v -22 -10 22
f 841 842 843
f 841 844 842
f 845 846 847
f 848 845 847
f 848 847 849
f 850 848 849
f 851 852 853
f 851 854 852
f 855 844 841
f 855 856 844
f 857 856 855
f 857 858 856
f 859 860 861
f 862 859 861
f 860 845 848
f 861 860 848
f 862 861 863
f 864 862 863
f 861 848 850
f 863 861 850
f 865 843 866
f 865 841 843
f 867 866 868
f 867 865 866
f 869 870 871
f 869 872 870
f 852 872 869
f 852 873 872
f 874 871 875
f 874 869 871
f 853 869 874
f 853 852 869
f 876 841 865
f 876 855 841
f 877 865 867
f 877 876 865
f 878 855 876
f 878 857 855
f 879 876 877
f 879 878 876
f 880 881 882
f 880 883 881
f 884 885 886
f 885 887 886
f 888 889 890
f 888 891 889
f 892 893 894
f 892 895 893
f 896 897 898
f 896 898 899
f 900 901 902
f 900 902 903
f 904 905 906
f 904 888 905
f 907 908 909
f 907 910 908
f 911 894 910
f 911 892 894
f 912 910 907
f 912 911 910
f 913 914 915
f 913 916 914
f 917 915 918
f 917 913 915
f 919 920 921
f 922 919 921
f 922 921 923
f 924 922 923
f 925 926 927
f 925 928 926
f 918 928 925
f 918 915 928
f 929 930 931
f 932 929 931
f 930 922 924
f 931 930 924
f 933 934 935
f 936 933 935
f 934 937 938
f 935 934 938
f 937 939 940
f 938 937 940
f 936 935 941
f 942 936 941
f 942 941 943
f 944 942 943
f 935 938 945
f 941 935 945
f 941 945 946
f 943 941 946
f 938 940 947
f 945 938 947
f 945 947 948
f 946 945 948
v 22 -16 22
v 22 -20 22
v 2 -16 22
v 2 -20 22
v 2 -16 -22
v 2 -20 -22
v 22 -20 -22
v 22 -16 -22
v 22 19 22
v 22 -12 22
v 2 19 22
v 2 -12 22
v 2 19 -22
v 2 -11 -22
v 22 -12 -22
v 22 19 -22
v 0 -20 22
v 0 -16 22
v 0 -20 -22
v 0 -16 -22
v 0 -12 22
v 0 19 22
v 0 -11 -22
v 0 19 -22
v -22 -20 -22
v -14 -20 -22
v -14 -16 -22
v -22 -16 -22
v -14 19 22
v -22 -12 22
v -22 19 22
v -14 -12 22
v -22 -12 -22
v -14 -11.5 -22
v -22 19 -22
v -14 19 -22
v 22 -16 14
v 22 -20 22
v 22 -16 22
v 22 -20 14
v 22 19 14
v 22 -12 22
v 22 19 22
v 22 -12 14
v -22 -12 22
v -22 -12 14
v -22 19 14
v -22 19 22
v 2 19 22
v 22 19 14
v 22 19 22
v 2 19 14
v 0 19 22
v 0 19 14
v -22 19 22
v -14 19 14
v -14 19 22
v -22 19 14
v -4 -20 22
v -4 -16 22
v -4 -20 -22
v -4 -16 -22
v -4 -12 22
v -4 19 22
v -4 -11.25 -22
v -4 19 -22
v -4 19 22
v -4 19 14
v 22 -16 -22
v 22 -20 6
v 22 -16 6
v 22 -20 -22
v -22 -20 6
v -22 -20 -22
v -22 -16 -22
v -22 -16 6
v 22 19 -22
v 22 -12 6
v 22 19 6
v 22 -12 -22
v -22 -12 6
v -22 -12 -22
v -22 19 -22
v -22 19 6
v 2 19 6
v 22 19 -22
v 22 19 6
v 2 19 -22
v 0 19 6
v 0 19 -22
v -22 19 6
v -14 19 -22
v -14 19 6
v -22 19 -22
v -4 19 6
v -4 19 -22
v -10 -20 -22
v -10 -16 -22
v -10 19 22
v -10 -12 22
v -10 -11.375 -22
v -10 19 -22
v -10 19 22
v -10 19 14
v -10 19 6
v -10 19 -22
v 22 -16 12
v 22 -20 12
v 22 19 12
v 22 -12 12
v -22 -12 12
v -22 19 12
v 2 19 12
v 22 19 12
v 0 19 12
v -22 19 12
v -14 19 12
v -4 19 12
v -10 19 12
v 22 -20 14
v 2 -20 14
v 2 -20 22
v 22 -20 22
v 0 -20 14
v 0 -20 22
v -14 -22 14
v -22 -22 14
v -22 -22 22
v -14 -22 22
v -4 -20 14
v -4 -20 22
v 22 -20 -22
v 2 -20 -22
v 2 -20 6
v 22 -20 6
v 0 -20 -22
v 0 -20 6
v -14 -20 -22
v -22 -20 -22
v -22 -20 6
v -14 -20 6
v -4 -20 -22
v -4 -20 6
v -4 -20 14
v -10 -22 14
v -10 -22 22
v -4 -20 22
v -10 -22 14
v -10 -22 22
v -10 -20 -22
v -10 -20 6
v 2 -20 12
v 22 -20 12
v 0 -20 12
v -14 -20 6
v -22 -20 6
v -22 -22 12
v -14 -22 12
v -14 -22 12
v -22 -22 12
v -4 -20 12
v -10 -20 12
v -4 -20 12
v -10 -20 12
v -10 -22 14
v -10 -20 6
v -14 -22 12
v -10 -20 12
v -10 -20 12
v -14 -22 12
v -14 -22 14
v -10 -22 14
v -14 -16 22
v -22 -22 22
v -22 -16 22
v -14 -22 22
v -14 -12 22
v -22 -12 22
v -22 -22 22
v -22 -22 14
v -22 -16 14
v -22 -16 22
v -22 -12 14
v -22 -12 22
v -10 -16 22
v -10 -22 22
v -4 -16 22
v -4 -20 22
v -10 -12 22
v -4 -12 22
v -22 -22 12
v -22 -16 12
v -22 -20 6
v -22 -16 6
v -22 -12 12
v -22 -12 6
f 949 950 951
f 950 952 951
f 953 954 955
f 953 955 956
f 957 958 959
f 958 960 959
f 958 949 960
f 949 951 960
f 961 962 963
f 961 963 964
f 962 953 956
f 962 956 963
f 951 965 966
f 951 952 965
f 967 954 953
f 968 967 953
f 959 969 970
f 959 960 969
f 960 966 969
f 960 951 966
f 971 962 961
f 972 971 961
f 968 953 962
f 971 968 962
f 973 974 975
f 976 973 975
f 977 978 979
f 977 980 978
f 981 982 983
f 982 984 983
f 981 976 975
f 981 975 982
f 985 986 987
f 985 988 986
f 989 990 991
f 989 992 990
f 992 987 990
f 992 985 987
f 993 994 995
f 996 993 995
f 997 998 999
f 997 1000 998
f 1001 1000 997
f 1001 1002 1000
f 1003 1004 1005
f 1003 1006 1004
f 966 1007 1008
f 966 965 1007
f 1009 967 968
f 1010 1009 968
f 970 1011 1012
f 970 969 1011
f 969 1008 1011
f 969 966 1008
f 1013 971 1014
f 971 972 1014
f 1013 1010 968
f 1013 968 971
f 1015 1002 1001
f 1015 1016 1002
f 1017 1018 1019
f 1017 1020 1018
f 1021 1022 1023
f 1024 1021 1023
f 1025 1026 1027
f 1025 1028 1026
f 1028 1019 1026
f 1028 1017 1019
f 1029 1030 1031
f 1032 1029 1031
f 1024 1023 1030
f 1029 1024 1030
f 1033 1034 1035
f 1033 1036 1034
f 1037 1036 1033
f 1037 1038 1036
f 1039 1040 1041
f 1039 1042 1040
f 1043 1038 1037
f 1043 1044 1038
f 974 1045 1046
f 975 974 1046
f 1045 1009 1010
f 1046 1045 1010
f 1047 980 977
f 1047 1048 980
f 1012 1048 1047
f 1012 1011 1048
f 982 1049 984
f 1049 1050 984
f 1049 1013 1050
f 1013 1014 1050
f 982 975 1046
f 982 1046 1049
f 1049 1046 1010
f 1049 1010 1013
f 1051 1016 1015
f 1051 1052 1016
f 1005 1052 1051
f 1005 1004 1052
f 1053 1044 1043
f 1053 1054 1044
f 1041 1054 1053
f 1041 1040 1054
f 1055 988 985
f 1055 1056 988
f 1019 1056 1055
f 1019 1018 1056
f 1057 992 989
f 1057 1058 992
f 1027 1058 1057
f 1027 1026 1058
f 1058 985 992
f 1058 1055 985
f 1026 1055 1058
f 1026 1019 1055
f 994 1059 1060
f 995 994 1060
f 1059 1029 1032
f 1060 1059 1032
f 1061 1035 1062
f 1061 1033 1035
f 1000 1062 998
f 1000 1061 1062
f 1063 1033 1061
f 1063 1037 1033
f 1002 1061 1000
f 1002 1063 1061
f 1064 1041 1065
f 1064 1039 1041
f 1006 1065 1004
f 1006 1064 1065
f 1066 1037 1063
f 1066 1043 1037
f 1016 1063 1002
f 1016 1066 1063
f 1067 1043 1066
f 1067 1053 1043
f 1052 1066 1016
f 1052 1067 1066
f 1065 1053 1067
f 1065 1041 1053
f 1004 1067 1052
f 1004 1065 1067
f 1068 1069 1070
f 1071 1068 1070
f 1069 1072 1073
f 1070 1069 1073
f 1074 1075 1076
f 1077 1074 1076
f 1072 1078 1079
f 1073 1072 1079
f 1080 1081 1082
f 1083 1080 1082
f 1081 1084 1085
f 1082 1081 1085
f 1086 1087 1088
f 1089 1086 1088
f 1084 1090 1091
f 1085 1084 1091
f 1092 1093 1094
f 1095 1092 1094
f 1096 1074 1077
f 1097 1096 1077
f 1090 1098 1099
f 1091 1090 1099
f 1098 1086 1089
f 1099 1098 1089
f 1083 1082 1100
f 1101 1083 1100
f 1101 1100 1069
f 1068 1101 1069
f 1082 1085 1102
f 1100 1082 1102
f 1100 1102 1072
f 1069 1100 1072
f 1103 1104 1105
f 1106 1103 1105
f 1107 1108 1075
f 1074 1107 1075
f 1085 1091 1109
f 1102 1085 1109
f 1102 1109 1078
f 1072 1102 1078
f 1091 1099 1110
f 1109 1091 1110
f 1111 1112 1113
f 1092 1111 1113
f 1114 1103 1115
f 1116 1114 1115
f 1117 1118 1119
f 1120 1117 1119
f 1121 1122 1123
f 1121 1124 1122
f 1125 1123 1126
f 1125 1121 1123
f 1127 1128 1129
f 1130 1127 1129
f 1130 1129 1131
f 1132 1130 1131
f 1133 1124 1121
f 1133 1134 1124
f 1135 1134 1133
f 1135 1136 1134
f 1137 1121 1125
f 1137 1133 1121
f 1138 1133 1137
f 1138 1135 1133
f 1128 1139 1140
f 1129 1128 1140
f 1139 1141 1142
f 1140 1139 1142
f 1129 1140 1143
f 1131 1129 1143
f 1140 1142 1144
f 1143 1140 1144
v -3.942865 -18.58079 -8.194633
v -3.866196 -18.48778 -8.202974
v -3.883479 -18.55703 -8.228846
v 0.5785866 -20.99817 -2.671663
v 0.8163455 -20.50542 -2.580053
v 0.6948363 -20.39152 -2.416618
v -4.648192 -17.10601 -3.570002
v -4.59307 -16.72672 -4.62186
v -5.317829 -17.78904 -4.785682
v 0.8554466 -17.79193 -7.011668
v 0.8440171 -17.75544 -7.007527
v 0.8739578 -17.76167 -6.958316
v -4.875572 -21.47865 -3.962959
v -4.946468 -21.47167 -4.092043
v -4.842201 -21.55393 -4.0186
v 1.065461 -19.14829 -2.706218
v 0.9312531 -18.54757 -2.747382
v 0.6932097 -19.4233 -2.287473
v 0.3199474 -21.63802 -2.91145
v -0.1417854 -22.17196 -3.058747
v 0.4996925 -22.34526 -4.29965
v -2.232122 -22.9641 -4.008213
v -1.817621 -22.81733 -3.372131
v -2.994949 -22.59253 -3.897006
v -0.4544835 -20.40969 -7.934954
v 0.4000606 -19.67155 -7.531951
v 0.1986489 -21.45024 -7.10093
v -0.4312319 -22.75201 -6.354012
v -0.4793478 -22.68957 -6.466648
v 0.1416556 -22.19668 -6.632247
v -4.931653 -19.16108 -7.266569
v -4.593528 -19.43799 -7.7161
v -4.590843 -20.4769 -7.433365
v -5.409029 -19.20897 -6.510727
v -5.396874 -20.48895 -6.176149
v -5.566545 -19.58417 -6.162075
v -5.493158 -20.31831 -6.073497
v -2.195947 -19.19257 -1.242576
v 0.4817814 -19.74167 -2.070937
v 0.6932097 -19.4233 -2.287473
v 0.9312531 -18.54757 -2.747382
v 0.8888594 -18.24218 -2.858224
v -2.556713 -18.13613 -1.541446
v -2.522775 -18.7753 -1.2878
v -0.4312319 -22.75201 -6.354012
v -0.4849828 -22.90481 -6.011133
v -0.8736449 -23.05394 -5.544741
v -1.109771 -23.06287 -5.433376
v -1.675676 -22.16607 -7.100262
v -0.4793478 -22.68957 -6.466648
v 0.3119854 -17.11987 -7.033318
v -1.146252 -16.34005 -7.301795
v -0.2726342 -16.16842 -6.256578
v 0.140362 -16.3408 -6.113409
v 1.368072 -17.50852 -5.147177
v 1.255086 -17.42532 -5.659791
v 0.5494682 -16.62352 -5.760484
v 1.212109 -17.29622 -4.783934
v -4.190418 -16.81409 -3.314723
v -3.920955 -16.17193 -4.644009
v -4.092414 -16.24744 -4.846019
v -4.59307 -16.72672 -4.62186
v -4.648192 -17.10601 -3.570002
v -4.440979 -17.05697 -3.193035
v -3.920955 -16.17193 -4.644009
v -3.080449 -15.84874 -5.623312
v -3.505036 -16.02219 -5.555617
v -4.092414 -16.24744 -4.846019
v -3.080449 -15.84874 -5.623312
v -2.50317 -15.74771 -6.067889
v -2.951143 -16.23186 -6.784078
v -3.505036 -16.02219 -5.555617
v -0.2726342 -16.16842 -6.256578
v -1.146252 -16.34005 -7.301795
v -1.365543 -16.31124 -7.360355
v -2.015919 -15.76973 -6.240861
v -2.015919 -15.76973 -6.240861
v -1.365543 -16.31124 -7.360355
v -1.730514 -16.44739 -7.495658
v -2.833411 -16.64521 -7.533875
v -2.50317 -15.74771 -6.067889
v -2.951143 -16.23186 -6.784078
v -2.989323 -17.09978 -7.868648
v -2.833411 -16.64521 -7.533875
v -1.730514 -16.44739 -7.495658
v -2.833204 -17.22183 -7.979093
v -3.053424 -20.26675 -1.554257
v -2.931351 -19.86229 -1.39379
v -3.503043 -19.21266 -1.475365
v -3.676336 -20.10343 -1.786543
v -4.00182 -17.15768 -2.74997
v -4.190418 -16.81409 -3.314723
v -4.440979 -17.05697 -3.193035
v -4.27042 -17.20766 -2.881843
v -3.113275 -17.8873 -1.765551
v -4.00182 -17.15768 -2.74997
v -4.27042 -17.20766 -2.881843
v -3.562135 -18.62412 -1.585759
v -3.496272 -18.89979 -1.464544
v -2.522775 -18.7753 -1.2878
v -2.556713 -18.13613 -1.541446
v -3.113275 -17.8873 -1.765551
v -3.562135 -18.62412 -1.585759
v 0.6278138 -22.41417 -4.701697
v 1.412545 -19.94802 -3.265792
v 1.399831 -19.93547 -3.218174
v 0.8163455 -20.50542 -2.580053
v 0.6270135 -22.41506 -4.700961
v 0.5891196 -22.42895 -4.628304
v 0.5785866 -20.99817 -2.671663
v 0.4996925 -22.34526 -4.29965
v 0.3199474 -21.63802 -2.91145
v 1.415878 -19.92687 -3.267156
v 1.368072 -17.50852 -5.147177
v 1.212109 -17.29622 -4.783934
v 0.8888594 -18.24218 -2.858224
v 0.9312531 -18.54757 -2.747382
v 1.065461 -19.14829 -2.706218
v 1.40149 -19.92483 -3.218804
v -2.931351 -19.86229 -1.39379
v -2.195947 -19.19257 -1.242576
v -2.522775 -18.7753 -1.2878
v -3.503043 -19.21266 -1.475365
v -3.496272 -18.89979 -1.464544
v 0.8739578 -17.76167 -6.958316
v 0.8440171 -17.75544 -7.007527
v 0.3119854 -17.11987 -7.033318
v 1.255086 -17.42532 -5.659791
v 0.140362 -16.3408 -6.113409
v 0.5494682 -16.62352 -5.760484
v -1.572582 -22.52262 -2.91339
v -1.797082 -22.81211 -3.353615
v -1.044828 -22.74109 -3.438447
v -0.808329 -22.48549 -3.060348
v -2.556713 -18.13613 -1.541446
v 0.8888594 -18.24218 -2.858224
v 1.212109 -17.29622 -4.783934
v 0.5494682 -16.62352 -5.760484
v -3.113275 -17.8873 -1.765551
v 0.140362 -16.3408 -6.113409
v -4.00182 -17.15768 -2.74997
v -0.2726342 -16.16842 -6.256578
v -2.015919 -15.76973 -6.240861
v -4.190418 -16.81409 -3.314723
v -3.920955 -16.17193 -4.644009
v -2.50317 -15.74771 -6.067889
v -3.080449 -15.84874 -5.623312
v 1.399831 -19.93547 -3.218174
v 1.40149 -19.92483 -3.218804
v 1.065461 -19.14829 -2.706218
v 0.8163455 -20.50542 -2.580053
v 0.6932097 -19.4233 -2.287473
v 0.4817814 -19.74167 -2.070937
v 0.6948363 -20.39152 -2.416618
v 1.399831 -19.93547 -3.218174
v 1.412545 -19.94802 -3.265792
v 1.415878 -19.92687 -3.267156
v 1.40149 -19.92483 -3.218804
v -0.395197 -22.83105 -4.471373
v 0.5891196 -22.42895 -4.628304
v 0.4996925 -22.34526 -4.29965
v -0.1417854 -22.17196 -3.058747
v -1.044828 -22.74109 -3.438447
v -0.808329 -22.48549 -3.060348
v -4.842201 -21.55393 -4.0186
v -2.994949 -22.59253 -3.897006
v -1.817621 -22.81733 -3.372131
v -1.797082 -22.81211 -3.353615
v -1.572582 -22.52262 -2.91339
v -4.875572 -21.47865 -3.962959
v -3.676336 -20.10343 -1.786543
v -3.053424 -20.26675 -1.554257
v -5.540141 -20.64169 -5.176693
v -5.493158 -20.31831 -6.073497
v -5.396874 -20.48895 -6.176149
v -5.476892 -20.84193 -5.060604
v -5.695982 -18.99657 -5.468259
v -5.566545 -19.58417 -6.162075
v -5.493158 -20.31831 -6.073497
v -5.540141 -20.64169 -5.176693
v -5.695982 -18.99657 -5.468259
v -5.672167 -18.73132 -5.42618
v -5.409029 -19.20897 -6.510727
v -5.566545 -19.58417 -6.162075
v -2.951143 -16.23186 -6.784078
v -2.833411 -16.64521 -7.533875
v -2.989323 -17.09978 -7.868648
v -3.866196 -18.48778 -8.202974
v -3.505036 -16.02219 -5.555617
v -4.092414 -16.24744 -4.846019
v -3.942865 -18.58079 -8.194633
v -4.370368 -18.92866 -7.921888
v -4.931653 -19.16108 -7.266569
v -4.59307 -16.72672 -4.62186
v -5.317829 -17.78904 -4.785682
v -5.409029 -19.20897 -6.510727
v -5.672167 -18.73132 -5.42618
v -4.593528 -19.43799 -7.7161
v -4.931653 -19.16108 -7.266569
v -4.370368 -18.92866 -7.921888
v -4.564707 -19.4167 -7.748521
v -4.593528 -19.43799 -7.7161
v -4.564707 -19.4167 -7.748521
v -4.211252 -20.56584 -7.758965
v -4.590843 -20.4769 -7.433365
v -2.989323 -17.09978 -7.868648
v -2.833204 -17.22183 -7.979093
v -3.415038 -18.68656 -8.451268
v -3.866196 -18.48778 -8.202974
v -3.883479 -18.55703 -8.228846
v 0.6948363 -20.39152 -2.416618
v 0.4817814 -19.74167 -2.070937
v -2.195947 -19.19257 -1.242576
v 0.5785866 -20.99817 -2.671663
v 0.3199474 -21.63802 -2.91145
v -0.1417854 -22.17196 -3.058747
v -0.808329 -22.48549 -3.060348
v -1.572582 -22.52262 -2.91339
v -2.931351 -19.86229 -1.39379
v -3.053424 -20.26675 -1.554257
v -5.540141 -20.64169 -5.176693
v -5.476892 -20.84193 -5.060604
v -4.946468 -21.47167 -4.092043
v -5.695982 -18.99657 -5.468259
v -4.875572 -21.47865 -3.962959
v -3.676336 -20.10343 -1.786543
v -5.672167 -18.73132 -5.42618
v -5.317829 -17.78904 -4.785682
v -4.648192 -17.10601 -3.570002
v -3.503043 -19.21266 -1.475365
v -4.440979 -17.05697 -3.193035
v -3.496272 -18.89979 -1.464544
v -4.27042 -17.20766 -2.881843
v -3.562135 -18.62412 -1.585759
v -1.675676 -22.16607 -7.100262
v -1.109771 -23.06287 -5.433376
v -2.232122 -22.9641 -4.008213
v -2.994949 -22.59253 -3.897006
v -4.842201 -21.55393 -4.0186
v -3.156433 -20.96197 -8.244171
v -4.946468 -21.47167 -4.092043
v -5.476892 -20.84193 -5.060604
v -4.211252 -20.56584 -7.758965
v -5.396874 -20.48895 -6.176149
v -4.590843 -20.4769 -7.433365
v -2.714669 -20.28396 -8.5737
v -3.156433 -20.96197 -8.244171
v -4.211252 -20.56584 -7.758965
v -3.415038 -18.68656 -8.451268
v -4.564707 -19.4167 -7.748521
v -3.883479 -18.55703 -8.228846
v -4.370368 -18.92866 -7.921888
v -3.942865 -18.58079 -8.194633
v 0.1416556 -22.19668 -6.632247
v 0.1891308 -22.15266 -6.649008
v 0.6278138 -22.41417 -4.701697
v -0.4312319 -22.75201 -6.354012
v -0.4849828 -22.90481 -6.011133
v 0.6270135 -22.41506 -4.700961
v -1.109771 -23.06287 -5.433376
v -0.8736449 -23.05394 -5.544741
v -0.395197 -22.83105 -4.471373
v -1.044828 -22.74109 -3.438447
v -2.232122 -22.9641 -4.008213
v -1.797082 -22.81211 -3.353615
v -1.817621 -22.81733 -3.372131
v -0.4849828 -22.90481 -6.011133
v 0.6270135 -22.41506 -4.700961
v 0.5891196 -22.42895 -4.628304
v -0.395197 -22.83105 -4.471373
v -0.8736449 -23.05394 -5.544741
v 0.1986489 -21.45024 -7.10093
v 0.1891308 -22.15266 -6.649008
v 0.1416556 -22.19668 -6.632247
v -0.4793478 -22.68957 -6.466648
v -1.675676 -22.16607 -7.100262
v -0.4544835 -20.40969 -7.934954
v -3.156433 -20.96197 -8.244171
v -2.714669 -20.28396 -8.5737
v 0.4000606 -19.67155 -7.531951
v 0.8554466 -17.79193 -7.011668
v 0.8739578 -17.76167 -6.958316
v 1.255086 -17.42532 -5.659791
v 1.368072 -17.50852 -5.147177
v 1.415878 -19.92687 -3.267156
v 0.1986489 -21.45024 -7.10093
v 0.1891308 -22.15266 -6.649008
v 1.412545 -19.94802 -3.265792
v 0.6278138 -22.41417 -4.701697
v -0.4544835 -20.40969 -7.934954
v -2.714669 -20.28396 -8.5737
v -3.415038 -18.68656 -8.451268
v 0.4000606 -19.67155 -7.531951
v -2.833204 -17.22183 -7.979093
v 0.8554466 -17.79193 -7.011668
v -1.730514 -16.44739 -7.495658
v 0.8440171 -17.75544 -7.007527
v 0.3119854 -17.11987 -7.033318
v -1.365543 -16.31124 -7.360355
v -1.146252 -16.34005 -7.301795
f 1145 1146 1147
f 1148 1149 1150
f 1151 1152 1153
f 1154 1155 1156
f 1157 1158 1159
f 1160 1161 1162
f 1163 1164 1165
f 1166 1167 1168
f 1169 1170 1171
f 1172 1173 1174
f 1175 1176 1177
f 1177 1178 1175
f 1177 1179 1178
f 1179 1180 1178
f 1179 1181 1180
f 1182 1183 1184
f 1184 1185 1182
f 1185 1186 1182
f 1186 1187 1182
f 1187 1188 1182
f 1189 1190 1191
f 1191 1192 1189
f 1192 1193 1189
f 1193 1194 1189
f 1195 1196 1197
f 1195 1197 1198
f 1199 1200 1201
f 1199 1201 1202
f 1203 1204 1205
f 1205 1206 1203
f 1206 1207 1203
f 1207 1208 1203
f 1209 1210 1211
f 1209 1211 1212
f 1213 1214 1215
f 1213 1215 1216
f 1217 1218 1219
f 1217 1219 1220
f 1221 1222 1223
f 1223 1224 1221
f 1224 1225 1221
f 1224 1226 1225
f 1227 1228 1229
f 1227 1229 1230
f 1231 1232 1233
f 1231 1233 1234
f 1235 1236 1237
f 1235 1237 1238
f 1239 1240 1241
f 1239 1241 1242
f 1243 1244 1245
f 1245 1246 1243
f 1246 1247 1243
f 1248 1249 1250
f 1250 1251 1248
f 1251 1252 1248
f 1251 1253 1252
f 1251 1254 1253
f 1254 1255 1253
f 1254 1256 1255
f 1257 1258 1259
f 1259 1260 1257
f 1260 1261 1257
f 1261 1262 1257
f 1262 1263 1257
f 1264 1265 1266
f 1266 1267 1264
f 1266 1268 1267
f 1269 1270 1271
f 1271 1272 1269
f 1271 1273 1272
f 1273 1274 1272
f 1275 1276 1277
f 1275 1277 1278
f 1279 1280 1281
f 1281 1282 1279
f 1282 1283 1279
f 1282 1284 1283
f 1284 1285 1283
f 1284 1286 1285
f 1286 1287 1285
f 1287 1288 1285
f 1287 1289 1288
f 1287 1290 1289
f 1290 1291 1289
f 1292 1293 1294
f 1294 1295 1292
f 1294 1296 1295
f 1296 1297 1295
f 1297 1298 1295
f 1299 1300 1301
f 1299 1301 1302
f 1303 1304 1305
f 1305 1306 1303
f 1306 1307 1303
f 1306 1308 1307
f 1309 1310 1311
f 1311 1312 1309
f 1312 1313 1309
f 1313 1314 1309
f 1313 1315 1314
f 1313 1316 1315
f 1317 1318 1319
f 1317 1319 1320
f 1321 1322 1323
f 1321 1323 1324
f 1325 1326 1327
f 1325 1327 1328
f 1329 1330 1331
f 1331 1332 1329
f 1332 1333 1329
f 1332 1334 1333
f 1332 1335 1334
f 1335 1336 1334
f 1336 1337 1334
f 1337 1338 1334
f 1337 1339 1338
f 1337 1340 1339
f 1340 1341 1339
f 1342 1343 1344
f 1342 1344 1345
f 1346 1347 1348
f 1346 1348 1349
f 1350 1351 1352
f 1352 1353 1350
f 1352 1354 1353
f 1355 1356 1357
f 1357 1358 1355
f 1357 1359 1358
f 1357 1360 1359
f 1357 1361 1360
f 1357 1362 1361
f 1357 1363 1362
f 1363 1364 1362
f 1365 1366 1367
f 1367 1368 1365
f 1367 1369 1368
f 1369 1370 1368
f 1370 1371 1368
f 1370 1372 1371
f 1370 1373 1372
f 1370 1374 1373
f 1374 1375 1373
f 1374 1376 1375
f 1376 1377 1375
f 1376 1378 1377
f 1379 1380 1381
f 1381 1382 1379
f 1382 1383 1379
f 1383 1384 1379
f 1383 1385 1384
f 1385 1386 1384
f 1386 1387 1384
f 1386 1388 1387
f 1388 1389 1387
f 1390 1391 1392
f 1392 1393 1390
f 1392 1394 1393
f 1394 1395 1393
f 1394 1396 1395
f 1396 1397 1395
f 1398 1399 1400
f 1400 1401 1398
f 1400 1402 1401
f 1400 1403 1402
f 1404 1405 1406
f 1406 1407 1404
f 1407 1408 1404
f 1407 1409 1408
f 1409 1410 1408
f 1411 1412 1413
f 1413 1414 1411
f 1414 1415 1411
f 1416 1417 1418
f 1418 1419 1416
f 1419 1420 1416
f 1420 1421 1416
f 1420 1422 1421
f 1422 1423 1421
f 1424 1425 1426
f 1426 1427 1424
f 1427 1428 1424
f 1428 1429 1424
f 1429 1430 1424
f 1429 1431 1430
f 1429 1432 1431
f 1432 1433 1431
f 1434 1435 1436
f 1436 1437 1434
f 1436 1438 1437
f 1438 1439 1437
f 1438 1440 1439
f 1440 1441 1439
f 1440 1442 1441
f 1440 1443 1442
f 1443 1444 1442
v -10.02447 -10 19.97492
v -9.924725 -10 15.95044
v -10.02447 -8 19.97492
v -9.924725 -8 15.95044
v -8.025084 -8 20.02447
v -7.925336 -8 16
v -8.025084 -10 20.02447
v -7.925336 -10 16
v -10.02447 -8 19.97492
v -9.924725 -8 15.95044
v -8.025084 -8 20.02447
v -7.925336 -8 16
v -8.025084 -10 20.02447
v -10.02447 -10 19.97492
v -9.924725 -10 15.95044
v -7.925336 -10 16
v -9.924725 -10 15.95044
v -9.924725 -8 15.95044
v -7.925336 -8 16
v -7.925336 -10 16
v -8.025084 -10 20.02447
v -8.025084 -8 20.02447
v -10.02447 -8 19.97492
v -10.02447 -10 19.97492
f 1445 1447 1448
f 1445 1448 1446
f 1453 1449 1450
f 1453 1450 1454
f 1455 1451 1452
f 1455 1452 1456
f 1457 1458 1459
f 1457 1459 1460
f 1461 1462 1463
f 1461 1463 1464
f 1465 1466 1467
f 1465 1467 1468
v -20.88705 12.14078 -4.520031
v -20.89738 12.14078 7.951418
v -22.13524 12.14078 -4.521065
v -22.14557 12.14078 7.950384
v -22.13525 4.799217 -4.521065
v -22.14558 4.799218 7.950384
v -20.88705 4.799216 -4.520031
v -20.89738 4.799217 7.951418
v -22.13524 12.14078 -4.521065
v -22.14557 12.14078 7.950384
v -22.13525 4.799217 -4.521065
v -22.14558 4.799218 7.950384
v -20.88705 4.799216 -4.520031
v -20.88705 12.14078 -4.520031
v -20.89738 12.14078 7.951418
v -20.89738 4.799217 7.951418
v -20.89738 12.14078 7.951418
v -22.14557 12.14078 7.950384
v -22.14558 4.799218 7.950384
v -20.89738 4.799217 7.951418
v -20.88705 4.799216 -4.520031
v -22.13525 4.799217 -4.521065
v -22.13524 12.14078 -4.521065
v -20.88705 12.14078 -4.520031
f 1469 1471 1472
f 1469 1472 1470
f 1477 1473 1474
f 1477 1474 1478
f 1479 1475 1476
f 1479 1476 1480
f 1481 1482 1483
f 1481 1483 1484
f 1485 1486 1487
f 1485 1487 1488
f 1489 1490 1491
f 1489 1491 1492
v 4.639253 14.84285 20.64962
v 4.639246 -0.2399896 20.64962
v 4.638002 14.84285 22.15917
v 4.637994 -0.2399896 22.15917
v -4.240803 14.84285 22.15181
v -4.24081 -0.2399854 22.15181
v -4.239552 14.84285 20.64226
v -4.239559 -0.2399854 20.64226
v 4.638002 14.84285 22.15917
v 4.637994 -0.2399896 22.15917
v -4.240803 14.84285 22.15181
v -4.24081 -0.2399854 22.15181
v -4.239552 14.84285 20.64226
v 4.639253 14.84285 20.64962
v 4.639246 -0.2399896 20.64962
v -4.239559 -0.2399854 20.64226
v 4.639246 -0.2399896 20.64962
v 4.637994 -0.2399896 22.15917
v -4.24081 -0.2399854 22.15181
v -4.239559 -0.2399854 20.64226
v -4.239552 14.84285 20.64226
v -4.240803 14.84285 22.15181
v 4.638002 14.84285 22.15917
v 4.639253 14.84285 20.64962
f 1493 1495 1496
f 1493 1496 1494
f 1501 1497 1498
f 1501 1498 1502
f 1503 1499 1500
f 1503 1500 1504
f 1505 1506 1507
f 1505 1507 1508
f 1509 1510 1511
f 1509 1511 1512
f 1513 1514 1515
f 1513 1515 1516
v 20.77921 16.21318 -3.542881
v 20.77921 1.731159 -3.542875
v 22.22864 16.21318 -3.541722
v 22.22863 1.731158 -3.541717
v 22.22182 16.21318 4.983402
v 22.22182 1.731161 4.983407
v 20.7724 16.21318 4.982244
v 20.77239 1.731162 4.982249
v 22.22864 16.21318 -3.541722
v 22.22863 1.731158 -3.541717
v 22.22182 16.21318 4.983402
v 22.22182 1.731161 4.983407
v 20.7724 16.21318 4.982244
v 20.77921 16.21318 -3.542881
v 20.77921 1.731159 -3.542875
v 20.77239 1.731162 4.982249
v 20.77921 1.731159 -3.542875
v 22.22863 1.731158 -3.541717
v 22.22182 1.731161 4.983407
v 20.77239 1.731162 4.982249
v 20.7724 16.21318 4.982244
v 22.22182 16.21318 4.983402
v 22.22864 16.21318 -3.541722
v 20.77921 16.21318 -3.542881
f 1517 1519 1520
f 1517 1520 1518
f 1525 1521 1522
f 1525 1522 1526
f 1527 1523 1524
f 1527 1524 1528
f 1529 1530 1531
f 1529 1531 1532
f 1533 1534 1535
f 1533 1535 1536
f 1537 1538 1539
f 1537 1539 1540
v -3.584678 15.01283 -20.76046
v -3.584672 2.155504 -20.76045
v -3.583604 15.01283 -22.04727
v -3.583598 2.155504 -22.04727
v 3.985113 15.01284 -22.04096
v 3.985119 2.155507 -22.04095
v 3.984039 15.01284 -20.75414
v 3.984045 2.155507 -20.75414
v -3.583604 15.01283 -22.04727
v -3.583598 2.155504 -22.04727
v 3.985113 15.01284 -22.04096
v 3.985119 2.155507 -22.04095
v 3.984039 15.01284 -20.75414
v -3.584678 15.01283 -20.76046
v -3.584672 2.155504 -20.76045
v 3.984045 2.155507 -20.75414
v -3.584672 2.155504 -20.76045
v -3.583598 2.155504 -22.04727
v 3.985119 2.155507 -22.04095
v 3.984045 2.155507 -20.75414
v 3.984039 15.01284 -20.75414
v 3.985113 15.01284 -22.04096
v -3.583604 15.01283 -22.04727
v -3.584678 15.01283 -20.76046
f 1541 1543 1544
f 1541 1544 1542
f 1549 1545 1546
f 1549 1546 1550
f 1551 1547 1548
f 1551 1548 1552
f 1553 1554 1555
f 1553 1555 1556
f 1557 1558 1559
f 1557 1559 1560
f 1561 1562 1563
f 1561 1563 1564
v -21.58572 -21.14711 20.86331
v -20.73331 -21.14711 21.71571
v -21.87402 -21.14711 21.15162
v -21.02161 -21.14711 22.00402
v -21.87402 -21.97709 21.15162
v -21.02161 -21.97709 22.00402
v -21.58572 -21.97709 20.86331
v -20.73331 -21.97709 21.71571
v -21.87402 -21.14711 21.15162
v -21.02161 -21.14711 22.00402
v -21.87402 -21.97709 21.15162
v -21.02161 -21.97709 22.00402
v -21.58572 -21.97709 20.86331
v -21.58572 -21.14711 20.86331
v -20.73331 -21.14711 21.71571
v -20.73331 -21.97709 21.71571
v -20.73331 -21.14711 21.71571
v -21.02161 -21.14711 22.00402
v -21.02161 -21.97709 22.00402
v -20.73331 -21.97709 21.71571
v -21.58572 -21.97709 20.86331
v -21.87402 -21.97709 21.15162
v -21.87402 -21.14711 21.15162
v -21.58572 -21.14711 20.86331
f 1565 1567 1568
f 1565 1568 1566
f 1573 1569 1570
f 1573 1570 1574
f 1575 1571 1572
f 1575 1572 1576
f 1577 1578 1579
f 1577 1579 1580
f 1581 1582 1583
f 1581 1583 1584
f 1585 1586 1587
f 1585 1587 1588
v -18.78152 -8 -17.60276
v -20.39724 -8 -18.78152
v -18.78152 -6 -17.60276
v -20.39724 -6 -18.78152
v -17.60276 -6 -19.21848
v -19.21848 -6 -20.39724
v -17.60276 -8 -19.21848
v -19.21848 -8 -20.39724
v -18.78152 -6 -17.60276
v -20.39724 -6 -18.78152
v -17.60276 -6 -19.21848
v -19.21848 -6 -20.39724
v -17.60276 -8 -19.21848
v -18.78152 -8 -17.60276
v -20.39724 -8 -18.78152
v -19.21848 -8 -20.39724
v -20.39724 -8 -18.78152
v -20.39724 -6 -18.78152
v -19.21848 -6 -20.39724
v -19.21848 -8 -20.39724
v -17.60276 -8 -19.21848
v -17.60276 -6 -19.21848
v -18.78152 -6 -17.60276
v -18.78152 -8 -17.60276
f 1589 1591 1592
f 1589 1592 1590
f 1597 1593 1594
f 1597 1594 1598
f 1599 1595 1596
f 1599 1596 1600
f 1601 1602 1603
f 1601 1603 1604
f 1605 1606 1607
f 1605 1607 1608
f 1609 1610 1611
f 1609 1611 1612
v 22.20625 -6 -10.23012
v 18.23012 -6 -9.79375
v 22.20625 -2 -10.23012
v 18.23012 -2 -9.79375
v 21.76988 -2 -14.20625
v 17.79375 -2 -13.76988
v 21.76988 -6 -14.20625
v 17.79375 -6 -13.76988
v 22.20625 -2 -10.23012
v 18.23012 -2 -9.79375
v 21.76988 -2 -14.20625
v 17.79375 -2 -13.76988
v 21.76988 -6 -14.20625
v 22.20625 -6 -10.23012
v 18.23012 -6 -9.79375
v 17.79375 -6 -13.76988
v 18.23012 -6 -9.79375
v 18.23012 -2 -9.79375
v 17.79375 -2 -13.76988
v 17.79375 -6 -13.76988
v 21.76988 -6 -14.20625
v 21.76988 -2 -14.20625
v 22.20625 -2 -10.23012
v 22.20625 -6 -10.23012
f 1613 1615 1616
f 1613 1616 1614
f 1621 1617 1618
f 1621 1618 1622
f 1623 1619 1620
f 1623 1620 1624
f 1625 1626 1627
f 1625 1627 1628
f 1629 1630 1631
f 1629 1631 1632
f 1633 1634 1635
f 1633 1635 1636
v 21.10498 -6 -7.426606
v 19.19661 -6 -8.025018
v 21.10498 -4 -7.426606
v 19.19661 -4 -8.025018
v 21.7034 -4 -9.334983
v 19.79502 -4 -9.933395
v 21.7034 -6 -9.334983
v 19.79502 -6 -9.933395
v 21.10498 -4 -7.426606
v 19.19661 -4 -8.025018
v 21.7034 -4 -9.334983
v 19.79502 -4 -9.933395
v 21.7034 -6 -9.334983
v 21.10498 -6 -7.426606
v 19.19661 -6 -8.025018
v 19.79502 -6 -9.933395
v 19.19661 -6 -8.025018
v 19.19661 -4 -8.025018
v 19.79502 -4 -9.933395
v 19.79502 -6 -9.933395
v 21.7034 -6 -9.334983
v 21.7034 -4 -9.334983
v 21.10498 -4 -7.426606
v 21.10498 -6 -7.426606
f 1637 1639 1640
f 1637 1640 1638
f 1645 1641 1642
f 1645 1642 1646
f 1647 1643 1644
f 1647 1644 1648
f 1649 1650 1651
f 1649 1651 1652
f 1653 1654 1655
f 1653 1655 1656
f 1657 1658 1659
f 1657 1659 1660
v 16 -4 22
v 14 -4 22
v 16 -2 22
v 14 -2 22
v 16 -2 20
v 14 -2 20
v 16 -4 20
v 14 -4 20
v 16 -2 22
v 14 -2 22
v 16 -2 20
v 14 -2 20
v 16 -4 20
v 16 -4 22
v 14 -4 22
v 14 -4 20
v 14 -4 22
v 14 -2 22
v 14 -2 20
v 14 -4 20
v 16 -4 20
v 16 -2 20
v 16 -2 22
v 16 -4 22
f 1661 1663 1664
f 1661 1664 1662
f 1669 1665 1666
f 1669 1666 1670
f 1671 1667 1668
f 1671 1668 1672
f 1673 1674 1675
f 1673 1675 1676
f 1677 1678 1679
f 1677 1679 1680
f 1681 1682 1683
f 1681 1683 1684
v -20.12089 -22 21.77381
v -21.62609 -22 20.45685
v -20.12089 -20 21.77381
v -21.62609 -20 20.45685
v -18.80394 -20 20.26861
v -20.30914 -20 18.95165
v -18.80394 -22 20.26861
v -20.30914 -22 18.95165
v -20.12089 -20 21.77381
v -21.62609 -20 20.45685
v -18.80394 -20 20.26861
v -20.30914 -20 18.95165
v -18.80394 -22 20.26861
v -20.12089 -22 21.77381
v -21.62609 -22 20.45685
v -20.30914 -22 18.95165
v -21.62609 -22 20.45685
v -21.62609 -20 20.45685
v -20.30914 -20 18.95165
v -20.30914 -22 18.95165
v -18.80394 -22 20.26861
v -18.80394 -20 20.26861
v -20.12089 -20 21.77381
v -20.12089 -22 21.77381
f 1685 1687 1688
f 1685 1688 1686
f 1693 1689 1690
f 1693 1690 1694
f 1695 1691 1692
f 1695 1692 1696
f 1697 1698 1699
f 1697 1699 1700
f 1701 1702 1703
f 1701 1703 1704
f 1705 1706 1707
f 1705 1707 1708
v -9.89489 -20.38889 0.4351928
v -10.83372 -20.29882 -1.034315
v -3.826004 -16.32296 -3.192873
v -4.764837 -16.23289 -4.66238
v -3.624972 -16.76162 -3.348192
v -4.563806 -16.67155 -4.817699
v -9.693859 -20.82755 0.2798736
v -10.63269 -20.73748 -1.189634
v -3.826004 -16.32296 -3.192873
v -4.764837 -16.23289 -4.66238
v -3.624972 -16.76162 -3.348192
v -4.563806 -16.67155 -4.817699
v -9.693859 -20.82755 0.2798736
v -9.89489 -20.38889 0.4351928
v -10.83372 -20.29882 -1.034315
v -10.63269 -20.73748 -1.189634
v -10.83372 -20.29882 -1.034315
v -4.764837 -16.23289 -4.66238
v -4.563806 -16.67155 -4.817699
v -10.63269 -20.73748 -1.189634
v -9.693859 -20.82755 0.2798736
v -3.624972 -16.76162 -3.348192
v -3.826004 -16.32296 -3.192873
v -9.89489 -20.38889 0.4351928
f 1709 1711 1712
f 1709 1712 1710
f 1717 1713 1714
f 1717 1714 1718
f 1719 1715 1716
f 1719 1716 1720
f 1721 1722 1723
f 1721 1723 1724
f 1725 1726 1727
f 1725 1727 1728
f 1729 1730 1731
f 1729 1731 1732
v -4.790684 -20.72618 -6.194752
v -4.485674 -20.87437 -7.432734
v -4.348537 -19.52167 -6.23
v -4.043527 -19.66985 -7.467981
v -5.957931 -20.30991 -6.529831
v -5.651852 -20.45862 -7.77215
v -5.514235 -19.10118 -6.565202
v -5.208156 -19.24989 -7.807521
v -3.987422 -20.3521 -6.707058
v -6.012578 -19.62587 -7.292942
v -5.384039 -21.0352 -6.969385
v -4.735075 -20.1177 -8.075282
v -4.615961 -18.94277 -7.030615
v -5.264925 -19.86027 -5.924717
v -4.472883 -20.15425 -6.035362
v -4.015345 -19.50738 -6.815052
v -4.099323 -20.33574 -7.551573
v -4.556861 -20.9826 -6.771883
v -5.986113 -20.47285 -7.185036
v -5.527048 -19.82383 -7.967329
v -5.442788 -18.9927 -7.228349
v -5.901854 -19.64173 -6.446056
v -5.084226 -20.81978 -7.738689
v -5.457276 -20.63865 -6.217189
v -4.541115 -19.34022 -7.781985
v -4.913951 -19.1585 -6.260502
v -4.722585 -20.63639 -6.14
v -4.635216 -20.50033 -6.082867
v -4.54881 -20.33591 -6.045142
v -4.353611 -19.63122 -6.169415
v -4.373852 -19.78832 -6.103702
v -4.413536 -19.96739 -6.055926
v -4.264432 -19.50514 -6.321383
v -4.164618 -19.4925 -6.460257
v -4.07749 -19.49229 -6.628582
v -4.009901 -19.6288 -7.354484
v -3.984319 -19.5801 -7.192058
v -3.984173 -19.53763 -7.00734
v -4.026269 -19.79025 -7.498039
v -4.022723 -19.95891 -7.528872
v -4.045852 -20.14603 -7.54829
v -4.395242 -20.79543 -7.468625
v -4.284087 -20.67093 -7.508036
v -4.181127 -20.51455 -7.537506
v -4.484421 -20.92151 -7.316656
v -4.493321 -20.96674 -7.151481
v -4.517173 -20.98965 -6.96485
v -4.738953 -20.79784 -6.283556
v -4.67362 -20.87914 -6.41968
v -4.61049 -20.94431 -6.586092
v -5.991664 -20.35105 -6.644029
v -6.017298 -20.39992 -6.806775
v -6.017391 -20.4425 -6.992106
v -5.736377 -20.47508 -7.680195
v -5.836393 -20.48781 -7.541033
v -5.923762 -20.48799 -7.37213
v -5.646761 -20.34838 -7.83291
v -5.626441 -20.19098 -7.898814
v -5.586596 -20.01131 -7.946695
v -5.276692 -19.34022 -7.862411
v -5.364199 -19.47657 -7.919719
v -5.45087 -19.64156 -7.957515
v -5.260244 -19.17798 -7.718152
v -5.325663 -19.09646 -7.581748
v -5.388984 -19.03113 -7.414762
v -5.515531 -19.05395 -6.681985
v -5.506567 -19.00856 -6.847489
v -5.482614 -18.98564 -7.034738
v -5.605147 -19.18064 -6.529271
v -5.71652 -19.3054 -6.489709
v -5.81978 -19.46232 -6.460174
v -5.975216 -20.1888 -6.49977
v -5.978762 -20.0198 -6.468803
v -5.955506 -19.83207 -6.449354
v -4.587161 -20.8893 -7.504673
v -4.734373 -20.89117 -7.592613
v -4.904322 -20.86827 -7.673344
v -5.560227 -20.5429 -7.788305
v -5.423263 -20.64687 -7.794185
v -5.260149 -20.74348 -7.778624
v -5.888682 -20.38332 -6.455165
v -5.775585 -20.47569 -6.364175
v -5.629059 -20.56425 -6.281282
v -4.914504 -20.73026 -6.176048
v -5.085502 -20.72057 -6.167444
v -5.272006 -20.68963 -6.18098
v -4.112641 -19.59659 -7.542501
v -4.225372 -19.50453 -7.63319
v -4.371322 -19.41625 -7.715834
v -5.084095 -19.2458 -7.826262
v -4.912533 -19.25551 -7.834899
v -4.725371 -19.28662 -7.821255
v -4.439983 -19.43755 -6.213877
v -4.5765 -19.33393 -6.208021
v -4.739006 -19.23761 -6.22347
v -5.412549 -19.08622 -6.493122
v -5.264854 -19.08434 -6.40489
v -5.094281 -19.10739 -6.323914
v -4.313342 -20.21634 -6.155904
v -4.174997 -20.27165 -6.310678
v -4.06466 -20.31761 -6.497187
v -3.949717 -19.70225 -6.775558
v -3.921115 -19.91272 -6.743317
v -3.933835 -20.13265 -6.720124
v -4.016459 -20.36058 -7.360903
v -3.967714 -20.37236 -7.152003
v -3.957847 -20.3695 -6.930718
v -4.380084 -20.87467 -6.741249
v -4.221596 -20.73129 -6.719364
v -4.088672 -20.55446 -6.707781
v -6.052053 -20.27743 -7.224674
v -6.080507 -20.06626 -7.256962
v -6.067693 -19.84558 -7.280221
v -5.687141 -19.76152 -7.846519
v -5.825756 -19.70609 -7.691083
v -5.936426 -19.65999 -7.503913
v -5.620163 -19.10086 -7.259103
v -5.778997 -19.24487 -7.280998
v -5.912332 -19.42234 -7.292606
v -5.985075 -19.61677 -6.637258
v -6.033749 -19.60504 -6.846877
v -6.043599 -19.60792 -7.068914
v -4.749362 -21.05529 -6.810611
v -4.956074 -21.09053 -6.85732
v -5.170874 -21.08378 -6.911051
v -5.172132 -20.93039 -7.57194
v -5.253422 -21.00481 -7.383208
v -5.324974 -21.0402 -7.17975
v -5.885283 -20.65121 -7.138844
v -5.749031 -20.80922 -7.08636
v -5.579212 -20.94072 -7.02878
v -5.464968 -20.78299 -6.369517
v -5.455403 -20.90129 -6.549222
v -5.427893 -20.98816 -6.752001
v -4.214145 -20.2986 -7.722673
v -4.360904 -20.24909 -7.87155
v -4.537184 -20.18787 -7.990921
v -4.566362 -19.51476 -7.911074
v -4.608277 -19.70753 -8.005144
v -4.665245 -19.91112 -8.06059
v -5.348269 -19.89199 -8.053968
v -5.152187 -19.96541 -8.10344
v -4.943673 -20.0422 -8.111804
v -4.993084 -20.67725 -7.877056
v -4.902207 -20.50827 -7.981713
v -4.815089 -20.31933 -8.048644
v -4.115908 -19.32961 -6.861109
v -4.251663 -19.17155 -6.913476
v -4.420875 -19.0406 -6.97084
v -4.829388 -19.05152 -6.420185
v -4.749012 -18.97691 -6.605535
v -4.675702 -18.93902 -6.811965
v -5.249703 -18.91974 -7.189511
v -5.042639 -18.88485 -7.142673
v -4.827022 -18.89157 -7.088744
v -4.533499 -19.1906 -7.622851
v -4.543813 -19.07167 -7.439777
v -4.571658 -18.98799 -7.239804
v -4.651125 -20.08629 -5.949046
v -4.846833 -20.013 -5.899246
v -5.054564 -19.9365 -5.89097
v -5.433379 -20.4714 -6.092476
v -5.392613 -20.28194 -5.99854
v -5.335336 -20.0752 -5.940248
v -5.786717 -19.67897 -6.274386
v -5.639482 -19.72866 -6.125592
v -5.462563 -19.79009 -6.005721
v -5.00149 -19.29483 -6.126906
v -5.091104 -19.46056 -6.022576
v -5.179976 -19.65196 -5.952633
v -4.606472 -20.70178 -6.243201
v -4.493881 -20.56679 -6.196466
v -4.393897 -20.40138 -6.164382
v -4.515043 -20.77553 -6.382063
v -4.37749 -20.63537 -6.343993
v -4.262466 -20.46431 -6.317504
v -4.438036 -20.83677 -6.551501
v -4.285691 -20.6934 -6.521197
v -4.158996 -20.51775 -6.501194
v -4.224732 -19.66183 -6.273633
v -4.109946 -19.67195 -6.414357
v -4.014832 -19.68386 -6.585238
v -4.225242 -19.83496 -6.217882
v -4.094925 -19.8656 -6.366518
v -3.99075 -19.88991 -6.54471
v -4.255316 -20.02385 -6.175429
v -4.117288 -20.06881 -6.329077
v -4.007297 -20.10449 -6.513287
v -3.961393 -19.78977 -7.342478
v -3.94579 -19.97073 -7.352126
v -3.963374 -20.16569 -7.360372
v -3.924628 -19.76199 -7.166529
v -3.900001 -19.9603 -7.157681
v -3.913826 -20.16766 -7.154892
v -3.919234 -19.7303 -6.973253
v -3.890601 -19.93857 -6.951199
v -3.902649 -20.15533 -6.938035
v -4.343133 -20.82972 -7.312047
v -4.329725 -20.86557 -7.134236
v -4.342438 -20.88321 -6.939516
v -4.214429 -20.70256 -7.33071
v -4.182566 -20.73008 -7.135155
v -4.185542 -20.74206 -6.927686
v -4.101954 -20.54322 -7.349324
v -4.059004 -20.56316 -7.143319
v -4.054348 -20.56859 -6.925941
v -6.040111 -20.18935 -6.656062
v -6.077208 -20.2175 -6.832404
v -6.082689 -20.24928 -7.026319
v -6.055961 -20.00792 -6.646062
v -6.101827 -20.01845 -6.841235
v -6.111161 -20.04025 -7.048408
v -6.038389 -19.81231 -6.637796
v -6.087859 -19.81041 -6.844041
v -6.099061 -19.8228 -7.061594
v -5.775996 -20.31767 -7.728058
v -5.775518 -20.14418 -7.784328
v -5.745409 -19.95465 -7.826949
v -5.891276 -20.30783 -7.587065
v -5.906242 -20.11347 -7.63508
v -5.883724 -19.90958 -7.672592
v -5.986765 -20.29588 -7.415654
v -6.01068 -20.08907 -7.456246
v -5.994058 -19.87381 -7.487782
v -5.393131 -19.27465 -7.758579
v -5.484743 -19.20034 -7.619473
v -5.562058 -19.13887 -7.449512
v -5.50599 -19.40992 -7.805815
v -5.622719 -19.34109 -7.657682
v -5.714762 -19.28292 -7.479836
v -5.606358 -19.57584 -7.838034
v -5.738064 -19.51277 -7.684204
v -5.841845 -19.45915 -7.499916
v -5.657246 -19.14633 -6.686584
v -5.786432 -19.27366 -6.667549
v -5.899338 -19.4335 -6.648881
v -5.670674 -19.11001 -6.864812
v -5.818304 -19.24606 -6.863837
v -5.942199 -19.41359 -6.855653
v -5.657981 -19.09227 -7.060176
v -5.815243 -19.2341 -7.071999
v -5.946847 -19.40813 -7.073728
v -4.899993 -20.84534 -6.298333
v -4.8545 -20.94156 -6.445823
v -4.801395 -21.01449 -6.61975
v -5.08146 -20.85418 -6.306831
v -5.051596 -20.96508 -6.47061
v -5.007083 -21.04624 -6.656697
v -5.274795 -20.83223 -6.329841
v -5.256176 -20.95034 -6.504153
v -5.219913 -21.03665 -6.700466
v -4.636654 -20.97328 -7.367178
v -4.802009 -20.98995 -7.441075
v -4.982852 -20.97407 -7.514783
v -4.669182 -21.0316 -7.197996
v -4.856672 -21.05979 -7.261772
v -5.052714 -21.04919 -7.329967
v -4.705797 -21.06093 -7.007766
v -4.906934 -21.09489 -7.063185
v -5.115265 -21.0875 -7.125213
v -5.643677 -20.61496 -7.659871
v -5.738033 -20.65135 -7.50819
v -5.822656 -20.66372 -7.331191
v -5.510345 -20.73901 -7.647793
v -5.601903 -20.79548 -7.478459
v -5.685096 -20.81891 -7.288668
v -5.347703 -20.84658 -7.622198
v -5.435089 -20.91516 -7.441689
v -5.515089 -20.94742 -7.241262
v -5.907792 -20.48664 -6.587875
v -5.790788 -20.60276 -6.509527
v -5.640683 -20.70424 -6.433045
v -5.923964 -20.56102 -6.753529
v -5.797488 -20.70046 -6.684614
v -5.639225 -20.81598 -6.613139
v -5.918579 -20.61712 -6.941856
v -5.785578 -20.77009 -6.880829
v -5.620092 -20.89641 -6.815074
v -4.500264 -20.78045 -7.599601
v -4.396152 -20.64559 -7.663267
v -4.296471 -20.48223 -7.705297
v -4.644274 -20.76695 -7.709871
v -4.543436 -20.61694 -7.795557
v -4.445188 -20.44208 -7.850045
v -4.814011 -20.73536 -7.802506
v -4.717506 -20.57527 -7.901195
v -4.622291 -20.39053 -7.965291
v -4.118525 -19.74051 -7.630033
v -4.239179 -19.66337 -7.742166
v -4.390807 -19.58245 -7.836243
v -4.127512 -19.91375 -7.684682
v -4.260871 -19.84716 -7.818082
v -4.422565 -19.77179 -7.924707
v -4.157892 -20.10471 -7.716344
v -4.30001 -20.04658 -7.861619
v -4.470592 -19.97727 -7.977384
v -5.123861 -19.37833 -7.923769
v -5.194574 -19.52981 -7.996481
v -5.272878 -19.70423 -8.042194
v -4.945642 -19.4079 -7.949743
v -5.004363 -19.57915 -8.036178
v -5.076425 -19.7675 -8.089296
v -4.753624 -19.45012 -7.944679
v -4.803115 -19.6339 -8.037951
v -4.868536 -19.83386 -8.095799
v -5.506726 -20.42134 -7.893248
v -5.352175 -20.51539 -7.917335
v -5.178332 -20.60712 -7.910822
v -5.464103 -20.26407 -7.974994
v -5.287886 -20.35153 -8.013576
v -5.099033 -20.44005 -8.014361
v -5.41193 -20.08304 -8.031109
v -5.222085 -20.16431 -8.077684
v -5.02075 -20.24853 -8.083666
v -4.093491 -19.49358 -7.410479
v -4.077398 -19.41944 -7.245174
v -4.082762 -19.36364 -7.057433
v -4.210227 -19.37779 -7.488252
v -4.203378 -19.28006 -7.313852
v -4.215259 -19.21061 -7.118325
v -4.359817 -19.27677 -7.564451
v -4.36104 -19.1649 -7.385107
v -4.380109 -19.08475 -7.183819
v -4.35683 -19.36563 -6.341633
v -4.489679 -19.24202 -6.354008
v -4.651759 -19.13493 -6.379508
v -4.262717 -19.3294 -6.492999
v -4.398303 -19.18536 -6.52269
v -4.564501 -19.06605 -6.559292
v -4.17836 -19.31719 -6.669418
v -4.315409 -19.16195 -6.711836
v -4.484756 -19.03391 -6.759072
v -5.362839 -19.00206 -6.631318
v -5.330226 -18.94353 -6.80086
v -5.293414 -18.91402 -6.991692
v -5.197052 -18.98528 -6.556859
v -5.142312 -18.9156 -6.736844
v -5.091923 -18.88041 -6.936127
v -5.015517 -19.00114 -6.482882
v -4.94557 -18.9263 -6.668436
v -4.882805 -18.88786 -6.873849
v -5.098724 -19.13038 -7.703313
v -4.91661 -19.12153 -7.695126
v -4.722538 -19.14348 -7.672036
v -5.144296 -19.03387 -7.555522
v -4.946727 -19.01063 -7.530689
v -4.741434 -19.02548 -7.496986
v -5.197491 -18.96062 -7.381028
v -4.991442 -18.92923 -7.343965
v -4.777802 -18.93888 -7.300038
v -4.493219 -19.55846 -6.109211
v -4.535746 -19.71541 -6.027729
v -4.587686 -19.89589 -5.971887
v -4.647414 -19.46503 -6.085212
v -4.711538 -19.62821 -5.988905
v -4.777154 -19.81476 -5.924976
v -4.820601 -19.37364 -6.091786
v -4.899709 -19.53997 -5.988065
v -4.977731 -19.73088 -5.918995
v -4.874959 -20.59841 -6.07878
v -5.052509 -20.56861 -6.052917
v -5.243805 -20.52655 -6.058049
v -4.804387 -20.44725 -6.006313
v -4.994103 -20.39798 -5.96638
v -5.19465 -20.34345 -5.964552
v -4.726265 -20.27342 -5.96084
v -4.922332 -20.21026 -5.913403
v -5.12943 -20.14414 -5.906901
v -5.882655 -20.2387 -6.367418
v -5.873685 -20.06507 -6.31257
v -5.843192 -19.87351 -6.280688
v -5.761758 -20.31639 -6.25491
v -5.739852 -20.13194 -6.179126
v -5.700595 -19.93183 -6.135498
v -5.609596 -20.3976 -6.160401
v -5.577543 -20.20757 -6.072174
v -5.529358 -20.00142 -6.019312
v -5.49979 -19.19568 -6.39794
v -5.355225 -19.2089 -6.287318
v -5.184888 -19.24059 -6.194258
v -5.604157 -19.33081 -6.334056
v -5.456329 -19.35956 -6.201728
v -5.281625 -19.40141 -6.095765
v -5.704142 -19.4947 -6.291773
v -5.554935 -19.53502 -6.14711
v -5.377145 -19.58675 -6.031446
v -4.088672 -20.55446 -6.707781
v -3.987422 -20.3521 -6.707058
v -3.987422 -20.3521 -6.707058
v -4.015345 -19.50738 -6.815052
v -3.949717 -19.70225 -6.775558
v -3.921115 -19.91272 -6.743317
v -3.933835 -20.13265 -6.720124
v -3.987422 -20.3521 -6.707058
v -3.987422 -20.3521 -6.707058
v -3.987422 -20.3521 -6.707058
v -4.088672 -20.55446 -6.707781
v -6.012578 -19.62587 -7.292942
v -6.012578 -19.62587 -7.292942
v -6.012578 -19.62587 -7.292942
v -6.012578 -19.62587 -7.292942
v -5.442788 -18.9927 -7.228349
v -5.620163 -19.10086 -7.259103
v -5.778997 -19.24487 -7.280998
v -5.912332 -19.42234 -7.292606
v -6.012578 -19.62587 -7.292942
v -4.790684 -20.72618 -6.194752
v -4.738953 -20.79784 -6.283556
v -4.67362 -20.87914 -6.41968
v -4.61049 -20.94431 -6.586092
v -4.556861 -20.9826 -6.771883
v -4.484421 -20.92151 -7.316656
v -4.485674 -20.87437 -7.432734
v -4.493321 -20.96674 -7.151481
v -4.517173 -20.98965 -6.96485
v -5.651852 -20.45862 -7.77215
v -5.736377 -20.47508 -7.680195
v -5.836393 -20.48781 -7.541033
v -5.923762 -20.48799 -7.37213
v -5.986113 -20.47285 -7.185036
v -5.991664 -20.35105 -6.644029
v -5.957931 -20.30991 -6.529831
v -6.017298 -20.39992 -6.806775
v -6.017391 -20.4425 -6.992106
v -4.485674 -20.87437 -7.432734
v -4.587161 -20.8893 -7.504673
v -4.395242 -20.79543 -7.468625
v -4.284087 -20.67093 -7.508036
v -4.181127 -20.51455 -7.537506
v -4.099323 -20.33574 -7.551573
v -4.734373 -20.89117 -7.592613
v -4.904322 -20.86827 -7.673344
v -5.084226 -20.81978 -7.738689
v -4.026269 -19.79025 -7.498039
v -4.043527 -19.66985 -7.467981
v -4.022723 -19.95891 -7.528872
v -4.045852 -20.14603 -7.54829
v -5.208156 -19.24989 -7.807521
v -5.276692 -19.34022 -7.862411
v -5.364199 -19.47657 -7.919719
v -5.45087 -19.64156 -7.957515
v -5.527048 -19.82383 -7.967329
v -5.646761 -20.34838 -7.83291
v -5.560227 -20.5429 -7.788305
v -5.651852 -20.45862 -7.77215
v -5.423263 -20.64687 -7.794185
v -5.260149 -20.74348 -7.778624
v -5.626441 -20.19098 -7.898814
v -5.586596 -20.01131 -7.946695
v -4.043527 -19.66985 -7.467981
v -4.112641 -19.59659 -7.542501
v -4.009901 -19.6288 -7.354484
v -3.984319 -19.5801 -7.192058
v -3.984173 -19.53763 -7.00734
v -4.015345 -19.50738 -6.815052
v -4.225372 -19.50453 -7.63319
v -4.371322 -19.41625 -7.715834
v -4.541115 -19.34022 -7.781985
v -4.264432 -19.50514 -6.321383
v -4.348537 -19.52167 -6.23
v -4.164618 -19.4925 -6.460257
v -4.07749 -19.49229 -6.628582
v -4.015345 -19.50738 -6.815052
v -4.115908 -19.32961 -6.861109
v -4.251663 -19.17155 -6.913476
v -4.420875 -19.0406 -6.97084
v -4.615961 -18.94277 -7.030615
v -5.514235 -19.10118 -6.565202
v -5.515531 -19.05395 -6.681985
v -5.506567 -19.00856 -6.847489
v -5.482614 -18.98564 -7.034738
v -5.442788 -18.9927 -7.228349
v -5.260244 -19.17798 -7.718152
v -5.084095 -19.2458 -7.826262
v -5.208156 -19.24989 -7.807521
v -4.912533 -19.25551 -7.834899
v -4.725371 -19.28662 -7.821255
v -5.325663 -19.09646 -7.581748
v -5.388984 -19.03113 -7.414762
v -5.442788 -18.9927 -7.228349
v -5.249703 -18.91974 -7.189511
v -5.042639 -18.88485 -7.142673
v -4.827022 -18.89157 -7.088744
v -4.348537 -19.52167 -6.23
v -4.439983 -19.43755 -6.213877
v -4.353611 -19.63122 -6.169415
v -4.373852 -19.78832 -6.103702
v -4.413536 -19.96739 -6.055926
v -4.472883 -20.15425 -6.035362
v -4.5765 -19.33393 -6.208021
v -4.739006 -19.23761 -6.22347
v -4.913951 -19.1585 -6.260502
v -4.722585 -20.63639 -6.14
v -4.914504 -20.73026 -6.176048
v -4.790684 -20.72618 -6.194752
v -5.085502 -20.72057 -6.167444
v -5.272006 -20.68963 -6.18098
v -5.457276 -20.63865 -6.217189
v -4.635216 -20.50033 -6.082867
v -4.54881 -20.33591 -6.045142
v -5.957931 -20.30991 -6.529831
v -5.888682 -20.38332 -6.455165
v -5.975216 -20.1888 -6.49977
v -5.978762 -20.0198 -6.468803
v -5.955506 -19.83207 -6.449354
v -5.901854 -19.64173 -6.446056
v -5.775585 -20.47569 -6.364175
v -5.629059 -20.56425 -6.281282
v -5.605147 -19.18064 -6.529271
v -5.412549 -19.08622 -6.493122
v -5.514235 -19.10118 -6.565202
v -5.264854 -19.08434 -6.40489
v -5.094281 -19.10739 -6.323914
v -5.71652 -19.3054 -6.489709
v -5.81978 -19.46232 -6.460174
f 1910 2119 1911
f 1907 1910 1911
f 1906 1910 1907
f 1906 1909 1910
f 1909 1841 1910
f 1910 1841 1842
f 1911 1842 1741
f 1938 1842 1841
f 1907 1911 1908
f 1908 1911 1833
f 1911 2120 1833
f 1903 1906 1907
f 1904 1907 1908
f 1903 1907 1904
f 1781 1909 1906
f 1780 1781 1906
f 1780 1906 1903
f 1733 1780 1903
f 1733 1903 1759
f 1759 1903 1904
f 1781 1782 1909
f 1759 1904 1760
f 1782 1840 1909
f 1782 1750 1840
f 1909 1840 1841
f 1760 1904 1905
f 1904 1908 1905
f 1760 1905 1761
f 1932 1840 1750
f 1932 1750 1779
f 1935 1841 1840
f 1935 1840 1932
f 1938 1841 1935
f 1905 1908 1832
f 1908 1833 1832
f 1761 1905 1831
f 1905 1832 1831
f 1761 1831 1747
f 1931 1932 1779
f 1931 1779 1778
f 1934 1935 1932
f 1934 1932 1931
f 1747 1831 1918
f 1747 1918 1764
f 1831 1832 1919
f 1831 1919 1918
f 1832 1833 1920
f 1832 1920 1919
f 1930 1931 1778
f 1930 1778 1777
f 1764 1918 1915
f 1764 1915 1763
f 1833 1836 1920
f 1833 2121 1836
f 1920 1836 1835
f 1920 1835 1917
f 1919 1920 1917
f 1917 1835 1834
f 1918 1919 1916
f 1919 1917 1916
f 1918 1916 1915
f 1917 1834 1914
f 1916 1917 1914
f 1914 1834 1748
f 1914 1748 1767
f 1916 1914 1913
f 1913 1914 1767
f 1915 1916 1913
f 1913 1767 1766
f 1915 1913 1912
f 1912 1913 1766
f 1763 1915 1912
f 1912 1766 1765
f 1763 1912 1762
f 1762 1912 1765
f 1762 1765 1735
f 1839 2128 1842
f 1929 2127 1839
f 1926 1929 1839
f 1926 1839 1838
f 1838 1839 1938
f 1839 2129 1938
f 1838 1938 1937
f 1937 1938 1935
f 1937 1935 1934
f 1837 1838 1937
f 1936 1937 1934
f 1837 1937 1936
f 1923 1926 1838
f 1923 1838 1837
f 1936 1934 1933
f 1933 1934 1931
f 1933 1931 1930
f 1749 1837 1936
f 1773 1837 1749
f 1773 1923 1837
f 1749 1936 1776
f 1776 1936 1933
f 1776 1933 1775
f 1775 1933 1930
f 1775 1930 1774
f 1774 1930 1777
f 1774 1777 1734
f 1772 1923 1773
f 1772 1922 1923
f 1771 1922 1772
f 1922 1926 1923
f 1771 1921 1922
f 1736 1921 1771
f 1736 1768 1921
f 1922 1925 1926
f 1921 1925 1922
f 1925 1929 1926
f 1768 1924 1921
f 1921 1924 1925
f 1768 1769 1924
f 1925 1928 1929
f 1924 1928 1925
f 1769 1927 1924
f 1924 1927 1928
f 1769 1770 1927
f 1928 2125 1929
f 1929 2125 2126
f 1928 2124 2125
f 1927 2124 1928
f 1927 2123 2124
f 1770 2123 1927
f 1770 2122 2123
f 1947 1854 1742
f 1946 1854 1947
f 1943 1946 1947
f 1943 1947 1944
f 1944 1947 1845
f 1947 2130 1845
f 1946 1853 1854
f 1942 1946 1943
f 1945 1853 1946
f 1942 1945 1946
f 1940 1943 1944
f 1939 1942 1943
f 1939 1943 1940
f 1805 1945 1942
f 1804 1805 1942
f 1804 1942 1939
f 1737 1804 1939
f 1737 1939 1783
f 1783 1939 1940
f 1805 1806 1945
f 1783 1940 1784
f 1806 1852 1945
f 1945 1852 1853
f 1806 1754 1852
f 1784 1940 1941
f 1940 1944 1941
f 1784 1941 1785
f 1968 1852 1754
f 1968 1754 1803
f 1971 1853 1852
f 1971 1852 1968
f 1941 1944 1844
f 1944 1845 1844
f 1785 1941 1843
f 1941 1844 1843
f 1785 1843 1751
f 1967 1968 1803
f 1967 1803 1802
f 1751 1843 1954
f 1751 1954 1788
f 1843 1844 1955
f 1843 1955 1954
f 1844 1845 1956
f 1844 1956 1955
f 1788 1954 1951
f 1788 1951 1787
f 1954 1955 1952
f 1954 1952 1951
f 1787 1951 1948
f 1787 1948 1786
f 1786 1948 1789
f 1786 1789 1738
f 1948 1790 1789
f 1951 1949 1948
f 1948 1949 1790
f 1951 1952 1949
f 1949 1791 1790
f 1949 1950 1791
f 1952 1950 1949
f 1950 1752 1791
f 1955 1953 1952
f 1952 1953 1950
f 1955 1956 1953
f 1950 1846 1752
f 1953 1846 1950
f 1794 1752 1846
f 1956 1847 1953
f 1953 1847 1846
f 1794 1846 1963
f 1963 1846 1847
f 1793 1794 1963
f 1956 1848 1847
f 1845 1848 1956
f 1845 2131 1848
f 1793 1963 1960
f 1792 1793 1960
f 1963 1847 1964
f 1964 1847 1848
f 1960 1963 1964
f 1792 1960 1957
f 1740 1792 1957
f 1740 1957 1795
f 1964 1848 1965
f 1965 1848 2132
f 1960 1964 1961
f 1957 1960 1961
f 1961 1964 1965
f 1795 1957 1958
f 1957 1961 1958
f 1795 1958 1796
f 1961 1965 1962
f 1958 1961 1962
f 1796 1958 1959
f 1958 1962 1959
f 1796 1959 1797
f 1962 1965 1851
f 1965 2133 1851
f 1962 1851 1850
f 1959 1962 1850
f 1959 1850 1849
f 1797 1959 1849
f 1797 1849 1753
f 1798 1801 1739
f 1798 1966 1801
f 1966 1802 1801
f 1799 1966 1798
f 1966 1967 1802
f 1799 1969 1966
f 1969 1967 1966
f 1800 1969 1799
f 1969 1970 1967
f 1970 1968 1967
f 1970 1971 1968
f 1800 1972 1969
f 1972 1970 1969
f 2134 1972 1800
f 2134 2135 1972
f 1972 1973 1970
f 2135 1973 1972
f 1973 1971 1970
f 2135 2136 1973
f 1973 1974 1971
f 2136 1974 1973
f 1974 1853 1971
f 2136 2137 1974
f 1974 1854 1853
f 2137 1854 1974
f 2137 2138 1854
f 2144 1807 2145
f 2144 1984 1807
f 2146 1984 2144
f 1984 1808 1807
f 2146 1987 1984
f 2147 1987 2146
f 1984 1985 1808
f 1987 1985 1984
f 1985 1809 1808
f 2147 1990 1987
f 2143 1990 2147
f 1985 1986 1809
f 1986 1755 1809
f 1987 1988 1985
f 1990 1988 1987
f 1988 1986 1985
f 2143 1855 1990
f 2142 1855 2143
f 1986 1858 1755
f 1812 1755 1858
f 1988 1989 1986
f 1989 1858 1986
f 1990 1991 1988
f 1855 1991 1990
f 1991 1989 1988
f 2142 1977 1855
f 2141 1977 2142
f 1812 1858 1999
f 1811 1812 1999
f 1855 1856 1991
f 1977 1856 1855
f 1989 1859 1858
f 1999 1858 1859
f 1991 1992 1989
f 1856 1992 1991
f 1992 1859 1989
f 2141 1976 1977
f 2140 1976 2141
f 1811 1999 1996
f 1810 1811 1996
f 1977 1980 1856
f 1976 1980 1977
f 1856 1857 1992
f 1980 1857 1856
f 1992 1860 1859
f 1857 1860 1992
f 1999 1859 2000
f 1996 1999 2000
f 2000 1859 1860
f 2140 1975 1976
f 2139 1975 2140
f 2139 1816 1975
f 1976 1979 1980
f 1975 1979 1976
f 1816 1978 1975
f 1975 1978 1979
f 1816 1817 1978
f 1980 1983 1857
f 1979 1983 1980
f 1857 1743 1860
f 1983 1743 1857
f 2000 1860 2001
f 2001 1860 1743
f 1817 1981 1978
f 1817 1818 1981
f 1978 1982 1979
f 1979 1982 1983
f 1978 1981 1982
f 1983 1866 1743
f 1982 1866 1983
f 1818 1864 1981
f 1818 1756 1864
f 1981 1865 1982
f 1982 1865 1866
f 1981 1864 1865
f 1863 1743 1866
f 2001 1743 1863
f 1997 2000 2001
f 1996 2000 1997
f 2004 1864 1756
f 2004 1756 1815
f 2007 1865 1864
f 2007 1864 2004
f 2010 1866 1865
f 1863 1866 2010
f 2010 1865 2007
f 1998 2001 1863
f 1997 2001 1998
f 1993 1996 1997
f 1810 1996 1993
f 2148 1810 1993
f 2148 1993 2149
f 1993 1997 1994
f 2149 1993 1994
f 1994 1997 1998
f 2149 1994 2150
f 2150 1994 1995
f 1994 1998 1995
f 2150 1995 2151
f 1998 1863 1862
f 1995 1998 1862
f 1862 1863 2010
f 2151 1995 1861
f 1995 1862 1861
f 2151 1861 2152
f 1862 2010 2009
f 1861 1862 2009
f 2009 2010 2007
f 2152 1861 2008
f 1861 2009 2008
f 2152 2008 2156
f 2009 2007 2006
f 2008 2009 2006
f 2006 2007 2004
f 2156 2008 2005
f 2008 2006 2005
f 2156 2005 2155
f 2006 2004 2003
f 2005 2006 2003
f 2003 2004 1815
f 2003 1815 1814
f 2155 2005 2002
f 2005 2003 2002
f 2002 2003 1814
f 2155 2002 2153
f 2002 1814 1813
f 2153 2002 1813
f 2153 1813 2154
f 2166 1819 2167
f 2166 2020 1819
f 2168 2020 2166
f 2020 1820 1819
f 2168 2023 2020
f 2169 2023 2168
f 2020 2021 1820
f 2023 2021 2020
f 2021 1821 1820
f 2169 2026 2023
f 2162 2026 2169
f 2021 2022 1821
f 2022 1757 1821
f 2023 2024 2021
f 2026 2024 2023
f 2024 2022 2021
f 2162 1867 2026
f 2161 1867 2162
f 2022 1870 1757
f 1824 1757 1870
f 2024 2025 2022
f 2025 1870 2022
f 2026 2027 2024
f 1867 2027 2026
f 2027 2025 2024
f 2161 2013 1867
f 2160 2013 2161
f 1824 1870 2035
f 1823 1824 2035
f 1867 1868 2027
f 2013 1868 1867
f 2025 1871 1870
f 2035 1870 1871
f 2027 2028 2025
f 1868 2028 2027
f 2028 1871 2025
f 2160 2012 2013
f 2159 2012 2160
f 1823 2035 2032
f 1822 1823 2032
f 2013 2016 1868
f 2012 2016 2013
f 1868 1869 2028
f 2016 1869 1868
f 2028 1872 1871
f 1869 1872 2028
f 2035 1871 2036
f 2032 2035 2036
f 2036 1871 1872
f 2159 2011 2012
f 2157 2011 2159
f 2157 2158 2011
f 2012 2015 2016
f 2011 2015 2012
f 2158 2014 2011
f 2011 2014 2015
f 2158 2163 2014
f 2016 2019 1869
f 2015 2019 2016
f 1869 1744 1872
f 2019 1744 1869
f 2036 1872 2037
f 2037 1872 1744
f 2163 2017 2014
f 2163 2164 2017
f 2014 2018 2015
f 2015 2018 2019
f 2014 2017 2018
f 2019 1878 1744
f 2018 1878 2019
f 2164 1876 2017
f 2164 2165 1876
f 2017 1877 2018
f 2018 1877 1878
f 2017 1876 1877
f 1875 1744 1878
f 2037 1744 1875
f 2033 2036 2037
f 2032 2036 2033
f 2040 1876 2165
f 2040 2165 2179
f 2043 1877 1876
f 2043 1876 2040
f 2046 1878 1877
f 1875 1878 2046
f 2046 1877 2043
f 2034 2037 1875
f 2033 2037 2034
f 2029 2032 2033
f 1822 2032 2029
f 2170 1822 2029
f 2170 2029 2171
f 2029 2033 2030
f 2171 2029 2030
f 2030 2033 2034
f 2171 2030 2172
f 2172 2030 2031
f 2030 2034 2031
f 2172 2031 2173
f 2034 1875 1874
f 2031 2034 1874
f 1874 1875 2046
f 2173 2031 1873
f 2031 1874 1873
f 2173 1873 2174
f 1874 2046 2045
f 1873 1874 2045
f 2045 2046 2043
f 2174 1873 2044
f 1873 2045 2044
f 2174 2044 2181
f 2045 2043 2042
f 2044 2045 2042
f 2042 2043 2040
f 2181 2044 2041
f 2044 2042 2041
f 2181 2041 2180
f 2042 2040 2039
f 2041 2042 2039
f 2039 2040 2179
f 2039 2179 2178
f 2180 2041 2038
f 2041 2039 2038
f 2038 2039 2178
f 2180 2038 2175
f 2038 2178 2176
f 2175 2038 2176
f 2175 2176 2177
f 2186 1879 2187
f 2186 2049 1879
f 2185 2049 2186
f 2049 1880 1879
f 2185 2048 2049
f 2184 2048 2185
f 2049 2052 1880
f 2048 2052 2049
f 2052 1881 1880
f 2184 2047 2048
f 2182 2047 2184
f 2182 2183 2047
f 2048 2051 2052
f 2047 2051 2048
f 2052 2055 1881
f 2051 2055 2052
f 2055 1745 1881
f 2183 2050 2047
f 2047 2050 2051
f 2183 2188 2050
f 2051 2054 2055
f 2050 2054 2051
f 2055 1890 1745
f 2054 1890 2055
f 2215 1745 1890
f 2188 2053 2050
f 2050 2053 2054
f 2188 2189 2053
f 2215 1890 2082
f 2214 2215 2082
f 2054 1889 1890
f 2053 1889 2054
f 2082 1890 1889
f 2189 1888 2053
f 2053 1888 1889
f 2189 2190 1888
f 2214 2082 2081
f 2213 2214 2081
f 2082 1889 2079
f 2079 1889 1888
f 2081 2082 2079
f 2076 1888 2190
f 2079 1888 2076
f 2076 2190 2209
f 2213 2081 2080
f 2212 2213 2080
f 2212 2080 2211
f 2081 2079 2078
f 2078 2079 2076
f 2080 2081 2078
f 2075 2076 2209
f 2078 2076 2075
f 2075 2209 2208
f 2211 2080 2077
f 2080 2078 2077
f 2077 2078 2075
f 2211 2077 2210
f 2074 2075 2208
f 2077 2075 2074
f 2210 2077 2074
f 2074 2208 2206
f 2210 2074 2205
f 2205 2074 2206
f 2205 2206 2207
f 2191 1825 2192
f 2191 2056 1825
f 2193 2056 2191
f 2056 1826 1825
f 2193 2059 2056
f 2194 2059 2193
f 2056 2057 1826
f 2059 2057 2056
f 2057 1827 1826
f 2194 2062 2059
f 2195 2062 2194
f 2195 2196 2062
f 2057 2058 1827
f 2058 1758 1827
f 2059 2060 2057
f 2062 2060 2059
f 2060 2058 2057
f 2196 2063 2062
f 2062 2063 2060
f 2196 2197 2063
f 2058 1882 1758
f 1830 1758 1882
f 2060 2061 2058
f 2063 2061 2060
f 2061 1882 2058
f 2197 2064 2063
f 2063 2064 2061
f 2197 2198 2064
f 1830 1882 2071
f 1829 1830 2071
f 2061 1883 1882
f 2064 1883 2061
f 2071 1882 1883
f 2198 1884 2064
f 2064 1884 1883
f 2198 2199 1884
f 1829 2071 2068
f 1828 1829 2068
f 2071 1883 2072
f 2072 1883 1884
f 2068 2071 2072
f 2073 1884 2199
f 2072 1884 2073
f 2073 2199 1887
f 1828 2068 2065
f 2200 1828 2065
f 2200 2065 2201
f 2068 2072 2069
f 2069 2072 2073
f 2065 2068 2069
f 2070 2073 1887
f 2069 2073 2070
f 2070 1887 1886
f 2201 2065 2066
f 2065 2069 2066
f 2066 2069 2070
f 2201 2066 2202
f 2067 2070 1886
f 2066 2070 2067
f 2202 2066 2067
f 2067 1886 1885
f 2202 2067 2203
f 2203 2067 1885
f 2203 1885 2204
f 2225 2226 2227
f 2225 2092 2226
f 2231 2092 2225
f 2092 2228 2226
f 2231 2095 2092
f 2232 2095 2231
f 2092 2093 2228
f 2095 2093 2092
f 2093 2229 2228
f 2232 2098 2095
f 2221 2098 2232
f 2093 2094 2229
f 2094 2230 2229
f 2095 2096 2093
f 2098 2096 2095
f 2096 2094 2093
f 2221 1891 2098
f 2220 1891 2221
f 2094 1894 2230
f 2240 2230 1894
f 2096 2097 2094
f 2097 1894 2094
f 2098 2099 2096
f 1891 2099 2098
f 2099 2097 2096
f 2220 2085 1891
f 2219 2085 2220
f 2240 1894 2107
f 2239 2240 2107
f 1891 1892 2099
f 2085 1892 1891
f 2097 1895 1894
f 2107 1894 1895
f 2099 2100 2097
f 1892 2100 2099
f 2100 1895 2097
f 2219 2084 2085
f 2218 2084 2219
f 2239 2107 2104
f 2234 2239 2104
f 2085 2088 1892
f 2084 2088 2085
f 1892 1893 2100
f 2088 1893 1892
f 2100 1896 1895
f 1893 1896 2100
f 2107 1895 2108
f 2104 2107 2108
f 2108 1895 1896
f 2218 2083 2084
f 2216 2083 2218
f 2216 2217 2083
f 2084 2087 2088
f 2083 2087 2084
f 2217 2086 2083
f 2083 2086 2087
f 2217 2222 2086
f 2088 2091 1893
f 2087 2091 2088
f 1893 1746 1896
f 2091 1746 1893
f 2108 1896 2109
f 2109 1896 1746
f 2222 2089 2086
f 2222 2223 2089
f 2086 2090 2087
f 2087 2090 2091
f 2086 2089 2090
f 2091 1902 1746
f 2090 1902 2091
f 2223 1900 2089
f 2223 2224 1900
f 2089 1901 2090
f 2090 1901 1902
f 2089 1900 1901
f 1899 1746 1902
f 2109 1746 1899
f 2105 2108 2109
f 2104 2108 2105
f 2112 1900 2224
f 2112 2224 2245
f 2115 1901 1900
f 2115 1900 2112
f 2118 1902 1901
f 1899 1902 2118
f 2118 1901 2115
f 2106 2109 1899
f 2105 2109 2106
f 2101 2104 2105
f 2234 2104 2101
f 2233 2234 2101
f 2233 2101 2235
f 2101 2105 2102
f 2235 2101 2102
f 2102 2105 2106
f 2235 2102 2236
f 2236 2102 2103
f 2102 2106 2103
f 2236 2103 2237
f 2106 1899 1898
f 2103 2106 1898
f 1898 1899 2118
f 2237 2103 1897
f 2103 1898 1897
f 2237 1897 2238
f 1898 2118 2117
f 1897 1898 2117
f 2117 2118 2115
f 2238 1897 2116
f 1897 2117 2116
f 2238 2116 2247
f 2117 2115 2114
f 2116 2117 2114
f 2114 2115 2112
f 2247 2116 2113
f 2116 2114 2113
f 2247 2113 2246
f 2114 2112 2111
f 2113 2114 2111
f 2111 2112 2245
f 2111 2245 2244
f 2246 2113 2110
f 2113 2111 2110
f 2110 2111 2244
f 2246 2110 2241
f 2110 2244 2242
f 2241 2110 2242
f 2241 2242 2243
